<?xml version="1.0" encoding="utf-8" standalone="no"?>
<!DOCTYPE svg PUBLIC "-//W3C//DTD SVG 1.1//EN"
  "http://www.w3.org/Graphics/SVG/1.1/DTD/svg11.dtd">
<svg xmlns:xlink="http://www.w3.org/1999/xlink" width="460.8pt" height="345.6pt" viewBox="0 0 460.8 345.6" xmlns="http://www.w3.org/2000/svg" version="1.1">
 <metadata>
  <rdf:RDF xmlns:dc="http://purl.org/dc/elements/1.1/" xmlns:cc="http://creativecommons.org/ns#" xmlns:rdf="http://www.w3.org/1999/02/22-rdf-syntax-ns#">
   <cc:Work>
    <dc:type rdf:resource="http://purl.org/dc/dcmitype/StillImage"/>
    <dc:date>2022-02-11T14:34:07.810391</dc:date>
    <dc:format>image/svg+xml</dc:format>
    <dc:creator>
     <cc:Agent>
      <dc:title>Matplotlib v3.5.0, https://matplotlib.org/</dc:title>
     </cc:Agent>
    </dc:creator>
   </cc:Work>
  </rdf:RDF>
 </metadata>
 <defs>
  <style type="text/css">*{stroke-linejoin: round; stroke-linecap: butt}</style>
 </defs>
 <g id="figure_1">
  <g id="patch_1">
   <path d="M 0 345.6 
L 460.8 345.6 
L 460.8 0 
L 0 0 
z
" style="fill: #ffffff"/>
  </g>
  <g id="axes_1">
   <g id="patch_2">
    <path d="M 57.6 307.584 
L 414.72 307.584 
L 414.72 41.472 
L 57.6 41.472 
z
" style="fill: #ffffff"/>
   </g>
   <g id="matplotlib.axis_1">
    <g id="xtick_1">
     <g id="line2d_1">
      <defs>
       <path id="m4218b65348" d="M 0 0 
L 0 3.5 
" style="stroke: #000000; stroke-width: 0.8"/>
      </defs>
      <g>
       <use xlink:href="#m4218b65348" x="70.672487" y="307.584" style="stroke: #000000; stroke-width: 0.8"/>
      </g>
     </g>
     <g id="text_1">
      <!-- 7.5 -->
      <g transform="translate(62.720925 322.182437)scale(0.1 -0.1)">
       <defs>
        <path id="DejaVuSans-37" d="M 525 4666 
L 3525 4666 
L 3525 4397 
L 1831 0 
L 1172 0 
L 2766 4134 
L 525 4134 
L 525 4666 
z
" transform="scale(0.015625)"/>
        <path id="DejaVuSans-2e" d="M 684 794 
L 1344 794 
L 1344 0 
L 684 0 
L 684 794 
z
" transform="scale(0.015625)"/>
        <path id="DejaVuSans-35" d="M 691 4666 
L 3169 4666 
L 3169 4134 
L 1269 4134 
L 1269 2991 
Q 1406 3038 1543 3061 
Q 1681 3084 1819 3084 
Q 2600 3084 3056 2656 
Q 3513 2228 3513 1497 
Q 3513 744 3044 326 
Q 2575 -91 1722 -91 
Q 1428 -91 1123 -41 
Q 819 9 494 109 
L 494 744 
Q 775 591 1075 516 
Q 1375 441 1709 441 
Q 2250 441 2565 725 
Q 2881 1009 2881 1497 
Q 2881 1984 2565 2268 
Q 2250 2553 1709 2553 
Q 1456 2553 1204 2497 
Q 953 2441 691 2322 
L 691 4666 
z
" transform="scale(0.015625)"/>
       </defs>
       <use xlink:href="#DejaVuSans-37"/>
       <use xlink:href="#DejaVuSans-2e" x="63.623047"/>
       <use xlink:href="#DejaVuSans-35" x="95.410156"/>
      </g>
     </g>
    </g>
    <g id="xtick_2">
     <g id="line2d_2">
      <g>
       <use xlink:href="#m4218b65348" x="110.379982" y="307.584" style="stroke: #000000; stroke-width: 0.8"/>
      </g>
     </g>
     <g id="text_2">
      <!-- 10.0 -->
      <g transform="translate(99.24717 322.182437)scale(0.1 -0.1)">
       <defs>
        <path id="DejaVuSans-31" d="M 794 531 
L 1825 531 
L 1825 4091 
L 703 3866 
L 703 4441 
L 1819 4666 
L 2450 4666 
L 2450 531 
L 3481 531 
L 3481 0 
L 794 0 
L 794 531 
z
" transform="scale(0.015625)"/>
        <path id="DejaVuSans-30" d="M 2034 4250 
Q 1547 4250 1301 3770 
Q 1056 3291 1056 2328 
Q 1056 1369 1301 889 
Q 1547 409 2034 409 
Q 2525 409 2770 889 
Q 3016 1369 3016 2328 
Q 3016 3291 2770 3770 
Q 2525 4250 2034 4250 
z
M 2034 4750 
Q 2819 4750 3233 4129 
Q 3647 3509 3647 2328 
Q 3647 1150 3233 529 
Q 2819 -91 2034 -91 
Q 1250 -91 836 529 
Q 422 1150 422 2328 
Q 422 3509 836 4129 
Q 1250 4750 2034 4750 
z
" transform="scale(0.015625)"/>
       </defs>
       <use xlink:href="#DejaVuSans-31"/>
       <use xlink:href="#DejaVuSans-30" x="63.623047"/>
       <use xlink:href="#DejaVuSans-2e" x="127.246094"/>
       <use xlink:href="#DejaVuSans-30" x="159.033203"/>
      </g>
     </g>
    </g>
    <g id="xtick_3">
     <g id="line2d_3">
      <g>
       <use xlink:href="#m4218b65348" x="150.087477" y="307.584" style="stroke: #000000; stroke-width: 0.8"/>
      </g>
     </g>
     <g id="text_3">
      <!-- 12.5 -->
      <g transform="translate(138.954664 322.182437)scale(0.1 -0.1)">
       <defs>
        <path id="DejaVuSans-32" d="M 1228 531 
L 3431 531 
L 3431 0 
L 469 0 
L 469 531 
Q 828 903 1448 1529 
Q 2069 2156 2228 2338 
Q 2531 2678 2651 2914 
Q 2772 3150 2772 3378 
Q 2772 3750 2511 3984 
Q 2250 4219 1831 4219 
Q 1534 4219 1204 4116 
Q 875 4013 500 3803 
L 500 4441 
Q 881 4594 1212 4672 
Q 1544 4750 1819 4750 
Q 2544 4750 2975 4387 
Q 3406 4025 3406 3419 
Q 3406 3131 3298 2873 
Q 3191 2616 2906 2266 
Q 2828 2175 2409 1742 
Q 1991 1309 1228 531 
z
" transform="scale(0.015625)"/>
       </defs>
       <use xlink:href="#DejaVuSans-31"/>
       <use xlink:href="#DejaVuSans-32" x="63.623047"/>
       <use xlink:href="#DejaVuSans-2e" x="127.246094"/>
       <use xlink:href="#DejaVuSans-35" x="159.033203"/>
      </g>
     </g>
    </g>
    <g id="xtick_4">
     <g id="line2d_4">
      <g>
       <use xlink:href="#m4218b65348" x="189.794972" y="307.584" style="stroke: #000000; stroke-width: 0.8"/>
      </g>
     </g>
     <g id="text_4">
      <!-- 15.0 -->
      <g transform="translate(178.662159 322.182437)scale(0.1 -0.1)">
       <use xlink:href="#DejaVuSans-31"/>
       <use xlink:href="#DejaVuSans-35" x="63.623047"/>
       <use xlink:href="#DejaVuSans-2e" x="127.246094"/>
       <use xlink:href="#DejaVuSans-30" x="159.033203"/>
      </g>
     </g>
    </g>
    <g id="xtick_5">
     <g id="line2d_5">
      <g>
       <use xlink:href="#m4218b65348" x="229.502467" y="307.584" style="stroke: #000000; stroke-width: 0.8"/>
      </g>
     </g>
     <g id="text_5">
      <!-- 17.5 -->
      <g transform="translate(218.369654 322.182437)scale(0.1 -0.1)">
       <use xlink:href="#DejaVuSans-31"/>
       <use xlink:href="#DejaVuSans-37" x="63.623047"/>
       <use xlink:href="#DejaVuSans-2e" x="127.246094"/>
       <use xlink:href="#DejaVuSans-35" x="159.033203"/>
      </g>
     </g>
    </g>
    <g id="xtick_6">
     <g id="line2d_6">
      <g>
       <use xlink:href="#m4218b65348" x="269.209962" y="307.584" style="stroke: #000000; stroke-width: 0.8"/>
      </g>
     </g>
     <g id="text_6">
      <!-- 20.0 -->
      <g transform="translate(258.077149 322.182437)scale(0.1 -0.1)">
       <use xlink:href="#DejaVuSans-32"/>
       <use xlink:href="#DejaVuSans-30" x="63.623047"/>
       <use xlink:href="#DejaVuSans-2e" x="127.246094"/>
       <use xlink:href="#DejaVuSans-30" x="159.033203"/>
      </g>
     </g>
    </g>
    <g id="xtick_7">
     <g id="line2d_7">
      <g>
       <use xlink:href="#m4218b65348" x="308.917456" y="307.584" style="stroke: #000000; stroke-width: 0.8"/>
      </g>
     </g>
     <g id="text_7">
      <!-- 22.5 -->
      <g transform="translate(297.784644 322.182437)scale(0.1 -0.1)">
       <use xlink:href="#DejaVuSans-32"/>
       <use xlink:href="#DejaVuSans-32" x="63.623047"/>
       <use xlink:href="#DejaVuSans-2e" x="127.246094"/>
       <use xlink:href="#DejaVuSans-35" x="159.033203"/>
      </g>
     </g>
    </g>
    <g id="xtick_8">
     <g id="line2d_8">
      <g>
       <use xlink:href="#m4218b65348" x="348.624951" y="307.584" style="stroke: #000000; stroke-width: 0.8"/>
      </g>
     </g>
     <g id="text_8">
      <!-- 25.0 -->
      <g transform="translate(337.492139 322.182437)scale(0.1 -0.1)">
       <use xlink:href="#DejaVuSans-32"/>
       <use xlink:href="#DejaVuSans-35" x="63.623047"/>
       <use xlink:href="#DejaVuSans-2e" x="127.246094"/>
       <use xlink:href="#DejaVuSans-30" x="159.033203"/>
      </g>
     </g>
    </g>
    <g id="xtick_9">
     <g id="line2d_9">
      <g>
       <use xlink:href="#m4218b65348" x="388.332446" y="307.584" style="stroke: #000000; stroke-width: 0.8"/>
      </g>
     </g>
     <g id="text_9">
      <!-- 27.5 -->
      <g transform="translate(377.199634 322.182437)scale(0.1 -0.1)">
       <use xlink:href="#DejaVuSans-32"/>
       <use xlink:href="#DejaVuSans-37" x="63.623047"/>
       <use xlink:href="#DejaVuSans-2e" x="127.246094"/>
       <use xlink:href="#DejaVuSans-35" x="159.033203"/>
      </g>
     </g>
    </g>
    <g id="text_10">
     <!-- log(v) -->
     <g transform="translate(221.676406 335.860562)scale(0.1 -0.1)">
      <defs>
       <path id="DejaVuSans-6c" d="M 603 4863 
L 1178 4863 
L 1178 0 
L 603 0 
L 603 4863 
z
" transform="scale(0.015625)"/>
       <path id="DejaVuSans-6f" d="M 1959 3097 
Q 1497 3097 1228 2736 
Q 959 2375 959 1747 
Q 959 1119 1226 758 
Q 1494 397 1959 397 
Q 2419 397 2687 759 
Q 2956 1122 2956 1747 
Q 2956 2369 2687 2733 
Q 2419 3097 1959 3097 
z
M 1959 3584 
Q 2709 3584 3137 3096 
Q 3566 2609 3566 1747 
Q 3566 888 3137 398 
Q 2709 -91 1959 -91 
Q 1206 -91 779 398 
Q 353 888 353 1747 
Q 353 2609 779 3096 
Q 1206 3584 1959 3584 
z
" transform="scale(0.015625)"/>
       <path id="DejaVuSans-67" d="M 2906 1791 
Q 2906 2416 2648 2759 
Q 2391 3103 1925 3103 
Q 1463 3103 1205 2759 
Q 947 2416 947 1791 
Q 947 1169 1205 825 
Q 1463 481 1925 481 
Q 2391 481 2648 825 
Q 2906 1169 2906 1791 
z
M 3481 434 
Q 3481 -459 3084 -895 
Q 2688 -1331 1869 -1331 
Q 1566 -1331 1297 -1286 
Q 1028 -1241 775 -1147 
L 775 -588 
Q 1028 -725 1275 -790 
Q 1522 -856 1778 -856 
Q 2344 -856 2625 -561 
Q 2906 -266 2906 331 
L 2906 616 
Q 2728 306 2450 153 
Q 2172 0 1784 0 
Q 1141 0 747 490 
Q 353 981 353 1791 
Q 353 2603 747 3093 
Q 1141 3584 1784 3584 
Q 2172 3584 2450 3431 
Q 2728 3278 2906 2969 
L 2906 3500 
L 3481 3500 
L 3481 434 
z
" transform="scale(0.015625)"/>
       <path id="DejaVuSans-28" d="M 1984 4856 
Q 1566 4138 1362 3434 
Q 1159 2731 1159 2009 
Q 1159 1288 1364 580 
Q 1569 -128 1984 -844 
L 1484 -844 
Q 1016 -109 783 600 
Q 550 1309 550 2009 
Q 550 2706 781 3412 
Q 1013 4119 1484 4856 
L 1984 4856 
z
" transform="scale(0.015625)"/>
       <path id="DejaVuSans-76" d="M 191 3500 
L 800 3500 
L 1894 563 
L 2988 3500 
L 3597 3500 
L 2284 0 
L 1503 0 
L 191 3500 
z
" transform="scale(0.015625)"/>
       <path id="DejaVuSans-29" d="M 513 4856 
L 1013 4856 
Q 1481 4119 1714 3412 
Q 1947 2706 1947 2009 
Q 1947 1309 1714 600 
Q 1481 -109 1013 -844 
L 513 -844 
Q 928 -128 1133 580 
Q 1338 1288 1338 2009 
Q 1338 2731 1133 3434 
Q 928 4138 513 4856 
z
" transform="scale(0.015625)"/>
      </defs>
      <use xlink:href="#DejaVuSans-6c"/>
      <use xlink:href="#DejaVuSans-6f" x="27.783203"/>
      <use xlink:href="#DejaVuSans-67" x="88.964844"/>
      <use xlink:href="#DejaVuSans-28" x="152.441406"/>
      <use xlink:href="#DejaVuSans-76" x="191.455078"/>
      <use xlink:href="#DejaVuSans-29" x="250.634766"/>
     </g>
    </g>
   </g>
   <g id="matplotlib.axis_2">
    <g id="ytick_1">
     <g id="line2d_10">
      <defs>
       <path id="m14f8d694de" d="M 0 0 
L -3.5 0 
" style="stroke: #000000; stroke-width: 0.8"/>
      </defs>
      <g>
       <use xlink:href="#m14f8d694de" x="57.6" y="289.321287" style="stroke: #000000; stroke-width: 0.8"/>
      </g>
     </g>
     <g id="text_11">
      <!-- −16 -->
      <g transform="translate(29.495313 293.120506)scale(0.1 -0.1)">
       <defs>
        <path id="DejaVuSans-2212" d="M 678 2272 
L 4684 2272 
L 4684 1741 
L 678 1741 
L 678 2272 
z
" transform="scale(0.015625)"/>
        <path id="DejaVuSans-36" d="M 2113 2584 
Q 1688 2584 1439 2293 
Q 1191 2003 1191 1497 
Q 1191 994 1439 701 
Q 1688 409 2113 409 
Q 2538 409 2786 701 
Q 3034 994 3034 1497 
Q 3034 2003 2786 2293 
Q 2538 2584 2113 2584 
z
M 3366 4563 
L 3366 3988 
Q 3128 4100 2886 4159 
Q 2644 4219 2406 4219 
Q 1781 4219 1451 3797 
Q 1122 3375 1075 2522 
Q 1259 2794 1537 2939 
Q 1816 3084 2150 3084 
Q 2853 3084 3261 2657 
Q 3669 2231 3669 1497 
Q 3669 778 3244 343 
Q 2819 -91 2113 -91 
Q 1303 -91 875 529 
Q 447 1150 447 2328 
Q 447 3434 972 4092 
Q 1497 4750 2381 4750 
Q 2619 4750 2861 4703 
Q 3103 4656 3366 4563 
z
" transform="scale(0.015625)"/>
       </defs>
       <use xlink:href="#DejaVuSans-2212"/>
       <use xlink:href="#DejaVuSans-31" x="83.789062"/>
       <use xlink:href="#DejaVuSans-36" x="147.412109"/>
      </g>
     </g>
    </g>
    <g id="ytick_2">
     <g id="line2d_11">
      <g>
       <use xlink:href="#m14f8d694de" x="57.6" y="248.71412" style="stroke: #000000; stroke-width: 0.8"/>
      </g>
     </g>
     <g id="text_12">
      <!-- −15 -->
      <g transform="translate(29.495313 252.513339)scale(0.1 -0.1)">
       <use xlink:href="#DejaVuSans-2212"/>
       <use xlink:href="#DejaVuSans-31" x="83.789062"/>
       <use xlink:href="#DejaVuSans-35" x="147.412109"/>
      </g>
     </g>
    </g>
    <g id="ytick_3">
     <g id="line2d_12">
      <g>
       <use xlink:href="#m14f8d694de" x="57.6" y="208.106954" style="stroke: #000000; stroke-width: 0.8"/>
      </g>
     </g>
     <g id="text_13">
      <!-- −14 -->
      <g transform="translate(29.495313 211.906173)scale(0.1 -0.1)">
       <defs>
        <path id="DejaVuSans-34" d="M 2419 4116 
L 825 1625 
L 2419 1625 
L 2419 4116 
z
M 2253 4666 
L 3047 4666 
L 3047 1625 
L 3713 1625 
L 3713 1100 
L 3047 1100 
L 3047 0 
L 2419 0 
L 2419 1100 
L 313 1100 
L 313 1709 
L 2253 4666 
z
" transform="scale(0.015625)"/>
       </defs>
       <use xlink:href="#DejaVuSans-2212"/>
       <use xlink:href="#DejaVuSans-31" x="83.789062"/>
       <use xlink:href="#DejaVuSans-34" x="147.412109"/>
      </g>
     </g>
    </g>
    <g id="ytick_4">
     <g id="line2d_13">
      <g>
       <use xlink:href="#m14f8d694de" x="57.6" y="167.499787" style="stroke: #000000; stroke-width: 0.8"/>
      </g>
     </g>
     <g id="text_14">
      <!-- −13 -->
      <g transform="translate(29.495313 171.299006)scale(0.1 -0.1)">
       <defs>
        <path id="DejaVuSans-33" d="M 2597 2516 
Q 3050 2419 3304 2112 
Q 3559 1806 3559 1356 
Q 3559 666 3084 287 
Q 2609 -91 1734 -91 
Q 1441 -91 1130 -33 
Q 819 25 488 141 
L 488 750 
Q 750 597 1062 519 
Q 1375 441 1716 441 
Q 2309 441 2620 675 
Q 2931 909 2931 1356 
Q 2931 1769 2642 2001 
Q 2353 2234 1838 2234 
L 1294 2234 
L 1294 2753 
L 1863 2753 
Q 2328 2753 2575 2939 
Q 2822 3125 2822 3475 
Q 2822 3834 2567 4026 
Q 2313 4219 1838 4219 
Q 1578 4219 1281 4162 
Q 984 4106 628 3988 
L 628 4550 
Q 988 4650 1302 4700 
Q 1616 4750 1894 4750 
Q 2613 4750 3031 4423 
Q 3450 4097 3450 3541 
Q 3450 3153 3228 2886 
Q 3006 2619 2597 2516 
z
" transform="scale(0.015625)"/>
       </defs>
       <use xlink:href="#DejaVuSans-2212"/>
       <use xlink:href="#DejaVuSans-31" x="83.789062"/>
       <use xlink:href="#DejaVuSans-33" x="147.412109"/>
      </g>
     </g>
    </g>
    <g id="ytick_5">
     <g id="line2d_14">
      <g>
       <use xlink:href="#m14f8d694de" x="57.6" y="126.892621" style="stroke: #000000; stroke-width: 0.8"/>
      </g>
     </g>
     <g id="text_15">
      <!-- −12 -->
      <g transform="translate(29.495313 130.69184)scale(0.1 -0.1)">
       <use xlink:href="#DejaVuSans-2212"/>
       <use xlink:href="#DejaVuSans-31" x="83.789062"/>
       <use xlink:href="#DejaVuSans-32" x="147.412109"/>
      </g>
     </g>
    </g>
    <g id="ytick_6">
     <g id="line2d_15">
      <g>
       <use xlink:href="#m14f8d694de" x="57.6" y="86.285454" style="stroke: #000000; stroke-width: 0.8"/>
      </g>
     </g>
     <g id="text_16">
      <!-- −11 -->
      <g transform="translate(29.495313 90.084673)scale(0.1 -0.1)">
       <use xlink:href="#DejaVuSans-2212"/>
       <use xlink:href="#DejaVuSans-31" x="83.789062"/>
       <use xlink:href="#DejaVuSans-31" x="147.412109"/>
      </g>
     </g>
    </g>
    <g id="ytick_7">
     <g id="line2d_16">
      <g>
       <use xlink:href="#m14f8d694de" x="57.6" y="45.678288" style="stroke: #000000; stroke-width: 0.8"/>
      </g>
     </g>
     <g id="text_17">
      <!-- −10 -->
      <g transform="translate(29.495313 49.477507)scale(0.1 -0.1)">
       <use xlink:href="#DejaVuSans-2212"/>
       <use xlink:href="#DejaVuSans-31" x="83.789062"/>
       <use xlink:href="#DejaVuSans-30" x="147.412109"/>
      </g>
     </g>
    </g>
    <g id="text_18">
     <!-- log(vFv) -->
     <g transform="translate(23.415625 194.84675)rotate(-90)scale(0.1 -0.1)">
      <defs>
       <path id="DejaVuSans-46" d="M 628 4666 
L 3309 4666 
L 3309 4134 
L 1259 4134 
L 1259 2759 
L 3109 2759 
L 3109 2228 
L 1259 2228 
L 1259 0 
L 628 0 
L 628 4666 
z
" transform="scale(0.015625)"/>
      </defs>
      <use xlink:href="#DejaVuSans-6c"/>
      <use xlink:href="#DejaVuSans-6f" x="27.783203"/>
      <use xlink:href="#DejaVuSans-67" x="88.964844"/>
      <use xlink:href="#DejaVuSans-28" x="152.441406"/>
      <use xlink:href="#DejaVuSans-76" x="191.455078"/>
      <use xlink:href="#DejaVuSans-46" x="250.634766"/>
      <use xlink:href="#DejaVuSans-76" x="308.154297"/>
      <use xlink:href="#DejaVuSans-29" x="367.333984"/>
     </g>
    </g>
   </g>
   <g id="line2d_17">
    <defs>
     <path id="ma7200b5532" d="M 0 1.5 
C 0.397805 1.5 0.77937 1.341951 1.06066 1.06066 
C 1.341951 0.77937 1.5 0.397805 1.5 0 
C 1.5 -0.397805 1.341951 -0.77937 1.06066 -1.06066 
C 0.77937 -1.341951 0.397805 -1.5 0 -1.5 
C -0.397805 -1.5 -0.77937 -1.341951 -1.06066 -1.06066 
C -1.341951 -0.77937 -1.5 -0.397805 -1.5 0 
C -1.5 0.397805 -1.341951 0.77937 -1.06066 1.06066 
C -0.77937 1.341951 -0.397805 1.5 0 1.5 
z
" style="stroke: #1f77b4"/>
    </defs>
    <g clip-path="url(#pdcd1fa2722)">
     <use xlink:href="#ma7200b5532" x="183.046745" y="89.193096" style="fill: #1f77b4; stroke: #1f77b4"/>
     <use xlink:href="#ma7200b5532" x="184.557871" y="88.20242" style="fill: #1f77b4; stroke: #1f77b4"/>
     <use xlink:href="#ma7200b5532" x="185.613851" y="85.936226" style="fill: #1f77b4; stroke: #1f77b4"/>
     <use xlink:href="#ma7200b5532" x="187.153195" y="88.883875" style="fill: #1f77b4; stroke: #1f77b4"/>
     <use xlink:href="#ma7200b5532" x="187.18468" y="85.425017" style="fill: #1f77b4; stroke: #1f77b4"/>
     <use xlink:href="#ma7200b5532" x="188.731738" y="91.311897" style="fill: #1f77b4; stroke: #1f77b4"/>
     <use xlink:href="#ma7200b5532" x="189.568862" y="86.587835" style="fill: #1f77b4; stroke: #1f77b4"/>
     <use xlink:href="#ma7200b5532" x="191.334214" y="81.658538" style="fill: #1f77b4; stroke: #1f77b4"/>
     <use xlink:href="#ma7200b5532" x="191.934454" y="84.604615" style="fill: #1f77b4; stroke: #1f77b4"/>
     <use xlink:href="#ma7200b5532" x="221.244125" y="86.913756" style="fill: #1f77b4; stroke: #1f77b4"/>
     <use xlink:href="#ma7200b5532" x="223.140654" y="84.130089" style="fill: #1f77b4; stroke: #1f77b4"/>
     <use xlink:href="#ma7200b5532" x="224.409335" y="90.894744" style="fill: #1f77b4; stroke: #1f77b4"/>
     <use xlink:href="#ma7200b5532" x="225.666971" y="90.331263" style="fill: #1f77b4; stroke: #1f77b4"/>
     <use xlink:href="#ma7200b5532" x="226.570791" y="90.397938" style="fill: #1f77b4; stroke: #1f77b4"/>
     <use xlink:href="#ma7200b5532" x="227.333766" y="94.744307" style="fill: #1f77b4; stroke: #1f77b4"/>
     <use xlink:href="#ma7200b5532" x="228.085766" y="92.201673" style="fill: #1f77b4; stroke: #1f77b4"/>
     <use xlink:href="#ma7200b5532" x="228.822241" y="93.112746" style="fill: #1f77b4; stroke: #1f77b4"/>
     <use xlink:href="#ma7200b5532" x="229.513992" y="92.30061" style="fill: #1f77b4; stroke: #1f77b4"/>
     <use xlink:href="#ma7200b5532" x="230.166644" y="96.044662" style="fill: #1f77b4; stroke: #1f77b4"/>
     <use xlink:href="#ma7200b5532" x="230.828437" y="95.831266" style="fill: #1f77b4; stroke: #1f77b4"/>
     <use xlink:href="#ma7200b5532" x="231.55085" y="96.447953" style="fill: #1f77b4; stroke: #1f77b4"/>
     <use xlink:href="#ma7200b5532" x="232.535332" y="99.638194" style="fill: #1f77b4; stroke: #1f77b4"/>
     <use xlink:href="#ma7200b5532" x="233.747511" y="96.989646" style="fill: #1f77b4; stroke: #1f77b4"/>
     <use xlink:href="#ma7200b5532" x="235.320853" y="101.837985" style="fill: #1f77b4; stroke: #1f77b4"/>
     <use xlink:href="#ma7200b5532" x="237.680593" y="105.258975" style="fill: #1f77b4; stroke: #1f77b4"/>
     <use xlink:href="#ma7200b5532" x="239.800643" y="108.671929" style="fill: #1f77b4; stroke: #1f77b4"/>
     <use xlink:href="#ma7200b5532" x="333.913573" y="115.388561" style="fill: #1f77b4; stroke: #1f77b4"/>
     <use xlink:href="#ma7200b5532" x="341.222922" y="120.584865" style="fill: #1f77b4; stroke: #1f77b4"/>
     <use xlink:href="#ma7200b5532" x="348.532487" y="112.43542" style="fill: #1f77b4; stroke: #1f77b4"/>
     <use xlink:href="#ma7200b5532" x="362.206379" y="118.937691" style="fill: #1f77b4; stroke: #1f77b4"/>
     <use xlink:href="#ma7200b5532" x="367.078819" y="138.256159" style="fill: #1f77b4; stroke: #1f77b4"/>
     <use xlink:href="#ma7200b5532" x="371.95148" y="153.435375" style="fill: #1f77b4; stroke: #1f77b4"/>
     <use xlink:href="#ma7200b5532" x="376.823734" y="141.776428" style="fill: #1f77b4; stroke: #1f77b4"/>
    </g>
   </g>
   <g id="line2d_18">
    <defs>
     <path id="m908670442a" d="M 0 1.5 
C 0.397805 1.5 0.77937 1.341951 1.06066 1.06066 
C 1.341951 0.77937 1.5 0.397805 1.5 0 
C 1.5 -0.397805 1.341951 -0.77937 1.06066 -1.06066 
C 0.77937 -1.341951 0.397805 -1.5 0 -1.5 
C -0.397805 -1.5 -0.77937 -1.341951 -1.06066 -1.06066 
C -1.341951 -0.77937 -1.5 -0.397805 -1.5 0 
C -1.5 0.397805 -1.341951 0.77937 -1.06066 1.06066 
C -0.77937 1.341951 -0.397805 1.5 0 1.5 
z
" style="stroke: #ff7f0e"/>
    </defs>
    <g clip-path="url(#pdcd1fa2722)">
     <use xlink:href="#m908670442a" x="73.832727" y="487.921599" style="fill: #ff7f0e; stroke: #ff7f0e"/>
     <use xlink:href="#m908670442a" x="77.250145" y="459.857254" style="fill: #ff7f0e; stroke: #ff7f0e"/>
     <use xlink:href="#m908670442a" x="80.667562" y="429.871744" style="fill: #ff7f0e; stroke: #ff7f0e"/>
     <use xlink:href="#m908670442a" x="84.08498" y="399.320049" style="fill: #ff7f0e; stroke: #ff7f0e"/>
     <use xlink:href="#m908670442a" x="87.502398" y="368.735056" style="fill: #ff7f0e; stroke: #ff7f0e"/>
     <use xlink:href="#m908670442a" x="90.919815" y="338.151931" style="fill: #ff7f0e; stroke: #ff7f0e"/>
     <use xlink:href="#m908670442a" x="94.337233" y="307.570065" style="fill: #ff7f0e; stroke: #ff7f0e"/>
     <use xlink:href="#m908670442a" x="97.754635" y="276.98897" style="fill: #ff7f0e; stroke: #ff7f0e"/>
     <use xlink:href="#m908670442a" x="101.172052" y="246.408404" style="fill: #ff7f0e; stroke: #ff7f0e"/>
     <use xlink:href="#m908670442a" x="104.58947" y="215.830314" style="fill: #ff7f0e; stroke: #ff7f0e"/>
     <use xlink:href="#m908670442a" x="108.006887" y="185.307572" style="fill: #ff7f0e; stroke: #ff7f0e"/>
     <use xlink:href="#m908670442a" x="111.424305" y="156.173635" style="fill: #ff7f0e; stroke: #ff7f0e"/>
     <use xlink:href="#m908670442a" x="114.841723" y="137.863254" style="fill: #ff7f0e; stroke: #ff7f0e"/>
     <use xlink:href="#m908670442a" x="118.25914" y="131.163921" style="fill: #ff7f0e; stroke: #ff7f0e"/>
     <use xlink:href="#m908670442a" x="121.676558" y="128.107128" style="fill: #ff7f0e; stroke: #ff7f0e"/>
     <use xlink:href="#m908670442a" x="125.093975" y="125.841028" style="fill: #ff7f0e; stroke: #ff7f0e"/>
     <use xlink:href="#m908670442a" x="128.511393" y="123.734697" style="fill: #ff7f0e; stroke: #ff7f0e"/>
     <use xlink:href="#m908670442a" x="131.928811" y="121.660365" style="fill: #ff7f0e; stroke: #ff7f0e"/>
     <use xlink:href="#m908670442a" x="135.346228" y="119.591437" style="fill: #ff7f0e; stroke: #ff7f0e"/>
     <use xlink:href="#m908670442a" x="138.76363" y="117.5246" style="fill: #ff7f0e; stroke: #ff7f0e"/>
     <use xlink:href="#m908670442a" x="142.181048" y="115.457573" style="fill: #ff7f0e; stroke: #ff7f0e"/>
     <use xlink:href="#m908670442a" x="145.598465" y="113.390321" style="fill: #ff7f0e; stroke: #ff7f0e"/>
     <use xlink:href="#m908670442a" x="149.015883" y="111.323056" style="fill: #ff7f0e; stroke: #ff7f0e"/>
     <use xlink:href="#m908670442a" x="152.4333" y="109.255937" style="fill: #ff7f0e; stroke: #ff7f0e"/>
     <use xlink:href="#m908670442a" x="155.850718" y="107.189086" style="fill: #ff7f0e; stroke: #ff7f0e"/>
     <use xlink:href="#m908670442a" x="159.268136" y="105.122792" style="fill: #ff7f0e; stroke: #ff7f0e"/>
     <use xlink:href="#m908670442a" x="162.685553" y="103.057388" style="fill: #ff7f0e; stroke: #ff7f0e"/>
     <use xlink:href="#m908670442a" x="166.102971" y="100.993448" style="fill: #ff7f0e; stroke: #ff7f0e"/>
     <use xlink:href="#m908670442a" x="169.520388" y="98.931975" style="fill: #ff7f0e; stroke: #ff7f0e"/>
     <use xlink:href="#m908670442a" x="172.937806" y="96.874472" style="fill: #ff7f0e; stroke: #ff7f0e"/>
     <use xlink:href="#m908670442a" x="176.355224" y="94.823623" style="fill: #ff7f0e; stroke: #ff7f0e"/>
     <use xlink:href="#m908670442a" x="179.772625" y="92.783767" style="fill: #ff7f0e; stroke: #ff7f0e"/>
     <use xlink:href="#m908670442a" x="183.190043" y="90.761912" style="fill: #ff7f0e; stroke: #ff7f0e"/>
     <use xlink:href="#m908670442a" x="186.607461" y="88.769787" style="fill: #ff7f0e; stroke: #ff7f0e"/>
     <use xlink:href="#m908670442a" x="190.024878" y="86.826414" style="fill: #ff7f0e; stroke: #ff7f0e"/>
     <use xlink:href="#m908670442a" x="193.442296" y="84.962768" style="fill: #ff7f0e; stroke: #ff7f0e"/>
     <use xlink:href="#m908670442a" x="196.859713" y="83.22857" style="fill: #ff7f0e; stroke: #ff7f0e"/>
     <use xlink:href="#m908670442a" x="200.277131" y="81.702157" style="fill: #ff7f0e; stroke: #ff7f0e"/>
     <use xlink:href="#m908670442a" x="203.694549" y="80.503206" style="fill: #ff7f0e; stroke: #ff7f0e"/>
     <use xlink:href="#m908670442a" x="207.111966" y="79.803901" style="fill: #ff7f0e; stroke: #ff7f0e"/>
     <use xlink:href="#m908670442a" x="210.529384" y="79.825992" style="fill: #ff7f0e; stroke: #ff7f0e"/>
     <use xlink:href="#m908670442a" x="213.946801" y="80.791741" style="fill: #ff7f0e; stroke: #ff7f0e"/>
     <use xlink:href="#m908670442a" x="217.364219" y="82.792262" style="fill: #ff7f0e; stroke: #ff7f0e"/>
     <use xlink:href="#m908670442a" x="220.781637" y="85.626755" style="fill: #ff7f0e; stroke: #ff7f0e"/>
     <use xlink:href="#m908670442a" x="224.199038" y="88.883537" style="fill: #ff7f0e; stroke: #ff7f0e"/>
     <use xlink:href="#m908670442a" x="227.616456" y="92.315039" style="fill: #ff7f0e; stroke: #ff7f0e"/>
     <use xlink:href="#m908670442a" x="231.033874" y="95.964025" style="fill: #ff7f0e; stroke: #ff7f0e"/>
     <use xlink:href="#m908670442a" x="234.451291" y="100.056813" style="fill: #ff7f0e; stroke: #ff7f0e"/>
     <use xlink:href="#m908670442a" x="237.868709" y="105.031174" style="fill: #ff7f0e; stroke: #ff7f0e"/>
     <use xlink:href="#m908670442a" x="241.286126" y="111.659474" style="fill: #ff7f0e; stroke: #ff7f0e"/>
     <use xlink:href="#m908670442a" x="244.703544" y="121.147328" style="fill: #ff7f0e; stroke: #ff7f0e"/>
     <use xlink:href="#m908670442a" x="248.120962" y="134.727925" style="fill: #ff7f0e; stroke: #ff7f0e"/>
     <use xlink:href="#m908670442a" x="251.538379" y="150.168658" style="fill: #ff7f0e; stroke: #ff7f0e"/>
     <use xlink:href="#m908670442a" x="254.955797" y="156.801528" style="fill: #ff7f0e; stroke: #ff7f0e"/>
     <use xlink:href="#m908670442a" x="258.373214" y="155.568907" style="fill: #ff7f0e; stroke: #ff7f0e"/>
     <use xlink:href="#m908670442a" x="261.790632" y="153.43686" style="fill: #ff7f0e; stroke: #ff7f0e"/>
     <use xlink:href="#m908670442a" x="265.208034" y="151.316045" style="fill: #ff7f0e; stroke: #ff7f0e"/>
     <use xlink:href="#m908670442a" x="268.625451" y="149.216736" style="fill: #ff7f0e; stroke: #ff7f0e"/>
     <use xlink:href="#m908670442a" x="272.042869" y="147.134197" style="fill: #ff7f0e; stroke: #ff7f0e"/>
     <use xlink:href="#m908670442a" x="275.460287" y="145.067049" style="fill: #ff7f0e; stroke: #ff7f0e"/>
     <use xlink:href="#m908670442a" x="278.877704" y="143.017686" style="fill: #ff7f0e; stroke: #ff7f0e"/>
     <use xlink:href="#m908670442a" x="282.295122" y="140.995896" style="fill: #ff7f0e; stroke: #ff7f0e"/>
     <use xlink:href="#m908670442a" x="285.712539" y="139.008459" style="fill: #ff7f0e; stroke: #ff7f0e"/>
     <use xlink:href="#m908670442a" x="289.129957" y="137.075558" style="fill: #ff7f0e; stroke: #ff7f0e"/>
     <use xlink:href="#m908670442a" x="292.547375" y="135.22241" style="fill: #ff7f0e; stroke: #ff7f0e"/>
     <use xlink:href="#m908670442a" x="295.964792" y="133.459449" style="fill: #ff7f0e; stroke: #ff7f0e"/>
     <use xlink:href="#m908670442a" x="299.38221" y="131.773196" style="fill: #ff7f0e; stroke: #ff7f0e"/>
     <use xlink:href="#m908670442a" x="302.799627" y="130.152524" style="fill: #ff7f0e; stroke: #ff7f0e"/>
     <use xlink:href="#m908670442a" x="306.217045" y="128.588011" style="fill: #ff7f0e; stroke: #ff7f0e"/>
     <use xlink:href="#m908670442a" x="309.634447" y="127.07783" style="fill: #ff7f0e; stroke: #ff7f0e"/>
     <use xlink:href="#m908670442a" x="313.051864" y="125.616256" style="fill: #ff7f0e; stroke: #ff7f0e"/>
     <use xlink:href="#m908670442a" x="316.469282" y="124.203046" style="fill: #ff7f0e; stroke: #ff7f0e"/>
     <use xlink:href="#m908670442a" x="319.8867" y="122.843152" style="fill: #ff7f0e; stroke: #ff7f0e"/>
     <use xlink:href="#m908670442a" x="323.304117" y="121.540637" style="fill: #ff7f0e; stroke: #ff7f0e"/>
     <use xlink:href="#m908670442a" x="326.721535" y="120.29623" style="fill: #ff7f0e; stroke: #ff7f0e"/>
     <use xlink:href="#m908670442a" x="330.138952" y="119.113465" style="fill: #ff7f0e; stroke: #ff7f0e"/>
     <use xlink:href="#m908670442a" x="333.55637" y="117.988606" style="fill: #ff7f0e; stroke: #ff7f0e"/>
     <use xlink:href="#m908670442a" x="336.973788" y="116.941591" style="fill: #ff7f0e; stroke: #ff7f0e"/>
     <use xlink:href="#m908670442a" x="340.391205" y="115.996134" style="fill: #ff7f0e; stroke: #ff7f0e"/>
     <use xlink:href="#m908670442a" x="343.808623" y="115.165149" style="fill: #ff7f0e; stroke: #ff7f0e"/>
     <use xlink:href="#m908670442a" x="347.22604" y="114.48701" style="fill: #ff7f0e; stroke: #ff7f0e"/>
     <use xlink:href="#m908670442a" x="350.643442" y="114.039316" style="fill: #ff7f0e; stroke: #ff7f0e"/>
     <use xlink:href="#m908670442a" x="354.06086" y="114.011622" style="fill: #ff7f0e; stroke: #ff7f0e"/>
     <use xlink:href="#m908670442a" x="357.478277" y="114.941729" style="fill: #ff7f0e; stroke: #ff7f0e"/>
     <use xlink:href="#m908670442a" x="360.895695" y="118.041193" style="fill: #ff7f0e; stroke: #ff7f0e"/>
     <use xlink:href="#m908670442a" x="364.313113" y="124.687895" style="fill: #ff7f0e; stroke: #ff7f0e"/>
     <use xlink:href="#m908670442a" x="367.73053" y="134.698537" style="fill: #ff7f0e; stroke: #ff7f0e"/>
     <use xlink:href="#m908670442a" x="371.147948" y="145.638026" style="fill: #ff7f0e; stroke: #ff7f0e"/>
     <use xlink:href="#m908670442a" x="374.565365" y="155.371523" style="fill: #ff7f0e; stroke: #ff7f0e"/>
     <use xlink:href="#m908670442a" x="377.982783" y="165.455541" style="fill: #ff7f0e; stroke: #ff7f0e"/>
     <use xlink:href="#m908670442a" x="381.400201" y="183.056312" style="fill: #ff7f0e; stroke: #ff7f0e"/>
     <use xlink:href="#m908670442a" x="384.817618" y="217.258713" style="fill: #ff7f0e; stroke: #ff7f0e"/>
     <use xlink:href="#m908670442a" x="388.235036" y="296.688889" style="fill: #ff7f0e; stroke: #ff7f0e"/>
     <use xlink:href="#m908670442a" x="391.652438" y="537.734532" style="fill: #ff7f0e; stroke: #ff7f0e"/>
     <use xlink:href="#m908670442a" x="395.069855" y="1161.821363" style="fill: #ff7f0e; stroke: #ff7f0e"/>
     <use xlink:href="#m908670442a" x="398.487273" y="2210.830031" style="fill: #ff7f0e; stroke: #ff7f0e"/>
    </g>
   </g>
   <g id="line2d_19">
    <path d="M 89.975876 346.6 
L 93.709536 313.187212 
L 100.335139 253.897473 
L 106.960742 194.651242 
L 113.586345 144.589515 
L 120.211948 129.417184 
L 126.837551 124.766372 
L 133.463154 120.731463 
L 140.088757 116.723096 
L 146.71436 112.715294 
L 153.339963 108.707589 
L 159.965566 104.701282 
L 166.591169 100.698955 
L 173.216772 96.70706 
L 179.842375 92.742501 
L 186.467978 88.851096 
L 193.093581 85.152935 
L 199.719184 81.951368 
L 206.344787 79.960889 
L 212.97039 80.51581 
L 219.595993 84.643352 
L 226.221596 90.91443 
L 232.847199 98.13571 
L 239.472801 108.142414 
L 246.098404 126.690413 
L 252.724007 152.469845 
L 259.34961 154.959757 
L 265.975213 150.844769 
L 272.600816 146.796702 
L 279.226419 142.811382 
L 285.852022 138.929567 
L 292.477625 135.260232 
L 299.103228 131.910854 
L 305.728831 128.811518 
L 312.354434 125.914536 
L 318.980037 123.203941 
L 325.60564 120.702568 
L 332.231243 118.424778 
L 338.856846 116.420628 
L 345.482449 114.833002 
L 352.108052 114.027447 
L 358.733655 116.080307 
L 365.359258 127.752369 
L 371.984861 148.021724 
L 378.610464 168.688294 
L 385.236067 226.984608 
L 387.507171 346.6 
" clip-path="url(#pdcd1fa2722)" style="fill: none; stroke: #2ca02c; stroke-width: 1.5; stroke-linecap: square"/>
   </g>
   <g id="patch_3">
    <path d="M 57.6 307.584 
L 57.6 41.472 
" style="fill: none; stroke: #000000; stroke-width: 0.8; stroke-linejoin: miter; stroke-linecap: square"/>
   </g>
   <g id="patch_4">
    <path d="M 414.72 307.584 
L 414.72 41.472 
" style="fill: none; stroke: #000000; stroke-width: 0.8; stroke-linejoin: miter; stroke-linecap: square"/>
   </g>
   <g id="patch_5">
    <path d="M 57.6 307.584 
L 414.72 307.584 
" style="fill: none; stroke: #000000; stroke-width: 0.8; stroke-linejoin: miter; stroke-linecap: square"/>
   </g>
   <g id="patch_6">
    <path d="M 57.6 41.472 
L 414.72 41.472 
" style="fill: none; stroke: #000000; stroke-width: 0.8; stroke-linejoin: miter; stroke-linecap: square"/>
   </g>
   <g id="text_19">
    <!-- MCMC $\chi^2$ = 187.21 -->
    <g transform="translate(179.34 35.472)scale(0.12 -0.12)">
     <defs>
      <path id="DejaVuSans-4d" d="M 628 4666 
L 1569 4666 
L 2759 1491 
L 3956 4666 
L 4897 4666 
L 4897 0 
L 4281 0 
L 4281 4097 
L 3078 897 
L 2444 897 
L 1241 4097 
L 1241 0 
L 628 0 
L 628 4666 
z
" transform="scale(0.015625)"/>
      <path id="DejaVuSans-43" d="M 4122 4306 
L 4122 3641 
Q 3803 3938 3442 4084 
Q 3081 4231 2675 4231 
Q 1875 4231 1450 3742 
Q 1025 3253 1025 2328 
Q 1025 1406 1450 917 
Q 1875 428 2675 428 
Q 3081 428 3442 575 
Q 3803 722 4122 1019 
L 4122 359 
Q 3791 134 3420 21 
Q 3050 -91 2638 -91 
Q 1578 -91 968 557 
Q 359 1206 359 2328 
Q 359 3453 968 4101 
Q 1578 4750 2638 4750 
Q 3056 4750 3426 4639 
Q 3797 4528 4122 4306 
z
" transform="scale(0.015625)"/>
      <path id="DejaVuSans-20" transform="scale(0.015625)"/>
      <path id="DejaVuSans-Oblique-3c7" d="M 1922 -781 
L 1691 416 
L 394 -1334 
L -284 -1334 
L 1553 1141 
L 1269 2613 
Q 1194 3006 713 3006 
L 559 3006 
L 653 3500 
L 872 3494 
Q 1675 3472 1775 2950 
L 2006 1753 
L 3303 3503 
L 3981 3503 
L 2144 1028 
L 2428 -444 
Q 2503 -838 2984 -838 
L 3138 -838 
L 3044 -1331 
L 2825 -1325 
Q 2022 -1303 1922 -781 
z
" transform="scale(0.015625)"/>
      <path id="DejaVuSans-3d" d="M 678 2906 
L 4684 2906 
L 4684 2381 
L 678 2381 
L 678 2906 
z
M 678 1631 
L 4684 1631 
L 4684 1100 
L 678 1100 
L 678 1631 
z
" transform="scale(0.015625)"/>
      <path id="DejaVuSans-38" d="M 2034 2216 
Q 1584 2216 1326 1975 
Q 1069 1734 1069 1313 
Q 1069 891 1326 650 
Q 1584 409 2034 409 
Q 2484 409 2743 651 
Q 3003 894 3003 1313 
Q 3003 1734 2745 1975 
Q 2488 2216 2034 2216 
z
M 1403 2484 
Q 997 2584 770 2862 
Q 544 3141 544 3541 
Q 544 4100 942 4425 
Q 1341 4750 2034 4750 
Q 2731 4750 3128 4425 
Q 3525 4100 3525 3541 
Q 3525 3141 3298 2862 
Q 3072 2584 2669 2484 
Q 3125 2378 3379 2068 
Q 3634 1759 3634 1313 
Q 3634 634 3220 271 
Q 2806 -91 2034 -91 
Q 1263 -91 848 271 
Q 434 634 434 1313 
Q 434 1759 690 2068 
Q 947 2378 1403 2484 
z
M 1172 3481 
Q 1172 3119 1398 2916 
Q 1625 2713 2034 2713 
Q 2441 2713 2670 2916 
Q 2900 3119 2900 3481 
Q 2900 3844 2670 4047 
Q 2441 4250 2034 4250 
Q 1625 4250 1398 4047 
Q 1172 3844 1172 3481 
z
" transform="scale(0.015625)"/>
     </defs>
     <use xlink:href="#DejaVuSans-4d" transform="translate(0 0.765625)"/>
     <use xlink:href="#DejaVuSans-43" transform="translate(86.279297 0.765625)"/>
     <use xlink:href="#DejaVuSans-4d" transform="translate(156.103516 0.765625)"/>
     <use xlink:href="#DejaVuSans-43" transform="translate(242.382812 0.765625)"/>
     <use xlink:href="#DejaVuSans-20" transform="translate(312.207031 0.765625)"/>
     <use xlink:href="#DejaVuSans-Oblique-3c7" transform="translate(343.994141 0.765625)"/>
     <use xlink:href="#DejaVuSans-32" transform="translate(407.646536 39.046875)scale(0.7)"/>
     <use xlink:href="#DejaVuSans-20" transform="translate(454.917044 0.765625)"/>
     <use xlink:href="#DejaVuSans-3d" transform="translate(486.704154 0.765625)"/>
     <use xlink:href="#DejaVuSans-20" transform="translate(570.493216 0.765625)"/>
     <use xlink:href="#DejaVuSans-31" transform="translate(602.280326 0.765625)"/>
     <use xlink:href="#DejaVuSans-38" transform="translate(665.903372 0.765625)"/>
     <use xlink:href="#DejaVuSans-37" transform="translate(729.526419 0.765625)"/>
     <use xlink:href="#DejaVuSans-2e" transform="translate(793.149466 0.765625)"/>
     <use xlink:href="#DejaVuSans-32" transform="translate(819.436576 0.765625)"/>
     <use xlink:href="#DejaVuSans-31" transform="translate(883.059622 0.765625)"/>
    </g>
   </g>
  </g>
 </g>
 <defs>
  <clipPath id="pdcd1fa2722">
   <rect x="57.6" y="41.472" width="357.12" height="266.112"/>
  </clipPath>
 </defs>
</svg>
