<?xml version="1.0" encoding="utf-8" standalone="no"?>
<!DOCTYPE svg PUBLIC "-//W3C//DTD SVG 1.1//EN"
  "http://www.w3.org/Graphics/SVG/1.1/DTD/svg11.dtd">
<svg xmlns:xlink="http://www.w3.org/1999/xlink" width="460.8pt" height="345.6pt" viewBox="0 0 460.8 345.6" xmlns="http://www.w3.org/2000/svg" version="1.1">
 <metadata>
  <rdf:RDF xmlns:dc="http://purl.org/dc/elements/1.1/" xmlns:cc="http://creativecommons.org/ns#" xmlns:rdf="http://www.w3.org/1999/02/22-rdf-syntax-ns#">
   <cc:Work>
    <dc:type rdf:resource="http://purl.org/dc/dcmitype/StillImage"/>
    <dc:date>2022-02-11T14:34:14.422219</dc:date>
    <dc:format>image/svg+xml</dc:format>
    <dc:creator>
     <cc:Agent>
      <dc:title>Matplotlib v3.5.0, https://matplotlib.org/</dc:title>
     </cc:Agent>
    </dc:creator>
   </cc:Work>
  </rdf:RDF>
 </metadata>
 <defs>
  <style type="text/css">*{stroke-linejoin: round; stroke-linecap: butt}</style>
 </defs>
 <g id="figure_1">
  <g id="patch_1">
   <path d="M 0 345.6 
L 460.8 345.6 
L 460.8 0 
L 0 0 
z
" style="fill: #ffffff"/>
  </g>
  <g id="axes_1">
   <g id="patch_2">
    <path d="M 57.6 307.584 
L 414.72 307.584 
L 414.72 41.472 
L 57.6 41.472 
z
" style="fill: #ffffff"/>
   </g>
   <g id="matplotlib.axis_1">
    <g id="xtick_1">
     <g id="line2d_1">
      <defs>
       <path id="m5e04401c11" d="M 0 0 
L 0 3.5 
" style="stroke: #000000; stroke-width: 0.8"/>
      </defs>
      <g>
       <use xlink:href="#m5e04401c11" x="95.862857" y="307.584" style="stroke: #000000; stroke-width: 0.8"/>
      </g>
     </g>
     <g id="text_1">
      <!-- 500 -->
      <g transform="translate(86.319107 322.182437)scale(0.1 -0.1)">
       <defs>
        <path id="DejaVuSans-35" d="M 691 4666 
L 3169 4666 
L 3169 4134 
L 1269 4134 
L 1269 2991 
Q 1406 3038 1543 3061 
Q 1681 3084 1819 3084 
Q 2600 3084 3056 2656 
Q 3513 2228 3513 1497 
Q 3513 744 3044 326 
Q 2575 -91 1722 -91 
Q 1428 -91 1123 -41 
Q 819 9 494 109 
L 494 744 
Q 775 591 1075 516 
Q 1375 441 1709 441 
Q 2250 441 2565 725 
Q 2881 1009 2881 1497 
Q 2881 1984 2565 2268 
Q 2250 2553 1709 2553 
Q 1456 2553 1204 2497 
Q 953 2441 691 2322 
L 691 4666 
z
" transform="scale(0.015625)"/>
        <path id="DejaVuSans-30" d="M 2034 4250 
Q 1547 4250 1301 3770 
Q 1056 3291 1056 2328 
Q 1056 1369 1301 889 
Q 1547 409 2034 409 
Q 2525 409 2770 889 
Q 3016 1369 3016 2328 
Q 3016 3291 2770 3770 
Q 2525 4250 2034 4250 
z
M 2034 4750 
Q 2819 4750 3233 4129 
Q 3647 3509 3647 2328 
Q 3647 1150 3233 529 
Q 2819 -91 2034 -91 
Q 1250 -91 836 529 
Q 422 1150 422 2328 
Q 422 3509 836 4129 
Q 1250 4750 2034 4750 
z
" transform="scale(0.015625)"/>
       </defs>
       <use xlink:href="#DejaVuSans-35"/>
       <use xlink:href="#DejaVuSans-30" x="63.623047"/>
       <use xlink:href="#DejaVuSans-30" x="127.246094"/>
      </g>
     </g>
    </g>
    <g id="xtick_2">
     <g id="line2d_2">
      <g>
       <use xlink:href="#m5e04401c11" x="159.634286" y="307.584" style="stroke: #000000; stroke-width: 0.8"/>
      </g>
     </g>
     <g id="text_2">
      <!-- 1000 -->
      <g transform="translate(146.909286 322.182437)scale(0.1 -0.1)">
       <defs>
        <path id="DejaVuSans-31" d="M 794 531 
L 1825 531 
L 1825 4091 
L 703 3866 
L 703 4441 
L 1819 4666 
L 2450 4666 
L 2450 531 
L 3481 531 
L 3481 0 
L 794 0 
L 794 531 
z
" transform="scale(0.015625)"/>
       </defs>
       <use xlink:href="#DejaVuSans-31"/>
       <use xlink:href="#DejaVuSans-30" x="63.623047"/>
       <use xlink:href="#DejaVuSans-30" x="127.246094"/>
       <use xlink:href="#DejaVuSans-30" x="190.869141"/>
      </g>
     </g>
    </g>
    <g id="xtick_3">
     <g id="line2d_3">
      <g>
       <use xlink:href="#m5e04401c11" x="223.405714" y="307.584" style="stroke: #000000; stroke-width: 0.8"/>
      </g>
     </g>
     <g id="text_3">
      <!-- 1500 -->
      <g transform="translate(210.680714 322.182437)scale(0.1 -0.1)">
       <use xlink:href="#DejaVuSans-31"/>
       <use xlink:href="#DejaVuSans-35" x="63.623047"/>
       <use xlink:href="#DejaVuSans-30" x="127.246094"/>
       <use xlink:href="#DejaVuSans-30" x="190.869141"/>
      </g>
     </g>
    </g>
    <g id="xtick_4">
     <g id="line2d_4">
      <g>
       <use xlink:href="#m5e04401c11" x="287.177143" y="307.584" style="stroke: #000000; stroke-width: 0.8"/>
      </g>
     </g>
     <g id="text_4">
      <!-- 2000 -->
      <g transform="translate(274.452143 322.182437)scale(0.1 -0.1)">
       <defs>
        <path id="DejaVuSans-32" d="M 1228 531 
L 3431 531 
L 3431 0 
L 469 0 
L 469 531 
Q 828 903 1448 1529 
Q 2069 2156 2228 2338 
Q 2531 2678 2651 2914 
Q 2772 3150 2772 3378 
Q 2772 3750 2511 3984 
Q 2250 4219 1831 4219 
Q 1534 4219 1204 4116 
Q 875 4013 500 3803 
L 500 4441 
Q 881 4594 1212 4672 
Q 1544 4750 1819 4750 
Q 2544 4750 2975 4387 
Q 3406 4025 3406 3419 
Q 3406 3131 3298 2873 
Q 3191 2616 2906 2266 
Q 2828 2175 2409 1742 
Q 1991 1309 1228 531 
z
" transform="scale(0.015625)"/>
       </defs>
       <use xlink:href="#DejaVuSans-32"/>
       <use xlink:href="#DejaVuSans-30" x="63.623047"/>
       <use xlink:href="#DejaVuSans-30" x="127.246094"/>
       <use xlink:href="#DejaVuSans-30" x="190.869141"/>
      </g>
     </g>
    </g>
    <g id="xtick_5">
     <g id="line2d_5">
      <g>
       <use xlink:href="#m5e04401c11" x="350.948571" y="307.584" style="stroke: #000000; stroke-width: 0.8"/>
      </g>
     </g>
     <g id="text_5">
      <!-- 2500 -->
      <g transform="translate(338.223571 322.182437)scale(0.1 -0.1)">
       <use xlink:href="#DejaVuSans-32"/>
       <use xlink:href="#DejaVuSans-35" x="63.623047"/>
       <use xlink:href="#DejaVuSans-30" x="127.246094"/>
       <use xlink:href="#DejaVuSans-30" x="190.869141"/>
      </g>
     </g>
    </g>
    <g id="xtick_6">
     <g id="line2d_6">
      <g>
       <use xlink:href="#m5e04401c11" x="414.72" y="307.584" style="stroke: #000000; stroke-width: 0.8"/>
      </g>
     </g>
     <g id="text_6">
      <!-- 3000 -->
      <g transform="translate(401.995 322.182437)scale(0.1 -0.1)">
       <defs>
        <path id="DejaVuSans-33" d="M 2597 2516 
Q 3050 2419 3304 2112 
Q 3559 1806 3559 1356 
Q 3559 666 3084 287 
Q 2609 -91 1734 -91 
Q 1441 -91 1130 -33 
Q 819 25 488 141 
L 488 750 
Q 750 597 1062 519 
Q 1375 441 1716 441 
Q 2309 441 2620 675 
Q 2931 909 2931 1356 
Q 2931 1769 2642 2001 
Q 2353 2234 1838 2234 
L 1294 2234 
L 1294 2753 
L 1863 2753 
Q 2328 2753 2575 2939 
Q 2822 3125 2822 3475 
Q 2822 3834 2567 4026 
Q 2313 4219 1838 4219 
Q 1578 4219 1281 4162 
Q 984 4106 628 3988 
L 628 4550 
Q 988 4650 1302 4700 
Q 1616 4750 1894 4750 
Q 2613 4750 3031 4423 
Q 3450 4097 3450 3541 
Q 3450 3153 3228 2886 
Q 3006 2619 2597 2516 
z
" transform="scale(0.015625)"/>
       </defs>
       <use xlink:href="#DejaVuSans-33"/>
       <use xlink:href="#DejaVuSans-30" x="63.623047"/>
       <use xlink:href="#DejaVuSans-30" x="127.246094"/>
       <use xlink:href="#DejaVuSans-30" x="190.869141"/>
      </g>
     </g>
    </g>
    <g id="text_7">
     <!-- step -->
     <g transform="translate(225.344375 335.860562)scale(0.1 -0.1)">
      <defs>
       <path id="DejaVuSans-73" d="M 2834 3397 
L 2834 2853 
Q 2591 2978 2328 3040 
Q 2066 3103 1784 3103 
Q 1356 3103 1142 2972 
Q 928 2841 928 2578 
Q 928 2378 1081 2264 
Q 1234 2150 1697 2047 
L 1894 2003 
Q 2506 1872 2764 1633 
Q 3022 1394 3022 966 
Q 3022 478 2636 193 
Q 2250 -91 1575 -91 
Q 1294 -91 989 -36 
Q 684 19 347 128 
L 347 722 
Q 666 556 975 473 
Q 1284 391 1588 391 
Q 1994 391 2212 530 
Q 2431 669 2431 922 
Q 2431 1156 2273 1281 
Q 2116 1406 1581 1522 
L 1381 1569 
Q 847 1681 609 1914 
Q 372 2147 372 2553 
Q 372 3047 722 3315 
Q 1072 3584 1716 3584 
Q 2034 3584 2315 3537 
Q 2597 3491 2834 3397 
z
" transform="scale(0.015625)"/>
       <path id="DejaVuSans-74" d="M 1172 4494 
L 1172 3500 
L 2356 3500 
L 2356 3053 
L 1172 3053 
L 1172 1153 
Q 1172 725 1289 603 
Q 1406 481 1766 481 
L 2356 481 
L 2356 0 
L 1766 0 
Q 1100 0 847 248 
Q 594 497 594 1153 
L 594 3053 
L 172 3053 
L 172 3500 
L 594 3500 
L 594 4494 
L 1172 4494 
z
" transform="scale(0.015625)"/>
       <path id="DejaVuSans-65" d="M 3597 1894 
L 3597 1613 
L 953 1613 
Q 991 1019 1311 708 
Q 1631 397 2203 397 
Q 2534 397 2845 478 
Q 3156 559 3463 722 
L 3463 178 
Q 3153 47 2828 -22 
Q 2503 -91 2169 -91 
Q 1331 -91 842 396 
Q 353 884 353 1716 
Q 353 2575 817 3079 
Q 1281 3584 2069 3584 
Q 2775 3584 3186 3129 
Q 3597 2675 3597 1894 
z
M 3022 2063 
Q 3016 2534 2758 2815 
Q 2500 3097 2075 3097 
Q 1594 3097 1305 2825 
Q 1016 2553 972 2059 
L 3022 2063 
z
" transform="scale(0.015625)"/>
       <path id="DejaVuSans-70" d="M 1159 525 
L 1159 -1331 
L 581 -1331 
L 581 3500 
L 1159 3500 
L 1159 2969 
Q 1341 3281 1617 3432 
Q 1894 3584 2278 3584 
Q 2916 3584 3314 3078 
Q 3713 2572 3713 1747 
Q 3713 922 3314 415 
Q 2916 -91 2278 -91 
Q 1894 -91 1617 61 
Q 1341 213 1159 525 
z
M 3116 1747 
Q 3116 2381 2855 2742 
Q 2594 3103 2138 3103 
Q 1681 3103 1420 2742 
Q 1159 2381 1159 1747 
Q 1159 1113 1420 752 
Q 1681 391 2138 391 
Q 2594 391 2855 752 
Q 3116 1113 3116 1747 
z
" transform="scale(0.015625)"/>
      </defs>
      <use xlink:href="#DejaVuSans-73"/>
      <use xlink:href="#DejaVuSans-74" x="52.099609"/>
      <use xlink:href="#DejaVuSans-65" x="91.308594"/>
      <use xlink:href="#DejaVuSans-70" x="152.832031"/>
     </g>
    </g>
   </g>
   <g id="matplotlib.axis_2">
    <g id="ytick_1">
     <g id="line2d_7">
      <defs>
       <path id="m2416db58a5" d="M 0 0 
L -3.5 0 
" style="stroke: #000000; stroke-width: 0.8"/>
      </defs>
      <g>
       <use xlink:href="#m2416db58a5" x="57.6" y="283.605931" style="stroke: #000000; stroke-width: 0.8"/>
      </g>
     </g>
     <g id="text_8">
      <!-- 500 -->
      <g transform="translate(31.5125 287.40515)scale(0.1 -0.1)">
       <use xlink:href="#DejaVuSans-35"/>
       <use xlink:href="#DejaVuSans-30" x="63.623047"/>
       <use xlink:href="#DejaVuSans-30" x="127.246094"/>
      </g>
     </g>
    </g>
    <g id="ytick_2">
     <g id="line2d_8">
      <g>
       <use xlink:href="#m2416db58a5" x="57.6" y="243.180192" style="stroke: #000000; stroke-width: 0.8"/>
      </g>
     </g>
     <g id="text_9">
      <!-- 1000 -->
      <g transform="translate(25.15 246.979411)scale(0.1 -0.1)">
       <use xlink:href="#DejaVuSans-31"/>
       <use xlink:href="#DejaVuSans-30" x="63.623047"/>
       <use xlink:href="#DejaVuSans-30" x="127.246094"/>
       <use xlink:href="#DejaVuSans-30" x="190.869141"/>
      </g>
     </g>
    </g>
    <g id="ytick_3">
     <g id="line2d_9">
      <g>
       <use xlink:href="#m2416db58a5" x="57.6" y="202.754453" style="stroke: #000000; stroke-width: 0.8"/>
      </g>
     </g>
     <g id="text_10">
      <!-- 1500 -->
      <g transform="translate(25.15 206.553672)scale(0.1 -0.1)">
       <use xlink:href="#DejaVuSans-31"/>
       <use xlink:href="#DejaVuSans-35" x="63.623047"/>
       <use xlink:href="#DejaVuSans-30" x="127.246094"/>
       <use xlink:href="#DejaVuSans-30" x="190.869141"/>
      </g>
     </g>
    </g>
    <g id="ytick_4">
     <g id="line2d_10">
      <g>
       <use xlink:href="#m2416db58a5" x="57.6" y="162.328714" style="stroke: #000000; stroke-width: 0.8"/>
      </g>
     </g>
     <g id="text_11">
      <!-- 2000 -->
      <g transform="translate(25.15 166.127933)scale(0.1 -0.1)">
       <use xlink:href="#DejaVuSans-32"/>
       <use xlink:href="#DejaVuSans-30" x="63.623047"/>
       <use xlink:href="#DejaVuSans-30" x="127.246094"/>
       <use xlink:href="#DejaVuSans-30" x="190.869141"/>
      </g>
     </g>
    </g>
    <g id="ytick_5">
     <g id="line2d_11">
      <g>
       <use xlink:href="#m2416db58a5" x="57.6" y="121.902975" style="stroke: #000000; stroke-width: 0.8"/>
      </g>
     </g>
     <g id="text_12">
      <!-- 2500 -->
      <g transform="translate(25.15 125.702194)scale(0.1 -0.1)">
       <use xlink:href="#DejaVuSans-32"/>
       <use xlink:href="#DejaVuSans-35" x="63.623047"/>
       <use xlink:href="#DejaVuSans-30" x="127.246094"/>
       <use xlink:href="#DejaVuSans-30" x="190.869141"/>
      </g>
     </g>
    </g>
    <g id="ytick_6">
     <g id="line2d_12">
      <g>
       <use xlink:href="#m2416db58a5" x="57.6" y="81.477236" style="stroke: #000000; stroke-width: 0.8"/>
      </g>
     </g>
     <g id="text_13">
      <!-- 3000 -->
      <g transform="translate(25.15 85.276455)scale(0.1 -0.1)">
       <use xlink:href="#DejaVuSans-33"/>
       <use xlink:href="#DejaVuSans-30" x="63.623047"/>
       <use xlink:href="#DejaVuSans-30" x="127.246094"/>
       <use xlink:href="#DejaVuSans-30" x="190.869141"/>
      </g>
     </g>
    </g>
    <g id="text_14">
     <!-- $\chi^2$ -->
     <g transform="translate(19.05 180.078)rotate(-90)scale(0.1 -0.1)">
      <defs>
       <path id="DejaVuSans-Oblique-3c7" d="M 1922 -781 
L 1691 416 
L 394 -1334 
L -284 -1334 
L 1553 1141 
L 1269 2613 
Q 1194 3006 713 3006 
L 559 3006 
L 653 3500 
L 872 3494 
Q 1675 3472 1775 2950 
L 2006 1753 
L 3303 3503 
L 3981 3503 
L 2144 1028 
L 2428 -444 
Q 2503 -838 2984 -838 
L 3138 -838 
L 3044 -1331 
L 2825 -1325 
Q 2022 -1303 1922 -781 
z
" transform="scale(0.015625)"/>
      </defs>
      <use xlink:href="#DejaVuSans-Oblique-3c7" transform="translate(0 0.765625)"/>
      <use xlink:href="#DejaVuSans-32" transform="translate(63.652396 39.046875)scale(0.7)"/>
     </g>
    </g>
   </g>
   <g id="line2d_13">
    <path d="M 57.6 53.568 
L 57.855086 55.047712 
L 58.110171 55.140772 
L 58.365257 55.481411 
L 58.875429 55.628571 
L 59.258057 55.850754 
L 59.768229 55.963424 
L 60.150857 57.048345 
L 60.2784 57.083396 
L 60.533486 57.420997 
L 61.1712 60.529418 
L 61.298743 60.569374 
L 61.426286 61.096976 
L 61.553829 62.142585 
L 61.681371 62.228636 
L 61.936457 63.277069 
L 62.064 63.508291 
L 62.319086 64.860265 
L 62.574171 65.069809 
L 62.701714 65.089722 
L 62.9568 65.64575 
L 63.084343 65.776196 
L 63.211886 66.444283 
L 63.466971 66.604491 
L 63.594514 67.291602 
L 63.977143 72.315869 
L 64.359771 74.945985 
L 64.487314 75.024141 
L 64.614857 76.473806 
L 64.7424 79.549395 
L 64.869943 79.690256 
L 65.252571 81.839251 
L 65.380114 82.076997 
L 65.507657 82.921288 
L 65.6352 82.988332 
L 65.762743 84.153328 
L 66.017829 84.468064 
L 66.400457 87.081954 
L 67.038171 88.625251 
L 67.548343 93.536543 
L 67.803429 96.74324 
L 67.930971 97.22574 
L 68.3136 102.07939 
L 68.441143 102.15242 
L 68.568686 102.549175 
L 68.696229 103.595582 
L 68.951314 106.249462 
L 69.078857 106.504764 
L 69.844114 111.603278 
L 70.481829 116.721877 
L 70.609371 116.756433 
L 71.119543 121.141314 
L 71.247086 121.420891 
L 71.629714 124.229087 
L 71.8848 124.699322 
L 72.139886 126.845889 
L 72.267429 127.367649 
L 72.394971 128.565561 
L 72.522514 128.651921 
L 72.650057 130.238745 
L 72.7776 130.251468 
L 73.6704 133.895545 
L 74.053029 134.073591 
L 74.308114 134.511215 
L 74.5632 134.530591 
L 74.818286 135.13365 
L 75.200914 135.294362 
L 75.456 135.62053 
L 75.711086 135.810057 
L 75.966171 136.024442 
L 76.221257 136.589425 
L 76.3488 136.725064 
L 76.476343 137.610926 
L 76.731429 137.648827 
L 76.858971 138.239306 
L 76.986514 138.245706 
L 77.496686 140.930611 
L 77.751771 140.935908 
L 77.879314 141.143336 
L 78.006857 141.574415 
L 78.1344 141.577612 
L 78.389486 141.739725 
L 78.644571 141.754936 
L 79.154743 142.072027 
L 79.792457 142.294768 
L 82.343314 142.609187 
L 82.470857 143.008126 
L 82.725943 143.000392 
L 82.981029 144.35806 
L 83.4912 144.370749 
L 84.001371 144.72005 
L 84.256457 144.732985 
L 84.384 145.004989 
L 84.639086 145.002746 
L 84.766629 145.420703 
L 84.894171 145.421001 
L 85.149257 145.542929 
L 85.404343 145.61688 
L 85.786971 145.70163 
L 86.552229 145.767678 
L 86.807314 145.86212 
L 87.0624 145.884767 
L 87.189943 146.453065 
L 87.572571 146.471885 
L 87.700114 147.284805 
L 88.210286 147.307633 
L 88.337829 147.921532 
L 89.613257 148.042597 
L 89.995886 148.0883 
L 90.888686 148.10815 
L 91.143771 148.738062 
L 91.909029 148.884783 
L 92.036571 149.159534 
L 92.4192 149.238444 
L 92.546743 149.323927 
L 92.929371 151.432836 
L 93.056914 152.888784 
L 93.184457 152.891234 
L 93.439543 154.459136 
L 93.694629 154.47664 
L 93.949714 155.99423 
L 94.077257 155.992467 
L 94.2048 156.230841 
L 94.587429 158.321055 
L 94.714971 158.878381 
L 94.842514 158.913642 
L 94.970057 159.075088 
L 95.352686 160.661467 
L 95.607771 161.059836 
L 95.735314 162.210617 
L 95.862857 162.208456 
L 95.9904 163.145163 
L 96.245486 163.253205 
L 96.373029 163.266398 
L 96.500571 163.673832 
L 96.628114 163.688324 
L 97.010743 164.115521 
L 97.138286 164.265435 
L 97.393371 165.48806 
L 97.520914 165.493348 
L 97.903543 165.853411 
L 98.031086 166.938833 
L 98.158629 167.02303 
L 98.413714 168.769793 
L 98.541257 168.817181 
L 99.178971 172.131826 
L 99.306514 172.13096 
L 99.689143 173.999401 
L 99.944229 174.548008 
L 100.071771 175.118095 
L 100.581943 175.331753 
L 100.837029 176.426033 
L 100.964571 176.477199 
L 101.092114 176.871326 
L 101.3472 178.689131 
L 101.602286 181.313986 
L 101.729829 181.667502 
L 101.857371 181.669708 
L 101.984914 182.964882 
L 102.622629 183.441717 
L 102.750171 183.462556 
L 102.877714 184.269617 
L 103.005257 184.271135 
L 103.260343 185.157473 
L 103.515429 185.251568 
L 103.770514 185.98957 
L 103.898057 186.306666 
L 104.153143 186.339312 
L 104.280686 187.030074 
L 104.9184 187.089162 
L 105.173486 187.841866 
L 105.556114 189.606966 
L 105.938743 189.773562 
L 106.321371 190.9787 
L 106.448914 190.985546 
L 106.576457 191.403096 
L 106.704 191.399272 
L 106.959086 192.088452 
L 107.214171 192.223937 
L 107.469257 192.264561 
L 107.979429 193.071889 
L 108.234514 193.14989 
L 108.362057 193.629407 
L 108.617143 193.640914 
L 108.744686 194.169506 
L 108.999771 194.167205 
L 109.3824 194.473162 
L 109.892571 194.491 
L 110.147657 194.745141 
L 110.2752 194.794935 
L 110.530286 195.652403 
L 110.657829 195.657207 
L 111.040457 197.561916 
L 111.295543 198.469957 
L 111.550629 199.406061 
L 111.805714 200.655817 
L 112.0608 201.292491 
L 112.443429 201.491801 
L 112.570971 201.954225 
L 113.081143 202.162419 
L 113.208686 202.454123 
L 113.463771 202.578065 
L 113.8464 202.618331 
L 113.973943 203.738469 
L 114.229029 203.784144 
L 114.484114 204.506589 
L 114.866743 204.696025 
L 114.994286 204.871525 
L 115.249371 206.513071 
L 115.504457 209.40658 
L 115.759543 210.249832 
L 115.887086 210.623426 
L 116.269714 210.617558 
L 116.397257 210.836074 
L 116.779886 212.498962 
L 116.907429 212.5052 
L 117.290057 213.496309 
L 117.927771 213.683901 
L 118.182857 213.802907 
L 118.948114 214.046564 
L 122.009143 214.128622 
L 122.391771 215.051152 
L 122.646857 215.264173 
L 122.901943 216.982363 
L 123.412114 221.295137 
L 123.6672 221.326198 
L 123.922286 221.666623 
L 124.177371 222.547736 
L 124.815086 222.739491 
L 124.942629 222.741813 
L 125.070171 223.077038 
L 125.325257 223.091155 
L 125.580343 223.416396 
L 129.9168 223.530902 
L 130.426971 223.526543 
L 130.682057 223.656466 
L 130.8096 223.657469 
L 131.064686 223.790639 
L 133.998171 223.969555 
L 134.253257 224.340519 
L 134.3808 224.343801 
L 134.890971 225.821022 
L 135.018514 225.823368 
L 135.146057 226.422172 
L 135.656229 226.449415 
L 136.038857 226.677538 
L 136.1664 226.673199 
L 136.421486 226.820554 
L 136.804114 226.945205 
L 138.8448 226.971818 
L 139.7376 227.001673 
L 140.885486 227.078598 
L 141.013029 227.693619 
L 141.140571 227.690896 
L 141.268114 228.488066 
L 141.395657 228.48858 
L 141.5232 228.830598 
L 142.288457 228.822939 
L 142.416 229.226247 
L 142.671086 229.218916 
L 142.926171 229.777489 
L 144.2016 229.88094 
L 145.349486 230.012828 
L 145.732114 230.058899 
L 145.859657 230.072669 
L 146.114743 230.202651 
L 146.624914 230.278795 
L 146.88 230.390166 
L 147.262629 230.389139 
L 147.390171 231.011818 
L 147.517714 231.015523 
L 147.900343 231.903883 
L 148.155429 233.668761 
L 148.410514 233.67343 
L 148.538057 233.992115 
L 148.6656 233.990899 
L 149.048229 234.979792 
L 149.175771 235.237594 
L 149.303314 235.233906 
L 149.5584 236.10696 
L 150.706286 236.177575 
L 151.344 236.259136 
L 153.257143 236.344029 
L 153.384686 237.559945 
L 153.639771 237.561776 
L 153.767314 238.514106 
L 154.532571 238.51136 
L 154.787657 239.179843 
L 155.170286 239.239354 
L 155.425371 239.319486 
L 156.445714 239.457852 
L 156.573257 239.576974 
L 156.7008 239.905677 
L 156.828343 239.894995 
L 156.955886 240.490534 
L 157.210971 240.489728 
L 157.338514 240.707583 
L 157.5936 241.764645 
L 157.848686 241.919889 
L 158.103771 241.92625 
L 158.358857 242.154822 
L 158.996571 242.241594 
L 159.251657 242.374671 
L 159.3792 242.656597 
L 159.506743 242.656207 
L 159.889371 244.198049 
L 160.016914 244.532293 
L 160.654629 244.597533 
L 160.782171 244.846851 
L 161.037257 244.854985 
L 161.1648 245.282144 
L 161.547429 245.34085 
L 161.802514 245.440014 
L 162.185143 245.580216 
L 162.822857 245.60154 
L 167.031771 245.801276 
L 167.669486 247.993136 
L 167.797029 248.118473 
L 167.924571 248.430173 
L 168.3072 250.614655 
L 168.434743 250.869886 
L 168.562286 250.867554 
L 168.817371 251.373985 
L 168.944914 251.374461 
L 169.2 251.586125 
L 169.455086 251.701876 
L 169.837714 251.772769 
L 170.475429 251.805621 
L 173.408914 251.868629 
L 173.664 252.062509 
L 174.046629 252.109296 
L 174.174171 252.431631 
L 174.811886 252.506308 
L 175.322057 254.452037 
L 175.577143 254.453197 
L 175.704686 254.747336 
L 176.597486 254.834386 
L 176.852571 254.889645 
L 181.954286 254.998856 
L 182.209371 255.062376 
L 182.464457 255.591108 
L 182.592 255.58784 
L 182.719543 256.165946 
L 183.229714 256.159892 
L 183.4848 257.614547 
L 183.612343 257.886008 
L 183.994971 257.975013 
L 184.505143 258.083889 
L 186.545829 258.153779 
L 186.673371 258.615326 
L 186.800914 258.608259 
L 187.056 259.393006 
L 187.438629 259.415165 
L 187.693714 260.599152 
L 187.821257 260.603117 
L 188.076343 260.98707 
L 188.586514 260.992557 
L 188.8416 261.131218 
L 194.581029 261.171342 
L 196.621714 261.167417 
L 198.534857 261.16032 
L 200.192914 261.290141 
L 200.320457 261.315686 
L 200.575543 262.11363 
L 200.703086 262.116447 
L 201.085714 262.969202 
L 201.3408 262.967961 
L 201.595886 263.582832 
L 201.850971 263.598928 
L 201.978514 264.001862 
L 202.488686 264.053379 
L 202.743771 264.247238 
L 215.753143 264.315922 
L 217.283657 264.457137 
L 217.4112 264.802543 
L 217.538743 264.808777 
L 217.793829 265.582287 
L 217.921371 266.139256 
L 218.048914 266.144558 
L 218.176457 266.854436 
L 218.304 266.850746 
L 218.686629 267.04096 
L 219.834514 267.088146 
L 220.0896 267.227342 
L 220.854857 267.286825 
L 221.237486 267.383465 
L 224.681143 267.424988 
L 225.063771 268.120433 
L 225.4464 270.167796 
L 225.573943 270.434376 
L 227.104457 270.541085 
L 227.614629 270.977159 
L 227.742171 270.981741 
L 227.869714 271.683949 
L 227.997257 271.692499 
L 228.1248 272.0499 
L 229.272686 272.162704 
L 229.655314 272.813812 
L 229.9104 272.816823 
L 230.037943 273.104564 
L 230.165486 273.105518 
L 230.293029 273.430999 
L 231.568457 273.508929 
L 234.246857 273.597287 
L 235.904914 273.603455 
L 237.180343 273.714143 
L 237.435429 273.852918 
L 237.562971 273.856851 
L 237.690514 274.473336 
L 237.818057 274.469263 
L 238.073143 274.63912 
L 238.328229 274.63597 
L 238.583314 275.477188 
L 238.710857 275.474057 
L 238.8384 275.993676 
L 239.348571 276.045818 
L 239.603657 276.308577 
L 239.986286 276.30828 
L 240.241371 276.509437 
L 240.751543 276.529864 
L 241.006629 276.618722 
L 241.134171 276.626183 
L 241.261714 277.221455 
L 242.026971 277.265395 
L 242.154514 277.814185 
L 242.4096 277.822052 
L 242.537143 278.186558 
L 242.792229 278.231986 
L 242.919771 278.654105 
L 243.3024 278.672539 
L 243.429943 279.314095 
L 243.685029 279.326859 
L 243.940114 279.715575 
L 245.088 279.744629 
L 246.746057 279.750717 
L 264.7296 279.787551 
L 267.918171 279.808923 
L 277.866514 279.929879 
L 278.249143 280.322062 
L 278.376686 280.323204 
L 278.631771 281.739482 
L 278.759314 281.942064 
L 279.0144 282.780584 
L 279.652114 282.830443 
L 280.034743 282.871674 
L 282.5856 282.978867 
L 282.840686 283.094677 
L 283.223314 283.08844 
L 283.350857 283.515796 
L 283.605943 283.514457 
L 283.988571 283.938429 
L 284.116114 283.948851 
L 284.243657 284.339442 
L 284.626286 284.339485 
L 284.753829 285.093733 
L 284.881371 285.09725 
L 285.008914 285.44154 
L 285.519086 285.433413 
L 285.774171 285.916231 
L 286.029257 286.014864 
L 289.217829 286.044058 
L 290.6208 286.066 
L 292.023771 286.066553 
L 292.151314 286.171277 
L 292.278857 286.553097 
L 292.533943 286.593331 
L 292.789029 286.771883 
L 293.044114 286.782383 
L 293.426743 288.446567 
L 293.936914 288.574069 
L 294.064457 288.958917 
L 294.829714 289.058922 
L 295.339886 289.161108 
L 314.598857 289.18959 
L 315.746743 289.189664 
L 317.532343 289.222102 
L 322.634057 289.234001 
L 325.057371 289.237358 
L 327.990857 289.214823 
L 329.648914 289.230404 
L 333.092571 289.216019 
L 335.2608 289.237891 
L 342.275657 289.356699 
L 342.530743 290.369182 
L 342.658286 290.567351 
L 343.678629 290.54825 
L 343.806171 290.930974 
L 344.1888 290.993996 
L 344.316343 291.572813 
L 344.698971 291.562791 
L 344.826514 292.005464 
L 345.464229 292.031182 
L 345.719314 292.230526 
L 346.229486 292.273657 
L 347.377371 292.309393 
L 351.458743 292.309156 
L 354.9024 292.343442 
L 358.983771 292.353037 
L 359.749029 292.384204 
L 361.917257 292.389954 
L 362.299886 292.446506 
L 362.682514 292.469779 
L 362.810057 292.978551 
L 363.065143 293.066828 
L 363.320229 294.130148 
L 363.8304 294.272965 
L 363.957943 294.845668 
L 364.085486 294.837375 
L 364.213029 295.370033 
L 368.549486 295.440356 
L 371.610514 295.435038 
L 373.906286 295.434415 
L 376.712229 295.442767 
L 408.980571 295.479738 
L 410.383543 295.465059 
L 414.592457 295.452238 
L 414.592457 295.452238 
" clip-path="url(#p3a3c64e243)" style="fill: none; stroke: #1f77b4; stroke-opacity: 0.3; stroke-width: 1.5; stroke-linecap: square"/>
   </g>
   <g id="patch_3">
    <path d="M 57.6 307.584 
L 57.6 41.472 
" style="fill: none; stroke: #000000; stroke-width: 0.8; stroke-linejoin: miter; stroke-linecap: square"/>
   </g>
   <g id="patch_4">
    <path d="M 414.72 307.584 
L 414.72 41.472 
" style="fill: none; stroke: #000000; stroke-width: 0.8; stroke-linejoin: miter; stroke-linecap: square"/>
   </g>
   <g id="patch_5">
    <path d="M 57.6 307.584 
L 414.72 307.584 
" style="fill: none; stroke: #000000; stroke-width: 0.8; stroke-linejoin: miter; stroke-linecap: square"/>
   </g>
   <g id="patch_6">
    <path d="M 57.6 41.472 
L 414.72 41.472 
" style="fill: none; stroke: #000000; stroke-width: 0.8; stroke-linejoin: miter; stroke-linecap: square"/>
   </g>
   <g id="text_15">
    <!-- Average $\chi^2$ by Step -->
    <g transform="translate(177.72 35.472)scale(0.12 -0.12)">
     <defs>
      <path id="DejaVuSans-41" d="M 2188 4044 
L 1331 1722 
L 3047 1722 
L 2188 4044 
z
M 1831 4666 
L 2547 4666 
L 4325 0 
L 3669 0 
L 3244 1197 
L 1141 1197 
L 716 0 
L 50 0 
L 1831 4666 
z
" transform="scale(0.015625)"/>
      <path id="DejaVuSans-76" d="M 191 3500 
L 800 3500 
L 1894 563 
L 2988 3500 
L 3597 3500 
L 2284 0 
L 1503 0 
L 191 3500 
z
" transform="scale(0.015625)"/>
      <path id="DejaVuSans-72" d="M 2631 2963 
Q 2534 3019 2420 3045 
Q 2306 3072 2169 3072 
Q 1681 3072 1420 2755 
Q 1159 2438 1159 1844 
L 1159 0 
L 581 0 
L 581 3500 
L 1159 3500 
L 1159 2956 
Q 1341 3275 1631 3429 
Q 1922 3584 2338 3584 
Q 2397 3584 2469 3576 
Q 2541 3569 2628 3553 
L 2631 2963 
z
" transform="scale(0.015625)"/>
      <path id="DejaVuSans-61" d="M 2194 1759 
Q 1497 1759 1228 1600 
Q 959 1441 959 1056 
Q 959 750 1161 570 
Q 1363 391 1709 391 
Q 2188 391 2477 730 
Q 2766 1069 2766 1631 
L 2766 1759 
L 2194 1759 
z
M 3341 1997 
L 3341 0 
L 2766 0 
L 2766 531 
Q 2569 213 2275 61 
Q 1981 -91 1556 -91 
Q 1019 -91 701 211 
Q 384 513 384 1019 
Q 384 1609 779 1909 
Q 1175 2209 1959 2209 
L 2766 2209 
L 2766 2266 
Q 2766 2663 2505 2880 
Q 2244 3097 1772 3097 
Q 1472 3097 1187 3025 
Q 903 2953 641 2809 
L 641 3341 
Q 956 3463 1253 3523 
Q 1550 3584 1831 3584 
Q 2591 3584 2966 3190 
Q 3341 2797 3341 1997 
z
" transform="scale(0.015625)"/>
      <path id="DejaVuSans-67" d="M 2906 1791 
Q 2906 2416 2648 2759 
Q 2391 3103 1925 3103 
Q 1463 3103 1205 2759 
Q 947 2416 947 1791 
Q 947 1169 1205 825 
Q 1463 481 1925 481 
Q 2391 481 2648 825 
Q 2906 1169 2906 1791 
z
M 3481 434 
Q 3481 -459 3084 -895 
Q 2688 -1331 1869 -1331 
Q 1566 -1331 1297 -1286 
Q 1028 -1241 775 -1147 
L 775 -588 
Q 1028 -725 1275 -790 
Q 1522 -856 1778 -856 
Q 2344 -856 2625 -561 
Q 2906 -266 2906 331 
L 2906 616 
Q 2728 306 2450 153 
Q 2172 0 1784 0 
Q 1141 0 747 490 
Q 353 981 353 1791 
Q 353 2603 747 3093 
Q 1141 3584 1784 3584 
Q 2172 3584 2450 3431 
Q 2728 3278 2906 2969 
L 2906 3500 
L 3481 3500 
L 3481 434 
z
" transform="scale(0.015625)"/>
      <path id="DejaVuSans-20" transform="scale(0.015625)"/>
      <path id="DejaVuSans-62" d="M 3116 1747 
Q 3116 2381 2855 2742 
Q 2594 3103 2138 3103 
Q 1681 3103 1420 2742 
Q 1159 2381 1159 1747 
Q 1159 1113 1420 752 
Q 1681 391 2138 391 
Q 2594 391 2855 752 
Q 3116 1113 3116 1747 
z
M 1159 2969 
Q 1341 3281 1617 3432 
Q 1894 3584 2278 3584 
Q 2916 3584 3314 3078 
Q 3713 2572 3713 1747 
Q 3713 922 3314 415 
Q 2916 -91 2278 -91 
Q 1894 -91 1617 61 
Q 1341 213 1159 525 
L 1159 0 
L 581 0 
L 581 4863 
L 1159 4863 
L 1159 2969 
z
" transform="scale(0.015625)"/>
      <path id="DejaVuSans-79" d="M 2059 -325 
Q 1816 -950 1584 -1140 
Q 1353 -1331 966 -1331 
L 506 -1331 
L 506 -850 
L 844 -850 
Q 1081 -850 1212 -737 
Q 1344 -625 1503 -206 
L 1606 56 
L 191 3500 
L 800 3500 
L 1894 763 
L 2988 3500 
L 3597 3500 
L 2059 -325 
z
" transform="scale(0.015625)"/>
      <path id="DejaVuSans-53" d="M 3425 4513 
L 3425 3897 
Q 3066 4069 2747 4153 
Q 2428 4238 2131 4238 
Q 1616 4238 1336 4038 
Q 1056 3838 1056 3469 
Q 1056 3159 1242 3001 
Q 1428 2844 1947 2747 
L 2328 2669 
Q 3034 2534 3370 2195 
Q 3706 1856 3706 1288 
Q 3706 609 3251 259 
Q 2797 -91 1919 -91 
Q 1588 -91 1214 -16 
Q 841 59 441 206 
L 441 856 
Q 825 641 1194 531 
Q 1563 422 1919 422 
Q 2459 422 2753 634 
Q 3047 847 3047 1241 
Q 3047 1584 2836 1778 
Q 2625 1972 2144 2069 
L 1759 2144 
Q 1053 2284 737 2584 
Q 422 2884 422 3419 
Q 422 4038 858 4394 
Q 1294 4750 2059 4750 
Q 2388 4750 2728 4690 
Q 3069 4631 3425 4513 
z
" transform="scale(0.015625)"/>
     </defs>
     <use xlink:href="#DejaVuSans-41" transform="translate(0 0.765625)"/>
     <use xlink:href="#DejaVuSans-76" transform="translate(68.408203 0.765625)"/>
     <use xlink:href="#DejaVuSans-65" transform="translate(127.587891 0.765625)"/>
     <use xlink:href="#DejaVuSans-72" transform="translate(189.111328 0.765625)"/>
     <use xlink:href="#DejaVuSans-61" transform="translate(230.224609 0.765625)"/>
     <use xlink:href="#DejaVuSans-67" transform="translate(291.503906 0.765625)"/>
     <use xlink:href="#DejaVuSans-65" transform="translate(354.980469 0.765625)"/>
     <use xlink:href="#DejaVuSans-20" transform="translate(416.503906 0.765625)"/>
     <use xlink:href="#DejaVuSans-Oblique-3c7" transform="translate(448.291016 0.765625)"/>
     <use xlink:href="#DejaVuSans-32" transform="translate(511.943411 39.046875)scale(0.7)"/>
     <use xlink:href="#DejaVuSans-20" transform="translate(559.213919 0.765625)"/>
     <use xlink:href="#DejaVuSans-62" transform="translate(591.001029 0.765625)"/>
     <use xlink:href="#DejaVuSans-79" transform="translate(654.477591 0.765625)"/>
     <use xlink:href="#DejaVuSans-20" transform="translate(713.657279 0.765625)"/>
     <use xlink:href="#DejaVuSans-53" transform="translate(745.444388 0.765625)"/>
     <use xlink:href="#DejaVuSans-74" transform="translate(808.920951 0.765625)"/>
     <use xlink:href="#DejaVuSans-65" transform="translate(848.129935 0.765625)"/>
     <use xlink:href="#DejaVuSans-70" transform="translate(909.653372 0.765625)"/>
    </g>
   </g>
  </g>
 </g>
 <defs>
  <clipPath id="p3a3c64e243">
   <rect x="57.6" y="41.472" width="357.12" height="266.112"/>
  </clipPath>
 </defs>
</svg>
