<?xml version="1.0" encoding="utf-8" standalone="no"?>
<!DOCTYPE svg PUBLIC "-//W3C//DTD SVG 1.1//EN"
  "http://www.w3.org/Graphics/SVG/1.1/DTD/svg11.dtd">
<svg xmlns:xlink="http://www.w3.org/1999/xlink" width="460.8pt" height="345.6pt" viewBox="0 0 460.8 345.6" xmlns="http://www.w3.org/2000/svg" version="1.1">
 <metadata>
  <rdf:RDF xmlns:dc="http://purl.org/dc/elements/1.1/" xmlns:cc="http://creativecommons.org/ns#" xmlns:rdf="http://www.w3.org/1999/02/22-rdf-syntax-ns#">
   <cc:Work>
    <dc:type rdf:resource="http://purl.org/dc/dcmitype/StillImage"/>
    <dc:date>2022-02-11T14:34:14.454888</dc:date>
    <dc:format>image/svg+xml</dc:format>
    <dc:creator>
     <cc:Agent>
      <dc:title>Matplotlib v3.5.0, https://matplotlib.org/</dc:title>
     </cc:Agent>
    </dc:creator>
   </cc:Work>
  </rdf:RDF>
 </metadata>
 <defs>
  <style type="text/css">*{stroke-linejoin: round; stroke-linecap: butt}</style>
 </defs>
 <g id="figure_1">
  <g id="patch_1">
   <path d="M 0 345.6 
L 460.8 345.6 
L 460.8 0 
L 0 0 
z
" style="fill: #ffffff"/>
  </g>
  <g id="axes_1">
   <g id="patch_2">
    <path d="M 57.6 307.584 
L 414.72 307.584 
L 414.72 41.472 
L 57.6 41.472 
z
" style="fill: #ffffff"/>
   </g>
   <g id="matplotlib.axis_1">
    <g id="xtick_1">
     <g id="line2d_1">
      <defs>
       <path id="mecb51b001b" d="M 0 0 
L 0 3.5 
" style="stroke: #000000; stroke-width: 0.8"/>
      </defs>
      <g>
       <use xlink:href="#mecb51b001b" x="95.862857" y="307.584" style="stroke: #000000; stroke-width: 0.8"/>
      </g>
     </g>
     <g id="text_1">
      <!-- 500 -->
      <g transform="translate(86.319107 322.182437)scale(0.1 -0.1)">
       <defs>
        <path id="DejaVuSans-35" d="M 691 4666 
L 3169 4666 
L 3169 4134 
L 1269 4134 
L 1269 2991 
Q 1406 3038 1543 3061 
Q 1681 3084 1819 3084 
Q 2600 3084 3056 2656 
Q 3513 2228 3513 1497 
Q 3513 744 3044 326 
Q 2575 -91 1722 -91 
Q 1428 -91 1123 -41 
Q 819 9 494 109 
L 494 744 
Q 775 591 1075 516 
Q 1375 441 1709 441 
Q 2250 441 2565 725 
Q 2881 1009 2881 1497 
Q 2881 1984 2565 2268 
Q 2250 2553 1709 2553 
Q 1456 2553 1204 2497 
Q 953 2441 691 2322 
L 691 4666 
z
" transform="scale(0.015625)"/>
        <path id="DejaVuSans-30" d="M 2034 4250 
Q 1547 4250 1301 3770 
Q 1056 3291 1056 2328 
Q 1056 1369 1301 889 
Q 1547 409 2034 409 
Q 2525 409 2770 889 
Q 3016 1369 3016 2328 
Q 3016 3291 2770 3770 
Q 2525 4250 2034 4250 
z
M 2034 4750 
Q 2819 4750 3233 4129 
Q 3647 3509 3647 2328 
Q 3647 1150 3233 529 
Q 2819 -91 2034 -91 
Q 1250 -91 836 529 
Q 422 1150 422 2328 
Q 422 3509 836 4129 
Q 1250 4750 2034 4750 
z
" transform="scale(0.015625)"/>
       </defs>
       <use xlink:href="#DejaVuSans-35"/>
       <use xlink:href="#DejaVuSans-30" x="63.623047"/>
       <use xlink:href="#DejaVuSans-30" x="127.246094"/>
      </g>
     </g>
    </g>
    <g id="xtick_2">
     <g id="line2d_2">
      <g>
       <use xlink:href="#mecb51b001b" x="159.634286" y="307.584" style="stroke: #000000; stroke-width: 0.8"/>
      </g>
     </g>
     <g id="text_2">
      <!-- 1000 -->
      <g transform="translate(146.909286 322.182437)scale(0.1 -0.1)">
       <defs>
        <path id="DejaVuSans-31" d="M 794 531 
L 1825 531 
L 1825 4091 
L 703 3866 
L 703 4441 
L 1819 4666 
L 2450 4666 
L 2450 531 
L 3481 531 
L 3481 0 
L 794 0 
L 794 531 
z
" transform="scale(0.015625)"/>
       </defs>
       <use xlink:href="#DejaVuSans-31"/>
       <use xlink:href="#DejaVuSans-30" x="63.623047"/>
       <use xlink:href="#DejaVuSans-30" x="127.246094"/>
       <use xlink:href="#DejaVuSans-30" x="190.869141"/>
      </g>
     </g>
    </g>
    <g id="xtick_3">
     <g id="line2d_3">
      <g>
       <use xlink:href="#mecb51b001b" x="223.405714" y="307.584" style="stroke: #000000; stroke-width: 0.8"/>
      </g>
     </g>
     <g id="text_3">
      <!-- 1500 -->
      <g transform="translate(210.680714 322.182437)scale(0.1 -0.1)">
       <use xlink:href="#DejaVuSans-31"/>
       <use xlink:href="#DejaVuSans-35" x="63.623047"/>
       <use xlink:href="#DejaVuSans-30" x="127.246094"/>
       <use xlink:href="#DejaVuSans-30" x="190.869141"/>
      </g>
     </g>
    </g>
    <g id="xtick_4">
     <g id="line2d_4">
      <g>
       <use xlink:href="#mecb51b001b" x="287.177143" y="307.584" style="stroke: #000000; stroke-width: 0.8"/>
      </g>
     </g>
     <g id="text_4">
      <!-- 2000 -->
      <g transform="translate(274.452143 322.182437)scale(0.1 -0.1)">
       <defs>
        <path id="DejaVuSans-32" d="M 1228 531 
L 3431 531 
L 3431 0 
L 469 0 
L 469 531 
Q 828 903 1448 1529 
Q 2069 2156 2228 2338 
Q 2531 2678 2651 2914 
Q 2772 3150 2772 3378 
Q 2772 3750 2511 3984 
Q 2250 4219 1831 4219 
Q 1534 4219 1204 4116 
Q 875 4013 500 3803 
L 500 4441 
Q 881 4594 1212 4672 
Q 1544 4750 1819 4750 
Q 2544 4750 2975 4387 
Q 3406 4025 3406 3419 
Q 3406 3131 3298 2873 
Q 3191 2616 2906 2266 
Q 2828 2175 2409 1742 
Q 1991 1309 1228 531 
z
" transform="scale(0.015625)"/>
       </defs>
       <use xlink:href="#DejaVuSans-32"/>
       <use xlink:href="#DejaVuSans-30" x="63.623047"/>
       <use xlink:href="#DejaVuSans-30" x="127.246094"/>
       <use xlink:href="#DejaVuSans-30" x="190.869141"/>
      </g>
     </g>
    </g>
    <g id="xtick_5">
     <g id="line2d_5">
      <g>
       <use xlink:href="#mecb51b001b" x="350.948571" y="307.584" style="stroke: #000000; stroke-width: 0.8"/>
      </g>
     </g>
     <g id="text_5">
      <!-- 2500 -->
      <g transform="translate(338.223571 322.182437)scale(0.1 -0.1)">
       <use xlink:href="#DejaVuSans-32"/>
       <use xlink:href="#DejaVuSans-35" x="63.623047"/>
       <use xlink:href="#DejaVuSans-30" x="127.246094"/>
       <use xlink:href="#DejaVuSans-30" x="190.869141"/>
      </g>
     </g>
    </g>
    <g id="xtick_6">
     <g id="line2d_6">
      <g>
       <use xlink:href="#mecb51b001b" x="414.72" y="307.584" style="stroke: #000000; stroke-width: 0.8"/>
      </g>
     </g>
     <g id="text_6">
      <!-- 3000 -->
      <g transform="translate(401.995 322.182437)scale(0.1 -0.1)">
       <defs>
        <path id="DejaVuSans-33" d="M 2597 2516 
Q 3050 2419 3304 2112 
Q 3559 1806 3559 1356 
Q 3559 666 3084 287 
Q 2609 -91 1734 -91 
Q 1441 -91 1130 -33 
Q 819 25 488 141 
L 488 750 
Q 750 597 1062 519 
Q 1375 441 1716 441 
Q 2309 441 2620 675 
Q 2931 909 2931 1356 
Q 2931 1769 2642 2001 
Q 2353 2234 1838 2234 
L 1294 2234 
L 1294 2753 
L 1863 2753 
Q 2328 2753 2575 2939 
Q 2822 3125 2822 3475 
Q 2822 3834 2567 4026 
Q 2313 4219 1838 4219 
Q 1578 4219 1281 4162 
Q 984 4106 628 3988 
L 628 4550 
Q 988 4650 1302 4700 
Q 1616 4750 1894 4750 
Q 2613 4750 3031 4423 
Q 3450 4097 3450 3541 
Q 3450 3153 3228 2886 
Q 3006 2619 2597 2516 
z
" transform="scale(0.015625)"/>
       </defs>
       <use xlink:href="#DejaVuSans-33"/>
       <use xlink:href="#DejaVuSans-30" x="63.623047"/>
       <use xlink:href="#DejaVuSans-30" x="127.246094"/>
       <use xlink:href="#DejaVuSans-30" x="190.869141"/>
      </g>
     </g>
    </g>
    <g id="text_7">
     <!-- step -->
     <g transform="translate(225.344375 335.860562)scale(0.1 -0.1)">
      <defs>
       <path id="DejaVuSans-73" d="M 2834 3397 
L 2834 2853 
Q 2591 2978 2328 3040 
Q 2066 3103 1784 3103 
Q 1356 3103 1142 2972 
Q 928 2841 928 2578 
Q 928 2378 1081 2264 
Q 1234 2150 1697 2047 
L 1894 2003 
Q 2506 1872 2764 1633 
Q 3022 1394 3022 966 
Q 3022 478 2636 193 
Q 2250 -91 1575 -91 
Q 1294 -91 989 -36 
Q 684 19 347 128 
L 347 722 
Q 666 556 975 473 
Q 1284 391 1588 391 
Q 1994 391 2212 530 
Q 2431 669 2431 922 
Q 2431 1156 2273 1281 
Q 2116 1406 1581 1522 
L 1381 1569 
Q 847 1681 609 1914 
Q 372 2147 372 2553 
Q 372 3047 722 3315 
Q 1072 3584 1716 3584 
Q 2034 3584 2315 3537 
Q 2597 3491 2834 3397 
z
" transform="scale(0.015625)"/>
       <path id="DejaVuSans-74" d="M 1172 4494 
L 1172 3500 
L 2356 3500 
L 2356 3053 
L 1172 3053 
L 1172 1153 
Q 1172 725 1289 603 
Q 1406 481 1766 481 
L 2356 481 
L 2356 0 
L 1766 0 
Q 1100 0 847 248 
Q 594 497 594 1153 
L 594 3053 
L 172 3053 
L 172 3500 
L 594 3500 
L 594 4494 
L 1172 4494 
z
" transform="scale(0.015625)"/>
       <path id="DejaVuSans-65" d="M 3597 1894 
L 3597 1613 
L 953 1613 
Q 991 1019 1311 708 
Q 1631 397 2203 397 
Q 2534 397 2845 478 
Q 3156 559 3463 722 
L 3463 178 
Q 3153 47 2828 -22 
Q 2503 -91 2169 -91 
Q 1331 -91 842 396 
Q 353 884 353 1716 
Q 353 2575 817 3079 
Q 1281 3584 2069 3584 
Q 2775 3584 3186 3129 
Q 3597 2675 3597 1894 
z
M 3022 2063 
Q 3016 2534 2758 2815 
Q 2500 3097 2075 3097 
Q 1594 3097 1305 2825 
Q 1016 2553 972 2059 
L 3022 2063 
z
" transform="scale(0.015625)"/>
       <path id="DejaVuSans-70" d="M 1159 525 
L 1159 -1331 
L 581 -1331 
L 581 3500 
L 1159 3500 
L 1159 2969 
Q 1341 3281 1617 3432 
Q 1894 3584 2278 3584 
Q 2916 3584 3314 3078 
Q 3713 2572 3713 1747 
Q 3713 922 3314 415 
Q 2916 -91 2278 -91 
Q 1894 -91 1617 61 
Q 1341 213 1159 525 
z
M 3116 1747 
Q 3116 2381 2855 2742 
Q 2594 3103 2138 3103 
Q 1681 3103 1420 2742 
Q 1159 2381 1159 1747 
Q 1159 1113 1420 752 
Q 1681 391 2138 391 
Q 2594 391 2855 752 
Q 3116 1113 3116 1747 
z
" transform="scale(0.015625)"/>
      </defs>
      <use xlink:href="#DejaVuSans-73"/>
      <use xlink:href="#DejaVuSans-74" x="52.099609"/>
      <use xlink:href="#DejaVuSans-65" x="91.308594"/>
      <use xlink:href="#DejaVuSans-70" x="152.832031"/>
     </g>
    </g>
   </g>
   <g id="matplotlib.axis_2">
    <g id="ytick_1">
     <g id="line2d_7">
      <defs>
       <path id="med4ea56a01" d="M 0 0 
L -3.5 0 
" style="stroke: #000000; stroke-width: 0.8"/>
      </defs>
      <g>
       <use xlink:href="#med4ea56a01" x="57.6" y="271.526126" style="stroke: #000000; stroke-width: 0.8"/>
      </g>
     </g>
     <g id="text_8">
      <!-- 500 -->
      <g transform="translate(31.5125 275.325345)scale(0.1 -0.1)">
       <use xlink:href="#DejaVuSans-35"/>
       <use xlink:href="#DejaVuSans-30" x="63.623047"/>
       <use xlink:href="#DejaVuSans-30" x="127.246094"/>
      </g>
     </g>
    </g>
    <g id="ytick_2">
     <g id="line2d_8">
      <g>
       <use xlink:href="#med4ea56a01" x="57.6" y="233.223233" style="stroke: #000000; stroke-width: 0.8"/>
      </g>
     </g>
     <g id="text_9">
      <!-- 1000 -->
      <g transform="translate(25.15 237.022451)scale(0.1 -0.1)">
       <use xlink:href="#DejaVuSans-31"/>
       <use xlink:href="#DejaVuSans-30" x="63.623047"/>
       <use xlink:href="#DejaVuSans-30" x="127.246094"/>
       <use xlink:href="#DejaVuSans-30" x="190.869141"/>
      </g>
     </g>
    </g>
    <g id="ytick_3">
     <g id="line2d_9">
      <g>
       <use xlink:href="#med4ea56a01" x="57.6" y="194.92034" style="stroke: #000000; stroke-width: 0.8"/>
      </g>
     </g>
     <g id="text_10">
      <!-- 1500 -->
      <g transform="translate(25.15 198.719558)scale(0.1 -0.1)">
       <use xlink:href="#DejaVuSans-31"/>
       <use xlink:href="#DejaVuSans-35" x="63.623047"/>
       <use xlink:href="#DejaVuSans-30" x="127.246094"/>
       <use xlink:href="#DejaVuSans-30" x="190.869141"/>
      </g>
     </g>
    </g>
    <g id="ytick_4">
     <g id="line2d_10">
      <g>
       <use xlink:href="#med4ea56a01" x="57.6" y="156.617446" style="stroke: #000000; stroke-width: 0.8"/>
      </g>
     </g>
     <g id="text_11">
      <!-- 2000 -->
      <g transform="translate(25.15 160.416665)scale(0.1 -0.1)">
       <use xlink:href="#DejaVuSans-32"/>
       <use xlink:href="#DejaVuSans-30" x="63.623047"/>
       <use xlink:href="#DejaVuSans-30" x="127.246094"/>
       <use xlink:href="#DejaVuSans-30" x="190.869141"/>
      </g>
     </g>
    </g>
    <g id="ytick_5">
     <g id="line2d_11">
      <g>
       <use xlink:href="#med4ea56a01" x="57.6" y="118.314553" style="stroke: #000000; stroke-width: 0.8"/>
      </g>
     </g>
     <g id="text_12">
      <!-- 2500 -->
      <g transform="translate(25.15 122.113772)scale(0.1 -0.1)">
       <use xlink:href="#DejaVuSans-32"/>
       <use xlink:href="#DejaVuSans-35" x="63.623047"/>
       <use xlink:href="#DejaVuSans-30" x="127.246094"/>
       <use xlink:href="#DejaVuSans-30" x="190.869141"/>
      </g>
     </g>
    </g>
    <g id="ytick_6">
     <g id="line2d_12">
      <g>
       <use xlink:href="#med4ea56a01" x="57.6" y="80.01166" style="stroke: #000000; stroke-width: 0.8"/>
      </g>
     </g>
     <g id="text_13">
      <!-- 3000 -->
      <g transform="translate(25.15 83.810879)scale(0.1 -0.1)">
       <use xlink:href="#DejaVuSans-33"/>
       <use xlink:href="#DejaVuSans-30" x="63.623047"/>
       <use xlink:href="#DejaVuSans-30" x="127.246094"/>
       <use xlink:href="#DejaVuSans-30" x="190.869141"/>
      </g>
     </g>
    </g>
    <g id="ytick_7">
     <g id="line2d_13">
      <g>
       <use xlink:href="#med4ea56a01" x="57.6" y="41.708767" style="stroke: #000000; stroke-width: 0.8"/>
      </g>
     </g>
     <g id="text_14">
      <!-- 3500 -->
      <g transform="translate(25.15 45.507986)scale(0.1 -0.1)">
       <use xlink:href="#DejaVuSans-33"/>
       <use xlink:href="#DejaVuSans-35" x="63.623047"/>
       <use xlink:href="#DejaVuSans-30" x="127.246094"/>
       <use xlink:href="#DejaVuSans-30" x="190.869141"/>
      </g>
     </g>
    </g>
    <g id="text_15">
     <!-- $\chi^2$ -->
     <g transform="translate(19.05 180.078)rotate(-90)scale(0.1 -0.1)">
      <defs>
       <path id="DejaVuSans-Oblique-3c7" d="M 1922 -781 
L 1691 416 
L 394 -1334 
L -284 -1334 
L 1553 1141 
L 1269 2613 
Q 1194 3006 713 3006 
L 559 3006 
L 653 3500 
L 872 3494 
Q 1675 3472 1775 2950 
L 2006 1753 
L 3303 3503 
L 3981 3503 
L 2144 1028 
L 2428 -444 
Q 2503 -838 2984 -838 
L 3138 -838 
L 3044 -1331 
L 2825 -1325 
Q 2022 -1303 1922 -781 
z
" transform="scale(0.015625)"/>
      </defs>
      <use xlink:href="#DejaVuSans-Oblique-3c7" transform="translate(0 0.765625)"/>
      <use xlink:href="#DejaVuSans-32" transform="translate(63.652396 39.046875)scale(0.7)"/>
     </g>
    </g>
   </g>
   <g id="line2d_14">
    <path d="M 57.6 53.568 
L 57.855086 54.970009 
L 58.110171 55.058183 
L 58.365257 55.380934 
L 58.875429 55.520366 
L 59.258057 55.730882 
L 59.768229 55.837635 
L 60.150857 56.865584 
L 60.2784 56.898795 
L 60.533486 57.218667 
L 61.1712 60.163858 
L 61.298743 60.201716 
L 61.426286 60.701613 
L 61.553829 61.692314 
L 61.681371 61.773846 
L 61.936457 62.767224 
L 62.064 62.986304 
L 62.319086 64.267283 
L 62.574171 64.465823 
L 62.701714 64.48469 
L 62.9568 65.01152 
L 63.084343 65.135117 
L 63.211886 65.76812 
L 63.466971 65.919915 
L 63.594514 66.570945 
L 63.977143 71.331377 
L 64.359771 73.823379 
L 64.487314 73.897431 
L 64.614857 75.270971 
L 64.7424 78.185054 
L 64.869943 78.318518 
L 65.252571 80.354665 
L 65.380114 80.579926 
L 65.507657 81.379882 
L 65.6352 81.443404 
L 65.762743 82.547225 
L 66.017829 82.845432 
L 66.400457 85.322061 
L 67.038171 86.784317 
L 67.548343 91.437706 
L 67.803429 94.476012 
L 67.930971 94.933174 
L 68.3136 99.531949 
L 68.441143 99.601143 
L 68.568686 99.977064 
L 68.696229 100.968522 
L 68.951314 103.483041 
L 69.078857 103.724937 
L 69.844114 108.555716 
L 70.481829 113.405526 
L 70.609371 113.438267 
L 71.119543 117.592889 
L 71.247086 117.857784 
L 71.629714 120.518516 
L 71.8848 120.964058 
L 72.139886 122.997903 
L 72.267429 123.492265 
L 72.394971 124.627272 
L 72.522514 124.709097 
L 72.650057 126.212593 
L 72.7776 126.224648 
L 73.6704 129.677367 
L 74.053029 129.846063 
L 74.308114 130.260706 
L 74.5632 130.279065 
L 74.818286 130.850455 
L 75.200914 131.002728 
L 75.456 131.311769 
L 75.711086 131.491343 
L 75.966171 131.69447 
L 76.221257 132.229785 
L 76.3488 132.358301 
L 76.476343 133.197645 
L 76.731429 133.233555 
L 76.858971 133.793027 
L 76.986514 133.799091 
L 77.496686 136.343006 
L 77.751771 136.348024 
L 77.879314 136.54456 
L 78.006857 136.953002 
L 78.1344 136.956031 
L 78.389486 137.109631 
L 78.644571 137.124043 
L 79.154743 137.424483 
L 79.792457 137.635528 
L 82.343314 137.933436 
L 82.470857 138.311426 
L 82.725943 138.304098 
L 82.981029 139.590472 
L 83.4912 139.602494 
L 84.001371 139.933453 
L 84.256457 139.945708 
L 84.384 140.203429 
L 84.639086 140.201304 
L 84.766629 140.597312 
L 85.021714 140.706564 
L 85.531886 140.838244 
L 86.424686 140.930958 
L 86.934857 141.014637 
L 87.0624 141.037008 
L 87.189943 141.575463 
L 87.572571 141.593295 
L 87.700114 142.363526 
L 88.210286 142.385156 
L 88.337829 142.966818 
L 89.613257 143.081525 
L 89.995886 143.124828 
L 90.888686 143.143636 
L 91.143771 143.740469 
L 91.909029 143.879486 
L 92.036571 144.139809 
L 92.4192 144.214576 
L 92.546743 144.29557 
L 92.929371 146.293735 
L 93.056914 147.673228 
L 93.184457 147.67555 
L 93.439543 149.161117 
L 93.694629 149.177702 
L 93.949714 150.6156 
L 94.077257 150.61393 
L 94.2048 150.839786 
L 94.587429 152.820239 
L 94.714971 153.348298 
L 94.842514 153.381707 
L 94.970057 153.534675 
L 95.352686 155.037751 
L 95.607771 155.4152 
L 95.735314 156.50555 
L 95.862857 156.503503 
L 95.9904 157.391022 
L 96.245486 157.49339 
L 96.373029 157.505891 
L 96.500571 157.891929 
L 96.628114 157.90566 
L 97.010743 158.310424 
L 97.138286 158.452465 
L 97.393371 159.610888 
L 97.520914 159.615898 
L 97.903543 159.957054 
L 98.031086 160.985477 
L 98.158629 161.065253 
L 98.413714 162.720289 
L 98.541257 162.76519 
L 99.178971 165.905775 
L 99.306514 165.904955 
L 99.689143 167.675279 
L 99.944229 168.195078 
L 100.071771 168.735228 
L 100.581943 168.937667 
L 100.837029 169.974483 
L 100.964571 170.022963 
L 101.092114 170.396393 
L 101.3472 172.118742 
L 101.602286 174.605759 
L 101.729829 174.940711 
L 101.857371 174.942802 
L 101.984914 176.169963 
L 102.622629 176.621758 
L 102.750171 176.641503 
L 102.877714 177.406184 
L 103.005257 177.407622 
L 103.260343 178.247416 
L 103.515429 178.33657 
L 103.770514 179.035818 
L 103.898057 179.336263 
L 104.153143 179.367194 
L 104.280686 180.021682 
L 104.9184 180.077668 
L 105.173486 180.790846 
L 105.556114 182.463256 
L 105.938743 182.621104 
L 106.321371 183.762957 
L 106.448914 183.769444 
L 106.576457 184.165068 
L 106.704 184.161444 
L 106.959086 184.814434 
L 107.214171 184.942804 
L 107.469257 184.981295 
L 107.979429 185.746228 
L 108.234514 185.820134 
L 108.362057 186.274471 
L 108.617143 186.285373 
L 108.744686 186.786207 
L 108.999771 186.784027 
L 109.3824 187.073918 
L 109.892571 187.090819 
L 110.147657 187.331614 
L 110.2752 187.378794 
L 110.530286 188.191234 
L 110.657829 188.195785 
L 111.040457 190.000474 
L 111.295543 190.860832 
L 111.550629 191.747779 
L 111.805714 192.931907 
L 112.0608 193.535149 
L 112.443429 193.723992 
L 112.570971 194.162133 
L 113.081143 194.359395 
L 113.208686 194.635781 
L 113.591314 194.761741 
L 113.8464 194.791366 
L 113.973943 195.852683 
L 114.229029 195.895959 
L 114.484114 196.580467 
L 114.866743 196.759955 
L 114.994286 196.92624 
L 115.249371 198.481584 
L 115.504457 201.223149 
L 115.759543 202.02212 
L 115.887086 202.376095 
L 116.269714 202.370535 
L 116.397257 202.577576 
L 116.779886 204.153143 
L 116.907429 204.159053 
L 117.290057 205.098117 
L 117.927771 205.275858 
L 118.182857 205.388614 
L 118.948114 205.619476 
L 122.009143 205.697226 
L 122.391771 206.571311 
L 122.646857 206.773146 
L 122.901943 208.40111 
L 123.412114 212.48741 
L 123.6672 212.516841 
L 123.922286 212.83939 
L 124.177371 213.674233 
L 124.815086 213.855919 
L 124.942629 213.858119 
L 125.070171 214.17574 
L 125.325257 214.189116 
L 125.580343 214.497278 
L 130.299429 214.608451 
L 130.426971 214.601641 
L 130.682057 214.724741 
L 130.937143 214.837562 
L 132.5952 214.925779 
L 133.998171 215.021389 
L 134.253257 215.372873 
L 134.3808 215.375983 
L 134.890971 216.775632 
L 135.018514 216.777855 
L 135.146057 217.345214 
L 135.656229 217.371026 
L 136.038857 217.58717 
L 136.1664 217.583059 
L 136.421486 217.722676 
L 136.804114 217.840781 
L 138.8448 217.865997 
L 139.7376 217.894284 
L 140.885486 217.96717 
L 141.013029 218.549895 
L 141.140571 218.547315 
L 141.268114 219.302623 
L 141.395657 219.30311 
L 141.5232 219.627168 
L 142.288457 219.619911 
L 142.416 220.002041 
L 142.671086 219.995094 
L 142.926171 220.524336 
L 144.329143 220.626511 
L 145.349486 220.747316 
L 145.732114 220.790968 
L 146.242286 220.927513 
L 147.007543 221.110342 
L 147.262629 221.103866 
L 147.390171 221.693847 
L 147.517714 221.697358 
L 147.900343 222.539068 
L 148.155429 224.211268 
L 148.410514 224.215692 
L 148.538057 224.517642 
L 148.6656 224.51649 
L 149.048229 225.453454 
L 149.175771 225.697718 
L 149.303314 225.694224 
L 149.5584 226.521432 
L 150.706286 226.588339 
L 151.344 226.665617 
L 153.257143 226.746052 
L 153.384686 227.898118 
L 153.639771 227.899852 
L 153.767314 228.802173 
L 154.532571 228.799572 
L 154.787657 229.432951 
L 155.170286 229.489337 
L 155.425371 229.565261 
L 156.445714 229.696361 
L 156.573257 229.809228 
L 156.7008 230.12067 
L 156.828343 230.110549 
L 156.955886 230.674815 
L 157.210971 230.674051 
L 157.338514 230.880466 
L 157.5936 231.882019 
L 157.848686 232.029111 
L 158.103771 232.035138 
L 158.358857 232.251708 
L 158.996571 232.333923 
L 159.251657 232.460011 
L 159.3792 232.727133 
L 159.506743 232.726764 
L 159.889371 234.18764 
L 160.016914 234.504332 
L 160.654629 234.566146 
L 160.782171 234.802372 
L 161.037257 234.810079 
L 161.1648 235.214806 
L 161.547429 235.27043 
L 161.802514 235.364386 
L 162.185143 235.497227 
L 162.822857 235.51743 
L 167.031771 235.706678 
L 167.669486 237.783438 
L 167.797029 237.902194 
L 167.924571 238.197525 
L 168.3072 240.267296 
L 168.434743 240.509124 
L 168.562286 240.506914 
L 168.817371 240.986752 
L 168.944914 240.987203 
L 169.2 241.187752 
L 169.455086 241.297424 
L 169.837714 241.364594 
L 170.475429 241.395721 
L 173.408914 241.455421 
L 173.664 241.63912 
L 174.046629 241.68345 
L 174.174171 241.988858 
L 174.811886 242.059614 
L 175.322057 243.903168 
L 175.577143 243.904267 
L 175.704686 244.182961 
L 176.597486 244.265439 
L 176.980114 244.319203 
L 179.148343 244.33111 
L 180.8064 244.361998 
L 181.316571 244.418534 
L 181.954286 244.421272 
L 182.209371 244.481457 
L 182.464457 244.982423 
L 182.592 244.979327 
L 182.719543 245.527076 
L 183.229714 245.52134 
L 183.4848 246.899608 
L 183.612343 247.156814 
L 183.994971 247.241145 
L 184.632686 247.344644 
L 186.1632 247.359426 
L 186.545829 247.410523 
L 186.673371 247.847834 
L 186.800914 247.841138 
L 187.056 248.584676 
L 187.438629 248.605671 
L 187.693714 249.727484 
L 187.821257 249.731241 
L 188.076343 250.095032 
L 188.586514 250.10023 
L 188.8416 250.23161 
L 194.836114 250.2753 
L 198.407314 250.259201 
L 199.937829 250.309647 
L 200.192914 250.382188 
L 200.320457 250.406392 
L 200.575543 251.162434 
L 200.703086 251.165103 
L 201.085714 251.973078 
L 201.3408 251.971902 
L 201.595886 252.554485 
L 201.850971 252.569736 
L 201.978514 252.951511 
L 202.488686 253.000323 
L 202.743771 253.184002 
L 216.5184 253.261588 
L 217.028571 253.384306 
L 217.283657 253.382878 
L 217.4112 253.710146 
L 217.538743 253.716053 
L 217.793829 254.448944 
L 217.921371 254.976665 
L 218.048914 254.981689 
L 218.176457 255.65429 
L 218.431543 255.756272 
L 218.686629 255.831019 
L 219.834514 255.875727 
L 220.0896 256.007613 
L 220.854857 256.063972 
L 221.237486 256.155538 
L 224.681143 256.19488 
L 225.063771 256.853806 
L 225.4464 258.793658 
L 225.573943 259.046239 
L 227.104457 259.147344 
L 227.614629 259.560519 
L 227.742171 259.56486 
L 227.869714 260.230194 
L 227.997257 260.238295 
L 228.1248 260.576928 
L 229.272686 260.683809 
L 229.655314 261.300725 
L 229.9104 261.303579 
L 230.037943 261.576209 
L 230.165486 261.577113 
L 230.293029 261.885502 
L 231.568457 261.95934 
L 234.501943 262.044 
L 237.180343 262.153778 
L 237.435429 262.285265 
L 237.562971 262.288992 
L 237.690514 262.873104 
L 237.818057 262.869245 
L 238.073143 263.030182 
L 238.328229 263.027197 
L 238.583314 263.824242 
L 238.710857 263.821275 
L 238.8384 264.313608 
L 239.348571 264.363011 
L 239.603657 264.611972 
L 239.986286 264.611691 
L 240.241371 264.802285 
L 240.751543 264.821639 
L 241.006629 264.905831 
L 241.134171 264.9129 
L 241.261714 265.476913 
L 242.026971 265.518546 
L 242.154514 266.038518 
L 242.4096 266.045972 
L 242.537143 266.391336 
L 242.792229 266.434378 
L 242.919771 266.834332 
L 243.3024 266.851797 
L 243.429943 267.459664 
L 243.685029 267.471757 
L 243.940114 267.840062 
L 245.088 267.86759 
L 247.128686 267.884399 
L 257.5872 267.875657 
L 266.005029 267.923988 
L 269.321143 267.928562 
L 270.596571 267.941181 
L 272.892343 267.935929 
L 277.483886 267.972903 
L 277.866514 268.043112 
L 278.249143 268.414701 
L 278.376686 268.415782 
L 278.631771 269.757688 
L 278.759314 269.949633 
L 279.0144 270.74412 
L 279.652114 270.79136 
L 280.289829 270.884598 
L 282.5856 270.931991 
L 282.840686 271.041719 
L 283.223314 271.03581 
L 283.350857 271.440724 
L 283.605943 271.439455 
L 283.988571 271.841164 
L 284.116114 271.851038 
L 284.243657 272.221119 
L 284.626286 272.221159 
L 284.753829 272.9358 
L 284.881371 272.939132 
L 285.008914 273.265343 
L 285.519086 273.257643 
L 285.774171 273.715107 
L 286.029257 273.808561 
L 289.217829 273.836222 
L 290.748343 273.847558 
L 292.151314 273.95676 
L 292.278857 274.31853 
L 292.533943 274.356651 
L 292.789029 274.525827 
L 293.044114 274.535775 
L 293.426743 276.11257 
L 293.936914 276.233376 
L 294.064457 276.598015 
L 294.829714 276.692768 
L 295.339886 276.789589 
L 314.598857 276.816574 
L 315.874286 276.826228 
L 319.1904 276.841652 
L 322.634057 276.858653 
L 325.184914 276.856724 
L 340.745143 276.873903 
L 342.275657 276.974909 
L 342.530743 277.934224 
L 342.785829 278.113317 
L 343.678629 278.103889 
L 343.806171 278.466515 
L 344.1888 278.526227 
L 344.316343 279.074649 
L 344.698971 279.065154 
L 344.826514 279.48458 
L 345.464229 279.508948 
L 345.719314 279.697825 
L 346.229486 279.738691 
L 347.504914 279.769474 
L 349.800686 279.801451 
L 351.458743 279.772325 
L 355.157486 279.806382 
L 358.983771 279.813902 
L 359.749029 279.843432 
L 362.172343 279.899918 
L 362.682514 279.924514 
L 362.810057 280.406569 
L 363.065143 280.49021 
L 363.320229 281.497693 
L 363.8304 281.633011 
L 363.957943 282.175639 
L 364.085486 282.167782 
L 364.213029 282.672469 
L 368.804571 282.733739 
L 376.074514 282.733818 
L 377.477486 282.736707 
L 394.058057 282.740693 
L 395.9712 282.752508 
L 399.287314 282.755886 
L 401.455543 282.758952 
L 403.496229 282.753665 
L 406.557257 282.744373 
L 411.658971 282.778736 
L 413.061943 282.761977 
L 414.592457 282.750357 
L 414.592457 282.750357 
" clip-path="url(#ped29aa8a7c)" style="fill: none; stroke: #1f77b4; stroke-opacity: 0.3; stroke-width: 1.5; stroke-linecap: square"/>
   </g>
   <g id="line2d_15">
    <path d="M 57.6 295.118467 
L 60.150857 295.228192 
L 61.426286 295.240064 
L 75.073371 295.281169 
L 75.328457 295.360747 
L 311.410286 295.429406 
L 311.792914 295.488 
L 382.324114 295.390012 
L 383.216914 295.381339 
L 385.002514 295.388175 
L 389.083886 295.438845 
L 389.338971 295.355178 
L 401.200457 295.431293 
L 401.583086 295.47054 
L 414.592457 295.443292 
L 414.592457 295.443292 
" clip-path="url(#ped29aa8a7c)" style="fill: none; stroke: #ff7f0e; stroke-opacity: 0.3; stroke-width: 1.5; stroke-linecap: square"/>
   </g>
   <g id="patch_3">
    <path d="M 57.6 307.584 
L 57.6 41.472 
" style="fill: none; stroke: #000000; stroke-width: 0.8; stroke-linejoin: miter; stroke-linecap: square"/>
   </g>
   <g id="patch_4">
    <path d="M 414.72 307.584 
L 414.72 41.472 
" style="fill: none; stroke: #000000; stroke-width: 0.8; stroke-linejoin: miter; stroke-linecap: square"/>
   </g>
   <g id="patch_5">
    <path d="M 57.6 307.584 
L 414.72 307.584 
" style="fill: none; stroke: #000000; stroke-width: 0.8; stroke-linejoin: miter; stroke-linecap: square"/>
   </g>
   <g id="patch_6">
    <path d="M 57.6 41.472 
L 414.72 41.472 
" style="fill: none; stroke: #000000; stroke-width: 0.8; stroke-linejoin: miter; stroke-linecap: square"/>
   </g>
   <g id="text_16">
    <!-- Best $\chi^2$ by Step -->
    <g transform="translate(189.42 35.472)scale(0.12 -0.12)">
     <defs>
      <path id="DejaVuSans-42" d="M 1259 2228 
L 1259 519 
L 2272 519 
Q 2781 519 3026 730 
Q 3272 941 3272 1375 
Q 3272 1813 3026 2020 
Q 2781 2228 2272 2228 
L 1259 2228 
z
M 1259 4147 
L 1259 2741 
L 2194 2741 
Q 2656 2741 2882 2914 
Q 3109 3088 3109 3444 
Q 3109 3797 2882 3972 
Q 2656 4147 2194 4147 
L 1259 4147 
z
M 628 4666 
L 2241 4666 
Q 2963 4666 3353 4366 
Q 3744 4066 3744 3513 
Q 3744 3084 3544 2831 
Q 3344 2578 2956 2516 
Q 3422 2416 3680 2098 
Q 3938 1781 3938 1306 
Q 3938 681 3513 340 
Q 3088 0 2303 0 
L 628 0 
L 628 4666 
z
" transform="scale(0.015625)"/>
      <path id="DejaVuSans-20" transform="scale(0.015625)"/>
      <path id="DejaVuSans-62" d="M 3116 1747 
Q 3116 2381 2855 2742 
Q 2594 3103 2138 3103 
Q 1681 3103 1420 2742 
Q 1159 2381 1159 1747 
Q 1159 1113 1420 752 
Q 1681 391 2138 391 
Q 2594 391 2855 752 
Q 3116 1113 3116 1747 
z
M 1159 2969 
Q 1341 3281 1617 3432 
Q 1894 3584 2278 3584 
Q 2916 3584 3314 3078 
Q 3713 2572 3713 1747 
Q 3713 922 3314 415 
Q 2916 -91 2278 -91 
Q 1894 -91 1617 61 
Q 1341 213 1159 525 
L 1159 0 
L 581 0 
L 581 4863 
L 1159 4863 
L 1159 2969 
z
" transform="scale(0.015625)"/>
      <path id="DejaVuSans-79" d="M 2059 -325 
Q 1816 -950 1584 -1140 
Q 1353 -1331 966 -1331 
L 506 -1331 
L 506 -850 
L 844 -850 
Q 1081 -850 1212 -737 
Q 1344 -625 1503 -206 
L 1606 56 
L 191 3500 
L 800 3500 
L 1894 763 
L 2988 3500 
L 3597 3500 
L 2059 -325 
z
" transform="scale(0.015625)"/>
      <path id="DejaVuSans-53" d="M 3425 4513 
L 3425 3897 
Q 3066 4069 2747 4153 
Q 2428 4238 2131 4238 
Q 1616 4238 1336 4038 
Q 1056 3838 1056 3469 
Q 1056 3159 1242 3001 
Q 1428 2844 1947 2747 
L 2328 2669 
Q 3034 2534 3370 2195 
Q 3706 1856 3706 1288 
Q 3706 609 3251 259 
Q 2797 -91 1919 -91 
Q 1588 -91 1214 -16 
Q 841 59 441 206 
L 441 856 
Q 825 641 1194 531 
Q 1563 422 1919 422 
Q 2459 422 2753 634 
Q 3047 847 3047 1241 
Q 3047 1584 2836 1778 
Q 2625 1972 2144 2069 
L 1759 2144 
Q 1053 2284 737 2584 
Q 422 2884 422 3419 
Q 422 4038 858 4394 
Q 1294 4750 2059 4750 
Q 2388 4750 2728 4690 
Q 3069 4631 3425 4513 
z
" transform="scale(0.015625)"/>
     </defs>
     <use xlink:href="#DejaVuSans-42" transform="translate(0 0.765625)"/>
     <use xlink:href="#DejaVuSans-65" transform="translate(68.603516 0.765625)"/>
     <use xlink:href="#DejaVuSans-73" transform="translate(130.126953 0.765625)"/>
     <use xlink:href="#DejaVuSans-74" transform="translate(182.226562 0.765625)"/>
     <use xlink:href="#DejaVuSans-20" transform="translate(221.435547 0.765625)"/>
     <use xlink:href="#DejaVuSans-Oblique-3c7" transform="translate(253.222656 0.765625)"/>
     <use xlink:href="#DejaVuSans-32" transform="translate(316.875052 39.046875)scale(0.7)"/>
     <use xlink:href="#DejaVuSans-20" transform="translate(364.14556 0.765625)"/>
     <use xlink:href="#DejaVuSans-62" transform="translate(395.932669 0.765625)"/>
     <use xlink:href="#DejaVuSans-79" transform="translate(459.409232 0.765625)"/>
     <use xlink:href="#DejaVuSans-20" transform="translate(518.588919 0.765625)"/>
     <use xlink:href="#DejaVuSans-53" transform="translate(550.376029 0.765625)"/>
     <use xlink:href="#DejaVuSans-74" transform="translate(613.852591 0.765625)"/>
     <use xlink:href="#DejaVuSans-65" transform="translate(653.061576 0.765625)"/>
     <use xlink:href="#DejaVuSans-70" transform="translate(714.585013 0.765625)"/>
    </g>
   </g>
  </g>
 </g>
 <defs>
  <clipPath id="ped29aa8a7c">
   <rect x="57.6" y="41.472" width="357.12" height="266.112"/>
  </clipPath>
 </defs>
</svg>
