<?xml version="1.0" encoding="utf-8" standalone="no"?>
<!DOCTYPE svg PUBLIC "-//W3C//DTD SVG 1.1//EN"
  "http://www.w3.org/Graphics/SVG/1.1/DTD/svg11.dtd">
<svg xmlns:xlink="http://www.w3.org/1999/xlink" width="460.8pt" height="345.6pt" viewBox="0 0 460.8 345.6" xmlns="http://www.w3.org/2000/svg" version="1.1">
 <metadata>
  <rdf:RDF xmlns:dc="http://purl.org/dc/elements/1.1/" xmlns:cc="http://creativecommons.org/ns#" xmlns:rdf="http://www.w3.org/1999/02/22-rdf-syntax-ns#">
   <cc:Work>
    <dc:type rdf:resource="http://purl.org/dc/dcmitype/StillImage"/>
    <dc:date>2022-02-11T14:47:23.168575</dc:date>
    <dc:format>image/svg+xml</dc:format>
    <dc:creator>
     <cc:Agent>
      <dc:title>Matplotlib v3.5.0, https://matplotlib.org/</dc:title>
     </cc:Agent>
    </dc:creator>
   </cc:Work>
  </rdf:RDF>
 </metadata>
 <defs>
  <style type="text/css">*{stroke-linejoin: round; stroke-linecap: butt}</style>
 </defs>
 <g id="figure_1">
  <g id="patch_1">
   <path d="M 0 345.6 
L 460.8 345.6 
L 460.8 0 
L 0 0 
z
" style="fill: #ffffff"/>
  </g>
  <g id="axes_1">
   <g id="patch_2">
    <path d="M 57.6 307.584 
L 414.72 307.584 
L 414.72 41.472 
L 57.6 41.472 
z
" style="fill: #ffffff"/>
   </g>
   <g id="PolyCollection_1">
    <path d="M 73.832727 373.75242 
L 73.832727 670.58097 
L 77.250145 634.977616 
L 80.667562 601.148764 
L 84.08498 568.392926 
L 87.502398 533.914853 
L 90.919815 500.169331 
L 94.337233 466.057502 
L 97.754635 433.622054 
L 101.172052 402.825699 
L 104.58947 374.738442 
L 108.006887 344.607371 
L 111.424305 311.768582 
L 114.841723 278.846834 
L 118.25914 266.459538 
L 121.676558 254.073208 
L 125.093975 241.688353 
L 128.511393 229.306031 
L 131.928811 216.927855 
L 135.346228 204.55645 
L 138.76363 192.1961 
L 142.181048 179.853945 
L 145.598465 167.541592 
L 149.015883 155.278021 
L 152.4333 143.094184 
L 155.850718 131.040199 
L 159.268136 119.196813 
L 162.685553 107.692267 
L 166.102971 96.725598 
L 169.520388 86.612476 
L 172.937806 77.857612 
L 176.355224 70.815829 
L 179.772625 66.281464 
L 183.190043 63.153218 
L 186.607461 60.216933 
L 190.024878 57.843105 
L 193.442296 56.220425 
L 196.859713 54.858223 
L 200.277131 53.62251 
L 203.694549 52.552374 
L 207.111966 52.181031 
L 210.529384 53.143504 
L 213.946801 54.709288 
L 217.364219 56.719299 
L 220.781637 59.003724 
L 224.199038 61.437729 
L 227.616456 65.175258 
L 231.033874 69.725915 
L 234.451291 74.875738 
L 237.868709 82.105222 
L 241.286126 95.791412 
L 244.703544 118.132045 
L 248.120962 154.97738 
L 251.538379 211.750328 
L 254.955797 232.668559 
L 258.373214 250.231122 
L 261.790632 280.174126 
L 265.208034 268.440081 
L 268.625451 256.338308 
L 272.042869 244.332321 
L 275.460287 232.452868 
L 278.877704 233.348039 
L 282.295122 223.553474 
L 285.712539 211.994005 
L 289.129957 200.687483 
L 292.547375 201.39255 
L 295.964792 190.806686 
L 299.38221 179.907377 
L 302.799627 169.432891 
L 306.217045 159.484167 
L 309.634447 150.169362 
L 313.051864 141.59115 
L 316.469282 133.827284 
L 319.8867 126.89983 
L 323.304117 120.745496 
L 326.721535 115.235169 
L 330.138952 110.240332 
L 333.55637 105.67623 
L 336.973788 101.498734 
L 340.391205 99.676575 
L 343.808623 98.493771 
L 347.22604 98.010524 
L 350.643442 97.753078 
L 354.06086 98.158018 
L 357.478277 99.776394 
L 360.895695 104.535158 
L 364.313113 116.888 
L 367.73053 134.451898 
L 371.147948 154.099269 
L 374.565365 173.987044 
L 377.982783 197.373852 
L 381.400201 240.108163 
L 384.817618 349.434679 
L 388.235036 532.364228 
L 391.652438 799.786739 
L 395.069855 1546.004402 
L 398.487273 2618.41801 
L 398.487273 453.779517 
L 398.487273 453.779517 
L 395.069855 411.045207 
L 391.652438 368.310896 
L 388.235036 284.107685 
L 384.817618 195.264123 
L 381.400201 158.154698 
L 377.982783 139.560787 
L 374.565365 129.144662 
L 371.147948 118.834114 
L 367.73053 105.924509 
L 364.313113 94.097752 
L 360.895695 86.010939 
L 357.478277 81.856015 
L 354.06086 80.462472 
L 350.643442 80.021557 
L 347.22604 79.782398 
L 343.808623 80.088763 
L 340.391205 80.87363 
L 336.973788 81.441448 
L 333.55637 82.310656 
L 330.138952 83.4772 
L 326.721535 84.470732 
L 323.304117 85.41857 
L 319.8867 86.1757 
L 316.469282 86.966738 
L 313.051864 87.82612 
L 309.634447 88.738409 
L 306.217045 89.681989 
L 302.799627 90.659867 
L 299.38221 91.69054 
L 295.964792 92.780827 
L 292.547375 93.929994 
L 289.129957 95.131272 
L 285.712539 96.341514 
L 282.295122 97.49139 
L 278.877704 98.50612 
L 275.460287 99.311468 
L 272.042869 99.821894 
L 268.625451 99.946892 
L 265.208034 98.49451 
L 261.790632 96.353243 
L 258.373214 93.690384 
L 254.955797 90.787122 
L 251.538379 87.688814 
L 248.120962 84.437036 
L 244.703544 81.067284 
L 241.286126 77.608694 
L 237.868709 74.084489 
L 234.451291 70.512152 
L 231.033874 65.866046 
L 227.616456 62.155137 
L 224.199038 57.238 
L 220.781637 52.69046 
L 217.364219 49.145948 
L 213.946801 47.101386 
L 210.529384 46.129485 
L 207.111966 46.273811 
L 203.694549 47.36575 
L 200.277131 49.15994 
L 196.859713 51.383853 
L 193.442296 53.957169 
L 190.024878 56.647871 
L 186.607461 58.78629 
L 183.190043 60.45681 
L 179.772625 61.914391 
L 176.355224 63.378621 
L 172.937806 64.846798 
L 169.520388 66.317225 
L 166.102971 67.788984 
L 162.685553 69.26148 
L 159.268136 70.734389 
L 155.850718 72.207621 
L 152.4333 73.680945 
L 149.015883 75.154361 
L 145.598465 76.627869 
L 142.181048 78.102022 
L 138.76363 79.615466 
L 135.346228 81.540852 
L 131.928811 84.81989 
L 128.511393 87.612916 
L 125.093975 89.776079 
L 121.676558 92.509041 
L 118.25914 96.606249 
L 114.841723 104.935814 
L 111.424305 121.632392 
L 108.006887 142.303375 
L 104.58947 163.990691 
L 101.172052 181.884492 
L 97.754635 200.562975 
L 94.337233 224.371767 
L 90.919815 248.501018 
L 87.502398 272.198522 
L 84.08498 293.532396 
L 80.667562 319.915877 
L 77.250145 347.233837 
L 73.832727 373.75242 
z
" clip-path="url(#pb673e91e25)" style="fill: #1f77b4; fill-opacity: 0.5"/>
   </g>
   <g id="matplotlib.axis_1">
    <g id="xtick_1">
     <g id="line2d_1">
      <defs>
       <path id="m8d3854a653" d="M 0 0 
L 0 3.5 
" style="stroke: #000000; stroke-width: 0.8"/>
      </defs>
      <g>
       <use xlink:href="#m8d3854a653" x="70.672487" y="307.584" style="stroke: #000000; stroke-width: 0.8"/>
      </g>
     </g>
     <g id="text_1">
      <!-- 7.5 -->
      <g transform="translate(62.720925 322.182437)scale(0.1 -0.1)">
       <defs>
        <path id="DejaVuSans-37" d="M 525 4666 
L 3525 4666 
L 3525 4397 
L 1831 0 
L 1172 0 
L 2766 4134 
L 525 4134 
L 525 4666 
z
" transform="scale(0.015625)"/>
        <path id="DejaVuSans-2e" d="M 684 794 
L 1344 794 
L 1344 0 
L 684 0 
L 684 794 
z
" transform="scale(0.015625)"/>
        <path id="DejaVuSans-35" d="M 691 4666 
L 3169 4666 
L 3169 4134 
L 1269 4134 
L 1269 2991 
Q 1406 3038 1543 3061 
Q 1681 3084 1819 3084 
Q 2600 3084 3056 2656 
Q 3513 2228 3513 1497 
Q 3513 744 3044 326 
Q 2575 -91 1722 -91 
Q 1428 -91 1123 -41 
Q 819 9 494 109 
L 494 744 
Q 775 591 1075 516 
Q 1375 441 1709 441 
Q 2250 441 2565 725 
Q 2881 1009 2881 1497 
Q 2881 1984 2565 2268 
Q 2250 2553 1709 2553 
Q 1456 2553 1204 2497 
Q 953 2441 691 2322 
L 691 4666 
z
" transform="scale(0.015625)"/>
       </defs>
       <use xlink:href="#DejaVuSans-37"/>
       <use xlink:href="#DejaVuSans-2e" x="63.623047"/>
       <use xlink:href="#DejaVuSans-35" x="95.410156"/>
      </g>
     </g>
    </g>
    <g id="xtick_2">
     <g id="line2d_2">
      <g>
       <use xlink:href="#m8d3854a653" x="110.379982" y="307.584" style="stroke: #000000; stroke-width: 0.8"/>
      </g>
     </g>
     <g id="text_2">
      <!-- 10.0 -->
      <g transform="translate(99.24717 322.182437)scale(0.1 -0.1)">
       <defs>
        <path id="DejaVuSans-31" d="M 794 531 
L 1825 531 
L 1825 4091 
L 703 3866 
L 703 4441 
L 1819 4666 
L 2450 4666 
L 2450 531 
L 3481 531 
L 3481 0 
L 794 0 
L 794 531 
z
" transform="scale(0.015625)"/>
        <path id="DejaVuSans-30" d="M 2034 4250 
Q 1547 4250 1301 3770 
Q 1056 3291 1056 2328 
Q 1056 1369 1301 889 
Q 1547 409 2034 409 
Q 2525 409 2770 889 
Q 3016 1369 3016 2328 
Q 3016 3291 2770 3770 
Q 2525 4250 2034 4250 
z
M 2034 4750 
Q 2819 4750 3233 4129 
Q 3647 3509 3647 2328 
Q 3647 1150 3233 529 
Q 2819 -91 2034 -91 
Q 1250 -91 836 529 
Q 422 1150 422 2328 
Q 422 3509 836 4129 
Q 1250 4750 2034 4750 
z
" transform="scale(0.015625)"/>
       </defs>
       <use xlink:href="#DejaVuSans-31"/>
       <use xlink:href="#DejaVuSans-30" x="63.623047"/>
       <use xlink:href="#DejaVuSans-2e" x="127.246094"/>
       <use xlink:href="#DejaVuSans-30" x="159.033203"/>
      </g>
     </g>
    </g>
    <g id="xtick_3">
     <g id="line2d_3">
      <g>
       <use xlink:href="#m8d3854a653" x="150.087477" y="307.584" style="stroke: #000000; stroke-width: 0.8"/>
      </g>
     </g>
     <g id="text_3">
      <!-- 12.5 -->
      <g transform="translate(138.954664 322.182437)scale(0.1 -0.1)">
       <defs>
        <path id="DejaVuSans-32" d="M 1228 531 
L 3431 531 
L 3431 0 
L 469 0 
L 469 531 
Q 828 903 1448 1529 
Q 2069 2156 2228 2338 
Q 2531 2678 2651 2914 
Q 2772 3150 2772 3378 
Q 2772 3750 2511 3984 
Q 2250 4219 1831 4219 
Q 1534 4219 1204 4116 
Q 875 4013 500 3803 
L 500 4441 
Q 881 4594 1212 4672 
Q 1544 4750 1819 4750 
Q 2544 4750 2975 4387 
Q 3406 4025 3406 3419 
Q 3406 3131 3298 2873 
Q 3191 2616 2906 2266 
Q 2828 2175 2409 1742 
Q 1991 1309 1228 531 
z
" transform="scale(0.015625)"/>
       </defs>
       <use xlink:href="#DejaVuSans-31"/>
       <use xlink:href="#DejaVuSans-32" x="63.623047"/>
       <use xlink:href="#DejaVuSans-2e" x="127.246094"/>
       <use xlink:href="#DejaVuSans-35" x="159.033203"/>
      </g>
     </g>
    </g>
    <g id="xtick_4">
     <g id="line2d_4">
      <g>
       <use xlink:href="#m8d3854a653" x="189.794972" y="307.584" style="stroke: #000000; stroke-width: 0.8"/>
      </g>
     </g>
     <g id="text_4">
      <!-- 15.0 -->
      <g transform="translate(178.662159 322.182437)scale(0.1 -0.1)">
       <use xlink:href="#DejaVuSans-31"/>
       <use xlink:href="#DejaVuSans-35" x="63.623047"/>
       <use xlink:href="#DejaVuSans-2e" x="127.246094"/>
       <use xlink:href="#DejaVuSans-30" x="159.033203"/>
      </g>
     </g>
    </g>
    <g id="xtick_5">
     <g id="line2d_5">
      <g>
       <use xlink:href="#m8d3854a653" x="229.502467" y="307.584" style="stroke: #000000; stroke-width: 0.8"/>
      </g>
     </g>
     <g id="text_5">
      <!-- 17.5 -->
      <g transform="translate(218.369654 322.182437)scale(0.1 -0.1)">
       <use xlink:href="#DejaVuSans-31"/>
       <use xlink:href="#DejaVuSans-37" x="63.623047"/>
       <use xlink:href="#DejaVuSans-2e" x="127.246094"/>
       <use xlink:href="#DejaVuSans-35" x="159.033203"/>
      </g>
     </g>
    </g>
    <g id="xtick_6">
     <g id="line2d_6">
      <g>
       <use xlink:href="#m8d3854a653" x="269.209962" y="307.584" style="stroke: #000000; stroke-width: 0.8"/>
      </g>
     </g>
     <g id="text_6">
      <!-- 20.0 -->
      <g transform="translate(258.077149 322.182437)scale(0.1 -0.1)">
       <use xlink:href="#DejaVuSans-32"/>
       <use xlink:href="#DejaVuSans-30" x="63.623047"/>
       <use xlink:href="#DejaVuSans-2e" x="127.246094"/>
       <use xlink:href="#DejaVuSans-30" x="159.033203"/>
      </g>
     </g>
    </g>
    <g id="xtick_7">
     <g id="line2d_7">
      <g>
       <use xlink:href="#m8d3854a653" x="308.917456" y="307.584" style="stroke: #000000; stroke-width: 0.8"/>
      </g>
     </g>
     <g id="text_7">
      <!-- 22.5 -->
      <g transform="translate(297.784644 322.182437)scale(0.1 -0.1)">
       <use xlink:href="#DejaVuSans-32"/>
       <use xlink:href="#DejaVuSans-32" x="63.623047"/>
       <use xlink:href="#DejaVuSans-2e" x="127.246094"/>
       <use xlink:href="#DejaVuSans-35" x="159.033203"/>
      </g>
     </g>
    </g>
    <g id="xtick_8">
     <g id="line2d_8">
      <g>
       <use xlink:href="#m8d3854a653" x="348.624951" y="307.584" style="stroke: #000000; stroke-width: 0.8"/>
      </g>
     </g>
     <g id="text_8">
      <!-- 25.0 -->
      <g transform="translate(337.492139 322.182437)scale(0.1 -0.1)">
       <use xlink:href="#DejaVuSans-32"/>
       <use xlink:href="#DejaVuSans-35" x="63.623047"/>
       <use xlink:href="#DejaVuSans-2e" x="127.246094"/>
       <use xlink:href="#DejaVuSans-30" x="159.033203"/>
      </g>
     </g>
    </g>
    <g id="xtick_9">
     <g id="line2d_9">
      <g>
       <use xlink:href="#m8d3854a653" x="388.332446" y="307.584" style="stroke: #000000; stroke-width: 0.8"/>
      </g>
     </g>
     <g id="text_9">
      <!-- 27.5 -->
      <g transform="translate(377.199634 322.182437)scale(0.1 -0.1)">
       <use xlink:href="#DejaVuSans-32"/>
       <use xlink:href="#DejaVuSans-37" x="63.623047"/>
       <use xlink:href="#DejaVuSans-2e" x="127.246094"/>
       <use xlink:href="#DejaVuSans-35" x="159.033203"/>
      </g>
     </g>
    </g>
    <g id="text_10">
     <!-- log $\nu$ -->
     <g transform="translate(224.11 335.862125)scale(0.1 -0.1)">
      <defs>
       <path id="DejaVuSans-6c" d="M 603 4863 
L 1178 4863 
L 1178 0 
L 603 0 
L 603 4863 
z
" transform="scale(0.015625)"/>
       <path id="DejaVuSans-6f" d="M 1959 3097 
Q 1497 3097 1228 2736 
Q 959 2375 959 1747 
Q 959 1119 1226 758 
Q 1494 397 1959 397 
Q 2419 397 2687 759 
Q 2956 1122 2956 1747 
Q 2956 2369 2687 2733 
Q 2419 3097 1959 3097 
z
M 1959 3584 
Q 2709 3584 3137 3096 
Q 3566 2609 3566 1747 
Q 3566 888 3137 398 
Q 2709 -91 1959 -91 
Q 1206 -91 779 398 
Q 353 888 353 1747 
Q 353 2609 779 3096 
Q 1206 3584 1959 3584 
z
" transform="scale(0.015625)"/>
       <path id="DejaVuSans-67" d="M 2906 1791 
Q 2906 2416 2648 2759 
Q 2391 3103 1925 3103 
Q 1463 3103 1205 2759 
Q 947 2416 947 1791 
Q 947 1169 1205 825 
Q 1463 481 1925 481 
Q 2391 481 2648 825 
Q 2906 1169 2906 1791 
z
M 3481 434 
Q 3481 -459 3084 -895 
Q 2688 -1331 1869 -1331 
Q 1566 -1331 1297 -1286 
Q 1028 -1241 775 -1147 
L 775 -588 
Q 1028 -725 1275 -790 
Q 1522 -856 1778 -856 
Q 2344 -856 2625 -561 
Q 2906 -266 2906 331 
L 2906 616 
Q 2728 306 2450 153 
Q 2172 0 1784 0 
Q 1141 0 747 490 
Q 353 981 353 1791 
Q 353 2603 747 3093 
Q 1141 3584 1784 3584 
Q 2172 3584 2450 3431 
Q 2728 3278 2906 2969 
L 2906 3500 
L 3481 3500 
L 3481 434 
z
" transform="scale(0.015625)"/>
       <path id="DejaVuSans-20" transform="scale(0.015625)"/>
       <path id="DejaVuSans-Oblique-3bd" d="M 959 0 
L 572 3500 
L 1191 3500 
L 1522 563 
Q 1972 950 2391 1488 
Q 2706 1891 2788 2241 
Q 2825 2406 2809 2719 
Q 2794 3091 2544 3500 
L 3125 3500 
L 3125 3500 
Q 3288 3222 3353 2834 
Q 3416 2478 3369 2234 
Q 3250 1622 2719 1075 
Q 2025 363 1572 0 
L 959 0 
z
" transform="scale(0.015625)"/>
      </defs>
      <use xlink:href="#DejaVuSans-6c" transform="translate(0 0.015625)"/>
      <use xlink:href="#DejaVuSans-6f" transform="translate(27.783203 0.015625)"/>
      <use xlink:href="#DejaVuSans-67" transform="translate(88.964844 0.015625)"/>
      <use xlink:href="#DejaVuSans-20" transform="translate(152.441406 0.015625)"/>
      <use xlink:href="#DejaVuSans-Oblique-3bd" transform="translate(184.228516 0.015625)"/>
     </g>
    </g>
   </g>
   <g id="matplotlib.axis_2">
    <g id="ytick_1">
     <g id="line2d_10">
      <defs>
       <path id="m61a00a6bb2" d="M 0 0 
L -3.5 0 
" style="stroke: #000000; stroke-width: 0.8"/>
      </defs>
      <g>
       <use xlink:href="#m61a00a6bb2" x="57.6" y="286.867593" style="stroke: #000000; stroke-width: 0.8"/>
      </g>
     </g>
     <g id="text_11">
      <!-- −16 -->
      <g transform="translate(29.495313 290.666812)scale(0.1 -0.1)">
       <defs>
        <path id="DejaVuSans-2212" d="M 678 2272 
L 4684 2272 
L 4684 1741 
L 678 1741 
L 678 2272 
z
" transform="scale(0.015625)"/>
        <path id="DejaVuSans-36" d="M 2113 2584 
Q 1688 2584 1439 2293 
Q 1191 2003 1191 1497 
Q 1191 994 1439 701 
Q 1688 409 2113 409 
Q 2538 409 2786 701 
Q 3034 994 3034 1497 
Q 3034 2003 2786 2293 
Q 2538 2584 2113 2584 
z
M 3366 4563 
L 3366 3988 
Q 3128 4100 2886 4159 
Q 2644 4219 2406 4219 
Q 1781 4219 1451 3797 
Q 1122 3375 1075 2522 
Q 1259 2794 1537 2939 
Q 1816 3084 2150 3084 
Q 2853 3084 3261 2657 
Q 3669 2231 3669 1497 
Q 3669 778 3244 343 
Q 2819 -91 2113 -91 
Q 1303 -91 875 529 
Q 447 1150 447 2328 
Q 447 3434 972 4092 
Q 1497 4750 2381 4750 
Q 2619 4750 2861 4703 
Q 3103 4656 3366 4563 
z
" transform="scale(0.015625)"/>
       </defs>
       <use xlink:href="#DejaVuSans-2212"/>
       <use xlink:href="#DejaVuSans-31" x="83.789062"/>
       <use xlink:href="#DejaVuSans-36" x="147.412109"/>
      </g>
     </g>
    </g>
    <g id="ytick_2">
     <g id="line2d_11">
      <g>
       <use xlink:href="#m61a00a6bb2" x="57.6" y="240.804635" style="stroke: #000000; stroke-width: 0.8"/>
      </g>
     </g>
     <g id="text_12">
      <!-- −15 -->
      <g transform="translate(29.495313 244.603854)scale(0.1 -0.1)">
       <use xlink:href="#DejaVuSans-2212"/>
       <use xlink:href="#DejaVuSans-31" x="83.789062"/>
       <use xlink:href="#DejaVuSans-35" x="147.412109"/>
      </g>
     </g>
    </g>
    <g id="ytick_3">
     <g id="line2d_12">
      <g>
       <use xlink:href="#m61a00a6bb2" x="57.6" y="194.741677" style="stroke: #000000; stroke-width: 0.8"/>
      </g>
     </g>
     <g id="text_13">
      <!-- −14 -->
      <g transform="translate(29.495313 198.540896)scale(0.1 -0.1)">
       <defs>
        <path id="DejaVuSans-34" d="M 2419 4116 
L 825 1625 
L 2419 1625 
L 2419 4116 
z
M 2253 4666 
L 3047 4666 
L 3047 1625 
L 3713 1625 
L 3713 1100 
L 3047 1100 
L 3047 0 
L 2419 0 
L 2419 1100 
L 313 1100 
L 313 1709 
L 2253 4666 
z
" transform="scale(0.015625)"/>
       </defs>
       <use xlink:href="#DejaVuSans-2212"/>
       <use xlink:href="#DejaVuSans-31" x="83.789062"/>
       <use xlink:href="#DejaVuSans-34" x="147.412109"/>
      </g>
     </g>
    </g>
    <g id="ytick_4">
     <g id="line2d_13">
      <g>
       <use xlink:href="#m61a00a6bb2" x="57.6" y="148.678719" style="stroke: #000000; stroke-width: 0.8"/>
      </g>
     </g>
     <g id="text_14">
      <!-- −13 -->
      <g transform="translate(29.495313 152.477938)scale(0.1 -0.1)">
       <defs>
        <path id="DejaVuSans-33" d="M 2597 2516 
Q 3050 2419 3304 2112 
Q 3559 1806 3559 1356 
Q 3559 666 3084 287 
Q 2609 -91 1734 -91 
Q 1441 -91 1130 -33 
Q 819 25 488 141 
L 488 750 
Q 750 597 1062 519 
Q 1375 441 1716 441 
Q 2309 441 2620 675 
Q 2931 909 2931 1356 
Q 2931 1769 2642 2001 
Q 2353 2234 1838 2234 
L 1294 2234 
L 1294 2753 
L 1863 2753 
Q 2328 2753 2575 2939 
Q 2822 3125 2822 3475 
Q 2822 3834 2567 4026 
Q 2313 4219 1838 4219 
Q 1578 4219 1281 4162 
Q 984 4106 628 3988 
L 628 4550 
Q 988 4650 1302 4700 
Q 1616 4750 1894 4750 
Q 2613 4750 3031 4423 
Q 3450 4097 3450 3541 
Q 3450 3153 3228 2886 
Q 3006 2619 2597 2516 
z
" transform="scale(0.015625)"/>
       </defs>
       <use xlink:href="#DejaVuSans-2212"/>
       <use xlink:href="#DejaVuSans-31" x="83.789062"/>
       <use xlink:href="#DejaVuSans-33" x="147.412109"/>
      </g>
     </g>
    </g>
    <g id="ytick_5">
     <g id="line2d_14">
      <g>
       <use xlink:href="#m61a00a6bb2" x="57.6" y="102.615761" style="stroke: #000000; stroke-width: 0.8"/>
      </g>
     </g>
     <g id="text_15">
      <!-- −12 -->
      <g transform="translate(29.495313 106.414979)scale(0.1 -0.1)">
       <use xlink:href="#DejaVuSans-2212"/>
       <use xlink:href="#DejaVuSans-31" x="83.789062"/>
       <use xlink:href="#DejaVuSans-32" x="147.412109"/>
      </g>
     </g>
    </g>
    <g id="ytick_6">
     <g id="line2d_15">
      <g>
       <use xlink:href="#m61a00a6bb2" x="57.6" y="56.552803" style="stroke: #000000; stroke-width: 0.8"/>
      </g>
     </g>
     <g id="text_16">
      <!-- −11 -->
      <g transform="translate(29.495313 60.352021)scale(0.1 -0.1)">
       <use xlink:href="#DejaVuSans-2212"/>
       <use xlink:href="#DejaVuSans-31" x="83.789062"/>
       <use xlink:href="#DejaVuSans-31" x="147.412109"/>
      </g>
     </g>
    </g>
    <g id="text_17">
     <!-- log $\nu F_{\nu}$ -->
     <g transform="translate(23.395312 191.528)rotate(-90)scale(0.1 -0.1)">
      <defs>
       <path id="DejaVuSans-Oblique-46" d="M 1081 4666 
L 3756 4666 
L 3653 4134 
L 1606 4134 
L 1338 2759 
L 3188 2759 
L 3084 2228 
L 1234 2228 
L 800 0 
L 172 0 
L 1081 4666 
z
" transform="scale(0.015625)"/>
      </defs>
      <use xlink:href="#DejaVuSans-6c" transform="translate(0 0.015625)"/>
      <use xlink:href="#DejaVuSans-6f" transform="translate(27.783203 0.015625)"/>
      <use xlink:href="#DejaVuSans-67" transform="translate(88.964844 0.015625)"/>
      <use xlink:href="#DejaVuSans-20" transform="translate(152.441406 0.015625)"/>
      <use xlink:href="#DejaVuSans-Oblique-3bd" transform="translate(184.228516 0.015625)"/>
      <use xlink:href="#DejaVuSans-Oblique-46" transform="translate(240.087891 0.015625)"/>
      <use xlink:href="#DejaVuSans-Oblique-3bd" transform="translate(297.607422 -16.390625)scale(0.7)"/>
     </g>
    </g>
   </g>
   <g id="line2d_16">
    <path d="M 90.492258 346.6 
L 93.709536 313.940034 
L 100.335139 246.684398 
L 106.960742 179.478118 
L 113.586345 122.690327 
L 120.211948 105.479512 
L 126.837551 100.203839 
L 133.463154 95.626818 
L 140.088757 91.079906 
L 146.71436 86.533633 
L 153.339963 81.987471 
L 159.965566 77.442896 
L 166.591169 72.902834 
L 173.216772 68.374607 
L 179.842375 63.877388 
L 186.467978 59.463152 
L 193.093581 55.268123 
L 199.719184 51.636408 
L 206.344787 49.378497 
L 212.97039 50.007976 
L 219.595993 54.690075 
L 226.221596 61.803706 
L 232.847199 69.995204 
L 239.472801 81.346363 
L 246.098404 102.386385 
L 252.724007 131.629423 
L 259.34961 134.453867 
L 265.975213 129.786009 
L 272.600816 125.194063 
L 279.226419 120.673293 
L 285.852022 116.269936 
L 292.477625 112.107606 
L 299.103228 108.30822 
L 305.728831 104.792472 
L 312.354434 101.506265 
L 318.980037 98.431486 
L 325.60564 95.594041 
L 332.231243 93.010218 
L 338.856846 90.736799 
L 345.482449 88.935866 
L 352.108052 88.022081 
L 358.733655 90.350754 
L 365.359258 103.59102 
L 371.984861 126.583672 
L 378.610464 150.026908 
L 385.236067 216.155646 
L 387.419431 346.6 
" clip-path="url(#pb673e91e25)" style="fill: none; stroke: #008000; stroke-width: 2; stroke-linecap: square"/>
   </g>
   <g id="LineCollection_1">
    <path d="M 183.046745 60.844962 
L 183.046745 58.904288 
" clip-path="url(#pb673e91e25)" style="fill: none; stroke: #000000; stroke-width: 1.5"/>
    <path d="M 184.557871 63.860255 
L 184.557871 54.646133 
" clip-path="url(#pb673e91e25)" style="fill: none; stroke: #000000; stroke-width: 1.5"/>
    <path d="M 185.613851 56.727607 
L 185.613851 55.601544 
" clip-path="url(#pb673e91e25)" style="fill: none; stroke: #000000; stroke-width: 1.5"/>
    <path d="M 187.153195 59.959914 
L 187.153195 59.051077 
" clip-path="url(#pb673e91e25)" style="fill: none; stroke: #000000; stroke-width: 1.5"/>
    <path d="M 187.18468 62.38803 
L 187.18468 50.504838 
" clip-path="url(#pb673e91e25)" style="fill: none; stroke: #000000; stroke-width: 1.5"/>
    <path d="M 188.731738 62.747417 
L 188.731738 61.773583 
" clip-path="url(#pb673e91e25)" style="fill: none; stroke: #000000; stroke-width: 1.5"/>
    <path d="M 189.568862 57.381949 
L 189.568862 56.421204 
" clip-path="url(#pb673e91e25)" style="fill: none; stroke: #000000; stroke-width: 1.5"/>
    <path d="M 191.334214 52.301216 
L 191.334214 50.35459 
" clip-path="url(#pb673e91e25)" style="fill: none; stroke: #000000; stroke-width: 1.5"/>
    <path d="M 191.934454 55.039155 
L 191.934454 54.260684 
" clip-path="url(#pb673e91e25)" style="fill: none; stroke: #000000; stroke-width: 1.5"/>
    <path d="M 221.244125 59.780454 
L 221.244125 55.031737 
" clip-path="url(#pb673e91e25)" style="fill: none; stroke: #000000; stroke-width: 1.5"/>
    <path d="M 223.140654 56.794313 
L 223.140654 51.739817 
" clip-path="url(#pb673e91e25)" style="fill: none; stroke: #000000; stroke-width: 1.5"/>
    <path d="M 224.409335 64.028145 
L 224.409335 59.761657 
" clip-path="url(#pb673e91e25)" style="fill: none; stroke: #000000; stroke-width: 1.5"/>
    <path d="M 225.666971 63.210808 
L 225.666971 59.26757 
" clip-path="url(#pb673e91e25)" style="fill: none; stroke: #000000; stroke-width: 1.5"/>
    <path d="M 226.570791 63.466366 
L 226.570791 59.196667 
" clip-path="url(#pb673e91e25)" style="fill: none; stroke: #000000; stroke-width: 1.5"/>
    <path d="M 227.333766 68.345847 
L 227.333766 64.168162 
" clip-path="url(#pb673e91e25)" style="fill: none; stroke: #000000; stroke-width: 1.5"/>
    <path d="M 228.085766 65.328147 
L 228.085766 61.392869 
" clip-path="url(#pb673e91e25)" style="fill: none; stroke: #000000; stroke-width: 1.5"/>
    <path d="M 228.822241 66.268083 
L 228.822241 62.503518 
" clip-path="url(#pb673e91e25)" style="fill: none; stroke: #000000; stroke-width: 1.5"/>
    <path d="M 229.513992 65.455736 
L 229.513992 61.492491 
" clip-path="url(#pb673e91e25)" style="fill: none; stroke: #000000; stroke-width: 1.5"/>
    <path d="M 230.166644 69.866696 
L 230.166644 65.606149 
" clip-path="url(#pb673e91e25)" style="fill: none; stroke: #000000; stroke-width: 1.5"/>
    <path d="M 230.828437 69.696177 
L 230.828437 65.306445 
" clip-path="url(#pb673e91e25)" style="fill: none; stroke: #000000; stroke-width: 1.5"/>
    <path d="M 231.55085 70.355221 
L 231.55085 66.038567 
" clip-path="url(#pb673e91e25)" style="fill: none; stroke: #000000; stroke-width: 1.5"/>
    <path d="M 232.535332 74.026487 
L 232.535332 69.615302 
" clip-path="url(#pb673e91e25)" style="fill: none; stroke: #000000; stroke-width: 1.5"/>
    <path d="M 233.747511 71.135999 
L 233.747511 66.520008 
" clip-path="url(#pb673e91e25)" style="fill: none; stroke: #000000; stroke-width: 1.5"/>
    <path d="M 235.320853 76.698452 
L 235.320853 71.970098 
" clip-path="url(#pb673e91e25)" style="fill: none; stroke: #000000; stroke-width: 1.5"/>
    <path d="M 237.680593 80.638144 
L 237.680593 75.8042 
" clip-path="url(#pb673e91e25)" style="fill: none; stroke: #000000; stroke-width: 1.5"/>
    <path d="M 239.800643 87.480235 
L 239.800643 77.617349 
" clip-path="url(#pb673e91e25)" style="fill: none; stroke: #000000; stroke-width: 1.5"/>
    <path d="M 333.913573 96.449859 
L 333.913573 84.454218 
" clip-path="url(#pb673e91e25)" style="fill: none; stroke: #000000; stroke-width: 1.5"/>
    <path d="M 341.222922 110.74706 
L 341.222922 86.897392 
" clip-path="url(#pb673e91e25)" style="fill: none; stroke: #000000; stroke-width: 1.5"/>
    <path d="M 348.532487 105.632956 
L 348.532487 76.551136 
" clip-path="url(#pb673e91e25)" style="fill: none; stroke: #000000; stroke-width: 1.5"/>
    <path d="M 362.206379 99.907006 
L 362.206379 88.799503 
" clip-path="url(#pb673e91e25)" style="fill: none; stroke: #000000; stroke-width: 1.5"/>
    <path d="M 367.078819 125.980718 
L 367.078819 108.666386 
" clip-path="url(#pb673e91e25)" style="fill: none; stroke: #000000; stroke-width: 1.5"/>
    <path d="M 371.95148 162.148901 
L 371.95148 121.29924 
" clip-path="url(#pb673e91e25)" style="fill: none; stroke: #000000; stroke-width: 1.5"/>
    <path d="M 376.823734 129.952275 
L 376.823734 112.668754 
" clip-path="url(#pb673e91e25)" style="fill: none; stroke: #000000; stroke-width: 1.5"/>
   </g>
   <g id="line2d_17">
    <defs>
     <path id="m868d1f6e91" d="M 0 1.5 
C 0.397805 1.5 0.77937 1.341951 1.06066 1.06066 
C 1.341951 0.77937 1.5 0.397805 1.5 0 
C 1.5 -0.397805 1.341951 -0.77937 1.06066 -1.06066 
C 0.77937 -1.341951 0.397805 -1.5 0 -1.5 
C -0.397805 -1.5 -0.77937 -1.341951 -1.06066 -1.06066 
C -1.341951 -0.77937 -1.5 -0.397805 -1.5 0 
C -1.5 0.397805 -1.341951 0.77937 -1.06066 1.06066 
C -0.77937 1.341951 -0.397805 1.5 0 1.5 
z
" style="stroke: #0000ff"/>
    </defs>
    <g clip-path="url(#pb673e91e25)">
     <use xlink:href="#m868d1f6e91" x="183.046745" y="59.851101" style="fill: #0000ff; stroke: #0000ff"/>
     <use xlink:href="#m868d1f6e91" x="184.557871" y="58.727322" style="fill: #0000ff; stroke: #0000ff"/>
     <use xlink:href="#m868d1f6e91" x="185.613851" y="56.156653" style="fill: #0000ff; stroke: #0000ff"/>
     <use xlink:href="#m868d1f6e91" x="187.153195" y="59.500335" style="fill: #0000ff; stroke: #0000ff"/>
     <use xlink:href="#m868d1f6e91" x="187.18468" y="55.576761" style="fill: #0000ff; stroke: #0000ff"/>
     <use xlink:href="#m868d1f6e91" x="188.731738" y="62.254575" style="fill: #0000ff; stroke: #0000ff"/>
     <use xlink:href="#m868d1f6e91" x="189.568862" y="56.89581" style="fill: #0000ff; stroke: #0000ff"/>
     <use xlink:href="#m868d1f6e91" x="191.334214" y="51.304235" style="fill: #0000ff; stroke: #0000ff"/>
     <use xlink:href="#m868d1f6e91" x="191.934454" y="54.646133" style="fill: #0000ff; stroke: #0000ff"/>
     <use xlink:href="#m868d1f6e91" x="221.244125" y="57.26552" style="fill: #0000ff; stroke: #0000ff"/>
     <use xlink:href="#m868d1f6e91" x="223.140654" y="54.107852" style="fill: #0000ff; stroke: #0000ff"/>
     <use xlink:href="#m868d1f6e91" x="224.409335" y="61.781376" style="fill: #0000ff; stroke: #0000ff"/>
     <use xlink:href="#m868d1f6e91" x="225.666971" y="61.142187" style="fill: #0000ff; stroke: #0000ff"/>
     <use xlink:href="#m868d1f6e91" x="226.570791" y="61.21782" style="fill: #0000ff; stroke: #0000ff"/>
     <use xlink:href="#m868d1f6e91" x="227.333766" y="66.148147" style="fill: #0000ff; stroke: #0000ff"/>
     <use xlink:href="#m868d1f6e91" x="228.085766" y="63.263897" style="fill: #0000ff; stroke: #0000ff"/>
     <use xlink:href="#m868d1f6e91" x="228.822241" y="64.297378" style="fill: #0000ff; stroke: #0000ff"/>
     <use xlink:href="#m868d1f6e91" x="229.513992" y="63.376127" style="fill: #0000ff; stroke: #0000ff"/>
     <use xlink:href="#m868d1f6e91" x="230.166644" y="67.623213" style="fill: #0000ff; stroke: #0000ff"/>
     <use xlink:href="#m868d1f6e91" x="230.828437" y="67.381145" style="fill: #0000ff; stroke: #0000ff"/>
     <use xlink:href="#m868d1f6e91" x="231.55085" y="68.080688" style="fill: #0000ff; stroke: #0000ff"/>
     <use xlink:href="#m868d1f6e91" x="232.535332" y="71.699554" style="fill: #0000ff; stroke: #0000ff"/>
     <use xlink:href="#m868d1f6e91" x="233.747511" y="68.695159" style="fill: #0000ff; stroke: #0000ff"/>
     <use xlink:href="#m868d1f6e91" x="235.320853" y="74.1949" style="fill: #0000ff; stroke: #0000ff"/>
     <use xlink:href="#m868d1f6e91" x="237.680593" y="78.075518" style="fill: #0000ff; stroke: #0000ff"/>
     <use xlink:href="#m868d1f6e91" x="239.800643" y="81.94702" style="fill: #0000ff; stroke: #0000ff"/>
     <use xlink:href="#m868d1f6e91" x="333.913573" y="89.566068" style="fill: #0000ff; stroke: #0000ff"/>
     <use xlink:href="#m868d1f6e91" x="341.222922" y="95.460523" style="fill: #0000ff; stroke: #0000ff"/>
     <use xlink:href="#m868d1f6e91" x="348.532487" y="86.216157" style="fill: #0000ff; stroke: #0000ff"/>
     <use xlink:href="#m868d1f6e91" x="362.206379" y="93.592043" style="fill: #0000ff; stroke: #0000ff"/>
     <use xlink:href="#m868d1f6e91" x="367.078819" y="115.506051" style="fill: #0000ff; stroke: #0000ff"/>
     <use xlink:href="#m868d1f6e91" x="371.95148" y="132.724676" style="fill: #0000ff; stroke: #0000ff"/>
     <use xlink:href="#m868d1f6e91" x="376.823734" y="119.499288" style="fill: #0000ff; stroke: #0000ff"/>
    </g>
   </g>
   <g id="patch_3">
    <path d="M 57.6 307.584 
L 57.6 41.472 
" style="fill: none; stroke: #000000; stroke-width: 0.8; stroke-linejoin: miter; stroke-linecap: square"/>
   </g>
   <g id="patch_4">
    <path d="M 414.72 307.584 
L 414.72 41.472 
" style="fill: none; stroke: #000000; stroke-width: 0.8; stroke-linejoin: miter; stroke-linecap: square"/>
   </g>
   <g id="patch_5">
    <path d="M 57.6 307.584 
L 414.72 307.584 
" style="fill: none; stroke: #000000; stroke-width: 0.8; stroke-linejoin: miter; stroke-linecap: square"/>
   </g>
   <g id="patch_6">
    <path d="M 57.6 41.472 
L 414.72 41.472 
" style="fill: none; stroke: #000000; stroke-width: 0.8; stroke-linejoin: miter; stroke-linecap: square"/>
   </g>
   <g id="text_18">
    <!-- MCMC results with random models within 1 sigma -->
    <g transform="translate(86.03625 35.472)scale(0.12 -0.12)">
     <defs>
      <path id="DejaVuSans-4d" d="M 628 4666 
L 1569 4666 
L 2759 1491 
L 3956 4666 
L 4897 4666 
L 4897 0 
L 4281 0 
L 4281 4097 
L 3078 897 
L 2444 897 
L 1241 4097 
L 1241 0 
L 628 0 
L 628 4666 
z
" transform="scale(0.015625)"/>
      <path id="DejaVuSans-43" d="M 4122 4306 
L 4122 3641 
Q 3803 3938 3442 4084 
Q 3081 4231 2675 4231 
Q 1875 4231 1450 3742 
Q 1025 3253 1025 2328 
Q 1025 1406 1450 917 
Q 1875 428 2675 428 
Q 3081 428 3442 575 
Q 3803 722 4122 1019 
L 4122 359 
Q 3791 134 3420 21 
Q 3050 -91 2638 -91 
Q 1578 -91 968 557 
Q 359 1206 359 2328 
Q 359 3453 968 4101 
Q 1578 4750 2638 4750 
Q 3056 4750 3426 4639 
Q 3797 4528 4122 4306 
z
" transform="scale(0.015625)"/>
      <path id="DejaVuSans-72" d="M 2631 2963 
Q 2534 3019 2420 3045 
Q 2306 3072 2169 3072 
Q 1681 3072 1420 2755 
Q 1159 2438 1159 1844 
L 1159 0 
L 581 0 
L 581 3500 
L 1159 3500 
L 1159 2956 
Q 1341 3275 1631 3429 
Q 1922 3584 2338 3584 
Q 2397 3584 2469 3576 
Q 2541 3569 2628 3553 
L 2631 2963 
z
" transform="scale(0.015625)"/>
      <path id="DejaVuSans-65" d="M 3597 1894 
L 3597 1613 
L 953 1613 
Q 991 1019 1311 708 
Q 1631 397 2203 397 
Q 2534 397 2845 478 
Q 3156 559 3463 722 
L 3463 178 
Q 3153 47 2828 -22 
Q 2503 -91 2169 -91 
Q 1331 -91 842 396 
Q 353 884 353 1716 
Q 353 2575 817 3079 
Q 1281 3584 2069 3584 
Q 2775 3584 3186 3129 
Q 3597 2675 3597 1894 
z
M 3022 2063 
Q 3016 2534 2758 2815 
Q 2500 3097 2075 3097 
Q 1594 3097 1305 2825 
Q 1016 2553 972 2059 
L 3022 2063 
z
" transform="scale(0.015625)"/>
      <path id="DejaVuSans-73" d="M 2834 3397 
L 2834 2853 
Q 2591 2978 2328 3040 
Q 2066 3103 1784 3103 
Q 1356 3103 1142 2972 
Q 928 2841 928 2578 
Q 928 2378 1081 2264 
Q 1234 2150 1697 2047 
L 1894 2003 
Q 2506 1872 2764 1633 
Q 3022 1394 3022 966 
Q 3022 478 2636 193 
Q 2250 -91 1575 -91 
Q 1294 -91 989 -36 
Q 684 19 347 128 
L 347 722 
Q 666 556 975 473 
Q 1284 391 1588 391 
Q 1994 391 2212 530 
Q 2431 669 2431 922 
Q 2431 1156 2273 1281 
Q 2116 1406 1581 1522 
L 1381 1569 
Q 847 1681 609 1914 
Q 372 2147 372 2553 
Q 372 3047 722 3315 
Q 1072 3584 1716 3584 
Q 2034 3584 2315 3537 
Q 2597 3491 2834 3397 
z
" transform="scale(0.015625)"/>
      <path id="DejaVuSans-75" d="M 544 1381 
L 544 3500 
L 1119 3500 
L 1119 1403 
Q 1119 906 1312 657 
Q 1506 409 1894 409 
Q 2359 409 2629 706 
Q 2900 1003 2900 1516 
L 2900 3500 
L 3475 3500 
L 3475 0 
L 2900 0 
L 2900 538 
Q 2691 219 2414 64 
Q 2138 -91 1772 -91 
Q 1169 -91 856 284 
Q 544 659 544 1381 
z
M 1991 3584 
L 1991 3584 
z
" transform="scale(0.015625)"/>
      <path id="DejaVuSans-74" d="M 1172 4494 
L 1172 3500 
L 2356 3500 
L 2356 3053 
L 1172 3053 
L 1172 1153 
Q 1172 725 1289 603 
Q 1406 481 1766 481 
L 2356 481 
L 2356 0 
L 1766 0 
Q 1100 0 847 248 
Q 594 497 594 1153 
L 594 3053 
L 172 3053 
L 172 3500 
L 594 3500 
L 594 4494 
L 1172 4494 
z
" transform="scale(0.015625)"/>
      <path id="DejaVuSans-77" d="M 269 3500 
L 844 3500 
L 1563 769 
L 2278 3500 
L 2956 3500 
L 3675 769 
L 4391 3500 
L 4966 3500 
L 4050 0 
L 3372 0 
L 2619 2869 
L 1863 0 
L 1184 0 
L 269 3500 
z
" transform="scale(0.015625)"/>
      <path id="DejaVuSans-69" d="M 603 3500 
L 1178 3500 
L 1178 0 
L 603 0 
L 603 3500 
z
M 603 4863 
L 1178 4863 
L 1178 4134 
L 603 4134 
L 603 4863 
z
" transform="scale(0.015625)"/>
      <path id="DejaVuSans-68" d="M 3513 2113 
L 3513 0 
L 2938 0 
L 2938 2094 
Q 2938 2591 2744 2837 
Q 2550 3084 2163 3084 
Q 1697 3084 1428 2787 
Q 1159 2491 1159 1978 
L 1159 0 
L 581 0 
L 581 4863 
L 1159 4863 
L 1159 2956 
Q 1366 3272 1645 3428 
Q 1925 3584 2291 3584 
Q 2894 3584 3203 3211 
Q 3513 2838 3513 2113 
z
" transform="scale(0.015625)"/>
      <path id="DejaVuSans-61" d="M 2194 1759 
Q 1497 1759 1228 1600 
Q 959 1441 959 1056 
Q 959 750 1161 570 
Q 1363 391 1709 391 
Q 2188 391 2477 730 
Q 2766 1069 2766 1631 
L 2766 1759 
L 2194 1759 
z
M 3341 1997 
L 3341 0 
L 2766 0 
L 2766 531 
Q 2569 213 2275 61 
Q 1981 -91 1556 -91 
Q 1019 -91 701 211 
Q 384 513 384 1019 
Q 384 1609 779 1909 
Q 1175 2209 1959 2209 
L 2766 2209 
L 2766 2266 
Q 2766 2663 2505 2880 
Q 2244 3097 1772 3097 
Q 1472 3097 1187 3025 
Q 903 2953 641 2809 
L 641 3341 
Q 956 3463 1253 3523 
Q 1550 3584 1831 3584 
Q 2591 3584 2966 3190 
Q 3341 2797 3341 1997 
z
" transform="scale(0.015625)"/>
      <path id="DejaVuSans-6e" d="M 3513 2113 
L 3513 0 
L 2938 0 
L 2938 2094 
Q 2938 2591 2744 2837 
Q 2550 3084 2163 3084 
Q 1697 3084 1428 2787 
Q 1159 2491 1159 1978 
L 1159 0 
L 581 0 
L 581 3500 
L 1159 3500 
L 1159 2956 
Q 1366 3272 1645 3428 
Q 1925 3584 2291 3584 
Q 2894 3584 3203 3211 
Q 3513 2838 3513 2113 
z
" transform="scale(0.015625)"/>
      <path id="DejaVuSans-64" d="M 2906 2969 
L 2906 4863 
L 3481 4863 
L 3481 0 
L 2906 0 
L 2906 525 
Q 2725 213 2448 61 
Q 2172 -91 1784 -91 
Q 1150 -91 751 415 
Q 353 922 353 1747 
Q 353 2572 751 3078 
Q 1150 3584 1784 3584 
Q 2172 3584 2448 3432 
Q 2725 3281 2906 2969 
z
M 947 1747 
Q 947 1113 1208 752 
Q 1469 391 1925 391 
Q 2381 391 2643 752 
Q 2906 1113 2906 1747 
Q 2906 2381 2643 2742 
Q 2381 3103 1925 3103 
Q 1469 3103 1208 2742 
Q 947 2381 947 1747 
z
" transform="scale(0.015625)"/>
      <path id="DejaVuSans-6d" d="M 3328 2828 
Q 3544 3216 3844 3400 
Q 4144 3584 4550 3584 
Q 5097 3584 5394 3201 
Q 5691 2819 5691 2113 
L 5691 0 
L 5113 0 
L 5113 2094 
Q 5113 2597 4934 2840 
Q 4756 3084 4391 3084 
Q 3944 3084 3684 2787 
Q 3425 2491 3425 1978 
L 3425 0 
L 2847 0 
L 2847 2094 
Q 2847 2600 2669 2842 
Q 2491 3084 2119 3084 
Q 1678 3084 1418 2786 
Q 1159 2488 1159 1978 
L 1159 0 
L 581 0 
L 581 3500 
L 1159 3500 
L 1159 2956 
Q 1356 3278 1631 3431 
Q 1906 3584 2284 3584 
Q 2666 3584 2933 3390 
Q 3200 3197 3328 2828 
z
" transform="scale(0.015625)"/>
     </defs>
     <use xlink:href="#DejaVuSans-4d"/>
     <use xlink:href="#DejaVuSans-43" x="86.279297"/>
     <use xlink:href="#DejaVuSans-4d" x="156.103516"/>
     <use xlink:href="#DejaVuSans-43" x="242.382812"/>
     <use xlink:href="#DejaVuSans-20" x="312.207031"/>
     <use xlink:href="#DejaVuSans-72" x="343.994141"/>
     <use xlink:href="#DejaVuSans-65" x="382.857422"/>
     <use xlink:href="#DejaVuSans-73" x="444.380859"/>
     <use xlink:href="#DejaVuSans-75" x="496.480469"/>
     <use xlink:href="#DejaVuSans-6c" x="559.859375"/>
     <use xlink:href="#DejaVuSans-74" x="587.642578"/>
     <use xlink:href="#DejaVuSans-73" x="626.851562"/>
     <use xlink:href="#DejaVuSans-20" x="678.951172"/>
     <use xlink:href="#DejaVuSans-77" x="710.738281"/>
     <use xlink:href="#DejaVuSans-69" x="792.525391"/>
     <use xlink:href="#DejaVuSans-74" x="820.308594"/>
     <use xlink:href="#DejaVuSans-68" x="859.517578"/>
     <use xlink:href="#DejaVuSans-20" x="922.896484"/>
     <use xlink:href="#DejaVuSans-72" x="954.683594"/>
     <use xlink:href="#DejaVuSans-61" x="995.796875"/>
     <use xlink:href="#DejaVuSans-6e" x="1057.076172"/>
     <use xlink:href="#DejaVuSans-64" x="1120.455078"/>
     <use xlink:href="#DejaVuSans-6f" x="1183.931641"/>
     <use xlink:href="#DejaVuSans-6d" x="1245.113281"/>
     <use xlink:href="#DejaVuSans-20" x="1342.525391"/>
     <use xlink:href="#DejaVuSans-6d" x="1374.3125"/>
     <use xlink:href="#DejaVuSans-6f" x="1471.724609"/>
     <use xlink:href="#DejaVuSans-64" x="1532.90625"/>
     <use xlink:href="#DejaVuSans-65" x="1596.382812"/>
     <use xlink:href="#DejaVuSans-6c" x="1657.90625"/>
     <use xlink:href="#DejaVuSans-73" x="1685.689453"/>
     <use xlink:href="#DejaVuSans-20" x="1737.789062"/>
     <use xlink:href="#DejaVuSans-77" x="1769.576172"/>
     <use xlink:href="#DejaVuSans-69" x="1851.363281"/>
     <use xlink:href="#DejaVuSans-74" x="1879.146484"/>
     <use xlink:href="#DejaVuSans-68" x="1918.355469"/>
     <use xlink:href="#DejaVuSans-69" x="1981.734375"/>
     <use xlink:href="#DejaVuSans-6e" x="2009.517578"/>
     <use xlink:href="#DejaVuSans-20" x="2072.896484"/>
     <use xlink:href="#DejaVuSans-31" x="2104.683594"/>
     <use xlink:href="#DejaVuSans-20" x="2168.306641"/>
     <use xlink:href="#DejaVuSans-73" x="2200.09375"/>
     <use xlink:href="#DejaVuSans-69" x="2252.193359"/>
     <use xlink:href="#DejaVuSans-67" x="2279.976562"/>
     <use xlink:href="#DejaVuSans-6d" x="2343.453125"/>
     <use xlink:href="#DejaVuSans-61" x="2440.865234"/>
    </g>
   </g>
   <g id="legend_1">
    <g id="patch_7">
     <path d="M 182.79125 302.584 
L 289.52875 302.584 
Q 291.52875 302.584 291.52875 300.584 
L 291.52875 257.549625 
Q 291.52875 255.549625 289.52875 255.549625 
L 182.79125 255.549625 
Q 180.79125 255.549625 180.79125 257.549625 
L 180.79125 300.584 
Q 180.79125 302.584 182.79125 302.584 
z
" style="fill: #ffffff; opacity: 0.8; stroke: #cccccc; stroke-linejoin: miter"/>
    </g>
    <g id="patch_8">
     <path d="M 184.79125 267.148062 
L 204.79125 267.148062 
L 204.79125 260.148062 
L 184.79125 260.148062 
z
" style="fill: #1f77b4; fill-opacity: 0.5"/>
    </g>
    <g id="text_19">
     <!-- Within 1 sigma -->
     <g transform="translate(212.79125 267.148062)scale(0.1 -0.1)">
      <defs>
       <path id="DejaVuSans-57" d="M 213 4666 
L 850 4666 
L 1831 722 
L 2809 4666 
L 3519 4666 
L 4500 722 
L 5478 4666 
L 6119 4666 
L 4947 0 
L 4153 0 
L 3169 4050 
L 2175 0 
L 1381 0 
L 213 4666 
z
" transform="scale(0.015625)"/>
      </defs>
      <use xlink:href="#DejaVuSans-57"/>
      <use xlink:href="#DejaVuSans-69" x="96.626953"/>
      <use xlink:href="#DejaVuSans-74" x="124.410156"/>
      <use xlink:href="#DejaVuSans-68" x="163.619141"/>
      <use xlink:href="#DejaVuSans-69" x="226.998047"/>
      <use xlink:href="#DejaVuSans-6e" x="254.78125"/>
      <use xlink:href="#DejaVuSans-20" x="318.160156"/>
      <use xlink:href="#DejaVuSans-31" x="349.947266"/>
      <use xlink:href="#DejaVuSans-20" x="413.570312"/>
      <use xlink:href="#DejaVuSans-73" x="445.357422"/>
      <use xlink:href="#DejaVuSans-69" x="497.457031"/>
      <use xlink:href="#DejaVuSans-67" x="525.240234"/>
      <use xlink:href="#DejaVuSans-6d" x="588.716797"/>
      <use xlink:href="#DejaVuSans-61" x="686.128906"/>
     </g>
    </g>
    <g id="line2d_18">
     <path d="M 184.79125 278.326188 
L 194.79125 278.326188 
L 204.79125 278.326188 
" style="fill: none; stroke: #008000; stroke-width: 2; stroke-linecap: square"/>
    </g>
    <g id="text_20">
     <!-- Best model -->
     <g transform="translate(212.79125 281.826188)scale(0.1 -0.1)">
      <defs>
       <path id="DejaVuSans-42" d="M 1259 2228 
L 1259 519 
L 2272 519 
Q 2781 519 3026 730 
Q 3272 941 3272 1375 
Q 3272 1813 3026 2020 
Q 2781 2228 2272 2228 
L 1259 2228 
z
M 1259 4147 
L 1259 2741 
L 2194 2741 
Q 2656 2741 2882 2914 
Q 3109 3088 3109 3444 
Q 3109 3797 2882 3972 
Q 2656 4147 2194 4147 
L 1259 4147 
z
M 628 4666 
L 2241 4666 
Q 2963 4666 3353 4366 
Q 3744 4066 3744 3513 
Q 3744 3084 3544 2831 
Q 3344 2578 2956 2516 
Q 3422 2416 3680 2098 
Q 3938 1781 3938 1306 
Q 3938 681 3513 340 
Q 3088 0 2303 0 
L 628 0 
L 628 4666 
z
" transform="scale(0.015625)"/>
      </defs>
      <use xlink:href="#DejaVuSans-42"/>
      <use xlink:href="#DejaVuSans-65" x="68.603516"/>
      <use xlink:href="#DejaVuSans-73" x="130.126953"/>
      <use xlink:href="#DejaVuSans-74" x="182.226562"/>
      <use xlink:href="#DejaVuSans-20" x="221.435547"/>
      <use xlink:href="#DejaVuSans-6d" x="253.222656"/>
      <use xlink:href="#DejaVuSans-6f" x="350.634766"/>
      <use xlink:href="#DejaVuSans-64" x="411.816406"/>
      <use xlink:href="#DejaVuSans-65" x="475.292969"/>
      <use xlink:href="#DejaVuSans-6c" x="536.816406"/>
     </g>
    </g>
    <g id="LineCollection_2">
     <path d="M 194.79125 298.004312 
L 194.79125 288.004312 
" style="fill: none; stroke: #000000; stroke-width: 1.5"/>
    </g>
    <g id="line2d_19"/>
    <g id="line2d_20">
     <g>
      <use xlink:href="#m868d1f6e91" x="194.79125" y="293.004312" style="fill: #0000ff; stroke: #0000ff"/>
     </g>
    </g>
    <g id="text_21">
     <!-- Real data -->
     <g transform="translate(212.79125 296.504312)scale(0.1 -0.1)">
      <defs>
       <path id="DejaVuSans-52" d="M 2841 2188 
Q 3044 2119 3236 1894 
Q 3428 1669 3622 1275 
L 4263 0 
L 3584 0 
L 2988 1197 
Q 2756 1666 2539 1819 
Q 2322 1972 1947 1972 
L 1259 1972 
L 1259 0 
L 628 0 
L 628 4666 
L 2053 4666 
Q 2853 4666 3247 4331 
Q 3641 3997 3641 3322 
Q 3641 2881 3436 2590 
Q 3231 2300 2841 2188 
z
M 1259 4147 
L 1259 2491 
L 2053 2491 
Q 2509 2491 2742 2702 
Q 2975 2913 2975 3322 
Q 2975 3731 2742 3939 
Q 2509 4147 2053 4147 
L 1259 4147 
z
" transform="scale(0.015625)"/>
      </defs>
      <use xlink:href="#DejaVuSans-52"/>
      <use xlink:href="#DejaVuSans-65" x="64.982422"/>
      <use xlink:href="#DejaVuSans-61" x="126.505859"/>
      <use xlink:href="#DejaVuSans-6c" x="187.785156"/>
      <use xlink:href="#DejaVuSans-20" x="215.568359"/>
      <use xlink:href="#DejaVuSans-64" x="247.355469"/>
      <use xlink:href="#DejaVuSans-61" x="310.832031"/>
      <use xlink:href="#DejaVuSans-74" x="372.111328"/>
      <use xlink:href="#DejaVuSans-61" x="411.320312"/>
     </g>
    </g>
   </g>
  </g>
 </g>
 <defs>
  <clipPath id="pb673e91e25">
   <rect x="57.6" y="41.472" width="357.12" height="266.112"/>
  </clipPath>
 </defs>
</svg>
