<?xml version="1.0" encoding="utf-8" standalone="no"?>
<!DOCTYPE svg PUBLIC "-//W3C//DTD SVG 1.1//EN"
  "http://www.w3.org/Graphics/SVG/1.1/DTD/svg11.dtd">
<svg xmlns:xlink="http://www.w3.org/1999/xlink" width="460.8pt" height="345.6pt" viewBox="0 0 460.8 345.6" xmlns="http://www.w3.org/2000/svg" version="1.1">
 <metadata>
  <rdf:RDF xmlns:dc="http://purl.org/dc/elements/1.1/" xmlns:cc="http://creativecommons.org/ns#" xmlns:rdf="http://www.w3.org/1999/02/22-rdf-syntax-ns#">
   <cc:Work>
    <dc:type rdf:resource="http://purl.org/dc/dcmitype/StillImage"/>
    <dc:date>2022-06-10T08:57:09.784672</dc:date>
    <dc:format>image/svg+xml</dc:format>
    <dc:creator>
     <cc:Agent>
      <dc:title>Matplotlib v3.5.0, https://matplotlib.org/</dc:title>
     </cc:Agent>
    </dc:creator>
   </cc:Work>
  </rdf:RDF>
 </metadata>
 <defs>
  <style type="text/css">*{stroke-linejoin: round; stroke-linecap: butt}</style>
 </defs>
 <g id="figure_1">
  <g id="patch_1">
   <path d="M 0 345.6 
L 460.8 345.6 
L 460.8 0 
L 0 0 
z
" style="fill: #ffffff"/>
  </g>
  <g id="axes_1">
   <g id="patch_2">
    <path d="M 57.6 307.584 
L 414.72 307.584 
L 414.72 41.472 
L 57.6 41.472 
z
" style="fill: #ffffff"/>
   </g>
   <g id="matplotlib.axis_1">
    <g id="xtick_1">
     <g id="line2d_1">
      <defs>
       <path id="m114de39c70" d="M 0 0 
L 0 3.5 
" style="stroke: #000000; stroke-width: 0.8"/>
      </defs>
      <g>
       <use xlink:href="#m114de39c70" x="59.334629" y="307.584" style="stroke: #000000; stroke-width: 0.8"/>
      </g>
     </g>
     <g id="text_1">
      <!-- 5 -->
      <g transform="translate(56.153379 322.182437)scale(0.1 -0.1)">
       <defs>
        <path id="DejaVuSans-35" d="M 691 4666 
L 3169 4666 
L 3169 4134 
L 1269 4134 
L 1269 2991 
Q 1406 3038 1543 3061 
Q 1681 3084 1819 3084 
Q 2600 3084 3056 2656 
Q 3513 2228 3513 1497 
Q 3513 744 3044 326 
Q 2575 -91 1722 -91 
Q 1428 -91 1123 -41 
Q 819 9 494 109 
L 494 744 
Q 775 591 1075 516 
Q 1375 441 1709 441 
Q 2250 441 2565 725 
Q 2881 1009 2881 1497 
Q 2881 1984 2565 2268 
Q 2250 2553 1709 2553 
Q 1456 2553 1204 2497 
Q 953 2441 691 2322 
L 691 4666 
z
" transform="scale(0.015625)"/>
       </defs>
       <use xlink:href="#DejaVuSans-35"/>
      </g>
     </g>
    </g>
    <g id="xtick_2">
     <g id="line2d_2">
      <g>
       <use xlink:href="#m114de39c70" x="129.691478" y="307.584" style="stroke: #000000; stroke-width: 0.8"/>
      </g>
     </g>
     <g id="text_2">
      <!-- 10 -->
      <g transform="translate(123.328978 322.182437)scale(0.1 -0.1)">
       <defs>
        <path id="DejaVuSans-31" d="M 794 531 
L 1825 531 
L 1825 4091 
L 703 3866 
L 703 4441 
L 1819 4666 
L 2450 4666 
L 2450 531 
L 3481 531 
L 3481 0 
L 794 0 
L 794 531 
z
" transform="scale(0.015625)"/>
        <path id="DejaVuSans-30" d="M 2034 4250 
Q 1547 4250 1301 3770 
Q 1056 3291 1056 2328 
Q 1056 1369 1301 889 
Q 1547 409 2034 409 
Q 2525 409 2770 889 
Q 3016 1369 3016 2328 
Q 3016 3291 2770 3770 
Q 2525 4250 2034 4250 
z
M 2034 4750 
Q 2819 4750 3233 4129 
Q 3647 3509 3647 2328 
Q 3647 1150 3233 529 
Q 2819 -91 2034 -91 
Q 1250 -91 836 529 
Q 422 1150 422 2328 
Q 422 3509 836 4129 
Q 1250 4750 2034 4750 
z
" transform="scale(0.015625)"/>
       </defs>
       <use xlink:href="#DejaVuSans-31"/>
       <use xlink:href="#DejaVuSans-30" x="63.623047"/>
      </g>
     </g>
    </g>
    <g id="xtick_3">
     <g id="line2d_3">
      <g>
       <use xlink:href="#m114de39c70" x="200.048327" y="307.584" style="stroke: #000000; stroke-width: 0.8"/>
      </g>
     </g>
     <g id="text_3">
      <!-- 15 -->
      <g transform="translate(193.685827 322.182437)scale(0.1 -0.1)">
       <use xlink:href="#DejaVuSans-31"/>
       <use xlink:href="#DejaVuSans-35" x="63.623047"/>
      </g>
     </g>
    </g>
    <g id="xtick_4">
     <g id="line2d_4">
      <g>
       <use xlink:href="#m114de39c70" x="270.405176" y="307.584" style="stroke: #000000; stroke-width: 0.8"/>
      </g>
     </g>
     <g id="text_4">
      <!-- 20 -->
      <g transform="translate(264.042676 322.182437)scale(0.1 -0.1)">
       <defs>
        <path id="DejaVuSans-32" d="M 1228 531 
L 3431 531 
L 3431 0 
L 469 0 
L 469 531 
Q 828 903 1448 1529 
Q 2069 2156 2228 2338 
Q 2531 2678 2651 2914 
Q 2772 3150 2772 3378 
Q 2772 3750 2511 3984 
Q 2250 4219 1831 4219 
Q 1534 4219 1204 4116 
Q 875 4013 500 3803 
L 500 4441 
Q 881 4594 1212 4672 
Q 1544 4750 1819 4750 
Q 2544 4750 2975 4387 
Q 3406 4025 3406 3419 
Q 3406 3131 3298 2873 
Q 3191 2616 2906 2266 
Q 2828 2175 2409 1742 
Q 1991 1309 1228 531 
z
" transform="scale(0.015625)"/>
       </defs>
       <use xlink:href="#DejaVuSans-32"/>
       <use xlink:href="#DejaVuSans-30" x="63.623047"/>
      </g>
     </g>
    </g>
    <g id="xtick_5">
     <g id="line2d_5">
      <g>
       <use xlink:href="#m114de39c70" x="340.762025" y="307.584" style="stroke: #000000; stroke-width: 0.8"/>
      </g>
     </g>
     <g id="text_5">
      <!-- 25 -->
      <g transform="translate(334.399525 322.182437)scale(0.1 -0.1)">
       <use xlink:href="#DejaVuSans-32"/>
       <use xlink:href="#DejaVuSans-35" x="63.623047"/>
      </g>
     </g>
    </g>
    <g id="xtick_6">
     <g id="line2d_6">
      <g>
       <use xlink:href="#m114de39c70" x="411.118874" y="307.584" style="stroke: #000000; stroke-width: 0.8"/>
      </g>
     </g>
     <g id="text_6">
      <!-- 30 -->
      <g transform="translate(404.756374 322.182437)scale(0.1 -0.1)">
       <defs>
        <path id="DejaVuSans-33" d="M 2597 2516 
Q 3050 2419 3304 2112 
Q 3559 1806 3559 1356 
Q 3559 666 3084 287 
Q 2609 -91 1734 -91 
Q 1441 -91 1130 -33 
Q 819 25 488 141 
L 488 750 
Q 750 597 1062 519 
Q 1375 441 1716 441 
Q 2309 441 2620 675 
Q 2931 909 2931 1356 
Q 2931 1769 2642 2001 
Q 2353 2234 1838 2234 
L 1294 2234 
L 1294 2753 
L 1863 2753 
Q 2328 2753 2575 2939 
Q 2822 3125 2822 3475 
Q 2822 3834 2567 4026 
Q 2313 4219 1838 4219 
Q 1578 4219 1281 4162 
Q 984 4106 628 3988 
L 628 4550 
Q 988 4650 1302 4700 
Q 1616 4750 1894 4750 
Q 2613 4750 3031 4423 
Q 3450 4097 3450 3541 
Q 3450 3153 3228 2886 
Q 3006 2619 2597 2516 
z
" transform="scale(0.015625)"/>
       </defs>
       <use xlink:href="#DejaVuSans-33"/>
       <use xlink:href="#DejaVuSans-30" x="63.623047"/>
      </g>
     </g>
    </g>
    <g id="text_7">
     <!-- log(v) -->
     <g transform="translate(221.676406 335.860562)scale(0.1 -0.1)">
      <defs>
       <path id="DejaVuSans-6c" d="M 603 4863 
L 1178 4863 
L 1178 0 
L 603 0 
L 603 4863 
z
" transform="scale(0.015625)"/>
       <path id="DejaVuSans-6f" d="M 1959 3097 
Q 1497 3097 1228 2736 
Q 959 2375 959 1747 
Q 959 1119 1226 758 
Q 1494 397 1959 397 
Q 2419 397 2687 759 
Q 2956 1122 2956 1747 
Q 2956 2369 2687 2733 
Q 2419 3097 1959 3097 
z
M 1959 3584 
Q 2709 3584 3137 3096 
Q 3566 2609 3566 1747 
Q 3566 888 3137 398 
Q 2709 -91 1959 -91 
Q 1206 -91 779 398 
Q 353 888 353 1747 
Q 353 2609 779 3096 
Q 1206 3584 1959 3584 
z
" transform="scale(0.015625)"/>
       <path id="DejaVuSans-67" d="M 2906 1791 
Q 2906 2416 2648 2759 
Q 2391 3103 1925 3103 
Q 1463 3103 1205 2759 
Q 947 2416 947 1791 
Q 947 1169 1205 825 
Q 1463 481 1925 481 
Q 2391 481 2648 825 
Q 2906 1169 2906 1791 
z
M 3481 434 
Q 3481 -459 3084 -895 
Q 2688 -1331 1869 -1331 
Q 1566 -1331 1297 -1286 
Q 1028 -1241 775 -1147 
L 775 -588 
Q 1028 -725 1275 -790 
Q 1522 -856 1778 -856 
Q 2344 -856 2625 -561 
Q 2906 -266 2906 331 
L 2906 616 
Q 2728 306 2450 153 
Q 2172 0 1784 0 
Q 1141 0 747 490 
Q 353 981 353 1791 
Q 353 2603 747 3093 
Q 1141 3584 1784 3584 
Q 2172 3584 2450 3431 
Q 2728 3278 2906 2969 
L 2906 3500 
L 3481 3500 
L 3481 434 
z
" transform="scale(0.015625)"/>
       <path id="DejaVuSans-28" d="M 1984 4856 
Q 1566 4138 1362 3434 
Q 1159 2731 1159 2009 
Q 1159 1288 1364 580 
Q 1569 -128 1984 -844 
L 1484 -844 
Q 1016 -109 783 600 
Q 550 1309 550 2009 
Q 550 2706 781 3412 
Q 1013 4119 1484 4856 
L 1984 4856 
z
" transform="scale(0.015625)"/>
       <path id="DejaVuSans-76" d="M 191 3500 
L 800 3500 
L 1894 563 
L 2988 3500 
L 3597 3500 
L 2284 0 
L 1503 0 
L 191 3500 
z
" transform="scale(0.015625)"/>
       <path id="DejaVuSans-29" d="M 513 4856 
L 1013 4856 
Q 1481 4119 1714 3412 
Q 1947 2706 1947 2009 
Q 1947 1309 1714 600 
Q 1481 -109 1013 -844 
L 513 -844 
Q 928 -128 1133 580 
Q 1338 1288 1338 2009 
Q 1338 2731 1133 3434 
Q 928 4138 513 4856 
z
" transform="scale(0.015625)"/>
      </defs>
      <use xlink:href="#DejaVuSans-6c"/>
      <use xlink:href="#DejaVuSans-6f" x="27.783203"/>
      <use xlink:href="#DejaVuSans-67" x="88.964844"/>
      <use xlink:href="#DejaVuSans-28" x="152.441406"/>
      <use xlink:href="#DejaVuSans-76" x="191.455078"/>
      <use xlink:href="#DejaVuSans-29" x="250.634766"/>
     </g>
    </g>
   </g>
   <g id="matplotlib.axis_2">
    <g id="ytick_1">
     <g id="line2d_7">
      <defs>
       <path id="maf55d3c5ca" d="M 0 0 
L -3.5 0 
" style="stroke: #000000; stroke-width: 0.8"/>
      </defs>
      <g>
       <use xlink:href="#maf55d3c5ca" x="57.6" y="271.541584" style="stroke: #000000; stroke-width: 0.8"/>
      </g>
     </g>
     <g id="text_8">
      <!-- −15 -->
      <g transform="translate(29.495313 275.340803)scale(0.1 -0.1)">
       <defs>
        <path id="DejaVuSans-2212" d="M 678 2272 
L 4684 2272 
L 4684 1741 
L 678 1741 
L 678 2272 
z
" transform="scale(0.015625)"/>
       </defs>
       <use xlink:href="#DejaVuSans-2212"/>
       <use xlink:href="#DejaVuSans-31" x="83.789062"/>
       <use xlink:href="#DejaVuSans-35" x="147.412109"/>
      </g>
     </g>
    </g>
    <g id="ytick_2">
     <g id="line2d_8">
      <g>
       <use xlink:href="#maf55d3c5ca" x="57.6" y="229.14894" style="stroke: #000000; stroke-width: 0.8"/>
      </g>
     </g>
     <g id="text_9">
      <!-- −14 -->
      <g transform="translate(29.495313 232.948159)scale(0.1 -0.1)">
       <defs>
        <path id="DejaVuSans-34" d="M 2419 4116 
L 825 1625 
L 2419 1625 
L 2419 4116 
z
M 2253 4666 
L 3047 4666 
L 3047 1625 
L 3713 1625 
L 3713 1100 
L 3047 1100 
L 3047 0 
L 2419 0 
L 2419 1100 
L 313 1100 
L 313 1709 
L 2253 4666 
z
" transform="scale(0.015625)"/>
       </defs>
       <use xlink:href="#DejaVuSans-2212"/>
       <use xlink:href="#DejaVuSans-31" x="83.789062"/>
       <use xlink:href="#DejaVuSans-34" x="147.412109"/>
      </g>
     </g>
    </g>
    <g id="ytick_3">
     <g id="line2d_9">
      <g>
       <use xlink:href="#maf55d3c5ca" x="57.6" y="186.756295" style="stroke: #000000; stroke-width: 0.8"/>
      </g>
     </g>
     <g id="text_10">
      <!-- −13 -->
      <g transform="translate(29.495313 190.555514)scale(0.1 -0.1)">
       <use xlink:href="#DejaVuSans-2212"/>
       <use xlink:href="#DejaVuSans-31" x="83.789062"/>
       <use xlink:href="#DejaVuSans-33" x="147.412109"/>
      </g>
     </g>
    </g>
    <g id="ytick_4">
     <g id="line2d_10">
      <g>
       <use xlink:href="#maf55d3c5ca" x="57.6" y="144.363651" style="stroke: #000000; stroke-width: 0.8"/>
      </g>
     </g>
     <g id="text_11">
      <!-- −12 -->
      <g transform="translate(29.495313 148.162869)scale(0.1 -0.1)">
       <use xlink:href="#DejaVuSans-2212"/>
       <use xlink:href="#DejaVuSans-31" x="83.789062"/>
       <use xlink:href="#DejaVuSans-32" x="147.412109"/>
      </g>
     </g>
    </g>
    <g id="ytick_5">
     <g id="line2d_11">
      <g>
       <use xlink:href="#maf55d3c5ca" x="57.6" y="101.971006" style="stroke: #000000; stroke-width: 0.8"/>
      </g>
     </g>
     <g id="text_12">
      <!-- −11 -->
      <g transform="translate(29.495313 105.770225)scale(0.1 -0.1)">
       <use xlink:href="#DejaVuSans-2212"/>
       <use xlink:href="#DejaVuSans-31" x="83.789062"/>
       <use xlink:href="#DejaVuSans-31" x="147.412109"/>
      </g>
     </g>
    </g>
    <g id="ytick_6">
     <g id="line2d_12">
      <g>
       <use xlink:href="#maf55d3c5ca" x="57.6" y="59.578362" style="stroke: #000000; stroke-width: 0.8"/>
      </g>
     </g>
     <g id="text_13">
      <!-- −10 -->
      <g transform="translate(29.495313 63.37758)scale(0.1 -0.1)">
       <use xlink:href="#DejaVuSans-2212"/>
       <use xlink:href="#DejaVuSans-31" x="83.789062"/>
       <use xlink:href="#DejaVuSans-30" x="147.412109"/>
      </g>
     </g>
    </g>
    <g id="text_14">
     <!-- log(vFv) -->
     <g transform="translate(23.415625 194.84675)rotate(-90)scale(0.1 -0.1)">
      <defs>
       <path id="DejaVuSans-46" d="M 628 4666 
L 3309 4666 
L 3309 4134 
L 1259 4134 
L 1259 2759 
L 3109 2759 
L 3109 2228 
L 1259 2228 
L 1259 0 
L 628 0 
L 628 4666 
z
" transform="scale(0.015625)"/>
      </defs>
      <use xlink:href="#DejaVuSans-6c"/>
      <use xlink:href="#DejaVuSans-6f" x="27.783203"/>
      <use xlink:href="#DejaVuSans-67" x="88.964844"/>
      <use xlink:href="#DejaVuSans-28" x="152.441406"/>
      <use xlink:href="#DejaVuSans-76" x="191.455078"/>
      <use xlink:href="#DejaVuSans-46" x="250.634766"/>
      <use xlink:href="#DejaVuSans-76" x="308.154297"/>
      <use xlink:href="#DejaVuSans-29" x="367.333984"/>
     </g>
    </g>
   </g>
   <g id="line2d_13">
    <defs>
     <path id="m580026fe1b" d="M 0 1.5 
C 0.397805 1.5 0.77937 1.341951 1.06066 1.06066 
C 1.341951 0.77937 1.5 0.397805 1.5 0 
C 1.5 -0.397805 1.341951 -0.77937 1.06066 -1.06066 
C 0.77937 -1.341951 0.397805 -1.5 0 -1.5 
C -0.397805 -1.5 -0.77937 -1.341951 -1.06066 -1.06066 
C -1.341951 -0.77937 -1.5 -0.397805 -1.5 0 
C -1.5 0.397805 -1.341951 0.77937 -1.06066 1.06066 
C -0.77937 1.341951 -0.397805 1.5 0 1.5 
z
" style="stroke: #1f77b4"/>
    </defs>
    <g clip-path="url(#p0f2e6f5ba1)">
     <use xlink:href="#m580026fe1b" x="196.375544" y="82.242196" style="fill: #1f77b4; stroke: #1f77b4"/>
     <use xlink:href="#m580026fe1b" x="197.714658" y="82.054008" style="fill: #1f77b4; stroke: #1f77b4"/>
     <use xlink:href="#m580026fe1b" x="199.163435" y="83.080666" style="fill: #1f77b4; stroke: #1f77b4"/>
     <use xlink:href="#m580026fe1b" x="200.918562" y="88.665345" style="fill: #1f77b4; stroke: #1f77b4"/>
     <use xlink:href="#m580026fe1b" x="201.812967" y="85.249156" style="fill: #1f77b4; stroke: #1f77b4"/>
     <use xlink:href="#m580026fe1b" x="202.745961" y="90.153904" style="fill: #1f77b4; stroke: #1f77b4"/>
     <use xlink:href="#m580026fe1b" x="231.828688" y="134.272247" style="fill: #1f77b4; stroke: #1f77b4"/>
     <use xlink:href="#m580026fe1b" x="232.448065" y="135.255852" style="fill: #1f77b4; stroke: #1f77b4"/>
     <use xlink:href="#m580026fe1b" x="233.043889" y="137.021827" style="fill: #1f77b4; stroke: #1f77b4"/>
     <use xlink:href="#m580026fe1b" x="233.617227" y="136.776345" style="fill: #1f77b4; stroke: #1f77b4"/>
     <use xlink:href="#m580026fe1b" x="234.169199" y="137.270626" style="fill: #1f77b4; stroke: #1f77b4"/>
     <use xlink:href="#m580026fe1b" x="234.751651" y="139.252203" style="fill: #1f77b4; stroke: #1f77b4"/>
     <use xlink:href="#m580026fe1b" x="235.375286" y="140.108678" style="fill: #1f77b4; stroke: #1f77b4"/>
     <use xlink:href="#m580026fe1b" x="236.023715" y="140.552335" style="fill: #1f77b4; stroke: #1f77b4"/>
     <use xlink:href="#m580026fe1b" x="236.775318" y="143.117995" style="fill: #1f77b4; stroke: #1f77b4"/>
     <use xlink:href="#m580026fe1b" x="237.868314" y="144.180456" style="fill: #1f77b4; stroke: #1f77b4"/>
     <use xlink:href="#m580026fe1b" x="239.757638" y="146.039399" style="fill: #1f77b4; stroke: #1f77b4"/>
     <use xlink:href="#m580026fe1b" x="244.449208" y="152.52275" style="fill: #1f77b4; stroke: #1f77b4"/>
     <use xlink:href="#m580026fe1b" x="305.618413" y="101.787812" style="fill: #1f77b4; stroke: #1f77b4"/>
     <use xlink:href="#m580026fe1b" x="308.975288" y="96.309939" style="fill: #1f77b4; stroke: #1f77b4"/>
     <use xlink:href="#m580026fe1b" x="312.498298" y="92.975812" style="fill: #1f77b4; stroke: #1f77b4"/>
     <use xlink:href="#m580026fe1b" x="316.177108" y="90.54564" style="fill: #1f77b4; stroke: #1f77b4"/>
     <use xlink:href="#m580026fe1b" x="319.689783" y="92.093685" style="fill: #1f77b4; stroke: #1f77b4"/>
     <use xlink:href="#m580026fe1b" x="323.046658" y="91.35504" style="fill: #1f77b4; stroke: #1f77b4"/>
     <use xlink:href="#m580026fe1b" x="326.569668" y="89.487804" style="fill: #1f77b4; stroke: #1f77b4"/>
     <use xlink:href="#m580026fe1b" x="330.248478" y="90.744678" style="fill: #1f77b4; stroke: #1f77b4"/>
     <use xlink:href="#m580026fe1b" x="333.761153" y="90.34873" style="fill: #1f77b4; stroke: #1f77b4"/>
     <use xlink:href="#m580026fe1b" x="337.118028" y="89.675672" style="fill: #1f77b4; stroke: #1f77b4"/>
     <use xlink:href="#m580026fe1b" x="340.641038" y="88.935436" style="fill: #1f77b4; stroke: #1f77b4"/>
     <use xlink:href="#m580026fe1b" x="344.319848" y="94.753162" style="fill: #1f77b4; stroke: #1f77b4"/>
     <use xlink:href="#m580026fe1b" x="347.832523" y="98.159691" style="fill: #1f77b4; stroke: #1f77b4"/>
     <use xlink:href="#m580026fe1b" x="351.189398" y="102.665131" style="fill: #1f77b4; stroke: #1f77b4"/>
     <use xlink:href="#m580026fe1b" x="347.220755" y="109.987274" style="fill: #1f77b4; stroke: #1f77b4"/>
     <use xlink:href="#m580026fe1b" x="347.923399" y="110.274054" style="fill: #1f77b4; stroke: #1f77b4"/>
     <use xlink:href="#m580026fe1b" x="348.627397" y="114.880343" style="fill: #1f77b4; stroke: #1f77b4"/>
     <use xlink:href="#m580026fe1b" x="349.331752" y="114.622328" style="fill: #1f77b4; stroke: #1f77b4"/>
     <use xlink:href="#m580026fe1b" x="350.034954" y="134.166132" style="fill: #1f77b4; stroke: #1f77b4"/>
     <use xlink:href="#m580026fe1b" x="350.741044" y="131.602193" style="fill: #1f77b4; stroke: #1f77b4"/>
     <use xlink:href="#m580026fe1b" x="351.443807" y="128.399558" style="fill: #1f77b4; stroke: #1f77b4"/>
     <use xlink:href="#m580026fe1b" x="352.147848" y="138.838458" style="fill: #1f77b4; stroke: #1f77b4"/>
    </g>
   </g>
   <g id="LineCollection_1">
    <path d="M 196.375544 82.655368 
L 196.375544 81.838093 
" clip-path="url(#p0f2e6f5ba1)" style="fill: none; stroke: #000000; stroke-width: 1.5"/>
    <path d="M 197.714658 82.406863 
L 197.714658 81.707789 
" clip-path="url(#p0f2e6f5ba1)" style="fill: none; stroke: #000000; stroke-width: 1.5"/>
    <path d="M 199.163435 83.48429 
L 199.163435 82.6857 
" clip-path="url(#p0f2e6f5ba1)" style="fill: none; stroke: #000000; stroke-width: 1.5"/>
    <path d="M 200.918562 89.030912 
L 200.918562 88.306895 
" clip-path="url(#p0f2e6f5ba1)" style="fill: none; stroke: #000000; stroke-width: 1.5"/>
    <path d="M 201.812967 85.645363 
L 201.812967 84.861297 
" clip-path="url(#p0f2e6f5ba1)" style="fill: none; stroke: #000000; stroke-width: 1.5"/>
    <path d="M 202.745961 90.52091 
L 202.745961 89.79407 
" clip-path="url(#p0f2e6f5ba1)" style="fill: none; stroke: #000000; stroke-width: 1.5"/>
    <path d="M 231.828688 135.493123 
L 231.828688 133.12732 
" clip-path="url(#p0f2e6f5ba1)" style="fill: none; stroke: #000000; stroke-width: 1.5"/>
    <path d="M 232.448065 136.410565 
L 232.448065 134.169306 
" clip-path="url(#p0f2e6f5ba1)" style="fill: none; stroke: #000000; stroke-width: 1.5"/>
    <path d="M 233.043889 138.088852 
L 233.043889 136.013269 
" clip-path="url(#p0f2e6f5ba1)" style="fill: none; stroke: #000000; stroke-width: 1.5"/>
    <path d="M 233.617227 137.8185 
L 233.617227 135.790033 
" clip-path="url(#p0f2e6f5ba1)" style="fill: none; stroke: #000000; stroke-width: 1.5"/>
    <path d="M 234.169199 138.267792 
L 234.169199 136.324706 
" clip-path="url(#p0f2e6f5ba1)" style="fill: none; stroke: #000000; stroke-width: 1.5"/>
    <path d="M 234.751651 140.236242 
L 234.751651 138.318102 
" clip-path="url(#p0f2e6f5ba1)" style="fill: none; stroke: #000000; stroke-width: 1.5"/>
    <path d="M 235.375286 141.066881 
L 235.375286 139.197887 
" clip-path="url(#p0f2e6f5ba1)" style="fill: none; stroke: #000000; stroke-width: 1.5"/>
    <path d="M 236.023715 141.50457 
L 236.023715 139.646938 
" clip-path="url(#p0f2e6f5ba1)" style="fill: none; stroke: #000000; stroke-width: 1.5"/>
    <path d="M 236.775318 144.06235 
L 236.775318 142.219724 
" clip-path="url(#p0f2e6f5ba1)" style="fill: none; stroke: #000000; stroke-width: 1.5"/>
    <path d="M 237.868314 145.120974 
L 237.868314 143.285658 
" clip-path="url(#p0f2e6f5ba1)" style="fill: none; stroke: #000000; stroke-width: 1.5"/>
    <path d="M 239.757638 146.96572 
L 239.757638 145.15746 
" clip-path="url(#p0f2e6f5ba1)" style="fill: none; stroke: #000000; stroke-width: 1.5"/>
    <path d="M 244.449208 153.494293 
L 244.449208 151.599915 
" clip-path="url(#p0f2e6f5ba1)" style="fill: none; stroke: #000000; stroke-width: 1.5"/>
    <path d="M 305.618413 103.699259 
L 305.618413 100.056281 
" clip-path="url(#p0f2e6f5ba1)" style="fill: none; stroke: #000000; stroke-width: 1.5"/>
    <path d="M 308.975288 97.410277 
L 308.975288 95.271671 
" clip-path="url(#p0f2e6f5ba1)" style="fill: none; stroke: #000000; stroke-width: 1.5"/>
    <path d="M 312.498298 93.742683 
L 312.498298 92.239611 
" clip-path="url(#p0f2e6f5ba1)" style="fill: none; stroke: #000000; stroke-width: 1.5"/>
    <path d="M 316.177108 91.224148 
L 316.177108 89.891251 
" clip-path="url(#p0f2e6f5ba1)" style="fill: none; stroke: #000000; stroke-width: 1.5"/>
    <path d="M 319.689783 92.898041 
L 319.689783 91.323004 
" clip-path="url(#p0f2e6f5ba1)" style="fill: none; stroke: #000000; stroke-width: 1.5"/>
    <path d="M 323.046658 92.281983 
L 323.046658 90.472537 
" clip-path="url(#p0f2e6f5ba1)" style="fill: none; stroke: #000000; stroke-width: 1.5"/>
    <path d="M 326.569668 90.54564 
L 326.569668 88.48746 
" clip-path="url(#p0f2e6f5ba1)" style="fill: none; stroke: #000000; stroke-width: 1.5"/>
    <path d="M 330.248478 92.201667 
L 330.248478 89.394584 
" clip-path="url(#p0f2e6f5ba1)" style="fill: none; stroke: #000000; stroke-width: 1.5"/>
    <path d="M 333.761153 92.364837 
L 333.761153 88.53177 
" clip-path="url(#p0f2e6f5ba1)" style="fill: none; stroke: #000000; stroke-width: 1.5"/>
    <path d="M 337.118028 92.299395 
L 337.118028 87.379639 
" clip-path="url(#p0f2e6f5ba1)" style="fill: none; stroke: #000000; stroke-width: 1.5"/>
    <path d="M 340.641038 92.19084 
L 340.641038 86.170083 
" clip-path="url(#p0f2e6f5ba1)" style="fill: none; stroke: #000000; stroke-width: 1.5"/>
    <path d="M 344.319848 100.300137 
L 344.319848 90.496214 
" clip-path="url(#p0f2e6f5ba1)" style="fill: none; stroke: #000000; stroke-width: 1.5"/>
    <path d="M 347.832523 107.489757 
L 347.832523 91.99704 
" clip-path="url(#p0f2e6f5ba1)" style="fill: none; stroke: #000000; stroke-width: 1.5"/>
    <path d="M 351.189398 118.566623 
L 351.189398 94.262176 
" clip-path="url(#p0f2e6f5ba1)" style="fill: none; stroke: #000000; stroke-width: 1.5"/>
    <path d="M 347.220755 116.795395 
L 347.220755 105.028219 
" clip-path="url(#p0f2e6f5ba1)" style="fill: none; stroke: #000000; stroke-width: 1.5"/>
    <path d="M 347.923399 115.793467 
L 347.923399 106.033308 
" clip-path="url(#p0f2e6f5ba1)" style="fill: none; stroke: #000000; stroke-width: 1.5"/>
    <path d="M 348.627397 120.127401 
L 348.627397 110.80179 
" clip-path="url(#p0f2e6f5ba1)" style="fill: none; stroke: #000000; stroke-width: 1.5"/>
    <path d="M 349.331752 118.88682 
L 349.331752 111.162211 
" clip-path="url(#p0f2e6f5ba1)" style="fill: none; stroke: #000000; stroke-width: 1.5"/>
    <path d="M 350.034954 147.838561 
L 350.034954 126.407249 
" clip-path="url(#p0f2e6f5ba1)" style="fill: none; stroke: #000000; stroke-width: 1.5"/>
    <path d="M 350.741044 143.677002 
L 350.741044 124.371913 
" clip-path="url(#p0f2e6f5ba1)" style="fill: none; stroke: #000000; stroke-width: 1.5"/>
    <path d="M 351.443807 135.584323 
L 351.443807 123.244794 
" clip-path="url(#p0f2e6f5ba1)" style="fill: none; stroke: #000000; stroke-width: 1.5"/>
    <path d="M 352.147848 151.356059 
L 352.147848 131.455492 
" clip-path="url(#p0f2e6f5ba1)" style="fill: none; stroke: #000000; stroke-width: 1.5"/>
   </g>
   <g id="line2d_14">
    <defs>
     <path id="m10e758a819" d="M 0 1.5 
C 0.397805 1.5 0.77937 1.341951 1.06066 1.06066 
C 1.341951 0.77937 1.5 0.397805 1.5 0 
C 1.5 -0.397805 1.341951 -0.77937 1.06066 -1.06066 
C 0.77937 -1.341951 0.397805 -1.5 0 -1.5 
C -0.397805 -1.5 -0.77937 -1.341951 -1.06066 -1.06066 
C -1.341951 -0.77937 -1.5 -0.397805 -1.5 0 
C -1.5 0.397805 -1.341951 0.77937 -1.06066 1.06066 
C -0.77937 1.341951 -0.397805 1.5 0 1.5 
z
" style="stroke: #ff7f0e"/>
    </defs>
    <g clip-path="url(#p0f2e6f5ba1)">
     <use xlink:href="#m10e758a819" x="73.832727" y="1658.153396" style="fill: #ff7f0e; stroke: #ff7f0e"/>
     <use xlink:href="#m10e758a819" x="76.860351" y="1630.789538" style="fill: #ff7f0e; stroke: #ff7f0e"/>
     <use xlink:href="#m10e758a819" x="79.887975" y="1603.425679" style="fill: #ff7f0e; stroke: #ff7f0e"/>
     <use xlink:href="#m10e758a819" x="82.915599" y="1576.061863" style="fill: #ff7f0e; stroke: #ff7f0e"/>
     <use xlink:href="#m10e758a819" x="85.943209" y="1548.698004" style="fill: #ff7f0e; stroke: #ff7f0e"/>
     <use xlink:href="#m10e758a819" x="88.970834" y="1521.334146" style="fill: #ff7f0e; stroke: #ff7f0e"/>
     <use xlink:href="#m10e758a819" x="91.998458" y="1493.970287" style="fill: #ff7f0e; stroke: #ff7f0e"/>
     <use xlink:href="#m10e758a819" x="95.026082" y="1466.606471" style="fill: #ff7f0e; stroke: #ff7f0e"/>
     <use xlink:href="#m10e758a819" x="97.312834" y="368.321618" style="fill: #ff7f0e; stroke: #ff7f0e"/>
     <use xlink:href="#m10e758a819" x="100.340458" y="341.129873" style="fill: #ff7f0e; stroke: #ff7f0e"/>
     <use xlink:href="#m10e758a819" x="103.368082" y="314.729345" style="fill: #ff7f0e; stroke: #ff7f0e"/>
     <use xlink:href="#m10e758a819" x="106.395706" y="291.346199" style="fill: #ff7f0e; stroke: #ff7f0e"/>
     <use xlink:href="#m10e758a819" x="109.42333" y="272.730528" style="fill: #ff7f0e; stroke: #ff7f0e"/>
     <use xlink:href="#m10e758a819" x="112.450954" y="257.782924" style="fill: #ff7f0e; stroke: #ff7f0e"/>
     <use xlink:href="#m10e758a819" x="115.478578" y="244.807808" style="fill: #ff7f0e; stroke: #ff7f0e"/>
     <use xlink:href="#m10e758a819" x="118.506188" y="232.758589" style="fill: #ff7f0e; stroke: #ff7f0e"/>
     <use xlink:href="#m10e758a819" x="121.533813" y="221.134822" style="fill: #ff7f0e; stroke: #ff7f0e"/>
     <use xlink:href="#m10e758a819" x="124.561437" y="209.72675" style="fill: #ff7f0e; stroke: #ff7f0e"/>
     <use xlink:href="#m10e758a819" x="127.589061" y="198.465398" style="fill: #ff7f0e; stroke: #ff7f0e"/>
     <use xlink:href="#m10e758a819" x="130.616685" y="187.35577" style="fill: #ff7f0e; stroke: #ff7f0e"/>
     <use xlink:href="#m10e758a819" x="133.644309" y="176.454798" style="fill: #ff7f0e; stroke: #ff7f0e"/>
     <use xlink:href="#m10e758a819" x="136.671933" y="165.871305" style="fill: #ff7f0e; stroke: #ff7f0e"/>
     <use xlink:href="#m10e758a819" x="139.699557" y="155.776853" style="fill: #ff7f0e; stroke: #ff7f0e"/>
     <use xlink:href="#m10e758a819" x="142.727181" y="146.419609" style="fill: #ff7f0e; stroke: #ff7f0e"/>
     <use xlink:href="#m10e758a819" x="145.754805" y="138.104589" style="fill: #ff7f0e; stroke: #ff7f0e"/>
     <use xlink:href="#m10e758a819" x="148.782429" y="131.105605" style="fill: #ff7f0e; stroke: #ff7f0e"/>
     <use xlink:href="#m10e758a819" x="151.810053" y="125.450469" style="fill: #ff7f0e; stroke: #ff7f0e"/>
     <use xlink:href="#m10e758a819" x="154.837663" y="120.731744" style="fill: #ff7f0e; stroke: #ff7f0e"/>
     <use xlink:href="#m10e758a819" x="157.865287" y="116.364242" style="fill: #ff7f0e; stroke: #ff7f0e"/>
     <use xlink:href="#m10e758a819" x="160.892911" y="112.065288" style="fill: #ff7f0e; stroke: #ff7f0e"/>
     <use xlink:href="#m10e758a819" x="163.920535" y="107.802623" style="fill: #ff7f0e; stroke: #ff7f0e"/>
     <use xlink:href="#m10e758a819" x="166.948159" y="103.591423" style="fill: #ff7f0e; stroke: #ff7f0e"/>
     <use xlink:href="#m10e758a819" x="169.975784" y="99.456105" style="fill: #ff7f0e; stroke: #ff7f0e"/>
     <use xlink:href="#m10e758a819" x="173.003408" y="95.433128" style="fill: #ff7f0e; stroke: #ff7f0e"/>
     <use xlink:href="#m10e758a819" x="176.031032" y="91.576499" style="fill: #ff7f0e; stroke: #ff7f0e"/>
     <use xlink:href="#m10e758a819" x="179.058656" y="87.966638" style="fill: #ff7f0e; stroke: #ff7f0e"/>
     <use xlink:href="#m10e758a819" x="182.08628" y="84.722329" style="fill: #ff7f0e; stroke: #ff7f0e"/>
     <use xlink:href="#m10e758a819" x="185.113904" y="82.01683" style="fill: #ff7f0e; stroke: #ff7f0e"/>
     <use xlink:href="#m10e758a819" x="188.141528" y="80.094027" style="fill: #ff7f0e; stroke: #ff7f0e"/>
     <use xlink:href="#m10e758a819" x="191.169138" y="79.272372" style="fill: #ff7f0e; stroke: #ff7f0e"/>
     <use xlink:href="#m10e758a819" x="194.196762" y="79.898594" style="fill: #ff7f0e; stroke: #ff7f0e"/>
     <use xlink:href="#m10e758a819" x="197.224386" y="82.185587" style="fill: #ff7f0e; stroke: #ff7f0e"/>
     <use xlink:href="#m10e758a819" x="200.25201" y="85.931049" style="fill: #ff7f0e; stroke: #ff7f0e"/>
     <use xlink:href="#m10e758a819" x="203.279634" y="90.465206" style="fill: #ff7f0e; stroke: #ff7f0e"/>
     <use xlink:href="#m10e758a819" x="206.307258" y="95.192327" style="fill: #ff7f0e; stroke: #ff7f0e"/>
     <use xlink:href="#m10e758a819" x="209.334882" y="99.933616" style="fill: #ff7f0e; stroke: #ff7f0e"/>
     <use xlink:href="#m10e758a819" x="212.362506" y="104.674795" style="fill: #ff7f0e; stroke: #ff7f0e"/>
     <use xlink:href="#m10e758a819" x="215.390131" y="109.41537" style="fill: #ff7f0e; stroke: #ff7f0e"/>
     <use xlink:href="#m10e758a819" x="218.417755" y="114.154428" style="fill: #ff7f0e; stroke: #ff7f0e"/>
     <use xlink:href="#m10e758a819" x="221.445379" y="118.89018" style="fill: #ff7f0e; stroke: #ff7f0e"/>
     <use xlink:href="#m10e758a819" x="224.473003" y="123.618724" style="fill: #ff7f0e; stroke: #ff7f0e"/>
     <use xlink:href="#m10e758a819" x="227.500627" y="128.331754" style="fill: #ff7f0e; stroke: #ff7f0e"/>
     <use xlink:href="#m10e758a819" x="230.528237" y="133.012869" style="fill: #ff7f0e; stroke: #ff7f0e"/>
     <use xlink:href="#m10e758a819" x="233.555861" y="137.630492" style="fill: #ff7f0e; stroke: #ff7f0e"/>
     <use xlink:href="#m10e758a819" x="236.583485" y="142.127321" style="fill: #ff7f0e; stroke: #ff7f0e"/>
     <use xlink:href="#m10e758a819" x="239.611109" y="146.40491" style="fill: #ff7f0e; stroke: #ff7f0e"/>
     <use xlink:href="#m10e758a819" x="242.638733" y="150.304542" style="fill: #ff7f0e; stroke: #ff7f0e"/>
     <use xlink:href="#m10e758a819" x="245.666357" y="153.588961" style="fill: #ff7f0e; stroke: #ff7f0e"/>
     <use xlink:href="#m10e758a819" x="248.693981" y="155.94536" style="fill: #ff7f0e; stroke: #ff7f0e"/>
     <use xlink:href="#m10e758a819" x="251.721605" y="157.056112" style="fill: #ff7f0e; stroke: #ff7f0e"/>
     <use xlink:href="#m10e758a819" x="254.749229" y="156.715599" style="fill: #ff7f0e; stroke: #ff7f0e"/>
     <use xlink:href="#m10e758a819" x="257.776853" y="154.951167" style="fill: #ff7f0e; stroke: #ff7f0e"/>
     <use xlink:href="#m10e758a819" x="260.804477" y="152.011368" style="fill: #ff7f0e; stroke: #ff7f0e"/>
     <use xlink:href="#m10e758a819" x="263.832102" y="148.250829" style="fill: #ff7f0e; stroke: #ff7f0e"/>
     <use xlink:href="#m10e758a819" x="266.859712" y="144.007881" style="fill: #ff7f0e; stroke: #ff7f0e"/>
     <use xlink:href="#m10e758a819" x="269.887336" y="139.543303" style="fill: #ff7f0e; stroke: #ff7f0e"/>
     <use xlink:href="#m10e758a819" x="272.91496" y="135.018306" style="fill: #ff7f0e; stroke: #ff7f0e"/>
     <use xlink:href="#m10e758a819" x="275.942584" y="130.568809" style="fill: #ff7f0e; stroke: #ff7f0e"/>
     <use xlink:href="#m10e758a819" x="278.970208" y="126.273502" style="fill: #ff7f0e; stroke: #ff7f0e"/>
     <use xlink:href="#m10e758a819" x="281.997832" y="122.192799" style="fill: #ff7f0e; stroke: #ff7f0e"/>
     <use xlink:href="#m10e758a819" x="285.025456" y="118.370272" style="fill: #ff7f0e; stroke: #ff7f0e"/>
     <use xlink:href="#m10e758a819" x="288.05308" y="114.813762" style="fill: #ff7f0e; stroke: #ff7f0e"/>
     <use xlink:href="#m10e758a819" x="291.080704" y="111.498864" style="fill: #ff7f0e; stroke: #ff7f0e"/>
     <use xlink:href="#m10e758a819" x="294.108328" y="108.387649" style="fill: #ff7f0e; stroke: #ff7f0e"/>
     <use xlink:href="#m10e758a819" x="297.135952" y="105.460309" style="fill: #ff7f0e; stroke: #ff7f0e"/>
     <use xlink:href="#m10e758a819" x="300.163576" y="102.721009" style="fill: #ff7f0e; stroke: #ff7f0e"/>
     <use xlink:href="#m10e758a819" x="303.1912" y="100.17824" style="fill: #ff7f0e; stroke: #ff7f0e"/>
     <use xlink:href="#m10e758a819" x="306.21881" y="97.850686" style="fill: #ff7f0e; stroke: #ff7f0e"/>
     <use xlink:href="#m10e758a819" x="309.246434" y="95.76611" style="fill: #ff7f0e; stroke: #ff7f0e"/>
     <use xlink:href="#m10e758a819" x="312.274058" y="93.960468" style="fill: #ff7f0e; stroke: #ff7f0e"/>
     <use xlink:href="#m10e758a819" x="315.301683" y="92.476687" style="fill: #ff7f0e; stroke: #ff7f0e"/>
     <use xlink:href="#m10e758a819" x="318.329307" y="91.361751" style="fill: #ff7f0e; stroke: #ff7f0e"/>
     <use xlink:href="#m10e758a819" x="321.356931" y="90.658568" style="fill: #ff7f0e; stroke: #ff7f0e"/>
     <use xlink:href="#m10e758a819" x="324.384555" y="90.385409" style="fill: #ff7f0e; stroke: #ff7f0e"/>
     <use xlink:href="#m10e758a819" x="327.412179" y="90.483986" style="fill: #ff7f0e; stroke: #ff7f0e"/>
     <use xlink:href="#m10e758a819" x="330.439803" y="90.63102" style="fill: #ff7f0e; stroke: #ff7f0e"/>
     <use xlink:href="#m10e758a819" x="333.467427" y="90.35725" style="fill: #ff7f0e; stroke: #ff7f0e"/>
     <use xlink:href="#m10e758a819" x="336.495051" y="91.437413" style="fill: #ff7f0e; stroke: #ff7f0e"/>
     <use xlink:href="#m10e758a819" x="339.522675" y="94.32082" style="fill: #ff7f0e; stroke: #ff7f0e"/>
     <use xlink:href="#m10e758a819" x="342.550285" y="97.95048" style="fill: #ff7f0e; stroke: #ff7f0e"/>
     <use xlink:href="#m10e758a819" x="345.577909" y="102.906526" style="fill: #ff7f0e; stroke: #ff7f0e"/>
     <use xlink:href="#m10e758a819" x="348.605533" y="111.314725" style="fill: #ff7f0e; stroke: #ff7f0e"/>
     <use xlink:href="#m10e758a819" x="351.633157" y="126.146157" style="fill: #ff7f0e; stroke: #ff7f0e"/>
     <use xlink:href="#m10e758a819" x="354.660781" y="148.527978" style="fill: #ff7f0e; stroke: #ff7f0e"/>
     <use xlink:href="#m10e758a819" x="357.688405" y="178.259861" style="fill: #ff7f0e; stroke: #ff7f0e"/>
     <use xlink:href="#m10e758a819" x="360.716029" y="207.286224" style="fill: #ff7f0e; stroke: #ff7f0e"/>
     <use xlink:href="#m10e758a819" x="363.743654" y="233.916574" style="fill: #ff7f0e; stroke: #ff7f0e"/>
     <use xlink:href="#m10e758a819" x="366.771278" y="260.625038" style="fill: #ff7f0e; stroke: #ff7f0e"/>
     <use xlink:href="#m10e758a819" x="369.798902" y="307.96884" style="fill: #ff7f0e; stroke: #ff7f0e"/>
     <use xlink:href="#m10e758a819" x="372.826526" y="406.452334" style="fill: #ff7f0e; stroke: #ff7f0e"/>
     <use xlink:href="#m10e758a819" x="375.85415" y="635.118892" style="fill: #ff7f0e; stroke: #ff7f0e"/>
     <use xlink:href="#m10e758a819" x="378.88176" y="1160.277901" style="fill: #ff7f0e; stroke: #ff7f0e"/>
     <use xlink:href="#m10e758a819" x="381.909384" y="2519.562567" style="fill: #ff7f0e; stroke: #ff7f0e"/>
     <use xlink:href="#m10e758a819" x="384.937008" y="5031.094021" style="fill: #ff7f0e; stroke: #ff7f0e"/>
     <use xlink:href="#m10e758a819" x="394.01988" y="253.792148" style="fill: #ff7f0e; stroke: #ff7f0e"/>
     <use xlink:href="#m10e758a819" x="395.459649" y="443.549273" style="fill: #ff7f0e; stroke: #ff7f0e"/>
     <use xlink:href="#m10e758a819" x="398.487273" y="477.241675" style="fill: #ff7f0e; stroke: #ff7f0e"/>
    </g>
   </g>
   <g id="line2d_15">
    <path d="M 99.731395 346.6 
L 100.340458 341.129873 
L 103.368082 314.729345 
L 106.395706 291.346199 
L 109.42333 272.730528 
L 112.450954 257.782924 
L 115.478578 244.807808 
L 118.506188 232.758589 
L 121.533813 221.134822 
L 124.561437 209.72675 
L 127.589061 198.465398 
L 130.616685 187.35577 
L 133.644309 176.454798 
L 136.671933 165.871305 
L 139.699557 155.776853 
L 142.727181 146.419609 
L 145.754805 138.104589 
L 148.782429 131.105605 
L 151.810053 125.450469 
L 154.837663 120.731744 
L 157.865287 116.364242 
L 160.892911 112.065288 
L 163.920535 107.802623 
L 166.948159 103.591423 
L 169.975784 99.456105 
L 173.003408 95.433128 
L 176.031032 91.576499 
L 179.058656 87.966638 
L 182.08628 84.722329 
L 185.113904 82.01683 
L 188.141528 80.094027 
L 191.169138 79.272372 
L 194.196762 79.898594 
L 197.224386 82.185587 
L 200.25201 85.931049 
L 203.279634 90.465206 
L 206.307258 95.192327 
L 209.334882 99.933616 
L 212.362506 104.674795 
L 215.390131 109.41537 
L 218.417755 114.154428 
L 221.445379 118.89018 
L 224.473003 123.618724 
L 227.500627 128.331754 
L 230.528237 133.012869 
L 233.555861 137.630492 
L 236.583485 142.127321 
L 239.611109 146.40491 
L 242.638733 150.304542 
L 245.666357 153.588961 
L 248.693981 155.94536 
L 251.721605 157.056112 
L 254.749229 156.715599 
L 257.776853 154.951167 
L 260.804477 152.011368 
L 263.832102 148.250829 
L 266.859712 144.007881 
L 269.887336 139.543303 
L 272.91496 135.018306 
L 275.942584 130.568809 
L 278.970208 126.273502 
L 281.997832 122.192799 
L 285.025456 118.370272 
L 288.05308 114.813762 
L 291.080704 111.498864 
L 294.108328 108.387649 
L 297.135952 105.460309 
L 300.163576 102.721009 
L 303.1912 100.17824 
L 306.21881 97.850686 
L 309.246434 95.76611 
L 312.274058 93.960468 
L 315.301683 92.476687 
L 318.329307 91.361751 
L 321.356931 90.658568 
L 324.384555 90.385409 
L 327.412179 90.483986 
L 330.439803 90.63102 
L 333.467427 90.35725 
L 336.495051 91.437413 
L 339.522675 94.32082 
L 342.550285 97.95048 
L 345.577909 102.906526 
L 348.605533 111.314725 
L 351.633157 126.146157 
L 354.660781 148.527978 
L 357.688405 178.259861 
L 360.716029 207.286224 
L 363.743654 233.916574 
L 366.771278 260.625038 
L 369.798902 307.96884 
L 370.986518 346.6 
M 393.843429 346.6 
L 394.01988 253.792148 
L 394.724053 346.6 
" clip-path="url(#p0f2e6f5ba1)" style="fill: none; stroke: #2ca02c; stroke-width: 1.5; stroke-linecap: square"/>
   </g>
   <g id="line2d_16">
    <defs>
     <path id="mc795ab157e" d="M 0 1.5 
C 0.397805 1.5 0.77937 1.341951 1.06066 1.06066 
C 1.341951 0.77937 1.5 0.397805 1.5 0 
C 1.5 -0.397805 1.341951 -0.77937 1.06066 -1.06066 
C 0.77937 -1.341951 0.397805 -1.5 0 -1.5 
C -0.397805 -1.5 -0.77937 -1.341951 -1.06066 -1.06066 
C -1.341951 -0.77937 -1.5 -0.397805 -1.5 0 
C -1.5 0.397805 -1.341951 0.77937 -1.06066 1.06066 
C -0.77937 1.341951 -0.397805 1.5 0 1.5 
z
" style="stroke: #0000ff"/>
    </defs>
    <g clip-path="url(#p0f2e6f5ba1)">
     <use xlink:href="#mc795ab157e" x="196.375544" y="82.242196" style="fill: #0000ff; stroke: #0000ff"/>
     <use xlink:href="#mc795ab157e" x="197.714658" y="82.054008" style="fill: #0000ff; stroke: #0000ff"/>
     <use xlink:href="#mc795ab157e" x="199.163435" y="83.080666" style="fill: #0000ff; stroke: #0000ff"/>
     <use xlink:href="#mc795ab157e" x="200.918562" y="88.665345" style="fill: #0000ff; stroke: #0000ff"/>
     <use xlink:href="#mc795ab157e" x="201.812967" y="85.249156" style="fill: #0000ff; stroke: #0000ff"/>
     <use xlink:href="#mc795ab157e" x="202.745961" y="90.153904" style="fill: #0000ff; stroke: #0000ff"/>
     <use xlink:href="#mc795ab157e" x="231.828688" y="134.272247" style="fill: #0000ff; stroke: #0000ff"/>
     <use xlink:href="#mc795ab157e" x="232.448065" y="135.255852" style="fill: #0000ff; stroke: #0000ff"/>
     <use xlink:href="#mc795ab157e" x="233.043889" y="137.021827" style="fill: #0000ff; stroke: #0000ff"/>
     <use xlink:href="#mc795ab157e" x="233.617227" y="136.776345" style="fill: #0000ff; stroke: #0000ff"/>
     <use xlink:href="#mc795ab157e" x="234.169199" y="137.270626" style="fill: #0000ff; stroke: #0000ff"/>
     <use xlink:href="#mc795ab157e" x="234.751651" y="139.252203" style="fill: #0000ff; stroke: #0000ff"/>
     <use xlink:href="#mc795ab157e" x="235.375286" y="140.108678" style="fill: #0000ff; stroke: #0000ff"/>
     <use xlink:href="#mc795ab157e" x="236.023715" y="140.552335" style="fill: #0000ff; stroke: #0000ff"/>
     <use xlink:href="#mc795ab157e" x="236.775318" y="143.117995" style="fill: #0000ff; stroke: #0000ff"/>
     <use xlink:href="#mc795ab157e" x="237.868314" y="144.180456" style="fill: #0000ff; stroke: #0000ff"/>
     <use xlink:href="#mc795ab157e" x="239.757638" y="146.039399" style="fill: #0000ff; stroke: #0000ff"/>
     <use xlink:href="#mc795ab157e" x="244.449208" y="152.52275" style="fill: #0000ff; stroke: #0000ff"/>
     <use xlink:href="#mc795ab157e" x="305.618413" y="101.787812" style="fill: #0000ff; stroke: #0000ff"/>
     <use xlink:href="#mc795ab157e" x="308.975288" y="96.309939" style="fill: #0000ff; stroke: #0000ff"/>
     <use xlink:href="#mc795ab157e" x="312.498298" y="92.975812" style="fill: #0000ff; stroke: #0000ff"/>
     <use xlink:href="#mc795ab157e" x="316.177108" y="90.54564" style="fill: #0000ff; stroke: #0000ff"/>
     <use xlink:href="#mc795ab157e" x="319.689783" y="92.093685" style="fill: #0000ff; stroke: #0000ff"/>
     <use xlink:href="#mc795ab157e" x="323.046658" y="91.35504" style="fill: #0000ff; stroke: #0000ff"/>
     <use xlink:href="#mc795ab157e" x="326.569668" y="89.487804" style="fill: #0000ff; stroke: #0000ff"/>
     <use xlink:href="#mc795ab157e" x="330.248478" y="90.744678" style="fill: #0000ff; stroke: #0000ff"/>
     <use xlink:href="#mc795ab157e" x="333.761153" y="90.34873" style="fill: #0000ff; stroke: #0000ff"/>
     <use xlink:href="#mc795ab157e" x="337.118028" y="89.675672" style="fill: #0000ff; stroke: #0000ff"/>
     <use xlink:href="#mc795ab157e" x="340.641038" y="88.935436" style="fill: #0000ff; stroke: #0000ff"/>
     <use xlink:href="#mc795ab157e" x="344.319848" y="94.753162" style="fill: #0000ff; stroke: #0000ff"/>
     <use xlink:href="#mc795ab157e" x="347.832523" y="98.159691" style="fill: #0000ff; stroke: #0000ff"/>
     <use xlink:href="#mc795ab157e" x="351.189398" y="102.665131" style="fill: #0000ff; stroke: #0000ff"/>
     <use xlink:href="#mc795ab157e" x="347.220755" y="109.987274" style="fill: #0000ff; stroke: #0000ff"/>
     <use xlink:href="#mc795ab157e" x="347.923399" y="110.274054" style="fill: #0000ff; stroke: #0000ff"/>
     <use xlink:href="#mc795ab157e" x="348.627397" y="114.880343" style="fill: #0000ff; stroke: #0000ff"/>
     <use xlink:href="#mc795ab157e" x="349.331752" y="114.622328" style="fill: #0000ff; stroke: #0000ff"/>
     <use xlink:href="#mc795ab157e" x="350.034954" y="134.166132" style="fill: #0000ff; stroke: #0000ff"/>
     <use xlink:href="#mc795ab157e" x="350.741044" y="131.602193" style="fill: #0000ff; stroke: #0000ff"/>
     <use xlink:href="#mc795ab157e" x="351.443807" y="128.399558" style="fill: #0000ff; stroke: #0000ff"/>
     <use xlink:href="#mc795ab157e" x="352.147848" y="138.838458" style="fill: #0000ff; stroke: #0000ff"/>
    </g>
   </g>
   <g id="patch_3">
    <path d="M 57.6 307.584 
L 57.6 41.472 
" style="fill: none; stroke: #000000; stroke-width: 0.8; stroke-linejoin: miter; stroke-linecap: square"/>
   </g>
   <g id="patch_4">
    <path d="M 414.72 307.584 
L 414.72 41.472 
" style="fill: none; stroke: #000000; stroke-width: 0.8; stroke-linejoin: miter; stroke-linecap: square"/>
   </g>
   <g id="patch_5">
    <path d="M 57.6 307.584 
L 414.72 307.584 
" style="fill: none; stroke: #000000; stroke-width: 0.8; stroke-linejoin: miter; stroke-linecap: square"/>
   </g>
   <g id="patch_6">
    <path d="M 57.6 41.472 
L 414.72 41.472 
" style="fill: none; stroke: #000000; stroke-width: 0.8; stroke-linejoin: miter; stroke-linecap: square"/>
   </g>
   <g id="text_15">
    <!-- MCMC $\chi^2$ = 137.95 -->
    <g transform="translate(178.98 35.472)scale(0.12 -0.12)">
     <defs>
      <path id="DejaVuSans-4d" d="M 628 4666 
L 1569 4666 
L 2759 1491 
L 3956 4666 
L 4897 4666 
L 4897 0 
L 4281 0 
L 4281 4097 
L 3078 897 
L 2444 897 
L 1241 4097 
L 1241 0 
L 628 0 
L 628 4666 
z
" transform="scale(0.015625)"/>
      <path id="DejaVuSans-43" d="M 4122 4306 
L 4122 3641 
Q 3803 3938 3442 4084 
Q 3081 4231 2675 4231 
Q 1875 4231 1450 3742 
Q 1025 3253 1025 2328 
Q 1025 1406 1450 917 
Q 1875 428 2675 428 
Q 3081 428 3442 575 
Q 3803 722 4122 1019 
L 4122 359 
Q 3791 134 3420 21 
Q 3050 -91 2638 -91 
Q 1578 -91 968 557 
Q 359 1206 359 2328 
Q 359 3453 968 4101 
Q 1578 4750 2638 4750 
Q 3056 4750 3426 4639 
Q 3797 4528 4122 4306 
z
" transform="scale(0.015625)"/>
      <path id="DejaVuSans-20" transform="scale(0.015625)"/>
      <path id="DejaVuSans-Oblique-3c7" d="M 1922 -781 
L 1691 416 
L 394 -1334 
L -284 -1334 
L 1553 1141 
L 1269 2613 
Q 1194 3006 713 3006 
L 559 3006 
L 653 3500 
L 872 3494 
Q 1675 3472 1775 2950 
L 2006 1753 
L 3303 3503 
L 3981 3503 
L 2144 1028 
L 2428 -444 
Q 2503 -838 2984 -838 
L 3138 -838 
L 3044 -1331 
L 2825 -1325 
Q 2022 -1303 1922 -781 
z
" transform="scale(0.015625)"/>
      <path id="DejaVuSans-3d" d="M 678 2906 
L 4684 2906 
L 4684 2381 
L 678 2381 
L 678 2906 
z
M 678 1631 
L 4684 1631 
L 4684 1100 
L 678 1100 
L 678 1631 
z
" transform="scale(0.015625)"/>
      <path id="DejaVuSans-37" d="M 525 4666 
L 3525 4666 
L 3525 4397 
L 1831 0 
L 1172 0 
L 2766 4134 
L 525 4134 
L 525 4666 
z
" transform="scale(0.015625)"/>
      <path id="DejaVuSans-2e" d="M 684 794 
L 1344 794 
L 1344 0 
L 684 0 
L 684 794 
z
" transform="scale(0.015625)"/>
      <path id="DejaVuSans-39" d="M 703 97 
L 703 672 
Q 941 559 1184 500 
Q 1428 441 1663 441 
Q 2288 441 2617 861 
Q 2947 1281 2994 2138 
Q 2813 1869 2534 1725 
Q 2256 1581 1919 1581 
Q 1219 1581 811 2004 
Q 403 2428 403 3163 
Q 403 3881 828 4315 
Q 1253 4750 1959 4750 
Q 2769 4750 3195 4129 
Q 3622 3509 3622 2328 
Q 3622 1225 3098 567 
Q 2575 -91 1691 -91 
Q 1453 -91 1209 -44 
Q 966 3 703 97 
z
M 1959 2075 
Q 2384 2075 2632 2365 
Q 2881 2656 2881 3163 
Q 2881 3666 2632 3958 
Q 2384 4250 1959 4250 
Q 1534 4250 1286 3958 
Q 1038 3666 1038 3163 
Q 1038 2656 1286 2365 
Q 1534 2075 1959 2075 
z
" transform="scale(0.015625)"/>
     </defs>
     <use xlink:href="#DejaVuSans-4d" transform="translate(0 0.765625)"/>
     <use xlink:href="#DejaVuSans-43" transform="translate(86.279297 0.765625)"/>
     <use xlink:href="#DejaVuSans-4d" transform="translate(156.103516 0.765625)"/>
     <use xlink:href="#DejaVuSans-43" transform="translate(242.382812 0.765625)"/>
     <use xlink:href="#DejaVuSans-20" transform="translate(312.207031 0.765625)"/>
     <use xlink:href="#DejaVuSans-Oblique-3c7" transform="translate(343.994141 0.765625)"/>
     <use xlink:href="#DejaVuSans-32" transform="translate(407.646536 39.046875)scale(0.7)"/>
     <use xlink:href="#DejaVuSans-20" transform="translate(454.917044 0.765625)"/>
     <use xlink:href="#DejaVuSans-3d" transform="translate(486.704154 0.765625)"/>
     <use xlink:href="#DejaVuSans-20" transform="translate(570.493216 0.765625)"/>
     <use xlink:href="#DejaVuSans-31" transform="translate(602.280326 0.765625)"/>
     <use xlink:href="#DejaVuSans-33" transform="translate(665.903372 0.765625)"/>
     <use xlink:href="#DejaVuSans-37" transform="translate(729.526419 0.765625)"/>
     <use xlink:href="#DejaVuSans-2e" transform="translate(793.149466 0.765625)"/>
     <use xlink:href="#DejaVuSans-39" transform="translate(824.936576 0.765625)"/>
     <use xlink:href="#DejaVuSans-35" transform="translate(888.559622 0.765625)"/>
    </g>
   </g>
  </g>
 </g>
 <defs>
  <clipPath id="p0f2e6f5ba1">
   <rect x="57.6" y="41.472" width="357.12" height="266.112"/>
  </clipPath>
 </defs>
</svg>
