<?xml version="1.0" encoding="utf-8" standalone="no"?>
<!DOCTYPE svg PUBLIC "-//W3C//DTD SVG 1.1//EN"
  "http://www.w3.org/Graphics/SVG/1.1/DTD/svg11.dtd">
<svg xmlns:xlink="http://www.w3.org/1999/xlink" width="460.8pt" height="345.6pt" viewBox="0 0 460.8 345.6" xmlns="http://www.w3.org/2000/svg" version="1.1">
 <metadata>
  <rdf:RDF xmlns:dc="http://purl.org/dc/elements/1.1/" xmlns:cc="http://creativecommons.org/ns#" xmlns:rdf="http://www.w3.org/1999/02/22-rdf-syntax-ns#">
   <cc:Work>
    <dc:type rdf:resource="http://purl.org/dc/dcmitype/StillImage"/>
    <dc:date>2022-06-10T08:57:20.304488</dc:date>
    <dc:format>image/svg+xml</dc:format>
    <dc:creator>
     <cc:Agent>
      <dc:title>Matplotlib v3.5.0, https://matplotlib.org/</dc:title>
     </cc:Agent>
    </dc:creator>
   </cc:Work>
  </rdf:RDF>
 </metadata>
 <defs>
  <style type="text/css">*{stroke-linejoin: round; stroke-linecap: butt}</style>
 </defs>
 <g id="figure_1">
  <g id="patch_1">
   <path d="M 0 345.6 
L 460.8 345.6 
L 460.8 0 
L 0 0 
z
" style="fill: #ffffff"/>
  </g>
  <g id="axes_1">
   <g id="patch_2">
    <path d="M 57.6 307.584 
L 414.72 307.584 
L 414.72 41.472 
L 57.6 41.472 
z
" style="fill: #ffffff"/>
   </g>
   <g id="matplotlib.axis_1">
    <g id="xtick_1">
     <g id="line2d_1">
      <defs>
       <path id="m7d16272de3" d="M 0 0 
L 0 3.5 
" style="stroke: #000000; stroke-width: 0.8"/>
      </defs>
      <g>
       <use xlink:href="#m7d16272de3" x="57.6" y="307.584" style="stroke: #000000; stroke-width: 0.8"/>
      </g>
     </g>
     <g id="text_1">
      <!-- 500 -->
      <g transform="translate(48.05625 322.182437)scale(0.1 -0.1)">
       <defs>
        <path id="DejaVuSans-35" d="M 691 4666 
L 3169 4666 
L 3169 4134 
L 1269 4134 
L 1269 2991 
Q 1406 3038 1543 3061 
Q 1681 3084 1819 3084 
Q 2600 3084 3056 2656 
Q 3513 2228 3513 1497 
Q 3513 744 3044 326 
Q 2575 -91 1722 -91 
Q 1428 -91 1123 -41 
Q 819 9 494 109 
L 494 744 
Q 775 591 1075 516 
Q 1375 441 1709 441 
Q 2250 441 2565 725 
Q 2881 1009 2881 1497 
Q 2881 1984 2565 2268 
Q 2250 2553 1709 2553 
Q 1456 2553 1204 2497 
Q 953 2441 691 2322 
L 691 4666 
z
" transform="scale(0.015625)"/>
        <path id="DejaVuSans-30" d="M 2034 4250 
Q 1547 4250 1301 3770 
Q 1056 3291 1056 2328 
Q 1056 1369 1301 889 
Q 1547 409 2034 409 
Q 2525 409 2770 889 
Q 3016 1369 3016 2328 
Q 3016 3291 2770 3770 
Q 2525 4250 2034 4250 
z
M 2034 4750 
Q 2819 4750 3233 4129 
Q 3647 3509 3647 2328 
Q 3647 1150 3233 529 
Q 2819 -91 2034 -91 
Q 1250 -91 836 529 
Q 422 1150 422 2328 
Q 422 3509 836 4129 
Q 1250 4750 2034 4750 
z
" transform="scale(0.015625)"/>
       </defs>
       <use xlink:href="#DejaVuSans-35"/>
       <use xlink:href="#DejaVuSans-30" x="63.623047"/>
       <use xlink:href="#DejaVuSans-30" x="127.246094"/>
      </g>
     </g>
    </g>
    <g id="xtick_2">
     <g id="line2d_2">
      <g>
       <use xlink:href="#m7d16272de3" x="119.751062" y="307.584" style="stroke: #000000; stroke-width: 0.8"/>
      </g>
     </g>
     <g id="text_2">
      <!-- 1000 -->
      <g transform="translate(107.026062 322.182437)scale(0.1 -0.1)">
       <defs>
        <path id="DejaVuSans-31" d="M 794 531 
L 1825 531 
L 1825 4091 
L 703 3866 
L 703 4441 
L 1819 4666 
L 2450 4666 
L 2450 531 
L 3481 531 
L 3481 0 
L 794 0 
L 794 531 
z
" transform="scale(0.015625)"/>
       </defs>
       <use xlink:href="#DejaVuSans-31"/>
       <use xlink:href="#DejaVuSans-30" x="63.623047"/>
       <use xlink:href="#DejaVuSans-30" x="127.246094"/>
       <use xlink:href="#DejaVuSans-30" x="190.869141"/>
      </g>
     </g>
    </g>
    <g id="xtick_3">
     <g id="line2d_3">
      <g>
       <use xlink:href="#m7d16272de3" x="181.902123" y="307.584" style="stroke: #000000; stroke-width: 0.8"/>
      </g>
     </g>
     <g id="text_3">
      <!-- 1500 -->
      <g transform="translate(169.177123 322.182437)scale(0.1 -0.1)">
       <use xlink:href="#DejaVuSans-31"/>
       <use xlink:href="#DejaVuSans-35" x="63.623047"/>
       <use xlink:href="#DejaVuSans-30" x="127.246094"/>
       <use xlink:href="#DejaVuSans-30" x="190.869141"/>
      </g>
     </g>
    </g>
    <g id="xtick_4">
     <g id="line2d_4">
      <g>
       <use xlink:href="#m7d16272de3" x="244.053185" y="307.584" style="stroke: #000000; stroke-width: 0.8"/>
      </g>
     </g>
     <g id="text_4">
      <!-- 2000 -->
      <g transform="translate(231.328185 322.182437)scale(0.1 -0.1)">
       <defs>
        <path id="DejaVuSans-32" d="M 1228 531 
L 3431 531 
L 3431 0 
L 469 0 
L 469 531 
Q 828 903 1448 1529 
Q 2069 2156 2228 2338 
Q 2531 2678 2651 2914 
Q 2772 3150 2772 3378 
Q 2772 3750 2511 3984 
Q 2250 4219 1831 4219 
Q 1534 4219 1204 4116 
Q 875 4013 500 3803 
L 500 4441 
Q 881 4594 1212 4672 
Q 1544 4750 1819 4750 
Q 2544 4750 2975 4387 
Q 3406 4025 3406 3419 
Q 3406 3131 3298 2873 
Q 3191 2616 2906 2266 
Q 2828 2175 2409 1742 
Q 1991 1309 1228 531 
z
" transform="scale(0.015625)"/>
       </defs>
       <use xlink:href="#DejaVuSans-32"/>
       <use xlink:href="#DejaVuSans-30" x="63.623047"/>
       <use xlink:href="#DejaVuSans-30" x="127.246094"/>
       <use xlink:href="#DejaVuSans-30" x="190.869141"/>
      </g>
     </g>
    </g>
    <g id="xtick_5">
     <g id="line2d_5">
      <g>
       <use xlink:href="#m7d16272de3" x="306.204246" y="307.584" style="stroke: #000000; stroke-width: 0.8"/>
      </g>
     </g>
     <g id="text_5">
      <!-- 2500 -->
      <g transform="translate(293.479246 322.182437)scale(0.1 -0.1)">
       <use xlink:href="#DejaVuSans-32"/>
       <use xlink:href="#DejaVuSans-35" x="63.623047"/>
       <use xlink:href="#DejaVuSans-30" x="127.246094"/>
       <use xlink:href="#DejaVuSans-30" x="190.869141"/>
      </g>
     </g>
    </g>
    <g id="xtick_6">
     <g id="line2d_6">
      <g>
       <use xlink:href="#m7d16272de3" x="368.355308" y="307.584" style="stroke: #000000; stroke-width: 0.8"/>
      </g>
     </g>
     <g id="text_6">
      <!-- 3000 -->
      <g transform="translate(355.630308 322.182437)scale(0.1 -0.1)">
       <defs>
        <path id="DejaVuSans-33" d="M 2597 2516 
Q 3050 2419 3304 2112 
Q 3559 1806 3559 1356 
Q 3559 666 3084 287 
Q 2609 -91 1734 -91 
Q 1441 -91 1130 -33 
Q 819 25 488 141 
L 488 750 
Q 750 597 1062 519 
Q 1375 441 1716 441 
Q 2309 441 2620 675 
Q 2931 909 2931 1356 
Q 2931 1769 2642 2001 
Q 2353 2234 1838 2234 
L 1294 2234 
L 1294 2753 
L 1863 2753 
Q 2328 2753 2575 2939 
Q 2822 3125 2822 3475 
Q 2822 3834 2567 4026 
Q 2313 4219 1838 4219 
Q 1578 4219 1281 4162 
Q 984 4106 628 3988 
L 628 4550 
Q 988 4650 1302 4700 
Q 1616 4750 1894 4750 
Q 2613 4750 3031 4423 
Q 3450 4097 3450 3541 
Q 3450 3153 3228 2886 
Q 3006 2619 2597 2516 
z
" transform="scale(0.015625)"/>
       </defs>
       <use xlink:href="#DejaVuSans-33"/>
       <use xlink:href="#DejaVuSans-30" x="63.623047"/>
       <use xlink:href="#DejaVuSans-30" x="127.246094"/>
       <use xlink:href="#DejaVuSans-30" x="190.869141"/>
      </g>
     </g>
    </g>
    <g id="text_7">
     <!-- step -->
     <g transform="translate(225.344375 335.860562)scale(0.1 -0.1)">
      <defs>
       <path id="DejaVuSans-73" d="M 2834 3397 
L 2834 2853 
Q 2591 2978 2328 3040 
Q 2066 3103 1784 3103 
Q 1356 3103 1142 2972 
Q 928 2841 928 2578 
Q 928 2378 1081 2264 
Q 1234 2150 1697 2047 
L 1894 2003 
Q 2506 1872 2764 1633 
Q 3022 1394 3022 966 
Q 3022 478 2636 193 
Q 2250 -91 1575 -91 
Q 1294 -91 989 -36 
Q 684 19 347 128 
L 347 722 
Q 666 556 975 473 
Q 1284 391 1588 391 
Q 1994 391 2212 530 
Q 2431 669 2431 922 
Q 2431 1156 2273 1281 
Q 2116 1406 1581 1522 
L 1381 1569 
Q 847 1681 609 1914 
Q 372 2147 372 2553 
Q 372 3047 722 3315 
Q 1072 3584 1716 3584 
Q 2034 3584 2315 3537 
Q 2597 3491 2834 3397 
z
" transform="scale(0.015625)"/>
       <path id="DejaVuSans-74" d="M 1172 4494 
L 1172 3500 
L 2356 3500 
L 2356 3053 
L 1172 3053 
L 1172 1153 
Q 1172 725 1289 603 
Q 1406 481 1766 481 
L 2356 481 
L 2356 0 
L 1766 0 
Q 1100 0 847 248 
Q 594 497 594 1153 
L 594 3053 
L 172 3053 
L 172 3500 
L 594 3500 
L 594 4494 
L 1172 4494 
z
" transform="scale(0.015625)"/>
       <path id="DejaVuSans-65" d="M 3597 1894 
L 3597 1613 
L 953 1613 
Q 991 1019 1311 708 
Q 1631 397 2203 397 
Q 2534 397 2845 478 
Q 3156 559 3463 722 
L 3463 178 
Q 3153 47 2828 -22 
Q 2503 -91 2169 -91 
Q 1331 -91 842 396 
Q 353 884 353 1716 
Q 353 2575 817 3079 
Q 1281 3584 2069 3584 
Q 2775 3584 3186 3129 
Q 3597 2675 3597 1894 
z
M 3022 2063 
Q 3016 2534 2758 2815 
Q 2500 3097 2075 3097 
Q 1594 3097 1305 2825 
Q 1016 2553 972 2059 
L 3022 2063 
z
" transform="scale(0.015625)"/>
       <path id="DejaVuSans-70" d="M 1159 525 
L 1159 -1331 
L 581 -1331 
L 581 3500 
L 1159 3500 
L 1159 2969 
Q 1341 3281 1617 3432 
Q 1894 3584 2278 3584 
Q 2916 3584 3314 3078 
Q 3713 2572 3713 1747 
Q 3713 922 3314 415 
Q 2916 -91 2278 -91 
Q 1894 -91 1617 61 
Q 1341 213 1159 525 
z
M 3116 1747 
Q 3116 2381 2855 2742 
Q 2594 3103 2138 3103 
Q 1681 3103 1420 2742 
Q 1159 2381 1159 1747 
Q 1159 1113 1420 752 
Q 1681 391 2138 391 
Q 2594 391 2855 752 
Q 3116 1113 3116 1747 
z
" transform="scale(0.015625)"/>
      </defs>
      <use xlink:href="#DejaVuSans-73"/>
      <use xlink:href="#DejaVuSans-74" x="52.099609"/>
      <use xlink:href="#DejaVuSans-65" x="91.308594"/>
      <use xlink:href="#DejaVuSans-70" x="152.832031"/>
     </g>
    </g>
   </g>
   <g id="matplotlib.axis_2">
    <g id="ytick_1">
     <g id="line2d_7">
      <defs>
       <path id="m603d5313e3" d="M 0 0 
L -3.5 0 
" style="stroke: #000000; stroke-width: 0.8"/>
      </defs>
      <g>
       <use xlink:href="#m603d5313e3" x="57.6" y="301.46263" style="stroke: #000000; stroke-width: 0.8"/>
      </g>
     </g>
     <g id="text_8">
      <!-- 0 -->
      <g transform="translate(44.2375 305.261849)scale(0.1 -0.1)">
       <use xlink:href="#DejaVuSans-30"/>
      </g>
     </g>
    </g>
    <g id="ytick_2">
     <g id="line2d_8">
      <g>
       <use xlink:href="#m603d5313e3" x="57.6" y="258.152735" style="stroke: #000000; stroke-width: 0.8"/>
      </g>
     </g>
     <g id="text_9">
      <!-- 1000 -->
      <g transform="translate(25.15 261.951953)scale(0.1 -0.1)">
       <use xlink:href="#DejaVuSans-31"/>
       <use xlink:href="#DejaVuSans-30" x="63.623047"/>
       <use xlink:href="#DejaVuSans-30" x="127.246094"/>
       <use xlink:href="#DejaVuSans-30" x="190.869141"/>
      </g>
     </g>
    </g>
    <g id="ytick_3">
     <g id="line2d_9">
      <g>
       <use xlink:href="#m603d5313e3" x="57.6" y="214.842839" style="stroke: #000000; stroke-width: 0.8"/>
      </g>
     </g>
     <g id="text_10">
      <!-- 2000 -->
      <g transform="translate(25.15 218.642058)scale(0.1 -0.1)">
       <use xlink:href="#DejaVuSans-32"/>
       <use xlink:href="#DejaVuSans-30" x="63.623047"/>
       <use xlink:href="#DejaVuSans-30" x="127.246094"/>
       <use xlink:href="#DejaVuSans-30" x="190.869141"/>
      </g>
     </g>
    </g>
    <g id="ytick_4">
     <g id="line2d_10">
      <g>
       <use xlink:href="#m603d5313e3" x="57.6" y="171.532944" style="stroke: #000000; stroke-width: 0.8"/>
      </g>
     </g>
     <g id="text_11">
      <!-- 3000 -->
      <g transform="translate(25.15 175.332163)scale(0.1 -0.1)">
       <use xlink:href="#DejaVuSans-33"/>
       <use xlink:href="#DejaVuSans-30" x="63.623047"/>
       <use xlink:href="#DejaVuSans-30" x="127.246094"/>
       <use xlink:href="#DejaVuSans-30" x="190.869141"/>
      </g>
     </g>
    </g>
    <g id="ytick_5">
     <g id="line2d_11">
      <g>
       <use xlink:href="#m603d5313e3" x="57.6" y="128.223048" style="stroke: #000000; stroke-width: 0.8"/>
      </g>
     </g>
     <g id="text_12">
      <!-- 4000 -->
      <g transform="translate(25.15 132.022267)scale(0.1 -0.1)">
       <defs>
        <path id="DejaVuSans-34" d="M 2419 4116 
L 825 1625 
L 2419 1625 
L 2419 4116 
z
M 2253 4666 
L 3047 4666 
L 3047 1625 
L 3713 1625 
L 3713 1100 
L 3047 1100 
L 3047 0 
L 2419 0 
L 2419 1100 
L 313 1100 
L 313 1709 
L 2253 4666 
z
" transform="scale(0.015625)"/>
       </defs>
       <use xlink:href="#DejaVuSans-34"/>
       <use xlink:href="#DejaVuSans-30" x="63.623047"/>
       <use xlink:href="#DejaVuSans-30" x="127.246094"/>
       <use xlink:href="#DejaVuSans-30" x="190.869141"/>
      </g>
     </g>
    </g>
    <g id="ytick_6">
     <g id="line2d_12">
      <g>
       <use xlink:href="#m603d5313e3" x="57.6" y="84.913153" style="stroke: #000000; stroke-width: 0.8"/>
      </g>
     </g>
     <g id="text_13">
      <!-- 5000 -->
      <g transform="translate(25.15 88.712372)scale(0.1 -0.1)">
       <use xlink:href="#DejaVuSans-35"/>
       <use xlink:href="#DejaVuSans-30" x="63.623047"/>
       <use xlink:href="#DejaVuSans-30" x="127.246094"/>
       <use xlink:href="#DejaVuSans-30" x="190.869141"/>
      </g>
     </g>
    </g>
    <g id="ytick_7">
     <g id="line2d_13">
      <g>
       <use xlink:href="#m603d5313e3" x="57.6" y="41.603258" style="stroke: #000000; stroke-width: 0.8"/>
      </g>
     </g>
     <g id="text_14">
      <!-- 6000 -->
      <g transform="translate(25.15 45.402476)scale(0.1 -0.1)">
       <defs>
        <path id="DejaVuSans-36" d="M 2113 2584 
Q 1688 2584 1439 2293 
Q 1191 2003 1191 1497 
Q 1191 994 1439 701 
Q 1688 409 2113 409 
Q 2538 409 2786 701 
Q 3034 994 3034 1497 
Q 3034 2003 2786 2293 
Q 2538 2584 2113 2584 
z
M 3366 4563 
L 3366 3988 
Q 3128 4100 2886 4159 
Q 2644 4219 2406 4219 
Q 1781 4219 1451 3797 
Q 1122 3375 1075 2522 
Q 1259 2794 1537 2939 
Q 1816 3084 2150 3084 
Q 2853 3084 3261 2657 
Q 3669 2231 3669 1497 
Q 3669 778 3244 343 
Q 2819 -91 2113 -91 
Q 1303 -91 875 529 
Q 447 1150 447 2328 
Q 447 3434 972 4092 
Q 1497 4750 2381 4750 
Q 2619 4750 2861 4703 
Q 3103 4656 3366 4563 
z
" transform="scale(0.015625)"/>
       </defs>
       <use xlink:href="#DejaVuSans-36"/>
       <use xlink:href="#DejaVuSans-30" x="63.623047"/>
       <use xlink:href="#DejaVuSans-30" x="127.246094"/>
       <use xlink:href="#DejaVuSans-30" x="190.869141"/>
      </g>
     </g>
    </g>
    <g id="text_15">
     <!-- $\chi^2$ -->
     <g transform="translate(19.05 180.078)rotate(-90)scale(0.1 -0.1)">
      <defs>
       <path id="DejaVuSans-Oblique-3c7" d="M 1922 -781 
L 1691 416 
L 394 -1334 
L -284 -1334 
L 1553 1141 
L 1269 2613 
Q 1194 3006 713 3006 
L 559 3006 
L 653 3500 
L 872 3494 
Q 1675 3472 1775 2950 
L 2006 1753 
L 3303 3503 
L 3981 3503 
L 2144 1028 
L 2428 -444 
Q 2503 -838 2984 -838 
L 3138 -838 
L 3044 -1331 
L 2825 -1325 
Q 2022 -1303 1922 -781 
z
" transform="scale(0.015625)"/>
      </defs>
      <use xlink:href="#DejaVuSans-Oblique-3c7" transform="translate(0 0.765625)"/>
      <use xlink:href="#DejaVuSans-32" transform="translate(63.652396 39.046875)scale(0.7)"/>
     </g>
    </g>
   </g>
   <g id="line2d_14">
    <path d="M 57.6 53.568 
L 58.221511 56.693982 
L 58.470115 58.412276 
L 58.594417 58.600132 
L 58.843021 59.342748 
L 58.967323 59.664707 
L 59.091625 61.010197 
L 59.713136 61.616556 
L 59.837438 61.80467 
L 60.210345 63.047297 
L 60.583251 63.406626 
L 60.831855 64.05179 
L 60.956157 64.053936 
L 61.080459 64.21825 
L 61.329064 65.170803 
L 61.453366 65.227351 
L 61.70197 65.565225 
L 61.950574 65.701634 
L 62.199179 66.315868 
L 62.447783 66.379191 
L 62.820689 66.475761 
L 63.069293 66.61191 
L 63.317898 67.27371 
L 63.4422 67.47413 
L 63.566502 68.854249 
L 64.06371 69.002346 
L 64.312315 69.925766 
L 64.436617 69.985084 
L 64.560919 70.77428 
L 64.933825 70.963695 
L 65.18243 71.509575 
L 65.306732 71.604795 
L 65.679638 72.264133 
L 65.80394 72.297425 
L 66.052544 72.725818 
L 66.301149 73.023862 
L 66.549753 73.856559 
L 66.798357 73.963319 
L 67.419868 74.847863 
L 67.668472 76.068851 
L 67.917076 76.636477 
L 68.041378 76.646924 
L 68.16568 77.050156 
L 68.289983 77.060447 
L 68.414285 77.335109 
L 68.538587 77.894143 
L 69.2844 78.175788 
L 69.533004 78.344158 
L 69.781608 78.41198 
L 70.030212 78.795543 
L 70.403119 78.886808 
L 70.651723 78.962754 
L 71.024629 79.708596 
L 71.148931 79.799713 
L 71.521838 80.473297 
L 71.64614 80.479668 
L 71.894744 80.728558 
L 72.391953 81.171116 
L 72.764859 81.288908 
L 72.889161 81.288095 
L 73.510672 81.739207 
L 73.759276 81.810194 
L 73.883578 82.346992 
L 74.132182 82.347989 
L 74.380787 82.606903 
L 74.629391 82.719964 
L 75.126599 82.925336 
L 75.375204 83.007666 
L 75.623808 83.019234 
L 75.74811 83.311031 
L 76.369621 83.342974 
L 76.618225 83.582578 
L 76.991131 83.684348 
L 77.239735 83.746594 
L 77.364038 83.74875 
L 77.612642 84.022832 
L 77.985548 84.032387 
L 78.234152 84.211013 
L 78.607059 84.325525 
L 78.731361 84.592731 
L 79.104267 84.65222 
L 80.222986 84.991912 
L 80.471591 86.130647 
L 81.341706 86.239306 
L 82.336123 86.60572 
L 82.584727 87.111036 
L 83.206237 87.302565 
L 83.95205 87.472484 
L 84.324956 88.497144 
L 84.573561 89.712965 
L 84.822165 89.731356 
L 84.946467 90.301881 
L 85.195071 90.331776 
L 85.443676 90.480909 
L 86.562395 90.611744 
L 86.810999 91.786482 
L 87.183905 91.790321 
L 87.308207 92.296718 
L 87.805416 92.370298 
L 88.05402 92.541059 
L 88.302624 92.586223 
L 88.675531 92.753603 
L 88.799833 92.75259 
L 89.048437 93.714011 
L 89.297041 93.78553 
L 89.669948 93.818977 
L 89.918552 94.063169 
L 90.664365 94.19198 
L 90.912969 94.354108 
L 91.161573 94.538982 
L 91.285875 94.539988 
L 91.410178 94.78942 
L 91.53448 96.012378 
L 91.907386 96.121952 
L 92.15599 96.879471 
L 92.404595 96.90248 
L 92.653199 97.112569 
L 92.777501 97.932048 
L 93.523314 98.126217 
L 94.020522 98.163622 
L 94.269126 98.287068 
L 94.642033 98.430448 
L 94.766335 98.922478 
L 95.014939 98.935672 
L 95.139241 99.292645 
L 95.387845 100.624386 
L 95.63645 101.698733 
L 95.885054 102.493216 
L 96.009356 102.587111 
L 96.133658 103.200625 
L 96.382262 103.225843 
L 97.003773 103.796172 
L 97.500982 103.934277 
L 97.625284 104.48542 
L 97.873888 104.490104 
L 98.122492 104.941516 
L 98.619701 104.952345 
L 98.744003 105.082255 
L 98.868305 105.740323 
L 98.992607 105.782708 
L 99.365513 106.920434 
L 99.489816 107.258416 
L 99.862722 109.399643 
L 99.987024 109.402876 
L 100.484233 112.246494 
L 100.608535 112.283552 
L 100.857139 112.691441 
L 101.105743 112.960131 
L 101.478649 113.040132 
L 101.851556 113.500073 
L 101.975858 113.504786 
L 102.10016 114.01584 
L 102.224462 114.02781 
L 102.597369 116.351098 
L 102.721671 116.351806 
L 102.845973 116.671325 
L 102.970275 116.673421 
L 103.094577 116.862702 
L 103.218879 117.382131 
L 103.343181 118.808255 
L 103.467483 118.812696 
L 103.964692 119.538604 
L 104.586203 119.760289 
L 104.834807 119.916922 
L 105.207713 119.946645 
L 105.456317 120.135559 
L 105.58062 120.146758 
L 105.829224 120.270144 
L 106.450734 120.350874 
L 106.699339 120.470516 
L 107.569454 120.610527 
L 107.818058 120.756037 
L 107.94236 120.755459 
L 108.190964 121.064665 
L 108.439568 121.226931 
L 108.812475 121.355359 
L 109.309683 121.425112 
L 109.558288 121.671553 
L 109.806892 121.864612 
L 110.179798 121.911204 
L 110.925611 122.006591 
L 111.174215 122.148536 
L 111.298517 122.148307 
L 111.671424 122.546499 
L 112.04433 122.575226 
L 112.292934 122.700877 
L 112.541538 123.094003 
L 112.790143 123.205202 
L 113.038747 123.5796 
L 113.660258 123.687299 
L 113.908862 123.824183 
L 114.033164 124.764463 
L 114.281768 124.771373 
L 114.530372 124.909638 
L 114.654675 126.037845 
L 114.778977 126.036555 
L 114.903279 126.543115 
L 115.027581 126.548698 
L 115.151883 127.221483 
L 115.649092 127.287125 
L 116.021998 127.916304 
L 116.892113 128.250299 
L 117.016415 128.25093 
L 117.265019 128.376976 
L 117.513623 128.377794 
L 117.88653 128.633398 
L 118.259436 128.685185 
L 118.383738 129.129091 
L 118.632342 129.130494 
L 119.129551 129.54984 
L 119.999666 129.558586 
L 120.24827 129.889662 
L 120.869781 129.933652 
L 121.118385 130.048208 
L 122.61001 130.353165 
L 123.72873 130.477532 
L 124.101636 130.524769 
L 124.598844 130.634719 
L 126.587678 130.913322 
L 127.084887 131.091111 
L 127.8307 131.153546 
L 127.955002 131.577004 
L 129.073721 131.609017 
L 129.322325 131.893416 
L 130.316742 131.938994 
L 130.441044 131.988217 
L 130.565346 132.904579 
L 131.559763 132.976236 
L 131.808368 133.130248 
L 131.93267 133.139976 
L 132.181274 133.280876 
L 132.678482 133.331178 
L 133.175691 133.630862 
L 133.548597 133.665967 
L 133.797202 133.757953 
L 134.418712 133.86498 
L 134.791619 133.993627 
L 135.040223 135.777538 
L 135.164525 135.785195 
L 135.661733 136.448022 
L 136.158942 136.603464 
L 136.283244 138.193827 
L 136.407546 138.211634 
L 136.65615 138.454956 
L 136.904755 138.455393 
L 137.153359 138.738942 
L 137.401963 138.745731 
L 137.899172 141.54197 
L 138.272078 141.669024 
L 139.515099 144.637503 
L 139.763703 144.660717 
L 140.012308 144.947868 
L 140.260912 144.948313 
L 140.509516 145.259621 
L 140.882423 145.297303 
L 141.628235 145.9132 
L 142.125444 146.073671 
L 142.374048 146.370072 
L 142.49835 146.374577 
L 142.622652 146.786654 
L 142.871257 146.800827 
L 142.995559 147.26836 
L 143.989976 147.390516 
L 144.114278 147.770999 
L 144.487184 147.91014 
L 144.735788 148.06497 
L 144.984393 148.107966 
L 145.357299 148.286127 
L 145.854507 148.323299 
L 145.97881 148.862785 
L 146.227414 148.862222 
L 146.476018 149.027303 
L 146.60032 149.068889 
L 146.724622 149.654397 
L 146.848924 149.654536 
L 147.097529 150.190739 
L 147.221831 150.201172 
L 147.967644 151.123818 
L 148.091946 151.124811 
L 148.713456 152.651066 
L 148.837758 152.657464 
L 148.962061 153.261516 
L 149.086363 153.270761 
L 149.210665 154.016783 
L 149.334967 154.033565 
L 149.583571 154.498108 
L 149.956478 154.673834 
L 150.08078 154.67144 
L 150.329384 155.000069 
L 151.075197 155.211731 
L 151.199499 155.314446 
L 151.572405 155.91174 
L 151.945312 156.069816 
L 152.193916 156.273449 
L 152.44252 156.402839 
L 152.815426 156.41278 
L 153.064031 156.771928 
L 154.058448 157.138577 
L 154.307052 157.334038 
L 154.431354 157.348824 
L 154.555656 157.951926 
L 155.425771 158.127342 
L 155.674375 158.546016 
L 156.54449 158.713425 
L 156.917396 159.071432 
L 157.290303 159.514207 
L 157.911813 159.534953 
L 158.160418 159.637754 
L 158.533324 159.708554 
L 158.781928 159.803535 
L 160.02495 160.109724 
L 160.273554 160.504215 
L 160.522158 160.578209 
L 161.019367 160.654702 
L 161.267971 160.844841 
L 161.516575 160.995228 
L 161.640877 161.007303 
L 161.889481 161.154658 
L 162.759596 161.246638 
L 163.0082 161.32393 
L 163.256805 161.446129 
L 163.381107 161.841475 
L 164.002617 161.899859 
L 164.251222 162.089499 
L 164.624128 162.3463 
L 165.618545 162.472888 
L 165.867149 162.597705 
L 166.240056 162.655321 
L 166.48866 162.806504 
L 166.985868 162.928013 
L 167.483077 163.05711 
L 167.607379 163.383667 
L 167.731681 164.192146 
L 167.855983 164.203979 
L 167.980285 164.57611 
L 168.22889 164.674121 
L 168.601796 164.821902 
L 168.8504 165.331603 
L 169.099005 165.546826 
L 169.223307 165.64788 
L 169.347609 166.053352 
L 169.596213 166.072375 
L 169.844817 166.272068 
L 170.093422 166.298568 
L 170.342026 166.628584 
L 171.087838 166.743539 
L 174.6926 167.602761 
L 176.059923 167.729719 
L 176.557132 167.779874 
L 179.291779 167.934821 
L 179.664685 168.000617 
L 181.032008 168.061032 
L 181.280613 168.284747 
L 183.269447 168.399138 
L 184.263864 168.548464 
L 184.512468 168.68553 
L 185.382583 168.797861 
L 185.506885 169.07006 
L 185.631187 169.944896 
L 186.99851 170.070978 
L 187.247115 170.090228 
L 187.495719 170.917277 
L 188.117229 170.955095 
L 188.614438 171.235072 
L 189.608855 171.360982 
L 189.857459 171.413703 
L 189.981761 171.774543 
L 190.230365 171.836775 
L 190.47897 172.595515 
L 190.976178 172.66529 
L 191.597689 172.730087 
L 191.970595 172.820858 
L 192.219199 172.933327 
L 192.716408 173.030468 
L 193.213616 173.025115 
L 193.337919 173.494754 
L 194.705242 173.636447 
L 196.445472 173.933531 
L 196.569774 174.225958 
L 198.68291 174.328201 
L 199.055816 174.382864 
L 199.553025 174.44152 
L 199.801629 174.530246 
L 200.920348 174.662093 
L 201.168952 174.770023 
L 201.914765 174.806831 
L 202.163369 174.90466 
L 202.660578 174.969997 
L 202.909182 175.079259 
L 203.406391 175.105975 
L 203.779297 175.431024 
L 205.892433 175.52498 
L 206.513944 175.633214 
L 206.88685 175.685676 
L 207.011152 175.703207 
L 207.259756 175.872879 
L 208.005569 175.888743 
L 208.129871 177.131663 
L 209.124288 177.157 
L 209.372892 177.253473 
L 209.745799 177.267175 
L 209.994403 177.511534 
L 210.98882 177.593526 
L 211.237424 177.672222 
L 211.858935 177.677227 
L 212.107539 177.790054 
L 215.587999 177.966559 
L 216.955322 178.033192 
L 217.701135 178.084737 
L 222.797522 178.403748 
L 223.046126 178.565673 
L 225.532168 178.672054 
L 229.261232 178.858728 
L 229.509836 179.144585 
L 230.131347 179.236701 
L 230.379951 179.342989 
L 231.49867 179.427879 
L 231.622973 180.211521 
L 236.222151 180.511811 
L 236.843662 180.697604 
L 237.713777 180.696929 
L 237.962381 180.835147 
L 239.702611 180.893159 
L 240.075517 181.122176 
L 240.572725 181.130701 
L 240.82133 181.294463 
L 242.312955 181.389875 
L 242.561559 181.634729 
L 244.177487 181.688352 
L 244.674695 182.043601 
L 247.28504 182.13853 
L 248.030853 182.440557 
L 249.398176 182.502103 
L 249.771082 182.552662 
L 250.392593 182.646453 
L 250.641197 182.932047 
L 251.014104 182.936272 
L 251.138406 183.407228 
L 252.505729 183.524983 
L 252.630031 184.046036 
L 253.500146 184.14989 
L 253.624448 184.713532 
L 254.370261 184.794609 
L 255.116074 184.921012 
L 257.726418 185.12069 
L 257.975023 185.335199 
L 258.845137 185.353115 
L 258.96944 185.695098 
L 259.093742 185.697768 
L 259.218044 186.130158 
L 261.33118 186.218346 
L 261.952691 186.246944 
L 262.076993 186.614265 
L 266.676171 186.785202 
L 266.924775 186.900195 
L 267.919192 186.966685 
L 268.292099 187.018864 
L 269.037912 187.11315 
L 269.162214 187.749008 
L 269.286516 187.755466 
L 269.53512 187.910963 
L 270.405235 188.173302 
L 270.529537 188.502959 
L 270.778141 188.509166 
L 270.902443 188.639296 
L 271.026746 189.106394 
L 271.523954 189.107436 
L 271.772558 189.534707 
L 272.021163 189.53774 
L 272.269767 189.72413 
L 272.891277 189.745405 
L 273.01558 190.205901 
L 273.388486 190.248514 
L 273.512788 190.70172 
L 273.761392 190.711091 
L 274.009997 190.962987 
L 274.258601 191.138541 
L 274.382903 191.138939 
L 274.631507 191.575025 
L 274.880111 191.578427 
L 275.004414 192.434633 
L 275.128716 192.437079 
L 275.37732 193.939735 
L 275.625924 193.956736 
L 275.874528 194.199858 
L 276.247435 194.210777 
L 276.371737 194.4796 
L 276.868945 194.548573 
L 277.11755 194.698106 
L 277.73906 194.759753 
L 277.987664 194.838452 
L 279.727894 194.928688 
L 279.976498 195.033307 
L 280.100801 195.031401 
L 280.349405 195.166126 
L 284.575677 195.256189 
L 284.824281 195.578589 
L 285.445792 195.582048 
L 285.694396 195.774845 
L 286.937417 195.809276 
L 287.186022 195.902675 
L 287.310324 195.905196 
L 287.558928 196.026313 
L 288.180439 196.134593 
L 288.429043 196.143999 
L 288.677647 196.408106 
L 289.174856 196.456793 
L 289.42346 196.660302 
L 290.04497 196.669402 
L 290.293575 196.830491 
L 292.531013 196.868107 
L 293.52543 196.861148 
L 293.649732 197.460685 
L 294.395545 197.48643 
L 294.644149 197.649796 
L 294.892753 197.724246 
L 296.508681 197.755749 
L 296.757285 197.826984 
L 300.734953 197.977672 
L 300.983557 198.115609 
L 304.215412 198.199116 
L 304.712621 198.221799 
L 304.961225 198.434007 
L 305.582736 198.435914 
L 305.83134 198.940508 
L 309.187497 198.999211 
L 309.436102 199.190374 
L 309.684706 199.347326 
L 312.667957 199.450927 
L 313.040863 199.521147 
L 315.278301 199.589798 
L 315.526906 199.767763 
L 316.148416 199.818033 
L 316.397021 200.019145 
L 317.391438 200.028341 
L 317.640042 200.218274 
L 317.888646 200.221489 
L 318.13725 200.404039 
L 318.634459 200.443412 
L 319.007365 200.76492 
L 319.628876 200.800282 
L 319.87748 200.874038 
L 321.120501 201.011496 
L 321.244803 201.26905 
L 322.23922 201.368744 
L 322.612127 201.436724 
L 326.216888 201.488138 
L 327.087003 201.508936 
L 330.194556 201.540897 
L 330.940369 201.574801 
L 335.290943 201.613237 
L 335.415245 201.989176 
L 349.212781 202.166998 
L 349.461385 202.277606 
L 349.834292 202.282226 
L 350.3315 203.276551 
L 350.828709 203.312314 
L 353.563355 203.32986 
L 353.687658 203.776113 
L 358.411138 203.812902 
L 358.659742 204.052406 
L 359.156951 204.052518 
L 359.281253 204.501576 
L 362.63741 204.573857 
L 362.886015 204.66542 
L 364.999151 204.737122 
L 365.869266 204.815754 
L 368.603912 205.040276 
L 368.852517 205.28859 
L 373.575997 205.559719 
L 374.446112 205.584945 
L 381.158427 205.724244 
L 381.407031 205.804666 
L 382.898656 205.92198 
L 384.763188 206.088147 
L 391.226899 206.232376 
L 391.351201 206.554065 
L 392.097014 206.583879 
L 392.345618 206.746592 
L 395.826077 206.860219 
L 396.447588 206.905144 
L 398.809328 206.917915 
L 399.057932 207.118775 
L 399.928047 207.150341 
L 401.419673 207.154721 
L 401.543975 207.214486 
L 401.668277 208.18971 
L 410.742332 208.323098 
L 410.990936 208.44258 
L 414.098489 208.521426 
L 414.595698 208.529861 
L 414.595698 208.529861 
" clip-path="url(#p8d535d9a77)" style="fill: none; stroke: #1f77b4; stroke-opacity: 0.3; stroke-width: 1.5; stroke-linecap: square"/>
   </g>
   <g id="line2d_15">
    <path d="M 57.6 295.063194 
L 69.160097 295.148781 
L 69.408702 295.206429 
L 69.781608 295.148781 
L 75.375204 295.138215 
L 75.623808 295.265631 
L 75.996714 295.209358 
L 83.579144 295.312634 
L 85.195071 295.309286 
L 295.514264 295.378106 
L 295.88717 295.428916 
L 414.595698 295.409327 
L 414.595698 295.409327 
" clip-path="url(#p8d535d9a77)" style="fill: none; stroke: #ff7f0e; stroke-opacity: 0.3; stroke-width: 1.5; stroke-linecap: square"/>
   </g>
   <g id="patch_3">
    <path d="M 57.6 307.584 
L 57.6 41.472 
" style="fill: none; stroke: #000000; stroke-width: 0.8; stroke-linejoin: miter; stroke-linecap: square"/>
   </g>
   <g id="patch_4">
    <path d="M 414.72 307.584 
L 414.72 41.472 
" style="fill: none; stroke: #000000; stroke-width: 0.8; stroke-linejoin: miter; stroke-linecap: square"/>
   </g>
   <g id="patch_5">
    <path d="M 57.6 307.584 
L 414.72 307.584 
" style="fill: none; stroke: #000000; stroke-width: 0.8; stroke-linejoin: miter; stroke-linecap: square"/>
   </g>
   <g id="patch_6">
    <path d="M 57.6 41.472 
L 414.72 41.472 
" style="fill: none; stroke: #000000; stroke-width: 0.8; stroke-linejoin: miter; stroke-linecap: square"/>
   </g>
   <g id="text_16">
    <!-- Best $\chi^2$ by Step -->
    <g transform="translate(189.42 35.472)scale(0.12 -0.12)">
     <defs>
      <path id="DejaVuSans-42" d="M 1259 2228 
L 1259 519 
L 2272 519 
Q 2781 519 3026 730 
Q 3272 941 3272 1375 
Q 3272 1813 3026 2020 
Q 2781 2228 2272 2228 
L 1259 2228 
z
M 1259 4147 
L 1259 2741 
L 2194 2741 
Q 2656 2741 2882 2914 
Q 3109 3088 3109 3444 
Q 3109 3797 2882 3972 
Q 2656 4147 2194 4147 
L 1259 4147 
z
M 628 4666 
L 2241 4666 
Q 2963 4666 3353 4366 
Q 3744 4066 3744 3513 
Q 3744 3084 3544 2831 
Q 3344 2578 2956 2516 
Q 3422 2416 3680 2098 
Q 3938 1781 3938 1306 
Q 3938 681 3513 340 
Q 3088 0 2303 0 
L 628 0 
L 628 4666 
z
" transform="scale(0.015625)"/>
      <path id="DejaVuSans-20" transform="scale(0.015625)"/>
      <path id="DejaVuSans-62" d="M 3116 1747 
Q 3116 2381 2855 2742 
Q 2594 3103 2138 3103 
Q 1681 3103 1420 2742 
Q 1159 2381 1159 1747 
Q 1159 1113 1420 752 
Q 1681 391 2138 391 
Q 2594 391 2855 752 
Q 3116 1113 3116 1747 
z
M 1159 2969 
Q 1341 3281 1617 3432 
Q 1894 3584 2278 3584 
Q 2916 3584 3314 3078 
Q 3713 2572 3713 1747 
Q 3713 922 3314 415 
Q 2916 -91 2278 -91 
Q 1894 -91 1617 61 
Q 1341 213 1159 525 
L 1159 0 
L 581 0 
L 581 4863 
L 1159 4863 
L 1159 2969 
z
" transform="scale(0.015625)"/>
      <path id="DejaVuSans-79" d="M 2059 -325 
Q 1816 -950 1584 -1140 
Q 1353 -1331 966 -1331 
L 506 -1331 
L 506 -850 
L 844 -850 
Q 1081 -850 1212 -737 
Q 1344 -625 1503 -206 
L 1606 56 
L 191 3500 
L 800 3500 
L 1894 763 
L 2988 3500 
L 3597 3500 
L 2059 -325 
z
" transform="scale(0.015625)"/>
      <path id="DejaVuSans-53" d="M 3425 4513 
L 3425 3897 
Q 3066 4069 2747 4153 
Q 2428 4238 2131 4238 
Q 1616 4238 1336 4038 
Q 1056 3838 1056 3469 
Q 1056 3159 1242 3001 
Q 1428 2844 1947 2747 
L 2328 2669 
Q 3034 2534 3370 2195 
Q 3706 1856 3706 1288 
Q 3706 609 3251 259 
Q 2797 -91 1919 -91 
Q 1588 -91 1214 -16 
Q 841 59 441 206 
L 441 856 
Q 825 641 1194 531 
Q 1563 422 1919 422 
Q 2459 422 2753 634 
Q 3047 847 3047 1241 
Q 3047 1584 2836 1778 
Q 2625 1972 2144 2069 
L 1759 2144 
Q 1053 2284 737 2584 
Q 422 2884 422 3419 
Q 422 4038 858 4394 
Q 1294 4750 2059 4750 
Q 2388 4750 2728 4690 
Q 3069 4631 3425 4513 
z
" transform="scale(0.015625)"/>
     </defs>
     <use xlink:href="#DejaVuSans-42" transform="translate(0 0.765625)"/>
     <use xlink:href="#DejaVuSans-65" transform="translate(68.603516 0.765625)"/>
     <use xlink:href="#DejaVuSans-73" transform="translate(130.126953 0.765625)"/>
     <use xlink:href="#DejaVuSans-74" transform="translate(182.226562 0.765625)"/>
     <use xlink:href="#DejaVuSans-20" transform="translate(221.435547 0.765625)"/>
     <use xlink:href="#DejaVuSans-Oblique-3c7" transform="translate(253.222656 0.765625)"/>
     <use xlink:href="#DejaVuSans-32" transform="translate(316.875052 39.046875)scale(0.7)"/>
     <use xlink:href="#DejaVuSans-20" transform="translate(364.14556 0.765625)"/>
     <use xlink:href="#DejaVuSans-62" transform="translate(395.932669 0.765625)"/>
     <use xlink:href="#DejaVuSans-79" transform="translate(459.409232 0.765625)"/>
     <use xlink:href="#DejaVuSans-20" transform="translate(518.588919 0.765625)"/>
     <use xlink:href="#DejaVuSans-53" transform="translate(550.376029 0.765625)"/>
     <use xlink:href="#DejaVuSans-74" transform="translate(613.852591 0.765625)"/>
     <use xlink:href="#DejaVuSans-65" transform="translate(653.061576 0.765625)"/>
     <use xlink:href="#DejaVuSans-70" transform="translate(714.585013 0.765625)"/>
    </g>
   </g>
  </g>
 </g>
 <defs>
  <clipPath id="p8d535d9a77">
   <rect x="57.6" y="41.472" width="357.12" height="266.112"/>
  </clipPath>
 </defs>
</svg>
