<?xml version="1.0" encoding="utf-8" standalone="no"?>
<!DOCTYPE svg PUBLIC "-//W3C//DTD SVG 1.1//EN"
  "http://www.w3.org/Graphics/SVG/1.1/DTD/svg11.dtd">
<svg xmlns:xlink="http://www.w3.org/1999/xlink" width="460.8pt" height="345.6pt" viewBox="0 0 460.8 345.6" xmlns="http://www.w3.org/2000/svg" version="1.1">
 <metadata>
  <rdf:RDF xmlns:dc="http://purl.org/dc/elements/1.1/" xmlns:cc="http://creativecommons.org/ns#" xmlns:rdf="http://www.w3.org/1999/02/22-rdf-syntax-ns#">
   <cc:Work>
    <dc:type rdf:resource="http://purl.org/dc/dcmitype/StillImage"/>
    <dc:date>2022-06-10T08:57:20.274086</dc:date>
    <dc:format>image/svg+xml</dc:format>
    <dc:creator>
     <cc:Agent>
      <dc:title>Matplotlib v3.5.0, https://matplotlib.org/</dc:title>
     </cc:Agent>
    </dc:creator>
   </cc:Work>
  </rdf:RDF>
 </metadata>
 <defs>
  <style type="text/css">*{stroke-linejoin: round; stroke-linecap: butt}</style>
 </defs>
 <g id="figure_1">
  <g id="patch_1">
   <path d="M 0 345.6 
L 460.8 345.6 
L 460.8 0 
L 0 0 
z
" style="fill: #ffffff"/>
  </g>
  <g id="axes_1">
   <g id="patch_2">
    <path d="M 57.6 307.584 
L 414.72 307.584 
L 414.72 41.472 
L 57.6 41.472 
z
" style="fill: #ffffff"/>
   </g>
   <g id="matplotlib.axis_1">
    <g id="xtick_1">
     <g id="line2d_1">
      <defs>
       <path id="m6ac9f56d63" d="M 0 0 
L 0 3.5 
" style="stroke: #000000; stroke-width: 0.8"/>
      </defs>
      <g>
       <use xlink:href="#m6ac9f56d63" x="57.6" y="307.584" style="stroke: #000000; stroke-width: 0.8"/>
      </g>
     </g>
     <g id="text_1">
      <!-- 500 -->
      <g transform="translate(48.05625 322.182437)scale(0.1 -0.1)">
       <defs>
        <path id="DejaVuSans-35" d="M 691 4666 
L 3169 4666 
L 3169 4134 
L 1269 4134 
L 1269 2991 
Q 1406 3038 1543 3061 
Q 1681 3084 1819 3084 
Q 2600 3084 3056 2656 
Q 3513 2228 3513 1497 
Q 3513 744 3044 326 
Q 2575 -91 1722 -91 
Q 1428 -91 1123 -41 
Q 819 9 494 109 
L 494 744 
Q 775 591 1075 516 
Q 1375 441 1709 441 
Q 2250 441 2565 725 
Q 2881 1009 2881 1497 
Q 2881 1984 2565 2268 
Q 2250 2553 1709 2553 
Q 1456 2553 1204 2497 
Q 953 2441 691 2322 
L 691 4666 
z
" transform="scale(0.015625)"/>
        <path id="DejaVuSans-30" d="M 2034 4250 
Q 1547 4250 1301 3770 
Q 1056 3291 1056 2328 
Q 1056 1369 1301 889 
Q 1547 409 2034 409 
Q 2525 409 2770 889 
Q 3016 1369 3016 2328 
Q 3016 3291 2770 3770 
Q 2525 4250 2034 4250 
z
M 2034 4750 
Q 2819 4750 3233 4129 
Q 3647 3509 3647 2328 
Q 3647 1150 3233 529 
Q 2819 -91 2034 -91 
Q 1250 -91 836 529 
Q 422 1150 422 2328 
Q 422 3509 836 4129 
Q 1250 4750 2034 4750 
z
" transform="scale(0.015625)"/>
       </defs>
       <use xlink:href="#DejaVuSans-35"/>
       <use xlink:href="#DejaVuSans-30" x="63.623047"/>
       <use xlink:href="#DejaVuSans-30" x="127.246094"/>
      </g>
     </g>
    </g>
    <g id="xtick_2">
     <g id="line2d_2">
      <g>
       <use xlink:href="#m6ac9f56d63" x="119.751062" y="307.584" style="stroke: #000000; stroke-width: 0.8"/>
      </g>
     </g>
     <g id="text_2">
      <!-- 1000 -->
      <g transform="translate(107.026062 322.182437)scale(0.1 -0.1)">
       <defs>
        <path id="DejaVuSans-31" d="M 794 531 
L 1825 531 
L 1825 4091 
L 703 3866 
L 703 4441 
L 1819 4666 
L 2450 4666 
L 2450 531 
L 3481 531 
L 3481 0 
L 794 0 
L 794 531 
z
" transform="scale(0.015625)"/>
       </defs>
       <use xlink:href="#DejaVuSans-31"/>
       <use xlink:href="#DejaVuSans-30" x="63.623047"/>
       <use xlink:href="#DejaVuSans-30" x="127.246094"/>
       <use xlink:href="#DejaVuSans-30" x="190.869141"/>
      </g>
     </g>
    </g>
    <g id="xtick_3">
     <g id="line2d_3">
      <g>
       <use xlink:href="#m6ac9f56d63" x="181.902123" y="307.584" style="stroke: #000000; stroke-width: 0.8"/>
      </g>
     </g>
     <g id="text_3">
      <!-- 1500 -->
      <g transform="translate(169.177123 322.182437)scale(0.1 -0.1)">
       <use xlink:href="#DejaVuSans-31"/>
       <use xlink:href="#DejaVuSans-35" x="63.623047"/>
       <use xlink:href="#DejaVuSans-30" x="127.246094"/>
       <use xlink:href="#DejaVuSans-30" x="190.869141"/>
      </g>
     </g>
    </g>
    <g id="xtick_4">
     <g id="line2d_4">
      <g>
       <use xlink:href="#m6ac9f56d63" x="244.053185" y="307.584" style="stroke: #000000; stroke-width: 0.8"/>
      </g>
     </g>
     <g id="text_4">
      <!-- 2000 -->
      <g transform="translate(231.328185 322.182437)scale(0.1 -0.1)">
       <defs>
        <path id="DejaVuSans-32" d="M 1228 531 
L 3431 531 
L 3431 0 
L 469 0 
L 469 531 
Q 828 903 1448 1529 
Q 2069 2156 2228 2338 
Q 2531 2678 2651 2914 
Q 2772 3150 2772 3378 
Q 2772 3750 2511 3984 
Q 2250 4219 1831 4219 
Q 1534 4219 1204 4116 
Q 875 4013 500 3803 
L 500 4441 
Q 881 4594 1212 4672 
Q 1544 4750 1819 4750 
Q 2544 4750 2975 4387 
Q 3406 4025 3406 3419 
Q 3406 3131 3298 2873 
Q 3191 2616 2906 2266 
Q 2828 2175 2409 1742 
Q 1991 1309 1228 531 
z
" transform="scale(0.015625)"/>
       </defs>
       <use xlink:href="#DejaVuSans-32"/>
       <use xlink:href="#DejaVuSans-30" x="63.623047"/>
       <use xlink:href="#DejaVuSans-30" x="127.246094"/>
       <use xlink:href="#DejaVuSans-30" x="190.869141"/>
      </g>
     </g>
    </g>
    <g id="xtick_5">
     <g id="line2d_5">
      <g>
       <use xlink:href="#m6ac9f56d63" x="306.204246" y="307.584" style="stroke: #000000; stroke-width: 0.8"/>
      </g>
     </g>
     <g id="text_5">
      <!-- 2500 -->
      <g transform="translate(293.479246 322.182437)scale(0.1 -0.1)">
       <use xlink:href="#DejaVuSans-32"/>
       <use xlink:href="#DejaVuSans-35" x="63.623047"/>
       <use xlink:href="#DejaVuSans-30" x="127.246094"/>
       <use xlink:href="#DejaVuSans-30" x="190.869141"/>
      </g>
     </g>
    </g>
    <g id="xtick_6">
     <g id="line2d_6">
      <g>
       <use xlink:href="#m6ac9f56d63" x="368.355308" y="307.584" style="stroke: #000000; stroke-width: 0.8"/>
      </g>
     </g>
     <g id="text_6">
      <!-- 3000 -->
      <g transform="translate(355.630308 322.182437)scale(0.1 -0.1)">
       <defs>
        <path id="DejaVuSans-33" d="M 2597 2516 
Q 3050 2419 3304 2112 
Q 3559 1806 3559 1356 
Q 3559 666 3084 287 
Q 2609 -91 1734 -91 
Q 1441 -91 1130 -33 
Q 819 25 488 141 
L 488 750 
Q 750 597 1062 519 
Q 1375 441 1716 441 
Q 2309 441 2620 675 
Q 2931 909 2931 1356 
Q 2931 1769 2642 2001 
Q 2353 2234 1838 2234 
L 1294 2234 
L 1294 2753 
L 1863 2753 
Q 2328 2753 2575 2939 
Q 2822 3125 2822 3475 
Q 2822 3834 2567 4026 
Q 2313 4219 1838 4219 
Q 1578 4219 1281 4162 
Q 984 4106 628 3988 
L 628 4550 
Q 988 4650 1302 4700 
Q 1616 4750 1894 4750 
Q 2613 4750 3031 4423 
Q 3450 4097 3450 3541 
Q 3450 3153 3228 2886 
Q 3006 2619 2597 2516 
z
" transform="scale(0.015625)"/>
       </defs>
       <use xlink:href="#DejaVuSans-33"/>
       <use xlink:href="#DejaVuSans-30" x="63.623047"/>
       <use xlink:href="#DejaVuSans-30" x="127.246094"/>
       <use xlink:href="#DejaVuSans-30" x="190.869141"/>
      </g>
     </g>
    </g>
    <g id="text_7">
     <!-- step -->
     <g transform="translate(225.344375 335.860562)scale(0.1 -0.1)">
      <defs>
       <path id="DejaVuSans-73" d="M 2834 3397 
L 2834 2853 
Q 2591 2978 2328 3040 
Q 2066 3103 1784 3103 
Q 1356 3103 1142 2972 
Q 928 2841 928 2578 
Q 928 2378 1081 2264 
Q 1234 2150 1697 2047 
L 1894 2003 
Q 2506 1872 2764 1633 
Q 3022 1394 3022 966 
Q 3022 478 2636 193 
Q 2250 -91 1575 -91 
Q 1294 -91 989 -36 
Q 684 19 347 128 
L 347 722 
Q 666 556 975 473 
Q 1284 391 1588 391 
Q 1994 391 2212 530 
Q 2431 669 2431 922 
Q 2431 1156 2273 1281 
Q 2116 1406 1581 1522 
L 1381 1569 
Q 847 1681 609 1914 
Q 372 2147 372 2553 
Q 372 3047 722 3315 
Q 1072 3584 1716 3584 
Q 2034 3584 2315 3537 
Q 2597 3491 2834 3397 
z
" transform="scale(0.015625)"/>
       <path id="DejaVuSans-74" d="M 1172 4494 
L 1172 3500 
L 2356 3500 
L 2356 3053 
L 1172 3053 
L 1172 1153 
Q 1172 725 1289 603 
Q 1406 481 1766 481 
L 2356 481 
L 2356 0 
L 1766 0 
Q 1100 0 847 248 
Q 594 497 594 1153 
L 594 3053 
L 172 3053 
L 172 3500 
L 594 3500 
L 594 4494 
L 1172 4494 
z
" transform="scale(0.015625)"/>
       <path id="DejaVuSans-65" d="M 3597 1894 
L 3597 1613 
L 953 1613 
Q 991 1019 1311 708 
Q 1631 397 2203 397 
Q 2534 397 2845 478 
Q 3156 559 3463 722 
L 3463 178 
Q 3153 47 2828 -22 
Q 2503 -91 2169 -91 
Q 1331 -91 842 396 
Q 353 884 353 1716 
Q 353 2575 817 3079 
Q 1281 3584 2069 3584 
Q 2775 3584 3186 3129 
Q 3597 2675 3597 1894 
z
M 3022 2063 
Q 3016 2534 2758 2815 
Q 2500 3097 2075 3097 
Q 1594 3097 1305 2825 
Q 1016 2553 972 2059 
L 3022 2063 
z
" transform="scale(0.015625)"/>
       <path id="DejaVuSans-70" d="M 1159 525 
L 1159 -1331 
L 581 -1331 
L 581 3500 
L 1159 3500 
L 1159 2969 
Q 1341 3281 1617 3432 
Q 1894 3584 2278 3584 
Q 2916 3584 3314 3078 
Q 3713 2572 3713 1747 
Q 3713 922 3314 415 
Q 2916 -91 2278 -91 
Q 1894 -91 1617 61 
Q 1341 213 1159 525 
z
M 3116 1747 
Q 3116 2381 2855 2742 
Q 2594 3103 2138 3103 
Q 1681 3103 1420 2742 
Q 1159 2381 1159 1747 
Q 1159 1113 1420 752 
Q 1681 391 2138 391 
Q 2594 391 2855 752 
Q 3116 1113 3116 1747 
z
" transform="scale(0.015625)"/>
      </defs>
      <use xlink:href="#DejaVuSans-73"/>
      <use xlink:href="#DejaVuSans-74" x="52.099609"/>
      <use xlink:href="#DejaVuSans-65" x="91.308594"/>
      <use xlink:href="#DejaVuSans-70" x="152.832031"/>
     </g>
    </g>
   </g>
   <g id="matplotlib.axis_2">
    <g id="ytick_1">
     <g id="line2d_7">
      <defs>
       <path id="m035cfdb11b" d="M 0 0 
L -3.5 0 
" style="stroke: #000000; stroke-width: 0.8"/>
      </defs>
      <g>
       <use xlink:href="#m035cfdb11b" x="57.6" y="305.343559" style="stroke: #000000; stroke-width: 0.8"/>
      </g>
     </g>
     <g id="text_8">
      <!-- 2000 -->
      <g transform="translate(25.15 309.142777)scale(0.1 -0.1)">
       <use xlink:href="#DejaVuSans-32"/>
       <use xlink:href="#DejaVuSans-30" x="63.623047"/>
       <use xlink:href="#DejaVuSans-30" x="127.246094"/>
       <use xlink:href="#DejaVuSans-30" x="190.869141"/>
      </g>
     </g>
    </g>
    <g id="ytick_2">
     <g id="line2d_8">
      <g>
       <use xlink:href="#m035cfdb11b" x="57.6" y="271.536757" style="stroke: #000000; stroke-width: 0.8"/>
      </g>
     </g>
     <g id="text_9">
      <!-- 2500 -->
      <g transform="translate(25.15 275.335975)scale(0.1 -0.1)">
       <use xlink:href="#DejaVuSans-32"/>
       <use xlink:href="#DejaVuSans-35" x="63.623047"/>
       <use xlink:href="#DejaVuSans-30" x="127.246094"/>
       <use xlink:href="#DejaVuSans-30" x="190.869141"/>
      </g>
     </g>
    </g>
    <g id="ytick_3">
     <g id="line2d_9">
      <g>
       <use xlink:href="#m035cfdb11b" x="57.6" y="237.729955" style="stroke: #000000; stroke-width: 0.8"/>
      </g>
     </g>
     <g id="text_10">
      <!-- 3000 -->
      <g transform="translate(25.15 241.529173)scale(0.1 -0.1)">
       <use xlink:href="#DejaVuSans-33"/>
       <use xlink:href="#DejaVuSans-30" x="63.623047"/>
       <use xlink:href="#DejaVuSans-30" x="127.246094"/>
       <use xlink:href="#DejaVuSans-30" x="190.869141"/>
      </g>
     </g>
    </g>
    <g id="ytick_4">
     <g id="line2d_10">
      <g>
       <use xlink:href="#m035cfdb11b" x="57.6" y="203.923153" style="stroke: #000000; stroke-width: 0.8"/>
      </g>
     </g>
     <g id="text_11">
      <!-- 3500 -->
      <g transform="translate(25.15 207.722371)scale(0.1 -0.1)">
       <use xlink:href="#DejaVuSans-33"/>
       <use xlink:href="#DejaVuSans-35" x="63.623047"/>
       <use xlink:href="#DejaVuSans-30" x="127.246094"/>
       <use xlink:href="#DejaVuSans-30" x="190.869141"/>
      </g>
     </g>
    </g>
    <g id="ytick_5">
     <g id="line2d_11">
      <g>
       <use xlink:href="#m035cfdb11b" x="57.6" y="170.116351" style="stroke: #000000; stroke-width: 0.8"/>
      </g>
     </g>
     <g id="text_12">
      <!-- 4000 -->
      <g transform="translate(25.15 173.91557)scale(0.1 -0.1)">
       <defs>
        <path id="DejaVuSans-34" d="M 2419 4116 
L 825 1625 
L 2419 1625 
L 2419 4116 
z
M 2253 4666 
L 3047 4666 
L 3047 1625 
L 3713 1625 
L 3713 1100 
L 3047 1100 
L 3047 0 
L 2419 0 
L 2419 1100 
L 313 1100 
L 313 1709 
L 2253 4666 
z
" transform="scale(0.015625)"/>
       </defs>
       <use xlink:href="#DejaVuSans-34"/>
       <use xlink:href="#DejaVuSans-30" x="63.623047"/>
       <use xlink:href="#DejaVuSans-30" x="127.246094"/>
       <use xlink:href="#DejaVuSans-30" x="190.869141"/>
      </g>
     </g>
    </g>
    <g id="ytick_6">
     <g id="line2d_12">
      <g>
       <use xlink:href="#m035cfdb11b" x="57.6" y="136.309549" style="stroke: #000000; stroke-width: 0.8"/>
      </g>
     </g>
     <g id="text_13">
      <!-- 4500 -->
      <g transform="translate(25.15 140.108768)scale(0.1 -0.1)">
       <use xlink:href="#DejaVuSans-34"/>
       <use xlink:href="#DejaVuSans-35" x="63.623047"/>
       <use xlink:href="#DejaVuSans-30" x="127.246094"/>
       <use xlink:href="#DejaVuSans-30" x="190.869141"/>
      </g>
     </g>
    </g>
    <g id="ytick_7">
     <g id="line2d_13">
      <g>
       <use xlink:href="#m035cfdb11b" x="57.6" y="102.502747" style="stroke: #000000; stroke-width: 0.8"/>
      </g>
     </g>
     <g id="text_14">
      <!-- 5000 -->
      <g transform="translate(25.15 106.301966)scale(0.1 -0.1)">
       <use xlink:href="#DejaVuSans-35"/>
       <use xlink:href="#DejaVuSans-30" x="63.623047"/>
       <use xlink:href="#DejaVuSans-30" x="127.246094"/>
       <use xlink:href="#DejaVuSans-30" x="190.869141"/>
      </g>
     </g>
    </g>
    <g id="ytick_8">
     <g id="line2d_14">
      <g>
       <use xlink:href="#m035cfdb11b" x="57.6" y="68.695945" style="stroke: #000000; stroke-width: 0.8"/>
      </g>
     </g>
     <g id="text_15">
      <!-- 5500 -->
      <g transform="translate(25.15 72.495164)scale(0.1 -0.1)">
       <use xlink:href="#DejaVuSans-35"/>
       <use xlink:href="#DejaVuSans-35" x="63.623047"/>
       <use xlink:href="#DejaVuSans-30" x="127.246094"/>
       <use xlink:href="#DejaVuSans-30" x="190.869141"/>
      </g>
     </g>
    </g>
    <g id="text_16">
     <!-- $\chi^2$ -->
     <g transform="translate(19.05 180.078)rotate(-90)scale(0.1 -0.1)">
      <defs>
       <path id="DejaVuSans-Oblique-3c7" d="M 1922 -781 
L 1691 416 
L 394 -1334 
L -284 -1334 
L 1553 1141 
L 1269 2613 
Q 1194 3006 713 3006 
L 559 3006 
L 653 3500 
L 872 3494 
Q 1675 3472 1775 2950 
L 2006 1753 
L 3303 3503 
L 3981 3503 
L 2144 1028 
L 2428 -444 
Q 2503 -838 2984 -838 
L 3138 -838 
L 3044 -1331 
L 2825 -1325 
Q 2022 -1303 1922 -781 
z
" transform="scale(0.015625)"/>
      </defs>
      <use xlink:href="#DejaVuSans-Oblique-3c7" transform="translate(0 0.765625)"/>
      <use xlink:href="#DejaVuSans-32" transform="translate(63.652396 39.046875)scale(0.7)"/>
     </g>
    </g>
   </g>
   <g id="line2d_15">
    <path d="M 57.6 53.568 
L 58.221511 58.448154 
L 58.470115 61.130681 
L 58.594417 61.423955 
L 58.843021 62.583296 
L 58.967323 63.085924 
L 59.091625 65.186448 
L 59.713136 66.13307 
L 59.837438 66.426746 
L 60.210345 68.366684 
L 60.583251 68.927653 
L 60.831855 69.934857 
L 60.956157 69.938206 
L 61.080459 70.194727 
L 61.329064 71.681813 
L 61.453366 71.770092 
L 61.70197 72.297567 
L 61.950574 72.510523 
L 62.199179 73.46944 
L 62.447783 73.568298 
L 62.696387 73.68971 
L 62.944991 73.740526 
L 63.069293 73.931609 
L 63.193596 74.872416 
L 63.317898 74.964783 
L 63.4422 75.277671 
L 63.566502 77.432255 
L 64.06371 77.663457 
L 64.312315 79.105063 
L 64.436617 79.197667 
L 64.560919 80.429728 
L 64.933825 80.725434 
L 65.18243 81.57764 
L 65.306732 81.726293 
L 65.679638 82.755623 
L 65.80394 82.807598 
L 66.052544 83.476387 
L 66.301149 83.941681 
L 66.549753 85.241652 
L 66.798357 85.408323 
L 67.171263 86.269491 
L 67.419868 86.789236 
L 67.668472 88.69539 
L 67.917076 89.581546 
L 68.041378 89.597855 
L 68.16568 90.227364 
L 68.289983 90.24343 
L 68.414285 90.672221 
L 68.538587 91.544962 
L 69.2844 91.984654 
L 69.408702 92.250628 
L 69.657306 92.276369 
L 69.781608 92.353386 
L 70.030212 92.952188 
L 70.278817 93.089961 
L 70.651723 93.213231 
L 71.024629 94.37761 
L 71.148931 94.519857 
L 71.397536 95.525998 
L 71.64614 95.581375 
L 71.770442 95.950596 
L 71.894744 95.969931 
L 72.391953 96.660834 
L 72.764859 96.844726 
L 72.889161 96.843457 
L 73.38637 97.464491 
L 73.759276 97.658537 
L 73.883578 98.496563 
L 74.132182 98.49812 
L 74.380787 98.902325 
L 74.629391 99.078831 
L 74.753693 99.119365 
L 75.002297 99.324288 
L 75.499506 99.539857 
L 75.623808 99.54604 
L 75.74811 100.001581 
L 76.369621 100.051449 
L 76.493923 100.422811 
L 76.866829 100.45486 
L 77.115433 100.687281 
L 77.364038 100.68493 
L 77.48834 101.106019 
L 77.985548 101.127732 
L 78.234152 101.406595 
L 78.358455 101.408831 
L 78.607059 101.585366 
L 78.731361 102.002517 
L 79.104267 102.095389 
L 80.098684 102.589672 
L 80.222986 102.625702 
L 80.471591 104.403447 
L 80.968799 104.506352 
L 81.714612 104.720461 
L 81.963216 104.914527 
L 82.21182 104.945754 
L 82.336123 105.145111 
L 82.584727 105.93399 
L 83.081935 106.229515 
L 83.454842 106.286231 
L 83.827748 106.494779 
L 83.95205 106.498267 
L 84.324956 108.097924 
L 84.573561 109.996013 
L 84.822165 110.024724 
L 84.946467 110.915404 
L 85.195071 110.962075 
L 85.443676 111.194896 
L 86.31379 111.273715 
L 86.562395 111.39915 
L 86.810999 113.233101 
L 87.183905 113.239095 
L 87.308207 114.029661 
L 87.805416 114.14453 
L 88.05402 114.411115 
L 88.302624 114.481623 
L 88.675531 114.742931 
L 88.799833 114.741349 
L 89.048437 116.24228 
L 89.297041 116.353931 
L 89.669948 116.406148 
L 89.918552 116.78737 
L 90.042854 116.803487 
L 90.291458 116.954336 
L 90.788667 117.088212 
L 91.410178 117.921163 
L 91.53448 119.830394 
L 91.783084 119.83236 
L 91.907386 120.001457 
L 92.15599 121.184063 
L 92.404595 121.219984 
L 92.653199 121.547967 
L 92.777501 122.827303 
L 93.523314 123.130432 
L 94.020522 123.188826 
L 94.269126 123.381546 
L 94.517731 123.423836 
L 94.642033 123.605384 
L 94.766335 124.373522 
L 95.014939 124.394119 
L 95.139241 124.951411 
L 95.387845 127.030469 
L 95.63645 128.707695 
L 95.885054 129.948009 
L 96.009356 130.094593 
L 96.133658 131.052387 
L 96.382262 131.091755 
L 97.003773 131.98213 
L 97.500982 132.197733 
L 97.625284 133.058155 
L 97.873888 133.065467 
L 98.122492 133.770192 
L 98.619701 133.787098 
L 98.744003 133.989908 
L 98.868305 135.017256 
L 98.992607 135.083426 
L 99.365513 136.859597 
L 99.489816 137.38724 
L 99.862722 140.730035 
L 99.987024 140.735082 
L 100.484233 145.17442 
L 100.608535 145.232274 
L 100.732837 145.82715 
L 100.857139 145.869053 
L 100.981441 146.263934 
L 101.478649 146.413415 
L 101.851556 147.131456 
L 101.975858 147.138813 
L 102.10016 147.936649 
L 102.224462 147.955336 
L 102.597369 151.582356 
L 102.721671 151.583462 
L 102.845973 152.082281 
L 102.970275 152.085554 
L 103.094577 152.381051 
L 103.218879 153.191962 
L 103.343181 155.418368 
L 103.467483 155.425301 
L 103.964692 156.558558 
L 104.4619 156.759347 
L 104.834807 157.149173 
L 105.207713 157.195574 
L 105.456317 157.490499 
L 105.58062 157.507982 
L 105.829224 157.700607 
L 106.077828 157.700013 
L 106.326432 157.816844 
L 106.450734 157.826641 
L 106.699339 158.013421 
L 107.445151 158.150991 
L 107.569454 158.231999 
L 107.818058 158.459164 
L 107.94236 158.458261 
L 108.190964 158.940981 
L 108.315266 158.980076 
L 108.563871 159.326314 
L 109.309683 159.503695 
L 109.433985 159.87881 
L 109.558288 159.888429 
L 109.806892 160.189826 
L 110.055496 160.262614 
L 110.801309 160.372461 
L 110.925611 160.411477 
L 111.174215 160.633074 
L 111.298517 160.632717 
L 111.547121 161.078571 
L 111.795726 161.250169 
L 112.168632 161.418303 
L 112.292934 161.495367 
L 112.417236 162.075522 
L 112.790143 162.282698 
L 113.038747 162.867193 
L 113.411653 162.896761 
L 113.660258 163.035327 
L 113.908862 163.249025 
L 114.033164 164.716951 
L 114.281768 164.727739 
L 114.530372 164.943592 
L 114.654675 166.704903 
L 114.778977 166.702888 
L 114.903279 167.493709 
L 115.027581 167.502425 
L 115.151883 168.552748 
L 115.649092 168.655227 
L 116.021998 169.637474 
L 116.270602 169.742191 
L 116.394904 169.775691 
L 116.643509 170.104195 
L 117.637926 170.530412 
L 117.88653 170.756972 
L 118.259436 170.837819 
L 118.383738 171.530826 
L 118.632342 171.533017 
L 119.129551 172.187683 
L 119.999666 172.201337 
L 120.24827 172.718199 
L 120.869781 172.786874 
L 121.118385 172.965713 
L 122.485708 173.423967 
L 124.474542 173.773191 
L 124.723147 173.903066 
L 125.096053 173.918144 
L 125.344657 174.06226 
L 125.841866 174.171228 
L 126.09047 174.243811 
L 126.587678 174.316294 
L 126.960585 174.592415 
L 127.8307 174.691322 
L 127.955002 175.352407 
L 129.073721 175.402384 
L 129.322325 175.846376 
L 129.943836 175.904627 
L 130.441044 175.994376 
L 130.565346 177.424961 
L 131.559763 177.536829 
L 131.808368 177.777266 
L 131.93267 177.792453 
L 132.181274 178.01242 
L 132.678482 178.090949 
L 133.175691 178.558804 
L 133.548597 178.613608 
L 133.797202 178.757213 
L 134.170108 178.776969 
L 134.418712 178.9243 
L 134.791619 179.125138 
L 135.040223 181.910105 
L 135.164525 181.92206 
L 135.288827 182.242905 
L 135.413129 182.243935 
L 135.786036 183.023604 
L 136.03464 183.194986 
L 136.158942 183.199506 
L 136.283244 185.682315 
L 136.407546 185.710114 
L 136.65615 186.089978 
L 136.904755 186.090661 
L 137.153359 186.533326 
L 137.401963 186.543924 
L 137.899172 190.909296 
L 138.147776 191.000105 
L 138.272078 191.107648 
L 139.515099 195.741913 
L 139.763703 195.778154 
L 139.888006 196.202883 
L 140.260912 196.227136 
L 140.509516 196.713139 
L 140.882423 196.771966 
L 141.006725 196.949822 
L 141.131027 197.333365 
L 141.255329 197.350561 
L 141.503933 197.690742 
L 141.752537 197.777001 
L 142.001142 197.983439 
L 142.125444 197.983999 
L 142.374048 198.446727 
L 142.49835 198.453761 
L 142.622652 199.097078 
L 142.871257 199.119205 
L 142.995559 199.849098 
L 143.989976 200.039802 
L 144.114278 200.633796 
L 144.362882 200.710815 
L 144.735788 201.092732 
L 144.984393 201.159855 
L 145.232997 201.320096 
L 145.481601 201.441032 
L 145.854507 201.496025 
L 145.97881 202.338248 
L 146.227414 202.337368 
L 146.476018 202.595086 
L 146.60032 202.660009 
L 146.724622 203.574079 
L 146.848924 203.574297 
L 147.097529 204.411395 
L 147.221831 204.427682 
L 147.967644 205.868078 
L 148.091946 205.869629 
L 148.713456 208.252354 
L 148.837758 208.262341 
L 148.962061 209.205363 
L 149.086363 209.219796 
L 149.210665 210.384455 
L 149.334967 210.410654 
L 149.583571 211.135879 
L 149.956478 211.410216 
L 150.08078 211.406477 
L 150.329384 211.91952 
L 150.70229 212.018493 
L 150.950895 212.22902 
L 151.075197 212.249957 
L 151.199499 212.410313 
L 151.572405 213.342782 
L 151.821009 213.41325 
L 152.44252 214.109466 
L 152.815426 214.124984 
L 153.064031 214.685673 
L 153.685541 214.849939 
L 153.809843 214.850033 
L 154.18275 215.538435 
L 154.431354 215.586298 
L 154.555656 216.527835 
L 155.052865 216.6227 
L 155.301469 216.747375 
L 155.425771 216.801688 
L 155.674375 217.455305 
L 156.047282 217.578532 
L 156.295886 217.662983 
L 156.54449 217.716656 
L 156.917396 218.275561 
L 157.290303 218.966803 
L 157.911813 218.999191 
L 158.160418 219.15968 
L 158.409022 219.26522 
L 158.533324 219.27021 
L 158.781928 219.418491 
L 159.279137 219.517619 
L 159.403439 219.518708 
L 159.900647 219.870615 
L 160.02495 219.8965 
L 160.273554 220.512363 
L 160.522158 220.62788 
L 161.019367 220.747297 
L 161.267971 221.044134 
L 161.516575 221.278912 
L 161.640877 221.297764 
L 161.889481 221.527808 
L 162.759596 221.671402 
L 163.0082 221.792069 
L 163.132503 221.812795 
L 163.256805 221.98284 
L 163.381107 222.600037 
L 164.002617 222.691185 
L 164.12692 222.985615 
L 164.251222 222.987243 
L 164.499826 223.232046 
L 164.74843 223.394799 
L 164.997034 223.525901 
L 165.618545 223.585773 
L 165.867149 223.780632 
L 166.240056 223.870579 
L 166.48866 224.106601 
L 166.861566 224.234311 
L 167.483077 224.497837 
L 167.607379 225.007643 
L 167.731681 226.269806 
L 167.855983 226.28828 
L 167.980285 226.869235 
L 168.104588 226.872255 
L 168.353192 227.072992 
L 168.477494 227.083962 
L 168.601796 227.252957 
L 168.8504 228.04868 
L 169.099005 228.384677 
L 169.223307 228.542438 
L 169.347609 229.175444 
L 169.596213 229.205142 
L 169.844817 229.516894 
L 170.093422 229.558265 
L 170.342026 230.073473 
L 170.839234 230.118256 
L 171.087838 230.252936 
L 173.698183 231.233018 
L 174.071089 231.345022 
L 174.443996 231.576011 
L 174.941204 231.66539 
L 176.059923 231.792518 
L 176.43283 231.868475 
L 177.302945 231.991547 
L 177.800153 232.079551 
L 179.043174 232.114492 
L 180.037591 232.228608 
L 180.410498 232.308554 
L 181.032008 232.309751 
L 181.280613 232.659005 
L 183.020842 232.779123 
L 183.642353 232.886538 
L 183.890957 233.013681 
L 184.263864 233.07071 
L 184.512468 233.284691 
L 185.382583 233.460058 
L 185.506885 233.885004 
L 185.631187 235.250761 
L 186.128395 235.26866 
L 186.377 235.427399 
L 187.247115 235.477647 
L 187.495719 236.768801 
L 188.117229 236.827842 
L 188.490136 237.265654 
L 189.484553 237.336042 
L 189.733157 237.545011 
L 189.857459 237.543801 
L 189.981761 238.10713 
L 190.230365 238.204284 
L 190.47897 239.388797 
L 190.851876 239.487322 
L 191.597689 239.598884 
L 191.846293 239.727224 
L 192.094897 239.743233 
L 192.343502 239.983432 
L 192.592106 240.06277 
L 193.213616 240.05947 
L 193.337919 240.792652 
L 193.710825 240.807463 
L 193.959429 240.929845 
L 195.20245 241.044556 
L 195.823961 241.1113 
L 196.072565 241.39374 
L 196.445472 241.477651 
L 196.569774 241.934176 
L 198.185701 242.042435 
L 199.553025 242.270702 
L 199.801629 242.409218 
L 200.920348 242.615052 
L 201.168952 242.783548 
L 201.914765 242.841011 
L 202.163369 242.993738 
L 202.660578 243.095738 
L 202.909182 243.266314 
L 203.406391 243.308023 
L 203.779297 243.815475 
L 205.14662 243.899712 
L 206.016735 243.968145 
L 206.265339 244.132386 
L 206.88685 244.213027 
L 207.011152 244.240396 
L 207.259756 244.505281 
L 208.005569 244.530047 
L 208.129871 246.470442 
L 209.124288 246.509997 
L 209.372892 246.660606 
L 209.745799 246.681998 
L 209.994403 247.063481 
L 210.98882 247.191482 
L 211.237424 247.314339 
L 211.858935 247.322153 
L 212.107539 247.498294 
L 214.842186 247.72456 
L 216.582416 247.862956 
L 222.797522 248.456369 
L 222.921824 248.708758 
L 224.537751 248.781968 
L 224.910658 248.844964 
L 229.261232 249.166663 
L 229.509836 249.612932 
L 230.007045 249.62233 
L 230.379951 249.922672 
L 231.49867 250.055199 
L 231.622973 251.278588 
L 234.730526 251.568448 
L 234.97913 251.67475 
L 236.222151 251.747388 
L 236.470755 251.833256 
L 236.595057 251.831393 
L 236.843662 252.037441 
L 237.713777 252.036387 
L 237.962381 252.252167 
L 239.702611 252.342732 
L 240.075517 252.700265 
L 240.572725 252.713574 
L 240.697027 252.97038 
L 240.945632 252.968684 
L 241.194236 253.08833 
L 242.312955 253.118185 
L 242.437257 253.495644 
L 244.177487 253.584155 
L 244.674695 254.138755 
L 246.290623 254.226913 
L 246.787832 254.28725 
L 247.533644 254.386861 
L 247.782249 254.642215 
L 248.403759 254.788489 
L 249.398176 254.854548 
L 249.64678 254.939166 
L 250.268291 254.976295 
L 250.392593 255.079903 
L 250.641197 255.525759 
L 251.014104 255.532355 
L 251.138406 256.267593 
L 252.257125 256.392424 
L 252.505729 256.451426 
L 252.630031 257.264872 
L 252.754333 257.268441 
L 253.002938 257.398225 
L 253.500146 257.427005 
L 253.624448 258.30694 
L 254.121657 258.412999 
L 257.726418 258.942578 
L 257.975023 259.27746 
L 258.720835 259.304247 
L 258.845137 259.30543 
L 258.96944 259.839319 
L 259.093742 259.843489 
L 259.218044 260.518517 
L 261.082576 260.562098 
L 261.828388 260.692566 
L 261.952691 260.700838 
L 262.076993 261.274284 
L 266.551869 261.487659 
L 266.676171 261.541145 
L 266.924775 261.720666 
L 267.919192 261.824469 
L 268.167797 261.912222 
L 268.416401 261.944451 
L 268.665005 262.040462 
L 269.037912 262.053123 
L 269.162214 263.045799 
L 269.286516 263.055881 
L 269.53512 263.298636 
L 270.156631 263.648145 
L 270.405235 263.708189 
L 270.529537 264.222836 
L 270.778141 264.232526 
L 270.902443 264.435679 
L 271.026746 265.164893 
L 271.523954 265.166519 
L 271.772558 265.833557 
L 272.021163 265.838292 
L 272.145465 266.126833 
L 272.891277 266.16249 
L 273.01558 266.881398 
L 273.388486 266.947923 
L 273.512788 267.655449 
L 273.761392 267.67008 
L 273.885694 268.0557 
L 274.009997 268.063328 
L 274.258601 268.337396 
L 274.382903 268.338018 
L 274.631507 269.018816 
L 274.880111 269.024128 
L 275.004414 270.360801 
L 275.128716 270.36462 
L 275.37732 272.710504 
L 275.625924 272.737045 
L 275.750226 273.115401 
L 276.247435 273.133643 
L 276.371737 273.553318 
L 276.868945 273.660996 
L 277.11755 273.894441 
L 277.73906 273.990681 
L 277.987664 274.113543 
L 279.727894 274.254415 
L 279.976498 274.417743 
L 280.100801 274.414767 
L 280.349405 274.625095 
L 283.58126 274.720731 
L 284.202771 274.752019 
L 284.575677 274.765697 
L 284.824281 275.269014 
L 285.445792 275.274414 
L 285.570094 275.578789 
L 286.937417 275.629154 
L 287.186022 275.774964 
L 287.310324 275.778899 
L 287.558928 275.967983 
L 287.68323 275.968263 
L 287.931834 276.13484 
L 288.429043 276.151709 
L 288.553345 276.559431 
L 289.174856 276.64003 
L 289.42346 276.95774 
L 290.04497 276.971946 
L 290.293575 277.223432 
L 291.7852 277.268919 
L 293.52543 277.271291 
L 293.649732 278.207265 
L 294.395545 278.247455 
L 294.644149 278.502496 
L 294.892753 278.618724 
L 296.508681 278.667906 
L 296.757285 278.779115 
L 300.734953 279.014363 
L 300.983557 279.229704 
L 303.593902 279.280616 
L 303.966808 279.358021 
L 304.712621 279.395483 
L 304.836923 279.718236 
L 305.582736 279.729751 
L 305.83134 280.517502 
L 307.820174 280.592474 
L 309.187497 280.609147 
L 309.3118 280.903248 
L 309.436102 280.907582 
L 309.560404 281.153913 
L 311.424936 281.184523 
L 311.67354 281.250673 
L 312.667957 281.314346 
L 312.916561 281.403012 
L 313.910978 281.474029 
L 315.278301 281.531147 
L 315.402604 281.805744 
L 316.148416 281.887458 
L 316.272718 282.199698 
L 317.391438 282.215782 
L 317.51574 282.50918 
L 317.888646 282.517316 
L 318.13725 282.802306 
L 318.634459 282.863773 
L 319.007365 283.365698 
L 319.628876 283.420904 
L 319.87748 283.536049 
L 320.996199 283.703329 
L 321.120501 283.750642 
L 321.244803 284.152725 
L 322.114918 284.195125 
L 322.487825 284.409003 
L 327.584212 284.524053 
L 331.56188 284.618523 
L 332.307692 284.645278 
L 334.918037 284.687223 
L 335.290943 284.690055 
L 335.415245 285.276956 
L 349.212781 285.554564 
L 349.461385 285.72724 
L 349.834292 285.734452 
L 350.3315 287.286752 
L 350.704407 287.339966 
L 353.563355 287.369975 
L 353.687658 288.066648 
L 358.411138 288.124081 
L 358.53544 288.491599 
L 359.156951 288.498159 
L 359.281253 289.199209 
L 362.63741 289.312052 
L 362.886015 289.454997 
L 363.756129 289.436044 
L 364.004734 289.537605 
L 368.47961 289.84129 
L 368.976819 290.434436 
L 371.214257 290.531379 
L 371.462861 290.606259 
L 373.327393 290.675745 
L 373.575997 290.851138 
L 374.197508 290.890669 
L 376.186342 290.948288 
L 377.180759 291.009533 
L 381.158427 291.107988 
L 381.407031 291.233539 
L 382.52575 291.313683 
L 382.898656 291.416685 
L 383.644469 291.47703 
L 383.893073 291.486423 
L 384.141678 291.657384 
L 387.622137 291.698193 
L 387.870741 291.777855 
L 389.113763 291.829017 
L 391.226899 291.901263 
L 391.351201 292.403471 
L 392.097014 292.450014 
L 392.221316 292.70535 
L 395.080265 292.784389 
L 398.809328 292.971497 
L 398.93363 293.288003 
L 401.295371 293.337601 
L 401.543975 293.434492 
L 401.668277 294.956971 
L 410.742332 295.165211 
L 410.990936 295.351741 
L 413.352677 295.416418 
L 413.974187 295.474068 
L 414.595698 295.488 
L 414.595698 295.488 
" clip-path="url(#p8d6aca5098)" style="fill: none; stroke: #1f77b4; stroke-opacity: 0.3; stroke-width: 1.5; stroke-linecap: square"/>
   </g>
   <g id="patch_3">
    <path d="M 57.6 307.584 
L 57.6 41.472 
" style="fill: none; stroke: #000000; stroke-width: 0.8; stroke-linejoin: miter; stroke-linecap: square"/>
   </g>
   <g id="patch_4">
    <path d="M 414.72 307.584 
L 414.72 41.472 
" style="fill: none; stroke: #000000; stroke-width: 0.8; stroke-linejoin: miter; stroke-linecap: square"/>
   </g>
   <g id="patch_5">
    <path d="M 57.6 307.584 
L 414.72 307.584 
" style="fill: none; stroke: #000000; stroke-width: 0.8; stroke-linejoin: miter; stroke-linecap: square"/>
   </g>
   <g id="patch_6">
    <path d="M 57.6 41.472 
L 414.72 41.472 
" style="fill: none; stroke: #000000; stroke-width: 0.8; stroke-linejoin: miter; stroke-linecap: square"/>
   </g>
   <g id="text_17">
    <!-- Average $\chi^2$ by Step -->
    <g transform="translate(177.72 35.472)scale(0.12 -0.12)">
     <defs>
      <path id="DejaVuSans-41" d="M 2188 4044 
L 1331 1722 
L 3047 1722 
L 2188 4044 
z
M 1831 4666 
L 2547 4666 
L 4325 0 
L 3669 0 
L 3244 1197 
L 1141 1197 
L 716 0 
L 50 0 
L 1831 4666 
z
" transform="scale(0.015625)"/>
      <path id="DejaVuSans-76" d="M 191 3500 
L 800 3500 
L 1894 563 
L 2988 3500 
L 3597 3500 
L 2284 0 
L 1503 0 
L 191 3500 
z
" transform="scale(0.015625)"/>
      <path id="DejaVuSans-72" d="M 2631 2963 
Q 2534 3019 2420 3045 
Q 2306 3072 2169 3072 
Q 1681 3072 1420 2755 
Q 1159 2438 1159 1844 
L 1159 0 
L 581 0 
L 581 3500 
L 1159 3500 
L 1159 2956 
Q 1341 3275 1631 3429 
Q 1922 3584 2338 3584 
Q 2397 3584 2469 3576 
Q 2541 3569 2628 3553 
L 2631 2963 
z
" transform="scale(0.015625)"/>
      <path id="DejaVuSans-61" d="M 2194 1759 
Q 1497 1759 1228 1600 
Q 959 1441 959 1056 
Q 959 750 1161 570 
Q 1363 391 1709 391 
Q 2188 391 2477 730 
Q 2766 1069 2766 1631 
L 2766 1759 
L 2194 1759 
z
M 3341 1997 
L 3341 0 
L 2766 0 
L 2766 531 
Q 2569 213 2275 61 
Q 1981 -91 1556 -91 
Q 1019 -91 701 211 
Q 384 513 384 1019 
Q 384 1609 779 1909 
Q 1175 2209 1959 2209 
L 2766 2209 
L 2766 2266 
Q 2766 2663 2505 2880 
Q 2244 3097 1772 3097 
Q 1472 3097 1187 3025 
Q 903 2953 641 2809 
L 641 3341 
Q 956 3463 1253 3523 
Q 1550 3584 1831 3584 
Q 2591 3584 2966 3190 
Q 3341 2797 3341 1997 
z
" transform="scale(0.015625)"/>
      <path id="DejaVuSans-67" d="M 2906 1791 
Q 2906 2416 2648 2759 
Q 2391 3103 1925 3103 
Q 1463 3103 1205 2759 
Q 947 2416 947 1791 
Q 947 1169 1205 825 
Q 1463 481 1925 481 
Q 2391 481 2648 825 
Q 2906 1169 2906 1791 
z
M 3481 434 
Q 3481 -459 3084 -895 
Q 2688 -1331 1869 -1331 
Q 1566 -1331 1297 -1286 
Q 1028 -1241 775 -1147 
L 775 -588 
Q 1028 -725 1275 -790 
Q 1522 -856 1778 -856 
Q 2344 -856 2625 -561 
Q 2906 -266 2906 331 
L 2906 616 
Q 2728 306 2450 153 
Q 2172 0 1784 0 
Q 1141 0 747 490 
Q 353 981 353 1791 
Q 353 2603 747 3093 
Q 1141 3584 1784 3584 
Q 2172 3584 2450 3431 
Q 2728 3278 2906 2969 
L 2906 3500 
L 3481 3500 
L 3481 434 
z
" transform="scale(0.015625)"/>
      <path id="DejaVuSans-20" transform="scale(0.015625)"/>
      <path id="DejaVuSans-62" d="M 3116 1747 
Q 3116 2381 2855 2742 
Q 2594 3103 2138 3103 
Q 1681 3103 1420 2742 
Q 1159 2381 1159 1747 
Q 1159 1113 1420 752 
Q 1681 391 2138 391 
Q 2594 391 2855 752 
Q 3116 1113 3116 1747 
z
M 1159 2969 
Q 1341 3281 1617 3432 
Q 1894 3584 2278 3584 
Q 2916 3584 3314 3078 
Q 3713 2572 3713 1747 
Q 3713 922 3314 415 
Q 2916 -91 2278 -91 
Q 1894 -91 1617 61 
Q 1341 213 1159 525 
L 1159 0 
L 581 0 
L 581 4863 
L 1159 4863 
L 1159 2969 
z
" transform="scale(0.015625)"/>
      <path id="DejaVuSans-79" d="M 2059 -325 
Q 1816 -950 1584 -1140 
Q 1353 -1331 966 -1331 
L 506 -1331 
L 506 -850 
L 844 -850 
Q 1081 -850 1212 -737 
Q 1344 -625 1503 -206 
L 1606 56 
L 191 3500 
L 800 3500 
L 1894 763 
L 2988 3500 
L 3597 3500 
L 2059 -325 
z
" transform="scale(0.015625)"/>
      <path id="DejaVuSans-53" d="M 3425 4513 
L 3425 3897 
Q 3066 4069 2747 4153 
Q 2428 4238 2131 4238 
Q 1616 4238 1336 4038 
Q 1056 3838 1056 3469 
Q 1056 3159 1242 3001 
Q 1428 2844 1947 2747 
L 2328 2669 
Q 3034 2534 3370 2195 
Q 3706 1856 3706 1288 
Q 3706 609 3251 259 
Q 2797 -91 1919 -91 
Q 1588 -91 1214 -16 
Q 841 59 441 206 
L 441 856 
Q 825 641 1194 531 
Q 1563 422 1919 422 
Q 2459 422 2753 634 
Q 3047 847 3047 1241 
Q 3047 1584 2836 1778 
Q 2625 1972 2144 2069 
L 1759 2144 
Q 1053 2284 737 2584 
Q 422 2884 422 3419 
Q 422 4038 858 4394 
Q 1294 4750 2059 4750 
Q 2388 4750 2728 4690 
Q 3069 4631 3425 4513 
z
" transform="scale(0.015625)"/>
     </defs>
     <use xlink:href="#DejaVuSans-41" transform="translate(0 0.765625)"/>
     <use xlink:href="#DejaVuSans-76" transform="translate(68.408203 0.765625)"/>
     <use xlink:href="#DejaVuSans-65" transform="translate(127.587891 0.765625)"/>
     <use xlink:href="#DejaVuSans-72" transform="translate(189.111328 0.765625)"/>
     <use xlink:href="#DejaVuSans-61" transform="translate(230.224609 0.765625)"/>
     <use xlink:href="#DejaVuSans-67" transform="translate(291.503906 0.765625)"/>
     <use xlink:href="#DejaVuSans-65" transform="translate(354.980469 0.765625)"/>
     <use xlink:href="#DejaVuSans-20" transform="translate(416.503906 0.765625)"/>
     <use xlink:href="#DejaVuSans-Oblique-3c7" transform="translate(448.291016 0.765625)"/>
     <use xlink:href="#DejaVuSans-32" transform="translate(511.943411 39.046875)scale(0.7)"/>
     <use xlink:href="#DejaVuSans-20" transform="translate(559.213919 0.765625)"/>
     <use xlink:href="#DejaVuSans-62" transform="translate(591.001029 0.765625)"/>
     <use xlink:href="#DejaVuSans-79" transform="translate(654.477591 0.765625)"/>
     <use xlink:href="#DejaVuSans-20" transform="translate(713.657279 0.765625)"/>
     <use xlink:href="#DejaVuSans-53" transform="translate(745.444388 0.765625)"/>
     <use xlink:href="#DejaVuSans-74" transform="translate(808.920951 0.765625)"/>
     <use xlink:href="#DejaVuSans-65" transform="translate(848.129935 0.765625)"/>
     <use xlink:href="#DejaVuSans-70" transform="translate(909.653372 0.765625)"/>
    </g>
   </g>
  </g>
 </g>
 <defs>
  <clipPath id="p8d6aca5098">
   <rect x="57.6" y="41.472" width="357.12" height="266.112"/>
  </clipPath>
 </defs>
</svg>
