<?xml version="1.0" encoding="utf-8" standalone="no"?>
<!DOCTYPE svg PUBLIC "-//W3C//DTD SVG 1.1//EN"
  "http://www.w3.org/Graphics/SVG/1.1/DTD/svg11.dtd">
<svg xmlns:xlink="http://www.w3.org/1999/xlink" width="460.8pt" height="345.6pt" viewBox="0 0 460.8 345.6" xmlns="http://www.w3.org/2000/svg" version="1.1">
 <metadata>
  <rdf:RDF xmlns:dc="http://purl.org/dc/elements/1.1/" xmlns:cc="http://creativecommons.org/ns#" xmlns:rdf="http://www.w3.org/1999/02/22-rdf-syntax-ns#">
   <cc:Work>
    <dc:type rdf:resource="http://purl.org/dc/dcmitype/StillImage"/>
    <dc:date>2022-06-10T08:58:05.629675</dc:date>
    <dc:format>image/svg+xml</dc:format>
    <dc:creator>
     <cc:Agent>
      <dc:title>Matplotlib v3.5.0, https://matplotlib.org/</dc:title>
     </cc:Agent>
    </dc:creator>
   </cc:Work>
  </rdf:RDF>
 </metadata>
 <defs>
  <style type="text/css">*{stroke-linejoin: round; stroke-linecap: butt}</style>
 </defs>
 <g id="figure_1">
  <g id="patch_1">
   <path d="M 0 345.6 
L 460.8 345.6 
L 460.8 0 
L 0 0 
z
" style="fill: #ffffff"/>
  </g>
  <g id="axes_1">
   <g id="patch_2">
    <path d="M 57.6 307.584 
L 414.72 307.584 
L 414.72 41.472 
L 57.6 41.472 
z
" style="fill: #ffffff"/>
   </g>
   <g id="PolyCollection_1">
    <path d="M 73.832727 663.935824 
L 73.832727 2721.133671 
L 76.860351 2690.052251 
L 79.887975 2658.970848 
L 82.915599 2627.889413 
L 85.943209 2596.808122 
L 88.970834 2565.726701 
L 91.998458 2534.645299 
L 95.026082 2503.563864 
L 97.312834 576.147128 
L 100.340458 545.067378 
L 103.368082 513.988735 
L 106.395706 482.911874 
L 109.42333 451.837902 
L 112.450954 420.768697 
L 115.478578 389.707293 
L 118.506188 358.658697 
L 121.533813 327.63124 
L 124.561437 296.638838 
L 127.589061 265.707974 
L 130.616685 244.507182 
L 133.644309 231.56176 
L 136.671933 218.619565 
L 139.699557 205.682858 
L 142.727181 192.754964 
L 145.754805 179.84166 
L 148.782429 166.95219 
L 151.810053 154.101821 
L 154.837663 141.315397 
L 157.865287 128.633366 
L 160.892911 116.121168 
L 163.920535 103.883725 
L 166.948159 92.086536 
L 169.975784 82.708352 
L 173.003408 77.815222 
L 176.031032 75.581113 
L 179.058656 73.352199 
L 182.08628 71.077696 
L 185.113904 68.55962 
L 188.141528 65.247168 
L 191.169138 60.652078 
L 194.196762 54.856821 
L 197.224386 51.919874 
L 200.25201 55.943786 
L 203.279634 62.666405 
L 206.307258 69.841439 
L 209.334882 74.611926 
L 212.362506 79.532683 
L 215.390131 84.512085 
L 218.417755 89.491256 
L 221.445379 94.466693 
L 224.473003 99.436679 
L 227.500627 104.4733 
L 230.528237 109.735638 
L 233.555861 114.833233 
L 236.583485 120.047634 
L 239.611109 125.411237 
L 242.638733 130.752492 
L 245.666357 136.042034 
L 248.693981 141.213946 
L 251.721605 146.463661 
L 254.749229 154.443669 
L 257.776853 164.156063 
L 260.804477 173.469282 
L 263.832102 177.388906 
L 266.859712 183.284996 
L 269.887336 188.111919 
L 272.91496 187.51855 
L 275.942584 185.321659 
L 278.970208 182.250826 
L 281.997832 177.438847 
L 285.025456 169.75701 
L 288.05308 158.68883 
L 291.080704 144.910057 
L 294.108328 129.742943 
L 297.135952 114.365253 
L 300.163576 99.905181 
L 303.1912 89.306593 
L 306.21881 78.597783 
L 309.246434 69.590033 
L 312.274058 66.037802 
L 315.301683 63.701585 
L 318.329307 62.093718 
L 321.356931 61.2017 
L 324.384555 61.168514 
L 327.412179 62.012071 
L 330.439803 63.305703 
L 333.467427 65.255087 
L 336.495051 68.191132 
L 339.522675 71.731641 
L 342.550285 76.233548 
L 345.577909 82.381415 
L 348.605533 92.931711 
L 351.633157 118.292779 
L 354.660781 154.163875 
L 357.688405 199.118412 
L 360.716029 246.730285 
L 363.743654 290.54527 
L 366.771278 333.166936 
L 369.798902 385.746236 
L 372.826526 488.304573 
L 375.85415 1035.746122 
L 378.88176 2002.083412 
L 381.909384 4891.876489 
L 384.937008 8632.002601 
L 394.01988 54321.789235 
L 395.459649 61908.696979 
L 398.487273 77862.862323 
L 398.487273 -3211.369489 
L 398.487273 -3211.369489 
L 395.459649 -831.406528 
L 394.01988 221.160111 
L 384.937008 393.932137 
L 381.909384 2173.218471 
L 378.88176 1151.750377 
L 375.85415 619.787625 
L 372.826526 412.619016 
L 369.798902 299.756554 
L 366.771278 246.418919 
L 363.743654 217.570231 
L 360.716029 190.94718 
L 357.688405 158.258666 
L 354.660781 124.811677 
L 351.633157 99.295092 
L 348.605533 83.91306 
L 345.577909 75.634546 
L 342.550285 70.133202 
L 339.522675 66.397136 
L 336.495051 63.80106 
L 333.467427 61.914249 
L 330.439803 60.437927 
L 327.412179 59.329423 
L 324.384555 58.936036 
L 321.356931 59.283948 
L 318.329307 60.3576 
L 315.301683 61.215632 
L 312.274058 62.605618 
L 309.246434 65.705431 
L 306.21881 67.996946 
L 303.1912 70.567979 
L 300.163576 73.391808 
L 297.135952 76.450907 
L 294.108328 79.736655 
L 291.080704 83.264223 
L 288.05308 87.070205 
L 285.025456 91.195675 
L 281.997832 95.66462 
L 278.970208 100.478464 
L 275.942584 105.597991 
L 272.91496 110.910343 
L 269.887336 115.566157 
L 266.859712 119.86699 
L 263.832102 123.876823 
L 260.804477 127.348013 
L 257.776853 130.116497 
L 254.749229 132.007416 
L 251.721605 132.814256 
L 248.693981 132.371762 
L 245.666357 130.658241 
L 242.638733 127.808195 
L 239.611109 123.695899 
L 236.583485 118.74194 
L 233.555861 113.645368 
L 230.528237 108.081899 
L 227.500627 102.500695 
L 224.473003 96.907424 
L 221.445379 91.109013 
L 218.417755 85.179277 
L 215.390131 79.235036 
L 212.362506 73.462685 
L 209.334882 68.449946 
L 206.307258 64.820575 
L 203.279634 60.237475 
L 200.25201 53.939575 
L 197.224386 50.562629 
L 194.196762 46.975824 
L 191.169138 44.783753 
L 188.141528 44.550554 
L 185.113904 46.004407 
L 182.08628 48.74257 
L 179.058656 52.402314 
L 176.031032 28.418644 
L 173.003408 -60.881258 
L 169.975784 -101.233691 
L 166.948159 -110.123696 
L 163.920535 -100.896582 
L 160.892911 -100.753068 
L 157.865287 -126.507087 
L 154.837663 -127.593709 
L 151.810053 -114.123046 
L 148.782429 -92.751649 
L 145.754805 -67.153524 
L 142.727181 -39.24588 
L 139.699557 -10.041067 
L 136.671933 19.902998 
L 133.644309 50.256776 
L 130.616685 80.793688 
L 127.589061 111.299249 
L 124.561437 141.472048 
L 121.533813 170.8096 
L 118.506188 198.608238 
L 115.478578 224.478669 
L 112.450954 244.793783 
L 109.42333 258.406447 
L 106.395706 272.935539 
L 103.368082 289.454753 
L 100.340458 309.806192 
L 97.312834 335.551761 
L 95.026082 441.165531 
L 91.998458 477.448495 
L 88.970834 508.529486 
L 85.943209 539.610651 
L 82.915599 570.691778 
L 79.887975 601.773107 
L 76.860351 632.854446 
L 73.832727 663.935824 
z
" clip-path="url(#p07150bb2f8)" style="fill: #1f77b4; fill-opacity: 0.5"/>
   </g>
   <g id="matplotlib.axis_1">
    <g id="xtick_1">
     <g id="line2d_1">
      <defs>
       <path id="m5bdd6b0d3f" d="M 0 0 
L 0 3.5 
" style="stroke: #000000; stroke-width: 0.8"/>
      </defs>
      <g>
       <use xlink:href="#m5bdd6b0d3f" x="59.334629" y="307.584" style="stroke: #000000; stroke-width: 0.8"/>
      </g>
     </g>
     <g id="text_1">
      <!-- 5 -->
      <g transform="translate(56.153379 322.182437)scale(0.1 -0.1)">
       <defs>
        <path id="DejaVuSans-35" d="M 691 4666 
L 3169 4666 
L 3169 4134 
L 1269 4134 
L 1269 2991 
Q 1406 3038 1543 3061 
Q 1681 3084 1819 3084 
Q 2600 3084 3056 2656 
Q 3513 2228 3513 1497 
Q 3513 744 3044 326 
Q 2575 -91 1722 -91 
Q 1428 -91 1123 -41 
Q 819 9 494 109 
L 494 744 
Q 775 591 1075 516 
Q 1375 441 1709 441 
Q 2250 441 2565 725 
Q 2881 1009 2881 1497 
Q 2881 1984 2565 2268 
Q 2250 2553 1709 2553 
Q 1456 2553 1204 2497 
Q 953 2441 691 2322 
L 691 4666 
z
" transform="scale(0.015625)"/>
       </defs>
       <use xlink:href="#DejaVuSans-35"/>
      </g>
     </g>
    </g>
    <g id="xtick_2">
     <g id="line2d_2">
      <g>
       <use xlink:href="#m5bdd6b0d3f" x="129.691478" y="307.584" style="stroke: #000000; stroke-width: 0.8"/>
      </g>
     </g>
     <g id="text_2">
      <!-- 10 -->
      <g transform="translate(123.328978 322.182437)scale(0.1 -0.1)">
       <defs>
        <path id="DejaVuSans-31" d="M 794 531 
L 1825 531 
L 1825 4091 
L 703 3866 
L 703 4441 
L 1819 4666 
L 2450 4666 
L 2450 531 
L 3481 531 
L 3481 0 
L 794 0 
L 794 531 
z
" transform="scale(0.015625)"/>
        <path id="DejaVuSans-30" d="M 2034 4250 
Q 1547 4250 1301 3770 
Q 1056 3291 1056 2328 
Q 1056 1369 1301 889 
Q 1547 409 2034 409 
Q 2525 409 2770 889 
Q 3016 1369 3016 2328 
Q 3016 3291 2770 3770 
Q 2525 4250 2034 4250 
z
M 2034 4750 
Q 2819 4750 3233 4129 
Q 3647 3509 3647 2328 
Q 3647 1150 3233 529 
Q 2819 -91 2034 -91 
Q 1250 -91 836 529 
Q 422 1150 422 2328 
Q 422 3509 836 4129 
Q 1250 4750 2034 4750 
z
" transform="scale(0.015625)"/>
       </defs>
       <use xlink:href="#DejaVuSans-31"/>
       <use xlink:href="#DejaVuSans-30" x="63.623047"/>
      </g>
     </g>
    </g>
    <g id="xtick_3">
     <g id="line2d_3">
      <g>
       <use xlink:href="#m5bdd6b0d3f" x="200.048327" y="307.584" style="stroke: #000000; stroke-width: 0.8"/>
      </g>
     </g>
     <g id="text_3">
      <!-- 15 -->
      <g transform="translate(193.685827 322.182437)scale(0.1 -0.1)">
       <use xlink:href="#DejaVuSans-31"/>
       <use xlink:href="#DejaVuSans-35" x="63.623047"/>
      </g>
     </g>
    </g>
    <g id="xtick_4">
     <g id="line2d_4">
      <g>
       <use xlink:href="#m5bdd6b0d3f" x="270.405176" y="307.584" style="stroke: #000000; stroke-width: 0.8"/>
      </g>
     </g>
     <g id="text_4">
      <!-- 20 -->
      <g transform="translate(264.042676 322.182437)scale(0.1 -0.1)">
       <defs>
        <path id="DejaVuSans-32" d="M 1228 531 
L 3431 531 
L 3431 0 
L 469 0 
L 469 531 
Q 828 903 1448 1529 
Q 2069 2156 2228 2338 
Q 2531 2678 2651 2914 
Q 2772 3150 2772 3378 
Q 2772 3750 2511 3984 
Q 2250 4219 1831 4219 
Q 1534 4219 1204 4116 
Q 875 4013 500 3803 
L 500 4441 
Q 881 4594 1212 4672 
Q 1544 4750 1819 4750 
Q 2544 4750 2975 4387 
Q 3406 4025 3406 3419 
Q 3406 3131 3298 2873 
Q 3191 2616 2906 2266 
Q 2828 2175 2409 1742 
Q 1991 1309 1228 531 
z
" transform="scale(0.015625)"/>
       </defs>
       <use xlink:href="#DejaVuSans-32"/>
       <use xlink:href="#DejaVuSans-30" x="63.623047"/>
      </g>
     </g>
    </g>
    <g id="xtick_5">
     <g id="line2d_5">
      <g>
       <use xlink:href="#m5bdd6b0d3f" x="340.762025" y="307.584" style="stroke: #000000; stroke-width: 0.8"/>
      </g>
     </g>
     <g id="text_5">
      <!-- 25 -->
      <g transform="translate(334.399525 322.182437)scale(0.1 -0.1)">
       <use xlink:href="#DejaVuSans-32"/>
       <use xlink:href="#DejaVuSans-35" x="63.623047"/>
      </g>
     </g>
    </g>
    <g id="xtick_6">
     <g id="line2d_6">
      <g>
       <use xlink:href="#m5bdd6b0d3f" x="411.118874" y="307.584" style="stroke: #000000; stroke-width: 0.8"/>
      </g>
     </g>
     <g id="text_6">
      <!-- 30 -->
      <g transform="translate(404.756374 322.182437)scale(0.1 -0.1)">
       <defs>
        <path id="DejaVuSans-33" d="M 2597 2516 
Q 3050 2419 3304 2112 
Q 3559 1806 3559 1356 
Q 3559 666 3084 287 
Q 2609 -91 1734 -91 
Q 1441 -91 1130 -33 
Q 819 25 488 141 
L 488 750 
Q 750 597 1062 519 
Q 1375 441 1716 441 
Q 2309 441 2620 675 
Q 2931 909 2931 1356 
Q 2931 1769 2642 2001 
Q 2353 2234 1838 2234 
L 1294 2234 
L 1294 2753 
L 1863 2753 
Q 2328 2753 2575 2939 
Q 2822 3125 2822 3475 
Q 2822 3834 2567 4026 
Q 2313 4219 1838 4219 
Q 1578 4219 1281 4162 
Q 984 4106 628 3988 
L 628 4550 
Q 988 4650 1302 4700 
Q 1616 4750 1894 4750 
Q 2613 4750 3031 4423 
Q 3450 4097 3450 3541 
Q 3450 3153 3228 2886 
Q 3006 2619 2597 2516 
z
" transform="scale(0.015625)"/>
       </defs>
       <use xlink:href="#DejaVuSans-33"/>
       <use xlink:href="#DejaVuSans-30" x="63.623047"/>
      </g>
     </g>
    </g>
    <g id="text_7">
     <!-- log $\nu$ -->
     <g transform="translate(224.11 335.862125)scale(0.1 -0.1)">
      <defs>
       <path id="DejaVuSans-6c" d="M 603 4863 
L 1178 4863 
L 1178 0 
L 603 0 
L 603 4863 
z
" transform="scale(0.015625)"/>
       <path id="DejaVuSans-6f" d="M 1959 3097 
Q 1497 3097 1228 2736 
Q 959 2375 959 1747 
Q 959 1119 1226 758 
Q 1494 397 1959 397 
Q 2419 397 2687 759 
Q 2956 1122 2956 1747 
Q 2956 2369 2687 2733 
Q 2419 3097 1959 3097 
z
M 1959 3584 
Q 2709 3584 3137 3096 
Q 3566 2609 3566 1747 
Q 3566 888 3137 398 
Q 2709 -91 1959 -91 
Q 1206 -91 779 398 
Q 353 888 353 1747 
Q 353 2609 779 3096 
Q 1206 3584 1959 3584 
z
" transform="scale(0.015625)"/>
       <path id="DejaVuSans-67" d="M 2906 1791 
Q 2906 2416 2648 2759 
Q 2391 3103 1925 3103 
Q 1463 3103 1205 2759 
Q 947 2416 947 1791 
Q 947 1169 1205 825 
Q 1463 481 1925 481 
Q 2391 481 2648 825 
Q 2906 1169 2906 1791 
z
M 3481 434 
Q 3481 -459 3084 -895 
Q 2688 -1331 1869 -1331 
Q 1566 -1331 1297 -1286 
Q 1028 -1241 775 -1147 
L 775 -588 
Q 1028 -725 1275 -790 
Q 1522 -856 1778 -856 
Q 2344 -856 2625 -561 
Q 2906 -266 2906 331 
L 2906 616 
Q 2728 306 2450 153 
Q 2172 0 1784 0 
Q 1141 0 747 490 
Q 353 981 353 1791 
Q 353 2603 747 3093 
Q 1141 3584 1784 3584 
Q 2172 3584 2450 3431 
Q 2728 3278 2906 2969 
L 2906 3500 
L 3481 3500 
L 3481 434 
z
" transform="scale(0.015625)"/>
       <path id="DejaVuSans-20" transform="scale(0.015625)"/>
       <path id="DejaVuSans-Oblique-3bd" d="M 959 0 
L 572 3500 
L 1191 3500 
L 1522 563 
Q 1972 950 2391 1488 
Q 2706 1891 2788 2241 
Q 2825 2406 2809 2719 
Q 2794 3091 2544 3500 
L 3125 3500 
L 3125 3500 
Q 3288 3222 3353 2834 
Q 3416 2478 3369 2234 
Q 3250 1622 2719 1075 
Q 2025 363 1572 0 
L 959 0 
z
" transform="scale(0.015625)"/>
      </defs>
      <use xlink:href="#DejaVuSans-6c" transform="translate(0 0.015625)"/>
      <use xlink:href="#DejaVuSans-6f" transform="translate(27.783203 0.015625)"/>
      <use xlink:href="#DejaVuSans-67" transform="translate(88.964844 0.015625)"/>
      <use xlink:href="#DejaVuSans-20" transform="translate(152.441406 0.015625)"/>
      <use xlink:href="#DejaVuSans-Oblique-3bd" transform="translate(184.228516 0.015625)"/>
     </g>
    </g>
   </g>
   <g id="matplotlib.axis_2">
    <g id="ytick_1">
     <g id="line2d_7">
      <defs>
       <path id="mda13ab65a4" d="M 0 0 
L -3.5 0 
" style="stroke: #000000; stroke-width: 0.8"/>
      </defs>
      <g>
       <use xlink:href="#mda13ab65a4" x="57.6" y="266.644963" style="stroke: #000000; stroke-width: 0.8"/>
      </g>
     </g>
     <g id="text_8">
      <!-- −15 -->
      <g transform="translate(29.495313 270.444182)scale(0.1 -0.1)">
       <defs>
        <path id="DejaVuSans-2212" d="M 678 2272 
L 4684 2272 
L 4684 1741 
L 678 1741 
L 678 2272 
z
" transform="scale(0.015625)"/>
       </defs>
       <use xlink:href="#DejaVuSans-2212"/>
       <use xlink:href="#DejaVuSans-31" x="83.789062"/>
       <use xlink:href="#DejaVuSans-35" x="147.412109"/>
      </g>
     </g>
    </g>
    <g id="ytick_2">
     <g id="line2d_8">
      <g>
       <use xlink:href="#mda13ab65a4" x="57.6" y="218.492973" style="stroke: #000000; stroke-width: 0.8"/>
      </g>
     </g>
     <g id="text_9">
      <!-- −14 -->
      <g transform="translate(29.495313 222.292192)scale(0.1 -0.1)">
       <defs>
        <path id="DejaVuSans-34" d="M 2419 4116 
L 825 1625 
L 2419 1625 
L 2419 4116 
z
M 2253 4666 
L 3047 4666 
L 3047 1625 
L 3713 1625 
L 3713 1100 
L 3047 1100 
L 3047 0 
L 2419 0 
L 2419 1100 
L 313 1100 
L 313 1709 
L 2253 4666 
z
" transform="scale(0.015625)"/>
       </defs>
       <use xlink:href="#DejaVuSans-2212"/>
       <use xlink:href="#DejaVuSans-31" x="83.789062"/>
       <use xlink:href="#DejaVuSans-34" x="147.412109"/>
      </g>
     </g>
    </g>
    <g id="ytick_3">
     <g id="line2d_9">
      <g>
       <use xlink:href="#mda13ab65a4" x="57.6" y="170.340983" style="stroke: #000000; stroke-width: 0.8"/>
      </g>
     </g>
     <g id="text_10">
      <!-- −13 -->
      <g transform="translate(29.495313 174.140202)scale(0.1 -0.1)">
       <use xlink:href="#DejaVuSans-2212"/>
       <use xlink:href="#DejaVuSans-31" x="83.789062"/>
       <use xlink:href="#DejaVuSans-33" x="147.412109"/>
      </g>
     </g>
    </g>
    <g id="ytick_4">
     <g id="line2d_10">
      <g>
       <use xlink:href="#mda13ab65a4" x="57.6" y="122.188993" style="stroke: #000000; stroke-width: 0.8"/>
      </g>
     </g>
     <g id="text_11">
      <!-- −12 -->
      <g transform="translate(29.495313 125.988212)scale(0.1 -0.1)">
       <use xlink:href="#DejaVuSans-2212"/>
       <use xlink:href="#DejaVuSans-31" x="83.789062"/>
       <use xlink:href="#DejaVuSans-32" x="147.412109"/>
      </g>
     </g>
    </g>
    <g id="ytick_5">
     <g id="line2d_11">
      <g>
       <use xlink:href="#mda13ab65a4" x="57.6" y="74.037003" style="stroke: #000000; stroke-width: 0.8"/>
      </g>
     </g>
     <g id="text_12">
      <!-- −11 -->
      <g transform="translate(29.495313 77.836222)scale(0.1 -0.1)">
       <use xlink:href="#DejaVuSans-2212"/>
       <use xlink:href="#DejaVuSans-31" x="83.789062"/>
       <use xlink:href="#DejaVuSans-31" x="147.412109"/>
      </g>
     </g>
    </g>
    <g id="text_13">
     <!-- log $\nu F_{\nu}$ -->
     <g transform="translate(23.395312 191.528)rotate(-90)scale(0.1 -0.1)">
      <defs>
       <path id="DejaVuSans-Oblique-46" d="M 1081 4666 
L 3756 4666 
L 3653 4134 
L 1606 4134 
L 1338 2759 
L 3188 2759 
L 3084 2228 
L 1234 2228 
L 800 0 
L 172 0 
L 1081 4666 
z
" transform="scale(0.015625)"/>
      </defs>
      <use xlink:href="#DejaVuSans-6c" transform="translate(0 0.015625)"/>
      <use xlink:href="#DejaVuSans-6f" transform="translate(27.783203 0.015625)"/>
      <use xlink:href="#DejaVuSans-67" transform="translate(88.964844 0.015625)"/>
      <use xlink:href="#DejaVuSans-20" transform="translate(152.441406 0.015625)"/>
      <use xlink:href="#DejaVuSans-Oblique-3bd" transform="translate(184.228516 0.015625)"/>
      <use xlink:href="#DejaVuSans-Oblique-46" transform="translate(240.087891 0.015625)"/>
      <use xlink:href="#DejaVuSans-Oblique-3bd" transform="translate(297.607422 -16.390625)scale(0.7)"/>
     </g>
    </g>
   </g>
   <g id="line2d_12">
    <path d="M 100.250992 346.6 
L 100.340458 345.687322 
L 103.368082 315.700092 
L 106.395706 289.140176 
L 109.42333 267.995434 
L 112.450954 251.01709 
L 115.478578 236.279211 
L 118.506188 222.593019 
L 121.533813 209.39008 
L 124.561437 196.432139 
L 127.589061 183.640852 
L 130.616685 171.0219 
L 133.644309 158.639953 
L 136.671933 146.618616 
L 139.699557 135.152761 
L 142.727181 124.524268 
L 145.754805 115.079592 
L 148.782429 107.129747 
L 151.810053 100.70632 
L 154.837663 95.346522 
L 157.865287 90.385663 
L 160.892911 85.502666 
L 163.920535 80.660887 
L 166.948159 75.877564 
L 169.975784 71.180434 
L 173.003408 66.610907 
L 176.031032 62.230327 
L 179.058656 58.130041 
L 182.08628 54.444969 
L 185.113904 51.371909 
L 188.141528 49.187879 
L 191.169138 48.254596 
L 194.196762 48.965895 
L 197.224386 51.563593 
L 200.25201 55.817903 
L 203.279634 60.968057 
L 206.307258 66.337391 
L 209.334882 71.722818 
L 212.362506 77.108121 
L 215.390131 82.492738 
L 218.417755 87.87563 
L 221.445379 93.254768 
L 224.473003 98.625719 
L 227.500627 103.979047 
L 230.528237 109.296125 
L 233.555861 114.541087 
L 236.583485 119.648842 
L 239.611109 124.507572 
L 242.638733 128.936997 
L 245.666357 132.667628 
L 248.693981 135.344161 
L 251.721605 136.605816 
L 254.749229 136.219042 
L 257.776853 134.214899 
L 260.804477 130.875707 
L 263.832102 126.604272 
L 266.859712 121.784889 
L 269.887336 116.713767 
L 272.91496 111.574016 
L 275.942584 106.520022 
L 278.970208 101.641167 
L 281.997832 97.006071 
L 285.025456 92.664227 
L 288.05308 88.624539 
L 291.080704 84.859289 
L 294.108328 81.325392 
L 297.135952 78.000352 
L 300.163576 74.888899 
L 303.1912 72.000676 
L 306.21881 69.356908 
L 309.246434 66.989127 
L 312.274058 64.938176 
L 315.301683 63.252812 
L 318.329307 61.986404 
L 321.356931 61.187689 
L 324.384555 60.877419 
L 327.412179 60.989389 
L 330.439803 61.156398 
L 333.467427 60.845435 
L 336.495051 62.072345 
L 339.522675 65.347484 
L 342.550285 69.470259 
L 345.577909 75.099619 
L 348.605533 84.650133 
L 351.633157 101.496522 
L 354.660781 126.919074 
L 357.688405 160.690247 
L 360.716029 193.66005 
L 363.743654 223.908324 
L 366.771278 254.245325 
L 369.798902 308.021123 
L 370.843055 346.6 
M 393.852301 346.6 
L 394.01988 246.484139 
L 394.688645 346.6 
" clip-path="url(#p07150bb2f8)" style="fill: none; stroke: #008000; stroke-width: 2; stroke-linecap: square"/>
   </g>
   <g id="LineCollection_1">
    <path d="M 196.375544 52.097197 
L 196.375544 51.168889 
" clip-path="url(#p07150bb2f8)" style="fill: none; stroke: #000000; stroke-width: 1.5"/>
    <path d="M 197.714658 51.81493 
L 197.714658 51.020882 
" clip-path="url(#p07150bb2f8)" style="fill: none; stroke: #000000; stroke-width: 1.5"/>
    <path d="M 199.163435 53.038734 
L 199.163435 52.131649 
" clip-path="url(#p07150bb2f8)" style="fill: none; stroke: #000000; stroke-width: 1.5"/>
    <path d="M 200.918562 59.338904 
L 200.918562 58.516524 
" clip-path="url(#p07150bb2f8)" style="fill: none; stroke: #000000; stroke-width: 1.5"/>
    <path d="M 201.812967 55.493404 
L 201.812967 54.602816 
" clip-path="url(#p07150bb2f8)" style="fill: none; stroke: #000000; stroke-width: 1.5"/>
    <path d="M 202.745961 61.031329 
L 202.745961 60.205743 
" clip-path="url(#p07150bb2f8)" style="fill: none; stroke: #000000; stroke-width: 1.5"/>
    <path d="M 231.828688 112.113341 
L 231.828688 109.426125 
" clip-path="url(#p07150bb2f8)" style="fill: none; stroke: #000000; stroke-width: 1.5"/>
    <path d="M 232.448065 113.155424 
L 232.448065 110.609674 
" clip-path="url(#p07150bb2f8)" style="fill: none; stroke: #000000; stroke-width: 1.5"/>
    <path d="M 233.043889 115.061718 
L 233.043889 112.704152 
" clip-path="url(#p07150bb2f8)" style="fill: none; stroke: #000000; stroke-width: 1.5"/>
    <path d="M 233.617227 114.754637 
L 233.617227 112.450588 
" clip-path="url(#p07150bb2f8)" style="fill: none; stroke: #000000; stroke-width: 1.5"/>
    <path d="M 234.169199 115.264968 
L 234.169199 113.057899 
" clip-path="url(#p07150bb2f8)" style="fill: none; stroke: #000000; stroke-width: 1.5"/>
    <path d="M 234.751651 117.500846 
L 234.751651 115.322113 
" clip-path="url(#p07150bb2f8)" style="fill: none; stroke: #000000; stroke-width: 1.5"/>
    <path d="M 235.375286 118.444333 
L 235.375286 116.321423 
" clip-path="url(#p07150bb2f8)" style="fill: none; stroke: #000000; stroke-width: 1.5"/>
    <path d="M 236.023715 118.941486 
L 236.023715 116.831481 
" clip-path="url(#p07150bb2f8)" style="fill: none; stroke: #000000; stroke-width: 1.5"/>
    <path d="M 236.775318 121.846758 
L 236.775318 119.753799 
" clip-path="url(#p07150bb2f8)" style="fill: none; stroke: #000000; stroke-width: 1.5"/>
    <path d="M 237.868314 123.049204 
L 237.868314 120.964547 
" clip-path="url(#p07150bb2f8)" style="fill: none; stroke: #000000; stroke-width: 1.5"/>
    <path d="M 239.757638 125.144573 
L 239.757638 123.090647 
" clip-path="url(#p07150bb2f8)" style="fill: none; stroke: #000000; stroke-width: 1.5"/>
    <path d="M 244.449208 132.560099 
L 244.449208 130.408356 
" clip-path="url(#p07150bb2f8)" style="fill: none; stroke: #000000; stroke-width: 1.5"/>
    <path d="M 305.618413 76.000051 
L 305.618413 71.862148 
" clip-path="url(#p07150bb2f8)" style="fill: none; stroke: #000000; stroke-width: 1.5"/>
    <path d="M 308.975288 68.856666 
L 308.975288 66.427514 
" clip-path="url(#p07150bb2f8)" style="fill: none; stroke: #000000; stroke-width: 1.5"/>
    <path d="M 312.498298 64.690803 
L 312.498298 62.983527 
" clip-path="url(#p07150bb2f8)" style="fill: none; stroke: #000000; stroke-width: 1.5"/>
    <path d="M 316.177108 61.830106 
L 316.177108 60.316126 
" clip-path="url(#p07150bb2f8)" style="fill: none; stroke: #000000; stroke-width: 1.5"/>
    <path d="M 319.689783 63.73141 
L 319.689783 61.942393 
" clip-path="url(#p07150bb2f8)" style="fill: none; stroke: #000000; stroke-width: 1.5"/>
    <path d="M 323.046658 63.031657 
L 323.046658 60.976384 
" clip-path="url(#p07150bb2f8)" style="fill: none; stroke: #000000; stroke-width: 1.5"/>
    <path d="M 326.569668 61.059418 
L 326.569668 58.72162 
" clip-path="url(#p07150bb2f8)" style="fill: none; stroke: #000000; stroke-width: 1.5"/>
    <path d="M 330.248478 62.940429 
L 330.248478 59.751984 
" clip-path="url(#p07150bb2f8)" style="fill: none; stroke: #000000; stroke-width: 1.5"/>
    <path d="M 333.761153 63.125766 
L 333.761153 58.77195 
" clip-path="url(#p07150bb2f8)" style="fill: none; stroke: #000000; stroke-width: 1.5"/>
    <path d="M 337.118028 63.051434 
L 337.118028 57.463294 
" clip-path="url(#p07150bb2f8)" style="fill: none; stroke: #000000; stroke-width: 1.5"/>
    <path d="M 340.641038 62.928131 
L 340.641038 56.089411 
" clip-path="url(#p07150bb2f8)" style="fill: none; stroke: #000000; stroke-width: 1.5"/>
    <path d="M 344.319848 72.139135 
L 344.319848 61.003278 
" clip-path="url(#p07150bb2f8)" style="fill: none; stroke: #000000; stroke-width: 1.5"/>
    <path d="M 347.832523 80.305515 
L 347.832523 62.708001 
" clip-path="url(#p07150bb2f8)" style="fill: none; stroke: #000000; stroke-width: 1.5"/>
    <path d="M 351.189398 92.887253 
L 351.189398 65.280872 
" clip-path="url(#p07150bb2f8)" style="fill: none; stroke: #000000; stroke-width: 1.5"/>
    <path d="M 347.220755 90.875391 
L 347.220755 77.50956 
" clip-path="url(#p07150bb2f8)" style="fill: none; stroke: #000000; stroke-width: 1.5"/>
    <path d="M 347.923399 89.737344 
L 347.923399 78.651198 
" clip-path="url(#p07150bb2f8)" style="fill: none; stroke: #000000; stroke-width: 1.5"/>
    <path d="M 348.627397 94.660075 
L 348.627397 84.067513 
" clip-path="url(#p07150bb2f8)" style="fill: none; stroke: #000000; stroke-width: 1.5"/>
    <path d="M 349.331752 93.250952 
L 349.331752 84.476899 
" clip-path="url(#p07150bb2f8)" style="fill: none; stroke: #000000; stroke-width: 1.5"/>
    <path d="M 350.034954 126.135995 
L 350.034954 101.793085 
" clip-path="url(#p07150bb2f8)" style="fill: none; stroke: #000000; stroke-width: 1.5"/>
    <path d="M 350.741044 121.409058 
L 350.741044 99.481234 
" clip-path="url(#p07150bb2f8)" style="fill: none; stroke: #000000; stroke-width: 1.5"/>
    <path d="M 351.443807 112.21693 
L 351.443807 98.200988 
" clip-path="url(#p07150bb2f8)" style="fill: none; stroke: #000000; stroke-width: 1.5"/>
    <path d="M 352.147848 130.13137 
L 352.147848 107.527168 
" clip-path="url(#p07150bb2f8)" style="fill: none; stroke: #000000; stroke-width: 1.5"/>
   </g>
   <g id="line2d_13">
    <defs>
     <path id="m6f8438fe24" d="M 0 1.5 
C 0.397805 1.5 0.77937 1.341951 1.06066 1.06066 
C 1.341951 0.77937 1.5 0.397805 1.5 0 
C 1.5 -0.397805 1.341951 -0.77937 1.06066 -1.06066 
C 0.77937 -1.341951 0.397805 -1.5 0 -1.5 
C -0.397805 -1.5 -0.77937 -1.341951 -1.06066 -1.06066 
C -1.341951 -0.77937 -1.5 -0.397805 -1.5 0 
C -1.5 0.397805 -1.341951 0.77937 -1.06066 1.06066 
C -0.77937 1.341951 -0.397805 1.5 0 1.5 
z
" style="stroke: #0000ff"/>
    </defs>
    <g clip-path="url(#p07150bb2f8)">
     <use xlink:href="#m6f8438fe24" x="196.375544" y="51.627892" style="fill: #0000ff; stroke: #0000ff"/>
     <use xlink:href="#m6f8438fe24" x="197.714658" y="51.414138" style="fill: #0000ff; stroke: #0000ff"/>
     <use xlink:href="#m6f8438fe24" x="199.163435" y="52.580274" style="fill: #0000ff; stroke: #0000ff"/>
     <use xlink:href="#m6f8438fe24" x="200.918562" y="58.923672" style="fill: #0000ff; stroke: #0000ff"/>
     <use xlink:href="#m6f8438fe24" x="201.812967" y="55.043369" style="fill: #0000ff; stroke: #0000ff"/>
     <use xlink:href="#m6f8438fe24" x="202.745961" y="60.614462" style="fill: #0000ff; stroke: #0000ff"/>
     <use xlink:href="#m6f8438fe24" x="231.828688" y="110.726599" style="fill: #0000ff; stroke: #0000ff"/>
     <use xlink:href="#m6f8438fe24" x="232.448065" y="111.843834" style="fill: #0000ff; stroke: #0000ff"/>
     <use xlink:href="#m6f8438fe24" x="233.043889" y="113.849729" style="fill: #0000ff; stroke: #0000ff"/>
     <use xlink:href="#m6f8438fe24" x="233.617227" y="113.570897" style="fill: #0000ff; stroke: #0000ff"/>
     <use xlink:href="#m6f8438fe24" x="234.169199" y="114.13233" style="fill: #0000ff; stroke: #0000ff"/>
     <use xlink:href="#m6f8438fe24" x="234.751651" y="116.383118" style="fill: #0000ff; stroke: #0000ff"/>
     <use xlink:href="#m6f8438fe24" x="235.375286" y="117.355951" style="fill: #0000ff; stroke: #0000ff"/>
     <use xlink:href="#m6f8438fe24" x="236.023715" y="117.859883" style="fill: #0000ff; stroke: #0000ff"/>
     <use xlink:href="#m6f8438fe24" x="236.775318" y="120.774106" style="fill: #0000ff; stroke: #0000ff"/>
     <use xlink:href="#m6f8438fe24" x="237.868314" y="121.98091" style="fill: #0000ff; stroke: #0000ff"/>
     <use xlink:href="#m6f8438fe24" x="239.757638" y="124.092404" style="fill: #0000ff; stroke: #0000ff"/>
     <use xlink:href="#m6f8438fe24" x="244.449208" y="131.456564" style="fill: #0000ff; stroke: #0000ff"/>
     <use xlink:href="#m6f8438fe24" x="305.618413" y="73.82892" style="fill: #0000ff; stroke: #0000ff"/>
     <use xlink:href="#m6f8438fe24" x="308.975288" y="67.606839" style="fill: #0000ff; stroke: #0000ff"/>
     <use xlink:href="#m6f8438fe24" x="312.498298" y="63.819747" style="fill: #0000ff; stroke: #0000ff"/>
     <use xlink:href="#m6f8438fe24" x="316.177108" y="61.059418" style="fill: #0000ff; stroke: #0000ff"/>
     <use xlink:href="#m6f8438fe24" x="319.689783" y="62.817776" style="fill: #0000ff; stroke: #0000ff"/>
     <use xlink:href="#m6f8438fe24" x="323.046658" y="61.978781" style="fill: #0000ff; stroke: #0000ff"/>
     <use xlink:href="#m6f8438fe24" x="326.569668" y="59.857868" style="fill: #0000ff; stroke: #0000ff"/>
     <use xlink:href="#m6f8438fe24" x="330.248478" y="61.285498" style="fill: #0000ff; stroke: #0000ff"/>
     <use xlink:href="#m6f8438fe24" x="333.761153" y="60.835757" style="fill: #0000ff; stroke: #0000ff"/>
     <use xlink:href="#m6f8438fe24" x="337.118028" y="60.071259" style="fill: #0000ff; stroke: #0000ff"/>
     <use xlink:href="#m6f8438fe24" x="340.641038" y="59.230457" style="fill: #0000ff; stroke: #0000ff"/>
     <use xlink:href="#m6f8438fe24" x="344.319848" y="65.838562" style="fill: #0000ff; stroke: #0000ff"/>
     <use xlink:href="#m6f8438fe24" x="347.832523" y="69.707893" style="fill: #0000ff; stroke: #0000ff"/>
     <use xlink:href="#m6f8438fe24" x="351.189398" y="74.82543" style="fill: #0000ff; stroke: #0000ff"/>
     <use xlink:href="#m6f8438fe24" x="347.220755" y="83.142338" style="fill: #0000ff; stroke: #0000ff"/>
     <use xlink:href="#m6f8438fe24" x="347.923399" y="83.468079" style="fill: #0000ff; stroke: #0000ff"/>
     <use xlink:href="#m6f8438fe24" x="348.627397" y="88.700166" style="fill: #0000ff; stroke: #0000ff"/>
     <use xlink:href="#m6f8438fe24" x="349.331752" y="88.407098" style="fill: #0000ff; stroke: #0000ff"/>
     <use xlink:href="#m6f8438fe24" x="350.034954" y="110.606068" style="fill: #0000ff; stroke: #0000ff"/>
     <use xlink:href="#m6f8438fe24" x="350.741044" y="107.6938" style="fill: #0000ff; stroke: #0000ff"/>
     <use xlink:href="#m6f8438fe24" x="351.443807" y="104.056063" style="fill: #0000ff; stroke: #0000ff"/>
     <use xlink:href="#m6f8438fe24" x="352.147848" y="115.913163" style="fill: #0000ff; stroke: #0000ff"/>
    </g>
   </g>
   <g id="patch_3">
    <path d="M 57.6 307.584 
L 57.6 41.472 
" style="fill: none; stroke: #000000; stroke-width: 0.8; stroke-linejoin: miter; stroke-linecap: square"/>
   </g>
   <g id="patch_4">
    <path d="M 414.72 307.584 
L 414.72 41.472 
" style="fill: none; stroke: #000000; stroke-width: 0.8; stroke-linejoin: miter; stroke-linecap: square"/>
   </g>
   <g id="patch_5">
    <path d="M 57.6 307.584 
L 414.72 307.584 
" style="fill: none; stroke: #000000; stroke-width: 0.8; stroke-linejoin: miter; stroke-linecap: square"/>
   </g>
   <g id="patch_6">
    <path d="M 57.6 41.472 
L 414.72 41.472 
" style="fill: none; stroke: #000000; stroke-width: 0.8; stroke-linejoin: miter; stroke-linecap: square"/>
   </g>
   <g id="text_14">
    <!-- MCMC results with the range from extreme models within 1 sigma -->
    <g transform="translate(37.283437 35.472)scale(0.12 -0.12)">
     <defs>
      <path id="DejaVuSans-4d" d="M 628 4666 
L 1569 4666 
L 2759 1491 
L 3956 4666 
L 4897 4666 
L 4897 0 
L 4281 0 
L 4281 4097 
L 3078 897 
L 2444 897 
L 1241 4097 
L 1241 0 
L 628 0 
L 628 4666 
z
" transform="scale(0.015625)"/>
      <path id="DejaVuSans-43" d="M 4122 4306 
L 4122 3641 
Q 3803 3938 3442 4084 
Q 3081 4231 2675 4231 
Q 1875 4231 1450 3742 
Q 1025 3253 1025 2328 
Q 1025 1406 1450 917 
Q 1875 428 2675 428 
Q 3081 428 3442 575 
Q 3803 722 4122 1019 
L 4122 359 
Q 3791 134 3420 21 
Q 3050 -91 2638 -91 
Q 1578 -91 968 557 
Q 359 1206 359 2328 
Q 359 3453 968 4101 
Q 1578 4750 2638 4750 
Q 3056 4750 3426 4639 
Q 3797 4528 4122 4306 
z
" transform="scale(0.015625)"/>
      <path id="DejaVuSans-72" d="M 2631 2963 
Q 2534 3019 2420 3045 
Q 2306 3072 2169 3072 
Q 1681 3072 1420 2755 
Q 1159 2438 1159 1844 
L 1159 0 
L 581 0 
L 581 3500 
L 1159 3500 
L 1159 2956 
Q 1341 3275 1631 3429 
Q 1922 3584 2338 3584 
Q 2397 3584 2469 3576 
Q 2541 3569 2628 3553 
L 2631 2963 
z
" transform="scale(0.015625)"/>
      <path id="DejaVuSans-65" d="M 3597 1894 
L 3597 1613 
L 953 1613 
Q 991 1019 1311 708 
Q 1631 397 2203 397 
Q 2534 397 2845 478 
Q 3156 559 3463 722 
L 3463 178 
Q 3153 47 2828 -22 
Q 2503 -91 2169 -91 
Q 1331 -91 842 396 
Q 353 884 353 1716 
Q 353 2575 817 3079 
Q 1281 3584 2069 3584 
Q 2775 3584 3186 3129 
Q 3597 2675 3597 1894 
z
M 3022 2063 
Q 3016 2534 2758 2815 
Q 2500 3097 2075 3097 
Q 1594 3097 1305 2825 
Q 1016 2553 972 2059 
L 3022 2063 
z
" transform="scale(0.015625)"/>
      <path id="DejaVuSans-73" d="M 2834 3397 
L 2834 2853 
Q 2591 2978 2328 3040 
Q 2066 3103 1784 3103 
Q 1356 3103 1142 2972 
Q 928 2841 928 2578 
Q 928 2378 1081 2264 
Q 1234 2150 1697 2047 
L 1894 2003 
Q 2506 1872 2764 1633 
Q 3022 1394 3022 966 
Q 3022 478 2636 193 
Q 2250 -91 1575 -91 
Q 1294 -91 989 -36 
Q 684 19 347 128 
L 347 722 
Q 666 556 975 473 
Q 1284 391 1588 391 
Q 1994 391 2212 530 
Q 2431 669 2431 922 
Q 2431 1156 2273 1281 
Q 2116 1406 1581 1522 
L 1381 1569 
Q 847 1681 609 1914 
Q 372 2147 372 2553 
Q 372 3047 722 3315 
Q 1072 3584 1716 3584 
Q 2034 3584 2315 3537 
Q 2597 3491 2834 3397 
z
" transform="scale(0.015625)"/>
      <path id="DejaVuSans-75" d="M 544 1381 
L 544 3500 
L 1119 3500 
L 1119 1403 
Q 1119 906 1312 657 
Q 1506 409 1894 409 
Q 2359 409 2629 706 
Q 2900 1003 2900 1516 
L 2900 3500 
L 3475 3500 
L 3475 0 
L 2900 0 
L 2900 538 
Q 2691 219 2414 64 
Q 2138 -91 1772 -91 
Q 1169 -91 856 284 
Q 544 659 544 1381 
z
M 1991 3584 
L 1991 3584 
z
" transform="scale(0.015625)"/>
      <path id="DejaVuSans-74" d="M 1172 4494 
L 1172 3500 
L 2356 3500 
L 2356 3053 
L 1172 3053 
L 1172 1153 
Q 1172 725 1289 603 
Q 1406 481 1766 481 
L 2356 481 
L 2356 0 
L 1766 0 
Q 1100 0 847 248 
Q 594 497 594 1153 
L 594 3053 
L 172 3053 
L 172 3500 
L 594 3500 
L 594 4494 
L 1172 4494 
z
" transform="scale(0.015625)"/>
      <path id="DejaVuSans-77" d="M 269 3500 
L 844 3500 
L 1563 769 
L 2278 3500 
L 2956 3500 
L 3675 769 
L 4391 3500 
L 4966 3500 
L 4050 0 
L 3372 0 
L 2619 2869 
L 1863 0 
L 1184 0 
L 269 3500 
z
" transform="scale(0.015625)"/>
      <path id="DejaVuSans-69" d="M 603 3500 
L 1178 3500 
L 1178 0 
L 603 0 
L 603 3500 
z
M 603 4863 
L 1178 4863 
L 1178 4134 
L 603 4134 
L 603 4863 
z
" transform="scale(0.015625)"/>
      <path id="DejaVuSans-68" d="M 3513 2113 
L 3513 0 
L 2938 0 
L 2938 2094 
Q 2938 2591 2744 2837 
Q 2550 3084 2163 3084 
Q 1697 3084 1428 2787 
Q 1159 2491 1159 1978 
L 1159 0 
L 581 0 
L 581 4863 
L 1159 4863 
L 1159 2956 
Q 1366 3272 1645 3428 
Q 1925 3584 2291 3584 
Q 2894 3584 3203 3211 
Q 3513 2838 3513 2113 
z
" transform="scale(0.015625)"/>
      <path id="DejaVuSans-61" d="M 2194 1759 
Q 1497 1759 1228 1600 
Q 959 1441 959 1056 
Q 959 750 1161 570 
Q 1363 391 1709 391 
Q 2188 391 2477 730 
Q 2766 1069 2766 1631 
L 2766 1759 
L 2194 1759 
z
M 3341 1997 
L 3341 0 
L 2766 0 
L 2766 531 
Q 2569 213 2275 61 
Q 1981 -91 1556 -91 
Q 1019 -91 701 211 
Q 384 513 384 1019 
Q 384 1609 779 1909 
Q 1175 2209 1959 2209 
L 2766 2209 
L 2766 2266 
Q 2766 2663 2505 2880 
Q 2244 3097 1772 3097 
Q 1472 3097 1187 3025 
Q 903 2953 641 2809 
L 641 3341 
Q 956 3463 1253 3523 
Q 1550 3584 1831 3584 
Q 2591 3584 2966 3190 
Q 3341 2797 3341 1997 
z
" transform="scale(0.015625)"/>
      <path id="DejaVuSans-6e" d="M 3513 2113 
L 3513 0 
L 2938 0 
L 2938 2094 
Q 2938 2591 2744 2837 
Q 2550 3084 2163 3084 
Q 1697 3084 1428 2787 
Q 1159 2491 1159 1978 
L 1159 0 
L 581 0 
L 581 3500 
L 1159 3500 
L 1159 2956 
Q 1366 3272 1645 3428 
Q 1925 3584 2291 3584 
Q 2894 3584 3203 3211 
Q 3513 2838 3513 2113 
z
" transform="scale(0.015625)"/>
      <path id="DejaVuSans-66" d="M 2375 4863 
L 2375 4384 
L 1825 4384 
Q 1516 4384 1395 4259 
Q 1275 4134 1275 3809 
L 1275 3500 
L 2222 3500 
L 2222 3053 
L 1275 3053 
L 1275 0 
L 697 0 
L 697 3053 
L 147 3053 
L 147 3500 
L 697 3500 
L 697 3744 
Q 697 4328 969 4595 
Q 1241 4863 1831 4863 
L 2375 4863 
z
" transform="scale(0.015625)"/>
      <path id="DejaVuSans-6d" d="M 3328 2828 
Q 3544 3216 3844 3400 
Q 4144 3584 4550 3584 
Q 5097 3584 5394 3201 
Q 5691 2819 5691 2113 
L 5691 0 
L 5113 0 
L 5113 2094 
Q 5113 2597 4934 2840 
Q 4756 3084 4391 3084 
Q 3944 3084 3684 2787 
Q 3425 2491 3425 1978 
L 3425 0 
L 2847 0 
L 2847 2094 
Q 2847 2600 2669 2842 
Q 2491 3084 2119 3084 
Q 1678 3084 1418 2786 
Q 1159 2488 1159 1978 
L 1159 0 
L 581 0 
L 581 3500 
L 1159 3500 
L 1159 2956 
Q 1356 3278 1631 3431 
Q 1906 3584 2284 3584 
Q 2666 3584 2933 3390 
Q 3200 3197 3328 2828 
z
" transform="scale(0.015625)"/>
      <path id="DejaVuSans-78" d="M 3513 3500 
L 2247 1797 
L 3578 0 
L 2900 0 
L 1881 1375 
L 863 0 
L 184 0 
L 1544 1831 
L 300 3500 
L 978 3500 
L 1906 2253 
L 2834 3500 
L 3513 3500 
z
" transform="scale(0.015625)"/>
      <path id="DejaVuSans-64" d="M 2906 2969 
L 2906 4863 
L 3481 4863 
L 3481 0 
L 2906 0 
L 2906 525 
Q 2725 213 2448 61 
Q 2172 -91 1784 -91 
Q 1150 -91 751 415 
Q 353 922 353 1747 
Q 353 2572 751 3078 
Q 1150 3584 1784 3584 
Q 2172 3584 2448 3432 
Q 2725 3281 2906 2969 
z
M 947 1747 
Q 947 1113 1208 752 
Q 1469 391 1925 391 
Q 2381 391 2643 752 
Q 2906 1113 2906 1747 
Q 2906 2381 2643 2742 
Q 2381 3103 1925 3103 
Q 1469 3103 1208 2742 
Q 947 2381 947 1747 
z
" transform="scale(0.015625)"/>
     </defs>
     <use xlink:href="#DejaVuSans-4d"/>
     <use xlink:href="#DejaVuSans-43" x="86.279297"/>
     <use xlink:href="#DejaVuSans-4d" x="156.103516"/>
     <use xlink:href="#DejaVuSans-43" x="242.382812"/>
     <use xlink:href="#DejaVuSans-20" x="312.207031"/>
     <use xlink:href="#DejaVuSans-72" x="343.994141"/>
     <use xlink:href="#DejaVuSans-65" x="382.857422"/>
     <use xlink:href="#DejaVuSans-73" x="444.380859"/>
     <use xlink:href="#DejaVuSans-75" x="496.480469"/>
     <use xlink:href="#DejaVuSans-6c" x="559.859375"/>
     <use xlink:href="#DejaVuSans-74" x="587.642578"/>
     <use xlink:href="#DejaVuSans-73" x="626.851562"/>
     <use xlink:href="#DejaVuSans-20" x="678.951172"/>
     <use xlink:href="#DejaVuSans-77" x="710.738281"/>
     <use xlink:href="#DejaVuSans-69" x="792.525391"/>
     <use xlink:href="#DejaVuSans-74" x="820.308594"/>
     <use xlink:href="#DejaVuSans-68" x="859.517578"/>
     <use xlink:href="#DejaVuSans-20" x="922.896484"/>
     <use xlink:href="#DejaVuSans-74" x="954.683594"/>
     <use xlink:href="#DejaVuSans-68" x="993.892578"/>
     <use xlink:href="#DejaVuSans-65" x="1057.271484"/>
     <use xlink:href="#DejaVuSans-20" x="1118.794922"/>
     <use xlink:href="#DejaVuSans-72" x="1150.582031"/>
     <use xlink:href="#DejaVuSans-61" x="1191.695312"/>
     <use xlink:href="#DejaVuSans-6e" x="1252.974609"/>
     <use xlink:href="#DejaVuSans-67" x="1316.353516"/>
     <use xlink:href="#DejaVuSans-65" x="1379.830078"/>
     <use xlink:href="#DejaVuSans-20" x="1441.353516"/>
     <use xlink:href="#DejaVuSans-66" x="1473.140625"/>
     <use xlink:href="#DejaVuSans-72" x="1508.345703"/>
     <use xlink:href="#DejaVuSans-6f" x="1547.208984"/>
     <use xlink:href="#DejaVuSans-6d" x="1608.390625"/>
     <use xlink:href="#DejaVuSans-20" x="1705.802734"/>
     <use xlink:href="#DejaVuSans-65" x="1737.589844"/>
     <use xlink:href="#DejaVuSans-78" x="1797.363281"/>
     <use xlink:href="#DejaVuSans-74" x="1856.542969"/>
     <use xlink:href="#DejaVuSans-72" x="1895.751953"/>
     <use xlink:href="#DejaVuSans-65" x="1934.615234"/>
     <use xlink:href="#DejaVuSans-6d" x="1996.138672"/>
     <use xlink:href="#DejaVuSans-65" x="2093.550781"/>
     <use xlink:href="#DejaVuSans-20" x="2155.074219"/>
     <use xlink:href="#DejaVuSans-6d" x="2186.861328"/>
     <use xlink:href="#DejaVuSans-6f" x="2284.273438"/>
     <use xlink:href="#DejaVuSans-64" x="2345.455078"/>
     <use xlink:href="#DejaVuSans-65" x="2408.931641"/>
     <use xlink:href="#DejaVuSans-6c" x="2470.455078"/>
     <use xlink:href="#DejaVuSans-73" x="2498.238281"/>
     <use xlink:href="#DejaVuSans-20" x="2550.337891"/>
     <use xlink:href="#DejaVuSans-77" x="2582.125"/>
     <use xlink:href="#DejaVuSans-69" x="2663.912109"/>
     <use xlink:href="#DejaVuSans-74" x="2691.695312"/>
     <use xlink:href="#DejaVuSans-68" x="2730.904297"/>
     <use xlink:href="#DejaVuSans-69" x="2794.283203"/>
     <use xlink:href="#DejaVuSans-6e" x="2822.066406"/>
     <use xlink:href="#DejaVuSans-20" x="2885.445312"/>
     <use xlink:href="#DejaVuSans-31" x="2917.232422"/>
     <use xlink:href="#DejaVuSans-20" x="2980.855469"/>
     <use xlink:href="#DejaVuSans-73" x="3012.642578"/>
     <use xlink:href="#DejaVuSans-69" x="3064.742188"/>
     <use xlink:href="#DejaVuSans-67" x="3092.525391"/>
     <use xlink:href="#DejaVuSans-6d" x="3156.001953"/>
     <use xlink:href="#DejaVuSans-61" x="3253.414062"/>
    </g>
   </g>
   <g id="legend_1">
    <g id="patch_7">
     <path d="M 182.79125 302.584 
L 289.52875 302.584 
Q 291.52875 302.584 291.52875 300.584 
L 291.52875 257.549625 
Q 291.52875 255.549625 289.52875 255.549625 
L 182.79125 255.549625 
Q 180.79125 255.549625 180.79125 257.549625 
L 180.79125 300.584 
Q 180.79125 302.584 182.79125 302.584 
z
" style="fill: #ffffff; opacity: 0.8; stroke: #cccccc; stroke-linejoin: miter"/>
    </g>
    <g id="patch_8">
     <path d="M 184.79125 267.148062 
L 204.79125 267.148062 
L 204.79125 260.148062 
L 184.79125 260.148062 
z
" style="fill: #1f77b4; fill-opacity: 0.5"/>
    </g>
    <g id="text_15">
     <!-- Within 1 sigma -->
     <g transform="translate(212.79125 267.148062)scale(0.1 -0.1)">
      <defs>
       <path id="DejaVuSans-57" d="M 213 4666 
L 850 4666 
L 1831 722 
L 2809 4666 
L 3519 4666 
L 4500 722 
L 5478 4666 
L 6119 4666 
L 4947 0 
L 4153 0 
L 3169 4050 
L 2175 0 
L 1381 0 
L 213 4666 
z
" transform="scale(0.015625)"/>
      </defs>
      <use xlink:href="#DejaVuSans-57"/>
      <use xlink:href="#DejaVuSans-69" x="96.626953"/>
      <use xlink:href="#DejaVuSans-74" x="124.410156"/>
      <use xlink:href="#DejaVuSans-68" x="163.619141"/>
      <use xlink:href="#DejaVuSans-69" x="226.998047"/>
      <use xlink:href="#DejaVuSans-6e" x="254.78125"/>
      <use xlink:href="#DejaVuSans-20" x="318.160156"/>
      <use xlink:href="#DejaVuSans-31" x="349.947266"/>
      <use xlink:href="#DejaVuSans-20" x="413.570312"/>
      <use xlink:href="#DejaVuSans-73" x="445.357422"/>
      <use xlink:href="#DejaVuSans-69" x="497.457031"/>
      <use xlink:href="#DejaVuSans-67" x="525.240234"/>
      <use xlink:href="#DejaVuSans-6d" x="588.716797"/>
      <use xlink:href="#DejaVuSans-61" x="686.128906"/>
     </g>
    </g>
    <g id="line2d_14">
     <path d="M 184.79125 278.326188 
L 194.79125 278.326188 
L 204.79125 278.326188 
" style="fill: none; stroke: #008000; stroke-width: 2; stroke-linecap: square"/>
    </g>
    <g id="text_16">
     <!-- Best model -->
     <g transform="translate(212.79125 281.826188)scale(0.1 -0.1)">
      <defs>
       <path id="DejaVuSans-42" d="M 1259 2228 
L 1259 519 
L 2272 519 
Q 2781 519 3026 730 
Q 3272 941 3272 1375 
Q 3272 1813 3026 2020 
Q 2781 2228 2272 2228 
L 1259 2228 
z
M 1259 4147 
L 1259 2741 
L 2194 2741 
Q 2656 2741 2882 2914 
Q 3109 3088 3109 3444 
Q 3109 3797 2882 3972 
Q 2656 4147 2194 4147 
L 1259 4147 
z
M 628 4666 
L 2241 4666 
Q 2963 4666 3353 4366 
Q 3744 4066 3744 3513 
Q 3744 3084 3544 2831 
Q 3344 2578 2956 2516 
Q 3422 2416 3680 2098 
Q 3938 1781 3938 1306 
Q 3938 681 3513 340 
Q 3088 0 2303 0 
L 628 0 
L 628 4666 
z
" transform="scale(0.015625)"/>
      </defs>
      <use xlink:href="#DejaVuSans-42"/>
      <use xlink:href="#DejaVuSans-65" x="68.603516"/>
      <use xlink:href="#DejaVuSans-73" x="130.126953"/>
      <use xlink:href="#DejaVuSans-74" x="182.226562"/>
      <use xlink:href="#DejaVuSans-20" x="221.435547"/>
      <use xlink:href="#DejaVuSans-6d" x="253.222656"/>
      <use xlink:href="#DejaVuSans-6f" x="350.634766"/>
      <use xlink:href="#DejaVuSans-64" x="411.816406"/>
      <use xlink:href="#DejaVuSans-65" x="475.292969"/>
      <use xlink:href="#DejaVuSans-6c" x="536.816406"/>
     </g>
    </g>
    <g id="LineCollection_2">
     <path d="M 194.79125 298.004312 
L 194.79125 288.004312 
" style="fill: none; stroke: #000000; stroke-width: 1.5"/>
    </g>
    <g id="line2d_15"/>
    <g id="line2d_16">
     <g>
      <use xlink:href="#m6f8438fe24" x="194.79125" y="293.004312" style="fill: #0000ff; stroke: #0000ff"/>
     </g>
    </g>
    <g id="text_17">
     <!-- Real data -->
     <g transform="translate(212.79125 296.504312)scale(0.1 -0.1)">
      <defs>
       <path id="DejaVuSans-52" d="M 2841 2188 
Q 3044 2119 3236 1894 
Q 3428 1669 3622 1275 
L 4263 0 
L 3584 0 
L 2988 1197 
Q 2756 1666 2539 1819 
Q 2322 1972 1947 1972 
L 1259 1972 
L 1259 0 
L 628 0 
L 628 4666 
L 2053 4666 
Q 2853 4666 3247 4331 
Q 3641 3997 3641 3322 
Q 3641 2881 3436 2590 
Q 3231 2300 2841 2188 
z
M 1259 4147 
L 1259 2491 
L 2053 2491 
Q 2509 2491 2742 2702 
Q 2975 2913 2975 3322 
Q 2975 3731 2742 3939 
Q 2509 4147 2053 4147 
L 1259 4147 
z
" transform="scale(0.015625)"/>
      </defs>
      <use xlink:href="#DejaVuSans-52"/>
      <use xlink:href="#DejaVuSans-65" x="64.982422"/>
      <use xlink:href="#DejaVuSans-61" x="126.505859"/>
      <use xlink:href="#DejaVuSans-6c" x="187.785156"/>
      <use xlink:href="#DejaVuSans-20" x="215.568359"/>
      <use xlink:href="#DejaVuSans-64" x="247.355469"/>
      <use xlink:href="#DejaVuSans-61" x="310.832031"/>
      <use xlink:href="#DejaVuSans-74" x="372.111328"/>
      <use xlink:href="#DejaVuSans-61" x="411.320312"/>
     </g>
    </g>
   </g>
  </g>
 </g>
 <defs>
  <clipPath id="p07150bb2f8">
   <rect x="57.6" y="41.472" width="357.12" height="266.112"/>
  </clipPath>
 </defs>
</svg>
