<?xml version="1.0" encoding="utf-8" standalone="no"?>
<!DOCTYPE svg PUBLIC "-//W3C//DTD SVG 1.1//EN"
  "http://www.w3.org/Graphics/SVG/1.1/DTD/svg11.dtd">
<svg xmlns:xlink="http://www.w3.org/1999/xlink" width="460.8pt" height="345.6pt" viewBox="0 0 460.8 345.6" xmlns="http://www.w3.org/2000/svg" version="1.1">
 <metadata>
  <rdf:RDF xmlns:dc="http://purl.org/dc/elements/1.1/" xmlns:cc="http://creativecommons.org/ns#" xmlns:rdf="http://www.w3.org/1999/02/22-rdf-syntax-ns#">
   <cc:Work>
    <dc:type rdf:resource="http://purl.org/dc/dcmitype/StillImage"/>
    <dc:date>2022-06-11T09:47:06.999559</dc:date>
    <dc:format>image/svg+xml</dc:format>
    <dc:creator>
     <cc:Agent>
      <dc:title>Matplotlib v3.5.0, https://matplotlib.org/</dc:title>
     </cc:Agent>
    </dc:creator>
   </cc:Work>
  </rdf:RDF>
 </metadata>
 <defs>
  <style type="text/css">*{stroke-linejoin: round; stroke-linecap: butt}</style>
 </defs>
 <g id="figure_1">
  <g id="patch_1">
   <path d="M 0 345.6 
L 460.8 345.6 
L 460.8 0 
L 0 0 
z
" style="fill: #ffffff"/>
  </g>
  <g id="axes_1">
   <g id="patch_2">
    <path d="M 57.6 307.584 
L 414.72 307.584 
L 414.72 41.472 
L 57.6 41.472 
z
" style="fill: #ffffff"/>
   </g>
   <g id="matplotlib.axis_1">
    <g id="xtick_1">
     <g id="line2d_1">
      <defs>
       <path id="m57c9876d7d" d="M 0 0 
L 0 3.5 
" style="stroke: #000000; stroke-width: 0.8"/>
      </defs>
      <g>
       <use xlink:href="#m57c9876d7d" x="70.672487" y="307.584" style="stroke: #000000; stroke-width: 0.8"/>
      </g>
     </g>
     <g id="text_1">
      <!-- 7.5 -->
      <g transform="translate(62.720925 322.182437)scale(0.1 -0.1)">
       <defs>
        <path id="DejaVuSans-37" d="M 525 4666 
L 3525 4666 
L 3525 4397 
L 1831 0 
L 1172 0 
L 2766 4134 
L 525 4134 
L 525 4666 
z
" transform="scale(0.015625)"/>
        <path id="DejaVuSans-2e" d="M 684 794 
L 1344 794 
L 1344 0 
L 684 0 
L 684 794 
z
" transform="scale(0.015625)"/>
        <path id="DejaVuSans-35" d="M 691 4666 
L 3169 4666 
L 3169 4134 
L 1269 4134 
L 1269 2991 
Q 1406 3038 1543 3061 
Q 1681 3084 1819 3084 
Q 2600 3084 3056 2656 
Q 3513 2228 3513 1497 
Q 3513 744 3044 326 
Q 2575 -91 1722 -91 
Q 1428 -91 1123 -41 
Q 819 9 494 109 
L 494 744 
Q 775 591 1075 516 
Q 1375 441 1709 441 
Q 2250 441 2565 725 
Q 2881 1009 2881 1497 
Q 2881 1984 2565 2268 
Q 2250 2553 1709 2553 
Q 1456 2553 1204 2497 
Q 953 2441 691 2322 
L 691 4666 
z
" transform="scale(0.015625)"/>
       </defs>
       <use xlink:href="#DejaVuSans-37"/>
       <use xlink:href="#DejaVuSans-2e" x="63.623047"/>
       <use xlink:href="#DejaVuSans-35" x="95.410156"/>
      </g>
     </g>
    </g>
    <g id="xtick_2">
     <g id="line2d_2">
      <g>
       <use xlink:href="#m57c9876d7d" x="110.379982" y="307.584" style="stroke: #000000; stroke-width: 0.8"/>
      </g>
     </g>
     <g id="text_2">
      <!-- 10.0 -->
      <g transform="translate(99.24717 322.182437)scale(0.1 -0.1)">
       <defs>
        <path id="DejaVuSans-31" d="M 794 531 
L 1825 531 
L 1825 4091 
L 703 3866 
L 703 4441 
L 1819 4666 
L 2450 4666 
L 2450 531 
L 3481 531 
L 3481 0 
L 794 0 
L 794 531 
z
" transform="scale(0.015625)"/>
        <path id="DejaVuSans-30" d="M 2034 4250 
Q 1547 4250 1301 3770 
Q 1056 3291 1056 2328 
Q 1056 1369 1301 889 
Q 1547 409 2034 409 
Q 2525 409 2770 889 
Q 3016 1369 3016 2328 
Q 3016 3291 2770 3770 
Q 2525 4250 2034 4250 
z
M 2034 4750 
Q 2819 4750 3233 4129 
Q 3647 3509 3647 2328 
Q 3647 1150 3233 529 
Q 2819 -91 2034 -91 
Q 1250 -91 836 529 
Q 422 1150 422 2328 
Q 422 3509 836 4129 
Q 1250 4750 2034 4750 
z
" transform="scale(0.015625)"/>
       </defs>
       <use xlink:href="#DejaVuSans-31"/>
       <use xlink:href="#DejaVuSans-30" x="63.623047"/>
       <use xlink:href="#DejaVuSans-2e" x="127.246094"/>
       <use xlink:href="#DejaVuSans-30" x="159.033203"/>
      </g>
     </g>
    </g>
    <g id="xtick_3">
     <g id="line2d_3">
      <g>
       <use xlink:href="#m57c9876d7d" x="150.087477" y="307.584" style="stroke: #000000; stroke-width: 0.8"/>
      </g>
     </g>
     <g id="text_3">
      <!-- 12.5 -->
      <g transform="translate(138.954664 322.182437)scale(0.1 -0.1)">
       <defs>
        <path id="DejaVuSans-32" d="M 1228 531 
L 3431 531 
L 3431 0 
L 469 0 
L 469 531 
Q 828 903 1448 1529 
Q 2069 2156 2228 2338 
Q 2531 2678 2651 2914 
Q 2772 3150 2772 3378 
Q 2772 3750 2511 3984 
Q 2250 4219 1831 4219 
Q 1534 4219 1204 4116 
Q 875 4013 500 3803 
L 500 4441 
Q 881 4594 1212 4672 
Q 1544 4750 1819 4750 
Q 2544 4750 2975 4387 
Q 3406 4025 3406 3419 
Q 3406 3131 3298 2873 
Q 3191 2616 2906 2266 
Q 2828 2175 2409 1742 
Q 1991 1309 1228 531 
z
" transform="scale(0.015625)"/>
       </defs>
       <use xlink:href="#DejaVuSans-31"/>
       <use xlink:href="#DejaVuSans-32" x="63.623047"/>
       <use xlink:href="#DejaVuSans-2e" x="127.246094"/>
       <use xlink:href="#DejaVuSans-35" x="159.033203"/>
      </g>
     </g>
    </g>
    <g id="xtick_4">
     <g id="line2d_4">
      <g>
       <use xlink:href="#m57c9876d7d" x="189.794972" y="307.584" style="stroke: #000000; stroke-width: 0.8"/>
      </g>
     </g>
     <g id="text_4">
      <!-- 15.0 -->
      <g transform="translate(178.662159 322.182437)scale(0.1 -0.1)">
       <use xlink:href="#DejaVuSans-31"/>
       <use xlink:href="#DejaVuSans-35" x="63.623047"/>
       <use xlink:href="#DejaVuSans-2e" x="127.246094"/>
       <use xlink:href="#DejaVuSans-30" x="159.033203"/>
      </g>
     </g>
    </g>
    <g id="xtick_5">
     <g id="line2d_5">
      <g>
       <use xlink:href="#m57c9876d7d" x="229.502467" y="307.584" style="stroke: #000000; stroke-width: 0.8"/>
      </g>
     </g>
     <g id="text_5">
      <!-- 17.5 -->
      <g transform="translate(218.369654 322.182437)scale(0.1 -0.1)">
       <use xlink:href="#DejaVuSans-31"/>
       <use xlink:href="#DejaVuSans-37" x="63.623047"/>
       <use xlink:href="#DejaVuSans-2e" x="127.246094"/>
       <use xlink:href="#DejaVuSans-35" x="159.033203"/>
      </g>
     </g>
    </g>
    <g id="xtick_6">
     <g id="line2d_6">
      <g>
       <use xlink:href="#m57c9876d7d" x="269.209962" y="307.584" style="stroke: #000000; stroke-width: 0.8"/>
      </g>
     </g>
     <g id="text_6">
      <!-- 20.0 -->
      <g transform="translate(258.077149 322.182437)scale(0.1 -0.1)">
       <use xlink:href="#DejaVuSans-32"/>
       <use xlink:href="#DejaVuSans-30" x="63.623047"/>
       <use xlink:href="#DejaVuSans-2e" x="127.246094"/>
       <use xlink:href="#DejaVuSans-30" x="159.033203"/>
      </g>
     </g>
    </g>
    <g id="xtick_7">
     <g id="line2d_7">
      <g>
       <use xlink:href="#m57c9876d7d" x="308.917456" y="307.584" style="stroke: #000000; stroke-width: 0.8"/>
      </g>
     </g>
     <g id="text_7">
      <!-- 22.5 -->
      <g transform="translate(297.784644 322.182437)scale(0.1 -0.1)">
       <use xlink:href="#DejaVuSans-32"/>
       <use xlink:href="#DejaVuSans-32" x="63.623047"/>
       <use xlink:href="#DejaVuSans-2e" x="127.246094"/>
       <use xlink:href="#DejaVuSans-35" x="159.033203"/>
      </g>
     </g>
    </g>
    <g id="xtick_8">
     <g id="line2d_8">
      <g>
       <use xlink:href="#m57c9876d7d" x="348.624951" y="307.584" style="stroke: #000000; stroke-width: 0.8"/>
      </g>
     </g>
     <g id="text_8">
      <!-- 25.0 -->
      <g transform="translate(337.492139 322.182437)scale(0.1 -0.1)">
       <use xlink:href="#DejaVuSans-32"/>
       <use xlink:href="#DejaVuSans-35" x="63.623047"/>
       <use xlink:href="#DejaVuSans-2e" x="127.246094"/>
       <use xlink:href="#DejaVuSans-30" x="159.033203"/>
      </g>
     </g>
    </g>
    <g id="xtick_9">
     <g id="line2d_9">
      <g>
       <use xlink:href="#m57c9876d7d" x="388.332446" y="307.584" style="stroke: #000000; stroke-width: 0.8"/>
      </g>
     </g>
     <g id="text_9">
      <!-- 27.5 -->
      <g transform="translate(377.199634 322.182437)scale(0.1 -0.1)">
       <use xlink:href="#DejaVuSans-32"/>
       <use xlink:href="#DejaVuSans-37" x="63.623047"/>
       <use xlink:href="#DejaVuSans-2e" x="127.246094"/>
       <use xlink:href="#DejaVuSans-35" x="159.033203"/>
      </g>
     </g>
    </g>
    <g id="text_10">
     <!-- log(v) -->
     <g transform="translate(221.676406 335.860562)scale(0.1 -0.1)">
      <defs>
       <path id="DejaVuSans-6c" d="M 603 4863 
L 1178 4863 
L 1178 0 
L 603 0 
L 603 4863 
z
" transform="scale(0.015625)"/>
       <path id="DejaVuSans-6f" d="M 1959 3097 
Q 1497 3097 1228 2736 
Q 959 2375 959 1747 
Q 959 1119 1226 758 
Q 1494 397 1959 397 
Q 2419 397 2687 759 
Q 2956 1122 2956 1747 
Q 2956 2369 2687 2733 
Q 2419 3097 1959 3097 
z
M 1959 3584 
Q 2709 3584 3137 3096 
Q 3566 2609 3566 1747 
Q 3566 888 3137 398 
Q 2709 -91 1959 -91 
Q 1206 -91 779 398 
Q 353 888 353 1747 
Q 353 2609 779 3096 
Q 1206 3584 1959 3584 
z
" transform="scale(0.015625)"/>
       <path id="DejaVuSans-67" d="M 2906 1791 
Q 2906 2416 2648 2759 
Q 2391 3103 1925 3103 
Q 1463 3103 1205 2759 
Q 947 2416 947 1791 
Q 947 1169 1205 825 
Q 1463 481 1925 481 
Q 2391 481 2648 825 
Q 2906 1169 2906 1791 
z
M 3481 434 
Q 3481 -459 3084 -895 
Q 2688 -1331 1869 -1331 
Q 1566 -1331 1297 -1286 
Q 1028 -1241 775 -1147 
L 775 -588 
Q 1028 -725 1275 -790 
Q 1522 -856 1778 -856 
Q 2344 -856 2625 -561 
Q 2906 -266 2906 331 
L 2906 616 
Q 2728 306 2450 153 
Q 2172 0 1784 0 
Q 1141 0 747 490 
Q 353 981 353 1791 
Q 353 2603 747 3093 
Q 1141 3584 1784 3584 
Q 2172 3584 2450 3431 
Q 2728 3278 2906 2969 
L 2906 3500 
L 3481 3500 
L 3481 434 
z
" transform="scale(0.015625)"/>
       <path id="DejaVuSans-28" d="M 1984 4856 
Q 1566 4138 1362 3434 
Q 1159 2731 1159 2009 
Q 1159 1288 1364 580 
Q 1569 -128 1984 -844 
L 1484 -844 
Q 1016 -109 783 600 
Q 550 1309 550 2009 
Q 550 2706 781 3412 
Q 1013 4119 1484 4856 
L 1984 4856 
z
" transform="scale(0.015625)"/>
       <path id="DejaVuSans-76" d="M 191 3500 
L 800 3500 
L 1894 563 
L 2988 3500 
L 3597 3500 
L 2284 0 
L 1503 0 
L 191 3500 
z
" transform="scale(0.015625)"/>
       <path id="DejaVuSans-29" d="M 513 4856 
L 1013 4856 
Q 1481 4119 1714 3412 
Q 1947 2706 1947 2009 
Q 1947 1309 1714 600 
Q 1481 -109 1013 -844 
L 513 -844 
Q 928 -128 1133 580 
Q 1338 1288 1338 2009 
Q 1338 2731 1133 3434 
Q 928 4138 513 4856 
z
" transform="scale(0.015625)"/>
      </defs>
      <use xlink:href="#DejaVuSans-6c"/>
      <use xlink:href="#DejaVuSans-6f" x="27.783203"/>
      <use xlink:href="#DejaVuSans-67" x="88.964844"/>
      <use xlink:href="#DejaVuSans-28" x="152.441406"/>
      <use xlink:href="#DejaVuSans-76" x="191.455078"/>
      <use xlink:href="#DejaVuSans-29" x="250.634766"/>
     </g>
    </g>
   </g>
   <g id="matplotlib.axis_2">
    <g id="ytick_1">
     <g id="line2d_10">
      <defs>
       <path id="m10f59045b8" d="M 0 0 
L -3.5 0 
" style="stroke: #000000; stroke-width: 0.8"/>
      </defs>
      <g>
       <use xlink:href="#m10f59045b8" x="57.6" y="271.541584" style="stroke: #000000; stroke-width: 0.8"/>
      </g>
     </g>
     <g id="text_11">
      <!-- −15 -->
      <g transform="translate(29.495313 275.340803)scale(0.1 -0.1)">
       <defs>
        <path id="DejaVuSans-2212" d="M 678 2272 
L 4684 2272 
L 4684 1741 
L 678 1741 
L 678 2272 
z
" transform="scale(0.015625)"/>
       </defs>
       <use xlink:href="#DejaVuSans-2212"/>
       <use xlink:href="#DejaVuSans-31" x="83.789062"/>
       <use xlink:href="#DejaVuSans-35" x="147.412109"/>
      </g>
     </g>
    </g>
    <g id="ytick_2">
     <g id="line2d_11">
      <g>
       <use xlink:href="#m10f59045b8" x="57.6" y="229.14894" style="stroke: #000000; stroke-width: 0.8"/>
      </g>
     </g>
     <g id="text_12">
      <!-- −14 -->
      <g transform="translate(29.495313 232.948159)scale(0.1 -0.1)">
       <defs>
        <path id="DejaVuSans-34" d="M 2419 4116 
L 825 1625 
L 2419 1625 
L 2419 4116 
z
M 2253 4666 
L 3047 4666 
L 3047 1625 
L 3713 1625 
L 3713 1100 
L 3047 1100 
L 3047 0 
L 2419 0 
L 2419 1100 
L 313 1100 
L 313 1709 
L 2253 4666 
z
" transform="scale(0.015625)"/>
       </defs>
       <use xlink:href="#DejaVuSans-2212"/>
       <use xlink:href="#DejaVuSans-31" x="83.789062"/>
       <use xlink:href="#DejaVuSans-34" x="147.412109"/>
      </g>
     </g>
    </g>
    <g id="ytick_3">
     <g id="line2d_12">
      <g>
       <use xlink:href="#m10f59045b8" x="57.6" y="186.756295" style="stroke: #000000; stroke-width: 0.8"/>
      </g>
     </g>
     <g id="text_13">
      <!-- −13 -->
      <g transform="translate(29.495313 190.555514)scale(0.1 -0.1)">
       <defs>
        <path id="DejaVuSans-33" d="M 2597 2516 
Q 3050 2419 3304 2112 
Q 3559 1806 3559 1356 
Q 3559 666 3084 287 
Q 2609 -91 1734 -91 
Q 1441 -91 1130 -33 
Q 819 25 488 141 
L 488 750 
Q 750 597 1062 519 
Q 1375 441 1716 441 
Q 2309 441 2620 675 
Q 2931 909 2931 1356 
Q 2931 1769 2642 2001 
Q 2353 2234 1838 2234 
L 1294 2234 
L 1294 2753 
L 1863 2753 
Q 2328 2753 2575 2939 
Q 2822 3125 2822 3475 
Q 2822 3834 2567 4026 
Q 2313 4219 1838 4219 
Q 1578 4219 1281 4162 
Q 984 4106 628 3988 
L 628 4550 
Q 988 4650 1302 4700 
Q 1616 4750 1894 4750 
Q 2613 4750 3031 4423 
Q 3450 4097 3450 3541 
Q 3450 3153 3228 2886 
Q 3006 2619 2597 2516 
z
" transform="scale(0.015625)"/>
       </defs>
       <use xlink:href="#DejaVuSans-2212"/>
       <use xlink:href="#DejaVuSans-31" x="83.789062"/>
       <use xlink:href="#DejaVuSans-33" x="147.412109"/>
      </g>
     </g>
    </g>
    <g id="ytick_4">
     <g id="line2d_13">
      <g>
       <use xlink:href="#m10f59045b8" x="57.6" y="144.363651" style="stroke: #000000; stroke-width: 0.8"/>
      </g>
     </g>
     <g id="text_14">
      <!-- −12 -->
      <g transform="translate(29.495313 148.162869)scale(0.1 -0.1)">
       <use xlink:href="#DejaVuSans-2212"/>
       <use xlink:href="#DejaVuSans-31" x="83.789062"/>
       <use xlink:href="#DejaVuSans-32" x="147.412109"/>
      </g>
     </g>
    </g>
    <g id="ytick_5">
     <g id="line2d_14">
      <g>
       <use xlink:href="#m10f59045b8" x="57.6" y="101.971006" style="stroke: #000000; stroke-width: 0.8"/>
      </g>
     </g>
     <g id="text_15">
      <!-- −11 -->
      <g transform="translate(29.495313 105.770225)scale(0.1 -0.1)">
       <use xlink:href="#DejaVuSans-2212"/>
       <use xlink:href="#DejaVuSans-31" x="83.789062"/>
       <use xlink:href="#DejaVuSans-31" x="147.412109"/>
      </g>
     </g>
    </g>
    <g id="ytick_6">
     <g id="line2d_15">
      <g>
       <use xlink:href="#m10f59045b8" x="57.6" y="59.578362" style="stroke: #000000; stroke-width: 0.8"/>
      </g>
     </g>
     <g id="text_16">
      <!-- −10 -->
      <g transform="translate(29.495313 63.37758)scale(0.1 -0.1)">
       <use xlink:href="#DejaVuSans-2212"/>
       <use xlink:href="#DejaVuSans-31" x="83.789062"/>
       <use xlink:href="#DejaVuSans-30" x="147.412109"/>
      </g>
     </g>
    </g>
    <g id="text_17">
     <!-- log(vFv) -->
     <g transform="translate(23.415625 194.84675)rotate(-90)scale(0.1 -0.1)">
      <defs>
       <path id="DejaVuSans-46" d="M 628 4666 
L 3309 4666 
L 3309 4134 
L 1259 4134 
L 1259 2759 
L 3109 2759 
L 3109 2228 
L 1259 2228 
L 1259 0 
L 628 0 
L 628 4666 
z
" transform="scale(0.015625)"/>
      </defs>
      <use xlink:href="#DejaVuSans-6c"/>
      <use xlink:href="#DejaVuSans-6f" x="27.783203"/>
      <use xlink:href="#DejaVuSans-67" x="88.964844"/>
      <use xlink:href="#DejaVuSans-28" x="152.441406"/>
      <use xlink:href="#DejaVuSans-76" x="191.455078"/>
      <use xlink:href="#DejaVuSans-46" x="250.634766"/>
      <use xlink:href="#DejaVuSans-76" x="308.154297"/>
      <use xlink:href="#DejaVuSans-29" x="367.333984"/>
     </g>
    </g>
   </g>
   <g id="line2d_16">
    <defs>
     <path id="md81d17bb6f" d="M 0 1.5 
C 0.397805 1.5 0.77937 1.341951 1.06066 1.06066 
C 1.341951 0.77937 1.5 0.397805 1.5 0 
C 1.5 -0.397805 1.341951 -0.77937 1.06066 -1.06066 
C 0.77937 -1.341951 0.397805 -1.5 0 -1.5 
C -0.397805 -1.5 -0.77937 -1.341951 -1.06066 -1.06066 
C -1.341951 -0.77937 -1.5 -0.397805 -1.5 0 
C -1.5 0.397805 -1.341951 0.77937 -1.06066 1.06066 
C -0.77937 1.341951 -0.397805 1.5 0 1.5 
z
" style="stroke: #1f77b4"/>
    </defs>
    <g clip-path="url(#p49a0eb3b9b)">
     <use xlink:href="#md81d17bb6f" x="185.649334" y="82.242196" style="fill: #1f77b4; stroke: #1f77b4"/>
     <use xlink:href="#md81d17bb6f" x="187.160853" y="82.054008" style="fill: #1f77b4; stroke: #1f77b4"/>
     <use xlink:href="#md81d17bb6f" x="188.796154" y="83.080666" style="fill: #1f77b4; stroke: #1f77b4"/>
     <use xlink:href="#md81d17bb6f" x="190.777246" y="88.665345" style="fill: #1f77b4; stroke: #1f77b4"/>
     <use xlink:href="#md81d17bb6f" x="191.786802" y="85.249156" style="fill: #1f77b4; stroke: #1f77b4"/>
     <use xlink:href="#md81d17bb6f" x="192.839915" y="90.153904" style="fill: #1f77b4; stroke: #1f77b4"/>
     <use xlink:href="#md81d17bb6f" x="225.666917" y="134.272247" style="fill: #1f77b4; stroke: #1f77b4"/>
     <use xlink:href="#md81d17bb6f" x="226.366036" y="135.255852" style="fill: #1f77b4; stroke: #1f77b4"/>
     <use xlink:href="#md81d17bb6f" x="227.03857" y="137.021827" style="fill: #1f77b4; stroke: #1f77b4"/>
     <use xlink:href="#md81d17bb6f" x="227.685722" y="136.776345" style="fill: #1f77b4; stroke: #1f77b4"/>
     <use xlink:href="#md81d17bb6f" x="228.308759" y="137.270626" style="fill: #1f77b4; stroke: #1f77b4"/>
     <use xlink:href="#md81d17bb6f" x="228.966199" y="139.252203" style="fill: #1f77b4; stroke: #1f77b4"/>
     <use xlink:href="#md81d17bb6f" x="229.670124" y="140.108678" style="fill: #1f77b4; stroke: #1f77b4"/>
     <use xlink:href="#md81d17bb6f" x="230.402036" y="140.552335" style="fill: #1f77b4; stroke: #1f77b4"/>
     <use xlink:href="#md81d17bb6f" x="231.250404" y="143.117995" style="fill: #1f77b4; stroke: #1f77b4"/>
     <use xlink:href="#md81d17bb6f" x="232.484119" y="144.180456" style="fill: #1f77b4; stroke: #1f77b4"/>
     <use xlink:href="#md81d17bb6f" x="234.616686" y="146.039399" style="fill: #1f77b4; stroke: #1f77b4"/>
     <use xlink:href="#md81d17bb6f" x="239.912274" y="152.52275" style="fill: #1f77b4; stroke: #1f77b4"/>
     <use xlink:href="#md81d17bb6f" x="308.956751" y="101.787812" style="fill: #1f77b4; stroke: #1f77b4"/>
     <use xlink:href="#md81d17bb6f" x="312.745809" y="96.309939" style="fill: #1f77b4; stroke: #1f77b4"/>
     <use xlink:href="#md81d17bb6f" x="316.722391" y="92.975812" style="fill: #1f77b4; stroke: #1f77b4"/>
     <use xlink:href="#md81d17bb6f" x="320.874833" y="90.54564" style="fill: #1f77b4; stroke: #1f77b4"/>
     <use xlink:href="#md81d17bb6f" x="324.839749" y="92.093685" style="fill: #1f77b4; stroke: #1f77b4"/>
     <use xlink:href="#md81d17bb6f" x="328.628807" y="91.35504" style="fill: #1f77b4; stroke: #1f77b4"/>
     <use xlink:href="#md81d17bb6f" x="332.605389" y="89.487804" style="fill: #1f77b4; stroke: #1f77b4"/>
     <use xlink:href="#md81d17bb6f" x="336.75783" y="90.744678" style="fill: #1f77b4; stroke: #1f77b4"/>
     <use xlink:href="#md81d17bb6f" x="340.722747" y="90.34873" style="fill: #1f77b4; stroke: #1f77b4"/>
     <use xlink:href="#md81d17bb6f" x="344.511805" y="89.675672" style="fill: #1f77b4; stroke: #1f77b4"/>
     <use xlink:href="#md81d17bb6f" x="348.488387" y="88.935436" style="fill: #1f77b4; stroke: #1f77b4"/>
     <use xlink:href="#md81d17bb6f" x="352.640828" y="94.753162" style="fill: #1f77b4; stroke: #1f77b4"/>
     <use xlink:href="#md81d17bb6f" x="356.605745" y="98.159691" style="fill: #1f77b4; stroke: #1f77b4"/>
     <use xlink:href="#md81d17bb6f" x="360.394803" y="102.665131" style="fill: #1f77b4; stroke: #1f77b4"/>
     <use xlink:href="#md81d17bb6f" x="355.915215" y="109.987274" style="fill: #1f77b4; stroke: #1f77b4"/>
     <use xlink:href="#md81d17bb6f" x="356.708321" y="110.274054" style="fill: #1f77b4; stroke: #1f77b4"/>
     <use xlink:href="#md81d17bb6f" x="357.502956" y="114.880343" style="fill: #1f77b4; stroke: #1f77b4"/>
     <use xlink:href="#md81d17bb6f" x="358.297994" y="114.622328" style="fill: #1f77b4; stroke: #1f77b4"/>
     <use xlink:href="#md81d17bb6f" x="359.09173" y="134.166132" style="fill: #1f77b4; stroke: #1f77b4"/>
     <use xlink:href="#md81d17bb6f" x="359.888726" y="131.602193" style="fill: #1f77b4; stroke: #1f77b4"/>
     <use xlink:href="#md81d17bb6f" x="360.681967" y="128.399558" style="fill: #1f77b4; stroke: #1f77b4"/>
     <use xlink:href="#md81d17bb6f" x="361.47665" y="138.838458" style="fill: #1f77b4; stroke: #1f77b4"/>
    </g>
   </g>
   <g id="LineCollection_1">
    <path d="M 185.649334 82.655368 
L 185.649334 81.838093 
" clip-path="url(#p49a0eb3b9b)" style="fill: none; stroke: #000000; stroke-width: 1.5"/>
    <path d="M 187.160853 82.406863 
L 187.160853 81.707789 
" clip-path="url(#p49a0eb3b9b)" style="fill: none; stroke: #000000; stroke-width: 1.5"/>
    <path d="M 188.796154 83.48429 
L 188.796154 82.6857 
" clip-path="url(#p49a0eb3b9b)" style="fill: none; stroke: #000000; stroke-width: 1.5"/>
    <path d="M 190.777246 89.030912 
L 190.777246 88.306895 
" clip-path="url(#p49a0eb3b9b)" style="fill: none; stroke: #000000; stroke-width: 1.5"/>
    <path d="M 191.786802 85.645363 
L 191.786802 84.861297 
" clip-path="url(#p49a0eb3b9b)" style="fill: none; stroke: #000000; stroke-width: 1.5"/>
    <path d="M 192.839915 90.52091 
L 192.839915 89.79407 
" clip-path="url(#p49a0eb3b9b)" style="fill: none; stroke: #000000; stroke-width: 1.5"/>
    <path d="M 225.666917 135.493123 
L 225.666917 133.12732 
" clip-path="url(#p49a0eb3b9b)" style="fill: none; stroke: #000000; stroke-width: 1.5"/>
    <path d="M 226.366036 136.410565 
L 226.366036 134.169306 
" clip-path="url(#p49a0eb3b9b)" style="fill: none; stroke: #000000; stroke-width: 1.5"/>
    <path d="M 227.03857 138.088852 
L 227.03857 136.013269 
" clip-path="url(#p49a0eb3b9b)" style="fill: none; stroke: #000000; stroke-width: 1.5"/>
    <path d="M 227.685722 137.8185 
L 227.685722 135.790033 
" clip-path="url(#p49a0eb3b9b)" style="fill: none; stroke: #000000; stroke-width: 1.5"/>
    <path d="M 228.308759 138.267792 
L 228.308759 136.324706 
" clip-path="url(#p49a0eb3b9b)" style="fill: none; stroke: #000000; stroke-width: 1.5"/>
    <path d="M 228.966199 140.236242 
L 228.966199 138.318102 
" clip-path="url(#p49a0eb3b9b)" style="fill: none; stroke: #000000; stroke-width: 1.5"/>
    <path d="M 229.670124 141.066881 
L 229.670124 139.197887 
" clip-path="url(#p49a0eb3b9b)" style="fill: none; stroke: #000000; stroke-width: 1.5"/>
    <path d="M 230.402036 141.50457 
L 230.402036 139.646938 
" clip-path="url(#p49a0eb3b9b)" style="fill: none; stroke: #000000; stroke-width: 1.5"/>
    <path d="M 231.250404 144.06235 
L 231.250404 142.219724 
" clip-path="url(#p49a0eb3b9b)" style="fill: none; stroke: #000000; stroke-width: 1.5"/>
    <path d="M 232.484119 145.120974 
L 232.484119 143.285658 
" clip-path="url(#p49a0eb3b9b)" style="fill: none; stroke: #000000; stroke-width: 1.5"/>
    <path d="M 234.616686 146.96572 
L 234.616686 145.15746 
" clip-path="url(#p49a0eb3b9b)" style="fill: none; stroke: #000000; stroke-width: 1.5"/>
    <path d="M 239.912274 153.494293 
L 239.912274 151.599915 
" clip-path="url(#p49a0eb3b9b)" style="fill: none; stroke: #000000; stroke-width: 1.5"/>
    <path d="M 308.956751 103.699259 
L 308.956751 100.056281 
" clip-path="url(#p49a0eb3b9b)" style="fill: none; stroke: #000000; stroke-width: 1.5"/>
    <path d="M 312.745809 97.410277 
L 312.745809 95.271671 
" clip-path="url(#p49a0eb3b9b)" style="fill: none; stroke: #000000; stroke-width: 1.5"/>
    <path d="M 316.722391 93.742683 
L 316.722391 92.239611 
" clip-path="url(#p49a0eb3b9b)" style="fill: none; stroke: #000000; stroke-width: 1.5"/>
    <path d="M 320.874833 91.224148 
L 320.874833 89.891251 
" clip-path="url(#p49a0eb3b9b)" style="fill: none; stroke: #000000; stroke-width: 1.5"/>
    <path d="M 324.839749 92.898041 
L 324.839749 91.323004 
" clip-path="url(#p49a0eb3b9b)" style="fill: none; stroke: #000000; stroke-width: 1.5"/>
    <path d="M 328.628807 92.281983 
L 328.628807 90.472537 
" clip-path="url(#p49a0eb3b9b)" style="fill: none; stroke: #000000; stroke-width: 1.5"/>
    <path d="M 332.605389 90.54564 
L 332.605389 88.48746 
" clip-path="url(#p49a0eb3b9b)" style="fill: none; stroke: #000000; stroke-width: 1.5"/>
    <path d="M 336.75783 92.201667 
L 336.75783 89.394584 
" clip-path="url(#p49a0eb3b9b)" style="fill: none; stroke: #000000; stroke-width: 1.5"/>
    <path d="M 340.722747 92.364837 
L 340.722747 88.53177 
" clip-path="url(#p49a0eb3b9b)" style="fill: none; stroke: #000000; stroke-width: 1.5"/>
    <path d="M 344.511805 92.299395 
L 344.511805 87.379639 
" clip-path="url(#p49a0eb3b9b)" style="fill: none; stroke: #000000; stroke-width: 1.5"/>
    <path d="M 348.488387 92.19084 
L 348.488387 86.170083 
" clip-path="url(#p49a0eb3b9b)" style="fill: none; stroke: #000000; stroke-width: 1.5"/>
    <path d="M 352.640828 100.300137 
L 352.640828 90.496214 
" clip-path="url(#p49a0eb3b9b)" style="fill: none; stroke: #000000; stroke-width: 1.5"/>
    <path d="M 356.605745 107.489757 
L 356.605745 91.99704 
" clip-path="url(#p49a0eb3b9b)" style="fill: none; stroke: #000000; stroke-width: 1.5"/>
    <path d="M 360.394803 118.566623 
L 360.394803 94.262176 
" clip-path="url(#p49a0eb3b9b)" style="fill: none; stroke: #000000; stroke-width: 1.5"/>
    <path d="M 355.915215 116.795395 
L 355.915215 105.028219 
" clip-path="url(#p49a0eb3b9b)" style="fill: none; stroke: #000000; stroke-width: 1.5"/>
    <path d="M 356.708321 115.793467 
L 356.708321 106.033308 
" clip-path="url(#p49a0eb3b9b)" style="fill: none; stroke: #000000; stroke-width: 1.5"/>
    <path d="M 357.502956 120.127401 
L 357.502956 110.80179 
" clip-path="url(#p49a0eb3b9b)" style="fill: none; stroke: #000000; stroke-width: 1.5"/>
    <path d="M 358.297994 118.88682 
L 358.297994 111.162211 
" clip-path="url(#p49a0eb3b9b)" style="fill: none; stroke: #000000; stroke-width: 1.5"/>
    <path d="M 359.09173 147.838561 
L 359.09173 126.407249 
" clip-path="url(#p49a0eb3b9b)" style="fill: none; stroke: #000000; stroke-width: 1.5"/>
    <path d="M 359.888726 143.677002 
L 359.888726 124.371913 
" clip-path="url(#p49a0eb3b9b)" style="fill: none; stroke: #000000; stroke-width: 1.5"/>
    <path d="M 360.681967 135.584323 
L 360.681967 123.244794 
" clip-path="url(#p49a0eb3b9b)" style="fill: none; stroke: #000000; stroke-width: 1.5"/>
    <path d="M 361.47665 151.356059 
L 361.47665 131.455492 
" clip-path="url(#p49a0eb3b9b)" style="fill: none; stroke: #000000; stroke-width: 1.5"/>
   </g>
   <g id="line2d_17">
    <defs>
     <path id="m4e8427c1aa" d="M 0 1.5 
C 0.397805 1.5 0.77937 1.341951 1.06066 1.06066 
C 1.341951 0.77937 1.5 0.397805 1.5 0 
C 1.5 -0.397805 1.341951 -0.77937 1.06066 -1.06066 
C 0.77937 -1.341951 0.397805 -1.5 0 -1.5 
C -0.397805 -1.5 -0.77937 -1.341951 -1.06066 -1.06066 
C -1.341951 -0.77937 -1.5 -0.397805 -1.5 0 
C -1.5 0.397805 -1.341951 0.77937 -1.06066 1.06066 
C -0.77937 1.341951 -0.397805 1.5 0 1.5 
z
" style="stroke: #ff7f0e"/>
    </defs>
    <g clip-path="url(#p49a0eb3b9b)">
     <use xlink:href="#m4e8427c1aa" x="73.832727" y="407.215131" style="fill: #ff7f0e; stroke: #ff7f0e"/>
     <use xlink:href="#m4e8427c1aa" x="77.250145" y="379.876157" style="fill: #ff7f0e; stroke: #ff7f0e"/>
     <use xlink:href="#m4e8427c1aa" x="80.667562" y="352.554734" style="fill: #ff7f0e; stroke: #ff7f0e"/>
     <use xlink:href="#m4e8427c1aa" x="84.08498" y="325.270319" style="fill: #ff7f0e; stroke: #ff7f0e"/>
     <use xlink:href="#m4e8427c1aa" x="87.502398" y="298.093115" style="fill: #ff7f0e; stroke: #ff7f0e"/>
     <use xlink:href="#m4e8427c1aa" x="90.919815" y="271.360483" style="fill: #ff7f0e; stroke: #ff7f0e"/>
     <use xlink:href="#m4e8427c1aa" x="94.337233" y="246.584271" style="fill: #ff7f0e; stroke: #ff7f0e"/>
     <use xlink:href="#m4e8427c1aa" x="97.754635" y="226.273998" style="fill: #ff7f0e; stroke: #ff7f0e"/>
     <use xlink:href="#m4e8427c1aa" x="101.172052" y="210.494692" style="fill: #ff7f0e; stroke: #ff7f0e"/>
     <use xlink:href="#m4e8427c1aa" x="104.58947" y="197.650781" style="fill: #ff7f0e; stroke: #ff7f0e"/>
     <use xlink:href="#m4e8427c1aa" x="108.006887" y="186.576381" style="fill: #ff7f0e; stroke: #ff7f0e"/>
     <use xlink:href="#m4e8427c1aa" x="111.424305" y="176.807123" style="fill: #ff7f0e; stroke: #ff7f0e"/>
     <use xlink:href="#m4e8427c1aa" x="114.841723" y="168.293196" style="fill: #ff7f0e; stroke: #ff7f0e"/>
     <use xlink:href="#m4e8427c1aa" x="118.25914" y="161.088185" style="fill: #ff7f0e; stroke: #ff7f0e"/>
     <use xlink:href="#m4e8427c1aa" x="121.676558" y="155.041934" style="fill: #ff7f0e; stroke: #ff7f0e"/>
     <use xlink:href="#m4e8427c1aa" x="125.093975" y="149.676212" style="fill: #ff7f0e; stroke: #ff7f0e"/>
     <use xlink:href="#m4e8427c1aa" x="128.511393" y="144.512873" style="fill: #ff7f0e; stroke: #ff7f0e"/>
     <use xlink:href="#m4e8427c1aa" x="131.928811" y="139.376368" style="fill: #ff7f0e; stroke: #ff7f0e"/>
     <use xlink:href="#m4e8427c1aa" x="135.346228" y="134.253386" style="fill: #ff7f0e; stroke: #ff7f0e"/>
     <use xlink:href="#m4e8427c1aa" x="138.76363" y="129.146896" style="fill: #ff7f0e; stroke: #ff7f0e"/>
     <use xlink:href="#m4e8427c1aa" x="142.181048" y="124.063551" style="fill: #ff7f0e; stroke: #ff7f0e"/>
     <use xlink:href="#m4e8427c1aa" x="145.598465" y="119.013019" style="fill: #ff7f0e; stroke: #ff7f0e"/>
     <use xlink:href="#m4e8427c1aa" x="149.015883" y="114.008821" style="fill: #ff7f0e; stroke: #ff7f0e"/>
     <use xlink:href="#m4e8427c1aa" x="152.4333" y="109.07046" style="fill: #ff7f0e; stroke: #ff7f0e"/>
     <use xlink:href="#m4e8427c1aa" x="155.850718" y="104.225828" style="fill: #ff7f0e; stroke: #ff7f0e"/>
     <use xlink:href="#m4e8427c1aa" x="159.268136" y="99.515115" style="fill: #ff7f0e; stroke: #ff7f0e"/>
     <use xlink:href="#m4e8427c1aa" x="162.685553" y="94.996653" style="fill: #ff7f0e; stroke: #ff7f0e"/>
     <use xlink:href="#m4e8427c1aa" x="166.102971" y="90.755098" style="fill: #ff7f0e; stroke: #ff7f0e"/>
     <use xlink:href="#m4e8427c1aa" x="169.520388" y="86.913561" style="fill: #ff7f0e; stroke: #ff7f0e"/>
     <use xlink:href="#m4e8427c1aa" x="172.937806" y="83.648944" style="fill: #ff7f0e; stroke: #ff7f0e"/>
     <use xlink:href="#m4e8427c1aa" x="176.355224" y="81.20882" style="fill: #ff7f0e; stroke: #ff7f0e"/>
     <use xlink:href="#m4e8427c1aa" x="179.772625" y="79.917406" style="fill: #ff7f0e; stroke: #ff7f0e"/>
     <use xlink:href="#m4e8427c1aa" x="183.190043" y="80.13567" style="fill: #ff7f0e; stroke: #ff7f0e"/>
     <use xlink:href="#m4e8427c1aa" x="186.607461" y="82.108631" style="fill: #ff7f0e; stroke: #ff7f0e"/>
     <use xlink:href="#m4e8427c1aa" x="190.024878" y="85.675467" style="fill: #ff7f0e; stroke: #ff7f0e"/>
     <use xlink:href="#m4e8427c1aa" x="193.442296" y="90.158387" style="fill: #ff7f0e; stroke: #ff7f0e"/>
     <use xlink:href="#m4e8427c1aa" x="196.859713" y="94.886878" style="fill: #ff7f0e; stroke: #ff7f0e"/>
     <use xlink:href="#m4e8427c1aa" x="200.277131" y="99.635572" style="fill: #ff7f0e; stroke: #ff7f0e"/>
     <use xlink:href="#m4e8427c1aa" x="203.694549" y="104.383778" style="fill: #ff7f0e; stroke: #ff7f0e"/>
     <use xlink:href="#m4e8427c1aa" x="207.111966" y="109.130362" style="fill: #ff7f0e; stroke: #ff7f0e"/>
     <use xlink:href="#m4e8427c1aa" x="210.529384" y="113.873962" style="fill: #ff7f0e; stroke: #ff7f0e"/>
     <use xlink:href="#m4e8427c1aa" x="213.946801" y="118.611986" style="fill: #ff7f0e; stroke: #ff7f0e"/>
     <use xlink:href="#m4e8427c1aa" x="217.364219" y="123.339935" style="fill: #ff7f0e; stroke: #ff7f0e"/>
     <use xlink:href="#m4e8427c1aa" x="220.781637" y="128.049688" style="fill: #ff7f0e; stroke: #ff7f0e"/>
     <use xlink:href="#m4e8427c1aa" x="224.199038" y="132.727298" style="fill: #ff7f0e; stroke: #ff7f0e"/>
     <use xlink:href="#m4e8427c1aa" x="227.616456" y="137.349385" style="fill: #ff7f0e; stroke: #ff7f0e"/>
     <use xlink:href="#m4e8427c1aa" x="231.033874" y="141.878222" style="fill: #ff7f0e; stroke: #ff7f0e"/>
     <use xlink:href="#m4e8427c1aa" x="234.451291" y="146.256014" style="fill: #ff7f0e; stroke: #ff7f0e"/>
     <use xlink:href="#m4e8427c1aa" x="237.868709" y="150.400475" style="fill: #ff7f0e; stroke: #ff7f0e"/>
     <use xlink:href="#m4e8427c1aa" x="241.286126" y="154.200867" style="fill: #ff7f0e; stroke: #ff7f0e"/>
     <use xlink:href="#m4e8427c1aa" x="244.703544" y="157.504541" style="fill: #ff7f0e; stroke: #ff7f0e"/>
     <use xlink:href="#m4e8427c1aa" x="248.120962" y="160.052796" style="fill: #ff7f0e; stroke: #ff7f0e"/>
     <use xlink:href="#m4e8427c1aa" x="251.538379" y="161.326456" style="fill: #ff7f0e; stroke: #ff7f0e"/>
     <use xlink:href="#m4e8427c1aa" x="254.955797" y="160.543333" style="fill: #ff7f0e; stroke: #ff7f0e"/>
     <use xlink:href="#m4e8427c1aa" x="258.373214" y="157.410666" style="fill: #ff7f0e; stroke: #ff7f0e"/>
     <use xlink:href="#m4e8427c1aa" x="261.790632" y="152.842097" style="fill: #ff7f0e; stroke: #ff7f0e"/>
     <use xlink:href="#m4e8427c1aa" x="265.208034" y="147.997061" style="fill: #ff7f0e; stroke: #ff7f0e"/>
     <use xlink:href="#m4e8427c1aa" x="268.625451" y="143.31443" style="fill: #ff7f0e; stroke: #ff7f0e"/>
     <use xlink:href="#m4e8427c1aa" x="272.042869" y="138.831707" style="fill: #ff7f0e; stroke: #ff7f0e"/>
     <use xlink:href="#m4e8427c1aa" x="275.460287" y="134.522537" style="fill: #ff7f0e; stroke: #ff7f0e"/>
     <use xlink:href="#m4e8427c1aa" x="278.877704" y="130.357799" style="fill: #ff7f0e; stroke: #ff7f0e"/>
     <use xlink:href="#m4e8427c1aa" x="282.295122" y="126.315491" style="fill: #ff7f0e; stroke: #ff7f0e"/>
     <use xlink:href="#m4e8427c1aa" x="285.712539" y="122.388703" style="fill: #ff7f0e; stroke: #ff7f0e"/>
     <use xlink:href="#m4e8427c1aa" x="289.129957" y="118.576163" style="fill: #ff7f0e; stroke: #ff7f0e"/>
     <use xlink:href="#m4e8427c1aa" x="292.547375" y="114.883551" style="fill: #ff7f0e; stroke: #ff7f0e"/>
     <use xlink:href="#m4e8427c1aa" x="295.964792" y="111.324053" style="fill: #ff7f0e; stroke: #ff7f0e"/>
     <use xlink:href="#m4e8427c1aa" x="299.38221" y="107.91526" style="fill: #ff7f0e; stroke: #ff7f0e"/>
     <use xlink:href="#m4e8427c1aa" x="302.799627" y="104.681465" style="fill: #ff7f0e; stroke: #ff7f0e"/>
     <use xlink:href="#m4e8427c1aa" x="306.217045" y="101.649373" style="fill: #ff7f0e; stroke: #ff7f0e"/>
     <use xlink:href="#m4e8427c1aa" x="309.634447" y="98.847135" style="fill: #ff7f0e; stroke: #ff7f0e"/>
     <use xlink:href="#m4e8427c1aa" x="313.051864" y="96.322992" style="fill: #ff7f0e; stroke: #ff7f0e"/>
     <use xlink:href="#m4e8427c1aa" x="316.469282" y="94.127138" style="fill: #ff7f0e; stroke: #ff7f0e"/>
     <use xlink:href="#m4e8427c1aa" x="319.8867" y="92.304339" style="fill: #ff7f0e; stroke: #ff7f0e"/>
     <use xlink:href="#m4e8427c1aa" x="323.304117" y="90.909069" style="fill: #ff7f0e; stroke: #ff7f0e"/>
     <use xlink:href="#m4e8427c1aa" x="326.721535" y="90.015687" style="fill: #ff7f0e; stroke: #ff7f0e"/>
     <use xlink:href="#m4e8427c1aa" x="330.138952" y="89.690196" style="fill: #ff7f0e; stroke: #ff7f0e"/>
     <use xlink:href="#m4e8427c1aa" x="333.55637" y="89.981815" style="fill: #ff7f0e; stroke: #ff7f0e"/>
     <use xlink:href="#m4e8427c1aa" x="336.973788" y="90.915683" style="fill: #ff7f0e; stroke: #ff7f0e"/>
     <use xlink:href="#m4e8427c1aa" x="340.391205" y="92.489382" style="fill: #ff7f0e; stroke: #ff7f0e"/>
     <use xlink:href="#m4e8427c1aa" x="343.808623" y="94.668534" style="fill: #ff7f0e; stroke: #ff7f0e"/>
     <use xlink:href="#m4e8427c1aa" x="347.22604" y="97.413119" style="fill: #ff7f0e; stroke: #ff7f0e"/>
     <use xlink:href="#m4e8427c1aa" x="350.643442" y="100.875241" style="fill: #ff7f0e; stroke: #ff7f0e"/>
     <use xlink:href="#m4e8427c1aa" x="354.06086" y="105.744884" style="fill: #ff7f0e; stroke: #ff7f0e"/>
     <use xlink:href="#m4e8427c1aa" x="357.478277" y="113.506596" style="fill: #ff7f0e; stroke: #ff7f0e"/>
     <use xlink:href="#m4e8427c1aa" x="360.895695" y="127.382048" style="fill: #ff7f0e; stroke: #ff7f0e"/>
     <use xlink:href="#m4e8427c1aa" x="364.313113" y="150.260213" style="fill: #ff7f0e; stroke: #ff7f0e"/>
     <use xlink:href="#m4e8427c1aa" x="367.73053" y="180.088611" style="fill: #ff7f0e; stroke: #ff7f0e"/>
     <use xlink:href="#m4e8427c1aa" x="371.147948" y="208.966353" style="fill: #ff7f0e; stroke: #ff7f0e"/>
     <use xlink:href="#m4e8427c1aa" x="374.565365" y="232.735781" style="fill: #ff7f0e; stroke: #ff7f0e"/>
     <use xlink:href="#m4e8427c1aa" x="377.982783" y="258.568884" style="fill: #ff7f0e; stroke: #ff7f0e"/>
     <use xlink:href="#m4e8427c1aa" x="381.400201" y="306.225593" style="fill: #ff7f0e; stroke: #ff7f0e"/>
     <use xlink:href="#m4e8427c1aa" x="384.817618" y="406.577122" style="fill: #ff7f0e; stroke: #ff7f0e"/>
     <use xlink:href="#m4e8427c1aa" x="388.235036" y="685.050546" style="fill: #ff7f0e; stroke: #ff7f0e"/>
     <use xlink:href="#m4e8427c1aa" x="391.652438" y="1554.75905" style="fill: #ff7f0e; stroke: #ff7f0e"/>
     <use xlink:href="#m4e8427c1aa" x="395.069855" y="3532.092397" style="fill: #ff7f0e; stroke: #ff7f0e"/>
     <use xlink:href="#m4e8427c1aa" x="398.487273" y="6611.744554" style="fill: #ff7f0e; stroke: #ff7f0e"/>
    </g>
   </g>
   <g id="line2d_18">
    <path d="M 81.413403 346.6 
L 84.08498 325.270319 
L 87.502398 298.093115 
L 90.919815 271.360483 
L 94.337233 246.584271 
L 97.754635 226.273998 
L 101.172052 210.494692 
L 104.58947 197.650781 
L 108.006887 186.576381 
L 111.424305 176.807123 
L 114.841723 168.293196 
L 118.25914 161.088185 
L 121.676558 155.041934 
L 125.093975 149.676212 
L 128.511393 144.512873 
L 131.928811 139.376368 
L 135.346228 134.253386 
L 138.76363 129.146896 
L 142.181048 124.063551 
L 145.598465 119.013019 
L 149.015883 114.008821 
L 152.4333 109.07046 
L 155.850718 104.225828 
L 159.268136 99.515115 
L 162.685553 94.996653 
L 166.102971 90.755098 
L 169.520388 86.913561 
L 172.937806 83.648944 
L 176.355224 81.20882 
L 179.772625 79.917406 
L 183.190043 80.13567 
L 186.607461 82.108631 
L 190.024878 85.675467 
L 193.442296 90.158387 
L 196.859713 94.886878 
L 200.277131 99.635572 
L 203.694549 104.383778 
L 207.111966 109.130362 
L 210.529384 113.873962 
L 213.946801 118.611986 
L 217.364219 123.339935 
L 220.781637 128.049688 
L 224.199038 132.727298 
L 227.616456 137.349385 
L 231.033874 141.878222 
L 234.451291 146.256014 
L 237.868709 150.400475 
L 241.286126 154.200867 
L 244.703544 157.504541 
L 248.120962 160.052796 
L 251.538379 161.326456 
L 254.955797 160.543333 
L 258.373214 157.410666 
L 261.790632 152.842097 
L 265.208034 147.997061 
L 268.625451 143.31443 
L 272.042869 138.831707 
L 275.460287 134.522537 
L 278.877704 130.357799 
L 282.295122 126.315491 
L 285.712539 122.388703 
L 289.129957 118.576163 
L 292.547375 114.883551 
L 295.964792 111.324053 
L 299.38221 107.91526 
L 302.799627 104.681465 
L 306.217045 101.649373 
L 309.634447 98.847135 
L 313.051864 96.322992 
L 316.469282 94.127138 
L 319.8867 92.304339 
L 323.304117 90.909069 
L 326.721535 90.015687 
L 330.138952 89.690196 
L 333.55637 89.981815 
L 336.973788 90.915683 
L 340.391205 92.489382 
L 343.808623 94.668534 
L 347.22604 97.413119 
L 350.643442 100.875241 
L 354.06086 105.744884 
L 357.478277 113.506596 
L 360.895695 127.382048 
L 364.313113 150.260213 
L 367.73053 180.088611 
L 371.147948 208.966353 
L 374.565365 232.735781 
L 377.982783 258.568884 
L 381.400201 306.225593 
L 382.775129 346.6 
" clip-path="url(#p49a0eb3b9b)" style="fill: none; stroke: #2ca02c; stroke-width: 1.5; stroke-linecap: square"/>
   </g>
   <g id="line2d_19">
    <defs>
     <path id="mc9395e852d" d="M 0 1.5 
C 0.397805 1.5 0.77937 1.341951 1.06066 1.06066 
C 1.341951 0.77937 1.5 0.397805 1.5 0 
C 1.5 -0.397805 1.341951 -0.77937 1.06066 -1.06066 
C 0.77937 -1.341951 0.397805 -1.5 0 -1.5 
C -0.397805 -1.5 -0.77937 -1.341951 -1.06066 -1.06066 
C -1.341951 -0.77937 -1.5 -0.397805 -1.5 0 
C -1.5 0.397805 -1.341951 0.77937 -1.06066 1.06066 
C -0.77937 1.341951 -0.397805 1.5 0 1.5 
z
" style="stroke: #0000ff"/>
    </defs>
    <g clip-path="url(#p49a0eb3b9b)">
     <use xlink:href="#mc9395e852d" x="185.649334" y="82.242196" style="fill: #0000ff; stroke: #0000ff"/>
     <use xlink:href="#mc9395e852d" x="187.160853" y="82.054008" style="fill: #0000ff; stroke: #0000ff"/>
     <use xlink:href="#mc9395e852d" x="188.796154" y="83.080666" style="fill: #0000ff; stroke: #0000ff"/>
     <use xlink:href="#mc9395e852d" x="190.777246" y="88.665345" style="fill: #0000ff; stroke: #0000ff"/>
     <use xlink:href="#mc9395e852d" x="191.786802" y="85.249156" style="fill: #0000ff; stroke: #0000ff"/>
     <use xlink:href="#mc9395e852d" x="192.839915" y="90.153904" style="fill: #0000ff; stroke: #0000ff"/>
     <use xlink:href="#mc9395e852d" x="225.666917" y="134.272247" style="fill: #0000ff; stroke: #0000ff"/>
     <use xlink:href="#mc9395e852d" x="226.366036" y="135.255852" style="fill: #0000ff; stroke: #0000ff"/>
     <use xlink:href="#mc9395e852d" x="227.03857" y="137.021827" style="fill: #0000ff; stroke: #0000ff"/>
     <use xlink:href="#mc9395e852d" x="227.685722" y="136.776345" style="fill: #0000ff; stroke: #0000ff"/>
     <use xlink:href="#mc9395e852d" x="228.308759" y="137.270626" style="fill: #0000ff; stroke: #0000ff"/>
     <use xlink:href="#mc9395e852d" x="228.966199" y="139.252203" style="fill: #0000ff; stroke: #0000ff"/>
     <use xlink:href="#mc9395e852d" x="229.670124" y="140.108678" style="fill: #0000ff; stroke: #0000ff"/>
     <use xlink:href="#mc9395e852d" x="230.402036" y="140.552335" style="fill: #0000ff; stroke: #0000ff"/>
     <use xlink:href="#mc9395e852d" x="231.250404" y="143.117995" style="fill: #0000ff; stroke: #0000ff"/>
     <use xlink:href="#mc9395e852d" x="232.484119" y="144.180456" style="fill: #0000ff; stroke: #0000ff"/>
     <use xlink:href="#mc9395e852d" x="234.616686" y="146.039399" style="fill: #0000ff; stroke: #0000ff"/>
     <use xlink:href="#mc9395e852d" x="239.912274" y="152.52275" style="fill: #0000ff; stroke: #0000ff"/>
     <use xlink:href="#mc9395e852d" x="308.956751" y="101.787812" style="fill: #0000ff; stroke: #0000ff"/>
     <use xlink:href="#mc9395e852d" x="312.745809" y="96.309939" style="fill: #0000ff; stroke: #0000ff"/>
     <use xlink:href="#mc9395e852d" x="316.722391" y="92.975812" style="fill: #0000ff; stroke: #0000ff"/>
     <use xlink:href="#mc9395e852d" x="320.874833" y="90.54564" style="fill: #0000ff; stroke: #0000ff"/>
     <use xlink:href="#mc9395e852d" x="324.839749" y="92.093685" style="fill: #0000ff; stroke: #0000ff"/>
     <use xlink:href="#mc9395e852d" x="328.628807" y="91.35504" style="fill: #0000ff; stroke: #0000ff"/>
     <use xlink:href="#mc9395e852d" x="332.605389" y="89.487804" style="fill: #0000ff; stroke: #0000ff"/>
     <use xlink:href="#mc9395e852d" x="336.75783" y="90.744678" style="fill: #0000ff; stroke: #0000ff"/>
     <use xlink:href="#mc9395e852d" x="340.722747" y="90.34873" style="fill: #0000ff; stroke: #0000ff"/>
     <use xlink:href="#mc9395e852d" x="344.511805" y="89.675672" style="fill: #0000ff; stroke: #0000ff"/>
     <use xlink:href="#mc9395e852d" x="348.488387" y="88.935436" style="fill: #0000ff; stroke: #0000ff"/>
     <use xlink:href="#mc9395e852d" x="352.640828" y="94.753162" style="fill: #0000ff; stroke: #0000ff"/>
     <use xlink:href="#mc9395e852d" x="356.605745" y="98.159691" style="fill: #0000ff; stroke: #0000ff"/>
     <use xlink:href="#mc9395e852d" x="360.394803" y="102.665131" style="fill: #0000ff; stroke: #0000ff"/>
     <use xlink:href="#mc9395e852d" x="355.915215" y="109.987274" style="fill: #0000ff; stroke: #0000ff"/>
     <use xlink:href="#mc9395e852d" x="356.708321" y="110.274054" style="fill: #0000ff; stroke: #0000ff"/>
     <use xlink:href="#mc9395e852d" x="357.502956" y="114.880343" style="fill: #0000ff; stroke: #0000ff"/>
     <use xlink:href="#mc9395e852d" x="358.297994" y="114.622328" style="fill: #0000ff; stroke: #0000ff"/>
     <use xlink:href="#mc9395e852d" x="359.09173" y="134.166132" style="fill: #0000ff; stroke: #0000ff"/>
     <use xlink:href="#mc9395e852d" x="359.888726" y="131.602193" style="fill: #0000ff; stroke: #0000ff"/>
     <use xlink:href="#mc9395e852d" x="360.681967" y="128.399558" style="fill: #0000ff; stroke: #0000ff"/>
     <use xlink:href="#mc9395e852d" x="361.47665" y="138.838458" style="fill: #0000ff; stroke: #0000ff"/>
    </g>
   </g>
   <g id="patch_3">
    <path d="M 57.6 307.584 
L 57.6 41.472 
" style="fill: none; stroke: #000000; stroke-width: 0.8; stroke-linejoin: miter; stroke-linecap: square"/>
   </g>
   <g id="patch_4">
    <path d="M 414.72 307.584 
L 414.72 41.472 
" style="fill: none; stroke: #000000; stroke-width: 0.8; stroke-linejoin: miter; stroke-linecap: square"/>
   </g>
   <g id="patch_5">
    <path d="M 57.6 307.584 
L 414.72 307.584 
" style="fill: none; stroke: #000000; stroke-width: 0.8; stroke-linejoin: miter; stroke-linecap: square"/>
   </g>
   <g id="patch_6">
    <path d="M 57.6 41.472 
L 414.72 41.472 
" style="fill: none; stroke: #000000; stroke-width: 0.8; stroke-linejoin: miter; stroke-linecap: square"/>
   </g>
   <g id="text_18">
    <!-- MCMC $\chi^2$ = 141.27 -->
    <g transform="translate(179.34 35.472)scale(0.12 -0.12)">
     <defs>
      <path id="DejaVuSans-4d" d="M 628 4666 
L 1569 4666 
L 2759 1491 
L 3956 4666 
L 4897 4666 
L 4897 0 
L 4281 0 
L 4281 4097 
L 3078 897 
L 2444 897 
L 1241 4097 
L 1241 0 
L 628 0 
L 628 4666 
z
" transform="scale(0.015625)"/>
      <path id="DejaVuSans-43" d="M 4122 4306 
L 4122 3641 
Q 3803 3938 3442 4084 
Q 3081 4231 2675 4231 
Q 1875 4231 1450 3742 
Q 1025 3253 1025 2328 
Q 1025 1406 1450 917 
Q 1875 428 2675 428 
Q 3081 428 3442 575 
Q 3803 722 4122 1019 
L 4122 359 
Q 3791 134 3420 21 
Q 3050 -91 2638 -91 
Q 1578 -91 968 557 
Q 359 1206 359 2328 
Q 359 3453 968 4101 
Q 1578 4750 2638 4750 
Q 3056 4750 3426 4639 
Q 3797 4528 4122 4306 
z
" transform="scale(0.015625)"/>
      <path id="DejaVuSans-20" transform="scale(0.015625)"/>
      <path id="DejaVuSans-Oblique-3c7" d="M 1922 -781 
L 1691 416 
L 394 -1334 
L -284 -1334 
L 1553 1141 
L 1269 2613 
Q 1194 3006 713 3006 
L 559 3006 
L 653 3500 
L 872 3494 
Q 1675 3472 1775 2950 
L 2006 1753 
L 3303 3503 
L 3981 3503 
L 2144 1028 
L 2428 -444 
Q 2503 -838 2984 -838 
L 3138 -838 
L 3044 -1331 
L 2825 -1325 
Q 2022 -1303 1922 -781 
z
" transform="scale(0.015625)"/>
      <path id="DejaVuSans-3d" d="M 678 2906 
L 4684 2906 
L 4684 2381 
L 678 2381 
L 678 2906 
z
M 678 1631 
L 4684 1631 
L 4684 1100 
L 678 1100 
L 678 1631 
z
" transform="scale(0.015625)"/>
     </defs>
     <use xlink:href="#DejaVuSans-4d" transform="translate(0 0.765625)"/>
     <use xlink:href="#DejaVuSans-43" transform="translate(86.279297 0.765625)"/>
     <use xlink:href="#DejaVuSans-4d" transform="translate(156.103516 0.765625)"/>
     <use xlink:href="#DejaVuSans-43" transform="translate(242.382812 0.765625)"/>
     <use xlink:href="#DejaVuSans-20" transform="translate(312.207031 0.765625)"/>
     <use xlink:href="#DejaVuSans-Oblique-3c7" transform="translate(343.994141 0.765625)"/>
     <use xlink:href="#DejaVuSans-32" transform="translate(407.646536 39.046875)scale(0.7)"/>
     <use xlink:href="#DejaVuSans-20" transform="translate(454.917044 0.765625)"/>
     <use xlink:href="#DejaVuSans-3d" transform="translate(486.704154 0.765625)"/>
     <use xlink:href="#DejaVuSans-20" transform="translate(570.493216 0.765625)"/>
     <use xlink:href="#DejaVuSans-31" transform="translate(602.280326 0.765625)"/>
     <use xlink:href="#DejaVuSans-34" transform="translate(665.903372 0.765625)"/>
     <use xlink:href="#DejaVuSans-31" transform="translate(729.526419 0.765625)"/>
     <use xlink:href="#DejaVuSans-2e" transform="translate(793.149466 0.765625)"/>
     <use xlink:href="#DejaVuSans-32" transform="translate(819.436576 0.765625)"/>
     <use xlink:href="#DejaVuSans-37" transform="translate(883.059622 0.765625)"/>
    </g>
   </g>
  </g>
 </g>
 <defs>
  <clipPath id="p49a0eb3b9b">
   <rect x="57.6" y="41.472" width="357.12" height="266.112"/>
  </clipPath>
 </defs>
</svg>
