<?xml version="1.0" encoding="utf-8" standalone="no"?>
<!DOCTYPE svg PUBLIC "-//W3C//DTD SVG 1.1//EN"
  "http://www.w3.org/Graphics/SVG/1.1/DTD/svg11.dtd">
<svg xmlns:xlink="http://www.w3.org/1999/xlink" width="460.8pt" height="345.6pt" viewBox="0 0 460.8 345.6" xmlns="http://www.w3.org/2000/svg" version="1.1">
 <metadata>
  <rdf:RDF xmlns:dc="http://purl.org/dc/elements/1.1/" xmlns:cc="http://creativecommons.org/ns#" xmlns:rdf="http://www.w3.org/1999/02/22-rdf-syntax-ns#">
   <cc:Work>
    <dc:type rdf:resource="http://purl.org/dc/dcmitype/StillImage"/>
    <dc:date>2022-06-11T09:47:12.694067</dc:date>
    <dc:format>image/svg+xml</dc:format>
    <dc:creator>
     <cc:Agent>
      <dc:title>Matplotlib v3.5.0, https://matplotlib.org/</dc:title>
     </cc:Agent>
    </dc:creator>
   </cc:Work>
  </rdf:RDF>
 </metadata>
 <defs>
  <style type="text/css">*{stroke-linejoin: round; stroke-linecap: butt}</style>
 </defs>
 <g id="figure_1">
  <g id="patch_1">
   <path d="M 0 345.6 
L 460.8 345.6 
L 460.8 0 
L 0 0 
z
" style="fill: #ffffff"/>
  </g>
  <g id="axes_1">
   <g id="patch_2">
    <path d="M 57.6 307.584 
L 414.72 307.584 
L 414.72 41.472 
L 57.6 41.472 
z
" style="fill: #ffffff"/>
   </g>
   <g id="matplotlib.axis_1">
    <g id="xtick_1">
     <g id="line2d_1">
      <defs>
       <path id="mf82482ffa9" d="M 0 0 
L 0 3.5 
" style="stroke: #000000; stroke-width: 0.8"/>
      </defs>
      <g>
       <use xlink:href="#mf82482ffa9" x="57.6" y="307.584" style="stroke: #000000; stroke-width: 0.8"/>
      </g>
     </g>
     <g id="text_1">
      <!-- 500 -->
      <g transform="translate(48.05625 322.182437)scale(0.1 -0.1)">
       <defs>
        <path id="DejaVuSans-35" d="M 691 4666 
L 3169 4666 
L 3169 4134 
L 1269 4134 
L 1269 2991 
Q 1406 3038 1543 3061 
Q 1681 3084 1819 3084 
Q 2600 3084 3056 2656 
Q 3513 2228 3513 1497 
Q 3513 744 3044 326 
Q 2575 -91 1722 -91 
Q 1428 -91 1123 -41 
Q 819 9 494 109 
L 494 744 
Q 775 591 1075 516 
Q 1375 441 1709 441 
Q 2250 441 2565 725 
Q 2881 1009 2881 1497 
Q 2881 1984 2565 2268 
Q 2250 2553 1709 2553 
Q 1456 2553 1204 2497 
Q 953 2441 691 2322 
L 691 4666 
z
" transform="scale(0.015625)"/>
        <path id="DejaVuSans-30" d="M 2034 4250 
Q 1547 4250 1301 3770 
Q 1056 3291 1056 2328 
Q 1056 1369 1301 889 
Q 1547 409 2034 409 
Q 2525 409 2770 889 
Q 3016 1369 3016 2328 
Q 3016 3291 2770 3770 
Q 2525 4250 2034 4250 
z
M 2034 4750 
Q 2819 4750 3233 4129 
Q 3647 3509 3647 2328 
Q 3647 1150 3233 529 
Q 2819 -91 2034 -91 
Q 1250 -91 836 529 
Q 422 1150 422 2328 
Q 422 3509 836 4129 
Q 1250 4750 2034 4750 
z
" transform="scale(0.015625)"/>
       </defs>
       <use xlink:href="#DejaVuSans-35"/>
       <use xlink:href="#DejaVuSans-30" x="63.623047"/>
       <use xlink:href="#DejaVuSans-30" x="127.246094"/>
      </g>
     </g>
    </g>
    <g id="xtick_2">
     <g id="line2d_2">
      <g>
       <use xlink:href="#mf82482ffa9" x="108.617143" y="307.584" style="stroke: #000000; stroke-width: 0.8"/>
      </g>
     </g>
     <g id="text_2">
      <!-- 1000 -->
      <g transform="translate(95.892143 322.182437)scale(0.1 -0.1)">
       <defs>
        <path id="DejaVuSans-31" d="M 794 531 
L 1825 531 
L 1825 4091 
L 703 3866 
L 703 4441 
L 1819 4666 
L 2450 4666 
L 2450 531 
L 3481 531 
L 3481 0 
L 794 0 
L 794 531 
z
" transform="scale(0.015625)"/>
       </defs>
       <use xlink:href="#DejaVuSans-31"/>
       <use xlink:href="#DejaVuSans-30" x="63.623047"/>
       <use xlink:href="#DejaVuSans-30" x="127.246094"/>
       <use xlink:href="#DejaVuSans-30" x="190.869141"/>
      </g>
     </g>
    </g>
    <g id="xtick_3">
     <g id="line2d_3">
      <g>
       <use xlink:href="#mf82482ffa9" x="159.634286" y="307.584" style="stroke: #000000; stroke-width: 0.8"/>
      </g>
     </g>
     <g id="text_3">
      <!-- 1500 -->
      <g transform="translate(146.909286 322.182437)scale(0.1 -0.1)">
       <use xlink:href="#DejaVuSans-31"/>
       <use xlink:href="#DejaVuSans-35" x="63.623047"/>
       <use xlink:href="#DejaVuSans-30" x="127.246094"/>
       <use xlink:href="#DejaVuSans-30" x="190.869141"/>
      </g>
     </g>
    </g>
    <g id="xtick_4">
     <g id="line2d_4">
      <g>
       <use xlink:href="#mf82482ffa9" x="210.651429" y="307.584" style="stroke: #000000; stroke-width: 0.8"/>
      </g>
     </g>
     <g id="text_4">
      <!-- 2000 -->
      <g transform="translate(197.926429 322.182437)scale(0.1 -0.1)">
       <defs>
        <path id="DejaVuSans-32" d="M 1228 531 
L 3431 531 
L 3431 0 
L 469 0 
L 469 531 
Q 828 903 1448 1529 
Q 2069 2156 2228 2338 
Q 2531 2678 2651 2914 
Q 2772 3150 2772 3378 
Q 2772 3750 2511 3984 
Q 2250 4219 1831 4219 
Q 1534 4219 1204 4116 
Q 875 4013 500 3803 
L 500 4441 
Q 881 4594 1212 4672 
Q 1544 4750 1819 4750 
Q 2544 4750 2975 4387 
Q 3406 4025 3406 3419 
Q 3406 3131 3298 2873 
Q 3191 2616 2906 2266 
Q 2828 2175 2409 1742 
Q 1991 1309 1228 531 
z
" transform="scale(0.015625)"/>
       </defs>
       <use xlink:href="#DejaVuSans-32"/>
       <use xlink:href="#DejaVuSans-30" x="63.623047"/>
       <use xlink:href="#DejaVuSans-30" x="127.246094"/>
       <use xlink:href="#DejaVuSans-30" x="190.869141"/>
      </g>
     </g>
    </g>
    <g id="xtick_5">
     <g id="line2d_5">
      <g>
       <use xlink:href="#mf82482ffa9" x="261.668571" y="307.584" style="stroke: #000000; stroke-width: 0.8"/>
      </g>
     </g>
     <g id="text_5">
      <!-- 2500 -->
      <g transform="translate(248.943571 322.182437)scale(0.1 -0.1)">
       <use xlink:href="#DejaVuSans-32"/>
       <use xlink:href="#DejaVuSans-35" x="63.623047"/>
       <use xlink:href="#DejaVuSans-30" x="127.246094"/>
       <use xlink:href="#DejaVuSans-30" x="190.869141"/>
      </g>
     </g>
    </g>
    <g id="xtick_6">
     <g id="line2d_6">
      <g>
       <use xlink:href="#mf82482ffa9" x="312.685714" y="307.584" style="stroke: #000000; stroke-width: 0.8"/>
      </g>
     </g>
     <g id="text_6">
      <!-- 3000 -->
      <g transform="translate(299.960714 322.182437)scale(0.1 -0.1)">
       <defs>
        <path id="DejaVuSans-33" d="M 2597 2516 
Q 3050 2419 3304 2112 
Q 3559 1806 3559 1356 
Q 3559 666 3084 287 
Q 2609 -91 1734 -91 
Q 1441 -91 1130 -33 
Q 819 25 488 141 
L 488 750 
Q 750 597 1062 519 
Q 1375 441 1716 441 
Q 2309 441 2620 675 
Q 2931 909 2931 1356 
Q 2931 1769 2642 2001 
Q 2353 2234 1838 2234 
L 1294 2234 
L 1294 2753 
L 1863 2753 
Q 2328 2753 2575 2939 
Q 2822 3125 2822 3475 
Q 2822 3834 2567 4026 
Q 2313 4219 1838 4219 
Q 1578 4219 1281 4162 
Q 984 4106 628 3988 
L 628 4550 
Q 988 4650 1302 4700 
Q 1616 4750 1894 4750 
Q 2613 4750 3031 4423 
Q 3450 4097 3450 3541 
Q 3450 3153 3228 2886 
Q 3006 2619 2597 2516 
z
" transform="scale(0.015625)"/>
       </defs>
       <use xlink:href="#DejaVuSans-33"/>
       <use xlink:href="#DejaVuSans-30" x="63.623047"/>
       <use xlink:href="#DejaVuSans-30" x="127.246094"/>
       <use xlink:href="#DejaVuSans-30" x="190.869141"/>
      </g>
     </g>
    </g>
    <g id="xtick_7">
     <g id="line2d_7">
      <g>
       <use xlink:href="#mf82482ffa9" x="363.702857" y="307.584" style="stroke: #000000; stroke-width: 0.8"/>
      </g>
     </g>
     <g id="text_7">
      <!-- 3500 -->
      <g transform="translate(350.977857 322.182437)scale(0.1 -0.1)">
       <use xlink:href="#DejaVuSans-33"/>
       <use xlink:href="#DejaVuSans-35" x="63.623047"/>
       <use xlink:href="#DejaVuSans-30" x="127.246094"/>
       <use xlink:href="#DejaVuSans-30" x="190.869141"/>
      </g>
     </g>
    </g>
    <g id="xtick_8">
     <g id="line2d_8">
      <g>
       <use xlink:href="#mf82482ffa9" x="414.72" y="307.584" style="stroke: #000000; stroke-width: 0.8"/>
      </g>
     </g>
     <g id="text_8">
      <!-- 4000 -->
      <g transform="translate(401.995 322.182437)scale(0.1 -0.1)">
       <defs>
        <path id="DejaVuSans-34" d="M 2419 4116 
L 825 1625 
L 2419 1625 
L 2419 4116 
z
M 2253 4666 
L 3047 4666 
L 3047 1625 
L 3713 1625 
L 3713 1100 
L 3047 1100 
L 3047 0 
L 2419 0 
L 2419 1100 
L 313 1100 
L 313 1709 
L 2253 4666 
z
" transform="scale(0.015625)"/>
       </defs>
       <use xlink:href="#DejaVuSans-34"/>
       <use xlink:href="#DejaVuSans-30" x="63.623047"/>
       <use xlink:href="#DejaVuSans-30" x="127.246094"/>
       <use xlink:href="#DejaVuSans-30" x="190.869141"/>
      </g>
     </g>
    </g>
    <g id="text_9">
     <!-- step -->
     <g transform="translate(225.344375 335.860562)scale(0.1 -0.1)">
      <defs>
       <path id="DejaVuSans-73" d="M 2834 3397 
L 2834 2853 
Q 2591 2978 2328 3040 
Q 2066 3103 1784 3103 
Q 1356 3103 1142 2972 
Q 928 2841 928 2578 
Q 928 2378 1081 2264 
Q 1234 2150 1697 2047 
L 1894 2003 
Q 2506 1872 2764 1633 
Q 3022 1394 3022 966 
Q 3022 478 2636 193 
Q 2250 -91 1575 -91 
Q 1294 -91 989 -36 
Q 684 19 347 128 
L 347 722 
Q 666 556 975 473 
Q 1284 391 1588 391 
Q 1994 391 2212 530 
Q 2431 669 2431 922 
Q 2431 1156 2273 1281 
Q 2116 1406 1581 1522 
L 1381 1569 
Q 847 1681 609 1914 
Q 372 2147 372 2553 
Q 372 3047 722 3315 
Q 1072 3584 1716 3584 
Q 2034 3584 2315 3537 
Q 2597 3491 2834 3397 
z
" transform="scale(0.015625)"/>
       <path id="DejaVuSans-74" d="M 1172 4494 
L 1172 3500 
L 2356 3500 
L 2356 3053 
L 1172 3053 
L 1172 1153 
Q 1172 725 1289 603 
Q 1406 481 1766 481 
L 2356 481 
L 2356 0 
L 1766 0 
Q 1100 0 847 248 
Q 594 497 594 1153 
L 594 3053 
L 172 3053 
L 172 3500 
L 594 3500 
L 594 4494 
L 1172 4494 
z
" transform="scale(0.015625)"/>
       <path id="DejaVuSans-65" d="M 3597 1894 
L 3597 1613 
L 953 1613 
Q 991 1019 1311 708 
Q 1631 397 2203 397 
Q 2534 397 2845 478 
Q 3156 559 3463 722 
L 3463 178 
Q 3153 47 2828 -22 
Q 2503 -91 2169 -91 
Q 1331 -91 842 396 
Q 353 884 353 1716 
Q 353 2575 817 3079 
Q 1281 3584 2069 3584 
Q 2775 3584 3186 3129 
Q 3597 2675 3597 1894 
z
M 3022 2063 
Q 3016 2534 2758 2815 
Q 2500 3097 2075 3097 
Q 1594 3097 1305 2825 
Q 1016 2553 972 2059 
L 3022 2063 
z
" transform="scale(0.015625)"/>
       <path id="DejaVuSans-70" d="M 1159 525 
L 1159 -1331 
L 581 -1331 
L 581 3500 
L 1159 3500 
L 1159 2969 
Q 1341 3281 1617 3432 
Q 1894 3584 2278 3584 
Q 2916 3584 3314 3078 
Q 3713 2572 3713 1747 
Q 3713 922 3314 415 
Q 2916 -91 2278 -91 
Q 1894 -91 1617 61 
Q 1341 213 1159 525 
z
M 3116 1747 
Q 3116 2381 2855 2742 
Q 2594 3103 2138 3103 
Q 1681 3103 1420 2742 
Q 1159 2381 1159 1747 
Q 1159 1113 1420 752 
Q 1681 391 2138 391 
Q 2594 391 2855 752 
Q 3116 1113 3116 1747 
z
" transform="scale(0.015625)"/>
      </defs>
      <use xlink:href="#DejaVuSans-73"/>
      <use xlink:href="#DejaVuSans-74" x="52.099609"/>
      <use xlink:href="#DejaVuSans-65" x="91.308594"/>
      <use xlink:href="#DejaVuSans-70" x="152.832031"/>
     </g>
    </g>
   </g>
   <g id="matplotlib.axis_2">
    <g id="ytick_1">
     <g id="line2d_9">
      <defs>
       <path id="m1663dcede5" d="M 0 0 
L -3.5 0 
" style="stroke: #000000; stroke-width: 0.8"/>
      </defs>
      <g>
       <use xlink:href="#m1663dcede5" x="57.6" y="271.157972" style="stroke: #000000; stroke-width: 0.8"/>
      </g>
     </g>
     <g id="text_10">
      <!-- 1500 -->
      <g transform="translate(25.15 274.957191)scale(0.1 -0.1)">
       <use xlink:href="#DejaVuSans-31"/>
       <use xlink:href="#DejaVuSans-35" x="63.623047"/>
       <use xlink:href="#DejaVuSans-30" x="127.246094"/>
       <use xlink:href="#DejaVuSans-30" x="190.869141"/>
      </g>
     </g>
    </g>
    <g id="ytick_2">
     <g id="line2d_10">
      <g>
       <use xlink:href="#m1663dcede5" x="57.6" y="221.026204" style="stroke: #000000; stroke-width: 0.8"/>
      </g>
     </g>
     <g id="text_11">
      <!-- 2000 -->
      <g transform="translate(25.15 224.825422)scale(0.1 -0.1)">
       <use xlink:href="#DejaVuSans-32"/>
       <use xlink:href="#DejaVuSans-30" x="63.623047"/>
       <use xlink:href="#DejaVuSans-30" x="127.246094"/>
       <use xlink:href="#DejaVuSans-30" x="190.869141"/>
      </g>
     </g>
    </g>
    <g id="ytick_3">
     <g id="line2d_11">
      <g>
       <use xlink:href="#m1663dcede5" x="57.6" y="170.894435" style="stroke: #000000; stroke-width: 0.8"/>
      </g>
     </g>
     <g id="text_12">
      <!-- 2500 -->
      <g transform="translate(25.15 174.693654)scale(0.1 -0.1)">
       <use xlink:href="#DejaVuSans-32"/>
       <use xlink:href="#DejaVuSans-35" x="63.623047"/>
       <use xlink:href="#DejaVuSans-30" x="127.246094"/>
       <use xlink:href="#DejaVuSans-30" x="190.869141"/>
      </g>
     </g>
    </g>
    <g id="ytick_4">
     <g id="line2d_12">
      <g>
       <use xlink:href="#m1663dcede5" x="57.6" y="120.762666" style="stroke: #000000; stroke-width: 0.8"/>
      </g>
     </g>
     <g id="text_13">
      <!-- 3000 -->
      <g transform="translate(25.15 124.561885)scale(0.1 -0.1)">
       <use xlink:href="#DejaVuSans-33"/>
       <use xlink:href="#DejaVuSans-30" x="63.623047"/>
       <use xlink:href="#DejaVuSans-30" x="127.246094"/>
       <use xlink:href="#DejaVuSans-30" x="190.869141"/>
      </g>
     </g>
    </g>
    <g id="ytick_5">
     <g id="line2d_13">
      <g>
       <use xlink:href="#m1663dcede5" x="57.6" y="70.630898" style="stroke: #000000; stroke-width: 0.8"/>
      </g>
     </g>
     <g id="text_14">
      <!-- 3500 -->
      <g transform="translate(25.15 74.430117)scale(0.1 -0.1)">
       <use xlink:href="#DejaVuSans-33"/>
       <use xlink:href="#DejaVuSans-35" x="63.623047"/>
       <use xlink:href="#DejaVuSans-30" x="127.246094"/>
       <use xlink:href="#DejaVuSans-30" x="190.869141"/>
      </g>
     </g>
    </g>
    <g id="text_15">
     <!-- $\chi^2$ -->
     <g transform="translate(19.05 180.078)rotate(-90)scale(0.1 -0.1)">
      <defs>
       <path id="DejaVuSans-Oblique-3c7" d="M 1922 -781 
L 1691 416 
L 394 -1334 
L -284 -1334 
L 1553 1141 
L 1269 2613 
Q 1194 3006 713 3006 
L 559 3006 
L 653 3500 
L 872 3494 
Q 1675 3472 1775 2950 
L 2006 1753 
L 3303 3503 
L 3981 3503 
L 2144 1028 
L 2428 -444 
Q 2503 -838 2984 -838 
L 3138 -838 
L 3044 -1331 
L 2825 -1325 
Q 2022 -1303 1922 -781 
z
" transform="scale(0.015625)"/>
      </defs>
      <use xlink:href="#DejaVuSans-Oblique-3c7" transform="translate(0 0.765625)"/>
      <use xlink:href="#DejaVuSans-32" transform="translate(63.652396 39.046875)scale(0.7)"/>
     </g>
    </g>
   </g>
   <g id="line2d_14">
    <path d="M 57.6 53.568 
L 57.702034 53.610227 
L 58.416274 55.2313 
L 58.926446 55.409553 
L 59.334583 55.575956 
L 59.640686 55.869724 
L 60.150857 56.187216 
L 60.45696 56.92605 
L 60.661029 57.446975 
L 60.763063 57.450482 
L 61.069166 58.517611 
L 61.1712 58.51457 
L 61.273234 58.656698 
L 61.477303 59.095524 
L 61.681371 60.893521 
L 61.783406 61.037517 
L 61.987474 63.701973 
L 62.293577 63.782539 
L 62.497646 64.237599 
L 62.59968 64.297275 
L 62.803749 64.65131 
L 62.905783 64.655255 
L 63.211886 65.159995 
L 63.31392 65.189921 
L 63.517989 66.900081 
L 63.620023 67.25229 
L 64.02816 72.263652 
L 64.232229 72.298363 
L 64.334263 73.320868 
L 64.538331 76.007747 
L 64.7424 76.042118 
L 64.946469 77.864353 
L 65.150537 78.441721 
L 65.252571 78.446248 
L 65.45664 79.514838 
L 65.558674 79.513828 
L 65.762743 80.014488 
L 65.966811 80.13833 
L 66.17088 80.152029 
L 66.374949 80.446866 
L 70.558354 81.899995 
L 70.660389 81.89953 
L 71.272594 83.735453 
L 71.476663 83.743738 
L 71.680731 85.042766 
L 71.8848 85.185916 
L 71.986834 85.201547 
L 72.190903 86.91926 
L 72.497006 86.93242 
L 73.007177 90.618412 
L 73.517349 90.788245 
L 73.721417 91.870258 
L 73.823451 91.871492 
L 74.02752 92.294108 
L 74.129554 92.381308 
L 74.333623 95.358016 
L 74.537691 95.354176 
L 74.74176 95.792739 
L 75.047863 95.857627 
L 75.149897 96.568435 
L 75.353966 100.786239 
L 75.456 100.805063 
L 75.660069 101.274832 
L 75.966171 101.36841 
L 76.17024 103.198566 
L 76.374309 104.005315 
L 76.578377 104.051107 
L 76.782446 104.539913 
L 77.088549 104.832885 
L 77.802789 104.947529 
L 78.006857 105.272637 
L 78.517029 105.375532 
L 79.231269 105.457773 
L 79.435337 105.828844 
L 79.843474 105.907754 
L 80.251611 105.957219 
L 80.557714 106.106124 
L 81.16992 106.137104 
L 83.924846 106.248108 
L 84.435017 107.063714 
L 85.047223 107.128494 
L 85.251291 107.437716 
L 85.863497 107.530608 
L 86.781806 107.63944 
L 87.087909 107.745072 
L 87.59808 107.80524 
L 87.802149 108.403359 
L 88.210286 108.453055 
L 88.414354 108.72079 
L 88.720457 108.941376 
L 88.924526 110.893488 
L 89.128594 110.948845 
L 89.230629 111.041725 
L 89.434697 113.161145 
L 89.638766 115.435121 
L 89.842834 115.444054 
L 89.944869 117.41516 
L 90.046903 117.406176 
L 90.148937 117.416442 
L 90.45504 118.200029 
L 90.659109 120.127068 
L 90.863177 120.135806 
L 91.067246 120.86006 
L 91.271314 120.934554 
L 91.475383 121.329986 
L 91.781486 121.345747 
L 91.985554 121.732097 
L 92.087589 121.727875 
L 92.291657 121.901675 
L 92.495726 121.911538 
L 92.699794 123.737212 
L 92.801829 123.821172 
L 93.005897 125.722543 
L 93.209966 125.721479 
L 93.312 125.818614 
L 93.516069 126.325083 
L 93.720137 128.009325 
L 94.128274 129.714714 
L 94.230309 129.725821 
L 94.434377 131.550174 
L 94.638446 131.693429 
L 94.944549 131.714311 
L 95.148617 133.599264 
L 95.352686 133.956683 
L 95.556754 135.564966 
L 95.658789 135.662475 
L 96.16896 142.252539 
L 96.270994 142.24865 
L 96.475063 143.060852 
L 96.577097 143.069318 
L 96.781166 150.337751 
L 96.8832 150.33229 
L 97.087269 152.001869 
L 97.393371 152.165565 
L 97.699474 153.02815 
L 98.005577 153.110739 
L 98.413714 154.518626 
L 98.617783 154.518092 
L 98.821851 154.997119 
L 99.434057 155.470597 
L 100.148297 155.59542 
L 100.352366 155.783626 
L 101.16864 155.84679 
L 101.270674 156.025675 
L 101.474743 156.849632 
L 101.576777 156.849499 
L 102.086949 162.942152 
L 102.188983 162.955716 
L 102.393051 163.107642 
L 103.005257 163.157931 
L 103.821531 163.268167 
L 104.0256 163.351352 
L 105.045943 163.399556 
L 109.535451 163.514554 
L 110.249691 163.670649 
L 110.45376 163.881443 
L 110.555794 163.874365 
L 110.759863 164.034158 
L 110.861897 164.03647 
L 110.963931 164.554421 
L 111.372069 169.050677 
L 111.474103 169.052216 
L 111.678171 170.396221 
L 111.780206 170.38683 
L 111.984274 170.877206 
L 112.188343 171.060371 
L 112.290377 171.108105 
L 112.494446 171.454501 
L 112.698514 173.18605 
L 112.902583 173.194541 
L 113.106651 173.949384 
L 113.208686 173.964716 
L 113.412754 176.253536 
L 113.922926 176.265711 
L 114.126994 177.277436 
L 114.433097 177.502647 
L 114.637166 177.760671 
L 114.943269 177.78155 
L 115.147337 178.079424 
L 116.16768 178.180816 
L 116.473783 178.326537 
L 118.3104 178.620526 
L 118.412434 178.617613 
L 119.02464 184.659087 
L 119.330743 184.679775 
L 119.73888 185.120591 
L 120.249051 185.187555 
L 120.351086 185.202909 
L 120.555154 185.388347 
L 120.861257 185.402092 
L 121.065326 185.540481 
L 121.371429 185.667747 
L 121.575497 185.794212 
L 122.391771 185.931164 
L 122.697874 185.990881 
L 124.432457 186.140169 
L 124.73856 186.226279 
L 125.350766 186.256571 
L 125.554834 187.341671 
L 125.758903 188.156729 
L 125.860937 188.261794 
L 126.065006 191.218996 
L 126.269074 191.231113 
L 126.575177 192.384421 
L 127.289417 192.392263 
L 127.493486 193.841829 
L 127.59552 193.842071 
L 128.003657 194.79112 
L 128.207726 195.009194 
L 128.513829 198.071751 
L 128.717897 198.324675 
L 128.921966 198.455216 
L 129.534171 198.569684 
L 129.73824 198.669257 
L 130.044343 198.704132 
L 130.758583 198.711994 
L 130.962651 198.972704 
L 131.676891 199.008159 
L 132.697234 199.033172 
L 132.901303 199.147474 
L 133.003337 199.148966 
L 133.207406 199.456759 
L 133.819611 199.466664 
L 134.125714 201.791338 
L 134.329783 201.784198 
L 134.533851 202.758911 
L 134.73792 202.87193 
L 134.839954 202.866993 
L 135.044023 203.068174 
L 135.350126 205.081012 
L 135.554194 205.098139 
L 135.758263 205.855309 
L 135.962331 205.865379 
L 136.1664 206.259388 
L 136.370469 206.513757 
L 136.676571 206.51074 
L 136.88064 206.943781 
L 137.59488 206.980308 
L 139.533531 207.047408 
L 144.73728 207.084148 
L 145.961691 207.099332 
L 146.88 207.138653 
L 147.084069 207.253655 
L 148.104411 207.271393 
L 149.73696 207.274524 
L 150.961371 207.306939 
L 151.981714 207.323599 
L 153.104091 207.350696 
L 155.859017 207.412518 
L 156.573257 207.41773 
L 158.103771 207.434587 
L 159.532251 207.425627 
L 160.348526 207.571179 
L 160.654629 208.267662 
L 160.858697 208.359911 
L 161.062766 208.361403 
L 161.266834 208.673528 
L 161.368869 208.671409 
L 161.572937 209.978231 
L 161.674971 209.982949 
L 161.777006 212.106578 
L 161.87904 212.099027 
L 162.083109 212.986489 
L 163.205486 212.966099 
L 163.409554 214.037881 
L 163.613623 214.569238 
L 163.817691 214.733951 
L 166.062446 214.988407 
L 166.266514 215.119046 
L 170.551954 215.28624 
L 170.653989 215.440383 
L 170.960091 217.569537 
L 171.266194 221.193857 
L 171.674331 221.199223 
L 171.8784 222.074357 
L 172.184503 222.089118 
L 172.388571 222.206851 
L 172.59264 222.1991 
L 172.796709 222.582655 
L 181.775726 222.801993 
L 181.979794 223.041902 
L 182.081829 223.140717 
L 182.285897 223.461558 
L 183.408274 223.560758 
L 183.714377 223.56455 
L 183.918446 223.759126 
L 184.530651 223.833778 
L 185.244891 223.887581 
L 186.469303 223.919427 
L 192.489326 223.993603 
L 192.897463 224.927093 
L 193.407634 224.922347 
L 193.509669 225.017289 
L 193.815771 227.798073 
L 194.01984 227.803155 
L 194.223909 229.396352 
L 194.325943 229.488885 
L 194.530011 230.034001 
L 194.632046 230.04054 
L 194.836114 230.559783 
L 194.938149 230.544773 
L 195.142217 230.875851 
L 195.346286 231.083998 
L 196.570697 231.320698 
L 196.978834 231.356453 
L 197.182903 231.421383 
L 197.795109 231.514966 
L 202.080549 231.639422 
L 207.5904 231.678718 
L 209.324983 231.697619 
L 211.87584 231.851892 
L 223.915886 232.046943 
L 225.242331 232.060439 
L 226.568777 232.108205 
L 227.997257 232.119739 
L 229.119634 232.132484 
L 240.649509 232.407698 
L 240.853577 232.636573 
L 241.15968 232.683565 
L 241.669851 232.68565 
L 242.077989 235.935121 
L 242.282057 238.455848 
L 242.58816 238.448937 
L 242.792229 239.000562 
L 244.118674 239.104453 
L 244.322743 239.320017 
L 244.628846 239.311989 
L 244.832914 239.449305 
L 246.771566 239.676788 
L 275.035063 240.147621 
L 275.341166 240.178243 
L 275.545234 240.479813 
L 275.851337 240.479979 
L 275.953371 240.579106 
L 276.15744 241.82199 
L 276.463543 241.823293 
L 276.667611 242.964837 
L 276.87168 243.381653 
L 277.075749 244.861325 
L 277.279817 246.244538 
L 277.483886 246.368214 
L 279.218469 246.363112 
L 280.136777 246.394161 
L 280.340846 246.919985 
L 280.646949 246.963849 
L 280.851017 247.392539 
L 281.463223 247.614737 
L 283.095771 247.666599 
L 283.503909 247.715619 
L 284.116114 247.70075 
L 284.422217 247.740803 
L 285.238491 247.916022 
L 285.44256 248.307015 
L 285.544594 248.312942 
L 285.748663 251.580175 
L 285.850697 251.571363 
L 285.952731 251.5867 
L 286.1568 253.770574 
L 286.258834 253.771343 
L 286.462903 254.419177 
L 287.075109 254.473788 
L 287.279177 254.585574 
L 287.993417 254.641942 
L 288.197486 254.707089 
L 288.809691 254.702275 
L 289.01376 255.028437 
L 289.217829 255.032891 
L 289.421897 255.170072 
L 289.728 255.248981 
L 289.932069 255.342794 
L 292.380891 255.455393 
L 293.809371 255.529766 
L 296.258194 255.539283 
L 296.462263 256.577145 
L 296.666331 257.17334 
L 297.686674 257.319952 
L 297.890743 260.324861 
L 299.01312 260.351426 
L 299.523291 260.412356 
L 302.992457 260.437101 
L 303.196526 260.521456 
L 306.665691 260.628008 
L 306.767726 260.630106 
L 306.86976 260.751505 
L 307.073829 261.215055 
L 308.502309 261.342103 
L 308.706377 262.36036 
L 308.808411 262.40773 
L 309.114514 263.239262 
L 309.420617 264.970483 
L 309.72672 264.981205 
L 310.134857 268.434225 
L 310.338926 268.428351 
L 310.542994 268.768693 
L 311.665371 268.829066 
L 311.971474 268.863947 
L 312.175543 269.169672 
L 314.7264 269.322992 
L 314.930469 269.410057 
L 320.338286 269.442507 
L 320.542354 269.542562 
L 324.623726 269.566785 
L 324.827794 269.643675 
L 326.256274 269.654948 
L 326.460343 269.991524 
L 327.684754 270.048312 
L 327.888823 270.132637 
L 328.398994 270.152707 
L 328.603063 270.245353 
L 333.908846 270.436877 
L 334.112914 271.338516 
L 335.031223 271.382336 
L 335.43936 271.528784 
L 335.541394 271.542577 
L 335.745463 271.689238 
L 335.847497 271.72612 
L 336.051566 272.012162 
L 336.663771 272.068093 
L 337.071909 274.194247 
L 337.173943 274.192868 
L 337.378011 274.522712 
L 337.480046 274.611872 
L 337.684114 275.486592 
L 338.092251 275.491467 
L 338.500389 276.780365 
L 338.602423 276.78416 
L 338.704457 278.645209 
L 338.806491 278.636283 
L 339.01056 278.719241 
L 339.214629 279.518317 
L 339.418697 280.396098 
L 339.622766 280.435339 
L 339.826834 280.97606 
L 340.030903 283.0234 
L 340.234971 283.516152 
L 340.643109 284.936711 
L 340.745143 284.93611 
L 340.949211 285.453159 
L 341.15328 285.466876 
L 341.561417 285.993727 
L 341.765486 286.012192 
L 341.969554 286.146876 
L 343.806171 286.211005 
L 356.764526 286.3509 
L 359.111314 286.391741 
L 360.947931 286.427555 
L 361.152 286.64362 
L 364.110994 286.710692 
L 364.315063 286.812023 
L 366.457783 286.851079 
L 381.354789 287.077269 
L 381.558857 287.166351 
L 382.375131 287.231342 
L 382.5792 287.504782 
L 384.00768 287.545524 
L 384.313783 287.611818 
L 402.781989 287.763227 
L 404.924709 287.915763 
L 405.128777 288.801424 
L 405.230811 288.809834 
L 405.43488 289.828452 
L 405.536914 289.831216 
L 405.945051 292.671038 
L 406.14912 292.673136 
L 406.353189 293.332886 
L 406.761326 295.157678 
L 407.475566 295.222992 
L 409.312183 295.25176 
L 412.067109 295.379233 
L 412.373211 295.437489 
L 414.617966 295.481607 
L 414.617966 295.481607 
" clip-path="url(#p3d064cdb1f)" style="fill: none; stroke: #1f77b4; stroke-opacity: 0.3; stroke-width: 1.5; stroke-linecap: square"/>
   </g>
   <g id="patch_3">
    <path d="M 57.6 307.584 
L 57.6 41.472 
" style="fill: none; stroke: #000000; stroke-width: 0.8; stroke-linejoin: miter; stroke-linecap: square"/>
   </g>
   <g id="patch_4">
    <path d="M 414.72 307.584 
L 414.72 41.472 
" style="fill: none; stroke: #000000; stroke-width: 0.8; stroke-linejoin: miter; stroke-linecap: square"/>
   </g>
   <g id="patch_5">
    <path d="M 57.6 307.584 
L 414.72 307.584 
" style="fill: none; stroke: #000000; stroke-width: 0.8; stroke-linejoin: miter; stroke-linecap: square"/>
   </g>
   <g id="patch_6">
    <path d="M 57.6 41.472 
L 414.72 41.472 
" style="fill: none; stroke: #000000; stroke-width: 0.8; stroke-linejoin: miter; stroke-linecap: square"/>
   </g>
   <g id="text_16">
    <!-- Average $\chi^2$ by Step -->
    <g transform="translate(177.72 35.472)scale(0.12 -0.12)">
     <defs>
      <path id="DejaVuSans-41" d="M 2188 4044 
L 1331 1722 
L 3047 1722 
L 2188 4044 
z
M 1831 4666 
L 2547 4666 
L 4325 0 
L 3669 0 
L 3244 1197 
L 1141 1197 
L 716 0 
L 50 0 
L 1831 4666 
z
" transform="scale(0.015625)"/>
      <path id="DejaVuSans-76" d="M 191 3500 
L 800 3500 
L 1894 563 
L 2988 3500 
L 3597 3500 
L 2284 0 
L 1503 0 
L 191 3500 
z
" transform="scale(0.015625)"/>
      <path id="DejaVuSans-72" d="M 2631 2963 
Q 2534 3019 2420 3045 
Q 2306 3072 2169 3072 
Q 1681 3072 1420 2755 
Q 1159 2438 1159 1844 
L 1159 0 
L 581 0 
L 581 3500 
L 1159 3500 
L 1159 2956 
Q 1341 3275 1631 3429 
Q 1922 3584 2338 3584 
Q 2397 3584 2469 3576 
Q 2541 3569 2628 3553 
L 2631 2963 
z
" transform="scale(0.015625)"/>
      <path id="DejaVuSans-61" d="M 2194 1759 
Q 1497 1759 1228 1600 
Q 959 1441 959 1056 
Q 959 750 1161 570 
Q 1363 391 1709 391 
Q 2188 391 2477 730 
Q 2766 1069 2766 1631 
L 2766 1759 
L 2194 1759 
z
M 3341 1997 
L 3341 0 
L 2766 0 
L 2766 531 
Q 2569 213 2275 61 
Q 1981 -91 1556 -91 
Q 1019 -91 701 211 
Q 384 513 384 1019 
Q 384 1609 779 1909 
Q 1175 2209 1959 2209 
L 2766 2209 
L 2766 2266 
Q 2766 2663 2505 2880 
Q 2244 3097 1772 3097 
Q 1472 3097 1187 3025 
Q 903 2953 641 2809 
L 641 3341 
Q 956 3463 1253 3523 
Q 1550 3584 1831 3584 
Q 2591 3584 2966 3190 
Q 3341 2797 3341 1997 
z
" transform="scale(0.015625)"/>
      <path id="DejaVuSans-67" d="M 2906 1791 
Q 2906 2416 2648 2759 
Q 2391 3103 1925 3103 
Q 1463 3103 1205 2759 
Q 947 2416 947 1791 
Q 947 1169 1205 825 
Q 1463 481 1925 481 
Q 2391 481 2648 825 
Q 2906 1169 2906 1791 
z
M 3481 434 
Q 3481 -459 3084 -895 
Q 2688 -1331 1869 -1331 
Q 1566 -1331 1297 -1286 
Q 1028 -1241 775 -1147 
L 775 -588 
Q 1028 -725 1275 -790 
Q 1522 -856 1778 -856 
Q 2344 -856 2625 -561 
Q 2906 -266 2906 331 
L 2906 616 
Q 2728 306 2450 153 
Q 2172 0 1784 0 
Q 1141 0 747 490 
Q 353 981 353 1791 
Q 353 2603 747 3093 
Q 1141 3584 1784 3584 
Q 2172 3584 2450 3431 
Q 2728 3278 2906 2969 
L 2906 3500 
L 3481 3500 
L 3481 434 
z
" transform="scale(0.015625)"/>
      <path id="DejaVuSans-20" transform="scale(0.015625)"/>
      <path id="DejaVuSans-62" d="M 3116 1747 
Q 3116 2381 2855 2742 
Q 2594 3103 2138 3103 
Q 1681 3103 1420 2742 
Q 1159 2381 1159 1747 
Q 1159 1113 1420 752 
Q 1681 391 2138 391 
Q 2594 391 2855 752 
Q 3116 1113 3116 1747 
z
M 1159 2969 
Q 1341 3281 1617 3432 
Q 1894 3584 2278 3584 
Q 2916 3584 3314 3078 
Q 3713 2572 3713 1747 
Q 3713 922 3314 415 
Q 2916 -91 2278 -91 
Q 1894 -91 1617 61 
Q 1341 213 1159 525 
L 1159 0 
L 581 0 
L 581 4863 
L 1159 4863 
L 1159 2969 
z
" transform="scale(0.015625)"/>
      <path id="DejaVuSans-79" d="M 2059 -325 
Q 1816 -950 1584 -1140 
Q 1353 -1331 966 -1331 
L 506 -1331 
L 506 -850 
L 844 -850 
Q 1081 -850 1212 -737 
Q 1344 -625 1503 -206 
L 1606 56 
L 191 3500 
L 800 3500 
L 1894 763 
L 2988 3500 
L 3597 3500 
L 2059 -325 
z
" transform="scale(0.015625)"/>
      <path id="DejaVuSans-53" d="M 3425 4513 
L 3425 3897 
Q 3066 4069 2747 4153 
Q 2428 4238 2131 4238 
Q 1616 4238 1336 4038 
Q 1056 3838 1056 3469 
Q 1056 3159 1242 3001 
Q 1428 2844 1947 2747 
L 2328 2669 
Q 3034 2534 3370 2195 
Q 3706 1856 3706 1288 
Q 3706 609 3251 259 
Q 2797 -91 1919 -91 
Q 1588 -91 1214 -16 
Q 841 59 441 206 
L 441 856 
Q 825 641 1194 531 
Q 1563 422 1919 422 
Q 2459 422 2753 634 
Q 3047 847 3047 1241 
Q 3047 1584 2836 1778 
Q 2625 1972 2144 2069 
L 1759 2144 
Q 1053 2284 737 2584 
Q 422 2884 422 3419 
Q 422 4038 858 4394 
Q 1294 4750 2059 4750 
Q 2388 4750 2728 4690 
Q 3069 4631 3425 4513 
z
" transform="scale(0.015625)"/>
     </defs>
     <use xlink:href="#DejaVuSans-41" transform="translate(0 0.765625)"/>
     <use xlink:href="#DejaVuSans-76" transform="translate(68.408203 0.765625)"/>
     <use xlink:href="#DejaVuSans-65" transform="translate(127.587891 0.765625)"/>
     <use xlink:href="#DejaVuSans-72" transform="translate(189.111328 0.765625)"/>
     <use xlink:href="#DejaVuSans-61" transform="translate(230.224609 0.765625)"/>
     <use xlink:href="#DejaVuSans-67" transform="translate(291.503906 0.765625)"/>
     <use xlink:href="#DejaVuSans-65" transform="translate(354.980469 0.765625)"/>
     <use xlink:href="#DejaVuSans-20" transform="translate(416.503906 0.765625)"/>
     <use xlink:href="#DejaVuSans-Oblique-3c7" transform="translate(448.291016 0.765625)"/>
     <use xlink:href="#DejaVuSans-32" transform="translate(511.943411 39.046875)scale(0.7)"/>
     <use xlink:href="#DejaVuSans-20" transform="translate(559.213919 0.765625)"/>
     <use xlink:href="#DejaVuSans-62" transform="translate(591.001029 0.765625)"/>
     <use xlink:href="#DejaVuSans-79" transform="translate(654.477591 0.765625)"/>
     <use xlink:href="#DejaVuSans-20" transform="translate(713.657279 0.765625)"/>
     <use xlink:href="#DejaVuSans-53" transform="translate(745.444388 0.765625)"/>
     <use xlink:href="#DejaVuSans-74" transform="translate(808.920951 0.765625)"/>
     <use xlink:href="#DejaVuSans-65" transform="translate(848.129935 0.765625)"/>
     <use xlink:href="#DejaVuSans-70" transform="translate(909.653372 0.765625)"/>
    </g>
   </g>
  </g>
 </g>
 <defs>
  <clipPath id="p3d064cdb1f">
   <rect x="57.6" y="41.472" width="357.12" height="266.112"/>
  </clipPath>
 </defs>
</svg>
