<?xml version="1.0" encoding="utf-8" standalone="no"?>
<!DOCTYPE svg PUBLIC "-//W3C//DTD SVG 1.1//EN"
  "http://www.w3.org/Graphics/SVG/1.1/DTD/svg11.dtd">
<svg xmlns:xlink="http://www.w3.org/1999/xlink" width="460.8pt" height="345.6pt" viewBox="0 0 460.8 345.6" xmlns="http://www.w3.org/2000/svg" version="1.1">
 <metadata>
  <rdf:RDF xmlns:dc="http://purl.org/dc/elements/1.1/" xmlns:cc="http://creativecommons.org/ns#" xmlns:rdf="http://www.w3.org/1999/02/22-rdf-syntax-ns#">
   <cc:Work>
    <dc:type rdf:resource="http://purl.org/dc/dcmitype/StillImage"/>
    <dc:date>2022-06-11T09:47:12.721280</dc:date>
    <dc:format>image/svg+xml</dc:format>
    <dc:creator>
     <cc:Agent>
      <dc:title>Matplotlib v3.5.0, https://matplotlib.org/</dc:title>
     </cc:Agent>
    </dc:creator>
   </cc:Work>
  </rdf:RDF>
 </metadata>
 <defs>
  <style type="text/css">*{stroke-linejoin: round; stroke-linecap: butt}</style>
 </defs>
 <g id="figure_1">
  <g id="patch_1">
   <path d="M 0 345.6 
L 460.8 345.6 
L 460.8 0 
L 0 0 
z
" style="fill: #ffffff"/>
  </g>
  <g id="axes_1">
   <g id="patch_2">
    <path d="M 57.6 307.584 
L 414.72 307.584 
L 414.72 41.472 
L 57.6 41.472 
z
" style="fill: #ffffff"/>
   </g>
   <g id="matplotlib.axis_1">
    <g id="xtick_1">
     <g id="line2d_1">
      <defs>
       <path id="mc9860da9b2" d="M 0 0 
L 0 3.5 
" style="stroke: #000000; stroke-width: 0.8"/>
      </defs>
      <g>
       <use xlink:href="#mc9860da9b2" x="57.6" y="307.584" style="stroke: #000000; stroke-width: 0.8"/>
      </g>
     </g>
     <g id="text_1">
      <!-- 500 -->
      <g transform="translate(48.05625 322.182437)scale(0.1 -0.1)">
       <defs>
        <path id="DejaVuSans-35" d="M 691 4666 
L 3169 4666 
L 3169 4134 
L 1269 4134 
L 1269 2991 
Q 1406 3038 1543 3061 
Q 1681 3084 1819 3084 
Q 2600 3084 3056 2656 
Q 3513 2228 3513 1497 
Q 3513 744 3044 326 
Q 2575 -91 1722 -91 
Q 1428 -91 1123 -41 
Q 819 9 494 109 
L 494 744 
Q 775 591 1075 516 
Q 1375 441 1709 441 
Q 2250 441 2565 725 
Q 2881 1009 2881 1497 
Q 2881 1984 2565 2268 
Q 2250 2553 1709 2553 
Q 1456 2553 1204 2497 
Q 953 2441 691 2322 
L 691 4666 
z
" transform="scale(0.015625)"/>
        <path id="DejaVuSans-30" d="M 2034 4250 
Q 1547 4250 1301 3770 
Q 1056 3291 1056 2328 
Q 1056 1369 1301 889 
Q 1547 409 2034 409 
Q 2525 409 2770 889 
Q 3016 1369 3016 2328 
Q 3016 3291 2770 3770 
Q 2525 4250 2034 4250 
z
M 2034 4750 
Q 2819 4750 3233 4129 
Q 3647 3509 3647 2328 
Q 3647 1150 3233 529 
Q 2819 -91 2034 -91 
Q 1250 -91 836 529 
Q 422 1150 422 2328 
Q 422 3509 836 4129 
Q 1250 4750 2034 4750 
z
" transform="scale(0.015625)"/>
       </defs>
       <use xlink:href="#DejaVuSans-35"/>
       <use xlink:href="#DejaVuSans-30" x="63.623047"/>
       <use xlink:href="#DejaVuSans-30" x="127.246094"/>
      </g>
     </g>
    </g>
    <g id="xtick_2">
     <g id="line2d_2">
      <g>
       <use xlink:href="#mc9860da9b2" x="108.617143" y="307.584" style="stroke: #000000; stroke-width: 0.8"/>
      </g>
     </g>
     <g id="text_2">
      <!-- 1000 -->
      <g transform="translate(95.892143 322.182437)scale(0.1 -0.1)">
       <defs>
        <path id="DejaVuSans-31" d="M 794 531 
L 1825 531 
L 1825 4091 
L 703 3866 
L 703 4441 
L 1819 4666 
L 2450 4666 
L 2450 531 
L 3481 531 
L 3481 0 
L 794 0 
L 794 531 
z
" transform="scale(0.015625)"/>
       </defs>
       <use xlink:href="#DejaVuSans-31"/>
       <use xlink:href="#DejaVuSans-30" x="63.623047"/>
       <use xlink:href="#DejaVuSans-30" x="127.246094"/>
       <use xlink:href="#DejaVuSans-30" x="190.869141"/>
      </g>
     </g>
    </g>
    <g id="xtick_3">
     <g id="line2d_3">
      <g>
       <use xlink:href="#mc9860da9b2" x="159.634286" y="307.584" style="stroke: #000000; stroke-width: 0.8"/>
      </g>
     </g>
     <g id="text_3">
      <!-- 1500 -->
      <g transform="translate(146.909286 322.182437)scale(0.1 -0.1)">
       <use xlink:href="#DejaVuSans-31"/>
       <use xlink:href="#DejaVuSans-35" x="63.623047"/>
       <use xlink:href="#DejaVuSans-30" x="127.246094"/>
       <use xlink:href="#DejaVuSans-30" x="190.869141"/>
      </g>
     </g>
    </g>
    <g id="xtick_4">
     <g id="line2d_4">
      <g>
       <use xlink:href="#mc9860da9b2" x="210.651429" y="307.584" style="stroke: #000000; stroke-width: 0.8"/>
      </g>
     </g>
     <g id="text_4">
      <!-- 2000 -->
      <g transform="translate(197.926429 322.182437)scale(0.1 -0.1)">
       <defs>
        <path id="DejaVuSans-32" d="M 1228 531 
L 3431 531 
L 3431 0 
L 469 0 
L 469 531 
Q 828 903 1448 1529 
Q 2069 2156 2228 2338 
Q 2531 2678 2651 2914 
Q 2772 3150 2772 3378 
Q 2772 3750 2511 3984 
Q 2250 4219 1831 4219 
Q 1534 4219 1204 4116 
Q 875 4013 500 3803 
L 500 4441 
Q 881 4594 1212 4672 
Q 1544 4750 1819 4750 
Q 2544 4750 2975 4387 
Q 3406 4025 3406 3419 
Q 3406 3131 3298 2873 
Q 3191 2616 2906 2266 
Q 2828 2175 2409 1742 
Q 1991 1309 1228 531 
z
" transform="scale(0.015625)"/>
       </defs>
       <use xlink:href="#DejaVuSans-32"/>
       <use xlink:href="#DejaVuSans-30" x="63.623047"/>
       <use xlink:href="#DejaVuSans-30" x="127.246094"/>
       <use xlink:href="#DejaVuSans-30" x="190.869141"/>
      </g>
     </g>
    </g>
    <g id="xtick_5">
     <g id="line2d_5">
      <g>
       <use xlink:href="#mc9860da9b2" x="261.668571" y="307.584" style="stroke: #000000; stroke-width: 0.8"/>
      </g>
     </g>
     <g id="text_5">
      <!-- 2500 -->
      <g transform="translate(248.943571 322.182437)scale(0.1 -0.1)">
       <use xlink:href="#DejaVuSans-32"/>
       <use xlink:href="#DejaVuSans-35" x="63.623047"/>
       <use xlink:href="#DejaVuSans-30" x="127.246094"/>
       <use xlink:href="#DejaVuSans-30" x="190.869141"/>
      </g>
     </g>
    </g>
    <g id="xtick_6">
     <g id="line2d_6">
      <g>
       <use xlink:href="#mc9860da9b2" x="312.685714" y="307.584" style="stroke: #000000; stroke-width: 0.8"/>
      </g>
     </g>
     <g id="text_6">
      <!-- 3000 -->
      <g transform="translate(299.960714 322.182437)scale(0.1 -0.1)">
       <defs>
        <path id="DejaVuSans-33" d="M 2597 2516 
Q 3050 2419 3304 2112 
Q 3559 1806 3559 1356 
Q 3559 666 3084 287 
Q 2609 -91 1734 -91 
Q 1441 -91 1130 -33 
Q 819 25 488 141 
L 488 750 
Q 750 597 1062 519 
Q 1375 441 1716 441 
Q 2309 441 2620 675 
Q 2931 909 2931 1356 
Q 2931 1769 2642 2001 
Q 2353 2234 1838 2234 
L 1294 2234 
L 1294 2753 
L 1863 2753 
Q 2328 2753 2575 2939 
Q 2822 3125 2822 3475 
Q 2822 3834 2567 4026 
Q 2313 4219 1838 4219 
Q 1578 4219 1281 4162 
Q 984 4106 628 3988 
L 628 4550 
Q 988 4650 1302 4700 
Q 1616 4750 1894 4750 
Q 2613 4750 3031 4423 
Q 3450 4097 3450 3541 
Q 3450 3153 3228 2886 
Q 3006 2619 2597 2516 
z
" transform="scale(0.015625)"/>
       </defs>
       <use xlink:href="#DejaVuSans-33"/>
       <use xlink:href="#DejaVuSans-30" x="63.623047"/>
       <use xlink:href="#DejaVuSans-30" x="127.246094"/>
       <use xlink:href="#DejaVuSans-30" x="190.869141"/>
      </g>
     </g>
    </g>
    <g id="xtick_7">
     <g id="line2d_7">
      <g>
       <use xlink:href="#mc9860da9b2" x="363.702857" y="307.584" style="stroke: #000000; stroke-width: 0.8"/>
      </g>
     </g>
     <g id="text_7">
      <!-- 3500 -->
      <g transform="translate(350.977857 322.182437)scale(0.1 -0.1)">
       <use xlink:href="#DejaVuSans-33"/>
       <use xlink:href="#DejaVuSans-35" x="63.623047"/>
       <use xlink:href="#DejaVuSans-30" x="127.246094"/>
       <use xlink:href="#DejaVuSans-30" x="190.869141"/>
      </g>
     </g>
    </g>
    <g id="xtick_8">
     <g id="line2d_8">
      <g>
       <use xlink:href="#mc9860da9b2" x="414.72" y="307.584" style="stroke: #000000; stroke-width: 0.8"/>
      </g>
     </g>
     <g id="text_8">
      <!-- 4000 -->
      <g transform="translate(401.995 322.182437)scale(0.1 -0.1)">
       <defs>
        <path id="DejaVuSans-34" d="M 2419 4116 
L 825 1625 
L 2419 1625 
L 2419 4116 
z
M 2253 4666 
L 3047 4666 
L 3047 1625 
L 3713 1625 
L 3713 1100 
L 3047 1100 
L 3047 0 
L 2419 0 
L 2419 1100 
L 313 1100 
L 313 1709 
L 2253 4666 
z
" transform="scale(0.015625)"/>
       </defs>
       <use xlink:href="#DejaVuSans-34"/>
       <use xlink:href="#DejaVuSans-30" x="63.623047"/>
       <use xlink:href="#DejaVuSans-30" x="127.246094"/>
       <use xlink:href="#DejaVuSans-30" x="190.869141"/>
      </g>
     </g>
    </g>
    <g id="text_9">
     <!-- step -->
     <g transform="translate(225.344375 335.860562)scale(0.1 -0.1)">
      <defs>
       <path id="DejaVuSans-73" d="M 2834 3397 
L 2834 2853 
Q 2591 2978 2328 3040 
Q 2066 3103 1784 3103 
Q 1356 3103 1142 2972 
Q 928 2841 928 2578 
Q 928 2378 1081 2264 
Q 1234 2150 1697 2047 
L 1894 2003 
Q 2506 1872 2764 1633 
Q 3022 1394 3022 966 
Q 3022 478 2636 193 
Q 2250 -91 1575 -91 
Q 1294 -91 989 -36 
Q 684 19 347 128 
L 347 722 
Q 666 556 975 473 
Q 1284 391 1588 391 
Q 1994 391 2212 530 
Q 2431 669 2431 922 
Q 2431 1156 2273 1281 
Q 2116 1406 1581 1522 
L 1381 1569 
Q 847 1681 609 1914 
Q 372 2147 372 2553 
Q 372 3047 722 3315 
Q 1072 3584 1716 3584 
Q 2034 3584 2315 3537 
Q 2597 3491 2834 3397 
z
" transform="scale(0.015625)"/>
       <path id="DejaVuSans-74" d="M 1172 4494 
L 1172 3500 
L 2356 3500 
L 2356 3053 
L 1172 3053 
L 1172 1153 
Q 1172 725 1289 603 
Q 1406 481 1766 481 
L 2356 481 
L 2356 0 
L 1766 0 
Q 1100 0 847 248 
Q 594 497 594 1153 
L 594 3053 
L 172 3053 
L 172 3500 
L 594 3500 
L 594 4494 
L 1172 4494 
z
" transform="scale(0.015625)"/>
       <path id="DejaVuSans-65" d="M 3597 1894 
L 3597 1613 
L 953 1613 
Q 991 1019 1311 708 
Q 1631 397 2203 397 
Q 2534 397 2845 478 
Q 3156 559 3463 722 
L 3463 178 
Q 3153 47 2828 -22 
Q 2503 -91 2169 -91 
Q 1331 -91 842 396 
Q 353 884 353 1716 
Q 353 2575 817 3079 
Q 1281 3584 2069 3584 
Q 2775 3584 3186 3129 
Q 3597 2675 3597 1894 
z
M 3022 2063 
Q 3016 2534 2758 2815 
Q 2500 3097 2075 3097 
Q 1594 3097 1305 2825 
Q 1016 2553 972 2059 
L 3022 2063 
z
" transform="scale(0.015625)"/>
       <path id="DejaVuSans-70" d="M 1159 525 
L 1159 -1331 
L 581 -1331 
L 581 3500 
L 1159 3500 
L 1159 2969 
Q 1341 3281 1617 3432 
Q 1894 3584 2278 3584 
Q 2916 3584 3314 3078 
Q 3713 2572 3713 1747 
Q 3713 922 3314 415 
Q 2916 -91 2278 -91 
Q 1894 -91 1617 61 
Q 1341 213 1159 525 
z
M 3116 1747 
Q 3116 2381 2855 2742 
Q 2594 3103 2138 3103 
Q 1681 3103 1420 2742 
Q 1159 2381 1159 1747 
Q 1159 1113 1420 752 
Q 1681 391 2138 391 
Q 2594 391 2855 752 
Q 3116 1113 3116 1747 
z
" transform="scale(0.015625)"/>
      </defs>
      <use xlink:href="#DejaVuSans-73"/>
      <use xlink:href="#DejaVuSans-74" x="52.099609"/>
      <use xlink:href="#DejaVuSans-65" x="91.308594"/>
      <use xlink:href="#DejaVuSans-70" x="152.832031"/>
     </g>
    </g>
   </g>
   <g id="matplotlib.axis_2">
    <g id="ytick_1">
     <g id="line2d_9">
      <defs>
       <path id="mf6f52373ea" d="M 0 0 
L -3.5 0 
" style="stroke: #000000; stroke-width: 0.8"/>
      </defs>
      <g>
       <use xlink:href="#mf6f52373ea" x="57.6" y="305.172674" style="stroke: #000000; stroke-width: 0.8"/>
      </g>
     </g>
     <g id="text_10">
      <!-- 0 -->
      <g transform="translate(44.2375 308.971892)scale(0.1 -0.1)">
       <use xlink:href="#DejaVuSans-30"/>
      </g>
     </g>
    </g>
    <g id="ytick_2">
     <g id="line2d_10">
      <g>
       <use xlink:href="#mf6f52373ea" x="57.6" y="270.895793" style="stroke: #000000; stroke-width: 0.8"/>
      </g>
     </g>
     <g id="text_11">
      <!-- 500 -->
      <g transform="translate(31.5125 274.695012)scale(0.1 -0.1)">
       <use xlink:href="#DejaVuSans-35"/>
       <use xlink:href="#DejaVuSans-30" x="63.623047"/>
       <use xlink:href="#DejaVuSans-30" x="127.246094"/>
      </g>
     </g>
    </g>
    <g id="ytick_3">
     <g id="line2d_11">
      <g>
       <use xlink:href="#mf6f52373ea" x="57.6" y="236.618913" style="stroke: #000000; stroke-width: 0.8"/>
      </g>
     </g>
     <g id="text_12">
      <!-- 1000 -->
      <g transform="translate(25.15 240.418132)scale(0.1 -0.1)">
       <use xlink:href="#DejaVuSans-31"/>
       <use xlink:href="#DejaVuSans-30" x="63.623047"/>
       <use xlink:href="#DejaVuSans-30" x="127.246094"/>
       <use xlink:href="#DejaVuSans-30" x="190.869141"/>
      </g>
     </g>
    </g>
    <g id="ytick_4">
     <g id="line2d_12">
      <g>
       <use xlink:href="#mf6f52373ea" x="57.6" y="202.342033" style="stroke: #000000; stroke-width: 0.8"/>
      </g>
     </g>
     <g id="text_13">
      <!-- 1500 -->
      <g transform="translate(25.15 206.141252)scale(0.1 -0.1)">
       <use xlink:href="#DejaVuSans-31"/>
       <use xlink:href="#DejaVuSans-35" x="63.623047"/>
       <use xlink:href="#DejaVuSans-30" x="127.246094"/>
       <use xlink:href="#DejaVuSans-30" x="190.869141"/>
      </g>
     </g>
    </g>
    <g id="ytick_5">
     <g id="line2d_13">
      <g>
       <use xlink:href="#mf6f52373ea" x="57.6" y="168.065153" style="stroke: #000000; stroke-width: 0.8"/>
      </g>
     </g>
     <g id="text_14">
      <!-- 2000 -->
      <g transform="translate(25.15 171.864372)scale(0.1 -0.1)">
       <use xlink:href="#DejaVuSans-32"/>
       <use xlink:href="#DejaVuSans-30" x="63.623047"/>
       <use xlink:href="#DejaVuSans-30" x="127.246094"/>
       <use xlink:href="#DejaVuSans-30" x="190.869141"/>
      </g>
     </g>
    </g>
    <g id="ytick_6">
     <g id="line2d_14">
      <g>
       <use xlink:href="#mf6f52373ea" x="57.6" y="133.788273" style="stroke: #000000; stroke-width: 0.8"/>
      </g>
     </g>
     <g id="text_15">
      <!-- 2500 -->
      <g transform="translate(25.15 137.587492)scale(0.1 -0.1)">
       <use xlink:href="#DejaVuSans-32"/>
       <use xlink:href="#DejaVuSans-35" x="63.623047"/>
       <use xlink:href="#DejaVuSans-30" x="127.246094"/>
       <use xlink:href="#DejaVuSans-30" x="190.869141"/>
      </g>
     </g>
    </g>
    <g id="ytick_7">
     <g id="line2d_15">
      <g>
       <use xlink:href="#mf6f52373ea" x="57.6" y="99.511393" style="stroke: #000000; stroke-width: 0.8"/>
      </g>
     </g>
     <g id="text_16">
      <!-- 3000 -->
      <g transform="translate(25.15 103.310611)scale(0.1 -0.1)">
       <use xlink:href="#DejaVuSans-33"/>
       <use xlink:href="#DejaVuSans-30" x="63.623047"/>
       <use xlink:href="#DejaVuSans-30" x="127.246094"/>
       <use xlink:href="#DejaVuSans-30" x="190.869141"/>
      </g>
     </g>
    </g>
    <g id="ytick_8">
     <g id="line2d_16">
      <g>
       <use xlink:href="#mf6f52373ea" x="57.6" y="65.234513" style="stroke: #000000; stroke-width: 0.8"/>
      </g>
     </g>
     <g id="text_17">
      <!-- 3500 -->
      <g transform="translate(25.15 69.033731)scale(0.1 -0.1)">
       <use xlink:href="#DejaVuSans-33"/>
       <use xlink:href="#DejaVuSans-35" x="63.623047"/>
       <use xlink:href="#DejaVuSans-30" x="127.246094"/>
       <use xlink:href="#DejaVuSans-30" x="190.869141"/>
      </g>
     </g>
    </g>
    <g id="text_18">
     <!-- $\chi^2$ -->
     <g transform="translate(19.05 180.078)rotate(-90)scale(0.1 -0.1)">
      <defs>
       <path id="DejaVuSans-Oblique-3c7" d="M 1922 -781 
L 1691 416 
L 394 -1334 
L -284 -1334 
L 1553 1141 
L 1269 2613 
Q 1194 3006 713 3006 
L 559 3006 
L 653 3500 
L 872 3494 
Q 1675 3472 1775 2950 
L 2006 1753 
L 3303 3503 
L 3981 3503 
L 2144 1028 
L 2428 -444 
Q 2503 -838 2984 -838 
L 3138 -838 
L 3044 -1331 
L 2825 -1325 
Q 2022 -1303 1922 -781 
z
" transform="scale(0.015625)"/>
      </defs>
      <use xlink:href="#DejaVuSans-Oblique-3c7" transform="translate(0 0.765625)"/>
      <use xlink:href="#DejaVuSans-32" transform="translate(63.652396 39.046875)scale(0.7)"/>
     </g>
    </g>
   </g>
   <g id="line2d_17">
    <path d="M 57.6 53.568 
L 57.702034 53.596872 
L 58.416274 54.705258 
L 59.232549 54.877625 
L 60.252891 55.516445 
L 60.558994 56.19895 
L 60.763063 56.222592 
L 61.069166 56.952226 
L 61.273234 57.047324 
L 61.477303 57.347366 
L 61.681371 58.57672 
L 61.783406 58.675175 
L 61.987474 60.496959 
L 62.293577 60.552045 
L 62.497646 60.863186 
L 62.59968 60.903988 
L 62.803749 61.146055 
L 62.905783 61.148752 
L 63.211886 61.493861 
L 63.31392 61.514322 
L 63.517989 62.68362 
L 63.620023 62.924438 
L 64.02816 66.350885 
L 64.232229 66.374618 
L 64.334263 67.073741 
L 64.538331 68.910856 
L 64.7424 68.934357 
L 64.946469 70.180284 
L 65.150537 70.575051 
L 65.252571 70.578147 
L 65.45664 71.30878 
L 65.558674 71.308089 
L 65.762743 71.650408 
L 66.068846 71.739862 
L 66.17088 71.74445 
L 66.374949 71.94604 
L 70.660389 72.939278 
L 71.272594 74.194565 
L 71.476663 74.20023 
L 71.680731 75.088422 
L 71.8848 75.186298 
L 71.986834 75.196985 
L 72.190903 76.371447 
L 72.497006 76.380445 
L 73.007177 78.900689 
L 73.517349 79.016811 
L 73.721417 79.756621 
L 73.823451 79.757465 
L 74.02752 80.046423 
L 74.129554 80.106044 
L 74.333623 82.141326 
L 74.537691 82.1387 
L 74.74176 82.438562 
L 75.047863 82.482928 
L 75.149897 82.968933 
L 75.353966 85.852796 
L 75.456 85.865666 
L 75.660069 86.186865 
L 75.966171 86.250847 
L 76.17024 87.50219 
L 76.374309 88.053793 
L 76.578377 88.085103 
L 76.782446 88.419317 
L 77.190583 88.621984 
L 77.496686 88.681585 
L 77.802789 88.698018 
L 78.006857 88.920306 
L 78.925166 89.043438 
L 79.231269 89.04689 
L 79.537371 89.33144 
L 83.31264 89.574512 
L 83.924846 89.587271 
L 84.435017 90.14493 
L 85.047223 90.189222 
L 85.251291 90.400648 
L 86.067566 90.464059 
L 87.087909 90.610799 
L 87.59808 90.651938 
L 87.802149 91.060893 
L 88.210286 91.094872 
L 88.414354 91.277932 
L 88.720457 91.428755 
L 88.924526 92.763483 
L 89.230629 92.864838 
L 89.434697 94.313961 
L 89.638766 95.86876 
L 89.842834 95.874867 
L 90.046903 97.216441 
L 90.148937 97.223459 
L 90.45504 97.759226 
L 90.659109 99.076811 
L 90.863177 99.082786 
L 91.067246 99.577984 
L 91.271314 99.628919 
L 91.475383 99.89929 
L 91.781486 99.910066 
L 91.985554 100.174227 
L 92.087589 100.17134 
L 92.291657 100.290173 
L 92.495726 100.296917 
L 92.699794 101.545195 
L 92.801829 101.602602 
L 93.005897 102.902637 
L 93.312 102.968325 
L 93.516069 103.314616 
L 93.720137 104.466192 
L 94.128274 105.632227 
L 94.230309 105.639822 
L 94.434377 106.887197 
L 94.74048 106.98852 
L 94.944549 106.999423 
L 95.148617 108.288233 
L 95.352686 108.532613 
L 95.556754 109.632254 
L 95.658789 109.698924 
L 96.16896 114.204786 
L 96.270994 114.202127 
L 96.475063 114.757458 
L 96.577097 114.763247 
L 96.781166 119.732934 
L 96.8832 119.7292 
L 97.087269 120.870751 
L 97.393371 120.982676 
L 97.699474 121.572456 
L 98.005577 121.628925 
L 98.413714 122.591547 
L 98.617783 122.591182 
L 98.821851 122.91871 
L 99.434057 123.242444 
L 100.148297 123.32779 
L 100.352366 123.456473 
L 101.16864 123.499661 
L 101.270674 123.621971 
L 101.474743 124.185339 
L 101.576777 124.185248 
L 102.086949 128.351013 
L 103.821531 128.573921 
L 104.127634 128.641293 
L 106.780526 128.694918 
L 109.02528 128.742855 
L 110.147657 128.773963 
L 110.759863 129.097656 
L 110.861897 129.099237 
L 110.963931 129.453379 
L 111.372069 132.52763 
L 111.474103 132.528682 
L 111.678171 133.447626 
L 111.780206 133.441205 
L 111.984274 133.776493 
L 112.188343 133.901729 
L 112.290377 133.934367 
L 112.494446 134.17121 
L 112.698514 135.355132 
L 112.902583 135.360937 
L 113.106651 135.877051 
L 113.208686 135.887534 
L 113.412754 137.452482 
L 113.922926 137.460806 
L 114.126994 138.152559 
L 114.433097 138.306543 
L 114.637166 138.482963 
L 114.943269 138.497239 
L 115.147337 138.700906 
L 116.16768 138.770232 
L 116.575817 138.884779 
L 117.902263 139.02763 
L 118.208366 139.068763 
L 118.412434 139.068886 
L 119.02464 143.199657 
L 119.534811 143.323249 
L 119.73888 143.515204 
L 120.351086 143.571487 
L 120.555154 143.698278 
L 121.16736 143.806895 
L 121.473463 143.972852 
L 123.922286 144.153948 
L 125.146697 144.297759 
L 125.350766 144.291914 
L 125.554834 145.033835 
L 125.758903 145.59112 
L 125.860937 145.662956 
L 126.065006 147.684901 
L 126.269074 147.693186 
L 126.575177 148.481743 
L 127.289417 148.487105 
L 127.493486 149.478226 
L 127.59552 149.478391 
L 128.003657 150.127289 
L 128.207726 150.276395 
L 128.513829 152.370374 
L 128.819931 152.635748 
L 129.534171 152.710829 
L 129.840274 152.808511 
L 130.758583 152.808131 
L 130.962651 152.986388 
L 131.982994 153.014436 
L 133.003337 153.106905 
L 133.207406 153.317353 
L 133.819611 153.324126 
L 134.125714 154.913588 
L 134.329783 154.908707 
L 134.533851 155.575153 
L 134.73792 155.652428 
L 134.839954 155.649053 
L 135.044023 155.786607 
L 135.350126 157.162856 
L 135.554194 157.174567 
L 135.758263 157.692271 
L 135.962331 157.699156 
L 136.1664 157.968554 
L 136.370469 158.142475 
L 136.676571 158.140412 
L 136.88064 158.436498 
L 138.105051 158.459203 
L 139.7376 158.502035 
L 141.574217 158.513205 
L 146.88 158.569739 
L 147.084069 158.64837 
L 148.512549 158.657703 
L 153.410194 158.716361 
L 156.063086 158.752295 
L 160.348526 158.865472 
L 160.654629 159.341683 
L 161.062766 159.405777 
L 161.266834 159.619188 
L 161.368869 159.617739 
L 161.572937 160.51126 
L 161.674971 160.514485 
L 161.87904 161.961324 
L 162.083109 162.568113 
L 163.205486 162.554172 
L 163.409554 163.286988 
L 163.613623 163.650295 
L 163.817691 163.762915 
L 166.062446 163.936896 
L 166.266514 164.026219 
L 170.653989 164.245928 
L 170.960091 165.701707 
L 171.266194 168.179784 
L 171.674331 168.183452 
L 171.8784 168.781813 
L 172.59264 168.867104 
L 172.796709 169.129355 
L 181.775726 169.279323 
L 181.979794 169.443358 
L 182.081829 169.510921 
L 182.285897 169.730291 
L 183.714377 169.800711 
L 183.918446 169.93375 
L 185.040823 170.003937 
L 188.30592 170.04094 
L 192.489326 170.09407 
L 192.999497 170.727411 
L 193.509669 170.794 
L 193.815771 172.695322 
L 194.01984 172.698797 
L 194.223909 173.788123 
L 194.325943 173.85139 
L 194.530011 174.224105 
L 194.632046 174.228576 
L 194.836114 174.583602 
L 194.938149 174.573339 
L 195.142217 174.799708 
L 195.346286 174.942026 
L 201.366309 175.315861 
L 205.855817 175.325305 
L 207.080229 175.357754 
L 240.649509 175.847087 
L 240.853577 176.003577 
L 241.261714 176.035845 
L 241.669851 176.037133 
L 242.077989 178.258912 
L 242.282057 179.982423 
L 242.58816 179.977698 
L 242.792229 180.354864 
L 244.118674 180.425897 
L 244.322743 180.573287 
L 244.832914 180.661685 
L 247.077669 180.816281 
L 260.750263 180.921735 
L 263.30112 180.989913 
L 275.341166 181.160086 
L 275.545234 181.36628 
L 275.953371 181.434171 
L 276.15744 182.283975 
L 276.463543 182.284865 
L 276.667611 183.06538 
L 276.87168 183.350372 
L 277.075749 184.362077 
L 277.279817 185.307829 
L 277.483886 185.39239 
L 279.830674 185.403942 
L 280.136777 185.410131 
L 280.340846 185.769656 
L 280.646949 185.799647 
L 280.851017 186.092758 
L 281.463223 186.244683 
L 284.116114 186.303493 
L 284.524251 186.337029 
L 285.238491 186.450682 
L 285.44256 186.718018 
L 285.544594 186.72207 
L 285.850697 188.949969 
L 285.952731 188.960455 
L 286.1568 190.453648 
L 286.258834 190.454174 
L 286.462903 190.897121 
L 287.993417 191.049434 
L 288.29952 191.093514 
L 288.809691 191.090686 
L 289.01376 191.313694 
L 289.523931 191.403748 
L 289.932069 191.528631 
L 293.401234 191.638537 
L 295.543954 191.664712 
L 296.258194 191.662977 
L 296.462263 192.372601 
L 296.666331 192.780241 
L 297.686674 192.880485 
L 297.890743 194.935048 
L 299.217189 194.967904 
L 299.72736 194.996757 
L 306.563657 195.120848 
L 306.86976 195.22676 
L 307.073829 195.543706 
L 308.502309 195.630573 
L 308.706377 196.326792 
L 308.808411 196.35918 
L 309.114514 196.927728 
L 309.420617 198.111426 
L 309.72672 198.118757 
L 310.134857 200.47971 
L 310.338926 200.475694 
L 310.542994 200.708398 
L 311.971474 200.773526 
L 312.175543 200.982562 
L 326.256274 201.314362 
L 326.460343 201.544491 
L 328.092891 201.64611 
L 333.908846 201.848995 
L 334.112914 202.465478 
L 335.031223 202.495439 
L 335.43936 202.595571 
L 335.847497 202.730496 
L 336.051566 202.926073 
L 336.663771 202.964315 
L 337.071909 204.418043 
L 337.173943 204.4171 
L 337.378011 204.642626 
L 337.480046 204.703587 
L 337.684114 205.301665 
L 338.092251 205.304998 
L 338.500389 206.186264 
L 338.602423 206.188859 
L 338.806491 207.455221 
L 339.01056 207.511943 
L 339.214629 208.058299 
L 339.418697 208.658469 
L 339.622766 208.6853 
L 339.826834 209.05501 
L 340.030903 210.45485 
L 340.337006 211.085657 
L 340.43904 211.152974 
L 340.643109 211.763049 
L 340.745143 211.762638 
L 340.949211 212.116163 
L 341.255314 212.234274 
L 342.071589 212.588796 
L 360.947931 212.782392 
L 361.152 212.930124 
L 365.233371 213.049375 
L 365.845577 213.072897 
L 381.354789 213.226625 
L 381.660891 213.290497 
L 382.375131 213.33197 
L 382.5792 213.518931 
L 385.538194 213.602969 
L 388.701257 213.610987 
L 391.558217 213.630515 
L 404.924709 213.799933 
L 405.128777 214.405491 
L 405.230811 214.411241 
L 405.43488 215.107707 
L 405.536914 215.109597 
L 405.945051 217.051284 
L 406.14912 217.052719 
L 406.353189 217.503813 
L 406.761326 218.751489 
L 408.393874 218.78739 
L 414.617966 218.972971 
L 414.617966 218.972971 
" clip-path="url(#p7a5d39d578)" style="fill: none; stroke: #1f77b4; stroke-opacity: 0.3; stroke-width: 1.5; stroke-linecap: square"/>
   </g>
   <g id="line2d_18">
    <path d="M 57.6 295.140163 
L 63.007817 295.232113 
L 63.31392 295.272774 
L 63.722057 295.184324 
L 64.436297 295.238673 
L 67.497326 295.247497 
L 67.701394 295.369937 
L 388.803291 295.433985 
L 389.109394 295.487189 
L 414.617966 295.43603 
L 414.617966 295.43603 
" clip-path="url(#p7a5d39d578)" style="fill: none; stroke: #ff7f0e; stroke-opacity: 0.3; stroke-width: 1.5; stroke-linecap: square"/>
   </g>
   <g id="patch_3">
    <path d="M 57.6 307.584 
L 57.6 41.472 
" style="fill: none; stroke: #000000; stroke-width: 0.8; stroke-linejoin: miter; stroke-linecap: square"/>
   </g>
   <g id="patch_4">
    <path d="M 414.72 307.584 
L 414.72 41.472 
" style="fill: none; stroke: #000000; stroke-width: 0.8; stroke-linejoin: miter; stroke-linecap: square"/>
   </g>
   <g id="patch_5">
    <path d="M 57.6 307.584 
L 414.72 307.584 
" style="fill: none; stroke: #000000; stroke-width: 0.8; stroke-linejoin: miter; stroke-linecap: square"/>
   </g>
   <g id="patch_6">
    <path d="M 57.6 41.472 
L 414.72 41.472 
" style="fill: none; stroke: #000000; stroke-width: 0.8; stroke-linejoin: miter; stroke-linecap: square"/>
   </g>
   <g id="text_19">
    <!-- Best $\chi^2$ by Step -->
    <g transform="translate(189.42 35.472)scale(0.12 -0.12)">
     <defs>
      <path id="DejaVuSans-42" d="M 1259 2228 
L 1259 519 
L 2272 519 
Q 2781 519 3026 730 
Q 3272 941 3272 1375 
Q 3272 1813 3026 2020 
Q 2781 2228 2272 2228 
L 1259 2228 
z
M 1259 4147 
L 1259 2741 
L 2194 2741 
Q 2656 2741 2882 2914 
Q 3109 3088 3109 3444 
Q 3109 3797 2882 3972 
Q 2656 4147 2194 4147 
L 1259 4147 
z
M 628 4666 
L 2241 4666 
Q 2963 4666 3353 4366 
Q 3744 4066 3744 3513 
Q 3744 3084 3544 2831 
Q 3344 2578 2956 2516 
Q 3422 2416 3680 2098 
Q 3938 1781 3938 1306 
Q 3938 681 3513 340 
Q 3088 0 2303 0 
L 628 0 
L 628 4666 
z
" transform="scale(0.015625)"/>
      <path id="DejaVuSans-20" transform="scale(0.015625)"/>
      <path id="DejaVuSans-62" d="M 3116 1747 
Q 3116 2381 2855 2742 
Q 2594 3103 2138 3103 
Q 1681 3103 1420 2742 
Q 1159 2381 1159 1747 
Q 1159 1113 1420 752 
Q 1681 391 2138 391 
Q 2594 391 2855 752 
Q 3116 1113 3116 1747 
z
M 1159 2969 
Q 1341 3281 1617 3432 
Q 1894 3584 2278 3584 
Q 2916 3584 3314 3078 
Q 3713 2572 3713 1747 
Q 3713 922 3314 415 
Q 2916 -91 2278 -91 
Q 1894 -91 1617 61 
Q 1341 213 1159 525 
L 1159 0 
L 581 0 
L 581 4863 
L 1159 4863 
L 1159 2969 
z
" transform="scale(0.015625)"/>
      <path id="DejaVuSans-79" d="M 2059 -325 
Q 1816 -950 1584 -1140 
Q 1353 -1331 966 -1331 
L 506 -1331 
L 506 -850 
L 844 -850 
Q 1081 -850 1212 -737 
Q 1344 -625 1503 -206 
L 1606 56 
L 191 3500 
L 800 3500 
L 1894 763 
L 2988 3500 
L 3597 3500 
L 2059 -325 
z
" transform="scale(0.015625)"/>
      <path id="DejaVuSans-53" d="M 3425 4513 
L 3425 3897 
Q 3066 4069 2747 4153 
Q 2428 4238 2131 4238 
Q 1616 4238 1336 4038 
Q 1056 3838 1056 3469 
Q 1056 3159 1242 3001 
Q 1428 2844 1947 2747 
L 2328 2669 
Q 3034 2534 3370 2195 
Q 3706 1856 3706 1288 
Q 3706 609 3251 259 
Q 2797 -91 1919 -91 
Q 1588 -91 1214 -16 
Q 841 59 441 206 
L 441 856 
Q 825 641 1194 531 
Q 1563 422 1919 422 
Q 2459 422 2753 634 
Q 3047 847 3047 1241 
Q 3047 1584 2836 1778 
Q 2625 1972 2144 2069 
L 1759 2144 
Q 1053 2284 737 2584 
Q 422 2884 422 3419 
Q 422 4038 858 4394 
Q 1294 4750 2059 4750 
Q 2388 4750 2728 4690 
Q 3069 4631 3425 4513 
z
" transform="scale(0.015625)"/>
     </defs>
     <use xlink:href="#DejaVuSans-42" transform="translate(0 0.765625)"/>
     <use xlink:href="#DejaVuSans-65" transform="translate(68.603516 0.765625)"/>
     <use xlink:href="#DejaVuSans-73" transform="translate(130.126953 0.765625)"/>
     <use xlink:href="#DejaVuSans-74" transform="translate(182.226562 0.765625)"/>
     <use xlink:href="#DejaVuSans-20" transform="translate(221.435547 0.765625)"/>
     <use xlink:href="#DejaVuSans-Oblique-3c7" transform="translate(253.222656 0.765625)"/>
     <use xlink:href="#DejaVuSans-32" transform="translate(316.875052 39.046875)scale(0.7)"/>
     <use xlink:href="#DejaVuSans-20" transform="translate(364.14556 0.765625)"/>
     <use xlink:href="#DejaVuSans-62" transform="translate(395.932669 0.765625)"/>
     <use xlink:href="#DejaVuSans-79" transform="translate(459.409232 0.765625)"/>
     <use xlink:href="#DejaVuSans-20" transform="translate(518.588919 0.765625)"/>
     <use xlink:href="#DejaVuSans-53" transform="translate(550.376029 0.765625)"/>
     <use xlink:href="#DejaVuSans-74" transform="translate(613.852591 0.765625)"/>
     <use xlink:href="#DejaVuSans-65" transform="translate(653.061576 0.765625)"/>
     <use xlink:href="#DejaVuSans-70" transform="translate(714.585013 0.765625)"/>
    </g>
   </g>
  </g>
 </g>
 <defs>
  <clipPath id="p7a5d39d578">
   <rect x="57.6" y="41.472" width="357.12" height="266.112"/>
  </clipPath>
 </defs>
</svg>
