<?xml version="1.0" encoding="utf-8" standalone="no"?>
<!DOCTYPE svg PUBLIC "-//W3C//DTD SVG 1.1//EN"
  "http://www.w3.org/Graphics/SVG/1.1/DTD/svg11.dtd">
<svg xmlns:xlink="http://www.w3.org/1999/xlink" width="460.8pt" height="345.6pt" viewBox="0 0 460.8 345.6" xmlns="http://www.w3.org/2000/svg" version="1.1">
 <metadata>
  <rdf:RDF xmlns:dc="http://purl.org/dc/elements/1.1/" xmlns:cc="http://creativecommons.org/ns#" xmlns:rdf="http://www.w3.org/1999/02/22-rdf-syntax-ns#">
   <cc:Work>
    <dc:type rdf:resource="http://purl.org/dc/dcmitype/StillImage"/>
    <dc:date>2022-06-11T09:47:26.997269</dc:date>
    <dc:format>image/svg+xml</dc:format>
    <dc:creator>
     <cc:Agent>
      <dc:title>Matplotlib v3.5.0, https://matplotlib.org/</dc:title>
     </cc:Agent>
    </dc:creator>
   </cc:Work>
  </rdf:RDF>
 </metadata>
 <defs>
  <style type="text/css">*{stroke-linejoin: round; stroke-linecap: butt}</style>
 </defs>
 <g id="figure_1">
  <g id="patch_1">
   <path d="M 0 345.6 
L 460.8 345.6 
L 460.8 0 
L 0 0 
z
" style="fill: #ffffff"/>
  </g>
  <g id="axes_1">
   <g id="patch_2">
    <path d="M 57.6 307.584 
L 414.72 307.584 
L 414.72 41.472 
L 57.6 41.472 
z
" style="fill: #ffffff"/>
   </g>
   <g id="PolyCollection_1">
    <path d="M 73.832727 363.704544 
L 73.832727 544.786363 
L 77.250145 509.711586 
L 80.667562 473.596294 
L 84.08498 437.331489 
L 87.502398 401.06654 
L 90.919815 364.804336 
L 94.337233 328.544635 
L 97.754635 305.083878 
L 101.172052 292.130848 
L 104.58947 279.183838 
L 108.006887 266.229797 
L 111.424305 253.281967 
L 114.841723 240.335823 
L 118.25914 227.392616 
L 121.676558 214.45408 
L 125.093975 201.523297 
L 128.511393 188.605225 
L 131.928811 175.707907 
L 135.346228 162.844681 
L 138.76363 150.037119 
L 142.181048 137.320419 
L 145.598465 124.751305 
L 149.015883 112.420495 
L 152.4333 100.470134 
L 155.850718 89.116039 
L 159.268136 80.256843 
L 162.685553 73.757384 
L 166.102971 67.764079 
L 169.520388 62.33205 
L 172.937806 57.580503 
L 176.355224 53.781688 
L 179.772625 51.298574 
L 183.190043 50.560961 
L 186.607461 52.007596 
L 190.024878 56.010436 
L 193.442296 61.137222 
L 196.859713 66.566915 
L 200.277131 72.110313 
L 203.694549 77.640513 
L 207.111966 83.148106 
L 210.529384 88.619863 
L 213.946801 94.037005 
L 217.364219 99.375236 
L 220.781637 104.750481 
L 224.199038 110.019345 
L 227.616456 115.099561 
L 231.033874 119.896437 
L 234.451291 124.805347 
L 237.868709 129.885281 
L 241.286126 135.534016 
L 244.703544 142.132518 
L 248.120962 149.562263 
L 251.538379 156.680376 
L 254.955797 159.349085 
L 258.373214 160.868569 
L 261.790632 164.999124 
L 265.208034 167.778926 
L 268.625451 168.174326 
L 272.042869 165.258454 
L 275.460287 158.995578 
L 278.877704 150.325353 
L 282.295122 140.412318 
L 285.712539 130.112497 
L 289.129957 119.965762 
L 292.547375 110.305888 
L 295.964792 101.335117 
L 299.38221 93.18483 
L 302.799627 85.906805 
L 306.217045 79.508369 
L 309.634447 73.995111 
L 313.051864 69.381717 
L 316.469282 66.057111 
L 319.8867 63.848812 
L 323.304117 62.460687 
L 326.721535 61.503088 
L 330.138952 61.119317 
L 333.55637 61.714331 
L 336.973788 63.059553 
L 340.391205 65.104568 
L 343.808623 67.855443 
L 347.22604 71.174897 
L 350.643442 75.31486 
L 354.06086 80.933475 
L 357.478277 89.81458 
L 360.895695 106.263685 
L 364.313113 132.905748 
L 367.73053 166.770754 
L 371.147948 199.956864 
L 374.565365 226.509172 
L 377.982783 256.126257 
L 381.400201 309.701365 
L 384.817618 424.897538 
L 388.235036 745.973563 
L 391.652438 1743.513832 
L 395.069855 4011.358444 
L 398.487273 7616.940314 
L 398.487273 6279.203057 
L 398.487273 6279.203057 
L 395.069855 3947.687983 
L 391.652438 1709.348791 
L 388.235036 725.638304 
L 384.817618 411.71126 
L 381.400201 298.967853 
L 377.982783 245.554825 
L 374.565365 216.770721 
L 371.147948 190.247786 
L 367.73053 158.074263 
L 364.313113 124.941072 
L 360.895695 99.854126 
L 357.478277 84.654998 
L 354.06086 76.404925 
L 350.643442 71.304522 
L 347.22604 67.670058 
L 343.808623 64.8627 
L 340.391205 62.45279 
L 336.973788 60.691679 
L 333.55637 59.693344 
L 330.138952 59.450561 
L 326.721535 59.785025 
L 323.304117 60.683445 
L 319.8867 62.245592 
L 316.469282 64.024278 
L 313.051864 65.934564 
L 309.634447 68.090954 
L 306.217045 70.40042 
L 302.799627 72.893971 
L 299.38221 75.549794 
L 295.964792 78.347039 
L 292.547375 81.267313 
L 289.129957 84.295977 
L 285.712539 87.424893 
L 282.295122 90.647706 
L 278.877704 93.961189 
L 275.460287 97.367075 
L 272.042869 100.873118 
L 268.625451 104.493474 
L 265.208034 108.248895 
L 261.790632 112.159848 
L 258.373214 116.23837 
L 254.955797 120.45816 
L 251.538379 124.77131 
L 248.120962 129.007245 
L 244.703544 132.153694 
L 241.286126 131.31323 
L 237.868709 128.154433 
L 234.451291 124.0269 
L 231.033874 118.703828 
L 227.616456 113.421328 
L 224.199038 108.172893 
L 220.781637 102.93856 
L 217.364219 97.709888 
L 213.946801 92.440349 
L 210.529384 87.070679 
L 207.111966 81.69778 
L 203.694549 76.323117 
L 200.277131 70.947494 
L 196.859713 65.572408 
L 193.442296 60.248708 
L 190.024878 55.392119 
L 186.607461 50.917096 
L 183.190043 47.209418 
L 179.772625 45.345476 
L 176.355224 45.401198 
L 172.937806 47.055079 
L 169.520388 49.903223 
L 166.102971 53.599323 
L 162.685553 57.883936 
L 159.268136 62.573603 
L 155.850718 67.541781 
L 152.4333 72.701748 
L 149.015883 77.99423 
L 145.598465 82.86727 
L 142.181048 87.232828 
L 138.76363 91.617897 
L 135.346228 96.015989 
L 131.928811 100.422733 
L 128.511393 104.835151 
L 125.093975 109.254834 
L 121.676558 113.686264 
L 118.25914 118.164208 
L 114.841723 122.848241 
L 111.424305 128.455782 
L 108.006887 137.948609 
L 104.58947 152.295832 
L 101.172052 171.169342 
L 97.754635 190.03794 
L 94.337233 205.525353 
L 90.919815 224.622095 
L 87.502398 249.063564 
L 84.08498 275.292097 
L 80.667562 302.558595 
L 77.250145 332.780855 
L 73.832727 363.704544 
z
" clip-path="url(#p6b807e41df)" style="fill: #1f77b4; fill-opacity: 0.5"/>
   </g>
   <g id="matplotlib.axis_1">
    <g id="xtick_1">
     <g id="line2d_1">
      <defs>
       <path id="ma2526bf71d" d="M 0 0 
L 0 3.5 
" style="stroke: #000000; stroke-width: 0.8"/>
      </defs>
      <g>
       <use xlink:href="#ma2526bf71d" x="70.672487" y="307.584" style="stroke: #000000; stroke-width: 0.8"/>
      </g>
     </g>
     <g id="text_1">
      <!-- 7.5 -->
      <g transform="translate(62.720925 322.182437)scale(0.1 -0.1)">
       <defs>
        <path id="DejaVuSans-37" d="M 525 4666 
L 3525 4666 
L 3525 4397 
L 1831 0 
L 1172 0 
L 2766 4134 
L 525 4134 
L 525 4666 
z
" transform="scale(0.015625)"/>
        <path id="DejaVuSans-2e" d="M 684 794 
L 1344 794 
L 1344 0 
L 684 0 
L 684 794 
z
" transform="scale(0.015625)"/>
        <path id="DejaVuSans-35" d="M 691 4666 
L 3169 4666 
L 3169 4134 
L 1269 4134 
L 1269 2991 
Q 1406 3038 1543 3061 
Q 1681 3084 1819 3084 
Q 2600 3084 3056 2656 
Q 3513 2228 3513 1497 
Q 3513 744 3044 326 
Q 2575 -91 1722 -91 
Q 1428 -91 1123 -41 
Q 819 9 494 109 
L 494 744 
Q 775 591 1075 516 
Q 1375 441 1709 441 
Q 2250 441 2565 725 
Q 2881 1009 2881 1497 
Q 2881 1984 2565 2268 
Q 2250 2553 1709 2553 
Q 1456 2553 1204 2497 
Q 953 2441 691 2322 
L 691 4666 
z
" transform="scale(0.015625)"/>
       </defs>
       <use xlink:href="#DejaVuSans-37"/>
       <use xlink:href="#DejaVuSans-2e" x="63.623047"/>
       <use xlink:href="#DejaVuSans-35" x="95.410156"/>
      </g>
     </g>
    </g>
    <g id="xtick_2">
     <g id="line2d_2">
      <g>
       <use xlink:href="#ma2526bf71d" x="110.379982" y="307.584" style="stroke: #000000; stroke-width: 0.8"/>
      </g>
     </g>
     <g id="text_2">
      <!-- 10.0 -->
      <g transform="translate(99.24717 322.182437)scale(0.1 -0.1)">
       <defs>
        <path id="DejaVuSans-31" d="M 794 531 
L 1825 531 
L 1825 4091 
L 703 3866 
L 703 4441 
L 1819 4666 
L 2450 4666 
L 2450 531 
L 3481 531 
L 3481 0 
L 794 0 
L 794 531 
z
" transform="scale(0.015625)"/>
        <path id="DejaVuSans-30" d="M 2034 4250 
Q 1547 4250 1301 3770 
Q 1056 3291 1056 2328 
Q 1056 1369 1301 889 
Q 1547 409 2034 409 
Q 2525 409 2770 889 
Q 3016 1369 3016 2328 
Q 3016 3291 2770 3770 
Q 2525 4250 2034 4250 
z
M 2034 4750 
Q 2819 4750 3233 4129 
Q 3647 3509 3647 2328 
Q 3647 1150 3233 529 
Q 2819 -91 2034 -91 
Q 1250 -91 836 529 
Q 422 1150 422 2328 
Q 422 3509 836 4129 
Q 1250 4750 2034 4750 
z
" transform="scale(0.015625)"/>
       </defs>
       <use xlink:href="#DejaVuSans-31"/>
       <use xlink:href="#DejaVuSans-30" x="63.623047"/>
       <use xlink:href="#DejaVuSans-2e" x="127.246094"/>
       <use xlink:href="#DejaVuSans-30" x="159.033203"/>
      </g>
     </g>
    </g>
    <g id="xtick_3">
     <g id="line2d_3">
      <g>
       <use xlink:href="#ma2526bf71d" x="150.087477" y="307.584" style="stroke: #000000; stroke-width: 0.8"/>
      </g>
     </g>
     <g id="text_3">
      <!-- 12.5 -->
      <g transform="translate(138.954664 322.182437)scale(0.1 -0.1)">
       <defs>
        <path id="DejaVuSans-32" d="M 1228 531 
L 3431 531 
L 3431 0 
L 469 0 
L 469 531 
Q 828 903 1448 1529 
Q 2069 2156 2228 2338 
Q 2531 2678 2651 2914 
Q 2772 3150 2772 3378 
Q 2772 3750 2511 3984 
Q 2250 4219 1831 4219 
Q 1534 4219 1204 4116 
Q 875 4013 500 3803 
L 500 4441 
Q 881 4594 1212 4672 
Q 1544 4750 1819 4750 
Q 2544 4750 2975 4387 
Q 3406 4025 3406 3419 
Q 3406 3131 3298 2873 
Q 3191 2616 2906 2266 
Q 2828 2175 2409 1742 
Q 1991 1309 1228 531 
z
" transform="scale(0.015625)"/>
       </defs>
       <use xlink:href="#DejaVuSans-31"/>
       <use xlink:href="#DejaVuSans-32" x="63.623047"/>
       <use xlink:href="#DejaVuSans-2e" x="127.246094"/>
       <use xlink:href="#DejaVuSans-35" x="159.033203"/>
      </g>
     </g>
    </g>
    <g id="xtick_4">
     <g id="line2d_4">
      <g>
       <use xlink:href="#ma2526bf71d" x="189.794972" y="307.584" style="stroke: #000000; stroke-width: 0.8"/>
      </g>
     </g>
     <g id="text_4">
      <!-- 15.0 -->
      <g transform="translate(178.662159 322.182437)scale(0.1 -0.1)">
       <use xlink:href="#DejaVuSans-31"/>
       <use xlink:href="#DejaVuSans-35" x="63.623047"/>
       <use xlink:href="#DejaVuSans-2e" x="127.246094"/>
       <use xlink:href="#DejaVuSans-30" x="159.033203"/>
      </g>
     </g>
    </g>
    <g id="xtick_5">
     <g id="line2d_5">
      <g>
       <use xlink:href="#ma2526bf71d" x="229.502467" y="307.584" style="stroke: #000000; stroke-width: 0.8"/>
      </g>
     </g>
     <g id="text_5">
      <!-- 17.5 -->
      <g transform="translate(218.369654 322.182437)scale(0.1 -0.1)">
       <use xlink:href="#DejaVuSans-31"/>
       <use xlink:href="#DejaVuSans-37" x="63.623047"/>
       <use xlink:href="#DejaVuSans-2e" x="127.246094"/>
       <use xlink:href="#DejaVuSans-35" x="159.033203"/>
      </g>
     </g>
    </g>
    <g id="xtick_6">
     <g id="line2d_6">
      <g>
       <use xlink:href="#ma2526bf71d" x="269.209962" y="307.584" style="stroke: #000000; stroke-width: 0.8"/>
      </g>
     </g>
     <g id="text_6">
      <!-- 20.0 -->
      <g transform="translate(258.077149 322.182437)scale(0.1 -0.1)">
       <use xlink:href="#DejaVuSans-32"/>
       <use xlink:href="#DejaVuSans-30" x="63.623047"/>
       <use xlink:href="#DejaVuSans-2e" x="127.246094"/>
       <use xlink:href="#DejaVuSans-30" x="159.033203"/>
      </g>
     </g>
    </g>
    <g id="xtick_7">
     <g id="line2d_7">
      <g>
       <use xlink:href="#ma2526bf71d" x="308.917456" y="307.584" style="stroke: #000000; stroke-width: 0.8"/>
      </g>
     </g>
     <g id="text_7">
      <!-- 22.5 -->
      <g transform="translate(297.784644 322.182437)scale(0.1 -0.1)">
       <use xlink:href="#DejaVuSans-32"/>
       <use xlink:href="#DejaVuSans-32" x="63.623047"/>
       <use xlink:href="#DejaVuSans-2e" x="127.246094"/>
       <use xlink:href="#DejaVuSans-35" x="159.033203"/>
      </g>
     </g>
    </g>
    <g id="xtick_8">
     <g id="line2d_8">
      <g>
       <use xlink:href="#ma2526bf71d" x="348.624951" y="307.584" style="stroke: #000000; stroke-width: 0.8"/>
      </g>
     </g>
     <g id="text_8">
      <!-- 25.0 -->
      <g transform="translate(337.492139 322.182437)scale(0.1 -0.1)">
       <use xlink:href="#DejaVuSans-32"/>
       <use xlink:href="#DejaVuSans-35" x="63.623047"/>
       <use xlink:href="#DejaVuSans-2e" x="127.246094"/>
       <use xlink:href="#DejaVuSans-30" x="159.033203"/>
      </g>
     </g>
    </g>
    <g id="xtick_9">
     <g id="line2d_9">
      <g>
       <use xlink:href="#ma2526bf71d" x="388.332446" y="307.584" style="stroke: #000000; stroke-width: 0.8"/>
      </g>
     </g>
     <g id="text_9">
      <!-- 27.5 -->
      <g transform="translate(377.199634 322.182437)scale(0.1 -0.1)">
       <use xlink:href="#DejaVuSans-32"/>
       <use xlink:href="#DejaVuSans-37" x="63.623047"/>
       <use xlink:href="#DejaVuSans-2e" x="127.246094"/>
       <use xlink:href="#DejaVuSans-35" x="159.033203"/>
      </g>
     </g>
    </g>
    <g id="text_10">
     <!-- log $\nu$ -->
     <g transform="translate(224.11 335.862125)scale(0.1 -0.1)">
      <defs>
       <path id="DejaVuSans-6c" d="M 603 4863 
L 1178 4863 
L 1178 0 
L 603 0 
L 603 4863 
z
" transform="scale(0.015625)"/>
       <path id="DejaVuSans-6f" d="M 1959 3097 
Q 1497 3097 1228 2736 
Q 959 2375 959 1747 
Q 959 1119 1226 758 
Q 1494 397 1959 397 
Q 2419 397 2687 759 
Q 2956 1122 2956 1747 
Q 2956 2369 2687 2733 
Q 2419 3097 1959 3097 
z
M 1959 3584 
Q 2709 3584 3137 3096 
Q 3566 2609 3566 1747 
Q 3566 888 3137 398 
Q 2709 -91 1959 -91 
Q 1206 -91 779 398 
Q 353 888 353 1747 
Q 353 2609 779 3096 
Q 1206 3584 1959 3584 
z
" transform="scale(0.015625)"/>
       <path id="DejaVuSans-67" d="M 2906 1791 
Q 2906 2416 2648 2759 
Q 2391 3103 1925 3103 
Q 1463 3103 1205 2759 
Q 947 2416 947 1791 
Q 947 1169 1205 825 
Q 1463 481 1925 481 
Q 2391 481 2648 825 
Q 2906 1169 2906 1791 
z
M 3481 434 
Q 3481 -459 3084 -895 
Q 2688 -1331 1869 -1331 
Q 1566 -1331 1297 -1286 
Q 1028 -1241 775 -1147 
L 775 -588 
Q 1028 -725 1275 -790 
Q 1522 -856 1778 -856 
Q 2344 -856 2625 -561 
Q 2906 -266 2906 331 
L 2906 616 
Q 2728 306 2450 153 
Q 2172 0 1784 0 
Q 1141 0 747 490 
Q 353 981 353 1791 
Q 353 2603 747 3093 
Q 1141 3584 1784 3584 
Q 2172 3584 2450 3431 
Q 2728 3278 2906 2969 
L 2906 3500 
L 3481 3500 
L 3481 434 
z
" transform="scale(0.015625)"/>
       <path id="DejaVuSans-20" transform="scale(0.015625)"/>
       <path id="DejaVuSans-Oblique-3bd" d="M 959 0 
L 572 3500 
L 1191 3500 
L 1522 563 
Q 1972 950 2391 1488 
Q 2706 1891 2788 2241 
Q 2825 2406 2809 2719 
Q 2794 3091 2544 3500 
L 3125 3500 
L 3125 3500 
Q 3288 3222 3353 2834 
Q 3416 2478 3369 2234 
Q 3250 1622 2719 1075 
Q 2025 363 1572 0 
L 959 0 
z
" transform="scale(0.015625)"/>
      </defs>
      <use xlink:href="#DejaVuSans-6c" transform="translate(0 0.015625)"/>
      <use xlink:href="#DejaVuSans-6f" transform="translate(27.783203 0.015625)"/>
      <use xlink:href="#DejaVuSans-67" transform="translate(88.964844 0.015625)"/>
      <use xlink:href="#DejaVuSans-20" transform="translate(152.441406 0.015625)"/>
      <use xlink:href="#DejaVuSans-Oblique-3bd" transform="translate(184.228516 0.015625)"/>
     </g>
    </g>
   </g>
   <g id="matplotlib.axis_2">
    <g id="ytick_1">
     <g id="line2d_10">
      <defs>
       <path id="m0c0de7cf2a" d="M 0 0 
L -3.5 0 
" style="stroke: #000000; stroke-width: 0.8"/>
      </defs>
      <g>
       <use xlink:href="#m0c0de7cf2a" x="57.6" y="266.644963" style="stroke: #000000; stroke-width: 0.8"/>
      </g>
     </g>
     <g id="text_11">
      <!-- −15 -->
      <g transform="translate(29.495313 270.444182)scale(0.1 -0.1)">
       <defs>
        <path id="DejaVuSans-2212" d="M 678 2272 
L 4684 2272 
L 4684 1741 
L 678 1741 
L 678 2272 
z
" transform="scale(0.015625)"/>
       </defs>
       <use xlink:href="#DejaVuSans-2212"/>
       <use xlink:href="#DejaVuSans-31" x="83.789062"/>
       <use xlink:href="#DejaVuSans-35" x="147.412109"/>
      </g>
     </g>
    </g>
    <g id="ytick_2">
     <g id="line2d_11">
      <g>
       <use xlink:href="#m0c0de7cf2a" x="57.6" y="218.492973" style="stroke: #000000; stroke-width: 0.8"/>
      </g>
     </g>
     <g id="text_12">
      <!-- −14 -->
      <g transform="translate(29.495313 222.292192)scale(0.1 -0.1)">
       <defs>
        <path id="DejaVuSans-34" d="M 2419 4116 
L 825 1625 
L 2419 1625 
L 2419 4116 
z
M 2253 4666 
L 3047 4666 
L 3047 1625 
L 3713 1625 
L 3713 1100 
L 3047 1100 
L 3047 0 
L 2419 0 
L 2419 1100 
L 313 1100 
L 313 1709 
L 2253 4666 
z
" transform="scale(0.015625)"/>
       </defs>
       <use xlink:href="#DejaVuSans-2212"/>
       <use xlink:href="#DejaVuSans-31" x="83.789062"/>
       <use xlink:href="#DejaVuSans-34" x="147.412109"/>
      </g>
     </g>
    </g>
    <g id="ytick_3">
     <g id="line2d_12">
      <g>
       <use xlink:href="#m0c0de7cf2a" x="57.6" y="170.340983" style="stroke: #000000; stroke-width: 0.8"/>
      </g>
     </g>
     <g id="text_13">
      <!-- −13 -->
      <g transform="translate(29.495313 174.140202)scale(0.1 -0.1)">
       <defs>
        <path id="DejaVuSans-33" d="M 2597 2516 
Q 3050 2419 3304 2112 
Q 3559 1806 3559 1356 
Q 3559 666 3084 287 
Q 2609 -91 1734 -91 
Q 1441 -91 1130 -33 
Q 819 25 488 141 
L 488 750 
Q 750 597 1062 519 
Q 1375 441 1716 441 
Q 2309 441 2620 675 
Q 2931 909 2931 1356 
Q 2931 1769 2642 2001 
Q 2353 2234 1838 2234 
L 1294 2234 
L 1294 2753 
L 1863 2753 
Q 2328 2753 2575 2939 
Q 2822 3125 2822 3475 
Q 2822 3834 2567 4026 
Q 2313 4219 1838 4219 
Q 1578 4219 1281 4162 
Q 984 4106 628 3988 
L 628 4550 
Q 988 4650 1302 4700 
Q 1616 4750 1894 4750 
Q 2613 4750 3031 4423 
Q 3450 4097 3450 3541 
Q 3450 3153 3228 2886 
Q 3006 2619 2597 2516 
z
" transform="scale(0.015625)"/>
       </defs>
       <use xlink:href="#DejaVuSans-2212"/>
       <use xlink:href="#DejaVuSans-31" x="83.789062"/>
       <use xlink:href="#DejaVuSans-33" x="147.412109"/>
      </g>
     </g>
    </g>
    <g id="ytick_4">
     <g id="line2d_13">
      <g>
       <use xlink:href="#m0c0de7cf2a" x="57.6" y="122.188993" style="stroke: #000000; stroke-width: 0.8"/>
      </g>
     </g>
     <g id="text_14">
      <!-- −12 -->
      <g transform="translate(29.495313 125.988212)scale(0.1 -0.1)">
       <use xlink:href="#DejaVuSans-2212"/>
       <use xlink:href="#DejaVuSans-31" x="83.789062"/>
       <use xlink:href="#DejaVuSans-32" x="147.412109"/>
      </g>
     </g>
    </g>
    <g id="ytick_5">
     <g id="line2d_14">
      <g>
       <use xlink:href="#m0c0de7cf2a" x="57.6" y="74.037003" style="stroke: #000000; stroke-width: 0.8"/>
      </g>
     </g>
     <g id="text_15">
      <!-- −11 -->
      <g transform="translate(29.495313 77.836222)scale(0.1 -0.1)">
       <use xlink:href="#DejaVuSans-2212"/>
       <use xlink:href="#DejaVuSans-31" x="83.789062"/>
       <use xlink:href="#DejaVuSans-31" x="147.412109"/>
      </g>
     </g>
    </g>
    <g id="text_16">
     <!-- log $\nu F_{\nu}$ -->
     <g transform="translate(23.395312 191.528)rotate(-90)scale(0.1 -0.1)">
      <defs>
       <path id="DejaVuSans-Oblique-46" d="M 1081 4666 
L 3756 4666 
L 3653 4134 
L 1606 4134 
L 1338 2759 
L 3188 2759 
L 3084 2228 
L 1234 2228 
L 800 0 
L 172 0 
L 1081 4666 
z
" transform="scale(0.015625)"/>
      </defs>
      <use xlink:href="#DejaVuSans-6c" transform="translate(0 0.015625)"/>
      <use xlink:href="#DejaVuSans-6f" transform="translate(27.783203 0.015625)"/>
      <use xlink:href="#DejaVuSans-67" transform="translate(88.964844 0.015625)"/>
      <use xlink:href="#DejaVuSans-20" transform="translate(152.441406 0.015625)"/>
      <use xlink:href="#DejaVuSans-Oblique-3bd" transform="translate(184.228516 0.015625)"/>
      <use xlink:href="#DejaVuSans-Oblique-46" transform="translate(240.087891 0.015625)"/>
      <use xlink:href="#DejaVuSans-Oblique-3bd" transform="translate(297.607422 -16.390625)scale(0.7)"/>
     </g>
    </g>
   </g>
   <g id="line2d_15">
    <path d="M 81.997903 346.6 
L 84.08498 327.673132 
L 87.502398 296.80371 
L 90.919815 266.439258 
L 94.337233 238.29702 
L 97.754635 215.22745 
L 101.172052 197.304412 
L 104.58947 182.715563 
L 108.006887 170.136626 
L 111.424305 159.040144 
L 114.841723 149.369539 
L 118.25914 141.185675 
L 121.676558 134.317998 
L 125.093975 128.223304 
L 128.511393 122.358488 
L 131.928811 116.524152 
L 135.346228 110.705177 
L 138.76363 104.904932 
L 142.181048 99.130979 
L 145.598465 93.394295 
L 149.015883 87.710242 
L 152.4333 82.100968 
L 155.850718 76.598159 
L 159.268136 71.247461 
L 162.685553 66.115133 
L 166.102971 61.297333 
L 169.520388 56.933895 
L 172.937806 53.225757 
L 176.355224 50.454124 
L 179.772625 48.987262 
L 183.190043 49.23518 
L 186.607461 51.476182 
L 190.024878 55.527598 
L 193.442296 60.619554 
L 196.859713 65.990445 
L 200.277131 71.384283 
L 203.694549 76.777568 
L 207.111966 82.169009 
L 210.529384 87.557061 
L 213.946801 92.938779 
L 217.364219 98.309054 
L 220.781637 103.658661 
L 224.199038 108.971758 
L 227.616456 114.221789 
L 231.033874 119.365901 
L 234.451291 124.338448 
L 237.868709 129.045963 
L 241.286126 133.362665 
L 244.703544 137.115167 
L 248.120962 140.009621 
L 251.538379 141.456317 
L 254.955797 140.566802 
L 258.373214 137.008539 
L 261.790632 131.819297 
L 265.208034 126.316028 
L 268.625451 120.997228 
L 272.042869 115.905495 
L 275.460287 111.010894 
L 278.877704 106.280346 
L 282.295122 101.688861 
L 285.712539 97.22859 
L 289.129957 92.898089 
L 292.547375 88.70381 
L 295.964792 84.660728 
L 299.38221 80.788827 
L 302.799627 77.115697 
L 306.217045 73.671674 
L 309.634447 70.488731 
L 313.051864 67.621665 
L 316.469282 65.127488 
L 319.8867 63.057049 
L 323.304117 61.472223 
L 326.721535 60.457467 
L 330.138952 60.087757 
L 333.55637 60.418994 
L 336.973788 61.479734 
L 340.391205 63.267232 
L 343.808623 65.742437 
L 347.22604 68.859893 
L 350.643442 72.79237 
L 354.06086 78.323589 
L 357.478277 87.139785 
L 360.895695 102.900317 
L 364.313113 128.886646 
L 367.73053 162.767445 
L 371.147948 195.568437 
L 374.565365 222.567113 
L 377.982783 251.909828 
L 381.400201 306.041043 
L 382.61621 346.6 
" clip-path="url(#p6b807e41df)" style="fill: none; stroke: #008000; stroke-width: 2; stroke-linecap: square"/>
   </g>
   <g id="LineCollection_1">
    <path d="M 185.649334 52.097197 
L 185.649334 51.168889 
" clip-path="url(#p6b807e41df)" style="fill: none; stroke: #000000; stroke-width: 1.5"/>
    <path d="M 187.160853 51.81493 
L 187.160853 51.020882 
" clip-path="url(#p6b807e41df)" style="fill: none; stroke: #000000; stroke-width: 1.5"/>
    <path d="M 188.796154 53.038734 
L 188.796154 52.131649 
" clip-path="url(#p6b807e41df)" style="fill: none; stroke: #000000; stroke-width: 1.5"/>
    <path d="M 190.777246 59.338904 
L 190.777246 58.516524 
" clip-path="url(#p6b807e41df)" style="fill: none; stroke: #000000; stroke-width: 1.5"/>
    <path d="M 191.786802 55.493404 
L 191.786802 54.602816 
" clip-path="url(#p6b807e41df)" style="fill: none; stroke: #000000; stroke-width: 1.5"/>
    <path d="M 192.839915 61.031329 
L 192.839915 60.205743 
" clip-path="url(#p6b807e41df)" style="fill: none; stroke: #000000; stroke-width: 1.5"/>
    <path d="M 225.666917 112.113341 
L 225.666917 109.426125 
" clip-path="url(#p6b807e41df)" style="fill: none; stroke: #000000; stroke-width: 1.5"/>
    <path d="M 226.366036 113.155424 
L 226.366036 110.609674 
" clip-path="url(#p6b807e41df)" style="fill: none; stroke: #000000; stroke-width: 1.5"/>
    <path d="M 227.03857 115.061718 
L 227.03857 112.704152 
" clip-path="url(#p6b807e41df)" style="fill: none; stroke: #000000; stroke-width: 1.5"/>
    <path d="M 227.685722 114.754637 
L 227.685722 112.450588 
" clip-path="url(#p6b807e41df)" style="fill: none; stroke: #000000; stroke-width: 1.5"/>
    <path d="M 228.308759 115.264968 
L 228.308759 113.057899 
" clip-path="url(#p6b807e41df)" style="fill: none; stroke: #000000; stroke-width: 1.5"/>
    <path d="M 228.966199 117.500846 
L 228.966199 115.322113 
" clip-path="url(#p6b807e41df)" style="fill: none; stroke: #000000; stroke-width: 1.5"/>
    <path d="M 229.670124 118.444333 
L 229.670124 116.321423 
" clip-path="url(#p6b807e41df)" style="fill: none; stroke: #000000; stroke-width: 1.5"/>
    <path d="M 230.402036 118.941486 
L 230.402036 116.831481 
" clip-path="url(#p6b807e41df)" style="fill: none; stroke: #000000; stroke-width: 1.5"/>
    <path d="M 231.250404 121.846758 
L 231.250404 119.753799 
" clip-path="url(#p6b807e41df)" style="fill: none; stroke: #000000; stroke-width: 1.5"/>
    <path d="M 232.484119 123.049204 
L 232.484119 120.964547 
" clip-path="url(#p6b807e41df)" style="fill: none; stroke: #000000; stroke-width: 1.5"/>
    <path d="M 234.616686 125.144573 
L 234.616686 123.090647 
" clip-path="url(#p6b807e41df)" style="fill: none; stroke: #000000; stroke-width: 1.5"/>
    <path d="M 239.912274 132.560099 
L 239.912274 130.408356 
" clip-path="url(#p6b807e41df)" style="fill: none; stroke: #000000; stroke-width: 1.5"/>
    <path d="M 308.956751 76.000051 
L 308.956751 71.862148 
" clip-path="url(#p6b807e41df)" style="fill: none; stroke: #000000; stroke-width: 1.5"/>
    <path d="M 312.745809 68.856666 
L 312.745809 66.427514 
" clip-path="url(#p6b807e41df)" style="fill: none; stroke: #000000; stroke-width: 1.5"/>
    <path d="M 316.722391 64.690803 
L 316.722391 62.983527 
" clip-path="url(#p6b807e41df)" style="fill: none; stroke: #000000; stroke-width: 1.5"/>
    <path d="M 320.874833 61.830106 
L 320.874833 60.316126 
" clip-path="url(#p6b807e41df)" style="fill: none; stroke: #000000; stroke-width: 1.5"/>
    <path d="M 324.839749 63.73141 
L 324.839749 61.942393 
" clip-path="url(#p6b807e41df)" style="fill: none; stroke: #000000; stroke-width: 1.5"/>
    <path d="M 328.628807 63.031657 
L 328.628807 60.976384 
" clip-path="url(#p6b807e41df)" style="fill: none; stroke: #000000; stroke-width: 1.5"/>
    <path d="M 332.605389 61.059418 
L 332.605389 58.72162 
" clip-path="url(#p6b807e41df)" style="fill: none; stroke: #000000; stroke-width: 1.5"/>
    <path d="M 336.75783 62.940429 
L 336.75783 59.751984 
" clip-path="url(#p6b807e41df)" style="fill: none; stroke: #000000; stroke-width: 1.5"/>
    <path d="M 340.722747 63.125766 
L 340.722747 58.77195 
" clip-path="url(#p6b807e41df)" style="fill: none; stroke: #000000; stroke-width: 1.5"/>
    <path d="M 344.511805 63.051434 
L 344.511805 57.463294 
" clip-path="url(#p6b807e41df)" style="fill: none; stroke: #000000; stroke-width: 1.5"/>
    <path d="M 348.488387 62.928131 
L 348.488387 56.089411 
" clip-path="url(#p6b807e41df)" style="fill: none; stroke: #000000; stroke-width: 1.5"/>
    <path d="M 352.640828 72.139135 
L 352.640828 61.003278 
" clip-path="url(#p6b807e41df)" style="fill: none; stroke: #000000; stroke-width: 1.5"/>
    <path d="M 356.605745 80.305515 
L 356.605745 62.708001 
" clip-path="url(#p6b807e41df)" style="fill: none; stroke: #000000; stroke-width: 1.5"/>
    <path d="M 360.394803 92.887253 
L 360.394803 65.280872 
" clip-path="url(#p6b807e41df)" style="fill: none; stroke: #000000; stroke-width: 1.5"/>
    <path d="M 355.915215 90.875391 
L 355.915215 77.50956 
" clip-path="url(#p6b807e41df)" style="fill: none; stroke: #000000; stroke-width: 1.5"/>
    <path d="M 356.708321 89.737344 
L 356.708321 78.651198 
" clip-path="url(#p6b807e41df)" style="fill: none; stroke: #000000; stroke-width: 1.5"/>
    <path d="M 357.502956 94.660075 
L 357.502956 84.067513 
" clip-path="url(#p6b807e41df)" style="fill: none; stroke: #000000; stroke-width: 1.5"/>
    <path d="M 358.297994 93.250952 
L 358.297994 84.476899 
" clip-path="url(#p6b807e41df)" style="fill: none; stroke: #000000; stroke-width: 1.5"/>
    <path d="M 359.09173 126.135995 
L 359.09173 101.793085 
" clip-path="url(#p6b807e41df)" style="fill: none; stroke: #000000; stroke-width: 1.5"/>
    <path d="M 359.888726 121.409058 
L 359.888726 99.481234 
" clip-path="url(#p6b807e41df)" style="fill: none; stroke: #000000; stroke-width: 1.5"/>
    <path d="M 360.681967 112.21693 
L 360.681967 98.200988 
" clip-path="url(#p6b807e41df)" style="fill: none; stroke: #000000; stroke-width: 1.5"/>
    <path d="M 361.47665 130.13137 
L 361.47665 107.527168 
" clip-path="url(#p6b807e41df)" style="fill: none; stroke: #000000; stroke-width: 1.5"/>
   </g>
   <g id="line2d_16">
    <defs>
     <path id="mf88a77ff93" d="M 0 1.5 
C 0.397805 1.5 0.77937 1.341951 1.06066 1.06066 
C 1.341951 0.77937 1.5 0.397805 1.5 0 
C 1.5 -0.397805 1.341951 -0.77937 1.06066 -1.06066 
C 0.77937 -1.341951 0.397805 -1.5 0 -1.5 
C -0.397805 -1.5 -0.77937 -1.341951 -1.06066 -1.06066 
C -1.341951 -0.77937 -1.5 -0.397805 -1.5 0 
C -1.5 0.397805 -1.341951 0.77937 -1.06066 1.06066 
C -0.77937 1.341951 -0.397805 1.5 0 1.5 
z
" style="stroke: #0000ff"/>
    </defs>
    <g clip-path="url(#p6b807e41df)">
     <use xlink:href="#mf88a77ff93" x="185.649334" y="51.627892" style="fill: #0000ff; stroke: #0000ff"/>
     <use xlink:href="#mf88a77ff93" x="187.160853" y="51.414138" style="fill: #0000ff; stroke: #0000ff"/>
     <use xlink:href="#mf88a77ff93" x="188.796154" y="52.580274" style="fill: #0000ff; stroke: #0000ff"/>
     <use xlink:href="#mf88a77ff93" x="190.777246" y="58.923672" style="fill: #0000ff; stroke: #0000ff"/>
     <use xlink:href="#mf88a77ff93" x="191.786802" y="55.043369" style="fill: #0000ff; stroke: #0000ff"/>
     <use xlink:href="#mf88a77ff93" x="192.839915" y="60.614462" style="fill: #0000ff; stroke: #0000ff"/>
     <use xlink:href="#mf88a77ff93" x="225.666917" y="110.726599" style="fill: #0000ff; stroke: #0000ff"/>
     <use xlink:href="#mf88a77ff93" x="226.366036" y="111.843834" style="fill: #0000ff; stroke: #0000ff"/>
     <use xlink:href="#mf88a77ff93" x="227.03857" y="113.849729" style="fill: #0000ff; stroke: #0000ff"/>
     <use xlink:href="#mf88a77ff93" x="227.685722" y="113.570897" style="fill: #0000ff; stroke: #0000ff"/>
     <use xlink:href="#mf88a77ff93" x="228.308759" y="114.13233" style="fill: #0000ff; stroke: #0000ff"/>
     <use xlink:href="#mf88a77ff93" x="228.966199" y="116.383118" style="fill: #0000ff; stroke: #0000ff"/>
     <use xlink:href="#mf88a77ff93" x="229.670124" y="117.355951" style="fill: #0000ff; stroke: #0000ff"/>
     <use xlink:href="#mf88a77ff93" x="230.402036" y="117.859883" style="fill: #0000ff; stroke: #0000ff"/>
     <use xlink:href="#mf88a77ff93" x="231.250404" y="120.774106" style="fill: #0000ff; stroke: #0000ff"/>
     <use xlink:href="#mf88a77ff93" x="232.484119" y="121.98091" style="fill: #0000ff; stroke: #0000ff"/>
     <use xlink:href="#mf88a77ff93" x="234.616686" y="124.092404" style="fill: #0000ff; stroke: #0000ff"/>
     <use xlink:href="#mf88a77ff93" x="239.912274" y="131.456564" style="fill: #0000ff; stroke: #0000ff"/>
     <use xlink:href="#mf88a77ff93" x="308.956751" y="73.82892" style="fill: #0000ff; stroke: #0000ff"/>
     <use xlink:href="#mf88a77ff93" x="312.745809" y="67.606839" style="fill: #0000ff; stroke: #0000ff"/>
     <use xlink:href="#mf88a77ff93" x="316.722391" y="63.819747" style="fill: #0000ff; stroke: #0000ff"/>
     <use xlink:href="#mf88a77ff93" x="320.874833" y="61.059418" style="fill: #0000ff; stroke: #0000ff"/>
     <use xlink:href="#mf88a77ff93" x="324.839749" y="62.817776" style="fill: #0000ff; stroke: #0000ff"/>
     <use xlink:href="#mf88a77ff93" x="328.628807" y="61.978781" style="fill: #0000ff; stroke: #0000ff"/>
     <use xlink:href="#mf88a77ff93" x="332.605389" y="59.857868" style="fill: #0000ff; stroke: #0000ff"/>
     <use xlink:href="#mf88a77ff93" x="336.75783" y="61.285498" style="fill: #0000ff; stroke: #0000ff"/>
     <use xlink:href="#mf88a77ff93" x="340.722747" y="60.835757" style="fill: #0000ff; stroke: #0000ff"/>
     <use xlink:href="#mf88a77ff93" x="344.511805" y="60.071259" style="fill: #0000ff; stroke: #0000ff"/>
     <use xlink:href="#mf88a77ff93" x="348.488387" y="59.230457" style="fill: #0000ff; stroke: #0000ff"/>
     <use xlink:href="#mf88a77ff93" x="352.640828" y="65.838562" style="fill: #0000ff; stroke: #0000ff"/>
     <use xlink:href="#mf88a77ff93" x="356.605745" y="69.707893" style="fill: #0000ff; stroke: #0000ff"/>
     <use xlink:href="#mf88a77ff93" x="360.394803" y="74.82543" style="fill: #0000ff; stroke: #0000ff"/>
     <use xlink:href="#mf88a77ff93" x="355.915215" y="83.142338" style="fill: #0000ff; stroke: #0000ff"/>
     <use xlink:href="#mf88a77ff93" x="356.708321" y="83.468079" style="fill: #0000ff; stroke: #0000ff"/>
     <use xlink:href="#mf88a77ff93" x="357.502956" y="88.700166" style="fill: #0000ff; stroke: #0000ff"/>
     <use xlink:href="#mf88a77ff93" x="358.297994" y="88.407098" style="fill: #0000ff; stroke: #0000ff"/>
     <use xlink:href="#mf88a77ff93" x="359.09173" y="110.606068" style="fill: #0000ff; stroke: #0000ff"/>
     <use xlink:href="#mf88a77ff93" x="359.888726" y="107.6938" style="fill: #0000ff; stroke: #0000ff"/>
     <use xlink:href="#mf88a77ff93" x="360.681967" y="104.056063" style="fill: #0000ff; stroke: #0000ff"/>
     <use xlink:href="#mf88a77ff93" x="361.47665" y="115.913163" style="fill: #0000ff; stroke: #0000ff"/>
    </g>
   </g>
   <g id="patch_3">
    <path d="M 57.6 307.584 
L 57.6 41.472 
" style="fill: none; stroke: #000000; stroke-width: 0.8; stroke-linejoin: miter; stroke-linecap: square"/>
   </g>
   <g id="patch_4">
    <path d="M 414.72 307.584 
L 414.72 41.472 
" style="fill: none; stroke: #000000; stroke-width: 0.8; stroke-linejoin: miter; stroke-linecap: square"/>
   </g>
   <g id="patch_5">
    <path d="M 57.6 307.584 
L 414.72 307.584 
" style="fill: none; stroke: #000000; stroke-width: 0.8; stroke-linejoin: miter; stroke-linecap: square"/>
   </g>
   <g id="patch_6">
    <path d="M 57.6 41.472 
L 414.72 41.472 
" style="fill: none; stroke: #000000; stroke-width: 0.8; stroke-linejoin: miter; stroke-linecap: square"/>
   </g>
   <g id="text_17">
    <!-- MCMC results with the range from extreme models within 1 sigma -->
    <g transform="translate(37.283437 35.472)scale(0.12 -0.12)">
     <defs>
      <path id="DejaVuSans-4d" d="M 628 4666 
L 1569 4666 
L 2759 1491 
L 3956 4666 
L 4897 4666 
L 4897 0 
L 4281 0 
L 4281 4097 
L 3078 897 
L 2444 897 
L 1241 4097 
L 1241 0 
L 628 0 
L 628 4666 
z
" transform="scale(0.015625)"/>
      <path id="DejaVuSans-43" d="M 4122 4306 
L 4122 3641 
Q 3803 3938 3442 4084 
Q 3081 4231 2675 4231 
Q 1875 4231 1450 3742 
Q 1025 3253 1025 2328 
Q 1025 1406 1450 917 
Q 1875 428 2675 428 
Q 3081 428 3442 575 
Q 3803 722 4122 1019 
L 4122 359 
Q 3791 134 3420 21 
Q 3050 -91 2638 -91 
Q 1578 -91 968 557 
Q 359 1206 359 2328 
Q 359 3453 968 4101 
Q 1578 4750 2638 4750 
Q 3056 4750 3426 4639 
Q 3797 4528 4122 4306 
z
" transform="scale(0.015625)"/>
      <path id="DejaVuSans-72" d="M 2631 2963 
Q 2534 3019 2420 3045 
Q 2306 3072 2169 3072 
Q 1681 3072 1420 2755 
Q 1159 2438 1159 1844 
L 1159 0 
L 581 0 
L 581 3500 
L 1159 3500 
L 1159 2956 
Q 1341 3275 1631 3429 
Q 1922 3584 2338 3584 
Q 2397 3584 2469 3576 
Q 2541 3569 2628 3553 
L 2631 2963 
z
" transform="scale(0.015625)"/>
      <path id="DejaVuSans-65" d="M 3597 1894 
L 3597 1613 
L 953 1613 
Q 991 1019 1311 708 
Q 1631 397 2203 397 
Q 2534 397 2845 478 
Q 3156 559 3463 722 
L 3463 178 
Q 3153 47 2828 -22 
Q 2503 -91 2169 -91 
Q 1331 -91 842 396 
Q 353 884 353 1716 
Q 353 2575 817 3079 
Q 1281 3584 2069 3584 
Q 2775 3584 3186 3129 
Q 3597 2675 3597 1894 
z
M 3022 2063 
Q 3016 2534 2758 2815 
Q 2500 3097 2075 3097 
Q 1594 3097 1305 2825 
Q 1016 2553 972 2059 
L 3022 2063 
z
" transform="scale(0.015625)"/>
      <path id="DejaVuSans-73" d="M 2834 3397 
L 2834 2853 
Q 2591 2978 2328 3040 
Q 2066 3103 1784 3103 
Q 1356 3103 1142 2972 
Q 928 2841 928 2578 
Q 928 2378 1081 2264 
Q 1234 2150 1697 2047 
L 1894 2003 
Q 2506 1872 2764 1633 
Q 3022 1394 3022 966 
Q 3022 478 2636 193 
Q 2250 -91 1575 -91 
Q 1294 -91 989 -36 
Q 684 19 347 128 
L 347 722 
Q 666 556 975 473 
Q 1284 391 1588 391 
Q 1994 391 2212 530 
Q 2431 669 2431 922 
Q 2431 1156 2273 1281 
Q 2116 1406 1581 1522 
L 1381 1569 
Q 847 1681 609 1914 
Q 372 2147 372 2553 
Q 372 3047 722 3315 
Q 1072 3584 1716 3584 
Q 2034 3584 2315 3537 
Q 2597 3491 2834 3397 
z
" transform="scale(0.015625)"/>
      <path id="DejaVuSans-75" d="M 544 1381 
L 544 3500 
L 1119 3500 
L 1119 1403 
Q 1119 906 1312 657 
Q 1506 409 1894 409 
Q 2359 409 2629 706 
Q 2900 1003 2900 1516 
L 2900 3500 
L 3475 3500 
L 3475 0 
L 2900 0 
L 2900 538 
Q 2691 219 2414 64 
Q 2138 -91 1772 -91 
Q 1169 -91 856 284 
Q 544 659 544 1381 
z
M 1991 3584 
L 1991 3584 
z
" transform="scale(0.015625)"/>
      <path id="DejaVuSans-74" d="M 1172 4494 
L 1172 3500 
L 2356 3500 
L 2356 3053 
L 1172 3053 
L 1172 1153 
Q 1172 725 1289 603 
Q 1406 481 1766 481 
L 2356 481 
L 2356 0 
L 1766 0 
Q 1100 0 847 248 
Q 594 497 594 1153 
L 594 3053 
L 172 3053 
L 172 3500 
L 594 3500 
L 594 4494 
L 1172 4494 
z
" transform="scale(0.015625)"/>
      <path id="DejaVuSans-77" d="M 269 3500 
L 844 3500 
L 1563 769 
L 2278 3500 
L 2956 3500 
L 3675 769 
L 4391 3500 
L 4966 3500 
L 4050 0 
L 3372 0 
L 2619 2869 
L 1863 0 
L 1184 0 
L 269 3500 
z
" transform="scale(0.015625)"/>
      <path id="DejaVuSans-69" d="M 603 3500 
L 1178 3500 
L 1178 0 
L 603 0 
L 603 3500 
z
M 603 4863 
L 1178 4863 
L 1178 4134 
L 603 4134 
L 603 4863 
z
" transform="scale(0.015625)"/>
      <path id="DejaVuSans-68" d="M 3513 2113 
L 3513 0 
L 2938 0 
L 2938 2094 
Q 2938 2591 2744 2837 
Q 2550 3084 2163 3084 
Q 1697 3084 1428 2787 
Q 1159 2491 1159 1978 
L 1159 0 
L 581 0 
L 581 4863 
L 1159 4863 
L 1159 2956 
Q 1366 3272 1645 3428 
Q 1925 3584 2291 3584 
Q 2894 3584 3203 3211 
Q 3513 2838 3513 2113 
z
" transform="scale(0.015625)"/>
      <path id="DejaVuSans-61" d="M 2194 1759 
Q 1497 1759 1228 1600 
Q 959 1441 959 1056 
Q 959 750 1161 570 
Q 1363 391 1709 391 
Q 2188 391 2477 730 
Q 2766 1069 2766 1631 
L 2766 1759 
L 2194 1759 
z
M 3341 1997 
L 3341 0 
L 2766 0 
L 2766 531 
Q 2569 213 2275 61 
Q 1981 -91 1556 -91 
Q 1019 -91 701 211 
Q 384 513 384 1019 
Q 384 1609 779 1909 
Q 1175 2209 1959 2209 
L 2766 2209 
L 2766 2266 
Q 2766 2663 2505 2880 
Q 2244 3097 1772 3097 
Q 1472 3097 1187 3025 
Q 903 2953 641 2809 
L 641 3341 
Q 956 3463 1253 3523 
Q 1550 3584 1831 3584 
Q 2591 3584 2966 3190 
Q 3341 2797 3341 1997 
z
" transform="scale(0.015625)"/>
      <path id="DejaVuSans-6e" d="M 3513 2113 
L 3513 0 
L 2938 0 
L 2938 2094 
Q 2938 2591 2744 2837 
Q 2550 3084 2163 3084 
Q 1697 3084 1428 2787 
Q 1159 2491 1159 1978 
L 1159 0 
L 581 0 
L 581 3500 
L 1159 3500 
L 1159 2956 
Q 1366 3272 1645 3428 
Q 1925 3584 2291 3584 
Q 2894 3584 3203 3211 
Q 3513 2838 3513 2113 
z
" transform="scale(0.015625)"/>
      <path id="DejaVuSans-66" d="M 2375 4863 
L 2375 4384 
L 1825 4384 
Q 1516 4384 1395 4259 
Q 1275 4134 1275 3809 
L 1275 3500 
L 2222 3500 
L 2222 3053 
L 1275 3053 
L 1275 0 
L 697 0 
L 697 3053 
L 147 3053 
L 147 3500 
L 697 3500 
L 697 3744 
Q 697 4328 969 4595 
Q 1241 4863 1831 4863 
L 2375 4863 
z
" transform="scale(0.015625)"/>
      <path id="DejaVuSans-6d" d="M 3328 2828 
Q 3544 3216 3844 3400 
Q 4144 3584 4550 3584 
Q 5097 3584 5394 3201 
Q 5691 2819 5691 2113 
L 5691 0 
L 5113 0 
L 5113 2094 
Q 5113 2597 4934 2840 
Q 4756 3084 4391 3084 
Q 3944 3084 3684 2787 
Q 3425 2491 3425 1978 
L 3425 0 
L 2847 0 
L 2847 2094 
Q 2847 2600 2669 2842 
Q 2491 3084 2119 3084 
Q 1678 3084 1418 2786 
Q 1159 2488 1159 1978 
L 1159 0 
L 581 0 
L 581 3500 
L 1159 3500 
L 1159 2956 
Q 1356 3278 1631 3431 
Q 1906 3584 2284 3584 
Q 2666 3584 2933 3390 
Q 3200 3197 3328 2828 
z
" transform="scale(0.015625)"/>
      <path id="DejaVuSans-78" d="M 3513 3500 
L 2247 1797 
L 3578 0 
L 2900 0 
L 1881 1375 
L 863 0 
L 184 0 
L 1544 1831 
L 300 3500 
L 978 3500 
L 1906 2253 
L 2834 3500 
L 3513 3500 
z
" transform="scale(0.015625)"/>
      <path id="DejaVuSans-64" d="M 2906 2969 
L 2906 4863 
L 3481 4863 
L 3481 0 
L 2906 0 
L 2906 525 
Q 2725 213 2448 61 
Q 2172 -91 1784 -91 
Q 1150 -91 751 415 
Q 353 922 353 1747 
Q 353 2572 751 3078 
Q 1150 3584 1784 3584 
Q 2172 3584 2448 3432 
Q 2725 3281 2906 2969 
z
M 947 1747 
Q 947 1113 1208 752 
Q 1469 391 1925 391 
Q 2381 391 2643 752 
Q 2906 1113 2906 1747 
Q 2906 2381 2643 2742 
Q 2381 3103 1925 3103 
Q 1469 3103 1208 2742 
Q 947 2381 947 1747 
z
" transform="scale(0.015625)"/>
     </defs>
     <use xlink:href="#DejaVuSans-4d"/>
     <use xlink:href="#DejaVuSans-43" x="86.279297"/>
     <use xlink:href="#DejaVuSans-4d" x="156.103516"/>
     <use xlink:href="#DejaVuSans-43" x="242.382812"/>
     <use xlink:href="#DejaVuSans-20" x="312.207031"/>
     <use xlink:href="#DejaVuSans-72" x="343.994141"/>
     <use xlink:href="#DejaVuSans-65" x="382.857422"/>
     <use xlink:href="#DejaVuSans-73" x="444.380859"/>
     <use xlink:href="#DejaVuSans-75" x="496.480469"/>
     <use xlink:href="#DejaVuSans-6c" x="559.859375"/>
     <use xlink:href="#DejaVuSans-74" x="587.642578"/>
     <use xlink:href="#DejaVuSans-73" x="626.851562"/>
     <use xlink:href="#DejaVuSans-20" x="678.951172"/>
     <use xlink:href="#DejaVuSans-77" x="710.738281"/>
     <use xlink:href="#DejaVuSans-69" x="792.525391"/>
     <use xlink:href="#DejaVuSans-74" x="820.308594"/>
     <use xlink:href="#DejaVuSans-68" x="859.517578"/>
     <use xlink:href="#DejaVuSans-20" x="922.896484"/>
     <use xlink:href="#DejaVuSans-74" x="954.683594"/>
     <use xlink:href="#DejaVuSans-68" x="993.892578"/>
     <use xlink:href="#DejaVuSans-65" x="1057.271484"/>
     <use xlink:href="#DejaVuSans-20" x="1118.794922"/>
     <use xlink:href="#DejaVuSans-72" x="1150.582031"/>
     <use xlink:href="#DejaVuSans-61" x="1191.695312"/>
     <use xlink:href="#DejaVuSans-6e" x="1252.974609"/>
     <use xlink:href="#DejaVuSans-67" x="1316.353516"/>
     <use xlink:href="#DejaVuSans-65" x="1379.830078"/>
     <use xlink:href="#DejaVuSans-20" x="1441.353516"/>
     <use xlink:href="#DejaVuSans-66" x="1473.140625"/>
     <use xlink:href="#DejaVuSans-72" x="1508.345703"/>
     <use xlink:href="#DejaVuSans-6f" x="1547.208984"/>
     <use xlink:href="#DejaVuSans-6d" x="1608.390625"/>
     <use xlink:href="#DejaVuSans-20" x="1705.802734"/>
     <use xlink:href="#DejaVuSans-65" x="1737.589844"/>
     <use xlink:href="#DejaVuSans-78" x="1797.363281"/>
     <use xlink:href="#DejaVuSans-74" x="1856.542969"/>
     <use xlink:href="#DejaVuSans-72" x="1895.751953"/>
     <use xlink:href="#DejaVuSans-65" x="1934.615234"/>
     <use xlink:href="#DejaVuSans-6d" x="1996.138672"/>
     <use xlink:href="#DejaVuSans-65" x="2093.550781"/>
     <use xlink:href="#DejaVuSans-20" x="2155.074219"/>
     <use xlink:href="#DejaVuSans-6d" x="2186.861328"/>
     <use xlink:href="#DejaVuSans-6f" x="2284.273438"/>
     <use xlink:href="#DejaVuSans-64" x="2345.455078"/>
     <use xlink:href="#DejaVuSans-65" x="2408.931641"/>
     <use xlink:href="#DejaVuSans-6c" x="2470.455078"/>
     <use xlink:href="#DejaVuSans-73" x="2498.238281"/>
     <use xlink:href="#DejaVuSans-20" x="2550.337891"/>
     <use xlink:href="#DejaVuSans-77" x="2582.125"/>
     <use xlink:href="#DejaVuSans-69" x="2663.912109"/>
     <use xlink:href="#DejaVuSans-74" x="2691.695312"/>
     <use xlink:href="#DejaVuSans-68" x="2730.904297"/>
     <use xlink:href="#DejaVuSans-69" x="2794.283203"/>
     <use xlink:href="#DejaVuSans-6e" x="2822.066406"/>
     <use xlink:href="#DejaVuSans-20" x="2885.445312"/>
     <use xlink:href="#DejaVuSans-31" x="2917.232422"/>
     <use xlink:href="#DejaVuSans-20" x="2980.855469"/>
     <use xlink:href="#DejaVuSans-73" x="3012.642578"/>
     <use xlink:href="#DejaVuSans-69" x="3064.742188"/>
     <use xlink:href="#DejaVuSans-67" x="3092.525391"/>
     <use xlink:href="#DejaVuSans-6d" x="3156.001953"/>
     <use xlink:href="#DejaVuSans-61" x="3253.414062"/>
    </g>
   </g>
   <g id="legend_1">
    <g id="patch_7">
     <path d="M 182.79125 302.584 
L 289.52875 302.584 
Q 291.52875 302.584 291.52875 300.584 
L 291.52875 257.549625 
Q 291.52875 255.549625 289.52875 255.549625 
L 182.79125 255.549625 
Q 180.79125 255.549625 180.79125 257.549625 
L 180.79125 300.584 
Q 180.79125 302.584 182.79125 302.584 
z
" style="fill: #ffffff; opacity: 0.8; stroke: #cccccc; stroke-linejoin: miter"/>
    </g>
    <g id="patch_8">
     <path d="M 184.79125 267.148062 
L 204.79125 267.148062 
L 204.79125 260.148062 
L 184.79125 260.148062 
z
" style="fill: #1f77b4; fill-opacity: 0.5"/>
    </g>
    <g id="text_18">
     <!-- Within 1 sigma -->
     <g transform="translate(212.79125 267.148062)scale(0.1 -0.1)">
      <defs>
       <path id="DejaVuSans-57" d="M 213 4666 
L 850 4666 
L 1831 722 
L 2809 4666 
L 3519 4666 
L 4500 722 
L 5478 4666 
L 6119 4666 
L 4947 0 
L 4153 0 
L 3169 4050 
L 2175 0 
L 1381 0 
L 213 4666 
z
" transform="scale(0.015625)"/>
      </defs>
      <use xlink:href="#DejaVuSans-57"/>
      <use xlink:href="#DejaVuSans-69" x="96.626953"/>
      <use xlink:href="#DejaVuSans-74" x="124.410156"/>
      <use xlink:href="#DejaVuSans-68" x="163.619141"/>
      <use xlink:href="#DejaVuSans-69" x="226.998047"/>
      <use xlink:href="#DejaVuSans-6e" x="254.78125"/>
      <use xlink:href="#DejaVuSans-20" x="318.160156"/>
      <use xlink:href="#DejaVuSans-31" x="349.947266"/>
      <use xlink:href="#DejaVuSans-20" x="413.570312"/>
      <use xlink:href="#DejaVuSans-73" x="445.357422"/>
      <use xlink:href="#DejaVuSans-69" x="497.457031"/>
      <use xlink:href="#DejaVuSans-67" x="525.240234"/>
      <use xlink:href="#DejaVuSans-6d" x="588.716797"/>
      <use xlink:href="#DejaVuSans-61" x="686.128906"/>
     </g>
    </g>
    <g id="line2d_17">
     <path d="M 184.79125 278.326188 
L 194.79125 278.326188 
L 204.79125 278.326188 
" style="fill: none; stroke: #008000; stroke-width: 2; stroke-linecap: square"/>
    </g>
    <g id="text_19">
     <!-- Best model -->
     <g transform="translate(212.79125 281.826188)scale(0.1 -0.1)">
      <defs>
       <path id="DejaVuSans-42" d="M 1259 2228 
L 1259 519 
L 2272 519 
Q 2781 519 3026 730 
Q 3272 941 3272 1375 
Q 3272 1813 3026 2020 
Q 2781 2228 2272 2228 
L 1259 2228 
z
M 1259 4147 
L 1259 2741 
L 2194 2741 
Q 2656 2741 2882 2914 
Q 3109 3088 3109 3444 
Q 3109 3797 2882 3972 
Q 2656 4147 2194 4147 
L 1259 4147 
z
M 628 4666 
L 2241 4666 
Q 2963 4666 3353 4366 
Q 3744 4066 3744 3513 
Q 3744 3084 3544 2831 
Q 3344 2578 2956 2516 
Q 3422 2416 3680 2098 
Q 3938 1781 3938 1306 
Q 3938 681 3513 340 
Q 3088 0 2303 0 
L 628 0 
L 628 4666 
z
" transform="scale(0.015625)"/>
      </defs>
      <use xlink:href="#DejaVuSans-42"/>
      <use xlink:href="#DejaVuSans-65" x="68.603516"/>
      <use xlink:href="#DejaVuSans-73" x="130.126953"/>
      <use xlink:href="#DejaVuSans-74" x="182.226562"/>
      <use xlink:href="#DejaVuSans-20" x="221.435547"/>
      <use xlink:href="#DejaVuSans-6d" x="253.222656"/>
      <use xlink:href="#DejaVuSans-6f" x="350.634766"/>
      <use xlink:href="#DejaVuSans-64" x="411.816406"/>
      <use xlink:href="#DejaVuSans-65" x="475.292969"/>
      <use xlink:href="#DejaVuSans-6c" x="536.816406"/>
     </g>
    </g>
    <g id="LineCollection_2">
     <path d="M 194.79125 298.004312 
L 194.79125 288.004312 
" style="fill: none; stroke: #000000; stroke-width: 1.5"/>
    </g>
    <g id="line2d_18"/>
    <g id="line2d_19">
     <g>
      <use xlink:href="#mf88a77ff93" x="194.79125" y="293.004312" style="fill: #0000ff; stroke: #0000ff"/>
     </g>
    </g>
    <g id="text_20">
     <!-- Real data -->
     <g transform="translate(212.79125 296.504312)scale(0.1 -0.1)">
      <defs>
       <path id="DejaVuSans-52" d="M 2841 2188 
Q 3044 2119 3236 1894 
Q 3428 1669 3622 1275 
L 4263 0 
L 3584 0 
L 2988 1197 
Q 2756 1666 2539 1819 
Q 2322 1972 1947 1972 
L 1259 1972 
L 1259 0 
L 628 0 
L 628 4666 
L 2053 4666 
Q 2853 4666 3247 4331 
Q 3641 3997 3641 3322 
Q 3641 2881 3436 2590 
Q 3231 2300 2841 2188 
z
M 1259 4147 
L 1259 2491 
L 2053 2491 
Q 2509 2491 2742 2702 
Q 2975 2913 2975 3322 
Q 2975 3731 2742 3939 
Q 2509 4147 2053 4147 
L 1259 4147 
z
" transform="scale(0.015625)"/>
      </defs>
      <use xlink:href="#DejaVuSans-52"/>
      <use xlink:href="#DejaVuSans-65" x="64.982422"/>
      <use xlink:href="#DejaVuSans-61" x="126.505859"/>
      <use xlink:href="#DejaVuSans-6c" x="187.785156"/>
      <use xlink:href="#DejaVuSans-20" x="215.568359"/>
      <use xlink:href="#DejaVuSans-64" x="247.355469"/>
      <use xlink:href="#DejaVuSans-61" x="310.832031"/>
      <use xlink:href="#DejaVuSans-74" x="372.111328"/>
      <use xlink:href="#DejaVuSans-61" x="411.320312"/>
     </g>
    </g>
   </g>
  </g>
 </g>
 <defs>
  <clipPath id="p6b807e41df">
   <rect x="57.6" y="41.472" width="357.12" height="266.112"/>
  </clipPath>
 </defs>
</svg>
