<?xml version="1.0" encoding="utf-8" standalone="no"?>
<!DOCTYPE svg PUBLIC "-//W3C//DTD SVG 1.1//EN"
  "http://www.w3.org/Graphics/SVG/1.1/DTD/svg11.dtd">
<svg xmlns:xlink="http://www.w3.org/1999/xlink" width="460.8pt" height="345.6pt" viewBox="0 0 460.8 345.6" xmlns="http://www.w3.org/2000/svg" version="1.1">
 <metadata>
  <rdf:RDF xmlns:dc="http://purl.org/dc/elements/1.1/" xmlns:cc="http://creativecommons.org/ns#" xmlns:rdf="http://www.w3.org/1999/02/22-rdf-syntax-ns#">
   <cc:Work>
    <dc:type rdf:resource="http://purl.org/dc/dcmitype/StillImage"/>
    <dc:date>2022-07-23T14:10:20.455139</dc:date>
    <dc:format>image/svg+xml</dc:format>
    <dc:creator>
     <cc:Agent>
      <dc:title>Matplotlib v3.5.0, https://matplotlib.org/</dc:title>
     </cc:Agent>
    </dc:creator>
   </cc:Work>
  </rdf:RDF>
 </metadata>
 <defs>
  <style type="text/css">*{stroke-linejoin: round; stroke-linecap: butt}</style>
 </defs>
 <g id="figure_1">
  <g id="patch_1">
   <path d="M 0 345.6 
L 460.8 345.6 
L 460.8 0 
L 0 0 
z
" style="fill: #ffffff"/>
  </g>
  <g id="axes_1">
   <g id="patch_2">
    <path d="M 57.6 307.584 
L 414.72 307.584 
L 414.72 41.472 
L 57.6 41.472 
z
" style="fill: #ffffff"/>
   </g>
   <g id="matplotlib.axis_1">
    <g id="xtick_1">
     <g id="line2d_1">
      <defs>
       <path id="m0f1fe5a58d" d="M 0 0 
L 0 3.5 
" style="stroke: #000000; stroke-width: 0.8"/>
      </defs>
      <g>
       <use xlink:href="#m0f1fe5a58d" x="57.6" y="307.584" style="stroke: #000000; stroke-width: 0.8"/>
      </g>
     </g>
     <g id="text_1">
      <!-- 500 -->
      <g transform="translate(48.05625 322.182437)scale(0.1 -0.1)">
       <defs>
        <path id="DejaVuSans-35" d="M 691 4666 
L 3169 4666 
L 3169 4134 
L 1269 4134 
L 1269 2991 
Q 1406 3038 1543 3061 
Q 1681 3084 1819 3084 
Q 2600 3084 3056 2656 
Q 3513 2228 3513 1497 
Q 3513 744 3044 326 
Q 2575 -91 1722 -91 
Q 1428 -91 1123 -41 
Q 819 9 494 109 
L 494 744 
Q 775 591 1075 516 
Q 1375 441 1709 441 
Q 2250 441 2565 725 
Q 2881 1009 2881 1497 
Q 2881 1984 2565 2268 
Q 2250 2553 1709 2553 
Q 1456 2553 1204 2497 
Q 953 2441 691 2322 
L 691 4666 
z
" transform="scale(0.015625)"/>
        <path id="DejaVuSans-30" d="M 2034 4250 
Q 1547 4250 1301 3770 
Q 1056 3291 1056 2328 
Q 1056 1369 1301 889 
Q 1547 409 2034 409 
Q 2525 409 2770 889 
Q 3016 1369 3016 2328 
Q 3016 3291 2770 3770 
Q 2525 4250 2034 4250 
z
M 2034 4750 
Q 2819 4750 3233 4129 
Q 3647 3509 3647 2328 
Q 3647 1150 3233 529 
Q 2819 -91 2034 -91 
Q 1250 -91 836 529 
Q 422 1150 422 2328 
Q 422 3509 836 4129 
Q 1250 4750 2034 4750 
z
" transform="scale(0.015625)"/>
       </defs>
       <use xlink:href="#DejaVuSans-35"/>
       <use xlink:href="#DejaVuSans-30" x="63.623047"/>
       <use xlink:href="#DejaVuSans-30" x="127.246094"/>
      </g>
     </g>
    </g>
    <g id="xtick_2">
     <g id="line2d_2">
      <g>
       <use xlink:href="#m0f1fe5a58d" x="108.040678" y="307.584" style="stroke: #000000; stroke-width: 0.8"/>
      </g>
     </g>
     <g id="text_2">
      <!-- 1000 -->
      <g transform="translate(95.315678 322.182437)scale(0.1 -0.1)">
       <defs>
        <path id="DejaVuSans-31" d="M 794 531 
L 1825 531 
L 1825 4091 
L 703 3866 
L 703 4441 
L 1819 4666 
L 2450 4666 
L 2450 531 
L 3481 531 
L 3481 0 
L 794 0 
L 794 531 
z
" transform="scale(0.015625)"/>
       </defs>
       <use xlink:href="#DejaVuSans-31"/>
       <use xlink:href="#DejaVuSans-30" x="63.623047"/>
       <use xlink:href="#DejaVuSans-30" x="127.246094"/>
       <use xlink:href="#DejaVuSans-30" x="190.869141"/>
      </g>
     </g>
    </g>
    <g id="xtick_3">
     <g id="line2d_3">
      <g>
       <use xlink:href="#m0f1fe5a58d" x="158.481356" y="307.584" style="stroke: #000000; stroke-width: 0.8"/>
      </g>
     </g>
     <g id="text_3">
      <!-- 1500 -->
      <g transform="translate(145.756356 322.182437)scale(0.1 -0.1)">
       <use xlink:href="#DejaVuSans-31"/>
       <use xlink:href="#DejaVuSans-35" x="63.623047"/>
       <use xlink:href="#DejaVuSans-30" x="127.246094"/>
       <use xlink:href="#DejaVuSans-30" x="190.869141"/>
      </g>
     </g>
    </g>
    <g id="xtick_4">
     <g id="line2d_4">
      <g>
       <use xlink:href="#m0f1fe5a58d" x="208.922034" y="307.584" style="stroke: #000000; stroke-width: 0.8"/>
      </g>
     </g>
     <g id="text_4">
      <!-- 2000 -->
      <g transform="translate(196.197034 322.182437)scale(0.1 -0.1)">
       <defs>
        <path id="DejaVuSans-32" d="M 1228 531 
L 3431 531 
L 3431 0 
L 469 0 
L 469 531 
Q 828 903 1448 1529 
Q 2069 2156 2228 2338 
Q 2531 2678 2651 2914 
Q 2772 3150 2772 3378 
Q 2772 3750 2511 3984 
Q 2250 4219 1831 4219 
Q 1534 4219 1204 4116 
Q 875 4013 500 3803 
L 500 4441 
Q 881 4594 1212 4672 
Q 1544 4750 1819 4750 
Q 2544 4750 2975 4387 
Q 3406 4025 3406 3419 
Q 3406 3131 3298 2873 
Q 3191 2616 2906 2266 
Q 2828 2175 2409 1742 
Q 1991 1309 1228 531 
z
" transform="scale(0.015625)"/>
       </defs>
       <use xlink:href="#DejaVuSans-32"/>
       <use xlink:href="#DejaVuSans-30" x="63.623047"/>
       <use xlink:href="#DejaVuSans-30" x="127.246094"/>
       <use xlink:href="#DejaVuSans-30" x="190.869141"/>
      </g>
     </g>
    </g>
    <g id="xtick_5">
     <g id="line2d_5">
      <g>
       <use xlink:href="#m0f1fe5a58d" x="259.362712" y="307.584" style="stroke: #000000; stroke-width: 0.8"/>
      </g>
     </g>
     <g id="text_5">
      <!-- 2500 -->
      <g transform="translate(246.637712 322.182437)scale(0.1 -0.1)">
       <use xlink:href="#DejaVuSans-32"/>
       <use xlink:href="#DejaVuSans-35" x="63.623047"/>
       <use xlink:href="#DejaVuSans-30" x="127.246094"/>
       <use xlink:href="#DejaVuSans-30" x="190.869141"/>
      </g>
     </g>
    </g>
    <g id="xtick_6">
     <g id="line2d_6">
      <g>
       <use xlink:href="#m0f1fe5a58d" x="309.80339" y="307.584" style="stroke: #000000; stroke-width: 0.8"/>
      </g>
     </g>
     <g id="text_6">
      <!-- 3000 -->
      <g transform="translate(297.07839 322.182437)scale(0.1 -0.1)">
       <defs>
        <path id="DejaVuSans-33" d="M 2597 2516 
Q 3050 2419 3304 2112 
Q 3559 1806 3559 1356 
Q 3559 666 3084 287 
Q 2609 -91 1734 -91 
Q 1441 -91 1130 -33 
Q 819 25 488 141 
L 488 750 
Q 750 597 1062 519 
Q 1375 441 1716 441 
Q 2309 441 2620 675 
Q 2931 909 2931 1356 
Q 2931 1769 2642 2001 
Q 2353 2234 1838 2234 
L 1294 2234 
L 1294 2753 
L 1863 2753 
Q 2328 2753 2575 2939 
Q 2822 3125 2822 3475 
Q 2822 3834 2567 4026 
Q 2313 4219 1838 4219 
Q 1578 4219 1281 4162 
Q 984 4106 628 3988 
L 628 4550 
Q 988 4650 1302 4700 
Q 1616 4750 1894 4750 
Q 2613 4750 3031 4423 
Q 3450 4097 3450 3541 
Q 3450 3153 3228 2886 
Q 3006 2619 2597 2516 
z
" transform="scale(0.015625)"/>
       </defs>
       <use xlink:href="#DejaVuSans-33"/>
       <use xlink:href="#DejaVuSans-30" x="63.623047"/>
       <use xlink:href="#DejaVuSans-30" x="127.246094"/>
       <use xlink:href="#DejaVuSans-30" x="190.869141"/>
      </g>
     </g>
    </g>
    <g id="xtick_7">
     <g id="line2d_7">
      <g>
       <use xlink:href="#m0f1fe5a58d" x="360.244068" y="307.584" style="stroke: #000000; stroke-width: 0.8"/>
      </g>
     </g>
     <g id="text_7">
      <!-- 3500 -->
      <g transform="translate(347.519068 322.182437)scale(0.1 -0.1)">
       <use xlink:href="#DejaVuSans-33"/>
       <use xlink:href="#DejaVuSans-35" x="63.623047"/>
       <use xlink:href="#DejaVuSans-30" x="127.246094"/>
       <use xlink:href="#DejaVuSans-30" x="190.869141"/>
      </g>
     </g>
    </g>
    <g id="xtick_8">
     <g id="line2d_8">
      <g>
       <use xlink:href="#m0f1fe5a58d" x="410.684746" y="307.584" style="stroke: #000000; stroke-width: 0.8"/>
      </g>
     </g>
     <g id="text_8">
      <!-- 4000 -->
      <g transform="translate(397.959746 322.182437)scale(0.1 -0.1)">
       <defs>
        <path id="DejaVuSans-34" d="M 2419 4116 
L 825 1625 
L 2419 1625 
L 2419 4116 
z
M 2253 4666 
L 3047 4666 
L 3047 1625 
L 3713 1625 
L 3713 1100 
L 3047 1100 
L 3047 0 
L 2419 0 
L 2419 1100 
L 313 1100 
L 313 1709 
L 2253 4666 
z
" transform="scale(0.015625)"/>
       </defs>
       <use xlink:href="#DejaVuSans-34"/>
       <use xlink:href="#DejaVuSans-30" x="63.623047"/>
       <use xlink:href="#DejaVuSans-30" x="127.246094"/>
       <use xlink:href="#DejaVuSans-30" x="190.869141"/>
      </g>
     </g>
    </g>
    <g id="text_9">
     <!-- step -->
     <g transform="translate(225.344375 335.860562)scale(0.1 -0.1)">
      <defs>
       <path id="DejaVuSans-73" d="M 2834 3397 
L 2834 2853 
Q 2591 2978 2328 3040 
Q 2066 3103 1784 3103 
Q 1356 3103 1142 2972 
Q 928 2841 928 2578 
Q 928 2378 1081 2264 
Q 1234 2150 1697 2047 
L 1894 2003 
Q 2506 1872 2764 1633 
Q 3022 1394 3022 966 
Q 3022 478 2636 193 
Q 2250 -91 1575 -91 
Q 1294 -91 989 -36 
Q 684 19 347 128 
L 347 722 
Q 666 556 975 473 
Q 1284 391 1588 391 
Q 1994 391 2212 530 
Q 2431 669 2431 922 
Q 2431 1156 2273 1281 
Q 2116 1406 1581 1522 
L 1381 1569 
Q 847 1681 609 1914 
Q 372 2147 372 2553 
Q 372 3047 722 3315 
Q 1072 3584 1716 3584 
Q 2034 3584 2315 3537 
Q 2597 3491 2834 3397 
z
" transform="scale(0.015625)"/>
       <path id="DejaVuSans-74" d="M 1172 4494 
L 1172 3500 
L 2356 3500 
L 2356 3053 
L 1172 3053 
L 1172 1153 
Q 1172 725 1289 603 
Q 1406 481 1766 481 
L 2356 481 
L 2356 0 
L 1766 0 
Q 1100 0 847 248 
Q 594 497 594 1153 
L 594 3053 
L 172 3053 
L 172 3500 
L 594 3500 
L 594 4494 
L 1172 4494 
z
" transform="scale(0.015625)"/>
       <path id="DejaVuSans-65" d="M 3597 1894 
L 3597 1613 
L 953 1613 
Q 991 1019 1311 708 
Q 1631 397 2203 397 
Q 2534 397 2845 478 
Q 3156 559 3463 722 
L 3463 178 
Q 3153 47 2828 -22 
Q 2503 -91 2169 -91 
Q 1331 -91 842 396 
Q 353 884 353 1716 
Q 353 2575 817 3079 
Q 1281 3584 2069 3584 
Q 2775 3584 3186 3129 
Q 3597 2675 3597 1894 
z
M 3022 2063 
Q 3016 2534 2758 2815 
Q 2500 3097 2075 3097 
Q 1594 3097 1305 2825 
Q 1016 2553 972 2059 
L 3022 2063 
z
" transform="scale(0.015625)"/>
       <path id="DejaVuSans-70" d="M 1159 525 
L 1159 -1331 
L 581 -1331 
L 581 3500 
L 1159 3500 
L 1159 2969 
Q 1341 3281 1617 3432 
Q 1894 3584 2278 3584 
Q 2916 3584 3314 3078 
Q 3713 2572 3713 1747 
Q 3713 922 3314 415 
Q 2916 -91 2278 -91 
Q 1894 -91 1617 61 
Q 1341 213 1159 525 
z
M 3116 1747 
Q 3116 2381 2855 2742 
Q 2594 3103 2138 3103 
Q 1681 3103 1420 2742 
Q 1159 2381 1159 1747 
Q 1159 1113 1420 752 
Q 1681 391 2138 391 
Q 2594 391 2855 752 
Q 3116 1113 3116 1747 
z
" transform="scale(0.015625)"/>
      </defs>
      <use xlink:href="#DejaVuSans-73"/>
      <use xlink:href="#DejaVuSans-74" x="52.099609"/>
      <use xlink:href="#DejaVuSans-65" x="91.308594"/>
      <use xlink:href="#DejaVuSans-70" x="152.832031"/>
     </g>
    </g>
   </g>
   <g id="matplotlib.axis_2">
    <g id="ytick_1">
     <g id="line2d_9">
      <defs>
       <path id="m13e9184167" d="M 0 0 
L -3.5 0 
" style="stroke: #000000; stroke-width: 0.8"/>
      </defs>
      <g>
       <use xlink:href="#m13e9184167" x="57.6" y="300.30577" style="stroke: #000000; stroke-width: 0.8"/>
      </g>
     </g>
     <g id="text_10">
      <!-- 0 -->
      <g transform="translate(44.2375 304.104989)scale(0.1 -0.1)">
       <use xlink:href="#DejaVuSans-30"/>
      </g>
     </g>
    </g>
    <g id="ytick_2">
     <g id="line2d_10">
      <g>
       <use xlink:href="#m13e9184167" x="57.6" y="268.642168" style="stroke: #000000; stroke-width: 0.8"/>
      </g>
     </g>
     <g id="text_11">
      <!-- 200 -->
      <g transform="translate(31.5125 272.441386)scale(0.1 -0.1)">
       <use xlink:href="#DejaVuSans-32"/>
       <use xlink:href="#DejaVuSans-30" x="63.623047"/>
       <use xlink:href="#DejaVuSans-30" x="127.246094"/>
      </g>
     </g>
    </g>
    <g id="ytick_3">
     <g id="line2d_11">
      <g>
       <use xlink:href="#m13e9184167" x="57.6" y="236.978566" style="stroke: #000000; stroke-width: 0.8"/>
      </g>
     </g>
     <g id="text_12">
      <!-- 400 -->
      <g transform="translate(31.5125 240.777784)scale(0.1 -0.1)">
       <use xlink:href="#DejaVuSans-34"/>
       <use xlink:href="#DejaVuSans-30" x="63.623047"/>
       <use xlink:href="#DejaVuSans-30" x="127.246094"/>
      </g>
     </g>
    </g>
    <g id="ytick_4">
     <g id="line2d_12">
      <g>
       <use xlink:href="#m13e9184167" x="57.6" y="205.314963" style="stroke: #000000; stroke-width: 0.8"/>
      </g>
     </g>
     <g id="text_13">
      <!-- 600 -->
      <g transform="translate(31.5125 209.114182)scale(0.1 -0.1)">
       <defs>
        <path id="DejaVuSans-36" d="M 2113 2584 
Q 1688 2584 1439 2293 
Q 1191 2003 1191 1497 
Q 1191 994 1439 701 
Q 1688 409 2113 409 
Q 2538 409 2786 701 
Q 3034 994 3034 1497 
Q 3034 2003 2786 2293 
Q 2538 2584 2113 2584 
z
M 3366 4563 
L 3366 3988 
Q 3128 4100 2886 4159 
Q 2644 4219 2406 4219 
Q 1781 4219 1451 3797 
Q 1122 3375 1075 2522 
Q 1259 2794 1537 2939 
Q 1816 3084 2150 3084 
Q 2853 3084 3261 2657 
Q 3669 2231 3669 1497 
Q 3669 778 3244 343 
Q 2819 -91 2113 -91 
Q 1303 -91 875 529 
Q 447 1150 447 2328 
Q 447 3434 972 4092 
Q 1497 4750 2381 4750 
Q 2619 4750 2861 4703 
Q 3103 4656 3366 4563 
z
" transform="scale(0.015625)"/>
       </defs>
       <use xlink:href="#DejaVuSans-36"/>
       <use xlink:href="#DejaVuSans-30" x="63.623047"/>
       <use xlink:href="#DejaVuSans-30" x="127.246094"/>
      </g>
     </g>
    </g>
    <g id="ytick_5">
     <g id="line2d_13">
      <g>
       <use xlink:href="#m13e9184167" x="57.6" y="173.651361" style="stroke: #000000; stroke-width: 0.8"/>
      </g>
     </g>
     <g id="text_14">
      <!-- 800 -->
      <g transform="translate(31.5125 177.45058)scale(0.1 -0.1)">
       <defs>
        <path id="DejaVuSans-38" d="M 2034 2216 
Q 1584 2216 1326 1975 
Q 1069 1734 1069 1313 
Q 1069 891 1326 650 
Q 1584 409 2034 409 
Q 2484 409 2743 651 
Q 3003 894 3003 1313 
Q 3003 1734 2745 1975 
Q 2488 2216 2034 2216 
z
M 1403 2484 
Q 997 2584 770 2862 
Q 544 3141 544 3541 
Q 544 4100 942 4425 
Q 1341 4750 2034 4750 
Q 2731 4750 3128 4425 
Q 3525 4100 3525 3541 
Q 3525 3141 3298 2862 
Q 3072 2584 2669 2484 
Q 3125 2378 3379 2068 
Q 3634 1759 3634 1313 
Q 3634 634 3220 271 
Q 2806 -91 2034 -91 
Q 1263 -91 848 271 
Q 434 634 434 1313 
Q 434 1759 690 2068 
Q 947 2378 1403 2484 
z
M 1172 3481 
Q 1172 3119 1398 2916 
Q 1625 2713 2034 2713 
Q 2441 2713 2670 2916 
Q 2900 3119 2900 3481 
Q 2900 3844 2670 4047 
Q 2441 4250 2034 4250 
Q 1625 4250 1398 4047 
Q 1172 3844 1172 3481 
z
" transform="scale(0.015625)"/>
       </defs>
       <use xlink:href="#DejaVuSans-38"/>
       <use xlink:href="#DejaVuSans-30" x="63.623047"/>
       <use xlink:href="#DejaVuSans-30" x="127.246094"/>
      </g>
     </g>
    </g>
    <g id="ytick_6">
     <g id="line2d_14">
      <g>
       <use xlink:href="#m13e9184167" x="57.6" y="141.987759" style="stroke: #000000; stroke-width: 0.8"/>
      </g>
     </g>
     <g id="text_15">
      <!-- 1000 -->
      <g transform="translate(25.15 145.786978)scale(0.1 -0.1)">
       <use xlink:href="#DejaVuSans-31"/>
       <use xlink:href="#DejaVuSans-30" x="63.623047"/>
       <use xlink:href="#DejaVuSans-30" x="127.246094"/>
       <use xlink:href="#DejaVuSans-30" x="190.869141"/>
      </g>
     </g>
    </g>
    <g id="ytick_7">
     <g id="line2d_15">
      <g>
       <use xlink:href="#m13e9184167" x="57.6" y="110.324157" style="stroke: #000000; stroke-width: 0.8"/>
      </g>
     </g>
     <g id="text_16">
      <!-- 1200 -->
      <g transform="translate(25.15 114.123375)scale(0.1 -0.1)">
       <use xlink:href="#DejaVuSans-31"/>
       <use xlink:href="#DejaVuSans-32" x="63.623047"/>
       <use xlink:href="#DejaVuSans-30" x="127.246094"/>
       <use xlink:href="#DejaVuSans-30" x="190.869141"/>
      </g>
     </g>
    </g>
    <g id="ytick_8">
     <g id="line2d_16">
      <g>
       <use xlink:href="#m13e9184167" x="57.6" y="78.660554" style="stroke: #000000; stroke-width: 0.8"/>
      </g>
     </g>
     <g id="text_17">
      <!-- 1400 -->
      <g transform="translate(25.15 82.459773)scale(0.1 -0.1)">
       <use xlink:href="#DejaVuSans-31"/>
       <use xlink:href="#DejaVuSans-34" x="63.623047"/>
       <use xlink:href="#DejaVuSans-30" x="127.246094"/>
       <use xlink:href="#DejaVuSans-30" x="190.869141"/>
      </g>
     </g>
    </g>
    <g id="ytick_9">
     <g id="line2d_17">
      <g>
       <use xlink:href="#m13e9184167" x="57.6" y="46.996952" style="stroke: #000000; stroke-width: 0.8"/>
      </g>
     </g>
     <g id="text_18">
      <!-- 1600 -->
      <g transform="translate(25.15 50.796171)scale(0.1 -0.1)">
       <use xlink:href="#DejaVuSans-31"/>
       <use xlink:href="#DejaVuSans-36" x="63.623047"/>
       <use xlink:href="#DejaVuSans-30" x="127.246094"/>
       <use xlink:href="#DejaVuSans-30" x="190.869141"/>
      </g>
     </g>
    </g>
    <g id="text_19">
     <!-- $\chi^2$ -->
     <g transform="translate(19.05 180.078)rotate(-90)scale(0.1 -0.1)">
      <defs>
       <path id="DejaVuSans-Oblique-3c7" d="M 1922 -781 
L 1691 416 
L 394 -1334 
L -284 -1334 
L 1553 1141 
L 1269 2613 
Q 1194 3006 713 3006 
L 559 3006 
L 653 3500 
L 872 3494 
Q 1675 3472 1775 2950 
L 2006 1753 
L 3303 3503 
L 3981 3503 
L 2144 1028 
L 2428 -444 
Q 2503 -838 2984 -838 
L 3138 -838 
L 3044 -1331 
L 2825 -1325 
Q 2022 -1303 1922 -781 
z
" transform="scale(0.015625)"/>
      </defs>
      <use xlink:href="#DejaVuSans-Oblique-3c7" transform="translate(0 0.765625)"/>
      <use xlink:href="#DejaVuSans-32" transform="translate(63.652396 39.046875)scale(0.7)"/>
     </g>
    </g>
   </g>
   <g id="line2d_18">
    <path d="M 57.6 53.568 
L 57.902644 55.778465 
L 58.507932 55.912811 
L 58.709695 57.147962 
L 59.11322 57.508738 
L 59.214102 57.740427 
L 59.415864 59.270724 
L 59.617627 59.432596 
L 59.81939 59.525859 
L 60.222915 63.72378 
L 61.635254 63.890106 
L 62.240542 63.959433 
L 62.341424 64.139775 
L 62.543186 68.360364 
L 63.451119 68.534174 
L 64.056407 68.688397 
L 64.258169 68.79333 
L 64.661695 68.795801 
L 64.863458 69.194664 
L 65.266983 69.273695 
L 65.872271 69.334853 
L 66.074034 69.571577 
L 66.477559 69.631248 
L 66.679322 69.734424 
L 66.780203 69.750042 
L 66.981966 70.13467 
L 67.385492 70.197862 
L 67.789017 70.644058 
L 68.091661 75.355242 
L 68.293424 75.581081 
L 68.394305 75.604817 
L 68.495186 75.751479 
L 68.696949 76.439195 
L 68.999593 76.489575 
L 69.201356 77.765999 
L 69.403119 78.558404 
L 69.907525 78.653549 
L 70.210169 78.684347 
L 70.411932 79.290985 
L 70.815458 79.339431 
L 71.118102 79.386862 
L 71.319864 79.554079 
L 71.622508 79.69986 
L 71.925153 79.966789 
L 72.833085 80.641011 
L 73.135729 80.72699 
L 73.337492 80.827793 
L 73.539254 81.774006 
L 74.043661 81.865056 
L 74.548068 85.776803 
L 74.749831 85.837187 
L 75.153356 87.677417 
L 75.355119 88.010669 
L 75.456 88.030043 
L 75.657763 89.358981 
L 75.758644 89.53977 
L 75.859525 90.389633 
L 76.061288 93.369935 
L 76.162169 93.38623 
L 76.363932 94.927883 
L 76.767458 94.996667 
L 77.473627 98.299866 
L 77.67539 98.417486 
L 78.280678 98.546973 
L 78.482441 99.137209 
L 78.986847 99.200947 
L 79.390373 99.293473 
L 79.995661 99.333547 
L 80.298305 99.342558 
L 80.500068 99.709834 
L 80.802712 99.754349 
L 81.004475 100.517761 
L 81.105356 100.554063 
L 81.206237 100.828996 
L 81.710644 105.28583 
L 81.811525 105.296847 
L 81.912407 106.808291 
L 82.013288 106.798225 
L 82.215051 106.822261 
L 82.618576 108.78621 
L 82.719458 108.794766 
L 82.92122 109.287668 
L 83.022102 109.27772 
L 83.62739 109.859281 
L 83.930034 109.927564 
L 84.030915 109.990007 
L 84.333559 110.474374 
L 84.434441 110.474195 
L 84.636203 110.886025 
L 84.737085 110.889461 
L 85.84678 114.856051 
L 86.149424 115.658137 
L 86.351186 116.400037 
L 86.552949 119.459771 
L 86.956475 119.499711 
L 87.158237 119.927606 
L 87.460881 119.999727 
L 87.763525 120.053238 
L 87.864407 120.060547 
L 88.066169 120.405405 
L 88.267932 122.052326 
L 88.368814 122.062767 
L 88.570576 123.446119 
L 88.671458 123.455034 
L 88.87322 124.527301 
L 89.175864 125.029401 
L 89.57939 125.081256 
L 89.781153 125.348704 
L 90.184678 125.479831 
L 90.285559 125.56769 
L 90.386441 125.946548 
L 90.789966 129.199447 
L 90.890847 129.237933 
L 91.09261 130.547737 
L 91.294373 130.800352 
L 91.496136 130.808273 
L 91.697898 132.499134 
L 92.000542 134.594652 
L 92.202305 137.217011 
L 92.303186 137.205379 
L 92.504949 137.706905 
L 92.605831 137.904373 
L 92.908475 139.133838 
L 93.110237 139.168684 
L 93.513763 139.654299 
L 93.715525 139.800592 
L 94.119051 142.412883 
L 94.219932 142.392535 
L 94.421695 143.935453 
L 94.623458 143.949911 
L 94.82522 144.677885 
L 95.026983 144.722304 
L 95.228746 145.015587 
L 96.035797 145.218413 
L 96.237559 145.270361 
L 96.641085 145.368505 
L 96.943729 145.407081 
L 97.145492 145.706292 
L 97.549017 145.779844 
L 97.851661 147.623398 
L 97.952542 147.691376 
L 98.154305 148.958643 
L 98.255186 148.957287 
L 98.456949 149.510119 
L 98.557831 149.603535 
L 98.961356 150.423711 
L 99.566644 150.529013 
L 99.768407 150.815291 
L 100.171932 150.930139 
L 100.373695 151.482561 
L 100.474576 151.489475 
L 100.676339 154.202642 
L 100.978983 157.500356 
L 101.180746 160.893287 
L 101.48339 162.177796 
L 101.685153 162.348516 
L 101.786034 162.341115 
L 101.886915 162.544217 
L 102.088678 163.511528 
L 102.290441 163.713978 
L 102.492203 163.715507 
L 102.593085 163.874916 
L 102.794847 164.580231 
L 103.097492 164.671633 
L 103.299254 164.868019 
L 103.501017 165.6383 
L 103.70278 165.705401 
L 103.904542 166.119252 
L 104.207186 166.520138 
L 104.509831 166.52623 
L 104.812475 168.240192 
L 104.913356 168.236476 
L 105.115119 169.432643 
L 105.316881 169.676147 
L 105.417763 169.713798 
L 105.619525 169.971206 
L 105.720407 169.946872 
L 105.922169 170.343148 
L 106.123932 170.378874 
L 106.325695 170.532496 
L 106.830102 170.649235 
L 109.352136 170.953142 
L 109.553898 173.394506 
L 111.168 173.454023 
L 111.470644 173.526189 
L 111.672407 174.259946 
L 112.782102 174.306251 
L 112.882983 175.75335 
L 112.983864 175.741042 
L 114.698847 175.922803 
L 114.90061 176.034883 
L 116.010305 176.095684 
L 117.422644 176.263985 
L 118.734102 176.64854 
L 118.834983 176.639748 
L 119.238508 177.137568 
L 119.33939 177.152014 
L 119.642034 179.41942 
L 120.348203 179.520175 
L 120.549966 180.711339 
L 120.751729 181.13553 
L 120.953492 181.18242 
L 121.155254 181.501577 
L 121.55878 181.589475 
L 122.063186 181.700064 
L 122.769356 181.809479 
L 122.971119 182.98485 
L 123.475525 183.165396 
L 123.879051 185.958368 
L 124.080814 185.997345 
L 124.282576 187.002292 
L 124.383458 187.008704 
L 124.484339 187.384082 
L 124.58522 189.160118 
L 124.686102 189.149262 
L 124.988746 189.148569 
L 125.190508 189.948131 
L 125.392271 190.345112 
L 125.493153 190.586719 
L 125.694915 191.189352 
L 126.199322 191.245307 
L 126.401085 191.607084 
L 127.107254 191.7895 
L 127.51078 191.925125 
L 129.528407 192.080239 
L 130.032814 192.106887 
L 130.234576 192.656087 
L 130.436339 192.664981 
L 130.638102 193.067196 
L 131.344271 193.109298 
L 132.252203 193.143147 
L 132.453966 193.18937 
L 132.655729 193.44098 
L 132.75661 193.458876 
L 132.857492 194.176649 
L 133.059254 195.872441 
L 133.261017 195.86507 
L 133.46278 197.022626 
L 133.664542 198.148554 
L 134.068068 198.896405 
L 134.168949 198.90325 
L 134.269831 199.681572 
L 134.471593 202.458426 
L 134.774237 203.306609 
L 135.177763 203.396637 
L 135.278644 203.421587 
L 135.480407 204.966636 
L 135.984814 205.07532 
L 136.186576 205.279274 
L 137.800678 205.387432 
L 138.002441 206.029128 
L 138.204203 206.036102 
L 138.405966 206.622655 
L 144.963254 207.055649 
L 145.467661 207.03812 
L 148.594983 207.076705 
L 149.502915 207.115594 
L 151.117017 207.187722 
L 151.419661 207.255063 
L 152.529356 207.304135 
L 153.033763 207.358749 
L 153.941695 207.490422 
L 154.34522 207.548715 
L 156.867254 207.609857 
L 157.775186 207.603839 
L 158.582237 207.622182 
L 159.490169 207.600335 
L 159.691932 208.854859 
L 160.196339 208.843492 
L 160.498983 208.847359 
L 160.700746 210.45068 
L 161.507797 210.560781 
L 161.709559 211.888238 
L 162.012203 211.920373 
L 162.213966 212.47071 
L 162.415729 212.662777 
L 169.679186 212.928559 
L 171.394169 212.958637 
L 175.933831 213.153316 
L 176.337356 213.210239 
L 177.043525 213.218955 
L 178.556746 213.215631 
L 179.868203 213.255227 
L 181.482305 213.26267 
L 187.333424 213.488107 
L 187.736949 213.535436 
L 189.149288 213.603866 
L 191.772203 213.668411 
L 191.973966 213.753281 
L 195.202169 213.836792 
L 197.320678 213.897726 
L 198.833898 213.875405 
L 199.237424 213.898632 
L 202.465627 213.89379 
L 203.070915 213.927368 
L 205.592949 214.076187 
L 211.746712 214.144887 
L 212.957288 214.140864 
L 215.983729 214.258794 
L 216.185492 215.012734 
L 216.689898 215.066067 
L 216.891661 215.886961 
L 217.093424 215.897684 
L 217.295186 216.409943 
L 217.496949 216.395857 
L 217.698712 216.878316 
L 217.799593 216.869553 
L 218.001356 218.003991 
L 218.304 218.964837 
L 218.606644 218.975753 
L 218.808407 219.193553 
L 221.834847 219.200682 
L 222.74278 219.241795 
L 224.356881 219.307804 
L 225.870102 219.324508 
L 226.172746 219.352237 
L 226.576271 219.46763 
L 228.795661 219.391361 
L 231.216814 219.435674 
L 232.225627 219.439633 
L 233.335322 219.459222 
L 233.537085 219.919875 
L 233.738847 221.34414 
L 233.94061 222.94464 
L 234.545898 222.947568 
L 235.050305 223.549863 
L 237.370576 223.653591 
L 237.572339 224.184191 
L 237.774102 224.190116 
L 237.975864 224.428738 
L 239.287322 224.421471 
L 248.467525 224.553861 
L 249.274576 224.578507 
L 253.511593 224.605215 
L 254.217763 224.643759 
L 272.578169 224.78626 
L 273.687864 224.797662 
L 275.402847 224.836017 
L 275.503729 224.884065 
L 275.705492 225.108321 
L 276.714305 225.226503 
L 276.916068 225.675626 
L 277.117831 225.836508 
L 277.319593 225.844266 
L 277.521356 228.604003 
L 284.885695 228.848136 
L 285.087458 228.849121 
L 285.28922 229.043917 
L 286.701559 229.031963 
L 289.324475 229.064413 
L 289.627119 229.068288 
L 289.828881 229.532548 
L 291.442983 229.606524 
L 291.644746 229.670368 
L 293.258847 229.707881 
L 293.561492 229.875102 
L 293.763254 231.751897 
L 293.965017 234.032848 
L 294.16678 234.07753 
L 294.368542 234.28827 
L 294.570305 234.340837 
L 294.772068 234.866404 
L 294.872949 234.86176 
L 295.074712 235.206679 
L 295.276475 235.24122 
L 295.478237 237.562225 
L 295.579119 237.560347 
L 295.780881 239.292548 
L 296.184407 239.293596 
L 296.487051 239.738543 
L 297.697627 239.92239 
L 298.908203 240.04853 
L 299.109966 240.181005 
L 299.210847 240.176618 
L 299.513492 240.665745 
L 299.614373 240.661249 
L 299.715254 240.913193 
L 299.816136 241.467367 
L 300.017898 243.742628 
L 300.320542 244.630532 
L 300.522305 244.653633 
L 300.724068 244.848733 
L 301.228475 244.93725 
L 305.465492 244.992097 
L 306.474305 245.006284 
L 309.500746 244.994053 
L 323.119729 245.011066 
L 325.238237 245.037681 
L 326.045288 245.016458 
L 327.760271 245.03179 
L 328.264678 245.02385 
L 332.199051 245.062955 
L 333.712271 245.050476 
L 336.536949 245.117596 
L 339.159864 245.097254 
L 339.361627 245.320112 
L 339.56339 245.32906 
L 339.866034 247.11057 
L 339.966915 247.123983 
L 340.168678 247.816966 
L 340.370441 247.822928 
L 340.572203 248.916738 
L 340.673085 248.926474 
L 340.874847 249.442709 
L 340.975729 249.43386 
L 341.177492 249.857207 
L 341.379254 249.955917 
L 341.681898 250.051759 
L 344.607458 250.044812 
L 345.51539 250.021646 
L 348.743593 250.020504 
L 349.853288 250.035357 
L 350.862102 250.0593 
L 356.107932 250.056496 
L 360.950237 250.051262 
L 361.555525 250.065734 
L 365.086373 250.146878 
L 368.516339 250.206759 
L 370.332203 250.304198 
L 371.643661 250.315721 
L 372.551593 250.356977 
L 374.972746 250.305487 
L 376.082441 250.405124 
L 376.385085 251.80374 
L 377.091254 251.812912 
L 377.293017 252.956828 
L 377.696542 252.964042 
L 377.898305 253.34088 
L 378.301831 253.350395 
L 378.503593 254.076897 
L 378.806237 254.074908 
L 379.008 254.209448 
L 379.209763 254.199389 
L 379.512407 255.107714 
L 379.915932 255.082935 
L 380.117695 255.208531 
L 381.22739 255.242586 
L 398.276339 255.38613 
L 398.37722 255.546245 
L 398.578983 256.24759 
L 398.679864 256.233122 
L 398.780746 256.588624 
L 398.982508 258.025953 
L 399.386034 258.028675 
L 399.587797 258.6201 
L 399.789559 258.944509 
L 400.293966 258.949685 
L 401.30278 259.120775 
L 401.504542 259.787208 
L 401.706305 259.805736 
L 401.908068 260.146914 
L 402.109831 260.216292 
L 403.219525 260.288065 
L 404.631864 260.348534 
L 409.776814 260.344913 
L 411.088271 260.335234 
L 414.619119 260.365939 
L 414.619119 260.365939 
" clip-path="url(#p442b14f540)" style="fill: none; stroke: #1f77b4; stroke-opacity: 0.3; stroke-width: 1.5; stroke-linecap: square"/>
   </g>
   <g id="line2d_19">
    <path d="M 57.6 294.918958 
L 57.700881 294.918958 
L 57.902644 295.226724 
L 58.003525 295.226724 
L 58.205288 294.946145 
L 59.012339 295.02386 
L 59.314983 295.081631 
L 59.920271 295.102371 
L 62.543186 295.093177 
L 62.744949 295.346342 
L 65.468746 295.282782 
L 65.670508 295.205148 
L 70.815458 295.148175 
L 71.01722 295.072946 
L 71.118102 295.072946 
L 71.319864 295.286637 
L 73.135729 295.284502 
L 73.337492 295.108 
L 74.043661 295.038441 
L 74.245424 295.238342 
L 75.052475 295.21428 
L 75.153356 295.03671 
L 75.355119 295.189975 
L 81.508881 295.239169 
L 81.710644 295.351086 
L 81.912407 295.351086 
L 82.114169 295.239169 
L 82.416814 295.294925 
L 83.62739 295.214308 
L 83.930034 295.175384 
L 84.131797 295.27835 
L 84.737085 295.175384 
L 85.039729 295.118309 
L 85.342373 295.115169 
L 85.544136 295.242944 
L 96.035797 295.314605 
L 96.338441 295.355078 
L 107.43539 295.2577 
L 107.637153 295.117883 
L 108.444203 295.223761 
L 110.260068 295.277222 
L 110.461831 295.203857 
L 110.663593 295.27627 
L 111.369763 295.203857 
L 111.470644 295.429907 
L 111.672407 295.234351 
L 118.935864 295.333817 
L 119.137627 295.247337 
L 119.33939 295.223174 
L 119.541153 295.363177 
L 121.760542 295.347221 
L 125.795797 295.321932 
L 126.098441 295.167208 
L 129.024 295.259654 
L 129.528407 295.284956 
L 153.437288 295.226047 
L 153.639051 295.167036 
L 154.446102 295.232297 
L 154.748746 295.232297 
L 154.950508 295.440281 
L 158.683119 295.363349 
L 158.884881 295.245803 
L 162.617492 295.307967 
L 162.819254 295.361276 
L 163.22278 295.329972 
L 173.008271 295.333318 
L 173.109153 295.130865 
L 173.411797 295.283211 
L 176.740881 295.246096 
L 176.942644 295.360357 
L 188.342237 295.320126 
L 188.544 295.200413 
L 189.552814 295.177552 
L 189.754576 295.332584 
L 200.952407 295.263488 
L 201.053288 295.193541 
L 201.255051 295.283448 
L 206.702644 295.316094 
L 206.904407 295.453046 
L 207.91322 295.454808 
L 208.114983 295.303336 
L 220.119864 295.290292 
L 220.220746 295.172456 
L 220.422508 295.298289 
L 238.480271 295.236409 
L 238.782915 295.183594 
L 241.002305 295.217841 
L 241.204068 295.323728 
L 250.182508 295.265195 
L 250.384271 295.452137 
L 252.603661 295.452137 
L 252.805424 295.289884 
L 266.121763 295.253208 
L 266.323525 295.416154 
L 271.569356 295.35841 
L 271.771119 295.261806 
L 271.972881 295.350076 
L 272.275525 295.400398 
L 273.183458 295.439207 
L 273.38522 295.278834 
L 279.034576 295.262652 
L 279.236339 295.397091 
L 286.701559 295.298867 
L 287.105085 295.269571 
L 305.162847 295.296631 
L 305.263729 295.390512 
L 305.465492 295.306346 
L 317.26861 295.29681 
L 317.470373 295.160274 
L 317.571254 295.160274 
L 317.773017 295.317714 
L 331.694644 295.342647 
L 331.896407 295.482059 
L 332.400814 295.482059 
L 332.602576 295.342647 
L 337.848407 295.431268 
L 338.251932 295.461903 
L 342.488949 295.458713 
L 342.690712 295.346423 
L 355.300881 295.268276 
L 355.603525 295.226143 
L 356.208814 295.3548 
L 374.770983 295.342968 
L 374.972746 295.235915 
L 382.337085 295.277609 
L 382.538847 295.426583 
L 395.855186 295.330197 
L 396.258712 295.300461 
L 414.619119 295.318814 
L 414.619119 295.318814 
" clip-path="url(#p442b14f540)" style="fill: none; stroke: #ff7f0e; stroke-opacity: 0.3; stroke-width: 1.5; stroke-linecap: square"/>
   </g>
   <g id="patch_3">
    <path d="M 57.6 307.584 
L 57.6 41.472 
" style="fill: none; stroke: #000000; stroke-width: 0.8; stroke-linejoin: miter; stroke-linecap: square"/>
   </g>
   <g id="patch_4">
    <path d="M 414.72 307.584 
L 414.72 41.472 
" style="fill: none; stroke: #000000; stroke-width: 0.8; stroke-linejoin: miter; stroke-linecap: square"/>
   </g>
   <g id="patch_5">
    <path d="M 57.6 307.584 
L 414.72 307.584 
" style="fill: none; stroke: #000000; stroke-width: 0.8; stroke-linejoin: miter; stroke-linecap: square"/>
   </g>
   <g id="patch_6">
    <path d="M 57.6 41.472 
L 414.72 41.472 
" style="fill: none; stroke: #000000; stroke-width: 0.8; stroke-linejoin: miter; stroke-linecap: square"/>
   </g>
   <g id="text_20">
    <!-- Best $\chi^2$ by Step -->
    <g transform="translate(189.42 35.472)scale(0.12 -0.12)">
     <defs>
      <path id="DejaVuSans-42" d="M 1259 2228 
L 1259 519 
L 2272 519 
Q 2781 519 3026 730 
Q 3272 941 3272 1375 
Q 3272 1813 3026 2020 
Q 2781 2228 2272 2228 
L 1259 2228 
z
M 1259 4147 
L 1259 2741 
L 2194 2741 
Q 2656 2741 2882 2914 
Q 3109 3088 3109 3444 
Q 3109 3797 2882 3972 
Q 2656 4147 2194 4147 
L 1259 4147 
z
M 628 4666 
L 2241 4666 
Q 2963 4666 3353 4366 
Q 3744 4066 3744 3513 
Q 3744 3084 3544 2831 
Q 3344 2578 2956 2516 
Q 3422 2416 3680 2098 
Q 3938 1781 3938 1306 
Q 3938 681 3513 340 
Q 3088 0 2303 0 
L 628 0 
L 628 4666 
z
" transform="scale(0.015625)"/>
      <path id="DejaVuSans-20" transform="scale(0.015625)"/>
      <path id="DejaVuSans-62" d="M 3116 1747 
Q 3116 2381 2855 2742 
Q 2594 3103 2138 3103 
Q 1681 3103 1420 2742 
Q 1159 2381 1159 1747 
Q 1159 1113 1420 752 
Q 1681 391 2138 391 
Q 2594 391 2855 752 
Q 3116 1113 3116 1747 
z
M 1159 2969 
Q 1341 3281 1617 3432 
Q 1894 3584 2278 3584 
Q 2916 3584 3314 3078 
Q 3713 2572 3713 1747 
Q 3713 922 3314 415 
Q 2916 -91 2278 -91 
Q 1894 -91 1617 61 
Q 1341 213 1159 525 
L 1159 0 
L 581 0 
L 581 4863 
L 1159 4863 
L 1159 2969 
z
" transform="scale(0.015625)"/>
      <path id="DejaVuSans-79" d="M 2059 -325 
Q 1816 -950 1584 -1140 
Q 1353 -1331 966 -1331 
L 506 -1331 
L 506 -850 
L 844 -850 
Q 1081 -850 1212 -737 
Q 1344 -625 1503 -206 
L 1606 56 
L 191 3500 
L 800 3500 
L 1894 763 
L 2988 3500 
L 3597 3500 
L 2059 -325 
z
" transform="scale(0.015625)"/>
      <path id="DejaVuSans-53" d="M 3425 4513 
L 3425 3897 
Q 3066 4069 2747 4153 
Q 2428 4238 2131 4238 
Q 1616 4238 1336 4038 
Q 1056 3838 1056 3469 
Q 1056 3159 1242 3001 
Q 1428 2844 1947 2747 
L 2328 2669 
Q 3034 2534 3370 2195 
Q 3706 1856 3706 1288 
Q 3706 609 3251 259 
Q 2797 -91 1919 -91 
Q 1588 -91 1214 -16 
Q 841 59 441 206 
L 441 856 
Q 825 641 1194 531 
Q 1563 422 1919 422 
Q 2459 422 2753 634 
Q 3047 847 3047 1241 
Q 3047 1584 2836 1778 
Q 2625 1972 2144 2069 
L 1759 2144 
Q 1053 2284 737 2584 
Q 422 2884 422 3419 
Q 422 4038 858 4394 
Q 1294 4750 2059 4750 
Q 2388 4750 2728 4690 
Q 3069 4631 3425 4513 
z
" transform="scale(0.015625)"/>
     </defs>
     <use xlink:href="#DejaVuSans-42" transform="translate(0 0.765625)"/>
     <use xlink:href="#DejaVuSans-65" transform="translate(68.603516 0.765625)"/>
     <use xlink:href="#DejaVuSans-73" transform="translate(130.126953 0.765625)"/>
     <use xlink:href="#DejaVuSans-74" transform="translate(182.226562 0.765625)"/>
     <use xlink:href="#DejaVuSans-20" transform="translate(221.435547 0.765625)"/>
     <use xlink:href="#DejaVuSans-Oblique-3c7" transform="translate(253.222656 0.765625)"/>
     <use xlink:href="#DejaVuSans-32" transform="translate(316.875052 39.046875)scale(0.7)"/>
     <use xlink:href="#DejaVuSans-20" transform="translate(364.14556 0.765625)"/>
     <use xlink:href="#DejaVuSans-62" transform="translate(395.932669 0.765625)"/>
     <use xlink:href="#DejaVuSans-79" transform="translate(459.409232 0.765625)"/>
     <use xlink:href="#DejaVuSans-20" transform="translate(518.588919 0.765625)"/>
     <use xlink:href="#DejaVuSans-53" transform="translate(550.376029 0.765625)"/>
     <use xlink:href="#DejaVuSans-74" transform="translate(613.852591 0.765625)"/>
     <use xlink:href="#DejaVuSans-65" transform="translate(653.061576 0.765625)"/>
     <use xlink:href="#DejaVuSans-70" transform="translate(714.585013 0.765625)"/>
    </g>
   </g>
  </g>
 </g>
 <defs>
  <clipPath id="p442b14f540">
   <rect x="57.6" y="41.472" width="357.12" height="266.112"/>
  </clipPath>
 </defs>
</svg>
