<?xml version="1.0" encoding="utf-8" standalone="no"?>
<!DOCTYPE svg PUBLIC "-//W3C//DTD SVG 1.1//EN"
  "http://www.w3.org/Graphics/SVG/1.1/DTD/svg11.dtd">
<svg xmlns:xlink="http://www.w3.org/1999/xlink" width="460.8pt" height="345.6pt" viewBox="0 0 460.8 345.6" xmlns="http://www.w3.org/2000/svg" version="1.1">
 <metadata>
  <rdf:RDF xmlns:dc="http://purl.org/dc/elements/1.1/" xmlns:cc="http://creativecommons.org/ns#" xmlns:rdf="http://www.w3.org/1999/02/22-rdf-syntax-ns#">
   <cc:Work>
    <dc:type rdf:resource="http://purl.org/dc/dcmitype/StillImage"/>
    <dc:date>2022-07-23T14:10:20.422127</dc:date>
    <dc:format>image/svg+xml</dc:format>
    <dc:creator>
     <cc:Agent>
      <dc:title>Matplotlib v3.5.0, https://matplotlib.org/</dc:title>
     </cc:Agent>
    </dc:creator>
   </cc:Work>
  </rdf:RDF>
 </metadata>
 <defs>
  <style type="text/css">*{stroke-linejoin: round; stroke-linecap: butt}</style>
 </defs>
 <g id="figure_1">
  <g id="patch_1">
   <path d="M 0 345.6 
L 460.8 345.6 
L 460.8 0 
L 0 0 
z
" style="fill: #ffffff"/>
  </g>
  <g id="axes_1">
   <g id="patch_2">
    <path d="M 57.6 307.584 
L 414.72 307.584 
L 414.72 41.472 
L 57.6 41.472 
z
" style="fill: #ffffff"/>
   </g>
   <g id="matplotlib.axis_1">
    <g id="xtick_1">
     <g id="line2d_1">
      <defs>
       <path id="mce6d035d39" d="M 0 0 
L 0 3.5 
" style="stroke: #000000; stroke-width: 0.8"/>
      </defs>
      <g>
       <use xlink:href="#mce6d035d39" x="57.6" y="307.584" style="stroke: #000000; stroke-width: 0.8"/>
      </g>
     </g>
     <g id="text_1">
      <!-- 500 -->
      <g transform="translate(48.05625 322.182437)scale(0.1 -0.1)">
       <defs>
        <path id="DejaVuSans-35" d="M 691 4666 
L 3169 4666 
L 3169 4134 
L 1269 4134 
L 1269 2991 
Q 1406 3038 1543 3061 
Q 1681 3084 1819 3084 
Q 2600 3084 3056 2656 
Q 3513 2228 3513 1497 
Q 3513 744 3044 326 
Q 2575 -91 1722 -91 
Q 1428 -91 1123 -41 
Q 819 9 494 109 
L 494 744 
Q 775 591 1075 516 
Q 1375 441 1709 441 
Q 2250 441 2565 725 
Q 2881 1009 2881 1497 
Q 2881 1984 2565 2268 
Q 2250 2553 1709 2553 
Q 1456 2553 1204 2497 
Q 953 2441 691 2322 
L 691 4666 
z
" transform="scale(0.015625)"/>
        <path id="DejaVuSans-30" d="M 2034 4250 
Q 1547 4250 1301 3770 
Q 1056 3291 1056 2328 
Q 1056 1369 1301 889 
Q 1547 409 2034 409 
Q 2525 409 2770 889 
Q 3016 1369 3016 2328 
Q 3016 3291 2770 3770 
Q 2525 4250 2034 4250 
z
M 2034 4750 
Q 2819 4750 3233 4129 
Q 3647 3509 3647 2328 
Q 3647 1150 3233 529 
Q 2819 -91 2034 -91 
Q 1250 -91 836 529 
Q 422 1150 422 2328 
Q 422 3509 836 4129 
Q 1250 4750 2034 4750 
z
" transform="scale(0.015625)"/>
       </defs>
       <use xlink:href="#DejaVuSans-35"/>
       <use xlink:href="#DejaVuSans-30" x="63.623047"/>
       <use xlink:href="#DejaVuSans-30" x="127.246094"/>
      </g>
     </g>
    </g>
    <g id="xtick_2">
     <g id="line2d_2">
      <g>
       <use xlink:href="#mce6d035d39" x="108.040678" y="307.584" style="stroke: #000000; stroke-width: 0.8"/>
      </g>
     </g>
     <g id="text_2">
      <!-- 1000 -->
      <g transform="translate(95.315678 322.182437)scale(0.1 -0.1)">
       <defs>
        <path id="DejaVuSans-31" d="M 794 531 
L 1825 531 
L 1825 4091 
L 703 3866 
L 703 4441 
L 1819 4666 
L 2450 4666 
L 2450 531 
L 3481 531 
L 3481 0 
L 794 0 
L 794 531 
z
" transform="scale(0.015625)"/>
       </defs>
       <use xlink:href="#DejaVuSans-31"/>
       <use xlink:href="#DejaVuSans-30" x="63.623047"/>
       <use xlink:href="#DejaVuSans-30" x="127.246094"/>
       <use xlink:href="#DejaVuSans-30" x="190.869141"/>
      </g>
     </g>
    </g>
    <g id="xtick_3">
     <g id="line2d_3">
      <g>
       <use xlink:href="#mce6d035d39" x="158.481356" y="307.584" style="stroke: #000000; stroke-width: 0.8"/>
      </g>
     </g>
     <g id="text_3">
      <!-- 1500 -->
      <g transform="translate(145.756356 322.182437)scale(0.1 -0.1)">
       <use xlink:href="#DejaVuSans-31"/>
       <use xlink:href="#DejaVuSans-35" x="63.623047"/>
       <use xlink:href="#DejaVuSans-30" x="127.246094"/>
       <use xlink:href="#DejaVuSans-30" x="190.869141"/>
      </g>
     </g>
    </g>
    <g id="xtick_4">
     <g id="line2d_4">
      <g>
       <use xlink:href="#mce6d035d39" x="208.922034" y="307.584" style="stroke: #000000; stroke-width: 0.8"/>
      </g>
     </g>
     <g id="text_4">
      <!-- 2000 -->
      <g transform="translate(196.197034 322.182437)scale(0.1 -0.1)">
       <defs>
        <path id="DejaVuSans-32" d="M 1228 531 
L 3431 531 
L 3431 0 
L 469 0 
L 469 531 
Q 828 903 1448 1529 
Q 2069 2156 2228 2338 
Q 2531 2678 2651 2914 
Q 2772 3150 2772 3378 
Q 2772 3750 2511 3984 
Q 2250 4219 1831 4219 
Q 1534 4219 1204 4116 
Q 875 4013 500 3803 
L 500 4441 
Q 881 4594 1212 4672 
Q 1544 4750 1819 4750 
Q 2544 4750 2975 4387 
Q 3406 4025 3406 3419 
Q 3406 3131 3298 2873 
Q 3191 2616 2906 2266 
Q 2828 2175 2409 1742 
Q 1991 1309 1228 531 
z
" transform="scale(0.015625)"/>
       </defs>
       <use xlink:href="#DejaVuSans-32"/>
       <use xlink:href="#DejaVuSans-30" x="63.623047"/>
       <use xlink:href="#DejaVuSans-30" x="127.246094"/>
       <use xlink:href="#DejaVuSans-30" x="190.869141"/>
      </g>
     </g>
    </g>
    <g id="xtick_5">
     <g id="line2d_5">
      <g>
       <use xlink:href="#mce6d035d39" x="259.362712" y="307.584" style="stroke: #000000; stroke-width: 0.8"/>
      </g>
     </g>
     <g id="text_5">
      <!-- 2500 -->
      <g transform="translate(246.637712 322.182437)scale(0.1 -0.1)">
       <use xlink:href="#DejaVuSans-32"/>
       <use xlink:href="#DejaVuSans-35" x="63.623047"/>
       <use xlink:href="#DejaVuSans-30" x="127.246094"/>
       <use xlink:href="#DejaVuSans-30" x="190.869141"/>
      </g>
     </g>
    </g>
    <g id="xtick_6">
     <g id="line2d_6">
      <g>
       <use xlink:href="#mce6d035d39" x="309.80339" y="307.584" style="stroke: #000000; stroke-width: 0.8"/>
      </g>
     </g>
     <g id="text_6">
      <!-- 3000 -->
      <g transform="translate(297.07839 322.182437)scale(0.1 -0.1)">
       <defs>
        <path id="DejaVuSans-33" d="M 2597 2516 
Q 3050 2419 3304 2112 
Q 3559 1806 3559 1356 
Q 3559 666 3084 287 
Q 2609 -91 1734 -91 
Q 1441 -91 1130 -33 
Q 819 25 488 141 
L 488 750 
Q 750 597 1062 519 
Q 1375 441 1716 441 
Q 2309 441 2620 675 
Q 2931 909 2931 1356 
Q 2931 1769 2642 2001 
Q 2353 2234 1838 2234 
L 1294 2234 
L 1294 2753 
L 1863 2753 
Q 2328 2753 2575 2939 
Q 2822 3125 2822 3475 
Q 2822 3834 2567 4026 
Q 2313 4219 1838 4219 
Q 1578 4219 1281 4162 
Q 984 4106 628 3988 
L 628 4550 
Q 988 4650 1302 4700 
Q 1616 4750 1894 4750 
Q 2613 4750 3031 4423 
Q 3450 4097 3450 3541 
Q 3450 3153 3228 2886 
Q 3006 2619 2597 2516 
z
" transform="scale(0.015625)"/>
       </defs>
       <use xlink:href="#DejaVuSans-33"/>
       <use xlink:href="#DejaVuSans-30" x="63.623047"/>
       <use xlink:href="#DejaVuSans-30" x="127.246094"/>
       <use xlink:href="#DejaVuSans-30" x="190.869141"/>
      </g>
     </g>
    </g>
    <g id="xtick_7">
     <g id="line2d_7">
      <g>
       <use xlink:href="#mce6d035d39" x="360.244068" y="307.584" style="stroke: #000000; stroke-width: 0.8"/>
      </g>
     </g>
     <g id="text_7">
      <!-- 3500 -->
      <g transform="translate(347.519068 322.182437)scale(0.1 -0.1)">
       <use xlink:href="#DejaVuSans-33"/>
       <use xlink:href="#DejaVuSans-35" x="63.623047"/>
       <use xlink:href="#DejaVuSans-30" x="127.246094"/>
       <use xlink:href="#DejaVuSans-30" x="190.869141"/>
      </g>
     </g>
    </g>
    <g id="xtick_8">
     <g id="line2d_8">
      <g>
       <use xlink:href="#mce6d035d39" x="410.684746" y="307.584" style="stroke: #000000; stroke-width: 0.8"/>
      </g>
     </g>
     <g id="text_8">
      <!-- 4000 -->
      <g transform="translate(397.959746 322.182437)scale(0.1 -0.1)">
       <defs>
        <path id="DejaVuSans-34" d="M 2419 4116 
L 825 1625 
L 2419 1625 
L 2419 4116 
z
M 2253 4666 
L 3047 4666 
L 3047 1625 
L 3713 1625 
L 3713 1100 
L 3047 1100 
L 3047 0 
L 2419 0 
L 2419 1100 
L 313 1100 
L 313 1709 
L 2253 4666 
z
" transform="scale(0.015625)"/>
       </defs>
       <use xlink:href="#DejaVuSans-34"/>
       <use xlink:href="#DejaVuSans-30" x="63.623047"/>
       <use xlink:href="#DejaVuSans-30" x="127.246094"/>
       <use xlink:href="#DejaVuSans-30" x="190.869141"/>
      </g>
     </g>
    </g>
    <g id="text_9">
     <!-- step -->
     <g transform="translate(225.344375 335.860562)scale(0.1 -0.1)">
      <defs>
       <path id="DejaVuSans-73" d="M 2834 3397 
L 2834 2853 
Q 2591 2978 2328 3040 
Q 2066 3103 1784 3103 
Q 1356 3103 1142 2972 
Q 928 2841 928 2578 
Q 928 2378 1081 2264 
Q 1234 2150 1697 2047 
L 1894 2003 
Q 2506 1872 2764 1633 
Q 3022 1394 3022 966 
Q 3022 478 2636 193 
Q 2250 -91 1575 -91 
Q 1294 -91 989 -36 
Q 684 19 347 128 
L 347 722 
Q 666 556 975 473 
Q 1284 391 1588 391 
Q 1994 391 2212 530 
Q 2431 669 2431 922 
Q 2431 1156 2273 1281 
Q 2116 1406 1581 1522 
L 1381 1569 
Q 847 1681 609 1914 
Q 372 2147 372 2553 
Q 372 3047 722 3315 
Q 1072 3584 1716 3584 
Q 2034 3584 2315 3537 
Q 2597 3491 2834 3397 
z
" transform="scale(0.015625)"/>
       <path id="DejaVuSans-74" d="M 1172 4494 
L 1172 3500 
L 2356 3500 
L 2356 3053 
L 1172 3053 
L 1172 1153 
Q 1172 725 1289 603 
Q 1406 481 1766 481 
L 2356 481 
L 2356 0 
L 1766 0 
Q 1100 0 847 248 
Q 594 497 594 1153 
L 594 3053 
L 172 3053 
L 172 3500 
L 594 3500 
L 594 4494 
L 1172 4494 
z
" transform="scale(0.015625)"/>
       <path id="DejaVuSans-65" d="M 3597 1894 
L 3597 1613 
L 953 1613 
Q 991 1019 1311 708 
Q 1631 397 2203 397 
Q 2534 397 2845 478 
Q 3156 559 3463 722 
L 3463 178 
Q 3153 47 2828 -22 
Q 2503 -91 2169 -91 
Q 1331 -91 842 396 
Q 353 884 353 1716 
Q 353 2575 817 3079 
Q 1281 3584 2069 3584 
Q 2775 3584 3186 3129 
Q 3597 2675 3597 1894 
z
M 3022 2063 
Q 3016 2534 2758 2815 
Q 2500 3097 2075 3097 
Q 1594 3097 1305 2825 
Q 1016 2553 972 2059 
L 3022 2063 
z
" transform="scale(0.015625)"/>
       <path id="DejaVuSans-70" d="M 1159 525 
L 1159 -1331 
L 581 -1331 
L 581 3500 
L 1159 3500 
L 1159 2969 
Q 1341 3281 1617 3432 
Q 1894 3584 2278 3584 
Q 2916 3584 3314 3078 
Q 3713 2572 3713 1747 
Q 3713 922 3314 415 
Q 2916 -91 2278 -91 
Q 1894 -91 1617 61 
Q 1341 213 1159 525 
z
M 3116 1747 
Q 3116 2381 2855 2742 
Q 2594 3103 2138 3103 
Q 1681 3103 1420 2742 
Q 1159 2381 1159 1747 
Q 1159 1113 1420 752 
Q 1681 391 2138 391 
Q 2594 391 2855 752 
Q 3116 1113 3116 1747 
z
" transform="scale(0.015625)"/>
      </defs>
      <use xlink:href="#DejaVuSans-73"/>
      <use xlink:href="#DejaVuSans-74" x="52.099609"/>
      <use xlink:href="#DejaVuSans-65" x="91.308594"/>
      <use xlink:href="#DejaVuSans-70" x="152.832031"/>
     </g>
    </g>
   </g>
   <g id="matplotlib.axis_2">
    <g id="ytick_1">
     <g id="line2d_9">
      <defs>
       <path id="m29169f90f9" d="M 0 0 
L -3.5 0 
" style="stroke: #000000; stroke-width: 0.8"/>
      </defs>
      <g>
       <use xlink:href="#m29169f90f9" x="57.6" y="305.153665" style="stroke: #000000; stroke-width: 0.8"/>
      </g>
     </g>
     <g id="text_10">
      <!-- 200 -->
      <g transform="translate(31.5125 308.952884)scale(0.1 -0.1)">
       <use xlink:href="#DejaVuSans-32"/>
       <use xlink:href="#DejaVuSans-30" x="63.623047"/>
       <use xlink:href="#DejaVuSans-30" x="127.246094"/>
      </g>
     </g>
    </g>
    <g id="ytick_2">
     <g id="line2d_10">
      <g>
       <use xlink:href="#m29169f90f9" x="57.6" y="268.114775" style="stroke: #000000; stroke-width: 0.8"/>
      </g>
     </g>
     <g id="text_11">
      <!-- 400 -->
      <g transform="translate(31.5125 271.913994)scale(0.1 -0.1)">
       <use xlink:href="#DejaVuSans-34"/>
       <use xlink:href="#DejaVuSans-30" x="63.623047"/>
       <use xlink:href="#DejaVuSans-30" x="127.246094"/>
      </g>
     </g>
    </g>
    <g id="ytick_3">
     <g id="line2d_11">
      <g>
       <use xlink:href="#m29169f90f9" x="57.6" y="231.075885" style="stroke: #000000; stroke-width: 0.8"/>
      </g>
     </g>
     <g id="text_12">
      <!-- 600 -->
      <g transform="translate(31.5125 234.875104)scale(0.1 -0.1)">
       <defs>
        <path id="DejaVuSans-36" d="M 2113 2584 
Q 1688 2584 1439 2293 
Q 1191 2003 1191 1497 
Q 1191 994 1439 701 
Q 1688 409 2113 409 
Q 2538 409 2786 701 
Q 3034 994 3034 1497 
Q 3034 2003 2786 2293 
Q 2538 2584 2113 2584 
z
M 3366 4563 
L 3366 3988 
Q 3128 4100 2886 4159 
Q 2644 4219 2406 4219 
Q 1781 4219 1451 3797 
Q 1122 3375 1075 2522 
Q 1259 2794 1537 2939 
Q 1816 3084 2150 3084 
Q 2853 3084 3261 2657 
Q 3669 2231 3669 1497 
Q 3669 778 3244 343 
Q 2819 -91 2113 -91 
Q 1303 -91 875 529 
Q 447 1150 447 2328 
Q 447 3434 972 4092 
Q 1497 4750 2381 4750 
Q 2619 4750 2861 4703 
Q 3103 4656 3366 4563 
z
" transform="scale(0.015625)"/>
       </defs>
       <use xlink:href="#DejaVuSans-36"/>
       <use xlink:href="#DejaVuSans-30" x="63.623047"/>
       <use xlink:href="#DejaVuSans-30" x="127.246094"/>
      </g>
     </g>
    </g>
    <g id="ytick_4">
     <g id="line2d_12">
      <g>
       <use xlink:href="#m29169f90f9" x="57.6" y="194.036995" style="stroke: #000000; stroke-width: 0.8"/>
      </g>
     </g>
     <g id="text_13">
      <!-- 800 -->
      <g transform="translate(31.5125 197.836214)scale(0.1 -0.1)">
       <defs>
        <path id="DejaVuSans-38" d="M 2034 2216 
Q 1584 2216 1326 1975 
Q 1069 1734 1069 1313 
Q 1069 891 1326 650 
Q 1584 409 2034 409 
Q 2484 409 2743 651 
Q 3003 894 3003 1313 
Q 3003 1734 2745 1975 
Q 2488 2216 2034 2216 
z
M 1403 2484 
Q 997 2584 770 2862 
Q 544 3141 544 3541 
Q 544 4100 942 4425 
Q 1341 4750 2034 4750 
Q 2731 4750 3128 4425 
Q 3525 4100 3525 3541 
Q 3525 3141 3298 2862 
Q 3072 2584 2669 2484 
Q 3125 2378 3379 2068 
Q 3634 1759 3634 1313 
Q 3634 634 3220 271 
Q 2806 -91 2034 -91 
Q 1263 -91 848 271 
Q 434 634 434 1313 
Q 434 1759 690 2068 
Q 947 2378 1403 2484 
z
M 1172 3481 
Q 1172 3119 1398 2916 
Q 1625 2713 2034 2713 
Q 2441 2713 2670 2916 
Q 2900 3119 2900 3481 
Q 2900 3844 2670 4047 
Q 2441 4250 2034 4250 
Q 1625 4250 1398 4047 
Q 1172 3844 1172 3481 
z
" transform="scale(0.015625)"/>
       </defs>
       <use xlink:href="#DejaVuSans-38"/>
       <use xlink:href="#DejaVuSans-30" x="63.623047"/>
       <use xlink:href="#DejaVuSans-30" x="127.246094"/>
      </g>
     </g>
    </g>
    <g id="ytick_5">
     <g id="line2d_13">
      <g>
       <use xlink:href="#m29169f90f9" x="57.6" y="156.998105" style="stroke: #000000; stroke-width: 0.8"/>
      </g>
     </g>
     <g id="text_14">
      <!-- 1000 -->
      <g transform="translate(25.15 160.797324)scale(0.1 -0.1)">
       <use xlink:href="#DejaVuSans-31"/>
       <use xlink:href="#DejaVuSans-30" x="63.623047"/>
       <use xlink:href="#DejaVuSans-30" x="127.246094"/>
       <use xlink:href="#DejaVuSans-30" x="190.869141"/>
      </g>
     </g>
    </g>
    <g id="ytick_6">
     <g id="line2d_14">
      <g>
       <use xlink:href="#m29169f90f9" x="57.6" y="119.959215" style="stroke: #000000; stroke-width: 0.8"/>
      </g>
     </g>
     <g id="text_15">
      <!-- 1200 -->
      <g transform="translate(25.15 123.758434)scale(0.1 -0.1)">
       <use xlink:href="#DejaVuSans-31"/>
       <use xlink:href="#DejaVuSans-32" x="63.623047"/>
       <use xlink:href="#DejaVuSans-30" x="127.246094"/>
       <use xlink:href="#DejaVuSans-30" x="190.869141"/>
      </g>
     </g>
    </g>
    <g id="ytick_7">
     <g id="line2d_15">
      <g>
       <use xlink:href="#m29169f90f9" x="57.6" y="82.920325" style="stroke: #000000; stroke-width: 0.8"/>
      </g>
     </g>
     <g id="text_16">
      <!-- 1400 -->
      <g transform="translate(25.15 86.719544)scale(0.1 -0.1)">
       <use xlink:href="#DejaVuSans-31"/>
       <use xlink:href="#DejaVuSans-34" x="63.623047"/>
       <use xlink:href="#DejaVuSans-30" x="127.246094"/>
       <use xlink:href="#DejaVuSans-30" x="190.869141"/>
      </g>
     </g>
    </g>
    <g id="ytick_8">
     <g id="line2d_16">
      <g>
       <use xlink:href="#m29169f90f9" x="57.6" y="45.881436" style="stroke: #000000; stroke-width: 0.8"/>
      </g>
     </g>
     <g id="text_17">
      <!-- 1600 -->
      <g transform="translate(25.15 49.680654)scale(0.1 -0.1)">
       <use xlink:href="#DejaVuSans-31"/>
       <use xlink:href="#DejaVuSans-36" x="63.623047"/>
       <use xlink:href="#DejaVuSans-30" x="127.246094"/>
       <use xlink:href="#DejaVuSans-30" x="190.869141"/>
      </g>
     </g>
    </g>
    <g id="text_18">
     <!-- $\chi^2$ -->
     <g transform="translate(19.05 180.078)rotate(-90)scale(0.1 -0.1)">
      <defs>
       <path id="DejaVuSans-Oblique-3c7" d="M 1922 -781 
L 1691 416 
L 394 -1334 
L -284 -1334 
L 1553 1141 
L 1269 2613 
Q 1194 3006 713 3006 
L 559 3006 
L 653 3500 
L 872 3494 
Q 1675 3472 1775 2950 
L 2006 1753 
L 3303 3503 
L 3981 3503 
L 2144 1028 
L 2428 -444 
Q 2503 -838 2984 -838 
L 3138 -838 
L 3044 -1331 
L 2825 -1325 
Q 2022 -1303 1922 -781 
z
" transform="scale(0.015625)"/>
      </defs>
      <use xlink:href="#DejaVuSans-Oblique-3c7" transform="translate(0 0.765625)"/>
      <use xlink:href="#DejaVuSans-32" transform="translate(63.652396 39.046875)scale(0.7)"/>
     </g>
    </g>
   </g>
   <g id="line2d_17">
    <path d="M 57.6 53.568 
L 57.902644 56.153719 
L 58.507932 56.310872 
L 58.709695 57.755704 
L 59.11322 58.177727 
L 59.214102 58.448748 
L 59.415864 60.238832 
L 59.617627 60.428184 
L 59.81939 60.537279 
L 60.222915 65.447849 
L 61.534373 65.543554 
L 61.736136 65.652581 
L 62.139661 65.694377 
L 62.240542 65.723507 
L 62.341424 65.934464 
L 62.543186 70.87155 
L 63.350237 71.041709 
L 64.661695 71.380908 
L 64.863458 71.847483 
L 65.166102 71.923304 
L 65.872271 72.011471 
L 66.074034 72.288382 
L 66.477559 72.358182 
L 66.679322 72.478875 
L 66.780203 72.497144 
L 66.981966 72.947067 
L 67.385492 73.020987 
L 67.789017 73.542929 
L 68.091661 79.053895 
L 68.293424 79.318074 
L 68.394305 79.345839 
L 68.495186 79.517399 
L 68.696949 80.321863 
L 68.999593 80.380796 
L 69.201356 81.873908 
L 69.403119 82.800834 
L 69.705763 82.812174 
L 70.008407 82.955451 
L 70.210169 82.948157 
L 70.411932 83.657779 
L 70.714576 83.719119 
L 71.118102 83.769933 
L 71.319864 83.965537 
L 71.521627 84.055198 
L 72.026034 84.544587 
L 72.227797 84.764505 
L 72.631322 84.972419 
L 72.833085 85.236989 
L 73.135729 85.337564 
L 73.337492 85.455479 
L 73.539254 86.562324 
L 74.043661 86.668831 
L 74.548068 91.244645 
L 74.749831 91.31528 
L 75.153356 93.467912 
L 75.355119 93.857738 
L 75.456 93.880401 
L 75.657763 95.434942 
L 75.758644 95.646422 
L 75.859525 96.64056 
L 76.061288 100.126805 
L 76.162169 100.145866 
L 76.363932 101.949234 
L 76.767458 102.029695 
L 77.372746 105.914203 
L 77.473627 105.893653 
L 77.67539 106.03124 
L 78.280678 106.18271 
L 78.482441 106.873145 
L 78.684203 106.882913 
L 78.885966 106.945709 
L 79.390373 107.055937 
L 79.995661 107.102815 
L 80.298305 107.113355 
L 80.500068 107.542981 
L 80.802712 107.595052 
L 81.004475 108.488063 
L 81.105356 108.530528 
L 81.206237 108.852134 
L 81.710644 114.065571 
L 81.811525 114.078458 
L 81.912407 115.846488 
L 82.013288 115.834714 
L 82.215051 115.86283 
L 82.618576 118.160183 
L 82.719458 118.170192 
L 82.92122 118.74677 
L 83.022102 118.735133 
L 83.62739 119.415422 
L 83.930034 119.495297 
L 84.030915 119.56834 
L 84.333559 120.134934 
L 84.434441 120.134724 
L 84.636203 120.616468 
L 84.737085 120.620487 
L 85.84678 125.260455 
L 86.149424 126.198705 
L 86.250305 127.079046 
L 86.351186 127.066552 
L 86.552949 130.645713 
L 86.956475 130.692433 
L 87.158237 131.192969 
L 87.36 131.276289 
L 87.864407 131.348479 
L 88.066169 131.751881 
L 88.267932 133.678387 
L 88.368814 133.6906 
L 88.570576 135.308793 
L 88.671458 135.319221 
L 88.87322 136.573519 
L 89.175864 137.160857 
L 89.57939 137.221515 
L 89.781153 137.534366 
L 90.083797 137.627475 
L 90.285559 137.790527 
L 90.386441 138.233701 
L 90.789966 142.03882 
L 90.890847 142.083839 
L 91.09261 143.615998 
L 91.294373 143.911498 
L 91.496136 143.920764 
L 91.697898 145.89867 
L 92.000542 148.349927 
L 92.202305 151.417464 
L 92.303186 151.403857 
L 92.504949 151.990524 
L 92.605831 152.221515 
L 92.908475 153.659697 
L 93.110237 153.700458 
L 93.513763 154.268511 
L 93.715525 154.43964 
L 94.119051 157.495399 
L 94.219932 157.471597 
L 94.421695 159.276445 
L 94.623458 159.293358 
L 94.82522 160.144914 
L 95.026983 160.196873 
L 95.228746 160.539945 
L 96.035797 160.777203 
L 96.237559 160.83797 
L 96.540203 160.94052 
L 96.943729 160.9979 
L 97.145492 161.347905 
L 97.549017 161.433944 
L 97.851661 163.590464 
L 97.952542 163.669982 
L 98.154305 165.152383 
L 98.255186 165.150797 
L 98.456949 165.797479 
L 98.557831 165.906754 
L 98.961356 166.866165 
L 99.566644 166.989343 
L 99.768407 167.324221 
L 100.171932 167.458565 
L 100.373695 168.104767 
L 100.474576 168.112856 
L 100.676339 171.286616 
L 100.978983 175.144157 
L 101.180746 179.113081 
L 101.48339 180.615651 
L 101.685153 180.815352 
L 101.786034 180.806695 
L 101.886915 181.044276 
L 102.088678 182.175801 
L 102.290441 182.412619 
L 102.492203 182.414407 
L 102.593085 182.600878 
L 102.794847 183.425929 
L 102.99661 183.519296 
L 103.198373 183.595357 
L 103.299254 183.762573 
L 103.501017 184.663619 
L 103.70278 184.74211 
L 103.904542 185.226217 
L 104.207186 185.695159 
L 104.509831 185.702285 
L 104.812475 187.707213 
L 104.913356 187.702867 
L 105.115119 189.102097 
L 105.316881 189.38694 
L 105.417763 189.430982 
L 105.619525 189.732088 
L 105.720407 189.703624 
L 105.922169 190.167173 
L 106.123932 190.208963 
L 106.325695 190.388664 
L 106.72922 190.505903 
L 107.738034 190.614033 
L 108.141559 190.674896 
L 109.352136 190.88072 
L 109.553898 193.736536 
L 110.966237 193.798071 
L 111.470644 193.890574 
L 111.672407 194.748895 
L 112.782102 194.803061 
L 112.882983 196.495823 
L 112.983864 196.481425 
L 114.698847 196.694043 
L 114.90061 196.825149 
L 115.909424 196.887252 
L 117.523525 197.135598 
L 117.624407 197.155624 
L 117.826169 197.307237 
L 118.128814 197.314195 
L 118.330576 197.355883 
L 118.63322 197.52132 
L 118.834983 197.532697 
L 119.238508 198.115029 
L 119.33939 198.131928 
L 119.642034 200.784253 
L 120.348203 200.902113 
L 120.549966 202.295492 
L 120.751729 202.791694 
L 120.953492 202.846545 
L 121.155254 203.219883 
L 121.457898 203.312558 
L 122.365831 203.471936 
L 122.668475 203.571801 
L 122.769356 203.580054 
L 122.971119 204.954959 
L 123.475525 205.166155 
L 123.879051 208.433268 
L 124.080814 208.478862 
L 124.282576 209.654412 
L 124.383458 209.661912 
L 124.484339 210.101016 
L 124.58522 212.178556 
L 124.686102 212.165857 
L 124.988746 212.165046 
L 125.190508 213.100343 
L 125.392271 213.564717 
L 125.493153 213.84734 
L 125.694915 214.552277 
L 126.199322 214.617731 
L 126.401085 215.040924 
L 127.006373 215.222533 
L 127.914305 215.42268 
L 128.721356 215.483278 
L 130.032814 215.625574 
L 130.234576 216.268009 
L 130.436339 216.278412 
L 130.638102 216.748908 
L 131.24339 216.809941 
L 131.949559 216.82694 
L 132.453966 216.891823 
L 132.655729 217.186146 
L 132.75661 217.20708 
L 132.857492 218.046704 
L 133.059254 220.030379 
L 133.261017 220.021755 
L 133.46278 221.375822 
L 133.664542 222.69289 
L 134.068068 223.567698 
L 134.168949 223.575704 
L 134.269831 224.486156 
L 134.471593 227.734415 
L 134.774237 228.726588 
L 134.976 228.803968 
L 135.278644 228.861085 
L 135.480407 230.668425 
L 135.984814 230.795559 
L 136.186576 231.034137 
L 137.094508 231.148216 
L 137.699797 231.160335 
L 137.800678 231.160657 
L 137.901559 231.926157 
L 138.002441 231.911288 
L 138.204203 231.919446 
L 138.405966 232.605574 
L 143.14739 232.934695 
L 143.248271 232.92734 
L 143.450034 233.063243 
L 150.713492 233.243797 
L 153.134644 233.495158 
L 154.950508 233.705262 
L 155.555797 233.696521 
L 156.261966 233.748861 
L 158.582237 233.774783 
L 159.490169 233.749227 
L 159.591051 235.223914 
L 159.691932 235.216722 
L 160.095458 235.211303 
L 160.498983 235.207948 
L 160.700746 237.083453 
L 161.306034 237.18189 
L 161.507797 237.212246 
L 161.709559 238.765055 
L 162.012203 238.802645 
L 162.213966 239.446408 
L 162.415729 239.671081 
L 163.323661 239.822447 
L 164.029831 239.873052 
L 164.736 239.894828 
L 166.652746 239.916762 
L 167.560678 239.926918 
L 169.780068 239.976574 
L 170.486237 240.00612 
L 171.696814 240.035615 
L 173.109153 240.015976 
L 173.310915 240.056918 
L 174.42061 240.125182 
L 175.12678 240.190303 
L 176.64 240.317336 
L 178.052339 240.338396 
L 179.061153 240.324822 
L 183.298169 240.412386 
L 184.306983 240.429638 
L 186.122847 240.514747 
L 195.706576 241.066668 
L 198.833898 241.089567 
L 199.237424 241.116738 
L 202.465627 241.111074 
L 202.970034 241.134918 
L 204.079729 241.194934 
L 204.88678 241.255864 
L 205.794712 241.335853 
L 206.4 241.383634 
L 207.711458 241.357094 
L 208.014102 241.341334 
L 208.518508 241.368641 
L 209.527322 241.369912 
L 215.983729 241.538042 
L 216.08461 242.433297 
L 216.185492 242.419973 
L 216.689898 242.482359 
L 216.891661 243.442611 
L 217.093424 243.455154 
L 217.295186 244.054375 
L 217.496949 244.037898 
L 217.698712 244.602261 
L 217.799593 244.592009 
L 218.001356 245.919033 
L 218.304 247.042994 
L 218.606644 247.055763 
L 218.808407 247.310538 
L 221.431322 247.315464 
L 224.256 247.413934 
L 224.760407 247.464059 
L 226.273627 247.565023 
L 226.576271 247.631142 
L 228.69478 247.541935 
L 233.335322 247.621306 
L 233.537085 248.160161 
L 233.738847 249.826212 
L 233.94061 251.698417 
L 234.545898 251.701842 
L 235.050305 252.406384 
L 237.370576 252.527722 
L 237.572339 253.148398 
L 237.774102 253.155329 
L 237.975864 253.434459 
L 239.186441 253.436505 
L 240.094373 253.434439 
L 240.59878 253.455055 
L 244.230508 253.508453 
L 244.734915 253.489593 
L 251.393085 253.609608 
L 252.200136 253.61717 
L 253.915119 253.663064 
L 256.437153 253.707561 
L 258.353898 253.680622 
L 259.968 253.692242 
L 262.792678 253.750308 
L 263.196203 253.778072 
L 264.911186 253.774693 
L 275.503729 253.967084 
L 275.705492 254.22941 
L 276.714305 254.367655 
L 276.916068 254.893023 
L 277.117831 255.081216 
L 277.319593 255.090291 
L 277.521356 258.318528 
L 279.33722 258.311338 
L 279.538983 258.547754 
L 285.087458 258.605257 
L 285.28922 258.833122 
L 286.197153 258.816504 
L 286.600678 258.817859 
L 289.627119 258.86163 
L 289.828881 259.404704 
L 291.442983 259.491238 
L 291.644746 259.565921 
L 293.258847 259.609802 
L 293.561492 259.805411 
L 293.763254 262.000815 
L 293.965017 264.668986 
L 294.16678 264.721253 
L 294.368542 264.967769 
L 294.570305 265.02926 
L 294.772068 265.644048 
L 294.872949 265.638616 
L 295.074712 266.042089 
L 295.276475 266.082494 
L 295.478237 268.797518 
L 295.579119 268.795322 
L 295.780881 270.821585 
L 296.184407 270.822811 
L 296.487051 271.343293 
L 297.596746 271.542071 
L 299.210847 271.855737 
L 299.513492 272.427899 
L 299.614373 272.422639 
L 299.715254 272.717354 
L 299.816136 273.365607 
L 300.017898 276.027121 
L 300.320542 277.065757 
L 300.522305 277.09278 
L 300.724068 277.321001 
L 301.026712 277.419162 
L 310.106034 277.485346 
L 310.812203 277.49424 
L 313.939525 277.525081 
L 315.654508 277.511165 
L 316.965966 277.500595 
L 318.378305 277.429271 
L 321.606508 277.474487 
L 322.211797 277.477497 
L 322.817085 277.498898 
L 327.558508 277.541359 
L 328.466441 277.535253 
L 329.273492 277.566456 
L 330.685831 277.605635 
L 339.159864 277.611711 
L 339.361627 277.872402 
L 339.56339 277.882869 
L 339.866034 279.966812 
L 339.966915 279.982503 
L 340.168678 280.793128 
L 340.370441 280.800102 
L 340.572203 282.0796 
L 340.673085 282.090989 
L 340.874847 282.694861 
L 340.975729 282.684509 
L 341.177492 283.179725 
L 341.278373 283.17395 
L 341.581017 283.396339 
L 342.791593 283.428901 
L 344.405695 283.396865 
L 350.357695 283.405471 
L 351.164746 283.412101 
L 351.870915 283.425936 
L 353.081492 283.374481 
L 354.594712 283.368317 
L 356.107932 283.412846 
L 360.344949 283.408075 
L 361.252881 283.377443 
L 362.059932 283.429671 
L 363.774915 283.503239 
L 367.003119 283.588594 
L 368.314576 283.528306 
L 368.61722 283.601646 
L 369.222508 283.644702 
L 376.082441 283.820658 
L 376.385085 285.456706 
L 377.091254 285.467435 
L 377.293017 286.805546 
L 377.696542 286.813984 
L 377.898305 287.254795 
L 378.301831 287.265925 
L 378.503593 288.115759 
L 378.806237 288.113433 
L 379.008 288.270813 
L 379.209763 288.259047 
L 379.512407 289.32157 
L 379.915932 289.292585 
L 380.117695 289.439503 
L 381.025627 289.473129 
L 381.731797 289.493493 
L 382.135322 289.545364 
L 383.951186 289.586499 
L 385.464407 289.599652 
L 395.754305 289.607622 
L 396.258712 289.639578 
L 397.570169 289.617115 
L 398.175458 289.636779 
L 398.276339 289.647251 
L 398.37722 289.834548 
L 398.578983 290.654955 
L 398.679864 290.63803 
L 398.780746 291.053884 
L 398.982508 292.735217 
L 399.386034 292.7384 
L 399.587797 293.430228 
L 399.789559 293.809709 
L 400.293966 293.815764 
L 400.899254 293.82494 
L 401.101017 294.025152 
L 401.30278 294.015899 
L 401.504542 294.795466 
L 401.706305 294.81714 
L 401.908068 295.216238 
L 402.109831 295.297393 
L 402.614237 295.385809 
L 405.03539 295.431759 
L 406.346847 295.422885 
L 414.619119 295.472445 
L 414.619119 295.472445 
" clip-path="url(#p2c9f95da7f)" style="fill: none; stroke: #1f77b4; stroke-opacity: 0.3; stroke-width: 1.5; stroke-linecap: square"/>
   </g>
   <g id="patch_3">
    <path d="M 57.6 307.584 
L 57.6 41.472 
" style="fill: none; stroke: #000000; stroke-width: 0.8; stroke-linejoin: miter; stroke-linecap: square"/>
   </g>
   <g id="patch_4">
    <path d="M 414.72 307.584 
L 414.72 41.472 
" style="fill: none; stroke: #000000; stroke-width: 0.8; stroke-linejoin: miter; stroke-linecap: square"/>
   </g>
   <g id="patch_5">
    <path d="M 57.6 307.584 
L 414.72 307.584 
" style="fill: none; stroke: #000000; stroke-width: 0.8; stroke-linejoin: miter; stroke-linecap: square"/>
   </g>
   <g id="patch_6">
    <path d="M 57.6 41.472 
L 414.72 41.472 
" style="fill: none; stroke: #000000; stroke-width: 0.8; stroke-linejoin: miter; stroke-linecap: square"/>
   </g>
   <g id="text_19">
    <!-- Average $\chi^2$ by Step -->
    <g transform="translate(177.72 35.472)scale(0.12 -0.12)">
     <defs>
      <path id="DejaVuSans-41" d="M 2188 4044 
L 1331 1722 
L 3047 1722 
L 2188 4044 
z
M 1831 4666 
L 2547 4666 
L 4325 0 
L 3669 0 
L 3244 1197 
L 1141 1197 
L 716 0 
L 50 0 
L 1831 4666 
z
" transform="scale(0.015625)"/>
      <path id="DejaVuSans-76" d="M 191 3500 
L 800 3500 
L 1894 563 
L 2988 3500 
L 3597 3500 
L 2284 0 
L 1503 0 
L 191 3500 
z
" transform="scale(0.015625)"/>
      <path id="DejaVuSans-72" d="M 2631 2963 
Q 2534 3019 2420 3045 
Q 2306 3072 2169 3072 
Q 1681 3072 1420 2755 
Q 1159 2438 1159 1844 
L 1159 0 
L 581 0 
L 581 3500 
L 1159 3500 
L 1159 2956 
Q 1341 3275 1631 3429 
Q 1922 3584 2338 3584 
Q 2397 3584 2469 3576 
Q 2541 3569 2628 3553 
L 2631 2963 
z
" transform="scale(0.015625)"/>
      <path id="DejaVuSans-61" d="M 2194 1759 
Q 1497 1759 1228 1600 
Q 959 1441 959 1056 
Q 959 750 1161 570 
Q 1363 391 1709 391 
Q 2188 391 2477 730 
Q 2766 1069 2766 1631 
L 2766 1759 
L 2194 1759 
z
M 3341 1997 
L 3341 0 
L 2766 0 
L 2766 531 
Q 2569 213 2275 61 
Q 1981 -91 1556 -91 
Q 1019 -91 701 211 
Q 384 513 384 1019 
Q 384 1609 779 1909 
Q 1175 2209 1959 2209 
L 2766 2209 
L 2766 2266 
Q 2766 2663 2505 2880 
Q 2244 3097 1772 3097 
Q 1472 3097 1187 3025 
Q 903 2953 641 2809 
L 641 3341 
Q 956 3463 1253 3523 
Q 1550 3584 1831 3584 
Q 2591 3584 2966 3190 
Q 3341 2797 3341 1997 
z
" transform="scale(0.015625)"/>
      <path id="DejaVuSans-67" d="M 2906 1791 
Q 2906 2416 2648 2759 
Q 2391 3103 1925 3103 
Q 1463 3103 1205 2759 
Q 947 2416 947 1791 
Q 947 1169 1205 825 
Q 1463 481 1925 481 
Q 2391 481 2648 825 
Q 2906 1169 2906 1791 
z
M 3481 434 
Q 3481 -459 3084 -895 
Q 2688 -1331 1869 -1331 
Q 1566 -1331 1297 -1286 
Q 1028 -1241 775 -1147 
L 775 -588 
Q 1028 -725 1275 -790 
Q 1522 -856 1778 -856 
Q 2344 -856 2625 -561 
Q 2906 -266 2906 331 
L 2906 616 
Q 2728 306 2450 153 
Q 2172 0 1784 0 
Q 1141 0 747 490 
Q 353 981 353 1791 
Q 353 2603 747 3093 
Q 1141 3584 1784 3584 
Q 2172 3584 2450 3431 
Q 2728 3278 2906 2969 
L 2906 3500 
L 3481 3500 
L 3481 434 
z
" transform="scale(0.015625)"/>
      <path id="DejaVuSans-20" transform="scale(0.015625)"/>
      <path id="DejaVuSans-62" d="M 3116 1747 
Q 3116 2381 2855 2742 
Q 2594 3103 2138 3103 
Q 1681 3103 1420 2742 
Q 1159 2381 1159 1747 
Q 1159 1113 1420 752 
Q 1681 391 2138 391 
Q 2594 391 2855 752 
Q 3116 1113 3116 1747 
z
M 1159 2969 
Q 1341 3281 1617 3432 
Q 1894 3584 2278 3584 
Q 2916 3584 3314 3078 
Q 3713 2572 3713 1747 
Q 3713 922 3314 415 
Q 2916 -91 2278 -91 
Q 1894 -91 1617 61 
Q 1341 213 1159 525 
L 1159 0 
L 581 0 
L 581 4863 
L 1159 4863 
L 1159 2969 
z
" transform="scale(0.015625)"/>
      <path id="DejaVuSans-79" d="M 2059 -325 
Q 1816 -950 1584 -1140 
Q 1353 -1331 966 -1331 
L 506 -1331 
L 506 -850 
L 844 -850 
Q 1081 -850 1212 -737 
Q 1344 -625 1503 -206 
L 1606 56 
L 191 3500 
L 800 3500 
L 1894 763 
L 2988 3500 
L 3597 3500 
L 2059 -325 
z
" transform="scale(0.015625)"/>
      <path id="DejaVuSans-53" d="M 3425 4513 
L 3425 3897 
Q 3066 4069 2747 4153 
Q 2428 4238 2131 4238 
Q 1616 4238 1336 4038 
Q 1056 3838 1056 3469 
Q 1056 3159 1242 3001 
Q 1428 2844 1947 2747 
L 2328 2669 
Q 3034 2534 3370 2195 
Q 3706 1856 3706 1288 
Q 3706 609 3251 259 
Q 2797 -91 1919 -91 
Q 1588 -91 1214 -16 
Q 841 59 441 206 
L 441 856 
Q 825 641 1194 531 
Q 1563 422 1919 422 
Q 2459 422 2753 634 
Q 3047 847 3047 1241 
Q 3047 1584 2836 1778 
Q 2625 1972 2144 2069 
L 1759 2144 
Q 1053 2284 737 2584 
Q 422 2884 422 3419 
Q 422 4038 858 4394 
Q 1294 4750 2059 4750 
Q 2388 4750 2728 4690 
Q 3069 4631 3425 4513 
z
" transform="scale(0.015625)"/>
     </defs>
     <use xlink:href="#DejaVuSans-41" transform="translate(0 0.765625)"/>
     <use xlink:href="#DejaVuSans-76" transform="translate(68.408203 0.765625)"/>
     <use xlink:href="#DejaVuSans-65" transform="translate(127.587891 0.765625)"/>
     <use xlink:href="#DejaVuSans-72" transform="translate(189.111328 0.765625)"/>
     <use xlink:href="#DejaVuSans-61" transform="translate(230.224609 0.765625)"/>
     <use xlink:href="#DejaVuSans-67" transform="translate(291.503906 0.765625)"/>
     <use xlink:href="#DejaVuSans-65" transform="translate(354.980469 0.765625)"/>
     <use xlink:href="#DejaVuSans-20" transform="translate(416.503906 0.765625)"/>
     <use xlink:href="#DejaVuSans-Oblique-3c7" transform="translate(448.291016 0.765625)"/>
     <use xlink:href="#DejaVuSans-32" transform="translate(511.943411 39.046875)scale(0.7)"/>
     <use xlink:href="#DejaVuSans-20" transform="translate(559.213919 0.765625)"/>
     <use xlink:href="#DejaVuSans-62" transform="translate(591.001029 0.765625)"/>
     <use xlink:href="#DejaVuSans-79" transform="translate(654.477591 0.765625)"/>
     <use xlink:href="#DejaVuSans-20" transform="translate(713.657279 0.765625)"/>
     <use xlink:href="#DejaVuSans-53" transform="translate(745.444388 0.765625)"/>
     <use xlink:href="#DejaVuSans-74" transform="translate(808.920951 0.765625)"/>
     <use xlink:href="#DejaVuSans-65" transform="translate(848.129935 0.765625)"/>
     <use xlink:href="#DejaVuSans-70" transform="translate(909.653372 0.765625)"/>
    </g>
   </g>
  </g>
 </g>
 <defs>
  <clipPath id="p2c9f95da7f">
   <rect x="57.6" y="41.472" width="357.12" height="266.112"/>
  </clipPath>
 </defs>
</svg>
