<?xml version="1.0" encoding="utf-8" standalone="no"?>
<!DOCTYPE svg PUBLIC "-//W3C//DTD SVG 1.1//EN"
  "http://www.w3.org/Graphics/SVG/1.1/DTD/svg11.dtd">
<svg xmlns:xlink="http://www.w3.org/1999/xlink" width="460.8pt" height="345.6pt" viewBox="0 0 460.8 345.6" xmlns="http://www.w3.org/2000/svg" version="1.1">
 <metadata>
  <rdf:RDF xmlns:dc="http://purl.org/dc/elements/1.1/" xmlns:cc="http://creativecommons.org/ns#" xmlns:rdf="http://www.w3.org/1999/02/22-rdf-syntax-ns#">
   <cc:Work>
    <dc:type rdf:resource="http://purl.org/dc/dcmitype/StillImage"/>
    <dc:date>2022-07-23T14:10:14.445474</dc:date>
    <dc:format>image/svg+xml</dc:format>
    <dc:creator>
     <cc:Agent>
      <dc:title>Matplotlib v3.5.0, https://matplotlib.org/</dc:title>
     </cc:Agent>
    </dc:creator>
   </cc:Work>
  </rdf:RDF>
 </metadata>
 <defs>
  <style type="text/css">*{stroke-linejoin: round; stroke-linecap: butt}</style>
 </defs>
 <g id="figure_1">
  <g id="patch_1">
   <path d="M 0 345.6 
L 460.8 345.6 
L 460.8 0 
L 0 0 
z
" style="fill: #ffffff"/>
  </g>
  <g id="axes_1">
   <g id="patch_2">
    <path d="M 57.6 307.584 
L 414.72 307.584 
L 414.72 41.472 
L 57.6 41.472 
z
" style="fill: #ffffff"/>
   </g>
   <g id="matplotlib.axis_1">
    <g id="xtick_1">
     <g id="line2d_1">
      <defs>
       <path id="me9a963e493" d="M 0 0 
L 0 3.5 
" style="stroke: #000000; stroke-width: 0.8"/>
      </defs>
      <g>
       <use xlink:href="#me9a963e493" x="94.716817" y="307.584" style="stroke: #000000; stroke-width: 0.8"/>
      </g>
     </g>
     <g id="text_1">
      <!-- $\mathdefault{10^{9}}$ -->
      <g transform="translate(85.916817 322.182437)scale(0.1 -0.1)">
       <defs>
        <path id="DejaVuSans-31" d="M 794 531 
L 1825 531 
L 1825 4091 
L 703 3866 
L 703 4441 
L 1819 4666 
L 2450 4666 
L 2450 531 
L 3481 531 
L 3481 0 
L 794 0 
L 794 531 
z
" transform="scale(0.015625)"/>
        <path id="DejaVuSans-30" d="M 2034 4250 
Q 1547 4250 1301 3770 
Q 1056 3291 1056 2328 
Q 1056 1369 1301 889 
Q 1547 409 2034 409 
Q 2525 409 2770 889 
Q 3016 1369 3016 2328 
Q 3016 3291 2770 3770 
Q 2525 4250 2034 4250 
z
M 2034 4750 
Q 2819 4750 3233 4129 
Q 3647 3509 3647 2328 
Q 3647 1150 3233 529 
Q 2819 -91 2034 -91 
Q 1250 -91 836 529 
Q 422 1150 422 2328 
Q 422 3509 836 4129 
Q 1250 4750 2034 4750 
z
" transform="scale(0.015625)"/>
        <path id="DejaVuSans-39" d="M 703 97 
L 703 672 
Q 941 559 1184 500 
Q 1428 441 1663 441 
Q 2288 441 2617 861 
Q 2947 1281 2994 2138 
Q 2813 1869 2534 1725 
Q 2256 1581 1919 1581 
Q 1219 1581 811 2004 
Q 403 2428 403 3163 
Q 403 3881 828 4315 
Q 1253 4750 1959 4750 
Q 2769 4750 3195 4129 
Q 3622 3509 3622 2328 
Q 3622 1225 3098 567 
Q 2575 -91 1691 -91 
Q 1453 -91 1209 -44 
Q 966 3 703 97 
z
M 1959 2075 
Q 2384 2075 2632 2365 
Q 2881 2656 2881 3163 
Q 2881 3666 2632 3958 
Q 2384 4250 1959 4250 
Q 1534 4250 1286 3958 
Q 1038 3666 1038 3163 
Q 1038 2656 1286 2365 
Q 1534 2075 1959 2075 
z
" transform="scale(0.015625)"/>
       </defs>
       <use xlink:href="#DejaVuSans-31" transform="translate(0 0.765625)"/>
       <use xlink:href="#DejaVuSans-30" transform="translate(63.623047 0.765625)"/>
       <use xlink:href="#DejaVuSans-39" transform="translate(128.203125 39.046875)scale(0.7)"/>
      </g>
     </g>
    </g>
    <g id="xtick_2">
     <g id="line2d_2">
      <g>
       <use xlink:href="#me9a963e493" x="142.872715" y="307.584" style="stroke: #000000; stroke-width: 0.8"/>
      </g>
     </g>
     <g id="text_2">
      <!-- $\mathdefault{10^{12}}$ -->
      <g transform="translate(131.822715 322.182437)scale(0.1 -0.1)">
       <defs>
        <path id="DejaVuSans-32" d="M 1228 531 
L 3431 531 
L 3431 0 
L 469 0 
L 469 531 
Q 828 903 1448 1529 
Q 2069 2156 2228 2338 
Q 2531 2678 2651 2914 
Q 2772 3150 2772 3378 
Q 2772 3750 2511 3984 
Q 2250 4219 1831 4219 
Q 1534 4219 1204 4116 
Q 875 4013 500 3803 
L 500 4441 
Q 881 4594 1212 4672 
Q 1544 4750 1819 4750 
Q 2544 4750 2975 4387 
Q 3406 4025 3406 3419 
Q 3406 3131 3298 2873 
Q 3191 2616 2906 2266 
Q 2828 2175 2409 1742 
Q 1991 1309 1228 531 
z
" transform="scale(0.015625)"/>
       </defs>
       <use xlink:href="#DejaVuSans-31" transform="translate(0 0.765625)"/>
       <use xlink:href="#DejaVuSans-30" transform="translate(63.623047 0.765625)"/>
       <use xlink:href="#DejaVuSans-31" transform="translate(128.203125 39.046875)scale(0.7)"/>
       <use xlink:href="#DejaVuSans-32" transform="translate(172.739258 39.046875)scale(0.7)"/>
      </g>
     </g>
    </g>
    <g id="xtick_3">
     <g id="line2d_3">
      <g>
       <use xlink:href="#me9a963e493" x="191.028613" y="307.584" style="stroke: #000000; stroke-width: 0.8"/>
      </g>
     </g>
     <g id="text_3">
      <!-- $\mathdefault{10^{15}}$ -->
      <g transform="translate(179.978613 322.182437)scale(0.1 -0.1)">
       <defs>
        <path id="DejaVuSans-35" d="M 691 4666 
L 3169 4666 
L 3169 4134 
L 1269 4134 
L 1269 2991 
Q 1406 3038 1543 3061 
Q 1681 3084 1819 3084 
Q 2600 3084 3056 2656 
Q 3513 2228 3513 1497 
Q 3513 744 3044 326 
Q 2575 -91 1722 -91 
Q 1428 -91 1123 -41 
Q 819 9 494 109 
L 494 744 
Q 775 591 1075 516 
Q 1375 441 1709 441 
Q 2250 441 2565 725 
Q 2881 1009 2881 1497 
Q 2881 1984 2565 2268 
Q 2250 2553 1709 2553 
Q 1456 2553 1204 2497 
Q 953 2441 691 2322 
L 691 4666 
z
" transform="scale(0.015625)"/>
       </defs>
       <use xlink:href="#DejaVuSans-31" transform="translate(0 0.684375)"/>
       <use xlink:href="#DejaVuSans-30" transform="translate(63.623047 0.684375)"/>
       <use xlink:href="#DejaVuSans-31" transform="translate(128.203125 38.965625)scale(0.7)"/>
       <use xlink:href="#DejaVuSans-35" transform="translate(172.739258 38.965625)scale(0.7)"/>
      </g>
     </g>
    </g>
    <g id="xtick_4">
     <g id="line2d_4">
      <g>
       <use xlink:href="#me9a963e493" x="239.184511" y="307.584" style="stroke: #000000; stroke-width: 0.8"/>
      </g>
     </g>
     <g id="text_4">
      <!-- $\mathdefault{10^{18}}$ -->
      <g transform="translate(228.134511 322.182437)scale(0.1 -0.1)">
       <defs>
        <path id="DejaVuSans-38" d="M 2034 2216 
Q 1584 2216 1326 1975 
Q 1069 1734 1069 1313 
Q 1069 891 1326 650 
Q 1584 409 2034 409 
Q 2484 409 2743 651 
Q 3003 894 3003 1313 
Q 3003 1734 2745 1975 
Q 2488 2216 2034 2216 
z
M 1403 2484 
Q 997 2584 770 2862 
Q 544 3141 544 3541 
Q 544 4100 942 4425 
Q 1341 4750 2034 4750 
Q 2731 4750 3128 4425 
Q 3525 4100 3525 3541 
Q 3525 3141 3298 2862 
Q 3072 2584 2669 2484 
Q 3125 2378 3379 2068 
Q 3634 1759 3634 1313 
Q 3634 634 3220 271 
Q 2806 -91 2034 -91 
Q 1263 -91 848 271 
Q 434 634 434 1313 
Q 434 1759 690 2068 
Q 947 2378 1403 2484 
z
M 1172 3481 
Q 1172 3119 1398 2916 
Q 1625 2713 2034 2713 
Q 2441 2713 2670 2916 
Q 2900 3119 2900 3481 
Q 2900 3844 2670 4047 
Q 2441 4250 2034 4250 
Q 1625 4250 1398 4047 
Q 1172 3844 1172 3481 
z
" transform="scale(0.015625)"/>
       </defs>
       <use xlink:href="#DejaVuSans-31" transform="translate(0 0.765625)"/>
       <use xlink:href="#DejaVuSans-30" transform="translate(63.623047 0.765625)"/>
       <use xlink:href="#DejaVuSans-31" transform="translate(128.203125 39.046875)scale(0.7)"/>
       <use xlink:href="#DejaVuSans-38" transform="translate(172.739258 39.046875)scale(0.7)"/>
      </g>
     </g>
    </g>
    <g id="xtick_5">
     <g id="line2d_5">
      <g>
       <use xlink:href="#me9a963e493" x="287.34041" y="307.584" style="stroke: #000000; stroke-width: 0.8"/>
      </g>
     </g>
     <g id="text_5">
      <!-- $\mathdefault{10^{21}}$ -->
      <g transform="translate(276.29041 322.182437)scale(0.1 -0.1)">
       <use xlink:href="#DejaVuSans-31" transform="translate(0 0.765625)"/>
       <use xlink:href="#DejaVuSans-30" transform="translate(63.623047 0.765625)"/>
       <use xlink:href="#DejaVuSans-32" transform="translate(128.203125 39.046875)scale(0.7)"/>
       <use xlink:href="#DejaVuSans-31" transform="translate(172.739258 39.046875)scale(0.7)"/>
      </g>
     </g>
    </g>
    <g id="xtick_6">
     <g id="line2d_6">
      <g>
       <use xlink:href="#me9a963e493" x="335.496308" y="307.584" style="stroke: #000000; stroke-width: 0.8"/>
      </g>
     </g>
     <g id="text_6">
      <!-- $\mathdefault{10^{24}}$ -->
      <g transform="translate(324.446308 322.182437)scale(0.1 -0.1)">
       <defs>
        <path id="DejaVuSans-34" d="M 2419 4116 
L 825 1625 
L 2419 1625 
L 2419 4116 
z
M 2253 4666 
L 3047 4666 
L 3047 1625 
L 3713 1625 
L 3713 1100 
L 3047 1100 
L 3047 0 
L 2419 0 
L 2419 1100 
L 313 1100 
L 313 1709 
L 2253 4666 
z
" transform="scale(0.015625)"/>
       </defs>
       <use xlink:href="#DejaVuSans-31" transform="translate(0 0.765625)"/>
       <use xlink:href="#DejaVuSans-30" transform="translate(63.623047 0.765625)"/>
       <use xlink:href="#DejaVuSans-32" transform="translate(128.203125 39.046875)scale(0.7)"/>
       <use xlink:href="#DejaVuSans-34" transform="translate(172.739258 39.046875)scale(0.7)"/>
      </g>
     </g>
    </g>
    <g id="xtick_7">
     <g id="line2d_7">
      <g>
       <use xlink:href="#me9a963e493" x="383.652206" y="307.584" style="stroke: #000000; stroke-width: 0.8"/>
      </g>
     </g>
     <g id="text_7">
      <!-- $\mathdefault{10^{27}}$ -->
      <g transform="translate(372.602206 322.182437)scale(0.1 -0.1)">
       <defs>
        <path id="DejaVuSans-37" d="M 525 4666 
L 3525 4666 
L 3525 4397 
L 1831 0 
L 1172 0 
L 2766 4134 
L 525 4134 
L 525 4666 
z
" transform="scale(0.015625)"/>
       </defs>
       <use xlink:href="#DejaVuSans-31" transform="translate(0 0.765625)"/>
       <use xlink:href="#DejaVuSans-30" transform="translate(63.623047 0.765625)"/>
       <use xlink:href="#DejaVuSans-32" transform="translate(128.203125 39.046875)scale(0.7)"/>
       <use xlink:href="#DejaVuSans-37" transform="translate(172.739258 39.046875)scale(0.7)"/>
      </g>
     </g>
    </g>
    <g id="text_8">
     <!-- $\nu$ -->
     <g transform="translate(233.36 335.860562)scale(0.1 -0.1)">
      <defs>
       <path id="DejaVuSans-Oblique-3bd" d="M 959 0 
L 572 3500 
L 1191 3500 
L 1522 563 
Q 1972 950 2391 1488 
Q 2706 1891 2788 2241 
Q 2825 2406 2809 2719 
Q 2794 3091 2544 3500 
L 3125 3500 
L 3125 3500 
Q 3288 3222 3353 2834 
Q 3416 2478 3369 2234 
Q 3250 1622 2719 1075 
Q 2025 363 1572 0 
L 959 0 
z
" transform="scale(0.015625)"/>
      </defs>
      <use xlink:href="#DejaVuSans-Oblique-3bd" transform="translate(0 0.3125)"/>
     </g>
    </g>
   </g>
   <g id="matplotlib.axis_2">
    <g id="ytick_1">
     <g id="line2d_8">
      <defs>
       <path id="m3ffe26ea7c" d="M 0 0 
L -3.5 0 
" style="stroke: #000000; stroke-width: 0.8"/>
      </defs>
      <g>
       <use xlink:href="#m3ffe26ea7c" x="57.6" y="220.77959" style="stroke: #000000; stroke-width: 0.8"/>
      </g>
     </g>
     <g id="text_9">
      <!-- $\mathdefault{10^{-11}}$ -->
      <g transform="translate(22.7 224.578809)scale(0.1 -0.1)">
       <defs>
        <path id="DejaVuSans-2212" d="M 678 2272 
L 4684 2272 
L 4684 1741 
L 678 1741 
L 678 2272 
z
" transform="scale(0.015625)"/>
       </defs>
       <use xlink:href="#DejaVuSans-31" transform="translate(0 0.684375)"/>
       <use xlink:href="#DejaVuSans-30" transform="translate(63.623047 0.684375)"/>
       <use xlink:href="#DejaVuSans-2212" transform="translate(128.203125 38.965625)scale(0.7)"/>
       <use xlink:href="#DejaVuSans-31" transform="translate(186.855469 38.965625)scale(0.7)"/>
       <use xlink:href="#DejaVuSans-31" transform="translate(231.391602 38.965625)scale(0.7)"/>
      </g>
     </g>
    </g>
    <g id="ytick_2">
     <g id="line2d_9">
      <g>
       <use xlink:href="#m3ffe26ea7c" x="57.6" y="93.907999" style="stroke: #000000; stroke-width: 0.8"/>
      </g>
     </g>
     <g id="text_10">
      <!-- $\mathdefault{10^{-10}}$ -->
      <g transform="translate(22.7 97.707217)scale(0.1 -0.1)">
       <use xlink:href="#DejaVuSans-31" transform="translate(0 0.765625)"/>
       <use xlink:href="#DejaVuSans-30" transform="translate(63.623047 0.765625)"/>
       <use xlink:href="#DejaVuSans-2212" transform="translate(128.203125 39.046875)scale(0.7)"/>
       <use xlink:href="#DejaVuSans-31" transform="translate(186.855469 39.046875)scale(0.7)"/>
       <use xlink:href="#DejaVuSans-30" transform="translate(231.391602 39.046875)scale(0.7)"/>
      </g>
     </g>
    </g>
    <g id="ytick_3">
     <g id="line2d_10">
      <defs>
       <path id="m7370ccb4fe" d="M 0 0 
L -2 0 
" style="stroke: #000000; stroke-width: 0.6"/>
      </defs>
      <g>
       <use xlink:href="#m7370ccb4fe" x="57.6" y="287.118048" style="stroke: #000000; stroke-width: 0.6"/>
      </g>
     </g>
    </g>
    <g id="ytick_4">
     <g id="line2d_11">
      <g>
       <use xlink:href="#m7370ccb4fe" x="57.6" y="271.266872" style="stroke: #000000; stroke-width: 0.6"/>
      </g>
     </g>
    </g>
    <g id="ytick_5">
     <g id="line2d_12">
      <g>
       <use xlink:href="#m7370ccb4fe" x="57.6" y="258.971745" style="stroke: #000000; stroke-width: 0.6"/>
      </g>
     </g>
    </g>
    <g id="ytick_6">
     <g id="line2d_13">
      <g>
       <use xlink:href="#m7370ccb4fe" x="57.6" y="248.925894" style="stroke: #000000; stroke-width: 0.6"/>
      </g>
     </g>
    </g>
    <g id="ytick_7">
     <g id="line2d_14">
      <g>
       <use xlink:href="#m7370ccb4fe" x="57.6" y="240.432248" style="stroke: #000000; stroke-width: 0.6"/>
      </g>
     </g>
    </g>
    <g id="ytick_8">
     <g id="line2d_15">
      <g>
       <use xlink:href="#m7370ccb4fe" x="57.6" y="233.074718" style="stroke: #000000; stroke-width: 0.6"/>
      </g>
     </g>
    </g>
    <g id="ytick_9">
     <g id="line2d_16">
      <g>
       <use xlink:href="#m7370ccb4fe" x="57.6" y="226.584916" style="stroke: #000000; stroke-width: 0.6"/>
      </g>
     </g>
    </g>
    <g id="ytick_10">
     <g id="line2d_17">
      <g>
       <use xlink:href="#m7370ccb4fe" x="57.6" y="182.587435" style="stroke: #000000; stroke-width: 0.6"/>
      </g>
     </g>
    </g>
    <g id="ytick_11">
     <g id="line2d_18">
      <g>
       <use xlink:href="#m7370ccb4fe" x="57.6" y="160.246457" style="stroke: #000000; stroke-width: 0.6"/>
      </g>
     </g>
    </g>
    <g id="ytick_12">
     <g id="line2d_19">
      <g>
       <use xlink:href="#m7370ccb4fe" x="57.6" y="144.395281" style="stroke: #000000; stroke-width: 0.6"/>
      </g>
     </g>
    </g>
    <g id="ytick_13">
     <g id="line2d_20">
      <g>
       <use xlink:href="#m7370ccb4fe" x="57.6" y="132.100153" style="stroke: #000000; stroke-width: 0.6"/>
      </g>
     </g>
    </g>
    <g id="ytick_14">
     <g id="line2d_21">
      <g>
       <use xlink:href="#m7370ccb4fe" x="57.6" y="122.054303" style="stroke: #000000; stroke-width: 0.6"/>
      </g>
     </g>
    </g>
    <g id="ytick_15">
     <g id="line2d_22">
      <g>
       <use xlink:href="#m7370ccb4fe" x="57.6" y="113.560657" style="stroke: #000000; stroke-width: 0.6"/>
      </g>
     </g>
    </g>
    <g id="ytick_16">
     <g id="line2d_23">
      <g>
       <use xlink:href="#m7370ccb4fe" x="57.6" y="106.203126" style="stroke: #000000; stroke-width: 0.6"/>
      </g>
     </g>
    </g>
    <g id="ytick_17">
     <g id="line2d_24">
      <g>
       <use xlink:href="#m7370ccb4fe" x="57.6" y="99.713324" style="stroke: #000000; stroke-width: 0.6"/>
      </g>
     </g>
    </g>
    <g id="ytick_18">
     <g id="line2d_25">
      <g>
       <use xlink:href="#m7370ccb4fe" x="57.6" y="55.715844" style="stroke: #000000; stroke-width: 0.6"/>
      </g>
     </g>
    </g>
    <g id="text_11">
     <!-- $\nu F_{\nu}$ -->
     <g transform="translate(16.620312 182.328)rotate(-90)scale(0.1 -0.1)">
      <defs>
       <path id="DejaVuSans-Oblique-46" d="M 1081 4666 
L 3756 4666 
L 3653 4134 
L 1606 4134 
L 1338 2759 
L 3188 2759 
L 3084 2228 
L 1234 2228 
L 800 0 
L 172 0 
L 1081 4666 
z
" transform="scale(0.015625)"/>
      </defs>
      <use xlink:href="#DejaVuSans-Oblique-3bd" transform="translate(0 0.09375)"/>
      <use xlink:href="#DejaVuSans-Oblique-46" transform="translate(55.859375 0.09375)"/>
      <use xlink:href="#DejaVuSans-Oblique-3bd" transform="translate(113.378906 -16.3125)scale(0.7)"/>
     </g>
    </g>
   </g>
   <g id="line2d_26">
    <defs>
     <path id="m3a011045de" d="M 0 1.5 
C 0.397805 1.5 0.77937 1.341951 1.06066 1.06066 
C 1.341951 0.77937 1.5 0.397805 1.5 0 
C 1.5 -0.397805 1.341951 -0.77937 1.06066 -1.06066 
C 0.77937 -1.341951 0.397805 -1.5 0 -1.5 
C -0.397805 -1.5 -0.77937 -1.341951 -1.06066 -1.06066 
C -1.341951 -0.77937 -1.5 -0.397805 -1.5 0 
C -1.5 0.397805 -1.341951 0.77937 -1.06066 1.06066 
C -0.77937 1.341951 -0.397805 1.5 0 1.5 
z
" style="stroke: #1f77b4"/>
    </defs>
    <g clip-path="url(#p8aa8e4b68b)">
     <use xlink:href="#m3a011045de" x="186.838872" y="137.661134" style="fill: #1f77b4; stroke: #1f77b4"/>
     <use xlink:href="#m3a011045de" x="188.366472" y="130.151437" style="fill: #1f77b4; stroke: #1f77b4"/>
     <use xlink:href="#m3a011045de" x="190.019169" y="130.471474" style="fill: #1f77b4; stroke: #1f77b4"/>
     <use xlink:href="#m3a011045de" x="192.021337" y="133.551697" style="fill: #1f77b4; stroke: #1f77b4"/>
     <use xlink:href="#m3a011045de" x="194.105949" y="135.862292" style="fill: #1f77b4; stroke: #1f77b4"/>
     <use xlink:href="#m3a011045de" x="227.555593" y="241.225062" style="fill: #1f77b4; stroke: #1f77b4"/>
     <use xlink:href="#m3a011045de" x="228.436022" y="247.386445" style="fill: #1f77b4; stroke: #1f77b4"/>
     <use xlink:href="#m3a011045de" x="229.146849" y="234.399124" style="fill: #1f77b4; stroke: #1f77b4"/>
     <use xlink:href="#m3a011045de" x="229.888456" y="238.044609" style="fill: #1f77b4; stroke: #1f77b4"/>
     <use xlink:href="#m3a011045de" x="230.558702" y="226.646171" style="fill: #1f77b4; stroke: #1f77b4"/>
     <use xlink:href="#m3a011045de" x="231.19668" y="241.065584" style="fill: #1f77b4; stroke: #1f77b4"/>
     <use xlink:href="#m3a011045de" x="232.067668" y="258.532701" style="fill: #1f77b4; stroke: #1f77b4"/>
     <use xlink:href="#m3a011045de" x="233.068382" y="249.75865" style="fill: #1f77b4; stroke: #1f77b4"/>
     <use xlink:href="#m3a011045de" x="234.274926" y="251.462898" style="fill: #1f77b4; stroke: #1f77b4"/>
     <use xlink:href="#m3a011045de" x="236.923145" y="276.614937" style="fill: #1f77b4; stroke: #1f77b4"/>
     <use xlink:href="#m3a011045de" x="239.592562" y="293.127826" style="fill: #1f77b4; stroke: #1f77b4"/>
     <use xlink:href="#m3a011045de" x="313.376885" y="177.085994" style="fill: #1f77b4; stroke: #1f77b4"/>
     <use xlink:href="#m3a011045de" x="321.402868" y="142.366844" style="fill: #1f77b4; stroke: #1f77b4"/>
     <use xlink:href="#m3a011045de" x="329.428851" y="146.073572" style="fill: #1f77b4; stroke: #1f77b4"/>
     <use xlink:href="#m3a011045de" x="337.454834" y="146.215765" style="fill: #1f77b4; stroke: #1f77b4"/>
     <use xlink:href="#m3a011045de" x="345.480817" y="149.895345" style="fill: #1f77b4; stroke: #1f77b4"/>
     <use xlink:href="#m3a011045de" x="353.5068" y="150.353874" style="fill: #1f77b4; stroke: #1f77b4"/>
     <use xlink:href="#m3a011045de" x="360.520726" y="162.687385" style="fill: #1f77b4; stroke: #1f77b4"/>
     <use xlink:href="#m3a011045de" x="361.324221" y="182.039176" style="fill: #1f77b4; stroke: #1f77b4"/>
     <use xlink:href="#m3a011045de" x="362.126402" y="190.260724" style="fill: #1f77b4; stroke: #1f77b4"/>
     <use xlink:href="#m3a011045de" x="362.925287" y="176.343067" style="fill: #1f77b4; stroke: #1f77b4"/>
     <use xlink:href="#m3a011045de" x="363.727683" y="231.245797" style="fill: #1f77b4; stroke: #1f77b4"/>
     <use xlink:href="#m3a011045de" x="364.528841" y="223.780106" style="fill: #1f77b4; stroke: #1f77b4"/>
     <use xlink:href="#m3a011045de" x="365.331876" y="238.650938" style="fill: #1f77b4; stroke: #1f77b4"/>
     <use xlink:href="#m3a011045de" x="366.498252" y="292.516733" style="fill: #1f77b4; stroke: #1f77b4"/>
    </g>
   </g>
   <g id="LineCollection_1">
    <path d="M 186.838872 141.956786 
L 186.838872 133.676292 
" clip-path="url(#p8aa8e4b68b)" style="fill: none; stroke: #000000; stroke-width: 1.5"/>
    <path d="M 188.366472 131.366721 
L 188.366472 128.962379 
" clip-path="url(#p8aa8e4b68b)" style="fill: none; stroke: #000000; stroke-width: 1.5"/>
    <path d="M 190.019169 131.825342 
L 190.019169 129.150077 
" clip-path="url(#p8aa8e4b68b)" style="fill: none; stroke: #000000; stroke-width: 1.5"/>
    <path d="M 192.021337 134.717991 
L 192.021337 132.409578 
" clip-path="url(#p8aa8e4b68b)" style="fill: none; stroke: #000000; stroke-width: 1.5"/>
    <path d="M 194.105949 137.050149 
L 194.105949 134.699504 
" clip-path="url(#p8aa8e4b68b)" style="fill: none; stroke: #000000; stroke-width: 1.5"/>
    <path d="M 227.555593 250.320896 
L 227.555593 233.420171 
" clip-path="url(#p8aa8e4b68b)" style="fill: none; stroke: #000000; stroke-width: 1.5"/>
    <path d="M 228.436022 257.557461 
L 228.436022 238.803569 
" clip-path="url(#p8aa8e4b68b)" style="fill: none; stroke: #000000; stroke-width: 1.5"/>
    <path d="M 229.146849 242.599592 
L 229.146849 227.262505 
" clip-path="url(#p8aa8e4b68b)" style="fill: none; stroke: #000000; stroke-width: 1.5"/>
    <path d="M 229.888456 245.793325 
L 229.888456 231.25246 
" clip-path="url(#p8aa8e4b68b)" style="fill: none; stroke: #000000; stroke-width: 1.5"/>
    <path d="M 230.558702 234.258204 
L 230.558702 219.959233 
" clip-path="url(#p8aa8e4b68b)" style="fill: none; stroke: #000000; stroke-width: 1.5"/>
    <path d="M 231.19668 249.045406 
L 231.19668 234.096591 
" clip-path="url(#p8aa8e4b68b)" style="fill: none; stroke: #000000; stroke-width: 1.5"/>
    <path d="M 232.067668 266.040367 
L 232.067668 251.92641 
" clip-path="url(#p8aa8e4b68b)" style="fill: none; stroke: #000000; stroke-width: 1.5"/>
    <path d="M 233.068382 257.278909 
L 233.068382 243.142612 
" clip-path="url(#p8aa8e4b68b)" style="fill: none; stroke: #000000; stroke-width: 1.5"/>
    <path d="M 234.274926 259.148346 
L 234.274926 244.719391 
" clip-path="url(#p8aa8e4b68b)" style="fill: none; stroke: #000000; stroke-width: 1.5"/>
    <path d="M 236.923145 284.272525 
L 236.923145 269.892881 
" clip-path="url(#p8aa8e4b68b)" style="fill: none; stroke: #000000; stroke-width: 1.5"/>
    <path d="M 239.592562 307.086465 
L 239.592562 282.00023 
" clip-path="url(#p8aa8e4b68b)" style="fill: none; stroke: #000000; stroke-width: 1.5"/>
    <path d="M 313.376885 188.576733 
L 313.376885 167.583001 
" clip-path="url(#p8aa8e4b68b)" style="fill: none; stroke: #000000; stroke-width: 1.5"/>
    <path d="M 321.402868 147.308591 
L 321.402868 137.832062 
" clip-path="url(#p8aa8e4b68b)" style="fill: none; stroke: #000000; stroke-width: 1.5"/>
    <path d="M 329.428851 152.689552 
L 329.428851 140.167512 
" clip-path="url(#p8aa8e4b68b)" style="fill: none; stroke: #000000; stroke-width: 1.5"/>
    <path d="M 337.454834 156.176256 
L 337.454834 137.783171 
" clip-path="url(#p8aa8e4b68b)" style="fill: none; stroke: #000000; stroke-width: 1.5"/>
    <path d="M 345.480817 170.957503 
L 345.480817 134.694884 
" clip-path="url(#p8aa8e4b68b)" style="fill: none; stroke: #000000; stroke-width: 1.5"/>
    <path d="M 353.5068 188.699724 
L 353.5068 127.961759 
" clip-path="url(#p8aa8e4b68b)" style="fill: none; stroke: #000000; stroke-width: 1.5"/>
    <path d="M 360.520726 174.243549 
L 360.520726 153.139741 
" clip-path="url(#p8aa8e4b68b)" style="fill: none; stroke: #000000; stroke-width: 1.5"/>
    <path d="M 361.324221 194.096145 
L 361.324221 172.152671 
" clip-path="url(#p8aa8e4b68b)" style="fill: none; stroke: #000000; stroke-width: 1.5"/>
    <path d="M 362.126402 201.380975 
L 362.126402 181.012277 
" clip-path="url(#p8aa8e4b68b)" style="fill: none; stroke: #000000; stroke-width: 1.5"/>
    <path d="M 362.925287 197.095979 
L 362.925287 161.303423 
" clip-path="url(#p8aa8e4b68b)" style="fill: none; stroke: #000000; stroke-width: 1.5"/>
    <path d="M 363.727683 257.988772 
L 363.727683 213.318844 
" clip-path="url(#p8aa8e4b68b)" style="fill: none; stroke: #000000; stroke-width: 1.5"/>
    <path d="M 364.528841 242.354523 
L 364.528841 209.913382 
" clip-path="url(#p8aa8e4b68b)" style="fill: none; stroke: #000000; stroke-width: 1.5"/>
    <path d="M 365.331876 259.082054 
L 365.331876 223.780106 
" clip-path="url(#p8aa8e4b68b)" style="fill: none; stroke: #000000; stroke-width: 1.5"/>
    <path d="M 366.498252 321.069678 
L 366.498252 273.803876 
" clip-path="url(#p8aa8e4b68b)" style="fill: none; stroke: #000000; stroke-width: 1.5"/>
   </g>
   <g id="line2d_27">
    <defs>
     <path id="m2292dd2a87" d="M 0 1.5 
C 0.397805 1.5 0.77937 1.341951 1.06066 1.06066 
C 1.341951 0.77937 1.5 0.397805 1.5 0 
C 1.5 -0.397805 1.341951 -0.77937 1.06066 -1.06066 
C 0.77937 -1.341951 0.397805 -1.5 0 -1.5 
C -0.397805 -1.5 -0.77937 -1.341951 -1.06066 -1.06066 
C -1.341951 -0.77937 -1.5 -0.397805 -1.5 0 
C -1.5 0.397805 -1.341951 0.77937 -1.06066 1.06066 
C -0.77937 1.341951 -0.397805 1.5 0 1.5 
z
" style="stroke: #ff7f0e"/>
    </defs>
    <g clip-path="url(#p8aa8e4b68b)">
     <use xlink:href="#m2292dd2a87" x="73.832727" y="1055.081465" style="fill: #ff7f0e; stroke: #ff7f0e"/>
     <use xlink:href="#m2292dd2a87" x="77.2865" y="991.709739" style="fill: #ff7f0e; stroke: #ff7f0e"/>
     <use xlink:href="#m2292dd2a87" x="80.740274" y="941.801754" style="fill: #ff7f0e; stroke: #ff7f0e"/>
     <use xlink:href="#m2292dd2a87" x="84.194047" y="900.303325" style="fill: #ff7f0e; stroke: #ff7f0e"/>
     <use xlink:href="#m2292dd2a87" x="87.64782" y="862.942306" style="fill: #ff7f0e; stroke: #ff7f0e"/>
     <use xlink:href="#m2292dd2a87" x="91.101593" y="827.4345" style="fill: #ff7f0e; stroke: #ff7f0e"/>
     <use xlink:href="#m2292dd2a87" x="94.555366" y="792.726746" style="fill: #ff7f0e; stroke: #ff7f0e"/>
     <use xlink:href="#m2292dd2a87" x="98.009123" y="758.359516" style="fill: #ff7f0e; stroke: #ff7f0e"/>
     <use xlink:href="#m2292dd2a87" x="101.462896" y="724.137426" style="fill: #ff7f0e; stroke: #ff7f0e"/>
     <use xlink:href="#m2292dd2a87" x="104.916669" y="689.978519" style="fill: #ff7f0e; stroke: #ff7f0e"/>
     <use xlink:href="#m2292dd2a87" x="108.370442" y="655.849807" style="fill: #ff7f0e; stroke: #ff7f0e"/>
     <use xlink:href="#m2292dd2a87" x="111.824216" y="621.739873" style="fill: #ff7f0e; stroke: #ff7f0e"/>
     <use xlink:href="#m2292dd2a87" x="115.277989" y="587.638438" style="fill: #ff7f0e; stroke: #ff7f0e"/>
     <use xlink:href="#m2292dd2a87" x="118.731762" y="553.574304" style="fill: #ff7f0e; stroke: #ff7f0e"/>
     <use xlink:href="#m2292dd2a87" x="122.185535" y="519.53897" style="fill: #ff7f0e; stroke: #ff7f0e"/>
     <use xlink:href="#m2292dd2a87" x="125.639308" y="485.559332" style="fill: #ff7f0e; stroke: #ff7f0e"/>
     <use xlink:href="#m2292dd2a87" x="129.093081" y="451.670915" style="fill: #ff7f0e; stroke: #ff7f0e"/>
     <use xlink:href="#m2292dd2a87" x="132.546854" y="417.931826" style="fill: #ff7f0e; stroke: #ff7f0e"/>
     <use xlink:href="#m2292dd2a87" x="136.000627" y="384.436584" style="fill: #ff7f0e; stroke: #ff7f0e"/>
     <use xlink:href="#m2292dd2a87" x="139.454385" y="351.337689" style="fill: #ff7f0e; stroke: #ff7f0e"/>
     <use xlink:href="#m2292dd2a87" x="142.908158" y="318.880257" style="fill: #ff7f0e; stroke: #ff7f0e"/>
     <use xlink:href="#m2292dd2a87" x="146.361931" y="287.449977" style="fill: #ff7f0e; stroke: #ff7f0e"/>
     <use xlink:href="#m2292dd2a87" x="149.815704" y="257.637563" style="fill: #ff7f0e; stroke: #ff7f0e"/>
     <use xlink:href="#m2292dd2a87" x="153.269477" y="230.300034" style="fill: #ff7f0e; stroke: #ff7f0e"/>
     <use xlink:href="#m2292dd2a87" x="156.72325" y="206.553986" style="fill: #ff7f0e; stroke: #ff7f0e"/>
     <use xlink:href="#m2292dd2a87" x="160.177023" y="187.533651" style="fill: #ff7f0e; stroke: #ff7f0e"/>
     <use xlink:href="#m2292dd2a87" x="163.630796" y="173.67978" style="fill: #ff7f0e; stroke: #ff7f0e"/>
     <use xlink:href="#m2292dd2a87" x="167.08457" y="163.849896" style="fill: #ff7f0e; stroke: #ff7f0e"/>
     <use xlink:href="#m2292dd2a87" x="170.538343" y="155.876651" style="fill: #ff7f0e; stroke: #ff7f0e"/>
     <use xlink:href="#m2292dd2a87" x="173.992116" y="148.58052" style="fill: #ff7f0e; stroke: #ff7f0e"/>
     <use xlink:href="#m2292dd2a87" x="177.445889" y="141.966577" style="fill: #ff7f0e; stroke: #ff7f0e"/>
     <use xlink:href="#m2292dd2a87" x="180.899646" y="136.393108" style="fill: #ff7f0e; stroke: #ff7f0e"/>
     <use xlink:href="#m2292dd2a87" x="184.353419" y="132.389802" style="fill: #ff7f0e; stroke: #ff7f0e"/>
     <use xlink:href="#m2292dd2a87" x="187.807192" y="130.657116" style="fill: #ff7f0e; stroke: #ff7f0e"/>
     <use xlink:href="#m2292dd2a87" x="191.260965" y="131.958946" style="fill: #ff7f0e; stroke: #ff7f0e"/>
     <use xlink:href="#m2292dd2a87" x="194.714739" y="136.769155" style="fill: #ff7f0e; stroke: #ff7f0e"/>
     <use xlink:href="#m2292dd2a87" x="198.168512" y="144.689113" style="fill: #ff7f0e; stroke: #ff7f0e"/>
     <use xlink:href="#m2292dd2a87" x="201.622285" y="154.345561" style="fill: #ff7f0e; stroke: #ff7f0e"/>
     <use xlink:href="#m2292dd2a87" x="205.076058" y="164.466356" style="fill: #ff7f0e; stroke: #ff7f0e"/>
     <use xlink:href="#m2292dd2a87" x="208.529831" y="174.635862" style="fill: #ff7f0e; stroke: #ff7f0e"/>
     <use xlink:href="#m2292dd2a87" x="211.983604" y="184.824761" style="fill: #ff7f0e; stroke: #ff7f0e"/>
     <use xlink:href="#m2292dd2a87" x="215.437377" y="195.055108" style="fill: #ff7f0e; stroke: #ff7f0e"/>
     <use xlink:href="#m2292dd2a87" x="218.89115" y="205.376333" style="fill: #ff7f0e; stroke: #ff7f0e"/>
     <use xlink:href="#m2292dd2a87" x="222.344924" y="215.894642" style="fill: #ff7f0e; stroke: #ff7f0e"/>
     <use xlink:href="#m2292dd2a87" x="225.798681" y="226.83421" style="fill: #ff7f0e; stroke: #ff7f0e"/>
     <use xlink:href="#m2292dd2a87" x="229.252454" y="238.654951" style="fill: #ff7f0e; stroke: #ff7f0e"/>
     <use xlink:href="#m2292dd2a87" x="232.706227" y="252.267939" style="fill: #ff7f0e; stroke: #ff7f0e"/>
     <use xlink:href="#m2292dd2a87" x="236.16" y="269.400246" style="fill: #ff7f0e; stroke: #ff7f0e"/>
     <use xlink:href="#m2292dd2a87" x="239.613773" y="293.17322" style="fill: #ff7f0e; stroke: #ff7f0e"/>
     <use xlink:href="#m2292dd2a87" x="243.067546" y="328.950604" style="fill: #ff7f0e; stroke: #ff7f0e"/>
     <use xlink:href="#m2292dd2a87" x="246.521319" y="385.291013" style="fill: #ff7f0e; stroke: #ff7f0e"/>
     <use xlink:href="#m2292dd2a87" x="249.975093" y="470.253063" style="fill: #ff7f0e; stroke: #ff7f0e"/>
     <use xlink:href="#m2292dd2a87" x="253.428866" y="529.805545" style="fill: #ff7f0e; stroke: #ff7f0e"/>
     <use xlink:href="#m2292dd2a87" x="256.882639" y="506.48954" style="fill: #ff7f0e; stroke: #ff7f0e"/>
     <use xlink:href="#m2292dd2a87" x="260.336412" y="474.879902" style="fill: #ff7f0e; stroke: #ff7f0e"/>
     <use xlink:href="#m2292dd2a87" x="263.790185" y="443.959533" style="fill: #ff7f0e; stroke: #ff7f0e"/>
     <use xlink:href="#m2292dd2a87" x="267.243942" y="413.982567" style="fill: #ff7f0e; stroke: #ff7f0e"/>
     <use xlink:href="#m2292dd2a87" x="270.697715" y="385.176372" style="fill: #ff7f0e; stroke: #ff7f0e"/>
     <use xlink:href="#m2292dd2a87" x="274.151488" y="357.79964" style="fill: #ff7f0e; stroke: #ff7f0e"/>
     <use xlink:href="#m2292dd2a87" x="277.605261" y="332.125651" style="fill: #ff7f0e; stroke: #ff7f0e"/>
     <use xlink:href="#m2292dd2a87" x="281.059035" y="308.405358" style="fill: #ff7f0e; stroke: #ff7f0e"/>
     <use xlink:href="#m2292dd2a87" x="284.512808" y="286.78758" style="fill: #ff7f0e; stroke: #ff7f0e"/>
     <use xlink:href="#m2292dd2a87" x="287.966581" y="267.261154" style="fill: #ff7f0e; stroke: #ff7f0e"/>
     <use xlink:href="#m2292dd2a87" x="291.420354" y="249.651504" style="fill: #ff7f0e; stroke: #ff7f0e"/>
     <use xlink:href="#m2292dd2a87" x="294.874127" y="233.675707" style="fill: #ff7f0e; stroke: #ff7f0e"/>
     <use xlink:href="#m2292dd2a87" x="298.3279" y="219.087123" style="fill: #ff7f0e; stroke: #ff7f0e"/>
     <use xlink:href="#m2292dd2a87" x="301.781673" y="205.732365" style="fill: #ff7f0e; stroke: #ff7f0e"/>
     <use xlink:href="#m2292dd2a87" x="305.235446" y="193.562335" style="fill: #ff7f0e; stroke: #ff7f0e"/>
     <use xlink:href="#m2292dd2a87" x="308.68922" y="182.599615" style="fill: #ff7f0e; stroke: #ff7f0e"/>
     <use xlink:href="#m2292dd2a87" x="312.142977" y="172.894318" style="fill: #ff7f0e; stroke: #ff7f0e"/>
     <use xlink:href="#m2292dd2a87" x="315.59675" y="164.479814" style="fill: #ff7f0e; stroke: #ff7f0e"/>
     <use xlink:href="#m2292dd2a87" x="319.050523" y="157.362952" style="fill: #ff7f0e; stroke: #ff7f0e"/>
     <use xlink:href="#m2292dd2a87" x="322.504296" y="151.482454" style="fill: #ff7f0e; stroke: #ff7f0e"/>
     <use xlink:href="#m2292dd2a87" x="325.958069" y="146.7438" style="fill: #ff7f0e; stroke: #ff7f0e"/>
     <use xlink:href="#m2292dd2a87" x="329.411842" y="143.072263" style="fill: #ff7f0e; stroke: #ff7f0e"/>
     <use xlink:href="#m2292dd2a87" x="332.865615" y="140.43105" style="fill: #ff7f0e; stroke: #ff7f0e"/>
     <use xlink:href="#m2292dd2a87" x="336.319389" y="138.857589" style="fill: #ff7f0e; stroke: #ff7f0e"/>
     <use xlink:href="#m2292dd2a87" x="339.773162" y="138.430158" style="fill: #ff7f0e; stroke: #ff7f0e"/>
     <use xlink:href="#m2292dd2a87" x="343.226935" y="139.2651" style="fill: #ff7f0e; stroke: #ff7f0e"/>
     <use xlink:href="#m2292dd2a87" x="346.680708" y="141.505399" style="fill: #ff7f0e; stroke: #ff7f0e"/>
     <use xlink:href="#m2292dd2a87" x="350.134481" y="145.332734" style="fill: #ff7f0e; stroke: #ff7f0e"/>
     <use xlink:href="#m2292dd2a87" x="353.588238" y="151.501865" style="fill: #ff7f0e; stroke: #ff7f0e"/>
     <use xlink:href="#m2292dd2a87" x="357.042011" y="161.769329" style="fill: #ff7f0e; stroke: #ff7f0e"/>
     <use xlink:href="#m2292dd2a87" x="360.495784" y="180.679032" style="fill: #ff7f0e; stroke: #ff7f0e"/>
     <use xlink:href="#m2292dd2a87" x="363.949558" y="218.195723" style="fill: #ff7f0e; stroke: #ff7f0e"/>
     <use xlink:href="#m2292dd2a87" x="367.403331" y="282.367247" style="fill: #ff7f0e; stroke: #ff7f0e"/>
     <use xlink:href="#m2292dd2a87" x="370.857104" y="367.8872" style="fill: #ff7f0e; stroke: #ff7f0e"/>
     <use xlink:href="#m2292dd2a87" x="374.310877" y="451.73968" style="fill: #ff7f0e; stroke: #ff7f0e"/>
     <use xlink:href="#m2292dd2a87" x="377.76465" y="521.070817" style="fill: #ff7f0e; stroke: #ff7f0e"/>
     <use xlink:href="#m2292dd2a87" x="381.218423" y="598.754293" style="fill: #ff7f0e; stroke: #ff7f0e"/>
     <use xlink:href="#m2292dd2a87" x="384.672196" y="744.250634" style="fill: #ff7f0e; stroke: #ff7f0e"/>
     <use xlink:href="#m2292dd2a87" x="388.125969" y="1052.934924" style="fill: #ff7f0e; stroke: #ff7f0e"/>
     <use xlink:href="#m2292dd2a87" x="391.579743" y="1904.322215" style="fill: #ff7f0e; stroke: #ff7f0e"/>
     <use xlink:href="#m2292dd2a87" x="395.0335" y="4552.476908" style="fill: #ff7f0e; stroke: #ff7f0e"/>
     <use xlink:href="#m2292dd2a87" x="398.487273" y="10705.16598" style="fill: #ff7f0e; stroke: #ff7f0e"/>
    </g>
   </g>
   <g id="line2d_28">
    <path d="M 139.958519 346.6 
L 142.908158 318.880257 
L 146.361931 287.449977 
L 149.815704 257.637563 
L 153.269477 230.300034 
L 156.72325 206.553986 
L 160.177023 187.533651 
L 163.630796 173.67978 
L 167.08457 163.849896 
L 170.538343 155.876651 
L 173.992116 148.58052 
L 177.445889 141.966577 
L 180.899646 136.393108 
L 184.353419 132.389802 
L 187.807192 130.657116 
L 191.260965 131.958946 
L 194.714739 136.769155 
L 198.168512 144.689113 
L 201.622285 154.345561 
L 205.076058 164.466356 
L 208.529831 174.635862 
L 211.983604 184.824761 
L 215.437377 195.055108 
L 218.89115 205.376333 
L 222.344924 215.894642 
L 225.798681 226.83421 
L 229.252454 238.654951 
L 232.706227 252.267939 
L 236.16 269.400246 
L 239.613773 293.17322 
L 243.067546 328.950604 
L 244.149487 346.6 
M 275.658111 346.6 
L 277.605261 332.125651 
L 281.059035 308.405358 
L 284.512808 286.78758 
L 287.966581 267.261154 
L 291.420354 249.651504 
L 294.874127 233.675707 
L 298.3279 219.087123 
L 301.781673 205.732365 
L 305.235446 193.562335 
L 308.68922 182.599615 
L 312.142977 172.894318 
L 315.59675 164.479814 
L 319.050523 157.362952 
L 322.504296 151.482454 
L 325.958069 146.7438 
L 329.411842 143.072263 
L 332.865615 140.43105 
L 336.319389 138.857589 
L 339.773162 138.430158 
L 343.226935 139.2651 
L 346.680708 141.505399 
L 350.134481 145.332734 
L 353.588238 151.501865 
L 357.042011 161.769329 
L 360.495784 180.679032 
L 363.949558 218.195723 
L 367.403331 282.367247 
L 369.997408 346.6 
" clip-path="url(#p8aa8e4b68b)" style="fill: none; stroke: #2ca02c; stroke-width: 1.5; stroke-linecap: square"/>
   </g>
   <g id="line2d_29">
    <defs>
     <path id="m088967b793" d="M 0 1.5 
C 0.397805 1.5 0.77937 1.341951 1.06066 1.06066 
C 1.341951 0.77937 1.5 0.397805 1.5 0 
C 1.5 -0.397805 1.341951 -0.77937 1.06066 -1.06066 
C 0.77937 -1.341951 0.397805 -1.5 0 -1.5 
C -0.397805 -1.5 -0.77937 -1.341951 -1.06066 -1.06066 
C -1.341951 -0.77937 -1.5 -0.397805 -1.5 0 
C -1.5 0.397805 -1.341951 0.77937 -1.06066 1.06066 
C -0.77937 1.341951 -0.397805 1.5 0 1.5 
z
" style="stroke: #0000ff"/>
    </defs>
    <g clip-path="url(#p8aa8e4b68b)">
     <use xlink:href="#m088967b793" x="186.838872" y="137.661134" style="fill: #0000ff; stroke: #0000ff"/>
     <use xlink:href="#m088967b793" x="188.366472" y="130.151437" style="fill: #0000ff; stroke: #0000ff"/>
     <use xlink:href="#m088967b793" x="190.019169" y="130.471474" style="fill: #0000ff; stroke: #0000ff"/>
     <use xlink:href="#m088967b793" x="192.021337" y="133.551697" style="fill: #0000ff; stroke: #0000ff"/>
     <use xlink:href="#m088967b793" x="194.105949" y="135.862292" style="fill: #0000ff; stroke: #0000ff"/>
     <use xlink:href="#m088967b793" x="227.555593" y="241.225062" style="fill: #0000ff; stroke: #0000ff"/>
     <use xlink:href="#m088967b793" x="228.436022" y="247.386445" style="fill: #0000ff; stroke: #0000ff"/>
     <use xlink:href="#m088967b793" x="229.146849" y="234.399124" style="fill: #0000ff; stroke: #0000ff"/>
     <use xlink:href="#m088967b793" x="229.888456" y="238.044609" style="fill: #0000ff; stroke: #0000ff"/>
     <use xlink:href="#m088967b793" x="230.558702" y="226.646171" style="fill: #0000ff; stroke: #0000ff"/>
     <use xlink:href="#m088967b793" x="231.19668" y="241.065584" style="fill: #0000ff; stroke: #0000ff"/>
     <use xlink:href="#m088967b793" x="232.067668" y="258.532701" style="fill: #0000ff; stroke: #0000ff"/>
     <use xlink:href="#m088967b793" x="233.068382" y="249.75865" style="fill: #0000ff; stroke: #0000ff"/>
     <use xlink:href="#m088967b793" x="234.274926" y="251.462898" style="fill: #0000ff; stroke: #0000ff"/>
     <use xlink:href="#m088967b793" x="236.923145" y="276.614937" style="fill: #0000ff; stroke: #0000ff"/>
     <use xlink:href="#m088967b793" x="239.592562" y="293.127826" style="fill: #0000ff; stroke: #0000ff"/>
     <use xlink:href="#m088967b793" x="313.376885" y="177.085994" style="fill: #0000ff; stroke: #0000ff"/>
     <use xlink:href="#m088967b793" x="321.402868" y="142.366844" style="fill: #0000ff; stroke: #0000ff"/>
     <use xlink:href="#m088967b793" x="329.428851" y="146.073572" style="fill: #0000ff; stroke: #0000ff"/>
     <use xlink:href="#m088967b793" x="337.454834" y="146.215765" style="fill: #0000ff; stroke: #0000ff"/>
     <use xlink:href="#m088967b793" x="345.480817" y="149.895345" style="fill: #0000ff; stroke: #0000ff"/>
     <use xlink:href="#m088967b793" x="353.5068" y="150.353874" style="fill: #0000ff; stroke: #0000ff"/>
     <use xlink:href="#m088967b793" x="360.520726" y="162.687385" style="fill: #0000ff; stroke: #0000ff"/>
     <use xlink:href="#m088967b793" x="361.324221" y="182.039176" style="fill: #0000ff; stroke: #0000ff"/>
     <use xlink:href="#m088967b793" x="362.126402" y="190.260724" style="fill: #0000ff; stroke: #0000ff"/>
     <use xlink:href="#m088967b793" x="362.925287" y="176.343067" style="fill: #0000ff; stroke: #0000ff"/>
     <use xlink:href="#m088967b793" x="363.727683" y="231.245797" style="fill: #0000ff; stroke: #0000ff"/>
     <use xlink:href="#m088967b793" x="364.528841" y="223.780106" style="fill: #0000ff; stroke: #0000ff"/>
     <use xlink:href="#m088967b793" x="365.331876" y="238.650938" style="fill: #0000ff; stroke: #0000ff"/>
     <use xlink:href="#m088967b793" x="366.498252" y="292.516733" style="fill: #0000ff; stroke: #0000ff"/>
    </g>
   </g>
   <g id="patch_3">
    <path d="M 57.6 307.584 
L 57.6 41.472 
" style="fill: none; stroke: #000000; stroke-width: 0.8; stroke-linejoin: miter; stroke-linecap: square"/>
   </g>
   <g id="patch_4">
    <path d="M 414.72 307.584 
L 414.72 41.472 
" style="fill: none; stroke: #000000; stroke-width: 0.8; stroke-linejoin: miter; stroke-linecap: square"/>
   </g>
   <g id="patch_5">
    <path d="M 57.6 307.584 
L 414.72 307.584 
" style="fill: none; stroke: #000000; stroke-width: 0.8; stroke-linejoin: miter; stroke-linecap: square"/>
   </g>
   <g id="patch_6">
    <path d="M 57.6 41.472 
L 414.72 41.472 
" style="fill: none; stroke: #000000; stroke-width: 0.8; stroke-linejoin: miter; stroke-linecap: square"/>
   </g>
   <g id="text_12">
    <!-- MCMC $\chi^2$ = 30.43 -->
    <g transform="translate(182.82 35.472)scale(0.12 -0.12)">
     <defs>
      <path id="DejaVuSans-4d" d="M 628 4666 
L 1569 4666 
L 2759 1491 
L 3956 4666 
L 4897 4666 
L 4897 0 
L 4281 0 
L 4281 4097 
L 3078 897 
L 2444 897 
L 1241 4097 
L 1241 0 
L 628 0 
L 628 4666 
z
" transform="scale(0.015625)"/>
      <path id="DejaVuSans-43" d="M 4122 4306 
L 4122 3641 
Q 3803 3938 3442 4084 
Q 3081 4231 2675 4231 
Q 1875 4231 1450 3742 
Q 1025 3253 1025 2328 
Q 1025 1406 1450 917 
Q 1875 428 2675 428 
Q 3081 428 3442 575 
Q 3803 722 4122 1019 
L 4122 359 
Q 3791 134 3420 21 
Q 3050 -91 2638 -91 
Q 1578 -91 968 557 
Q 359 1206 359 2328 
Q 359 3453 968 4101 
Q 1578 4750 2638 4750 
Q 3056 4750 3426 4639 
Q 3797 4528 4122 4306 
z
" transform="scale(0.015625)"/>
      <path id="DejaVuSans-20" transform="scale(0.015625)"/>
      <path id="DejaVuSans-Oblique-3c7" d="M 1922 -781 
L 1691 416 
L 394 -1334 
L -284 -1334 
L 1553 1141 
L 1269 2613 
Q 1194 3006 713 3006 
L 559 3006 
L 653 3500 
L 872 3494 
Q 1675 3472 1775 2950 
L 2006 1753 
L 3303 3503 
L 3981 3503 
L 2144 1028 
L 2428 -444 
Q 2503 -838 2984 -838 
L 3138 -838 
L 3044 -1331 
L 2825 -1325 
Q 2022 -1303 1922 -781 
z
" transform="scale(0.015625)"/>
      <path id="DejaVuSans-3d" d="M 678 2906 
L 4684 2906 
L 4684 2381 
L 678 2381 
L 678 2906 
z
M 678 1631 
L 4684 1631 
L 4684 1100 
L 678 1100 
L 678 1631 
z
" transform="scale(0.015625)"/>
      <path id="DejaVuSans-33" d="M 2597 2516 
Q 3050 2419 3304 2112 
Q 3559 1806 3559 1356 
Q 3559 666 3084 287 
Q 2609 -91 1734 -91 
Q 1441 -91 1130 -33 
Q 819 25 488 141 
L 488 750 
Q 750 597 1062 519 
Q 1375 441 1716 441 
Q 2309 441 2620 675 
Q 2931 909 2931 1356 
Q 2931 1769 2642 2001 
Q 2353 2234 1838 2234 
L 1294 2234 
L 1294 2753 
L 1863 2753 
Q 2328 2753 2575 2939 
Q 2822 3125 2822 3475 
Q 2822 3834 2567 4026 
Q 2313 4219 1838 4219 
Q 1578 4219 1281 4162 
Q 984 4106 628 3988 
L 628 4550 
Q 988 4650 1302 4700 
Q 1616 4750 1894 4750 
Q 2613 4750 3031 4423 
Q 3450 4097 3450 3541 
Q 3450 3153 3228 2886 
Q 3006 2619 2597 2516 
z
" transform="scale(0.015625)"/>
      <path id="DejaVuSans-2e" d="M 684 794 
L 1344 794 
L 1344 0 
L 684 0 
L 684 794 
z
" transform="scale(0.015625)"/>
     </defs>
     <use xlink:href="#DejaVuSans-4d" transform="translate(0 0.765625)"/>
     <use xlink:href="#DejaVuSans-43" transform="translate(86.279297 0.765625)"/>
     <use xlink:href="#DejaVuSans-4d" transform="translate(156.103516 0.765625)"/>
     <use xlink:href="#DejaVuSans-43" transform="translate(242.382812 0.765625)"/>
     <use xlink:href="#DejaVuSans-20" transform="translate(312.207031 0.765625)"/>
     <use xlink:href="#DejaVuSans-Oblique-3c7" transform="translate(343.994141 0.765625)"/>
     <use xlink:href="#DejaVuSans-32" transform="translate(407.646536 39.046875)scale(0.7)"/>
     <use xlink:href="#DejaVuSans-20" transform="translate(454.917044 0.765625)"/>
     <use xlink:href="#DejaVuSans-3d" transform="translate(486.704154 0.765625)"/>
     <use xlink:href="#DejaVuSans-20" transform="translate(570.493216 0.765625)"/>
     <use xlink:href="#DejaVuSans-33" transform="translate(602.280326 0.765625)"/>
     <use xlink:href="#DejaVuSans-30" transform="translate(665.903372 0.765625)"/>
     <use xlink:href="#DejaVuSans-2e" transform="translate(729.526419 0.765625)"/>
     <use xlink:href="#DejaVuSans-34" transform="translate(761.313529 0.765625)"/>
     <use xlink:href="#DejaVuSans-33" transform="translate(824.936576 0.765625)"/>
    </g>
   </g>
  </g>
 </g>
 <defs>
  <clipPath id="p8aa8e4b68b">
   <rect x="57.6" y="41.472" width="357.12" height="266.112"/>
  </clipPath>
 </defs>
</svg>
