<?xml version="1.0" encoding="utf-8" standalone="no"?>
<!DOCTYPE svg PUBLIC "-//W3C//DTD SVG 1.1//EN"
  "http://www.w3.org/Graphics/SVG/1.1/DTD/svg11.dtd">
<svg xmlns:xlink="http://www.w3.org/1999/xlink" width="460.8pt" height="345.6pt" viewBox="0 0 460.8 345.6" xmlns="http://www.w3.org/2000/svg" version="1.1">
 <metadata>
  <rdf:RDF xmlns:dc="http://purl.org/dc/elements/1.1/" xmlns:cc="http://creativecommons.org/ns#" xmlns:rdf="http://www.w3.org/1999/02/22-rdf-syntax-ns#">
   <cc:Work>
    <dc:type rdf:resource="http://purl.org/dc/dcmitype/StillImage"/>
    <dc:date>2022-07-23T13:54:55.276852</dc:date>
    <dc:format>image/svg+xml</dc:format>
    <dc:creator>
     <cc:Agent>
      <dc:title>Matplotlib v3.5.0, https://matplotlib.org/</dc:title>
     </cc:Agent>
    </dc:creator>
   </cc:Work>
  </rdf:RDF>
 </metadata>
 <defs>
  <style type="text/css">*{stroke-linejoin: round; stroke-linecap: butt}</style>
 </defs>
 <g id="figure_1">
  <g id="patch_1">
   <path d="M 0 345.6 
L 460.8 345.6 
L 460.8 0 
L 0 0 
z
" style="fill: #ffffff"/>
  </g>
  <g id="axes_1">
   <g id="patch_2">
    <path d="M 57.6 307.584 
L 414.72 307.584 
L 414.72 41.472 
L 57.6 41.472 
z
" style="fill: #ffffff"/>
   </g>
   <g id="matplotlib.axis_1">
    <g id="xtick_1">
     <g id="line2d_1">
      <defs>
       <path id="mc3d720a247" d="M 0 0 
L 0 3.5 
" style="stroke: #000000; stroke-width: 0.8"/>
      </defs>
      <g>
       <use xlink:href="#mc3d720a247" x="57.6" y="307.584" style="stroke: #000000; stroke-width: 0.8"/>
      </g>
     </g>
     <g id="text_1">
      <!-- 500 -->
      <g transform="translate(48.05625 322.182437)scale(0.1 -0.1)">
       <defs>
        <path id="DejaVuSans-35" d="M 691 4666 
L 3169 4666 
L 3169 4134 
L 1269 4134 
L 1269 2991 
Q 1406 3038 1543 3061 
Q 1681 3084 1819 3084 
Q 2600 3084 3056 2656 
Q 3513 2228 3513 1497 
Q 3513 744 3044 326 
Q 2575 -91 1722 -91 
Q 1428 -91 1123 -41 
Q 819 9 494 109 
L 494 744 
Q 775 591 1075 516 
Q 1375 441 1709 441 
Q 2250 441 2565 725 
Q 2881 1009 2881 1497 
Q 2881 1984 2565 2268 
Q 2250 2553 1709 2553 
Q 1456 2553 1204 2497 
Q 953 2441 691 2322 
L 691 4666 
z
" transform="scale(0.015625)"/>
        <path id="DejaVuSans-30" d="M 2034 4250 
Q 1547 4250 1301 3770 
Q 1056 3291 1056 2328 
Q 1056 1369 1301 889 
Q 1547 409 2034 409 
Q 2525 409 2770 889 
Q 3016 1369 3016 2328 
Q 3016 3291 2770 3770 
Q 2525 4250 2034 4250 
z
M 2034 4750 
Q 2819 4750 3233 4129 
Q 3647 3509 3647 2328 
Q 3647 1150 3233 529 
Q 2819 -91 2034 -91 
Q 1250 -91 836 529 
Q 422 1150 422 2328 
Q 422 3509 836 4129 
Q 1250 4750 2034 4750 
z
" transform="scale(0.015625)"/>
       </defs>
       <use xlink:href="#DejaVuSans-35"/>
       <use xlink:href="#DejaVuSans-30" x="63.623047"/>
       <use xlink:href="#DejaVuSans-30" x="127.246094"/>
      </g>
     </g>
    </g>
    <g id="xtick_2">
     <g id="line2d_2">
      <g>
       <use xlink:href="#mc3d720a247" x="110.117647" y="307.584" style="stroke: #000000; stroke-width: 0.8"/>
      </g>
     </g>
     <g id="text_2">
      <!-- 1000 -->
      <g transform="translate(97.392647 322.182437)scale(0.1 -0.1)">
       <defs>
        <path id="DejaVuSans-31" d="M 794 531 
L 1825 531 
L 1825 4091 
L 703 3866 
L 703 4441 
L 1819 4666 
L 2450 4666 
L 2450 531 
L 3481 531 
L 3481 0 
L 794 0 
L 794 531 
z
" transform="scale(0.015625)"/>
       </defs>
       <use xlink:href="#DejaVuSans-31"/>
       <use xlink:href="#DejaVuSans-30" x="63.623047"/>
       <use xlink:href="#DejaVuSans-30" x="127.246094"/>
       <use xlink:href="#DejaVuSans-30" x="190.869141"/>
      </g>
     </g>
    </g>
    <g id="xtick_3">
     <g id="line2d_3">
      <g>
       <use xlink:href="#mc3d720a247" x="162.635294" y="307.584" style="stroke: #000000; stroke-width: 0.8"/>
      </g>
     </g>
     <g id="text_3">
      <!-- 1500 -->
      <g transform="translate(149.910294 322.182437)scale(0.1 -0.1)">
       <use xlink:href="#DejaVuSans-31"/>
       <use xlink:href="#DejaVuSans-35" x="63.623047"/>
       <use xlink:href="#DejaVuSans-30" x="127.246094"/>
       <use xlink:href="#DejaVuSans-30" x="190.869141"/>
      </g>
     </g>
    </g>
    <g id="xtick_4">
     <g id="line2d_4">
      <g>
       <use xlink:href="#mc3d720a247" x="215.152941" y="307.584" style="stroke: #000000; stroke-width: 0.8"/>
      </g>
     </g>
     <g id="text_4">
      <!-- 2000 -->
      <g transform="translate(202.427941 322.182437)scale(0.1 -0.1)">
       <defs>
        <path id="DejaVuSans-32" d="M 1228 531 
L 3431 531 
L 3431 0 
L 469 0 
L 469 531 
Q 828 903 1448 1529 
Q 2069 2156 2228 2338 
Q 2531 2678 2651 2914 
Q 2772 3150 2772 3378 
Q 2772 3750 2511 3984 
Q 2250 4219 1831 4219 
Q 1534 4219 1204 4116 
Q 875 4013 500 3803 
L 500 4441 
Q 881 4594 1212 4672 
Q 1544 4750 1819 4750 
Q 2544 4750 2975 4387 
Q 3406 4025 3406 3419 
Q 3406 3131 3298 2873 
Q 3191 2616 2906 2266 
Q 2828 2175 2409 1742 
Q 1991 1309 1228 531 
z
" transform="scale(0.015625)"/>
       </defs>
       <use xlink:href="#DejaVuSans-32"/>
       <use xlink:href="#DejaVuSans-30" x="63.623047"/>
       <use xlink:href="#DejaVuSans-30" x="127.246094"/>
       <use xlink:href="#DejaVuSans-30" x="190.869141"/>
      </g>
     </g>
    </g>
    <g id="xtick_5">
     <g id="line2d_5">
      <g>
       <use xlink:href="#mc3d720a247" x="267.670588" y="307.584" style="stroke: #000000; stroke-width: 0.8"/>
      </g>
     </g>
     <g id="text_5">
      <!-- 2500 -->
      <g transform="translate(254.945588 322.182437)scale(0.1 -0.1)">
       <use xlink:href="#DejaVuSans-32"/>
       <use xlink:href="#DejaVuSans-35" x="63.623047"/>
       <use xlink:href="#DejaVuSans-30" x="127.246094"/>
       <use xlink:href="#DejaVuSans-30" x="190.869141"/>
      </g>
     </g>
    </g>
    <g id="xtick_6">
     <g id="line2d_6">
      <g>
       <use xlink:href="#mc3d720a247" x="320.188235" y="307.584" style="stroke: #000000; stroke-width: 0.8"/>
      </g>
     </g>
     <g id="text_6">
      <!-- 3000 -->
      <g transform="translate(307.463235 322.182437)scale(0.1 -0.1)">
       <defs>
        <path id="DejaVuSans-33" d="M 2597 2516 
Q 3050 2419 3304 2112 
Q 3559 1806 3559 1356 
Q 3559 666 3084 287 
Q 2609 -91 1734 -91 
Q 1441 -91 1130 -33 
Q 819 25 488 141 
L 488 750 
Q 750 597 1062 519 
Q 1375 441 1716 441 
Q 2309 441 2620 675 
Q 2931 909 2931 1356 
Q 2931 1769 2642 2001 
Q 2353 2234 1838 2234 
L 1294 2234 
L 1294 2753 
L 1863 2753 
Q 2328 2753 2575 2939 
Q 2822 3125 2822 3475 
Q 2822 3834 2567 4026 
Q 2313 4219 1838 4219 
Q 1578 4219 1281 4162 
Q 984 4106 628 3988 
L 628 4550 
Q 988 4650 1302 4700 
Q 1616 4750 1894 4750 
Q 2613 4750 3031 4423 
Q 3450 4097 3450 3541 
Q 3450 3153 3228 2886 
Q 3006 2619 2597 2516 
z
" transform="scale(0.015625)"/>
       </defs>
       <use xlink:href="#DejaVuSans-33"/>
       <use xlink:href="#DejaVuSans-30" x="63.623047"/>
       <use xlink:href="#DejaVuSans-30" x="127.246094"/>
       <use xlink:href="#DejaVuSans-30" x="190.869141"/>
      </g>
     </g>
    </g>
    <g id="xtick_7">
     <g id="line2d_7">
      <g>
       <use xlink:href="#mc3d720a247" x="372.705882" y="307.584" style="stroke: #000000; stroke-width: 0.8"/>
      </g>
     </g>
     <g id="text_7">
      <!-- 3500 -->
      <g transform="translate(359.980882 322.182437)scale(0.1 -0.1)">
       <use xlink:href="#DejaVuSans-33"/>
       <use xlink:href="#DejaVuSans-35" x="63.623047"/>
       <use xlink:href="#DejaVuSans-30" x="127.246094"/>
       <use xlink:href="#DejaVuSans-30" x="190.869141"/>
      </g>
     </g>
    </g>
    <g id="text_8">
     <!-- step -->
     <g transform="translate(225.344375 335.860562)scale(0.1 -0.1)">
      <defs>
       <path id="DejaVuSans-73" d="M 2834 3397 
L 2834 2853 
Q 2591 2978 2328 3040 
Q 2066 3103 1784 3103 
Q 1356 3103 1142 2972 
Q 928 2841 928 2578 
Q 928 2378 1081 2264 
Q 1234 2150 1697 2047 
L 1894 2003 
Q 2506 1872 2764 1633 
Q 3022 1394 3022 966 
Q 3022 478 2636 193 
Q 2250 -91 1575 -91 
Q 1294 -91 989 -36 
Q 684 19 347 128 
L 347 722 
Q 666 556 975 473 
Q 1284 391 1588 391 
Q 1994 391 2212 530 
Q 2431 669 2431 922 
Q 2431 1156 2273 1281 
Q 2116 1406 1581 1522 
L 1381 1569 
Q 847 1681 609 1914 
Q 372 2147 372 2553 
Q 372 3047 722 3315 
Q 1072 3584 1716 3584 
Q 2034 3584 2315 3537 
Q 2597 3491 2834 3397 
z
" transform="scale(0.015625)"/>
       <path id="DejaVuSans-74" d="M 1172 4494 
L 1172 3500 
L 2356 3500 
L 2356 3053 
L 1172 3053 
L 1172 1153 
Q 1172 725 1289 603 
Q 1406 481 1766 481 
L 2356 481 
L 2356 0 
L 1766 0 
Q 1100 0 847 248 
Q 594 497 594 1153 
L 594 3053 
L 172 3053 
L 172 3500 
L 594 3500 
L 594 4494 
L 1172 4494 
z
" transform="scale(0.015625)"/>
       <path id="DejaVuSans-65" d="M 3597 1894 
L 3597 1613 
L 953 1613 
Q 991 1019 1311 708 
Q 1631 397 2203 397 
Q 2534 397 2845 478 
Q 3156 559 3463 722 
L 3463 178 
Q 3153 47 2828 -22 
Q 2503 -91 2169 -91 
Q 1331 -91 842 396 
Q 353 884 353 1716 
Q 353 2575 817 3079 
Q 1281 3584 2069 3584 
Q 2775 3584 3186 3129 
Q 3597 2675 3597 1894 
z
M 3022 2063 
Q 3016 2534 2758 2815 
Q 2500 3097 2075 3097 
Q 1594 3097 1305 2825 
Q 1016 2553 972 2059 
L 3022 2063 
z
" transform="scale(0.015625)"/>
       <path id="DejaVuSans-70" d="M 1159 525 
L 1159 -1331 
L 581 -1331 
L 581 3500 
L 1159 3500 
L 1159 2969 
Q 1341 3281 1617 3432 
Q 1894 3584 2278 3584 
Q 2916 3584 3314 3078 
Q 3713 2572 3713 1747 
Q 3713 922 3314 415 
Q 2916 -91 2278 -91 
Q 1894 -91 1617 61 
Q 1341 213 1159 525 
z
M 3116 1747 
Q 3116 2381 2855 2742 
Q 2594 3103 2138 3103 
Q 1681 3103 1420 2742 
Q 1159 2381 1159 1747 
Q 1159 1113 1420 752 
Q 1681 391 2138 391 
Q 2594 391 2855 752 
Q 3116 1113 3116 1747 
z
" transform="scale(0.015625)"/>
      </defs>
      <use xlink:href="#DejaVuSans-73"/>
      <use xlink:href="#DejaVuSans-74" x="52.099609"/>
      <use xlink:href="#DejaVuSans-65" x="91.308594"/>
      <use xlink:href="#DejaVuSans-70" x="152.832031"/>
     </g>
    </g>
   </g>
   <g id="matplotlib.axis_2">
    <g id="ytick_1">
     <g id="line2d_8">
      <defs>
       <path id="m5997cb2039" d="M 0 0 
L -3.5 0 
" style="stroke: #000000; stroke-width: 0.8"/>
      </defs>
      <g>
       <use xlink:href="#m5997cb2039" x="57.6" y="293.681588" style="stroke: #000000; stroke-width: 0.8"/>
      </g>
     </g>
     <g id="text_9">
      <!-- 500 -->
      <g transform="translate(31.5125 297.480807)scale(0.1 -0.1)">
       <use xlink:href="#DejaVuSans-35"/>
       <use xlink:href="#DejaVuSans-30" x="63.623047"/>
       <use xlink:href="#DejaVuSans-30" x="127.246094"/>
      </g>
     </g>
    </g>
    <g id="ytick_2">
     <g id="line2d_9">
      <g>
       <use xlink:href="#m5997cb2039" x="57.6" y="262.188856" style="stroke: #000000; stroke-width: 0.8"/>
      </g>
     </g>
     <g id="text_10">
      <!-- 750 -->
      <g transform="translate(31.5125 265.988075)scale(0.1 -0.1)">
       <defs>
        <path id="DejaVuSans-37" d="M 525 4666 
L 3525 4666 
L 3525 4397 
L 1831 0 
L 1172 0 
L 2766 4134 
L 525 4134 
L 525 4666 
z
" transform="scale(0.015625)"/>
       </defs>
       <use xlink:href="#DejaVuSans-37"/>
       <use xlink:href="#DejaVuSans-35" x="63.623047"/>
       <use xlink:href="#DejaVuSans-30" x="127.246094"/>
      </g>
     </g>
    </g>
    <g id="ytick_3">
     <g id="line2d_10">
      <g>
       <use xlink:href="#m5997cb2039" x="57.6" y="230.696124" style="stroke: #000000; stroke-width: 0.8"/>
      </g>
     </g>
     <g id="text_11">
      <!-- 1000 -->
      <g transform="translate(25.15 234.495343)scale(0.1 -0.1)">
       <use xlink:href="#DejaVuSans-31"/>
       <use xlink:href="#DejaVuSans-30" x="63.623047"/>
       <use xlink:href="#DejaVuSans-30" x="127.246094"/>
       <use xlink:href="#DejaVuSans-30" x="190.869141"/>
      </g>
     </g>
    </g>
    <g id="ytick_4">
     <g id="line2d_11">
      <g>
       <use xlink:href="#m5997cb2039" x="57.6" y="199.203392" style="stroke: #000000; stroke-width: 0.8"/>
      </g>
     </g>
     <g id="text_12">
      <!-- 1250 -->
      <g transform="translate(25.15 203.002611)scale(0.1 -0.1)">
       <use xlink:href="#DejaVuSans-31"/>
       <use xlink:href="#DejaVuSans-32" x="63.623047"/>
       <use xlink:href="#DejaVuSans-35" x="127.246094"/>
       <use xlink:href="#DejaVuSans-30" x="190.869141"/>
      </g>
     </g>
    </g>
    <g id="ytick_5">
     <g id="line2d_12">
      <g>
       <use xlink:href="#m5997cb2039" x="57.6" y="167.71066" style="stroke: #000000; stroke-width: 0.8"/>
      </g>
     </g>
     <g id="text_13">
      <!-- 1500 -->
      <g transform="translate(25.15 171.509879)scale(0.1 -0.1)">
       <use xlink:href="#DejaVuSans-31"/>
       <use xlink:href="#DejaVuSans-35" x="63.623047"/>
       <use xlink:href="#DejaVuSans-30" x="127.246094"/>
       <use xlink:href="#DejaVuSans-30" x="190.869141"/>
      </g>
     </g>
    </g>
    <g id="ytick_6">
     <g id="line2d_13">
      <g>
       <use xlink:href="#m5997cb2039" x="57.6" y="136.217929" style="stroke: #000000; stroke-width: 0.8"/>
      </g>
     </g>
     <g id="text_14">
      <!-- 1750 -->
      <g transform="translate(25.15 140.017147)scale(0.1 -0.1)">
       <use xlink:href="#DejaVuSans-31"/>
       <use xlink:href="#DejaVuSans-37" x="63.623047"/>
       <use xlink:href="#DejaVuSans-35" x="127.246094"/>
       <use xlink:href="#DejaVuSans-30" x="190.869141"/>
      </g>
     </g>
    </g>
    <g id="ytick_7">
     <g id="line2d_14">
      <g>
       <use xlink:href="#m5997cb2039" x="57.6" y="104.725197" style="stroke: #000000; stroke-width: 0.8"/>
      </g>
     </g>
     <g id="text_15">
      <!-- 2000 -->
      <g transform="translate(25.15 108.524415)scale(0.1 -0.1)">
       <use xlink:href="#DejaVuSans-32"/>
       <use xlink:href="#DejaVuSans-30" x="63.623047"/>
       <use xlink:href="#DejaVuSans-30" x="127.246094"/>
       <use xlink:href="#DejaVuSans-30" x="190.869141"/>
      </g>
     </g>
    </g>
    <g id="ytick_8">
     <g id="line2d_15">
      <g>
       <use xlink:href="#m5997cb2039" x="57.6" y="73.232465" style="stroke: #000000; stroke-width: 0.8"/>
      </g>
     </g>
     <g id="text_16">
      <!-- 2250 -->
      <g transform="translate(25.15 77.031683)scale(0.1 -0.1)">
       <use xlink:href="#DejaVuSans-32"/>
       <use xlink:href="#DejaVuSans-32" x="63.623047"/>
       <use xlink:href="#DejaVuSans-35" x="127.246094"/>
       <use xlink:href="#DejaVuSans-30" x="190.869141"/>
      </g>
     </g>
    </g>
    <g id="ytick_9">
     <g id="line2d_16">
      <g>
       <use xlink:href="#m5997cb2039" x="57.6" y="41.739733" style="stroke: #000000; stroke-width: 0.8"/>
      </g>
     </g>
     <g id="text_17">
      <!-- 2500 -->
      <g transform="translate(25.15 45.538952)scale(0.1 -0.1)">
       <use xlink:href="#DejaVuSans-32"/>
       <use xlink:href="#DejaVuSans-35" x="63.623047"/>
       <use xlink:href="#DejaVuSans-30" x="127.246094"/>
       <use xlink:href="#DejaVuSans-30" x="190.869141"/>
      </g>
     </g>
    </g>
    <g id="text_18">
     <!-- $\chi^2$ -->
     <g transform="translate(19.05 180.078)rotate(-90)scale(0.1 -0.1)">
      <defs>
       <path id="DejaVuSans-Oblique-3c7" d="M 1922 -781 
L 1691 416 
L 394 -1334 
L -284 -1334 
L 1553 1141 
L 1269 2613 
Q 1194 3006 713 3006 
L 559 3006 
L 653 3500 
L 872 3494 
Q 1675 3472 1775 2950 
L 2006 1753 
L 3303 3503 
L 3981 3503 
L 2144 1028 
L 2428 -444 
Q 2503 -838 2984 -838 
L 3138 -838 
L 3044 -1331 
L 2825 -1325 
Q 2022 -1303 1922 -781 
z
" transform="scale(0.015625)"/>
      </defs>
      <use xlink:href="#DejaVuSans-Oblique-3c7" transform="translate(0 0.765625)"/>
      <use xlink:href="#DejaVuSans-32" transform="translate(63.652396 39.046875)scale(0.7)"/>
     </g>
    </g>
   </g>
   <g id="line2d_17">
    <path d="M 57.6 53.568 
L 57.915106 53.609122 
L 58.650353 55.348878 
L 58.965459 55.901395 
L 59.175529 57.669062 
L 59.3856 57.681552 
L 59.490635 58.427452 
L 59.595671 58.406282 
L 59.700706 58.429939 
L 60.015812 59.894356 
L 60.120847 60.047255 
L 60.225882 60.456006 
L 60.751059 64.601014 
L 61.066165 65.235782 
L 61.276235 66.677899 
L 61.486306 67.771789 
L 61.696376 67.918712 
L 61.906447 69.371112 
L 62.221553 71.202308 
L 62.536659 74.227219 
L 62.641694 74.231398 
L 62.851765 75.703895 
L 63.061835 75.741795 
L 63.271906 76.286387 
L 63.481976 77.74359 
L 63.692047 77.761784 
L 64.217224 81.121586 
L 64.532329 84.555149 
L 64.7424 85.639368 
L 64.952471 85.888057 
L 65.057506 85.897166 
L 65.267576 86.674558 
L 65.477647 87.657357 
L 65.792753 87.966986 
L 66.002824 89.567943 
L 66.212894 90.080036 
L 66.528 90.197455 
L 66.738071 91.002038 
L 67.158212 91.105319 
L 67.368282 91.618341 
L 67.788424 92.541038 
L 68.103529 92.558921 
L 68.3136 92.769896 
L 68.628706 92.849476 
L 69.363953 92.968114 
L 69.574024 93.902994 
L 69.679059 93.90416 
L 69.889129 94.37863 
L 70.414306 94.465937 
L 70.729412 94.572766 
L 71.254588 94.626237 
L 71.464659 95.528652 
L 71.674729 95.679354 
L 72.094871 95.749967 
L 72.304941 95.90058 
L 72.409976 95.953396 
L 72.620047 96.15282 
L 72.935153 96.24785 
L 73.250259 96.303221 
L 73.460329 96.874192 
L 73.6704 97.186604 
L 73.775435 97.204866 
L 73.880471 97.340309 
L 74.090541 98.152887 
L 74.195576 98.15567 
L 74.405647 98.335903 
L 74.825788 98.372597 
L 75.035859 98.944764 
L 75.140894 98.939972 
L 75.350965 99.178718 
L 75.771106 99.260368 
L 75.981176 100.361108 
L 76.926494 100.52051 
L 77.346635 100.678252 
L 77.976847 100.702769 
L 78.186918 101.236778 
L 78.291953 101.231549 
L 78.607059 101.628517 
L 79.657412 101.747025 
L 79.867482 101.984025 
L 80.077553 102.003382 
L 80.287624 102.185977 
L 81.022871 102.237388 
L 81.232941 102.565387 
L 81.653082 102.628625 
L 82.5984 102.742445 
L 82.808471 102.909609 
L 82.913506 102.927106 
L 83.123576 103.702914 
L 83.333647 103.870125 
L 83.648753 103.962995 
L 83.858824 104.058427 
L 84.068894 105.681001 
L 84.173929 105.718037 
L 84.489035 106.312329 
L 84.699106 106.356317 
L 84.804141 106.711993 
L 85.014212 107.806694 
L 85.224282 107.903812 
L 85.329318 108.138417 
L 85.539388 109.874332 
L 85.854494 109.966372 
L 85.959529 110.006913 
L 86.1696 110.367312 
L 86.379671 110.404886 
L 86.589741 110.79051 
L 87.324988 110.823401 
L 87.430024 110.913792 
L 87.640094 111.158038 
L 87.9552 111.256208 
L 88.060235 111.258934 
L 88.270306 112.648887 
L 88.585412 112.678842 
L 88.795482 113.193241 
L 88.900518 113.189767 
L 89.110588 114.682516 
L 89.635765 114.743231 
L 90.371012 114.877053 
L 90.581082 115.251859 
L 90.896188 115.310855 
L 91.106259 118.414423 
L 91.5264 118.514265 
L 91.736471 118.789713 
L 92.051576 118.885048 
L 92.786824 118.915888 
L 94.572424 119.241312 
L 94.782494 119.528083 
L 95.0976 119.577167 
L 95.307671 119.975858 
L 95.937882 120.012097 
L 96.147953 120.137297 
L 97.723482 120.433003 
L 98.143624 120.538507 
L 99.614118 120.563358 
L 100.244329 120.617865 
L 101.399718 120.674015 
L 101.609788 121.05085 
L 101.819859 121.270326 
L 102.765176 121.382756 
L 102.975247 121.80516 
L 103.395388 121.863149 
L 103.815529 121.881277 
L 104.0256 122.377621 
L 104.235671 123.044775 
L 104.340706 123.127939 
L 104.550776 123.547657 
L 104.655812 123.554515 
L 104.865882 124.513188 
L 105.286024 124.576671 
L 105.496094 125.461273 
L 105.706165 125.578774 
L 106.021271 125.599878 
L 106.231341 126.115615 
L 106.441412 126.129536 
L 106.651482 126.394874 
L 107.281694 126.588584 
L 107.491765 127.52158 
L 107.5968 127.514426 
L 107.806871 127.887464 
L 107.911906 127.889415 
L 108.121976 128.82515 
L 108.752188 128.86174 
L 108.962259 129.366757 
L 109.067294 129.464437 
L 109.487435 130.712356 
L 110.222682 130.80329 
L 110.432753 131.456502 
L 110.537788 131.448868 
L 110.852894 133.209062 
L 111.062965 133.237693 
L 111.273035 134.702685 
L 111.483106 134.860921 
L 111.693176 137.020792 
L 112.218353 137.21178 
L 112.323388 137.25287 
L 112.533459 138.327587 
L 112.743529 139.001006 
L 113.268706 139.014177 
L 113.478776 139.295777 
L 114.319059 139.787521 
L 114.424094 139.792615 
L 114.634165 141.212295 
L 114.844235 142.381994 
L 115.369412 142.388247 
L 115.579482 142.635055 
L 115.789553 143.862524 
L 116.209694 143.933157 
L 116.419765 144.374509 
L 116.629835 144.414197 
L 116.839906 145.855633 
L 116.944941 145.861243 
L 117.155012 146.225962 
L 117.260047 146.766613 
L 117.470118 147.890166 
L 117.575153 147.887135 
L 117.785224 148.933506 
L 118.3104 149.162343 
L 118.415435 149.160298 
L 118.625506 149.601149 
L 119.360753 149.647648 
L 119.570824 150.193814 
L 119.780894 150.536606 
L 120.201035 150.564803 
L 120.411106 150.734946 
L 120.621176 150.85497 
L 122.091671 151.132261 
L 122.721882 151.155563 
L 122.931953 151.317841 
L 123.036988 151.318429 
L 123.247059 151.596983 
L 124.087341 151.725975 
L 124.402447 151.947752 
L 124.822588 152.046885 
L 125.032659 152.195795 
L 125.767906 152.325158 
L 125.977976 152.424834 
L 126.293082 153.490408 
L 126.503153 153.505526 
L 126.713224 155.054481 
L 126.923294 155.129696 
L 127.2384 155.210304 
L 127.553506 155.2505 
L 127.973647 155.270866 
L 128.288753 155.437219 
L 128.393788 155.44707 
L 128.603859 155.645622 
L 128.918965 155.743584 
L 129.129035 156.12639 
L 129.444141 156.133189 
L 129.654212 157.800871 
L 129.759247 157.833825 
L 129.864282 158.049236 
L 130.074353 160.209165 
L 130.284424 160.227435 
L 130.494494 160.398923 
L 131.019671 160.468417 
L 131.229741 161.268492 
L 131.334776 161.258437 
L 131.649882 161.72693 
L 132.175059 162.946056 
L 132.280094 165.185741 
L 132.385129 165.175321 
L 132.5952 165.670715 
L 132.805271 166.124042 
L 133.015341 166.134411 
L 133.225412 167.442055 
L 133.540518 167.542945 
L 133.750588 167.781172 
L 134.275765 167.868431 
L 134.590871 167.943356 
L 134.800941 168.009897 
L 135.011012 168.790179 
L 135.221082 169.199389 
L 135.956329 169.258392 
L 136.1664 170.539328 
L 136.376471 170.632942 
L 136.481506 170.624544 
L 136.691576 171.000683 
L 137.006682 170.995102 
L 137.216753 171.200491 
L 137.531859 171.178576 
L 137.741929 171.537744 
L 138.267106 171.613399 
L 138.477176 172.071533 
L 138.582212 172.084958 
L 138.792282 173.038732 
L 139.002353 173.040356 
L 139.212424 173.206407 
L 139.947671 173.351818 
L 140.157741 174.315686 
L 140.682918 174.398458 
L 141.208094 174.42507 
L 141.418165 174.711588 
L 142.048376 174.738361 
L 142.258447 175.271867 
L 143.203765 175.375222 
L 143.413835 175.920786 
L 143.833976 175.925491 
L 144.044047 176.139746 
L 144.674259 176.16247 
L 144.884329 176.304722 
L 145.0944 176.800609 
L 145.724612 176.833318 
L 145.829647 177.052899 
L 146.039718 178.010546 
L 146.249788 178.456326 
L 146.354824 178.460683 
L 146.564894 178.724765 
L 147.405176 179.049779 
L 147.720282 179.15776 
L 147.930353 179.714588 
L 148.035388 179.722936 
L 148.245459 180.142638 
L 148.455529 180.199525 
L 148.560565 180.631283 
L 148.770635 181.7536 
L 149.295812 181.843233 
L 149.505882 182.084233 
L 149.715953 183.111201 
L 150.556235 183.134231 
L 151.186447 183.762557 
L 151.501553 184.965759 
L 151.816659 185.014127 
L 152.026729 185.244986 
L 152.446871 185.302818 
L 152.656941 185.534456 
L 153.917365 185.621272 
L 154.442541 185.750464 
L 154.862682 185.802136 
L 155.072753 185.922242 
L 155.387859 185.980831 
L 155.597929 186.064415 
L 156.123106 186.150314 
L 156.438212 186.227235 
L 156.753318 186.2317 
L 156.858353 186.420995 
L 157.068424 189.291476 
L 157.383529 189.351911 
L 157.5936 189.478783 
L 158.013741 189.47868 
L 158.223812 189.91977 
L 158.433882 190.152384 
L 158.748988 190.143465 
L 158.959059 190.283055 
L 159.169129 190.324831 
L 159.484235 191.047638 
L 160.009412 191.085527 
L 160.324518 191.388231 
L 160.534588 191.965814 
L 160.849694 191.981463 
L 161.059765 192.880125 
L 161.1648 192.916361 
L 161.374871 193.205765 
L 161.479906 193.218306 
L 161.689976 194.061763 
L 161.795012 194.112169 
L 162.005082 194.418466 
L 162.215153 194.418959 
L 162.425224 194.818415 
L 162.9504 194.838557 
L 163.265506 197.104905 
L 163.475576 197.112921 
L 163.790682 198.01379 
L 164.315859 198.081053 
L 164.630965 198.164614 
L 165.156141 198.221941 
L 165.261176 198.232541 
L 165.471247 198.413278 
L 166.731671 198.669979 
L 167.151812 198.69621 
L 167.782024 198.754693 
L 171.248188 199.054276 
L 172.298541 199.131435 
L 172.613647 199.209036 
L 173.453929 199.30639 
L 173.664 200.431073 
L 173.979106 200.478893 
L 174.189176 200.591059 
L 174.399247 200.63925 
L 174.609318 200.965454 
L 174.819388 202.979696 
L 174.924424 202.982192 
L 175.134494 203.371024 
L 175.554635 203.372405 
L 175.764706 203.75184 
L 176.394918 203.769863 
L 176.604988 204.206473 
L 176.815059 204.306688 
L 177.655341 204.425463 
L 177.865412 205.594163 
L 179.125835 205.803527 
L 179.651012 205.873367 
L 179.756047 205.967708 
L 179.966118 206.375308 
L 180.071153 206.37684 
L 180.491294 208.429278 
L 180.8064 209.390063 
L 181.121506 209.396999 
L 181.331576 209.658251 
L 181.856753 209.737006 
L 182.066824 209.873595 
L 183.222212 209.931066 
L 183.537318 210.659148 
L 186.058165 210.752281 
L 186.898447 210.77681 
L 187.108518 210.964659 
L 187.633694 210.976544 
L 187.738729 211.14299 
L 187.9488 211.641794 
L 188.158871 211.788649 
L 188.263906 211.791114 
L 188.473976 212.066107 
L 189.314259 212.112372 
L 189.524329 213.527119 
L 189.7344 213.972695 
L 189.839435 213.972263 
L 190.049506 214.484634 
L 190.259576 214.691438 
L 190.784753 214.810454 
L 190.994824 214.959465 
L 191.52 215.030825 
L 193.3056 215.170665 
L 193.620706 215.239169 
L 193.830776 215.615889 
L 193.935812 215.611416 
L 194.145882 215.895963 
L 194.250918 215.970439 
L 194.460988 216.829194 
L 194.881129 216.856587 
L 195.0912 217.920612 
L 195.406306 217.941752 
L 195.616376 218.809225 
L 195.826447 219.007283 
L 195.931482 219.010295 
L 196.141553 219.452968 
L 196.351624 219.620955 
L 196.666729 219.681171 
L 196.8768 219.966307 
L 198.872471 220.110228 
L 198.977506 220.114618 
L 199.187576 220.259353 
L 201.393318 220.389209 
L 201.603388 220.482571 
L 203.388988 220.558212 
L 205.699765 220.598274 
L 205.909835 220.718335 
L 206.540047 220.720449 
L 206.855153 222.053591 
L 208.010541 222.108654 
L 208.220612 223.317439 
L 209.165929 223.355479 
L 209.376 223.643301 
L 210.636424 223.66965 
L 212.737129 223.688973 
L 212.9472 223.759748 
L 213.157271 224.056247 
L 214.7328 224.129572 
L 215.257976 224.272699 
L 216.098259 224.369932 
L 217.043576 224.406355 
L 217.253647 224.997898 
L 219.249318 225.008821 
L 219.459388 225.309537 
L 219.984565 225.364613 
L 221.034918 225.423782 
L 221.244988 225.584878 
L 224.396047 225.682586 
L 224.501082 225.705137 
L 224.711153 226.208377 
L 225.4464 226.261784 
L 227.442071 226.338179 
L 227.652141 226.454895 
L 230.8032 226.619336 
L 231.118306 226.661944 
L 232.273694 226.756163 
L 232.483765 227.000611 
L 232.903906 227.117969 
L 233.113976 227.447244 
L 234.3744 227.44759 
L 234.584471 227.637945 
L 235.844894 227.779321 
L 236.790212 227.830729 
L 237.735529 227.996718 
L 237.9456 228.129202 
L 238.995953 228.174435 
L 239.206024 228.536773 
L 242.882259 228.683429 
L 244.037647 228.693756 
L 245.298071 228.766635 
L 245.508141 230.703574 
L 246.768565 230.743894 
L 247.608847 230.890775 
L 247.818918 231.620088 
L 248.6592 231.750814 
L 248.974306 233.046492 
L 249.604518 233.062159 
L 250.864941 233.074814 
L 251.810259 233.106116 
L 252.020329 233.308036 
L 252.545506 233.300421 
L 252.755576 234.701451 
L 255.591529 234.914424 
L 255.8016 235.127454 
L 256.011671 235.939327 
L 256.326776 236.009137 
L 256.536847 236.405986 
L 256.641882 236.51756 
L 256.851953 237.341592 
L 257.062024 237.334433 
L 257.167059 237.531826 
L 257.377129 238.560476 
L 257.5872 238.556001 
L 257.797271 238.850654 
L 258.217412 238.83802 
L 258.427482 239.294825 
L 260.213082 239.411695 
L 260.528188 239.451296 
L 261.368471 239.449349 
L 261.578541 240.313671 
L 261.893647 240.306424 
L 262.103718 240.487098 
L 262.628894 240.561741 
L 262.838965 240.686119 
L 263.259106 240.730768 
L 263.469176 240.862316 
L 263.994353 240.912495 
L 264.7296 241.192458 
L 265.464847 241.267622 
L 266.620235 241.348418 
L 266.830306 241.438641 
L 268.510871 241.585152 
L 268.720941 242.350953 
L 269.351153 242.458547 
L 269.561224 242.481576 
L 269.771294 243.469239 
L 270.401506 243.495738 
L 270.611576 243.945242 
L 271.766965 243.954704 
L 271.977035 244.105987 
L 272.292141 244.113521 
L 272.502212 245.049861 
L 273.132424 245.149623 
L 276.073412 245.511547 
L 278.069082 245.572494 
L 278.279153 245.932842 
L 278.489224 246.171546 
L 279.119435 246.210265 
L 279.329506 246.386703 
L 281.010071 246.434128 
L 281.430212 247.926211 
L 281.640282 247.928848 
L 282.375529 253.487584 
L 283.005741 253.569488 
L 283.215812 254.026313 
L 283.320847 254.343823 
L 283.530918 255.763682 
L 285.106447 256.06093 
L 285.526588 256.071852 
L 285.736659 256.22982 
L 286.261835 256.283305 
L 286.787012 256.395674 
L 287.9424 256.486266 
L 288.152471 256.950323 
L 288.467576 256.948134 
L 288.677647 257.838453 
L 289.202824 257.853759 
L 289.412894 258.765009 
L 289.622965 258.846463 
L 289.833035 259.343767 
L 290.043106 259.335385 
L 290.253176 259.988423 
L 290.568282 260.041686 
L 291.198494 260.048065 
L 291.408565 260.67622 
L 291.618635 260.691833 
L 291.933741 261.088662 
L 292.248847 261.242954 
L 292.458918 261.242062 
L 292.668988 261.574247 
L 294.664659 261.815757 
L 297.500612 261.901109 
L 297.710682 262.689608 
L 298.761035 262.698677 
L 298.971106 262.825842 
L 300.966776 262.903315 
L 303.172518 262.958598 
L 306.323576 263.045333 
L 306.743718 263.638341 
L 306.953788 264.402006 
L 307.373929 264.497951 
L 307.689035 264.533896 
L 307.899106 265.945511 
L 308.004141 265.948038 
L 308.214212 266.873119 
L 308.424282 267.491138 
L 308.529318 267.488261 
L 308.739388 268.098552 
L 309.054494 268.105571 
L 309.264565 268.645624 
L 309.579671 268.644361 
L 309.894776 268.932943 
L 310.314918 269.009584 
L 310.524988 269.226598 
L 310.630024 269.2522 
L 310.945129 270.12689 
L 311.1552 270.148272 
L 311.365271 271.409679 
L 311.575341 272.272065 
L 312.310588 272.385369 
L 312.520659 273.069219 
L 316.932141 273.449743 
L 318.822776 273.557634 
L 319.242918 273.728151 
L 321.448659 273.763296 
L 328.486024 274.048766 
L 329.746447 274.063934 
L 334.157929 274.352119 
L 334.368 276.787312 
L 334.998212 276.882648 
L 336.363671 276.978536 
L 336.573741 277.166135 
L 339.304659 277.241023 
L 339.514729 277.496153 
L 339.7248 279.074375 
L 340.880188 279.115389 
L 341.090259 279.304345 
L 342.350682 279.316857 
L 343.190965 279.320941 
L 343.716141 279.993392 
L 343.926212 280.076237 
L 344.136282 280.304628 
L 344.241318 280.301005 
L 344.451388 280.834154 
L 345.0816 281.158077 
L 345.921882 281.16336 
L 346.131953 283.110162 
L 346.762165 283.108538 
L 346.972235 283.742235 
L 348.022588 283.789123 
L 348.232659 284.031507 
L 350.858541 284.128299 
L 351.068612 284.194714 
L 353.274353 284.254832 
L 355.375059 284.336231 
L 355.585129 285.488219 
L 356.320376 285.475031 
L 356.530447 286.250572 
L 357.370729 286.250566 
L 357.5808 287.136416 
L 357.790871 287.166943 
L 358.000941 287.901743 
L 364.092988 288.032363 
L 364.303059 288.540908 
L 366.298729 288.544301 
L 366.823906 288.602961 
L 368.084329 288.701308 
L 368.399435 288.775942 
L 370.605176 288.863004 
L 371.340424 288.963773 
L 372.915953 289.032838 
L 373.336094 289.190197 
L 374.596518 289.329314 
L 376.697224 289.3688 
L 377.432471 289.45886 
L 377.642541 289.606773 
L 385.205082 289.884654 
L 385.415153 290.051209 
L 386.255435 290.10446 
L 389.091388 290.283659 
L 389.301459 290.352576 
L 394.868329 290.699524 
L 395.288471 290.824927 
L 396.758965 291.029515 
L 396.969035 292.453558 
L 397.284141 292.480972 
L 397.599247 294.562089 
L 397.809318 294.689891 
L 399.174776 294.72675 
L 400.750306 294.798235 
L 402.2208 294.835586 
L 404.741647 294.968416 
L 405.371859 294.977881 
L 410.203482 295.389375 
L 412.304188 295.423808 
L 414.614965 295.48723 
L 414.614965 295.48723 
" clip-path="url(#p48e26e5a44)" style="fill: none; stroke: #1f77b4; stroke-opacity: 0.3; stroke-width: 1.5; stroke-linecap: square"/>
   </g>
   <g id="patch_3">
    <path d="M 57.6 307.584 
L 57.6 41.472 
" style="fill: none; stroke: #000000; stroke-width: 0.8; stroke-linejoin: miter; stroke-linecap: square"/>
   </g>
   <g id="patch_4">
    <path d="M 414.72 307.584 
L 414.72 41.472 
" style="fill: none; stroke: #000000; stroke-width: 0.8; stroke-linejoin: miter; stroke-linecap: square"/>
   </g>
   <g id="patch_5">
    <path d="M 57.6 307.584 
L 414.72 307.584 
" style="fill: none; stroke: #000000; stroke-width: 0.8; stroke-linejoin: miter; stroke-linecap: square"/>
   </g>
   <g id="patch_6">
    <path d="M 57.6 41.472 
L 414.72 41.472 
" style="fill: none; stroke: #000000; stroke-width: 0.8; stroke-linejoin: miter; stroke-linecap: square"/>
   </g>
   <g id="text_19">
    <!-- Average $\chi^2$ by Step -->
    <g transform="translate(177.72 35.472)scale(0.12 -0.12)">
     <defs>
      <path id="DejaVuSans-41" d="M 2188 4044 
L 1331 1722 
L 3047 1722 
L 2188 4044 
z
M 1831 4666 
L 2547 4666 
L 4325 0 
L 3669 0 
L 3244 1197 
L 1141 1197 
L 716 0 
L 50 0 
L 1831 4666 
z
" transform="scale(0.015625)"/>
      <path id="DejaVuSans-76" d="M 191 3500 
L 800 3500 
L 1894 563 
L 2988 3500 
L 3597 3500 
L 2284 0 
L 1503 0 
L 191 3500 
z
" transform="scale(0.015625)"/>
      <path id="DejaVuSans-72" d="M 2631 2963 
Q 2534 3019 2420 3045 
Q 2306 3072 2169 3072 
Q 1681 3072 1420 2755 
Q 1159 2438 1159 1844 
L 1159 0 
L 581 0 
L 581 3500 
L 1159 3500 
L 1159 2956 
Q 1341 3275 1631 3429 
Q 1922 3584 2338 3584 
Q 2397 3584 2469 3576 
Q 2541 3569 2628 3553 
L 2631 2963 
z
" transform="scale(0.015625)"/>
      <path id="DejaVuSans-61" d="M 2194 1759 
Q 1497 1759 1228 1600 
Q 959 1441 959 1056 
Q 959 750 1161 570 
Q 1363 391 1709 391 
Q 2188 391 2477 730 
Q 2766 1069 2766 1631 
L 2766 1759 
L 2194 1759 
z
M 3341 1997 
L 3341 0 
L 2766 0 
L 2766 531 
Q 2569 213 2275 61 
Q 1981 -91 1556 -91 
Q 1019 -91 701 211 
Q 384 513 384 1019 
Q 384 1609 779 1909 
Q 1175 2209 1959 2209 
L 2766 2209 
L 2766 2266 
Q 2766 2663 2505 2880 
Q 2244 3097 1772 3097 
Q 1472 3097 1187 3025 
Q 903 2953 641 2809 
L 641 3341 
Q 956 3463 1253 3523 
Q 1550 3584 1831 3584 
Q 2591 3584 2966 3190 
Q 3341 2797 3341 1997 
z
" transform="scale(0.015625)"/>
      <path id="DejaVuSans-67" d="M 2906 1791 
Q 2906 2416 2648 2759 
Q 2391 3103 1925 3103 
Q 1463 3103 1205 2759 
Q 947 2416 947 1791 
Q 947 1169 1205 825 
Q 1463 481 1925 481 
Q 2391 481 2648 825 
Q 2906 1169 2906 1791 
z
M 3481 434 
Q 3481 -459 3084 -895 
Q 2688 -1331 1869 -1331 
Q 1566 -1331 1297 -1286 
Q 1028 -1241 775 -1147 
L 775 -588 
Q 1028 -725 1275 -790 
Q 1522 -856 1778 -856 
Q 2344 -856 2625 -561 
Q 2906 -266 2906 331 
L 2906 616 
Q 2728 306 2450 153 
Q 2172 0 1784 0 
Q 1141 0 747 490 
Q 353 981 353 1791 
Q 353 2603 747 3093 
Q 1141 3584 1784 3584 
Q 2172 3584 2450 3431 
Q 2728 3278 2906 2969 
L 2906 3500 
L 3481 3500 
L 3481 434 
z
" transform="scale(0.015625)"/>
      <path id="DejaVuSans-20" transform="scale(0.015625)"/>
      <path id="DejaVuSans-62" d="M 3116 1747 
Q 3116 2381 2855 2742 
Q 2594 3103 2138 3103 
Q 1681 3103 1420 2742 
Q 1159 2381 1159 1747 
Q 1159 1113 1420 752 
Q 1681 391 2138 391 
Q 2594 391 2855 752 
Q 3116 1113 3116 1747 
z
M 1159 2969 
Q 1341 3281 1617 3432 
Q 1894 3584 2278 3584 
Q 2916 3584 3314 3078 
Q 3713 2572 3713 1747 
Q 3713 922 3314 415 
Q 2916 -91 2278 -91 
Q 1894 -91 1617 61 
Q 1341 213 1159 525 
L 1159 0 
L 581 0 
L 581 4863 
L 1159 4863 
L 1159 2969 
z
" transform="scale(0.015625)"/>
      <path id="DejaVuSans-79" d="M 2059 -325 
Q 1816 -950 1584 -1140 
Q 1353 -1331 966 -1331 
L 506 -1331 
L 506 -850 
L 844 -850 
Q 1081 -850 1212 -737 
Q 1344 -625 1503 -206 
L 1606 56 
L 191 3500 
L 800 3500 
L 1894 763 
L 2988 3500 
L 3597 3500 
L 2059 -325 
z
" transform="scale(0.015625)"/>
      <path id="DejaVuSans-53" d="M 3425 4513 
L 3425 3897 
Q 3066 4069 2747 4153 
Q 2428 4238 2131 4238 
Q 1616 4238 1336 4038 
Q 1056 3838 1056 3469 
Q 1056 3159 1242 3001 
Q 1428 2844 1947 2747 
L 2328 2669 
Q 3034 2534 3370 2195 
Q 3706 1856 3706 1288 
Q 3706 609 3251 259 
Q 2797 -91 1919 -91 
Q 1588 -91 1214 -16 
Q 841 59 441 206 
L 441 856 
Q 825 641 1194 531 
Q 1563 422 1919 422 
Q 2459 422 2753 634 
Q 3047 847 3047 1241 
Q 3047 1584 2836 1778 
Q 2625 1972 2144 2069 
L 1759 2144 
Q 1053 2284 737 2584 
Q 422 2884 422 3419 
Q 422 4038 858 4394 
Q 1294 4750 2059 4750 
Q 2388 4750 2728 4690 
Q 3069 4631 3425 4513 
z
" transform="scale(0.015625)"/>
     </defs>
     <use xlink:href="#DejaVuSans-41" transform="translate(0 0.765625)"/>
     <use xlink:href="#DejaVuSans-76" transform="translate(68.408203 0.765625)"/>
     <use xlink:href="#DejaVuSans-65" transform="translate(127.587891 0.765625)"/>
     <use xlink:href="#DejaVuSans-72" transform="translate(189.111328 0.765625)"/>
     <use xlink:href="#DejaVuSans-61" transform="translate(230.224609 0.765625)"/>
     <use xlink:href="#DejaVuSans-67" transform="translate(291.503906 0.765625)"/>
     <use xlink:href="#DejaVuSans-65" transform="translate(354.980469 0.765625)"/>
     <use xlink:href="#DejaVuSans-20" transform="translate(416.503906 0.765625)"/>
     <use xlink:href="#DejaVuSans-Oblique-3c7" transform="translate(448.291016 0.765625)"/>
     <use xlink:href="#DejaVuSans-32" transform="translate(511.943411 39.046875)scale(0.7)"/>
     <use xlink:href="#DejaVuSans-20" transform="translate(559.213919 0.765625)"/>
     <use xlink:href="#DejaVuSans-62" transform="translate(591.001029 0.765625)"/>
     <use xlink:href="#DejaVuSans-79" transform="translate(654.477591 0.765625)"/>
     <use xlink:href="#DejaVuSans-20" transform="translate(713.657279 0.765625)"/>
     <use xlink:href="#DejaVuSans-53" transform="translate(745.444388 0.765625)"/>
     <use xlink:href="#DejaVuSans-74" transform="translate(808.920951 0.765625)"/>
     <use xlink:href="#DejaVuSans-65" transform="translate(848.129935 0.765625)"/>
     <use xlink:href="#DejaVuSans-70" transform="translate(909.653372 0.765625)"/>
    </g>
   </g>
  </g>
 </g>
 <defs>
  <clipPath id="p48e26e5a44">
   <rect x="57.6" y="41.472" width="357.12" height="266.112"/>
  </clipPath>
 </defs>
</svg>
