<?xml version="1.0" encoding="utf-8" standalone="no"?>
<!DOCTYPE svg PUBLIC "-//W3C//DTD SVG 1.1//EN"
  "http://www.w3.org/Graphics/SVG/1.1/DTD/svg11.dtd">
<svg xmlns:xlink="http://www.w3.org/1999/xlink" width="460.8pt" height="345.6pt" viewBox="0 0 460.8 345.6" xmlns="http://www.w3.org/2000/svg" version="1.1">
 <metadata>
  <rdf:RDF xmlns:dc="http://purl.org/dc/elements/1.1/" xmlns:cc="http://creativecommons.org/ns#" xmlns:rdf="http://www.w3.org/1999/02/22-rdf-syntax-ns#">
   <cc:Work>
    <dc:type rdf:resource="http://purl.org/dc/dcmitype/StillImage"/>
    <dc:date>2022-07-23T13:54:55.309623</dc:date>
    <dc:format>image/svg+xml</dc:format>
    <dc:creator>
     <cc:Agent>
      <dc:title>Matplotlib v3.5.0, https://matplotlib.org/</dc:title>
     </cc:Agent>
    </dc:creator>
   </cc:Work>
  </rdf:RDF>
 </metadata>
 <defs>
  <style type="text/css">*{stroke-linejoin: round; stroke-linecap: butt}</style>
 </defs>
 <g id="figure_1">
  <g id="patch_1">
   <path d="M 0 345.6 
L 460.8 345.6 
L 460.8 0 
L 0 0 
z
" style="fill: #ffffff"/>
  </g>
  <g id="axes_1">
   <g id="patch_2">
    <path d="M 57.6 307.584 
L 414.72 307.584 
L 414.72 41.472 
L 57.6 41.472 
z
" style="fill: #ffffff"/>
   </g>
   <g id="matplotlib.axis_1">
    <g id="xtick_1">
     <g id="line2d_1">
      <defs>
       <path id="mf1c12fce9c" d="M 0 0 
L 0 3.5 
" style="stroke: #000000; stroke-width: 0.8"/>
      </defs>
      <g>
       <use xlink:href="#mf1c12fce9c" x="57.6" y="307.584" style="stroke: #000000; stroke-width: 0.8"/>
      </g>
     </g>
     <g id="text_1">
      <!-- 500 -->
      <g transform="translate(48.05625 322.182437)scale(0.1 -0.1)">
       <defs>
        <path id="DejaVuSans-35" d="M 691 4666 
L 3169 4666 
L 3169 4134 
L 1269 4134 
L 1269 2991 
Q 1406 3038 1543 3061 
Q 1681 3084 1819 3084 
Q 2600 3084 3056 2656 
Q 3513 2228 3513 1497 
Q 3513 744 3044 326 
Q 2575 -91 1722 -91 
Q 1428 -91 1123 -41 
Q 819 9 494 109 
L 494 744 
Q 775 591 1075 516 
Q 1375 441 1709 441 
Q 2250 441 2565 725 
Q 2881 1009 2881 1497 
Q 2881 1984 2565 2268 
Q 2250 2553 1709 2553 
Q 1456 2553 1204 2497 
Q 953 2441 691 2322 
L 691 4666 
z
" transform="scale(0.015625)"/>
        <path id="DejaVuSans-30" d="M 2034 4250 
Q 1547 4250 1301 3770 
Q 1056 3291 1056 2328 
Q 1056 1369 1301 889 
Q 1547 409 2034 409 
Q 2525 409 2770 889 
Q 3016 1369 3016 2328 
Q 3016 3291 2770 3770 
Q 2525 4250 2034 4250 
z
M 2034 4750 
Q 2819 4750 3233 4129 
Q 3647 3509 3647 2328 
Q 3647 1150 3233 529 
Q 2819 -91 2034 -91 
Q 1250 -91 836 529 
Q 422 1150 422 2328 
Q 422 3509 836 4129 
Q 1250 4750 2034 4750 
z
" transform="scale(0.015625)"/>
       </defs>
       <use xlink:href="#DejaVuSans-35"/>
       <use xlink:href="#DejaVuSans-30" x="63.623047"/>
       <use xlink:href="#DejaVuSans-30" x="127.246094"/>
      </g>
     </g>
    </g>
    <g id="xtick_2">
     <g id="line2d_2">
      <g>
       <use xlink:href="#mf1c12fce9c" x="110.117647" y="307.584" style="stroke: #000000; stroke-width: 0.8"/>
      </g>
     </g>
     <g id="text_2">
      <!-- 1000 -->
      <g transform="translate(97.392647 322.182437)scale(0.1 -0.1)">
       <defs>
        <path id="DejaVuSans-31" d="M 794 531 
L 1825 531 
L 1825 4091 
L 703 3866 
L 703 4441 
L 1819 4666 
L 2450 4666 
L 2450 531 
L 3481 531 
L 3481 0 
L 794 0 
L 794 531 
z
" transform="scale(0.015625)"/>
       </defs>
       <use xlink:href="#DejaVuSans-31"/>
       <use xlink:href="#DejaVuSans-30" x="63.623047"/>
       <use xlink:href="#DejaVuSans-30" x="127.246094"/>
       <use xlink:href="#DejaVuSans-30" x="190.869141"/>
      </g>
     </g>
    </g>
    <g id="xtick_3">
     <g id="line2d_3">
      <g>
       <use xlink:href="#mf1c12fce9c" x="162.635294" y="307.584" style="stroke: #000000; stroke-width: 0.8"/>
      </g>
     </g>
     <g id="text_3">
      <!-- 1500 -->
      <g transform="translate(149.910294 322.182437)scale(0.1 -0.1)">
       <use xlink:href="#DejaVuSans-31"/>
       <use xlink:href="#DejaVuSans-35" x="63.623047"/>
       <use xlink:href="#DejaVuSans-30" x="127.246094"/>
       <use xlink:href="#DejaVuSans-30" x="190.869141"/>
      </g>
     </g>
    </g>
    <g id="xtick_4">
     <g id="line2d_4">
      <g>
       <use xlink:href="#mf1c12fce9c" x="215.152941" y="307.584" style="stroke: #000000; stroke-width: 0.8"/>
      </g>
     </g>
     <g id="text_4">
      <!-- 2000 -->
      <g transform="translate(202.427941 322.182437)scale(0.1 -0.1)">
       <defs>
        <path id="DejaVuSans-32" d="M 1228 531 
L 3431 531 
L 3431 0 
L 469 0 
L 469 531 
Q 828 903 1448 1529 
Q 2069 2156 2228 2338 
Q 2531 2678 2651 2914 
Q 2772 3150 2772 3378 
Q 2772 3750 2511 3984 
Q 2250 4219 1831 4219 
Q 1534 4219 1204 4116 
Q 875 4013 500 3803 
L 500 4441 
Q 881 4594 1212 4672 
Q 1544 4750 1819 4750 
Q 2544 4750 2975 4387 
Q 3406 4025 3406 3419 
Q 3406 3131 3298 2873 
Q 3191 2616 2906 2266 
Q 2828 2175 2409 1742 
Q 1991 1309 1228 531 
z
" transform="scale(0.015625)"/>
       </defs>
       <use xlink:href="#DejaVuSans-32"/>
       <use xlink:href="#DejaVuSans-30" x="63.623047"/>
       <use xlink:href="#DejaVuSans-30" x="127.246094"/>
       <use xlink:href="#DejaVuSans-30" x="190.869141"/>
      </g>
     </g>
    </g>
    <g id="xtick_5">
     <g id="line2d_5">
      <g>
       <use xlink:href="#mf1c12fce9c" x="267.670588" y="307.584" style="stroke: #000000; stroke-width: 0.8"/>
      </g>
     </g>
     <g id="text_5">
      <!-- 2500 -->
      <g transform="translate(254.945588 322.182437)scale(0.1 -0.1)">
       <use xlink:href="#DejaVuSans-32"/>
       <use xlink:href="#DejaVuSans-35" x="63.623047"/>
       <use xlink:href="#DejaVuSans-30" x="127.246094"/>
       <use xlink:href="#DejaVuSans-30" x="190.869141"/>
      </g>
     </g>
    </g>
    <g id="xtick_6">
     <g id="line2d_6">
      <g>
       <use xlink:href="#mf1c12fce9c" x="320.188235" y="307.584" style="stroke: #000000; stroke-width: 0.8"/>
      </g>
     </g>
     <g id="text_6">
      <!-- 3000 -->
      <g transform="translate(307.463235 322.182437)scale(0.1 -0.1)">
       <defs>
        <path id="DejaVuSans-33" d="M 2597 2516 
Q 3050 2419 3304 2112 
Q 3559 1806 3559 1356 
Q 3559 666 3084 287 
Q 2609 -91 1734 -91 
Q 1441 -91 1130 -33 
Q 819 25 488 141 
L 488 750 
Q 750 597 1062 519 
Q 1375 441 1716 441 
Q 2309 441 2620 675 
Q 2931 909 2931 1356 
Q 2931 1769 2642 2001 
Q 2353 2234 1838 2234 
L 1294 2234 
L 1294 2753 
L 1863 2753 
Q 2328 2753 2575 2939 
Q 2822 3125 2822 3475 
Q 2822 3834 2567 4026 
Q 2313 4219 1838 4219 
Q 1578 4219 1281 4162 
Q 984 4106 628 3988 
L 628 4550 
Q 988 4650 1302 4700 
Q 1616 4750 1894 4750 
Q 2613 4750 3031 4423 
Q 3450 4097 3450 3541 
Q 3450 3153 3228 2886 
Q 3006 2619 2597 2516 
z
" transform="scale(0.015625)"/>
       </defs>
       <use xlink:href="#DejaVuSans-33"/>
       <use xlink:href="#DejaVuSans-30" x="63.623047"/>
       <use xlink:href="#DejaVuSans-30" x="127.246094"/>
       <use xlink:href="#DejaVuSans-30" x="190.869141"/>
      </g>
     </g>
    </g>
    <g id="xtick_7">
     <g id="line2d_7">
      <g>
       <use xlink:href="#mf1c12fce9c" x="372.705882" y="307.584" style="stroke: #000000; stroke-width: 0.8"/>
      </g>
     </g>
     <g id="text_7">
      <!-- 3500 -->
      <g transform="translate(359.980882 322.182437)scale(0.1 -0.1)">
       <use xlink:href="#DejaVuSans-33"/>
       <use xlink:href="#DejaVuSans-35" x="63.623047"/>
       <use xlink:href="#DejaVuSans-30" x="127.246094"/>
       <use xlink:href="#DejaVuSans-30" x="190.869141"/>
      </g>
     </g>
    </g>
    <g id="text_8">
     <!-- step -->
     <g transform="translate(225.344375 335.860562)scale(0.1 -0.1)">
      <defs>
       <path id="DejaVuSans-73" d="M 2834 3397 
L 2834 2853 
Q 2591 2978 2328 3040 
Q 2066 3103 1784 3103 
Q 1356 3103 1142 2972 
Q 928 2841 928 2578 
Q 928 2378 1081 2264 
Q 1234 2150 1697 2047 
L 1894 2003 
Q 2506 1872 2764 1633 
Q 3022 1394 3022 966 
Q 3022 478 2636 193 
Q 2250 -91 1575 -91 
Q 1294 -91 989 -36 
Q 684 19 347 128 
L 347 722 
Q 666 556 975 473 
Q 1284 391 1588 391 
Q 1994 391 2212 530 
Q 2431 669 2431 922 
Q 2431 1156 2273 1281 
Q 2116 1406 1581 1522 
L 1381 1569 
Q 847 1681 609 1914 
Q 372 2147 372 2553 
Q 372 3047 722 3315 
Q 1072 3584 1716 3584 
Q 2034 3584 2315 3537 
Q 2597 3491 2834 3397 
z
" transform="scale(0.015625)"/>
       <path id="DejaVuSans-74" d="M 1172 4494 
L 1172 3500 
L 2356 3500 
L 2356 3053 
L 1172 3053 
L 1172 1153 
Q 1172 725 1289 603 
Q 1406 481 1766 481 
L 2356 481 
L 2356 0 
L 1766 0 
Q 1100 0 847 248 
Q 594 497 594 1153 
L 594 3053 
L 172 3053 
L 172 3500 
L 594 3500 
L 594 4494 
L 1172 4494 
z
" transform="scale(0.015625)"/>
       <path id="DejaVuSans-65" d="M 3597 1894 
L 3597 1613 
L 953 1613 
Q 991 1019 1311 708 
Q 1631 397 2203 397 
Q 2534 397 2845 478 
Q 3156 559 3463 722 
L 3463 178 
Q 3153 47 2828 -22 
Q 2503 -91 2169 -91 
Q 1331 -91 842 396 
Q 353 884 353 1716 
Q 353 2575 817 3079 
Q 1281 3584 2069 3584 
Q 2775 3584 3186 3129 
Q 3597 2675 3597 1894 
z
M 3022 2063 
Q 3016 2534 2758 2815 
Q 2500 3097 2075 3097 
Q 1594 3097 1305 2825 
Q 1016 2553 972 2059 
L 3022 2063 
z
" transform="scale(0.015625)"/>
       <path id="DejaVuSans-70" d="M 1159 525 
L 1159 -1331 
L 581 -1331 
L 581 3500 
L 1159 3500 
L 1159 2969 
Q 1341 3281 1617 3432 
Q 1894 3584 2278 3584 
Q 2916 3584 3314 3078 
Q 3713 2572 3713 1747 
Q 3713 922 3314 415 
Q 2916 -91 2278 -91 
Q 1894 -91 1617 61 
Q 1341 213 1159 525 
z
M 3116 1747 
Q 3116 2381 2855 2742 
Q 2594 3103 2138 3103 
Q 1681 3103 1420 2742 
Q 1159 2381 1159 1747 
Q 1159 1113 1420 752 
Q 1681 391 2138 391 
Q 2594 391 2855 752 
Q 3116 1113 3116 1747 
z
" transform="scale(0.015625)"/>
      </defs>
      <use xlink:href="#DejaVuSans-73"/>
      <use xlink:href="#DejaVuSans-74" x="52.099609"/>
      <use xlink:href="#DejaVuSans-65" x="91.308594"/>
      <use xlink:href="#DejaVuSans-70" x="152.832031"/>
     </g>
    </g>
   </g>
   <g id="matplotlib.axis_2">
    <g id="ytick_1">
     <g id="line2d_8">
      <defs>
       <path id="m53df18593b" d="M 0 0 
L -3.5 0 
" style="stroke: #000000; stroke-width: 0.8"/>
      </defs>
      <g>
       <use xlink:href="#m53df18593b" x="57.6" y="298.578056" style="stroke: #000000; stroke-width: 0.8"/>
      </g>
     </g>
     <g id="text_9">
      <!-- 0 -->
      <g transform="translate(44.2375 302.377275)scale(0.1 -0.1)">
       <use xlink:href="#DejaVuSans-30"/>
      </g>
     </g>
    </g>
    <g id="ytick_2">
     <g id="line2d_9">
      <g>
       <use xlink:href="#m53df18593b" x="57.6" y="247.663769" style="stroke: #000000; stroke-width: 0.8"/>
      </g>
     </g>
     <g id="text_10">
      <!-- 500 -->
      <g transform="translate(31.5125 251.462988)scale(0.1 -0.1)">
       <use xlink:href="#DejaVuSans-35"/>
       <use xlink:href="#DejaVuSans-30" x="63.623047"/>
       <use xlink:href="#DejaVuSans-30" x="127.246094"/>
      </g>
     </g>
    </g>
    <g id="ytick_3">
     <g id="line2d_10">
      <g>
       <use xlink:href="#m53df18593b" x="57.6" y="196.749483" style="stroke: #000000; stroke-width: 0.8"/>
      </g>
     </g>
     <g id="text_11">
      <!-- 1000 -->
      <g transform="translate(25.15 200.548701)scale(0.1 -0.1)">
       <use xlink:href="#DejaVuSans-31"/>
       <use xlink:href="#DejaVuSans-30" x="63.623047"/>
       <use xlink:href="#DejaVuSans-30" x="127.246094"/>
       <use xlink:href="#DejaVuSans-30" x="190.869141"/>
      </g>
     </g>
    </g>
    <g id="ytick_4">
     <g id="line2d_11">
      <g>
       <use xlink:href="#m53df18593b" x="57.6" y="145.835196" style="stroke: #000000; stroke-width: 0.8"/>
      </g>
     </g>
     <g id="text_12">
      <!-- 1500 -->
      <g transform="translate(25.15 149.634415)scale(0.1 -0.1)">
       <use xlink:href="#DejaVuSans-31"/>
       <use xlink:href="#DejaVuSans-35" x="63.623047"/>
       <use xlink:href="#DejaVuSans-30" x="127.246094"/>
       <use xlink:href="#DejaVuSans-30" x="190.869141"/>
      </g>
     </g>
    </g>
    <g id="ytick_5">
     <g id="line2d_12">
      <g>
       <use xlink:href="#m53df18593b" x="57.6" y="94.920909" style="stroke: #000000; stroke-width: 0.8"/>
      </g>
     </g>
     <g id="text_13">
      <!-- 2000 -->
      <g transform="translate(25.15 98.720128)scale(0.1 -0.1)">
       <use xlink:href="#DejaVuSans-32"/>
       <use xlink:href="#DejaVuSans-30" x="63.623047"/>
       <use xlink:href="#DejaVuSans-30" x="127.246094"/>
       <use xlink:href="#DejaVuSans-30" x="190.869141"/>
      </g>
     </g>
    </g>
    <g id="ytick_6">
     <g id="line2d_13">
      <g>
       <use xlink:href="#m53df18593b" x="57.6" y="44.006623" style="stroke: #000000; stroke-width: 0.8"/>
      </g>
     </g>
     <g id="text_14">
      <!-- 2500 -->
      <g transform="translate(25.15 47.805841)scale(0.1 -0.1)">
       <use xlink:href="#DejaVuSans-32"/>
       <use xlink:href="#DejaVuSans-35" x="63.623047"/>
       <use xlink:href="#DejaVuSans-30" x="127.246094"/>
       <use xlink:href="#DejaVuSans-30" x="190.869141"/>
      </g>
     </g>
    </g>
    <g id="text_15">
     <!-- $\chi^2$ -->
     <g transform="translate(19.05 180.078)rotate(-90)scale(0.1 -0.1)">
      <defs>
       <path id="DejaVuSans-Oblique-3c7" d="M 1922 -781 
L 1691 416 
L 394 -1334 
L -284 -1334 
L 1553 1141 
L 1269 2613 
Q 1194 3006 713 3006 
L 559 3006 
L 653 3500 
L 872 3494 
Q 1675 3472 1775 2950 
L 2006 1753 
L 3303 3503 
L 3981 3503 
L 2144 1028 
L 2428 -444 
Q 2503 -838 2984 -838 
L 3138 -838 
L 3044 -1331 
L 2825 -1325 
Q 2022 -1303 1922 -781 
z
" transform="scale(0.015625)"/>
      </defs>
      <use xlink:href="#DejaVuSans-Oblique-3c7" transform="translate(0 0.765625)"/>
      <use xlink:href="#DejaVuSans-32" transform="translate(63.652396 39.046875)scale(0.7)"/>
     </g>
    </g>
   </g>
   <g id="line2d_14">
    <path d="M 57.6 53.568 
L 57.915106 53.601241 
L 58.650353 55.007572 
L 58.965459 55.454199 
L 59.175529 56.883092 
L 59.3856 56.893189 
L 59.595671 57.479025 
L 59.700706 57.498148 
L 60.015812 58.681908 
L 60.120847 58.805505 
L 60.225882 59.135919 
L 60.751059 62.486535 
L 61.066165 62.99965 
L 61.276235 64.165384 
L 61.486306 65.04963 
L 61.696376 65.168395 
L 61.906447 66.342442 
L 62.221553 67.82269 
L 62.536659 70.267875 
L 62.641694 70.271253 
L 62.851765 71.461546 
L 63.061835 71.492183 
L 63.271906 71.932404 
L 63.481976 73.110334 
L 63.692047 73.12504 
L 64.217224 75.840935 
L 64.532329 78.616456 
L 64.7424 79.492884 
L 64.952471 79.693911 
L 65.057506 79.701275 
L 65.267576 80.329679 
L 65.477647 81.124125 
L 65.792753 81.374413 
L 66.002824 82.668547 
L 66.212894 83.082497 
L 66.528 83.177413 
L 66.738071 83.827797 
L 67.158212 83.911284 
L 67.473318 84.559845 
L 67.578353 84.659518 
L 67.788424 85.071847 
L 68.103529 85.086303 
L 68.3136 85.256845 
L 68.733741 85.3413 
L 69.363953 85.417074 
L 69.574024 86.172784 
L 69.679059 86.173727 
L 69.889129 86.557264 
L 70.414306 86.627839 
L 70.939482 86.744622 
L 71.254588 86.757418 
L 71.464659 87.486885 
L 71.674729 87.608705 
L 72.094871 87.665785 
L 72.304941 87.787532 
L 73.250259 88.113007 
L 73.460329 88.574551 
L 73.6704 88.82709 
L 73.880471 88.951337 
L 74.090541 89.608184 
L 74.195576 89.610434 
L 74.405647 89.756125 
L 74.825788 89.785786 
L 75.035859 90.248298 
L 75.140894 90.244424 
L 75.350965 90.437414 
L 75.771106 90.503416 
L 75.981176 91.393199 
L 77.031529 91.580632 
L 77.346635 91.649562 
L 77.976847 91.669381 
L 78.186918 92.101047 
L 78.291953 92.09682 
L 78.607059 92.417709 
L 79.657412 92.513505 
L 79.867482 92.705084 
L 80.182588 92.85269 
L 81.022871 92.909889 
L 81.232941 93.175028 
L 81.863153 93.231164 
L 82.5984 93.318153 
L 82.808471 93.453279 
L 82.913506 93.467423 
L 83.123576 94.094547 
L 83.333647 94.229713 
L 83.753788 94.305642 
L 83.858824 94.381926 
L 84.068894 95.693534 
L 84.173929 95.723472 
L 84.489035 96.203867 
L 84.699106 96.239425 
L 84.804141 96.526935 
L 85.014212 97.411837 
L 85.224282 97.490342 
L 85.329318 97.679985 
L 85.539388 99.083211 
L 85.854494 99.157613 
L 85.959529 99.190383 
L 86.1696 99.481712 
L 86.379671 99.512085 
L 86.589741 99.823804 
L 87.324988 99.850391 
L 87.9552 100.200251 
L 88.060235 100.202455 
L 88.270306 101.326023 
L 88.585412 101.350237 
L 88.795482 101.766051 
L 88.900518 101.763243 
L 89.110588 102.969907 
L 89.950871 103.018099 
L 90.265976 103.11356 
L 90.371012 103.12716 
L 90.581082 103.430134 
L 90.896188 103.477824 
L 91.106259 105.986593 
L 91.5264 106.0673 
L 91.736471 106.289958 
L 92.051576 106.367022 
L 92.891859 106.41013 
L 93.206965 106.446788 
L 93.732141 106.520188 
L 94.152282 106.594814 
L 94.572424 106.655008 
L 94.782494 106.886819 
L 95.0976 106.926496 
L 95.307671 107.248779 
L 95.937882 107.278072 
L 96.147953 107.379277 
L 98.038588 107.67872 
L 98.6688 107.716064 
L 101.399718 107.813134 
L 101.609788 108.117747 
L 101.819859 108.295161 
L 102.765176 108.386044 
L 102.975247 108.727494 
L 103.395388 108.77437 
L 103.815529 108.789024 
L 104.0256 109.190242 
L 104.235671 109.729536 
L 104.340706 109.796762 
L 104.550776 110.136041 
L 104.655812 110.141585 
L 104.865882 110.916528 
L 105.286024 110.967845 
L 105.496094 111.682913 
L 105.706165 111.777894 
L 106.021271 111.794954 
L 106.231341 112.21185 
L 106.441412 112.223102 
L 106.651482 112.437589 
L 107.281694 112.594174 
L 107.491765 113.348361 
L 107.5968 113.342578 
L 107.806871 113.644123 
L 107.911906 113.6457 
L 108.121976 114.402102 
L 108.752188 114.431679 
L 108.962259 114.839909 
L 109.067294 114.918869 
L 109.487435 115.927624 
L 110.222682 116.001131 
L 110.432753 116.529155 
L 110.537788 116.522983 
L 110.852894 117.945836 
L 111.062965 117.96898 
L 111.273035 119.153206 
L 111.483106 119.281116 
L 111.693176 121.027047 
L 112.323388 121.214647 
L 112.533459 122.083394 
L 112.743529 122.627753 
L 113.268706 122.6384 
L 113.478776 122.86603 
L 114.319059 123.263532 
L 114.424094 123.26765 
L 114.634165 124.415248 
L 114.844235 125.360774 
L 115.474447 125.421736 
L 115.579482 125.565335 
L 115.789553 126.557559 
L 116.209694 126.614656 
L 116.419765 126.971423 
L 116.629835 127.003505 
L 116.839906 128.168689 
L 116.944941 128.173224 
L 117.155012 128.468044 
L 117.785224 130.656687 
L 118.3104 130.841668 
L 118.415435 130.840014 
L 118.625506 131.196376 
L 119.360753 131.233964 
L 119.570824 131.675457 
L 119.780894 131.952553 
L 120.201035 131.975346 
L 120.411106 132.112881 
L 120.621176 132.209902 
L 122.301741 132.437946 
L 123.036988 132.584539 
L 123.247059 132.809708 
L 124.087341 132.913979 
L 124.402447 133.093252 
L 124.822588 133.173386 
L 125.032659 133.293758 
L 125.767906 133.398328 
L 125.977976 133.478901 
L 126.293082 134.340258 
L 126.503153 134.352478 
L 126.713224 135.604576 
L 126.923294 135.665376 
L 127.2384 135.730536 
L 127.553506 135.763028 
L 128.078682 135.857502 
L 128.918965 136.161612 
L 129.129035 136.471053 
L 129.444141 136.476549 
L 129.654212 137.82462 
L 129.759247 137.851258 
L 129.864282 138.025385 
L 130.074353 139.771364 
L 130.389459 139.885808 
L 130.914635 139.974845 
L 131.019671 139.98093 
L 131.229741 140.62767 
L 131.439812 140.708362 
L 131.544847 140.718143 
L 132.070024 141.977615 
L 132.175059 141.983729 
L 132.280094 143.794177 
L 132.385129 143.785755 
L 132.5952 144.186207 
L 132.805271 144.552654 
L 133.015341 144.561035 
L 133.225412 145.618069 
L 133.540518 145.699623 
L 133.750588 145.892194 
L 134.275765 145.962729 
L 134.695906 146.03989 
L 134.800941 146.077084 
L 135.011012 146.707824 
L 135.221082 147.038609 
L 135.956329 147.086305 
L 136.1664 148.121749 
L 136.376471 148.197421 
L 136.481506 148.190633 
L 136.691576 148.494685 
L 137.006682 148.490174 
L 137.216753 148.6562 
L 137.531859 148.638485 
L 137.741929 148.928818 
L 138.267106 148.989974 
L 138.477176 149.360307 
L 138.582212 149.371158 
L 138.792282 150.142141 
L 139.002353 150.143455 
L 139.212424 150.277681 
L 139.947671 150.395224 
L 140.157741 151.174367 
L 140.998024 151.255682 
L 141.208094 151.262788 
L 141.418165 151.494395 
L 142.048376 151.516036 
L 142.258447 151.947296 
L 143.203765 152.030843 
L 143.413835 152.471849 
L 143.833976 152.475652 
L 144.044047 152.648846 
L 144.884329 152.782204 
L 145.0944 153.183054 
L 145.724612 153.209494 
L 145.829647 153.386992 
L 146.039718 154.161106 
L 146.249788 154.521453 
L 146.354824 154.524975 
L 146.564894 154.738445 
L 147.720282 155.088456 
L 147.930353 155.538568 
L 148.035388 155.545317 
L 148.245459 155.884582 
L 148.455529 155.930567 
L 148.560565 156.279578 
L 148.770635 157.186803 
L 149.295812 157.259258 
L 149.505882 157.45407 
L 149.715953 158.28422 
L 150.556235 158.302836 
L 151.186447 158.810743 
L 151.501553 159.783351 
L 152.551906 160.174251 
L 152.867012 160.267151 
L 154.232471 160.362018 
L 154.442541 160.417667 
L 154.862682 160.459437 
L 155.072753 160.556524 
L 155.808 160.675054 
L 156.018071 160.740543 
L 156.753318 160.806674 
L 156.858353 160.959691 
L 157.068424 163.280044 
L 157.488565 163.408839 
L 158.013741 163.43137 
L 158.223812 163.787925 
L 158.433882 163.975958 
L 158.748988 163.968749 
L 158.959059 164.081586 
L 159.169129 164.115356 
L 159.484235 164.699637 
L 160.009412 164.730264 
L 160.324518 164.974955 
L 160.534588 165.441844 
L 160.849694 165.454494 
L 161.059765 166.180927 
L 161.1648 166.210218 
L 161.374871 166.444158 
L 161.479906 166.454296 
L 161.689976 167.136104 
L 161.795012 167.17685 
L 162.005082 167.424445 
L 162.215153 167.424844 
L 162.425224 167.747744 
L 162.9504 167.764026 
L 163.265506 169.596028 
L 163.475576 169.602507 
L 163.790682 170.330725 
L 164.315859 170.385096 
L 164.630965 170.452643 
L 165.261176 170.507552 
L 165.471247 170.653651 
L 173.453929 171.375597 
L 173.664 172.284734 
L 173.979106 172.32339 
L 174.189176 172.41406 
L 174.399247 172.453015 
L 174.609318 172.716701 
L 174.819388 174.344913 
L 174.924424 174.346931 
L 175.134494 174.661243 
L 175.554635 174.66236 
L 175.764706 174.969076 
L 176.394918 174.983645 
L 176.604988 175.336578 
L 176.815059 175.417587 
L 177.655341 175.513599 
L 177.865412 176.458317 
L 179.230871 176.626681 
L 179.756047 176.760273 
L 179.966118 177.089756 
L 180.071153 177.090994 
L 180.491294 178.750082 
L 180.8064 179.526733 
L 181.121506 179.532339 
L 181.331576 179.743522 
L 181.856753 179.807184 
L 182.066824 179.917595 
L 183.222212 179.964052 
L 183.537318 180.552597 
L 186.373271 180.644523 
L 186.898447 180.647709 
L 187.108518 180.799557 
L 187.738729 180.94371 
L 187.9488 181.346919 
L 188.158871 181.465629 
L 188.263906 181.467621 
L 188.473976 181.689912 
L 189.314259 181.72731 
L 189.524329 182.870921 
L 189.7344 183.231102 
L 189.839435 183.230753 
L 190.049506 183.644927 
L 190.259576 183.812098 
L 190.784753 183.908304 
L 190.994824 184.028757 
L 191.625035 184.088344 
L 193.620706 184.254856 
L 193.830776 184.559378 
L 193.935812 184.555762 
L 194.145882 184.785775 
L 194.250918 184.845978 
L 194.460988 185.540152 
L 194.881129 185.562296 
L 195.0912 186.4224 
L 195.406306 186.439489 
L 195.616376 187.14071 
L 195.826447 187.30081 
L 195.931482 187.303245 
L 196.141553 187.661079 
L 196.351624 187.796872 
L 196.666729 187.845547 
L 196.8768 188.076037 
L 201.183247 188.410284 
L 206.540047 188.685647 
L 206.855153 189.763293 
L 208.010541 189.807803 
L 208.220612 190.784924 
L 209.165929 190.815674 
L 209.376 191.048334 
L 210.951529 191.074482 
L 212.9472 191.142464 
L 213.157271 191.382139 
L 214.7328 191.441412 
L 215.363012 191.578462 
L 217.043576 191.665149 
L 217.253647 192.143322 
L 219.249318 192.152152 
L 219.459388 192.395236 
L 220.0896 192.439499 
L 221.034918 192.487586 
L 221.244988 192.617807 
L 224.501082 192.715019 
L 224.711153 193.121813 
L 225.656471 193.169529 
L 232.273694 193.564616 
L 232.483765 193.762215 
L 232.903906 193.857082 
L 233.113976 194.123251 
L 234.3744 194.123531 
L 234.584471 194.277404 
L 236.895247 194.439018 
L 237.105318 194.502196 
L 237.735529 194.567418 
L 237.9456 194.674511 
L 238.995953 194.711075 
L 239.206024 195.003971 
L 245.088 195.133322 
L 245.298071 195.18978 
L 245.508141 196.755504 
L 247.188706 196.809847 
L 247.608847 196.906828 
L 247.818918 197.496368 
L 248.6592 197.60204 
L 248.974306 198.649402 
L 249.919624 198.673204 
L 251.810259 198.697599 
L 252.020329 198.860821 
L 252.545506 198.854666 
L 252.755576 199.987188 
L 255.591529 200.159344 
L 255.8016 200.331547 
L 256.011671 200.987825 
L 256.326776 201.044255 
L 256.536847 201.365048 
L 256.641882 201.455239 
L 256.851953 202.121345 
L 257.062024 202.115558 
L 257.167059 202.275121 
L 257.377129 203.106629 
L 257.5872 203.103012 
L 257.797271 203.341195 
L 258.217412 203.330982 
L 258.427482 203.70024 
L 261.368471 203.82515 
L 261.578541 204.523824 
L 261.893647 204.517966 
L 262.103718 204.664014 
L 262.628894 204.724352 
L 262.838965 204.824893 
L 263.259106 204.860985 
L 263.469176 204.967322 
L 264.204424 205.052402 
L 264.519529 205.235117 
L 265.990024 205.324668 
L 266.5152 205.366619 
L 267.145412 205.43582 
L 268.510871 205.551626 
L 268.720941 206.170661 
L 269.561224 206.27625 
L 269.771294 207.074627 
L 270.401506 207.096047 
L 270.611576 207.459404 
L 271.766965 207.467053 
L 271.977035 207.589343 
L 272.292141 207.595432 
L 272.502212 208.352322 
L 273.552565 208.450283 
L 273.972706 208.505301 
L 274.182776 208.611148 
L 278.069082 208.774793 
L 278.279153 209.06608 
L 278.489224 209.259036 
L 279.119435 209.290335 
L 279.329506 209.432958 
L 281.010071 209.471295 
L 281.430212 210.67742 
L 281.640282 210.679551 
L 282.375529 215.172954 
L 283.005741 215.239162 
L 283.215812 215.608436 
L 283.320847 215.865095 
L 283.530918 217.012837 
L 285.211482 217.251707 
L 287.9424 217.596939 
L 288.152471 217.972059 
L 288.467576 217.970289 
L 288.677647 218.689979 
L 289.202824 218.702351 
L 289.412894 219.438959 
L 289.622965 219.504803 
L 289.833035 219.906799 
L 290.043106 219.900023 
L 290.253176 220.427906 
L 290.673318 220.475032 
L 291.198494 220.476118 
L 291.408565 220.983887 
L 291.618635 220.996507 
L 291.933741 221.317284 
L 292.248847 221.442006 
L 292.458918 221.441285 
L 292.668988 221.709807 
L 294.769694 221.905556 
L 297.500612 221.974025 
L 297.710682 222.611408 
L 298.971106 222.721533 
L 301.176847 222.784343 
L 304.0128 222.818533 
L 306.323576 222.898958 
L 306.743718 223.378316 
L 306.953788 223.995625 
L 307.478965 224.083337 
L 307.689035 224.102238 
L 307.899106 225.243317 
L 308.004141 225.24536 
L 308.214212 225.993149 
L 308.424282 226.492724 
L 308.529318 226.490398 
L 308.739388 226.983727 
L 309.054494 226.989401 
L 309.264565 227.425953 
L 309.579671 227.424932 
L 309.894776 227.658207 
L 310.314918 227.720159 
L 310.524988 227.895583 
L 310.630024 227.916279 
L 310.945129 228.623334 
L 311.1552 228.640618 
L 311.365271 229.660276 
L 311.575341 230.357385 
L 312.310588 230.448975 
L 312.625694 231.01107 
L 313.045835 231.024982 
L 313.255906 231.140193 
L 321.553694 231.567551 
L 323.234259 231.572955 
L 324.704753 231.714576 
L 333.947859 232.019256 
L 334.157929 232.038797 
L 334.368 234.007284 
L 335.733459 234.090631 
L 336.363671 234.161861 
L 336.573741 234.313506 
L 339.409694 234.459395 
L 339.514729 234.580276 
L 339.7248 235.856031 
L 340.880188 235.889185 
L 341.090259 236.041928 
L 342.770824 236.060147 
L 343.190965 236.055343 
L 343.716141 236.598919 
L 343.926212 236.665886 
L 344.136282 236.850506 
L 344.241318 236.847578 
L 344.451388 237.278549 
L 345.0816 237.540392 
L 345.921882 237.544662 
L 346.131953 239.118359 
L 346.762165 239.117047 
L 346.972235 239.629295 
L 348.022588 239.667197 
L 348.232659 239.863128 
L 350.858541 239.94137 
L 351.173647 239.99324 
L 353.484424 240.046065 
L 355.270024 240.117019 
L 355.375059 240.109452 
L 355.585129 241.040661 
L 356.320376 241.03 
L 356.530447 241.656909 
L 357.370729 241.656904 
L 357.5808 242.372981 
L 357.790871 242.397657 
L 358.000941 242.991633 
L 364.092988 243.097219 
L 364.303059 243.508302 
L 366.403765 243.537901 
L 367.874259 243.559925 
L 368.084329 243.637961 
L 368.504471 243.698234 
L 369.974965 243.737859 
L 373.231059 243.968093 
L 373.546165 244.090635 
L 377.432471 244.250327 
L 377.642541 244.369893 
L 385.205082 244.594518 
L 385.415153 244.729153 
L 386.780612 244.767932 
L 389.091388 244.917054 
L 389.406494 244.976918 
L 394.553224 245.172955 
L 394.763294 245.252892 
L 395.393506 245.363509 
L 396.758965 245.519967 
L 396.969035 246.671092 
L 397.284141 246.693252 
L 397.599247 248.375522 
L 397.809318 248.47883 
L 399.489882 248.514372 
L 401.380518 248.58131 
L 414.614965 249.123359 
L 414.614965 249.123359 
" clip-path="url(#pdac17df016)" style="fill: none; stroke: #1f77b4; stroke-opacity: 0.3; stroke-width: 1.5; stroke-linecap: square"/>
   </g>
   <g id="line2d_15">
    <path d="M 57.6 295.144766 
L 70.414306 295.169969 
L 70.624376 295.032902 
L 73.355294 295.094788 
L 73.565365 295.187383 
L 94.992565 295.209026 
L 95.202635 295.355527 
L 100.034259 295.334978 
L 100.139294 295.195627 
L 100.349365 295.261194 
L 105.601129 295.350207 
L 105.8112 295.441729 
L 110.642824 295.390996 
L 110.852894 295.307252 
L 111.168 295.307252 
L 111.378071 295.16128 
L 115.579482 295.189147 
L 115.789553 295.393176 
L 143.203765 295.297744 
L 143.623906 295.261319 
L 153.917365 295.335607 
L 154.127435 295.335607 
L 215.363012 295.408011 
L 215.678118 295.455996 
L 219.459388 295.385615 
L 219.774494 295.328934 
L 298.340894 295.365956 
L 298.550965 295.444725 
L 306.323576 295.418123 
L 306.533647 295.255365 
L 312.310588 295.345861 
L 312.520659 295.422298 
L 384.154729 295.313294 
L 384.995012 295.340754 
L 413.984753 295.378775 
L 414.194824 295.45989 
L 414.614965 295.378775 
L 414.614965 295.378775 
" clip-path="url(#pdac17df016)" style="fill: none; stroke: #ff7f0e; stroke-opacity: 0.3; stroke-width: 1.5; stroke-linecap: square"/>
   </g>
   <g id="patch_3">
    <path d="M 57.6 307.584 
L 57.6 41.472 
" style="fill: none; stroke: #000000; stroke-width: 0.8; stroke-linejoin: miter; stroke-linecap: square"/>
   </g>
   <g id="patch_4">
    <path d="M 414.72 307.584 
L 414.72 41.472 
" style="fill: none; stroke: #000000; stroke-width: 0.8; stroke-linejoin: miter; stroke-linecap: square"/>
   </g>
   <g id="patch_5">
    <path d="M 57.6 307.584 
L 414.72 307.584 
" style="fill: none; stroke: #000000; stroke-width: 0.8; stroke-linejoin: miter; stroke-linecap: square"/>
   </g>
   <g id="patch_6">
    <path d="M 57.6 41.472 
L 414.72 41.472 
" style="fill: none; stroke: #000000; stroke-width: 0.8; stroke-linejoin: miter; stroke-linecap: square"/>
   </g>
   <g id="text_16">
    <!-- Best $\chi^2$ by Step -->
    <g transform="translate(189.42 35.472)scale(0.12 -0.12)">
     <defs>
      <path id="DejaVuSans-42" d="M 1259 2228 
L 1259 519 
L 2272 519 
Q 2781 519 3026 730 
Q 3272 941 3272 1375 
Q 3272 1813 3026 2020 
Q 2781 2228 2272 2228 
L 1259 2228 
z
M 1259 4147 
L 1259 2741 
L 2194 2741 
Q 2656 2741 2882 2914 
Q 3109 3088 3109 3444 
Q 3109 3797 2882 3972 
Q 2656 4147 2194 4147 
L 1259 4147 
z
M 628 4666 
L 2241 4666 
Q 2963 4666 3353 4366 
Q 3744 4066 3744 3513 
Q 3744 3084 3544 2831 
Q 3344 2578 2956 2516 
Q 3422 2416 3680 2098 
Q 3938 1781 3938 1306 
Q 3938 681 3513 340 
Q 3088 0 2303 0 
L 628 0 
L 628 4666 
z
" transform="scale(0.015625)"/>
      <path id="DejaVuSans-20" transform="scale(0.015625)"/>
      <path id="DejaVuSans-62" d="M 3116 1747 
Q 3116 2381 2855 2742 
Q 2594 3103 2138 3103 
Q 1681 3103 1420 2742 
Q 1159 2381 1159 1747 
Q 1159 1113 1420 752 
Q 1681 391 2138 391 
Q 2594 391 2855 752 
Q 3116 1113 3116 1747 
z
M 1159 2969 
Q 1341 3281 1617 3432 
Q 1894 3584 2278 3584 
Q 2916 3584 3314 3078 
Q 3713 2572 3713 1747 
Q 3713 922 3314 415 
Q 2916 -91 2278 -91 
Q 1894 -91 1617 61 
Q 1341 213 1159 525 
L 1159 0 
L 581 0 
L 581 4863 
L 1159 4863 
L 1159 2969 
z
" transform="scale(0.015625)"/>
      <path id="DejaVuSans-79" d="M 2059 -325 
Q 1816 -950 1584 -1140 
Q 1353 -1331 966 -1331 
L 506 -1331 
L 506 -850 
L 844 -850 
Q 1081 -850 1212 -737 
Q 1344 -625 1503 -206 
L 1606 56 
L 191 3500 
L 800 3500 
L 1894 763 
L 2988 3500 
L 3597 3500 
L 2059 -325 
z
" transform="scale(0.015625)"/>
      <path id="DejaVuSans-53" d="M 3425 4513 
L 3425 3897 
Q 3066 4069 2747 4153 
Q 2428 4238 2131 4238 
Q 1616 4238 1336 4038 
Q 1056 3838 1056 3469 
Q 1056 3159 1242 3001 
Q 1428 2844 1947 2747 
L 2328 2669 
Q 3034 2534 3370 2195 
Q 3706 1856 3706 1288 
Q 3706 609 3251 259 
Q 2797 -91 1919 -91 
Q 1588 -91 1214 -16 
Q 841 59 441 206 
L 441 856 
Q 825 641 1194 531 
Q 1563 422 1919 422 
Q 2459 422 2753 634 
Q 3047 847 3047 1241 
Q 3047 1584 2836 1778 
Q 2625 1972 2144 2069 
L 1759 2144 
Q 1053 2284 737 2584 
Q 422 2884 422 3419 
Q 422 4038 858 4394 
Q 1294 4750 2059 4750 
Q 2388 4750 2728 4690 
Q 3069 4631 3425 4513 
z
" transform="scale(0.015625)"/>
     </defs>
     <use xlink:href="#DejaVuSans-42" transform="translate(0 0.765625)"/>
     <use xlink:href="#DejaVuSans-65" transform="translate(68.603516 0.765625)"/>
     <use xlink:href="#DejaVuSans-73" transform="translate(130.126953 0.765625)"/>
     <use xlink:href="#DejaVuSans-74" transform="translate(182.226562 0.765625)"/>
     <use xlink:href="#DejaVuSans-20" transform="translate(221.435547 0.765625)"/>
     <use xlink:href="#DejaVuSans-Oblique-3c7" transform="translate(253.222656 0.765625)"/>
     <use xlink:href="#DejaVuSans-32" transform="translate(316.875052 39.046875)scale(0.7)"/>
     <use xlink:href="#DejaVuSans-20" transform="translate(364.14556 0.765625)"/>
     <use xlink:href="#DejaVuSans-62" transform="translate(395.932669 0.765625)"/>
     <use xlink:href="#DejaVuSans-79" transform="translate(459.409232 0.765625)"/>
     <use xlink:href="#DejaVuSans-20" transform="translate(518.588919 0.765625)"/>
     <use xlink:href="#DejaVuSans-53" transform="translate(550.376029 0.765625)"/>
     <use xlink:href="#DejaVuSans-74" transform="translate(613.852591 0.765625)"/>
     <use xlink:href="#DejaVuSans-65" transform="translate(653.061576 0.765625)"/>
     <use xlink:href="#DejaVuSans-70" transform="translate(714.585013 0.765625)"/>
    </g>
   </g>
  </g>
 </g>
 <defs>
  <clipPath id="pdac17df016">
   <rect x="57.6" y="41.472" width="357.12" height="266.112"/>
  </clipPath>
 </defs>
</svg>
