<?xml version="1.0" encoding="utf-8" standalone="no"?>
<!DOCTYPE svg PUBLIC "-//W3C//DTD SVG 1.1//EN"
  "http://www.w3.org/Graphics/SVG/1.1/DTD/svg11.dtd">
<svg xmlns:xlink="http://www.w3.org/1999/xlink" width="460.8pt" height="345.6pt" viewBox="0 0 460.8 345.6" xmlns="http://www.w3.org/2000/svg" version="1.1">
 <metadata>
  <rdf:RDF xmlns:dc="http://purl.org/dc/elements/1.1/" xmlns:cc="http://creativecommons.org/ns#" xmlns:rdf="http://www.w3.org/1999/02/22-rdf-syntax-ns#">
   <cc:Work>
    <dc:type rdf:resource="http://purl.org/dc/dcmitype/StillImage"/>
    <dc:date>2022-07-23T13:54:44.494508</dc:date>
    <dc:format>image/svg+xml</dc:format>
    <dc:creator>
     <cc:Agent>
      <dc:title>Matplotlib v3.5.0, https://matplotlib.org/</dc:title>
     </cc:Agent>
    </dc:creator>
   </cc:Work>
  </rdf:RDF>
 </metadata>
 <defs>
  <style type="text/css">*{stroke-linejoin: round; stroke-linecap: butt}</style>
 </defs>
 <g id="figure_1">
  <g id="patch_1">
   <path d="M 0 345.6 
L 460.8 345.6 
L 460.8 0 
L 0 0 
z
" style="fill: #ffffff"/>
  </g>
  <g id="axes_1">
   <g id="patch_2">
    <path d="M 57.6 307.584 
L 414.72 307.584 
L 414.72 41.472 
L 57.6 41.472 
z
" style="fill: #ffffff"/>
   </g>
   <g id="matplotlib.axis_1">
    <g id="xtick_1">
     <g id="line2d_1">
      <defs>
       <path id="m5e31335d24" d="M 0 0 
L 0 3.5 
" style="stroke: #000000; stroke-width: 0.8"/>
      </defs>
      <g>
       <use xlink:href="#m5e31335d24" x="88.696337" y="307.584" style="stroke: #000000; stroke-width: 0.8"/>
      </g>
     </g>
     <g id="text_1">
      <!-- $\mathdefault{10^{7}}$ -->
      <g transform="translate(79.896337 322.182437)scale(0.1 -0.1)">
       <defs>
        <path id="DejaVuSans-31" d="M 794 531 
L 1825 531 
L 1825 4091 
L 703 3866 
L 703 4441 
L 1819 4666 
L 2450 4666 
L 2450 531 
L 3481 531 
L 3481 0 
L 794 0 
L 794 531 
z
" transform="scale(0.015625)"/>
        <path id="DejaVuSans-30" d="M 2034 4250 
Q 1547 4250 1301 3770 
Q 1056 3291 1056 2328 
Q 1056 1369 1301 889 
Q 1547 409 2034 409 
Q 2525 409 2770 889 
Q 3016 1369 3016 2328 
Q 3016 3291 2770 3770 
Q 2525 4250 2034 4250 
z
M 2034 4750 
Q 2819 4750 3233 4129 
Q 3647 3509 3647 2328 
Q 3647 1150 3233 529 
Q 2819 -91 2034 -91 
Q 1250 -91 836 529 
Q 422 1150 422 2328 
Q 422 3509 836 4129 
Q 1250 4750 2034 4750 
z
" transform="scale(0.015625)"/>
        <path id="DejaVuSans-37" d="M 525 4666 
L 3525 4666 
L 3525 4397 
L 1831 0 
L 1172 0 
L 2766 4134 
L 525 4134 
L 525 4666 
z
" transform="scale(0.015625)"/>
       </defs>
       <use xlink:href="#DejaVuSans-31" transform="translate(0 0.684375)"/>
       <use xlink:href="#DejaVuSans-30" transform="translate(63.623047 0.684375)"/>
       <use xlink:href="#DejaVuSans-37" transform="translate(128.203125 38.965625)scale(0.7)"/>
      </g>
     </g>
    </g>
    <g id="xtick_2">
     <g id="line2d_2">
      <g>
       <use xlink:href="#m5e31335d24" x="133.278873" y="307.584" style="stroke: #000000; stroke-width: 0.8"/>
      </g>
     </g>
     <g id="text_2">
      <!-- $\mathdefault{10^{10}}$ -->
      <g transform="translate(122.228873 322.182437)scale(0.1 -0.1)">
       <use xlink:href="#DejaVuSans-31" transform="translate(0 0.765625)"/>
       <use xlink:href="#DejaVuSans-30" transform="translate(63.623047 0.765625)"/>
       <use xlink:href="#DejaVuSans-31" transform="translate(128.203125 39.046875)scale(0.7)"/>
       <use xlink:href="#DejaVuSans-30" transform="translate(172.739258 39.046875)scale(0.7)"/>
      </g>
     </g>
    </g>
    <g id="xtick_3">
     <g id="line2d_3">
      <g>
       <use xlink:href="#m5e31335d24" x="177.861409" y="307.584" style="stroke: #000000; stroke-width: 0.8"/>
      </g>
     </g>
     <g id="text_3">
      <!-- $\mathdefault{10^{13}}$ -->
      <g transform="translate(166.811409 322.182437)scale(0.1 -0.1)">
       <defs>
        <path id="DejaVuSans-33" d="M 2597 2516 
Q 3050 2419 3304 2112 
Q 3559 1806 3559 1356 
Q 3559 666 3084 287 
Q 2609 -91 1734 -91 
Q 1441 -91 1130 -33 
Q 819 25 488 141 
L 488 750 
Q 750 597 1062 519 
Q 1375 441 1716 441 
Q 2309 441 2620 675 
Q 2931 909 2931 1356 
Q 2931 1769 2642 2001 
Q 2353 2234 1838 2234 
L 1294 2234 
L 1294 2753 
L 1863 2753 
Q 2328 2753 2575 2939 
Q 2822 3125 2822 3475 
Q 2822 3834 2567 4026 
Q 2313 4219 1838 4219 
Q 1578 4219 1281 4162 
Q 984 4106 628 3988 
L 628 4550 
Q 988 4650 1302 4700 
Q 1616 4750 1894 4750 
Q 2613 4750 3031 4423 
Q 3450 4097 3450 3541 
Q 3450 3153 3228 2886 
Q 3006 2619 2597 2516 
z
" transform="scale(0.015625)"/>
       </defs>
       <use xlink:href="#DejaVuSans-31" transform="translate(0 0.765625)"/>
       <use xlink:href="#DejaVuSans-30" transform="translate(63.623047 0.765625)"/>
       <use xlink:href="#DejaVuSans-31" transform="translate(128.203125 39.046875)scale(0.7)"/>
       <use xlink:href="#DejaVuSans-33" transform="translate(172.739258 39.046875)scale(0.7)"/>
      </g>
     </g>
    </g>
    <g id="xtick_4">
     <g id="line2d_4">
      <g>
       <use xlink:href="#m5e31335d24" x="222.443945" y="307.584" style="stroke: #000000; stroke-width: 0.8"/>
      </g>
     </g>
     <g id="text_4">
      <!-- $\mathdefault{10^{16}}$ -->
      <g transform="translate(211.393945 322.182437)scale(0.1 -0.1)">
       <defs>
        <path id="DejaVuSans-36" d="M 2113 2584 
Q 1688 2584 1439 2293 
Q 1191 2003 1191 1497 
Q 1191 994 1439 701 
Q 1688 409 2113 409 
Q 2538 409 2786 701 
Q 3034 994 3034 1497 
Q 3034 2003 2786 2293 
Q 2538 2584 2113 2584 
z
M 3366 4563 
L 3366 3988 
Q 3128 4100 2886 4159 
Q 2644 4219 2406 4219 
Q 1781 4219 1451 3797 
Q 1122 3375 1075 2522 
Q 1259 2794 1537 2939 
Q 1816 3084 2150 3084 
Q 2853 3084 3261 2657 
Q 3669 2231 3669 1497 
Q 3669 778 3244 343 
Q 2819 -91 2113 -91 
Q 1303 -91 875 529 
Q 447 1150 447 2328 
Q 447 3434 972 4092 
Q 1497 4750 2381 4750 
Q 2619 4750 2861 4703 
Q 3103 4656 3366 4563 
z
" transform="scale(0.015625)"/>
       </defs>
       <use xlink:href="#DejaVuSans-31" transform="translate(0 0.765625)"/>
       <use xlink:href="#DejaVuSans-30" transform="translate(63.623047 0.765625)"/>
       <use xlink:href="#DejaVuSans-31" transform="translate(128.203125 39.046875)scale(0.7)"/>
       <use xlink:href="#DejaVuSans-36" transform="translate(172.739258 39.046875)scale(0.7)"/>
      </g>
     </g>
    </g>
    <g id="xtick_5">
     <g id="line2d_5">
      <g>
       <use xlink:href="#m5e31335d24" x="267.026481" y="307.584" style="stroke: #000000; stroke-width: 0.8"/>
      </g>
     </g>
     <g id="text_5">
      <!-- $\mathdefault{10^{19}}$ -->
      <g transform="translate(255.976481 322.182437)scale(0.1 -0.1)">
       <defs>
        <path id="DejaVuSans-39" d="M 703 97 
L 703 672 
Q 941 559 1184 500 
Q 1428 441 1663 441 
Q 2288 441 2617 861 
Q 2947 1281 2994 2138 
Q 2813 1869 2534 1725 
Q 2256 1581 1919 1581 
Q 1219 1581 811 2004 
Q 403 2428 403 3163 
Q 403 3881 828 4315 
Q 1253 4750 1959 4750 
Q 2769 4750 3195 4129 
Q 3622 3509 3622 2328 
Q 3622 1225 3098 567 
Q 2575 -91 1691 -91 
Q 1453 -91 1209 -44 
Q 966 3 703 97 
z
M 1959 2075 
Q 2384 2075 2632 2365 
Q 2881 2656 2881 3163 
Q 2881 3666 2632 3958 
Q 2384 4250 1959 4250 
Q 1534 4250 1286 3958 
Q 1038 3666 1038 3163 
Q 1038 2656 1286 2365 
Q 1534 2075 1959 2075 
z
" transform="scale(0.015625)"/>
       </defs>
       <use xlink:href="#DejaVuSans-31" transform="translate(0 0.765625)"/>
       <use xlink:href="#DejaVuSans-30" transform="translate(63.623047 0.765625)"/>
       <use xlink:href="#DejaVuSans-31" transform="translate(128.203125 39.046875)scale(0.7)"/>
       <use xlink:href="#DejaVuSans-39" transform="translate(172.739258 39.046875)scale(0.7)"/>
      </g>
     </g>
    </g>
    <g id="xtick_6">
     <g id="line2d_6">
      <g>
       <use xlink:href="#m5e31335d24" x="311.609017" y="307.584" style="stroke: #000000; stroke-width: 0.8"/>
      </g>
     </g>
     <g id="text_6">
      <!-- $\mathdefault{10^{22}}$ -->
      <g transform="translate(300.559017 322.182437)scale(0.1 -0.1)">
       <defs>
        <path id="DejaVuSans-32" d="M 1228 531 
L 3431 531 
L 3431 0 
L 469 0 
L 469 531 
Q 828 903 1448 1529 
Q 2069 2156 2228 2338 
Q 2531 2678 2651 2914 
Q 2772 3150 2772 3378 
Q 2772 3750 2511 3984 
Q 2250 4219 1831 4219 
Q 1534 4219 1204 4116 
Q 875 4013 500 3803 
L 500 4441 
Q 881 4594 1212 4672 
Q 1544 4750 1819 4750 
Q 2544 4750 2975 4387 
Q 3406 4025 3406 3419 
Q 3406 3131 3298 2873 
Q 3191 2616 2906 2266 
Q 2828 2175 2409 1742 
Q 1991 1309 1228 531 
z
" transform="scale(0.015625)"/>
       </defs>
       <use xlink:href="#DejaVuSans-31" transform="translate(0 0.765625)"/>
       <use xlink:href="#DejaVuSans-30" transform="translate(63.623047 0.765625)"/>
       <use xlink:href="#DejaVuSans-32" transform="translate(128.203125 39.046875)scale(0.7)"/>
       <use xlink:href="#DejaVuSans-32" transform="translate(172.739258 39.046875)scale(0.7)"/>
      </g>
     </g>
    </g>
    <g id="xtick_7">
     <g id="line2d_7">
      <g>
       <use xlink:href="#m5e31335d24" x="356.191553" y="307.584" style="stroke: #000000; stroke-width: 0.8"/>
      </g>
     </g>
     <g id="text_7">
      <!-- $\mathdefault{10^{25}}$ -->
      <g transform="translate(345.141553 322.182437)scale(0.1 -0.1)">
       <defs>
        <path id="DejaVuSans-35" d="M 691 4666 
L 3169 4666 
L 3169 4134 
L 1269 4134 
L 1269 2991 
Q 1406 3038 1543 3061 
Q 1681 3084 1819 3084 
Q 2600 3084 3056 2656 
Q 3513 2228 3513 1497 
Q 3513 744 3044 326 
Q 2575 -91 1722 -91 
Q 1428 -91 1123 -41 
Q 819 9 494 109 
L 494 744 
Q 775 591 1075 516 
Q 1375 441 1709 441 
Q 2250 441 2565 725 
Q 2881 1009 2881 1497 
Q 2881 1984 2565 2268 
Q 2250 2553 1709 2553 
Q 1456 2553 1204 2497 
Q 953 2441 691 2322 
L 691 4666 
z
" transform="scale(0.015625)"/>
       </defs>
       <use xlink:href="#DejaVuSans-31" transform="translate(0 0.765625)"/>
       <use xlink:href="#DejaVuSans-30" transform="translate(63.623047 0.765625)"/>
       <use xlink:href="#DejaVuSans-32" transform="translate(128.203125 39.046875)scale(0.7)"/>
       <use xlink:href="#DejaVuSans-35" transform="translate(172.739258 39.046875)scale(0.7)"/>
      </g>
     </g>
    </g>
    <g id="xtick_8">
     <g id="line2d_8">
      <g>
       <use xlink:href="#m5e31335d24" x="400.774089" y="307.584" style="stroke: #000000; stroke-width: 0.8"/>
      </g>
     </g>
     <g id="text_8">
      <!-- $\mathdefault{10^{28}}$ -->
      <g transform="translate(389.724089 322.182437)scale(0.1 -0.1)">
       <defs>
        <path id="DejaVuSans-38" d="M 2034 2216 
Q 1584 2216 1326 1975 
Q 1069 1734 1069 1313 
Q 1069 891 1326 650 
Q 1584 409 2034 409 
Q 2484 409 2743 651 
Q 3003 894 3003 1313 
Q 3003 1734 2745 1975 
Q 2488 2216 2034 2216 
z
M 1403 2484 
Q 997 2584 770 2862 
Q 544 3141 544 3541 
Q 544 4100 942 4425 
Q 1341 4750 2034 4750 
Q 2731 4750 3128 4425 
Q 3525 4100 3525 3541 
Q 3525 3141 3298 2862 
Q 3072 2584 2669 2484 
Q 3125 2378 3379 2068 
Q 3634 1759 3634 1313 
Q 3634 634 3220 271 
Q 2806 -91 2034 -91 
Q 1263 -91 848 271 
Q 434 634 434 1313 
Q 434 1759 690 2068 
Q 947 2378 1403 2484 
z
M 1172 3481 
Q 1172 3119 1398 2916 
Q 1625 2713 2034 2713 
Q 2441 2713 2670 2916 
Q 2900 3119 2900 3481 
Q 2900 3844 2670 4047 
Q 2441 4250 2034 4250 
Q 1625 4250 1398 4047 
Q 1172 3844 1172 3481 
z
" transform="scale(0.015625)"/>
       </defs>
       <use xlink:href="#DejaVuSans-31" transform="translate(0 0.765625)"/>
       <use xlink:href="#DejaVuSans-30" transform="translate(63.623047 0.765625)"/>
       <use xlink:href="#DejaVuSans-32" transform="translate(128.203125 39.046875)scale(0.7)"/>
       <use xlink:href="#DejaVuSans-38" transform="translate(172.739258 39.046875)scale(0.7)"/>
      </g>
     </g>
    </g>
    <g id="text_9">
     <!-- $\nu$ -->
     <g transform="translate(233.36 335.860562)scale(0.1 -0.1)">
      <defs>
       <path id="DejaVuSans-Oblique-3bd" d="M 959 0 
L 572 3500 
L 1191 3500 
L 1522 563 
Q 1972 950 2391 1488 
Q 2706 1891 2788 2241 
Q 2825 2406 2809 2719 
Q 2794 3091 2544 3500 
L 3125 3500 
L 3125 3500 
Q 3288 3222 3353 2834 
Q 3416 2478 3369 2234 
Q 3250 1622 2719 1075 
Q 2025 363 1572 0 
L 959 0 
z
" transform="scale(0.015625)"/>
      </defs>
      <use xlink:href="#DejaVuSans-Oblique-3bd" transform="translate(0 0.3125)"/>
     </g>
    </g>
   </g>
   <g id="matplotlib.axis_2">
    <g id="ytick_1">
     <g id="line2d_9">
      <defs>
       <path id="m5795be7698" d="M 0 0 
L -3.5 0 
" style="stroke: #000000; stroke-width: 0.8"/>
      </defs>
      <g>
       <use xlink:href="#m5795be7698" x="57.6" y="220.77959" style="stroke: #000000; stroke-width: 0.8"/>
      </g>
     </g>
     <g id="text_10">
      <!-- $\mathdefault{10^{-11}}$ -->
      <g transform="translate(22.7 224.578809)scale(0.1 -0.1)">
       <defs>
        <path id="DejaVuSans-2212" d="M 678 2272 
L 4684 2272 
L 4684 1741 
L 678 1741 
L 678 2272 
z
" transform="scale(0.015625)"/>
       </defs>
       <use xlink:href="#DejaVuSans-31" transform="translate(0 0.684375)"/>
       <use xlink:href="#DejaVuSans-30" transform="translate(63.623047 0.684375)"/>
       <use xlink:href="#DejaVuSans-2212" transform="translate(128.203125 38.965625)scale(0.7)"/>
       <use xlink:href="#DejaVuSans-31" transform="translate(186.855469 38.965625)scale(0.7)"/>
       <use xlink:href="#DejaVuSans-31" transform="translate(231.391602 38.965625)scale(0.7)"/>
      </g>
     </g>
    </g>
    <g id="ytick_2">
     <g id="line2d_10">
      <g>
       <use xlink:href="#m5795be7698" x="57.6" y="93.907999" style="stroke: #000000; stroke-width: 0.8"/>
      </g>
     </g>
     <g id="text_11">
      <!-- $\mathdefault{10^{-10}}$ -->
      <g transform="translate(22.7 97.707217)scale(0.1 -0.1)">
       <use xlink:href="#DejaVuSans-31" transform="translate(0 0.765625)"/>
       <use xlink:href="#DejaVuSans-30" transform="translate(63.623047 0.765625)"/>
       <use xlink:href="#DejaVuSans-2212" transform="translate(128.203125 39.046875)scale(0.7)"/>
       <use xlink:href="#DejaVuSans-31" transform="translate(186.855469 39.046875)scale(0.7)"/>
       <use xlink:href="#DejaVuSans-30" transform="translate(231.391602 39.046875)scale(0.7)"/>
      </g>
     </g>
    </g>
    <g id="ytick_3">
     <g id="line2d_11">
      <defs>
       <path id="m0af860a6e7" d="M 0 0 
L -2 0 
" style="stroke: #000000; stroke-width: 0.6"/>
      </defs>
      <g>
       <use xlink:href="#m0af860a6e7" x="57.6" y="287.118048" style="stroke: #000000; stroke-width: 0.6"/>
      </g>
     </g>
    </g>
    <g id="ytick_4">
     <g id="line2d_12">
      <g>
       <use xlink:href="#m0af860a6e7" x="57.6" y="271.266872" style="stroke: #000000; stroke-width: 0.6"/>
      </g>
     </g>
    </g>
    <g id="ytick_5">
     <g id="line2d_13">
      <g>
       <use xlink:href="#m0af860a6e7" x="57.6" y="258.971745" style="stroke: #000000; stroke-width: 0.6"/>
      </g>
     </g>
    </g>
    <g id="ytick_6">
     <g id="line2d_14">
      <g>
       <use xlink:href="#m0af860a6e7" x="57.6" y="248.925894" style="stroke: #000000; stroke-width: 0.6"/>
      </g>
     </g>
    </g>
    <g id="ytick_7">
     <g id="line2d_15">
      <g>
       <use xlink:href="#m0af860a6e7" x="57.6" y="240.432248" style="stroke: #000000; stroke-width: 0.6"/>
      </g>
     </g>
    </g>
    <g id="ytick_8">
     <g id="line2d_16">
      <g>
       <use xlink:href="#m0af860a6e7" x="57.6" y="233.074718" style="stroke: #000000; stroke-width: 0.6"/>
      </g>
     </g>
    </g>
    <g id="ytick_9">
     <g id="line2d_17">
      <g>
       <use xlink:href="#m0af860a6e7" x="57.6" y="226.584916" style="stroke: #000000; stroke-width: 0.6"/>
      </g>
     </g>
    </g>
    <g id="ytick_10">
     <g id="line2d_18">
      <g>
       <use xlink:href="#m0af860a6e7" x="57.6" y="182.587435" style="stroke: #000000; stroke-width: 0.6"/>
      </g>
     </g>
    </g>
    <g id="ytick_11">
     <g id="line2d_19">
      <g>
       <use xlink:href="#m0af860a6e7" x="57.6" y="160.246457" style="stroke: #000000; stroke-width: 0.6"/>
      </g>
     </g>
    </g>
    <g id="ytick_12">
     <g id="line2d_20">
      <g>
       <use xlink:href="#m0af860a6e7" x="57.6" y="144.395281" style="stroke: #000000; stroke-width: 0.6"/>
      </g>
     </g>
    </g>
    <g id="ytick_13">
     <g id="line2d_21">
      <g>
       <use xlink:href="#m0af860a6e7" x="57.6" y="132.100153" style="stroke: #000000; stroke-width: 0.6"/>
      </g>
     </g>
    </g>
    <g id="ytick_14">
     <g id="line2d_22">
      <g>
       <use xlink:href="#m0af860a6e7" x="57.6" y="122.054303" style="stroke: #000000; stroke-width: 0.6"/>
      </g>
     </g>
    </g>
    <g id="ytick_15">
     <g id="line2d_23">
      <g>
       <use xlink:href="#m0af860a6e7" x="57.6" y="113.560657" style="stroke: #000000; stroke-width: 0.6"/>
      </g>
     </g>
    </g>
    <g id="ytick_16">
     <g id="line2d_24">
      <g>
       <use xlink:href="#m0af860a6e7" x="57.6" y="106.203126" style="stroke: #000000; stroke-width: 0.6"/>
      </g>
     </g>
    </g>
    <g id="ytick_17">
     <g id="line2d_25">
      <g>
       <use xlink:href="#m0af860a6e7" x="57.6" y="99.713324" style="stroke: #000000; stroke-width: 0.6"/>
      </g>
     </g>
    </g>
    <g id="ytick_18">
     <g id="line2d_26">
      <g>
       <use xlink:href="#m0af860a6e7" x="57.6" y="55.715844" style="stroke: #000000; stroke-width: 0.6"/>
      </g>
     </g>
    </g>
    <g id="text_12">
     <!-- $\nu F_{\nu}$ -->
     <g transform="translate(16.620312 182.328)rotate(-90)scale(0.1 -0.1)">
      <defs>
       <path id="DejaVuSans-Oblique-46" d="M 1081 4666 
L 3756 4666 
L 3653 4134 
L 1606 4134 
L 1338 2759 
L 3188 2759 
L 3084 2228 
L 1234 2228 
L 800 0 
L 172 0 
L 1081 4666 
z
" transform="scale(0.015625)"/>
      </defs>
      <use xlink:href="#DejaVuSans-Oblique-3bd" transform="translate(0 0.09375)"/>
      <use xlink:href="#DejaVuSans-Oblique-46" transform="translate(55.859375 0.09375)"/>
      <use xlink:href="#DejaVuSans-Oblique-3bd" transform="translate(113.378906 -16.3125)scale(0.7)"/>
     </g>
    </g>
   </g>
   <g id="line2d_27">
    <defs>
     <path id="m2a64377102" d="M 0 1.5 
C 0.397805 1.5 0.77937 1.341951 1.06066 1.06066 
C 1.341951 0.77937 1.5 0.397805 1.5 0 
C 1.5 -0.397805 1.341951 -0.77937 1.06066 -1.06066 
C 0.77937 -1.341951 0.397805 -1.5 0 -1.5 
C -0.397805 -1.5 -0.77937 -1.341951 -1.06066 -1.06066 
C -1.341951 -0.77937 -1.5 -0.397805 -1.5 0 
C -1.5 0.397805 -1.341951 0.77937 -1.06066 1.06066 
C -0.77937 1.341951 -0.397805 1.5 0 1.5 
z
" style="stroke: #1f77b4"/>
    </defs>
    <g clip-path="url(#p8c6295ce39)">
     <use xlink:href="#m2a64377102" x="203.704255" y="137.661134" style="fill: #1f77b4; stroke: #1f77b4"/>
     <use xlink:href="#m2a64377102" x="205.1185" y="130.151437" style="fill: #1f77b4; stroke: #1f77b4"/>
     <use xlink:href="#m2a64377102" x="206.648561" y="130.471474" style="fill: #1f77b4; stroke: #1f77b4"/>
     <use xlink:href="#m2a64377102" x="208.502159" y="133.551697" style="fill: #1f77b4; stroke: #1f77b4"/>
     <use xlink:href="#m2a64377102" x="210.432085" y="135.862292" style="fill: #1f77b4; stroke: #1f77b4"/>
     <use xlink:href="#m2a64377102" x="241.39963" y="241.225062" style="fill: #1f77b4; stroke: #1f77b4"/>
     <use xlink:href="#m2a64377102" x="242.214728" y="247.386445" style="fill: #1f77b4; stroke: #1f77b4"/>
     <use xlink:href="#m2a64377102" x="242.872808" y="234.399124" style="fill: #1f77b4; stroke: #1f77b4"/>
     <use xlink:href="#m2a64377102" x="243.559386" y="238.044609" style="fill: #1f77b4; stroke: #1f77b4"/>
     <use xlink:href="#m2a64377102" x="244.179896" y="226.646171" style="fill: #1f77b4; stroke: #1f77b4"/>
     <use xlink:href="#m2a64377102" x="244.770533" y="241.065584" style="fill: #1f77b4; stroke: #1f77b4"/>
     <use xlink:href="#m2a64377102" x="245.57689" y="258.532701" style="fill: #1f77b4; stroke: #1f77b4"/>
     <use xlink:href="#m2a64377102" x="246.503348" y="249.75865" style="fill: #1f77b4; stroke: #1f77b4"/>
     <use xlink:href="#m2a64377102" x="247.620361" y="251.462898" style="fill: #1f77b4; stroke: #1f77b4"/>
     <use xlink:href="#m2a64377102" x="250.072072" y="276.614937" style="fill: #1f77b4; stroke: #1f77b4"/>
     <use xlink:href="#m2a64377102" x="252.543407" y="293.127826" style="fill: #1f77b4; stroke: #1f77b4"/>
     <use xlink:href="#m2a64377102" x="320.852635" y="177.085994" style="fill: #1f77b4; stroke: #1f77b4"/>
     <use xlink:href="#m2a64377102" x="328.283058" y="142.366844" style="fill: #1f77b4; stroke: #1f77b4"/>
     <use xlink:href="#m2a64377102" x="335.713481" y="146.073572" style="fill: #1f77b4; stroke: #1f77b4"/>
     <use xlink:href="#m2a64377102" x="343.143903" y="146.215765" style="fill: #1f77b4; stroke: #1f77b4"/>
     <use xlink:href="#m2a64377102" x="350.574326" y="149.895345" style="fill: #1f77b4; stroke: #1f77b4"/>
     <use xlink:href="#m2a64377102" x="358.004749" y="150.353874" style="fill: #1f77b4; stroke: #1f77b4"/>
     <use xlink:href="#m2a64377102" x="364.498213" y="162.687385" style="fill: #1f77b4; stroke: #1f77b4"/>
     <use xlink:href="#m2a64377102" x="365.242086" y="182.039176" style="fill: #1f77b4; stroke: #1f77b4"/>
     <use xlink:href="#m2a64377102" x="365.984741" y="190.260724" style="fill: #1f77b4; stroke: #1f77b4"/>
     <use xlink:href="#m2a64377102" x="366.724346" y="176.343067" style="fill: #1f77b4; stroke: #1f77b4"/>
     <use xlink:href="#m2a64377102" x="367.467201" y="231.245797" style="fill: #1f77b4; stroke: #1f77b4"/>
     <use xlink:href="#m2a64377102" x="368.20891" y="223.780106" style="fill: #1f77b4; stroke: #1f77b4"/>
     <use xlink:href="#m2a64377102" x="368.952356" y="238.650938" style="fill: #1f77b4; stroke: #1f77b4"/>
     <use xlink:href="#m2a64377102" x="370.032182" y="292.516733" style="fill: #1f77b4; stroke: #1f77b4"/>
    </g>
   </g>
   <g id="LineCollection_1">
    <path d="M 203.704255 141.956786 
L 203.704255 133.676292 
" clip-path="url(#p8c6295ce39)" style="fill: none; stroke: #000000; stroke-width: 1.5"/>
    <path d="M 205.1185 131.366721 
L 205.1185 128.962379 
" clip-path="url(#p8c6295ce39)" style="fill: none; stroke: #000000; stroke-width: 1.5"/>
    <path d="M 206.648561 131.825342 
L 206.648561 129.150077 
" clip-path="url(#p8c6295ce39)" style="fill: none; stroke: #000000; stroke-width: 1.5"/>
    <path d="M 208.502159 134.717991 
L 208.502159 132.409578 
" clip-path="url(#p8c6295ce39)" style="fill: none; stroke: #000000; stroke-width: 1.5"/>
    <path d="M 210.432085 137.050149 
L 210.432085 134.699504 
" clip-path="url(#p8c6295ce39)" style="fill: none; stroke: #000000; stroke-width: 1.5"/>
    <path d="M 241.39963 250.320896 
L 241.39963 233.420171 
" clip-path="url(#p8c6295ce39)" style="fill: none; stroke: #000000; stroke-width: 1.5"/>
    <path d="M 242.214728 257.557461 
L 242.214728 238.803569 
" clip-path="url(#p8c6295ce39)" style="fill: none; stroke: #000000; stroke-width: 1.5"/>
    <path d="M 242.872808 242.599592 
L 242.872808 227.262505 
" clip-path="url(#p8c6295ce39)" style="fill: none; stroke: #000000; stroke-width: 1.5"/>
    <path d="M 243.559386 245.793325 
L 243.559386 231.25246 
" clip-path="url(#p8c6295ce39)" style="fill: none; stroke: #000000; stroke-width: 1.5"/>
    <path d="M 244.179896 234.258204 
L 244.179896 219.959233 
" clip-path="url(#p8c6295ce39)" style="fill: none; stroke: #000000; stroke-width: 1.5"/>
    <path d="M 244.770533 249.045406 
L 244.770533 234.096591 
" clip-path="url(#p8c6295ce39)" style="fill: none; stroke: #000000; stroke-width: 1.5"/>
    <path d="M 245.57689 266.040367 
L 245.57689 251.92641 
" clip-path="url(#p8c6295ce39)" style="fill: none; stroke: #000000; stroke-width: 1.5"/>
    <path d="M 246.503348 257.278909 
L 246.503348 243.142612 
" clip-path="url(#p8c6295ce39)" style="fill: none; stroke: #000000; stroke-width: 1.5"/>
    <path d="M 247.620361 259.148346 
L 247.620361 244.719391 
" clip-path="url(#p8c6295ce39)" style="fill: none; stroke: #000000; stroke-width: 1.5"/>
    <path d="M 250.072072 284.272525 
L 250.072072 269.892881 
" clip-path="url(#p8c6295ce39)" style="fill: none; stroke: #000000; stroke-width: 1.5"/>
    <path d="M 252.543407 307.086465 
L 252.543407 282.00023 
" clip-path="url(#p8c6295ce39)" style="fill: none; stroke: #000000; stroke-width: 1.5"/>
    <path d="M 320.852635 188.576733 
L 320.852635 167.583001 
" clip-path="url(#p8c6295ce39)" style="fill: none; stroke: #000000; stroke-width: 1.5"/>
    <path d="M 328.283058 147.308591 
L 328.283058 137.832062 
" clip-path="url(#p8c6295ce39)" style="fill: none; stroke: #000000; stroke-width: 1.5"/>
    <path d="M 335.713481 152.689552 
L 335.713481 140.167512 
" clip-path="url(#p8c6295ce39)" style="fill: none; stroke: #000000; stroke-width: 1.5"/>
    <path d="M 343.143903 156.176256 
L 343.143903 137.783171 
" clip-path="url(#p8c6295ce39)" style="fill: none; stroke: #000000; stroke-width: 1.5"/>
    <path d="M 350.574326 170.957503 
L 350.574326 134.694884 
" clip-path="url(#p8c6295ce39)" style="fill: none; stroke: #000000; stroke-width: 1.5"/>
    <path d="M 358.004749 188.699724 
L 358.004749 127.961759 
" clip-path="url(#p8c6295ce39)" style="fill: none; stroke: #000000; stroke-width: 1.5"/>
    <path d="M 364.498213 174.243549 
L 364.498213 153.139741 
" clip-path="url(#p8c6295ce39)" style="fill: none; stroke: #000000; stroke-width: 1.5"/>
    <path d="M 365.242086 194.096145 
L 365.242086 172.152671 
" clip-path="url(#p8c6295ce39)" style="fill: none; stroke: #000000; stroke-width: 1.5"/>
    <path d="M 365.984741 201.380975 
L 365.984741 181.012277 
" clip-path="url(#p8c6295ce39)" style="fill: none; stroke: #000000; stroke-width: 1.5"/>
    <path d="M 366.724346 197.095979 
L 366.724346 161.303423 
" clip-path="url(#p8c6295ce39)" style="fill: none; stroke: #000000; stroke-width: 1.5"/>
    <path d="M 367.467201 257.988772 
L 367.467201 213.318844 
" clip-path="url(#p8c6295ce39)" style="fill: none; stroke: #000000; stroke-width: 1.5"/>
    <path d="M 368.20891 242.354523 
L 368.20891 209.913382 
" clip-path="url(#p8c6295ce39)" style="fill: none; stroke: #000000; stroke-width: 1.5"/>
    <path d="M 368.952356 259.082054 
L 368.952356 223.780106 
" clip-path="url(#p8c6295ce39)" style="fill: none; stroke: #000000; stroke-width: 1.5"/>
    <path d="M 370.032182 321.069678 
L 370.032182 273.803876 
" clip-path="url(#p8c6295ce39)" style="fill: none; stroke: #000000; stroke-width: 1.5"/>
   </g>
   <g id="line2d_28">
    <defs>
     <path id="m86b5588382" d="M 0 1.5 
C 0.397805 1.5 0.77937 1.341951 1.06066 1.06066 
C 1.341951 0.77937 1.5 0.397805 1.5 0 
C 1.5 -0.397805 1.341951 -0.77937 1.06066 -1.06066 
C 0.77937 -1.341951 0.397805 -1.5 0 -1.5 
C -0.397805 -1.5 -0.77937 -1.341951 -1.06066 -1.06066 
C -1.341951 -0.77937 -1.5 -0.397805 -1.5 0 
C -1.5 0.397805 -1.341951 0.77937 -1.06066 1.06066 
C -0.77937 1.341951 -0.397805 1.5 0 1.5 
z
" style="stroke: #ff7f0e"/>
    </defs>
    <g clip-path="url(#p8c6295ce39)">
     <use xlink:href="#m86b5588382" x="73.832727" y="6252.21355" style="fill: #ff7f0e; stroke: #ff7f0e"/>
     <use xlink:href="#m86b5588382" x="77.030202" y="6170.319841" style="fill: #ff7f0e; stroke: #ff7f0e"/>
     <use xlink:href="#m86b5588382" x="80.227691" y="6088.426005" style="fill: #ff7f0e; stroke: #ff7f0e"/>
     <use xlink:href="#m86b5588382" x="83.42518" y="6006.532169" style="fill: #ff7f0e; stroke: #ff7f0e"/>
     <use xlink:href="#m86b5588382" x="86.622669" y="5924.638333" style="fill: #ff7f0e; stroke: #ff7f0e"/>
     <use xlink:href="#m86b5588382" x="89.820158" y="5842.744624" style="fill: #ff7f0e; stroke: #ff7f0e"/>
     <use xlink:href="#m86b5588382" x="93.017648" y="5760.850788" style="fill: #ff7f0e; stroke: #ff7f0e"/>
     <use xlink:href="#m86b5588382" x="96.215137" y="5678.956952" style="fill: #ff7f0e; stroke: #ff7f0e"/>
     <use xlink:href="#m86b5588382" x="99.083622" y="1039.218836" style="fill: #ff7f0e; stroke: #ff7f0e"/>
     <use xlink:href="#m86b5588382" x="102.281111" y="969.303201" style="fill: #ff7f0e; stroke: #ff7f0e"/>
     <use xlink:href="#m86b5588382" x="105.4786" y="913.649836" style="fill: #ff7f0e; stroke: #ff7f0e"/>
     <use xlink:href="#m86b5588382" x="108.676089" y="868.92151" style="fill: #ff7f0e; stroke: #ff7f0e"/>
     <use xlink:href="#m86b5588382" x="111.873579" y="830.038539" style="fill: #ff7f0e; stroke: #ff7f0e"/>
     <use xlink:href="#m86b5588382" x="115.071068" y="793.861612" style="fill: #ff7f0e; stroke: #ff7f0e"/>
     <use xlink:href="#m86b5588382" x="118.268557" y="758.868651" style="fill: #ff7f0e; stroke: #ff7f0e"/>
     <use xlink:href="#m86b5588382" x="121.466031" y="724.38305" style="fill: #ff7f0e; stroke: #ff7f0e"/>
     <use xlink:href="#m86b5588382" x="124.663521" y="690.11516" style="fill: #ff7f0e; stroke: #ff7f0e"/>
     <use xlink:href="#m86b5588382" x="127.86101" y="655.943692" style="fill: #ff7f0e; stroke: #ff7f0e"/>
     <use xlink:href="#m86b5588382" x="131.058499" y="621.820563" style="fill: #ff7f0e; stroke: #ff7f0e"/>
     <use xlink:href="#m86b5588382" x="134.255988" y="587.73042" style="fill: #ff7f0e; stroke: #ff7f0e"/>
     <use xlink:href="#m86b5588382" x="137.453477" y="553.674786" style="fill: #ff7f0e; stroke: #ff7f0e"/>
     <use xlink:href="#m86b5588382" x="140.650967" y="519.667237" style="fill: #ff7f0e; stroke: #ff7f0e"/>
     <use xlink:href="#m86b5588382" x="143.848456" y="485.738348" style="fill: #ff7f0e; stroke: #ff7f0e"/>
     <use xlink:href="#m86b5588382" x="147.045945" y="451.933032" style="fill: #ff7f0e; stroke: #ff7f0e"/>
     <use xlink:href="#m86b5588382" x="150.243434" y="418.329442" style="fill: #ff7f0e; stroke: #ff7f0e"/>
     <use xlink:href="#m86b5588382" x="153.440924" y="385.054449" style="fill: #ff7f0e; stroke: #ff7f0e"/>
     <use xlink:href="#m86b5588382" x="156.638413" y="352.311809" style="fill: #ff7f0e; stroke: #ff7f0e"/>
     <use xlink:href="#m86b5588382" x="159.835887" y="320.424284" style="fill: #ff7f0e; stroke: #ff7f0e"/>
     <use xlink:href="#m86b5588382" x="163.033376" y="289.890352" style="fill: #ff7f0e; stroke: #ff7f0e"/>
     <use xlink:href="#m86b5588382" x="166.230866" y="261.445868" style="fill: #ff7f0e; stroke: #ff7f0e"/>
     <use xlink:href="#m86b5588382" x="169.428355" y="236.08411" style="fill: #ff7f0e; stroke: #ff7f0e"/>
     <use xlink:href="#m86b5588382" x="172.625844" y="214.910256" style="fill: #ff7f0e; stroke: #ff7f0e"/>
     <use xlink:href="#m86b5588382" x="175.823333" y="198.607003" style="fill: #ff7f0e; stroke: #ff7f0e"/>
     <use xlink:href="#m86b5588382" x="179.020822" y="186.54456" style="fill: #ff7f0e; stroke: #ff7f0e"/>
     <use xlink:href="#m86b5588382" x="182.218312" y="176.739543" style="fill: #ff7f0e; stroke: #ff7f0e"/>
     <use xlink:href="#m86b5588382" x="185.415801" y="167.613923" style="fill: #ff7f0e; stroke: #ff7f0e"/>
     <use xlink:href="#m86b5588382" x="188.61329" y="158.850902" style="fill: #ff7f0e; stroke: #ff7f0e"/>
     <use xlink:href="#m86b5588382" x="191.810779" y="150.60539" style="fill: #ff7f0e; stroke: #ff7f0e"/>
     <use xlink:href="#m86b5588382" x="195.008268" y="143.155237" style="fill: #ff7f0e; stroke: #ff7f0e"/>
     <use xlink:href="#m86b5588382" x="198.205743" y="136.913281" style="fill: #ff7f0e; stroke: #ff7f0e"/>
     <use xlink:href="#m86b5588382" x="201.403232" y="132.463387" style="fill: #ff7f0e; stroke: #ff7f0e"/>
     <use xlink:href="#m86b5588382" x="204.600721" y="130.555999" style="fill: #ff7f0e; stroke: #ff7f0e"/>
     <use xlink:href="#m86b5588382" x="207.79821" y="131.967826" style="fill: #ff7f0e; stroke: #ff7f0e"/>
     <use xlink:href="#m86b5588382" x="210.9957" y="137.084049" style="fill: #ff7f0e; stroke: #ff7f0e"/>
     <use xlink:href="#m86b5588382" x="214.193189" y="145.299108" style="fill: #ff7f0e; stroke: #ff7f0e"/>
     <use xlink:href="#m86b5588382" x="217.390678" y="155.085848" style="fill: #ff7f0e; stroke: #ff7f0e"/>
     <use xlink:href="#m86b5588382" x="220.588167" y="165.235178" style="fill: #ff7f0e; stroke: #ff7f0e"/>
     <use xlink:href="#m86b5588382" x="223.785656" y="175.417344" style="fill: #ff7f0e; stroke: #ff7f0e"/>
     <use xlink:href="#m86b5588382" x="226.983146" y="185.616841" style="fill: #ff7f0e; stroke: #ff7f0e"/>
     <use xlink:href="#m86b5588382" x="230.180635" y="195.854158" style="fill: #ff7f0e; stroke: #ff7f0e"/>
     <use xlink:href="#m86b5588382" x="233.378124" y="206.174192" style="fill: #ff7f0e; stroke: #ff7f0e"/>
     <use xlink:href="#m86b5588382" x="236.575613" y="216.674057" style="fill: #ff7f0e; stroke: #ff7f0e"/>
     <use xlink:href="#m86b5588382" x="239.773088" y="227.559178" style="fill: #ff7f0e; stroke: #ff7f0e"/>
     <use xlink:href="#m86b5588382" x="242.970577" y="239.252554" style="fill: #ff7f0e; stroke: #ff7f0e"/>
     <use xlink:href="#m86b5588382" x="246.168066" y="252.594887" style="fill: #ff7f0e; stroke: #ff7f0e"/>
     <use xlink:href="#m86b5588382" x="249.365555" y="269.18621" style="fill: #ff7f0e; stroke: #ff7f0e"/>
     <use xlink:href="#m86b5588382" x="252.563044" y="291.920198" style="fill: #ff7f0e; stroke: #ff7f0e"/>
     <use xlink:href="#m86b5588382" x="255.760534" y="325.717848" style="fill: #ff7f0e; stroke: #ff7f0e"/>
     <use xlink:href="#m86b5588382" x="258.958023" y="377.89399" style="fill: #ff7f0e; stroke: #ff7f0e"/>
     <use xlink:href="#m86b5588382" x="262.155512" y="449.895232" style="fill: #ff7f0e; stroke: #ff7f0e"/>
     <use xlink:href="#m86b5588382" x="265.353001" y="482.007624" style="fill: #ff7f0e; stroke: #ff7f0e"/>
     <use xlink:href="#m86b5588382" x="268.55049" y="456.984238" style="fill: #ff7f0e; stroke: #ff7f0e"/>
     <use xlink:href="#m86b5588382" x="271.74798" y="427.918252" style="fill: #ff7f0e; stroke: #ff7f0e"/>
     <use xlink:href="#m86b5588382" x="274.945469" y="400.153944" style="fill: #ff7f0e; stroke: #ff7f0e"/>
     <use xlink:href="#m86b5588382" x="278.142943" y="373.980462" style="fill: #ff7f0e; stroke: #ff7f0e"/>
     <use xlink:href="#m86b5588382" x="281.340432" y="349.620736" style="fill: #ff7f0e; stroke: #ff7f0e"/>
     <use xlink:href="#m86b5588382" x="284.537922" y="327.218638" style="fill: #ff7f0e; stroke: #ff7f0e"/>
     <use xlink:href="#m86b5588382" x="287.735411" y="306.763132" style="fill: #ff7f0e; stroke: #ff7f0e"/>
     <use xlink:href="#m86b5588382" x="290.9329" y="288.059722" style="fill: #ff7f0e; stroke: #ff7f0e"/>
     <use xlink:href="#m86b5588382" x="294.130389" y="270.817872" style="fill: #ff7f0e; stroke: #ff7f0e"/>
     <use xlink:href="#m86b5588382" x="297.327879" y="254.761131" style="fill: #ff7f0e; stroke: #ff7f0e"/>
     <use xlink:href="#m86b5588382" x="300.525368" y="239.740549" style="fill: #ff7f0e; stroke: #ff7f0e"/>
     <use xlink:href="#m86b5588382" x="303.722857" y="225.68711" style="fill: #ff7f0e; stroke: #ff7f0e"/>
     <use xlink:href="#m86b5588382" x="306.920346" y="212.575185" style="fill: #ff7f0e; stroke: #ff7f0e"/>
     <use xlink:href="#m86b5588382" x="310.117835" y="200.46656" style="fill: #ff7f0e; stroke: #ff7f0e"/>
     <use xlink:href="#m86b5588382" x="313.315325" y="189.42188" style="fill: #ff7f0e; stroke: #ff7f0e"/>
     <use xlink:href="#m86b5588382" x="316.512814" y="179.499634" style="fill: #ff7f0e; stroke: #ff7f0e"/>
     <use xlink:href="#m86b5588382" x="319.710288" y="170.724941" style="fill: #ff7f0e; stroke: #ff7f0e"/>
     <use xlink:href="#m86b5588382" x="322.907777" y="163.070904" style="fill: #ff7f0e; stroke: #ff7f0e"/>
     <use xlink:href="#m86b5588382" x="326.105267" y="156.460767" style="fill: #ff7f0e; stroke: #ff7f0e"/>
     <use xlink:href="#m86b5588382" x="329.302756" y="150.804069" style="fill: #ff7f0e; stroke: #ff7f0e"/>
     <use xlink:href="#m86b5588382" x="332.500245" y="146.044353" style="fill: #ff7f0e; stroke: #ff7f0e"/>
     <use xlink:href="#m86b5588382" x="335.697734" y="142.170453" style="fill: #ff7f0e; stroke: #ff7f0e"/>
     <use xlink:href="#m86b5588382" x="338.895223" y="139.226012" style="fill: #ff7f0e; stroke: #ff7f0e"/>
     <use xlink:href="#m86b5588382" x="342.092713" y="137.298189" style="fill: #ff7f0e; stroke: #ff7f0e"/>
     <use xlink:href="#m86b5588382" x="345.290202" y="136.529584" style="fill: #ff7f0e; stroke: #ff7f0e"/>
     <use xlink:href="#m86b5588382" x="348.487691" y="137.064952" style="fill: #ff7f0e; stroke: #ff7f0e"/>
     <use xlink:href="#m86b5588382" x="351.68518" y="139.043839" style="fill: #ff7f0e; stroke: #ff7f0e"/>
     <use xlink:href="#m86b5588382" x="354.882669" y="142.718948" style="fill: #ff7f0e; stroke: #ff7f0e"/>
     <use xlink:href="#m86b5588382" x="358.080144" y="148.892789" style="fill: #ff7f0e; stroke: #ff7f0e"/>
     <use xlink:href="#m86b5588382" x="361.277633" y="159.270797" style="fill: #ff7f0e; stroke: #ff7f0e"/>
     <use xlink:href="#m86b5588382" x="364.475122" y="178.462056" style="fill: #ff7f0e; stroke: #ff7f0e"/>
     <use xlink:href="#m86b5588382" x="367.672611" y="216.459362" style="fill: #ff7f0e; stroke: #ff7f0e"/>
     <use xlink:href="#m86b5588382" x="370.870101" y="281.414096" style="fill: #ff7f0e; stroke: #ff7f0e"/>
     <use xlink:href="#m86b5588382" x="374.06759" y="367.569667" style="fill: #ff7f0e; stroke: #ff7f0e"/>
     <use xlink:href="#m86b5588382" x="377.265079" y="451.860253" style="fill: #ff7f0e; stroke: #ff7f0e"/>
     <use xlink:href="#m86b5588382" x="380.462568" y="521.78195" style="fill: #ff7f0e; stroke: #ff7f0e"/>
     <use xlink:href="#m86b5588382" x="383.660057" y="599.831372" style="fill: #ff7f0e; stroke: #ff7f0e"/>
     <use xlink:href="#m86b5588382" x="386.857547" y="745.715319" style="fill: #ff7f0e; stroke: #ff7f0e"/>
     <use xlink:href="#m86b5588382" x="390.055036" y="1054.775799" style="fill: #ff7f0e; stroke: #ff7f0e"/>
     <use xlink:href="#m86b5588382" x="393.252525" y="1908.864569" style="fill: #ff7f0e; stroke: #ff7f0e"/>
     <use xlink:href="#m86b5588382" x="396.449999" y="4562.829334" style="fill: #ff7f0e; stroke: #ff7f0e"/>
     <use xlink:href="#m86b5588382" x="398.487273" y="12847.506475" style="fill: #ff7f0e; stroke: #ff7f0e"/>
    </g>
   </g>
   <g id="line2d_29">
    <path d="M 157.211156 346.6 
L 159.835887 320.424284 
L 163.033376 289.890352 
L 166.230866 261.445868 
L 169.428355 236.08411 
L 172.625844 214.910256 
L 175.823333 198.607003 
L 179.020822 186.54456 
L 182.218312 176.739543 
L 185.415801 167.613923 
L 188.61329 158.850902 
L 191.810779 150.60539 
L 195.008268 143.155237 
L 198.205743 136.913281 
L 201.403232 132.463387 
L 204.600721 130.555999 
L 207.79821 131.967826 
L 210.9957 137.084049 
L 214.193189 145.299108 
L 217.390678 155.085848 
L 220.588167 165.235178 
L 223.785656 175.417344 
L 226.983146 185.616841 
L 230.180635 195.854158 
L 233.378124 206.174192 
L 236.575613 216.674057 
L 239.773088 227.559178 
L 242.970577 239.252554 
L 246.168066 252.594887 
L 249.365555 269.18621 
L 252.563044 291.920198 
L 255.760534 325.717848 
L 257.040246 346.6 
M 281.771587 346.6 
L 284.537922 327.218638 
L 287.735411 306.763132 
L 290.9329 288.059722 
L 294.130389 270.817872 
L 297.327879 254.761131 
L 300.525368 239.740549 
L 303.722857 225.68711 
L 306.920346 212.575185 
L 310.117835 200.46656 
L 313.315325 189.42188 
L 316.512814 179.499634 
L 319.710288 170.724941 
L 322.907777 163.070904 
L 326.105267 156.460767 
L 329.302756 150.804069 
L 332.500245 146.044353 
L 335.697734 142.170453 
L 338.895223 139.226012 
L 342.092713 137.298189 
L 345.290202 136.529584 
L 348.487691 137.064952 
L 351.68518 139.043839 
L 354.882669 142.718948 
L 358.080144 148.892789 
L 361.277633 159.270797 
L 364.475122 178.462056 
L 367.672611 216.459362 
L 370.870101 281.414096 
L 373.289343 346.6 
" clip-path="url(#p8c6295ce39)" style="fill: none; stroke: #2ca02c; stroke-width: 1.5; stroke-linecap: square"/>
   </g>
   <g id="line2d_30">
    <defs>
     <path id="mdaf780f78c" d="M 0 1.5 
C 0.397805 1.5 0.77937 1.341951 1.06066 1.06066 
C 1.341951 0.77937 1.5 0.397805 1.5 0 
C 1.5 -0.397805 1.341951 -0.77937 1.06066 -1.06066 
C 0.77937 -1.341951 0.397805 -1.5 0 -1.5 
C -0.397805 -1.5 -0.77937 -1.341951 -1.06066 -1.06066 
C -1.341951 -0.77937 -1.5 -0.397805 -1.5 0 
C -1.5 0.397805 -1.341951 0.77937 -1.06066 1.06066 
C -0.77937 1.341951 -0.397805 1.5 0 1.5 
z
" style="stroke: #0000ff"/>
    </defs>
    <g clip-path="url(#p8c6295ce39)">
     <use xlink:href="#mdaf780f78c" x="203.704255" y="137.661134" style="fill: #0000ff; stroke: #0000ff"/>
     <use xlink:href="#mdaf780f78c" x="205.1185" y="130.151437" style="fill: #0000ff; stroke: #0000ff"/>
     <use xlink:href="#mdaf780f78c" x="206.648561" y="130.471474" style="fill: #0000ff; stroke: #0000ff"/>
     <use xlink:href="#mdaf780f78c" x="208.502159" y="133.551697" style="fill: #0000ff; stroke: #0000ff"/>
     <use xlink:href="#mdaf780f78c" x="210.432085" y="135.862292" style="fill: #0000ff; stroke: #0000ff"/>
     <use xlink:href="#mdaf780f78c" x="241.39963" y="241.225062" style="fill: #0000ff; stroke: #0000ff"/>
     <use xlink:href="#mdaf780f78c" x="242.214728" y="247.386445" style="fill: #0000ff; stroke: #0000ff"/>
     <use xlink:href="#mdaf780f78c" x="242.872808" y="234.399124" style="fill: #0000ff; stroke: #0000ff"/>
     <use xlink:href="#mdaf780f78c" x="243.559386" y="238.044609" style="fill: #0000ff; stroke: #0000ff"/>
     <use xlink:href="#mdaf780f78c" x="244.179896" y="226.646171" style="fill: #0000ff; stroke: #0000ff"/>
     <use xlink:href="#mdaf780f78c" x="244.770533" y="241.065584" style="fill: #0000ff; stroke: #0000ff"/>
     <use xlink:href="#mdaf780f78c" x="245.57689" y="258.532701" style="fill: #0000ff; stroke: #0000ff"/>
     <use xlink:href="#mdaf780f78c" x="246.503348" y="249.75865" style="fill: #0000ff; stroke: #0000ff"/>
     <use xlink:href="#mdaf780f78c" x="247.620361" y="251.462898" style="fill: #0000ff; stroke: #0000ff"/>
     <use xlink:href="#mdaf780f78c" x="250.072072" y="276.614937" style="fill: #0000ff; stroke: #0000ff"/>
     <use xlink:href="#mdaf780f78c" x="252.543407" y="293.127826" style="fill: #0000ff; stroke: #0000ff"/>
     <use xlink:href="#mdaf780f78c" x="320.852635" y="177.085994" style="fill: #0000ff; stroke: #0000ff"/>
     <use xlink:href="#mdaf780f78c" x="328.283058" y="142.366844" style="fill: #0000ff; stroke: #0000ff"/>
     <use xlink:href="#mdaf780f78c" x="335.713481" y="146.073572" style="fill: #0000ff; stroke: #0000ff"/>
     <use xlink:href="#mdaf780f78c" x="343.143903" y="146.215765" style="fill: #0000ff; stroke: #0000ff"/>
     <use xlink:href="#mdaf780f78c" x="350.574326" y="149.895345" style="fill: #0000ff; stroke: #0000ff"/>
     <use xlink:href="#mdaf780f78c" x="358.004749" y="150.353874" style="fill: #0000ff; stroke: #0000ff"/>
     <use xlink:href="#mdaf780f78c" x="364.498213" y="162.687385" style="fill: #0000ff; stroke: #0000ff"/>
     <use xlink:href="#mdaf780f78c" x="365.242086" y="182.039176" style="fill: #0000ff; stroke: #0000ff"/>
     <use xlink:href="#mdaf780f78c" x="365.984741" y="190.260724" style="fill: #0000ff; stroke: #0000ff"/>
     <use xlink:href="#mdaf780f78c" x="366.724346" y="176.343067" style="fill: #0000ff; stroke: #0000ff"/>
     <use xlink:href="#mdaf780f78c" x="367.467201" y="231.245797" style="fill: #0000ff; stroke: #0000ff"/>
     <use xlink:href="#mdaf780f78c" x="368.20891" y="223.780106" style="fill: #0000ff; stroke: #0000ff"/>
     <use xlink:href="#mdaf780f78c" x="368.952356" y="238.650938" style="fill: #0000ff; stroke: #0000ff"/>
     <use xlink:href="#mdaf780f78c" x="370.032182" y="292.516733" style="fill: #0000ff; stroke: #0000ff"/>
    </g>
   </g>
   <g id="patch_3">
    <path d="M 57.6 307.584 
L 57.6 41.472 
" style="fill: none; stroke: #000000; stroke-width: 0.8; stroke-linejoin: miter; stroke-linecap: square"/>
   </g>
   <g id="patch_4">
    <path d="M 414.72 307.584 
L 414.72 41.472 
" style="fill: none; stroke: #000000; stroke-width: 0.8; stroke-linejoin: miter; stroke-linecap: square"/>
   </g>
   <g id="patch_5">
    <path d="M 57.6 307.584 
L 414.72 307.584 
" style="fill: none; stroke: #000000; stroke-width: 0.8; stroke-linejoin: miter; stroke-linecap: square"/>
   </g>
   <g id="patch_6">
    <path d="M 57.6 41.472 
L 414.72 41.472 
" style="fill: none; stroke: #000000; stroke-width: 0.8; stroke-linejoin: miter; stroke-linecap: square"/>
   </g>
   <g id="text_13">
    <!-- MCMC $\chi^2$ = 30.35 -->
    <g transform="translate(182.82 35.472)scale(0.12 -0.12)">
     <defs>
      <path id="DejaVuSans-4d" d="M 628 4666 
L 1569 4666 
L 2759 1491 
L 3956 4666 
L 4897 4666 
L 4897 0 
L 4281 0 
L 4281 4097 
L 3078 897 
L 2444 897 
L 1241 4097 
L 1241 0 
L 628 0 
L 628 4666 
z
" transform="scale(0.015625)"/>
      <path id="DejaVuSans-43" d="M 4122 4306 
L 4122 3641 
Q 3803 3938 3442 4084 
Q 3081 4231 2675 4231 
Q 1875 4231 1450 3742 
Q 1025 3253 1025 2328 
Q 1025 1406 1450 917 
Q 1875 428 2675 428 
Q 3081 428 3442 575 
Q 3803 722 4122 1019 
L 4122 359 
Q 3791 134 3420 21 
Q 3050 -91 2638 -91 
Q 1578 -91 968 557 
Q 359 1206 359 2328 
Q 359 3453 968 4101 
Q 1578 4750 2638 4750 
Q 3056 4750 3426 4639 
Q 3797 4528 4122 4306 
z
" transform="scale(0.015625)"/>
      <path id="DejaVuSans-20" transform="scale(0.015625)"/>
      <path id="DejaVuSans-Oblique-3c7" d="M 1922 -781 
L 1691 416 
L 394 -1334 
L -284 -1334 
L 1553 1141 
L 1269 2613 
Q 1194 3006 713 3006 
L 559 3006 
L 653 3500 
L 872 3494 
Q 1675 3472 1775 2950 
L 2006 1753 
L 3303 3503 
L 3981 3503 
L 2144 1028 
L 2428 -444 
Q 2503 -838 2984 -838 
L 3138 -838 
L 3044 -1331 
L 2825 -1325 
Q 2022 -1303 1922 -781 
z
" transform="scale(0.015625)"/>
      <path id="DejaVuSans-3d" d="M 678 2906 
L 4684 2906 
L 4684 2381 
L 678 2381 
L 678 2906 
z
M 678 1631 
L 4684 1631 
L 4684 1100 
L 678 1100 
L 678 1631 
z
" transform="scale(0.015625)"/>
      <path id="DejaVuSans-2e" d="M 684 794 
L 1344 794 
L 1344 0 
L 684 0 
L 684 794 
z
" transform="scale(0.015625)"/>
     </defs>
     <use xlink:href="#DejaVuSans-4d" transform="translate(0 0.765625)"/>
     <use xlink:href="#DejaVuSans-43" transform="translate(86.279297 0.765625)"/>
     <use xlink:href="#DejaVuSans-4d" transform="translate(156.103516 0.765625)"/>
     <use xlink:href="#DejaVuSans-43" transform="translate(242.382812 0.765625)"/>
     <use xlink:href="#DejaVuSans-20" transform="translate(312.207031 0.765625)"/>
     <use xlink:href="#DejaVuSans-Oblique-3c7" transform="translate(343.994141 0.765625)"/>
     <use xlink:href="#DejaVuSans-32" transform="translate(407.646536 39.046875)scale(0.7)"/>
     <use xlink:href="#DejaVuSans-20" transform="translate(454.917044 0.765625)"/>
     <use xlink:href="#DejaVuSans-3d" transform="translate(486.704154 0.765625)"/>
     <use xlink:href="#DejaVuSans-20" transform="translate(570.493216 0.765625)"/>
     <use xlink:href="#DejaVuSans-33" transform="translate(602.280326 0.765625)"/>
     <use xlink:href="#DejaVuSans-30" transform="translate(665.903372 0.765625)"/>
     <use xlink:href="#DejaVuSans-2e" transform="translate(729.526419 0.765625)"/>
     <use xlink:href="#DejaVuSans-33" transform="translate(761.313529 0.765625)"/>
     <use xlink:href="#DejaVuSans-35" transform="translate(824.936576 0.765625)"/>
    </g>
   </g>
  </g>
 </g>
 <defs>
  <clipPath id="p8c6295ce39">
   <rect x="57.6" y="41.472" width="357.12" height="266.112"/>
  </clipPath>
 </defs>
</svg>
