<?xml version="1.0" encoding="utf-8" standalone="no"?>
<!DOCTYPE svg PUBLIC "-//W3C//DTD SVG 1.1//EN"
  "http://www.w3.org/Graphics/SVG/1.1/DTD/svg11.dtd">
<svg xmlns:xlink="http://www.w3.org/1999/xlink" width="460.8pt" height="345.6pt" viewBox="0 0 460.8 345.6" xmlns="http://www.w3.org/2000/svg" version="1.1">
 <metadata>
  <rdf:RDF xmlns:dc="http://purl.org/dc/elements/1.1/" xmlns:cc="http://creativecommons.org/ns#" xmlns:rdf="http://www.w3.org/1999/02/22-rdf-syntax-ns#">
   <cc:Work>
    <dc:type rdf:resource="http://purl.org/dc/dcmitype/StillImage"/>
    <dc:date>2022-07-23T13:55:48.265161</dc:date>
    <dc:format>image/svg+xml</dc:format>
    <dc:creator>
     <cc:Agent>
      <dc:title>Matplotlib v3.5.0, https://matplotlib.org/</dc:title>
     </cc:Agent>
    </dc:creator>
   </cc:Work>
  </rdf:RDF>
 </metadata>
 <defs>
  <style type="text/css">*{stroke-linejoin: round; stroke-linecap: butt}</style>
 </defs>
 <g id="figure_1">
  <g id="patch_1">
   <path d="M 0 345.6 
L 460.8 345.6 
L 460.8 0 
L 0 0 
z
" style="fill: #ffffff"/>
  </g>
  <g id="axes_1">
   <g id="patch_2">
    <path d="M 57.6 307.584 
L 414.72 307.584 
L 414.72 41.472 
L 57.6 41.472 
z
" style="fill: #ffffff"/>
   </g>
   <g id="PolyCollection_1">
    <path d="M 73.832727 120715953970256.359375 
L 73.832727 332863944912653.5 
L 73.832727 329480417170023.5625 
L 73.832727 326096860136879.0625 
L 73.832727 322713319029730.375 
L 73.832727 319329776281738.0625 
L 73.832727 315946232813545.625 
L 73.832727 312562689345353.3125 
L 73.832727 309179150398814.9375 
L 73.832727 112578684750781.125 
L 73.832727 108625651242192.5625 
L 73.832727 104674876187946.34375 
L 73.832727 100725427855047.046875 
L 73.832727 96776771149672.703125 
L 73.832727 92828586147602.015625 
L 73.832727 88880694593589.828125 
L 73.832727 85427655540413.859375 
L 73.832727 83919762808503.0625 
L 73.832727 82505159354468.921875 
L 73.832727 81093365534259.453125 
L 73.832727 79682777340504.609375 
L 73.832727 78272718574018.953125 
L 73.832727 76863189234802.5 
L 73.832727 75453376835461.9375 
L 73.832727 74044104347098.84375 
L 73.832727 72635172579255.546875 
L 73.832727 71226801689806.359375 
L 73.832727 69819353366687.640625 
L 73.832727 68413419939418.40625 
L 73.832727 67009960667308.210938 
L 73.832727 65610563832164.632812 
L 73.832727 64217813668083.867188 
L 73.832727 62835903658386.296875 
L 73.832727 61471637729759.28125 
L 73.832727 60135918938835.804688 
L 73.832727 58845924841667.015625 
L 73.832727 57627990513504.929688 
L 73.832727 56520449633751.890625 
L 73.832727 55595068380472.828125 
L 73.832727 55012263274239.820312 
L 73.832727 54524272797779.617188 
L 73.832727 54213786362084.992188 
L 73.832727 54031334216072.96875 
L 73.832727 54055333737342.109375 
L 73.832727 54291329272969.773438 
L 73.832727 54661711805152.992188 
L 73.832727 55067698823242.375 
L 73.832727 55498129204702.21875 
L 73.832727 55952176386513.234375 
L 73.832727 56449772265185.007812 
L 73.832727 56945676614339.164062 
L 73.832727 57428427617545.015625 
L 73.832727 57896221205968.632812 
L 73.832727 58349957342105.726562 
L 73.832727 58795700951776.085938 
L 73.832727 59245352874320.148438 
L 73.832727 59968644066464.101562 
L 73.832727 61417045444925.382812 
L 73.832727 63059571303413.125 
L 73.832727 66148229282417.4375 
L 73.832727 70194373584801.351562 
L 73.832727 73525931854844.71875 
L 73.832727 74616654355192.75 
L 73.832727 73561363595491.671875 
L 73.832727 72174329708028.375 
L 73.832727 70793992276307 
L 73.832727 69423383704157.820312 
L 73.832727 68066005571884.429688 
L 73.832727 66725983218703.242188 
L 73.832727 65408527047639.789062 
L 73.832727 64120095023007.398438 
L 73.832727 62868549926031.695312 
L 73.832727 61663494833516.15625 
L 73.832727 60515759416135.320312 
L 73.832727 59438427341848.125 
L 73.832727 58445331863756.414062 
L 73.832727 57587649203802.828125 
L 73.832727 56944374104191.335938 
L 73.832727 56360174700768.296875 
L 73.832727 55836151782836.0625 
L 73.832727 55372950098329.898438 
L 73.832727 55121607659783.28125 
L 73.832727 55006759242725.78125 
L 73.832727 54909120489031.960938 
L 73.832727 54830363267983.390625 
L 73.832727 54772199095932.554688 
L 73.832727 54737291713960.335938 
L 73.832727 54729896444156.023438 
L 73.832727 54754881408734.132812 
L 73.832727 54874187592957.359375 
L 73.832727 55186245304640.039062 
L 73.832727 55697477605763.109375 
L 73.832727 56576629521545.09375 
L 73.832727 58225207771712.742188 
L 73.832727 61064222562217.335938 
L 73.832727 64952578878531.75 
L 73.832727 68662149873998.851562 
L 73.832727 71666368910498.265625 
L 73.832727 74831621940817.8125 
L 73.832727 81467382901506.734375 
L 73.832727 95859925959587.5 
L 73.832727 137173563433748.203125 
L 73.832727 6636135716406251 
L 73.832727 10776954552305930 
L 73.832727 192427910186229.25 
L 73.832727 192427910186229.25 
L 73.832727 168591945238680.71875 
L 73.832727 124933662097128.375 
L 73.832727 90445343854944.515625 
L 73.832727 78071818643248.96875 
L 73.832727 72266589476461.34375 
L 73.832727 69179681313553.4375 
L 73.832727 66424738204242.914062 
L 73.832727 63117016740471.71875 
L 73.832727 59757580641195.179688 
L 73.832727 57272707731552.109375 
L 73.832727 55628043984686.023438 
L 73.832727 54761864361098.695312 
L 73.832727 54286580340637.945312 
L 73.832727 54010838250719.03125 
L 73.832727 53862221356985.109375 
L 73.832727 53804833615235.28125 
L 73.832727 53831284052195.015625 
L 73.832727 53899579262946.0625 
L 73.832727 54025983979208.664062 
L 73.832727 54174540257260.789062 
L 73.832727 54341132469208.515625 
L 73.832727 54547238993958.585938 
L 73.832727 54734882431400.578125 
L 73.832727 54913886624822.125 
L 73.832727 55028949155840.539062 
L 73.832727 55154653657030.875 
L 73.832727 55290348886520.992188 
L 73.832727 55435414905610.609375 
L 73.832727 55589586004129.4375 
L 73.832727 55753025508599.953125 
L 73.832727 55926052198484.375 
L 73.832727 56110292340805.554688 
L 73.832727 56306947686511.976562 
L 73.832727 56518040698991.773438 
L 73.832727 56746194367746.828125 
L 73.832727 56994465016585.726562 
L 73.832727 57263968857127.039062 
L 73.832727 57552869223000.640625 
L 73.832727 57859263386056.125 
L 73.832727 58180749109036.023438 
L 73.832727 58515758944852.476562 
L 73.832727 58863016001967.523438 
L 73.832727 59221107659979.414062 
L 73.832727 59589060169425.25 
L 73.832727 59945721770268.640625 
L 73.832727 59735446429250.867188 
L 73.832727 59265924631539.382812 
L 73.832727 58806485036322.007812 
L 73.832727 58059528519986.046875 
L 73.832727 57493739537254.234375 
L 73.832727 57037513481472.34375 
L 73.832727 56637887301734.25 
L 73.832727 56266185541656.28125 
L 73.832727 55907739475023.367188 
L 73.832727 55555368989286.257812 
L 73.832727 55160222493721.117188 
L 73.832727 54763204734927.765625 
L 73.832727 54391899019301.210938 
L 73.832727 54110202117719.023438 
L 73.832727 53949896727754.242188 
L 73.832727 53866215817085.164062 
L 73.832727 53791052870512.8125 
L 73.832727 53774829331950.585938 
L 73.832727 53841264591466.492188 
L 73.832727 54092894558111.867188 
L 73.832727 54616545304040.6875 
L 73.832727 54847040103088.835938 
L 73.832727 55075637369320.53125 
L 73.832727 55308559161358.328125 
L 73.832727 55544080911400.476562 
L 73.832727 55781164733278.796875 
L 73.832727 44550302321918.617188 
L 73.832727 38580827388447.046875 
L 73.832727 35788235450721.671875 
L 73.832727 35036035134261.496094 
L 73.832727 35937670319683.398438 
L 73.832727 37916089793430.695312 
L 73.832727 40506037308861.453125 
L 73.832727 43433517354315.445312 
L 73.832727 46550090315934.203125 
L 73.832727 49775119505756.9375 
L 73.832727 53063577340523.765625 
L 73.832727 56389591274629.75 
L 73.832727 59737878817810.367188 
L 73.832727 63099024761416.546875 
L 73.832727 66466593375697.601562 
L 73.832727 69834885024755.632812 
L 73.832727 72066300357572.09375 
L 73.832727 73528898228208.25 
L 73.832727 75066700980341.6875 
L 73.832727 76771089857378.15625 
L 73.832727 78815009353305.234375 
L 73.832727 81409596111451.078125 
L 73.832727 84530276319558.140625 
L 73.832727 97031370405125.046875 
L 73.832727 100414825080164.203125 
L 73.832727 103798316288998.75 
L 73.832727 107181827114990.453125 
L 73.832727 110565350966025.703125 
L 73.832727 113948885459965.4375 
L 73.832727 117332434010767.078125 
L 73.832727 120715953970256.359375 
z
" clip-path="url(#pb4c6d107e9)" style="fill: #1f77b4; fill-opacity: 0.5"/>
   </g>
   <g id="matplotlib.axis_1">
    <g id="xtick_1">
     <g id="line2d_1">
      <defs>
       <path id="m26061de443" d="M 0 0 
L 0 3.5 
" style="stroke: #000000; stroke-width: 0.8"/>
      </defs>
      <g>
       <use xlink:href="#m26061de443" x="73.832727" y="307.584" style="stroke: #000000; stroke-width: 0.8"/>
      </g>
     </g>
     <g id="text_1">
      <!-- 0 -->
      <g transform="translate(70.651477 322.182437)scale(0.1 -0.1)">
       <defs>
        <path id="DejaVuSans-30" d="M 2034 4250 
Q 1547 4250 1301 3770 
Q 1056 3291 1056 2328 
Q 1056 1369 1301 889 
Q 1547 409 2034 409 
Q 2525 409 2770 889 
Q 3016 1369 3016 2328 
Q 3016 3291 2770 3770 
Q 2525 4250 2034 4250 
z
M 2034 4750 
Q 2819 4750 3233 4129 
Q 3647 3509 3647 2328 
Q 3647 1150 3233 529 
Q 2819 -91 2034 -91 
Q 1250 -91 836 529 
Q 422 1150 422 2328 
Q 422 3509 836 4129 
Q 1250 4750 2034 4750 
z
" transform="scale(0.015625)"/>
       </defs>
       <use xlink:href="#DejaVuSans-30"/>
      </g>
     </g>
    </g>
    <g id="xtick_2">
     <g id="line2d_2">
      <g>
       <use xlink:href="#m26061de443" x="149.883353" y="307.584" style="stroke: #000000; stroke-width: 0.8"/>
      </g>
     </g>
     <g id="text_2">
      <!-- 2 -->
      <g transform="translate(146.702103 322.182437)scale(0.1 -0.1)">
       <defs>
        <path id="DejaVuSans-32" d="M 1228 531 
L 3431 531 
L 3431 0 
L 469 0 
L 469 531 
Q 828 903 1448 1529 
Q 2069 2156 2228 2338 
Q 2531 2678 2651 2914 
Q 2772 3150 2772 3378 
Q 2772 3750 2511 3984 
Q 2250 4219 1831 4219 
Q 1534 4219 1204 4116 
Q 875 4013 500 3803 
L 500 4441 
Q 881 4594 1212 4672 
Q 1544 4750 1819 4750 
Q 2544 4750 2975 4387 
Q 3406 4025 3406 3419 
Q 3406 3131 3298 2873 
Q 3191 2616 2906 2266 
Q 2828 2175 2409 1742 
Q 1991 1309 1228 531 
z
" transform="scale(0.015625)"/>
       </defs>
       <use xlink:href="#DejaVuSans-32"/>
      </g>
     </g>
    </g>
    <g id="xtick_3">
     <g id="line2d_3">
      <g>
       <use xlink:href="#m26061de443" x="225.933979" y="307.584" style="stroke: #000000; stroke-width: 0.8"/>
      </g>
     </g>
     <g id="text_3">
      <!-- 4 -->
      <g transform="translate(222.752729 322.182437)scale(0.1 -0.1)">
       <defs>
        <path id="DejaVuSans-34" d="M 2419 4116 
L 825 1625 
L 2419 1625 
L 2419 4116 
z
M 2253 4666 
L 3047 4666 
L 3047 1625 
L 3713 1625 
L 3713 1100 
L 3047 1100 
L 3047 0 
L 2419 0 
L 2419 1100 
L 313 1100 
L 313 1709 
L 2253 4666 
z
" transform="scale(0.015625)"/>
       </defs>
       <use xlink:href="#DejaVuSans-34"/>
      </g>
     </g>
    </g>
    <g id="xtick_4">
     <g id="line2d_4">
      <g>
       <use xlink:href="#m26061de443" x="301.984606" y="307.584" style="stroke: #000000; stroke-width: 0.8"/>
      </g>
     </g>
     <g id="text_4">
      <!-- 6 -->
      <g transform="translate(298.803356 322.182437)scale(0.1 -0.1)">
       <defs>
        <path id="DejaVuSans-36" d="M 2113 2584 
Q 1688 2584 1439 2293 
Q 1191 2003 1191 1497 
Q 1191 994 1439 701 
Q 1688 409 2113 409 
Q 2538 409 2786 701 
Q 3034 994 3034 1497 
Q 3034 2003 2786 2293 
Q 2538 2584 2113 2584 
z
M 3366 4563 
L 3366 3988 
Q 3128 4100 2886 4159 
Q 2644 4219 2406 4219 
Q 1781 4219 1451 3797 
Q 1122 3375 1075 2522 
Q 1259 2794 1537 2939 
Q 1816 3084 2150 3084 
Q 2853 3084 3261 2657 
Q 3669 2231 3669 1497 
Q 3669 778 3244 343 
Q 2819 -91 2113 -91 
Q 1303 -91 875 529 
Q 447 1150 447 2328 
Q 447 3434 972 4092 
Q 1497 4750 2381 4750 
Q 2619 4750 2861 4703 
Q 3103 4656 3366 4563 
z
" transform="scale(0.015625)"/>
       </defs>
       <use xlink:href="#DejaVuSans-36"/>
      </g>
     </g>
    </g>
    <g id="xtick_5">
     <g id="line2d_5">
      <g>
       <use xlink:href="#m26061de443" x="378.035232" y="307.584" style="stroke: #000000; stroke-width: 0.8"/>
      </g>
     </g>
     <g id="text_5">
      <!-- 8 -->
      <g transform="translate(374.853982 322.182437)scale(0.1 -0.1)">
       <defs>
        <path id="DejaVuSans-38" d="M 2034 2216 
Q 1584 2216 1326 1975 
Q 1069 1734 1069 1313 
Q 1069 891 1326 650 
Q 1584 409 2034 409 
Q 2484 409 2743 651 
Q 3003 894 3003 1313 
Q 3003 1734 2745 1975 
Q 2488 2216 2034 2216 
z
M 1403 2484 
Q 997 2584 770 2862 
Q 544 3141 544 3541 
Q 544 4100 942 4425 
Q 1341 4750 2034 4750 
Q 2731 4750 3128 4425 
Q 3525 4100 3525 3541 
Q 3525 3141 3298 2862 
Q 3072 2584 2669 2484 
Q 3125 2378 3379 2068 
Q 3634 1759 3634 1313 
Q 3634 634 3220 271 
Q 2806 -91 2034 -91 
Q 1263 -91 848 271 
Q 434 634 434 1313 
Q 434 1759 690 2068 
Q 947 2378 1403 2484 
z
M 1172 3481 
Q 1172 3119 1398 2916 
Q 1625 2713 2034 2713 
Q 2441 2713 2670 2916 
Q 2900 3119 2900 3481 
Q 2900 3844 2670 4047 
Q 2441 4250 2034 4250 
Q 1625 4250 1398 4047 
Q 1172 3844 1172 3481 
z
" transform="scale(0.015625)"/>
       </defs>
       <use xlink:href="#DejaVuSans-38"/>
      </g>
     </g>
    </g>
    <g id="text_6">
     <!-- log $\nu$ -->
     <g transform="translate(224.11 335.862125)scale(0.1 -0.1)">
      <defs>
       <path id="DejaVuSans-6c" d="M 603 4863 
L 1178 4863 
L 1178 0 
L 603 0 
L 603 4863 
z
" transform="scale(0.015625)"/>
       <path id="DejaVuSans-6f" d="M 1959 3097 
Q 1497 3097 1228 2736 
Q 959 2375 959 1747 
Q 959 1119 1226 758 
Q 1494 397 1959 397 
Q 2419 397 2687 759 
Q 2956 1122 2956 1747 
Q 2956 2369 2687 2733 
Q 2419 3097 1959 3097 
z
M 1959 3584 
Q 2709 3584 3137 3096 
Q 3566 2609 3566 1747 
Q 3566 888 3137 398 
Q 2709 -91 1959 -91 
Q 1206 -91 779 398 
Q 353 888 353 1747 
Q 353 2609 779 3096 
Q 1206 3584 1959 3584 
z
" transform="scale(0.015625)"/>
       <path id="DejaVuSans-67" d="M 2906 1791 
Q 2906 2416 2648 2759 
Q 2391 3103 1925 3103 
Q 1463 3103 1205 2759 
Q 947 2416 947 1791 
Q 947 1169 1205 825 
Q 1463 481 1925 481 
Q 2391 481 2648 825 
Q 2906 1169 2906 1791 
z
M 3481 434 
Q 3481 -459 3084 -895 
Q 2688 -1331 1869 -1331 
Q 1566 -1331 1297 -1286 
Q 1028 -1241 775 -1147 
L 775 -588 
Q 1028 -725 1275 -790 
Q 1522 -856 1778 -856 
Q 2344 -856 2625 -561 
Q 2906 -266 2906 331 
L 2906 616 
Q 2728 306 2450 153 
Q 2172 0 1784 0 
Q 1141 0 747 490 
Q 353 981 353 1791 
Q 353 2603 747 3093 
Q 1141 3584 1784 3584 
Q 2172 3584 2450 3431 
Q 2728 3278 2906 2969 
L 2906 3500 
L 3481 3500 
L 3481 434 
z
" transform="scale(0.015625)"/>
       <path id="DejaVuSans-20" transform="scale(0.015625)"/>
       <path id="DejaVuSans-Oblique-3bd" d="M 959 0 
L 572 3500 
L 1191 3500 
L 1522 563 
Q 1972 950 2391 1488 
Q 2706 1891 2788 2241 
Q 2825 2406 2809 2719 
Q 2794 3091 2544 3500 
L 3125 3500 
L 3125 3500 
Q 3288 3222 3353 2834 
Q 3416 2478 3369 2234 
Q 3250 1622 2719 1075 
Q 2025 363 1572 0 
L 959 0 
z
" transform="scale(0.015625)"/>
      </defs>
      <use xlink:href="#DejaVuSans-6c" transform="translate(0 0.015625)"/>
      <use xlink:href="#DejaVuSans-6f" transform="translate(27.783203 0.015625)"/>
      <use xlink:href="#DejaVuSans-67" transform="translate(88.964844 0.015625)"/>
      <use xlink:href="#DejaVuSans-20" transform="translate(152.441406 0.015625)"/>
      <use xlink:href="#DejaVuSans-Oblique-3bd" transform="translate(184.228516 0.015625)"/>
     </g>
    </g>
    <g id="text_7">
     <!-- 1e25 -->
     <g transform="translate(389.479375 334.860562)scale(0.1 -0.1)">
      <defs>
       <path id="DejaVuSans-31" d="M 794 531 
L 1825 531 
L 1825 4091 
L 703 3866 
L 703 4441 
L 1819 4666 
L 2450 4666 
L 2450 531 
L 3481 531 
L 3481 0 
L 794 0 
L 794 531 
z
" transform="scale(0.015625)"/>
       <path id="DejaVuSans-65" d="M 3597 1894 
L 3597 1613 
L 953 1613 
Q 991 1019 1311 708 
Q 1631 397 2203 397 
Q 2534 397 2845 478 
Q 3156 559 3463 722 
L 3463 178 
Q 3153 47 2828 -22 
Q 2503 -91 2169 -91 
Q 1331 -91 842 396 
Q 353 884 353 1716 
Q 353 2575 817 3079 
Q 1281 3584 2069 3584 
Q 2775 3584 3186 3129 
Q 3597 2675 3597 1894 
z
M 3022 2063 
Q 3016 2534 2758 2815 
Q 2500 3097 2075 3097 
Q 1594 3097 1305 2825 
Q 1016 2553 972 2059 
L 3022 2063 
z
" transform="scale(0.015625)"/>
       <path id="DejaVuSans-35" d="M 691 4666 
L 3169 4666 
L 3169 4134 
L 1269 4134 
L 1269 2991 
Q 1406 3038 1543 3061 
Q 1681 3084 1819 3084 
Q 2600 3084 3056 2656 
Q 3513 2228 3513 1497 
Q 3513 744 3044 326 
Q 2575 -91 1722 -91 
Q 1428 -91 1123 -41 
Q 819 9 494 109 
L 494 744 
Q 775 591 1075 516 
Q 1375 441 1709 441 
Q 2250 441 2565 725 
Q 2881 1009 2881 1497 
Q 2881 1984 2565 2268 
Q 2250 2553 1709 2553 
Q 1456 2553 1204 2497 
Q 953 2441 691 2322 
L 691 4666 
z
" transform="scale(0.015625)"/>
      </defs>
      <use xlink:href="#DejaVuSans-31"/>
      <use xlink:href="#DejaVuSans-65" x="63.623047"/>
      <use xlink:href="#DejaVuSans-32" x="125.146484"/>
      <use xlink:href="#DejaVuSans-35" x="188.769531"/>
     </g>
    </g>
   </g>
   <g id="matplotlib.axis_2">
    <g id="ytick_1">
     <g id="line2d_6">
      <defs>
       <path id="md893c27936" d="M 0 0 
L -3.5 0 
" style="stroke: #000000; stroke-width: 0.8"/>
      </defs>
      <g>
       <use xlink:href="#md893c27936" x="57.6" y="266.012064" style="stroke: #000000; stroke-width: 0.8"/>
      </g>
     </g>
     <g id="text_8">
      <!-- 1 -->
      <g transform="translate(44.2375 269.811283)scale(0.1 -0.1)">
       <use xlink:href="#DejaVuSans-31"/>
      </g>
     </g>
    </g>
    <g id="ytick_2">
     <g id="line2d_7">
      <g>
       <use xlink:href="#md893c27936" x="57.6" y="213.593523" style="stroke: #000000; stroke-width: 0.8"/>
      </g>
     </g>
     <g id="text_9">
      <!-- 2 -->
      <g transform="translate(44.2375 217.392742)scale(0.1 -0.1)">
       <use xlink:href="#DejaVuSans-32"/>
      </g>
     </g>
    </g>
    <g id="ytick_3">
     <g id="line2d_8">
      <g>
       <use xlink:href="#md893c27936" x="57.6" y="161.174981" style="stroke: #000000; stroke-width: 0.8"/>
      </g>
     </g>
     <g id="text_10">
      <!-- 3 -->
      <g transform="translate(44.2375 164.9742)scale(0.1 -0.1)">
       <defs>
        <path id="DejaVuSans-33" d="M 2597 2516 
Q 3050 2419 3304 2112 
Q 3559 1806 3559 1356 
Q 3559 666 3084 287 
Q 2609 -91 1734 -91 
Q 1441 -91 1130 -33 
Q 819 25 488 141 
L 488 750 
Q 750 597 1062 519 
Q 1375 441 1716 441 
Q 2309 441 2620 675 
Q 2931 909 2931 1356 
Q 2931 1769 2642 2001 
Q 2353 2234 1838 2234 
L 1294 2234 
L 1294 2753 
L 1863 2753 
Q 2328 2753 2575 2939 
Q 2822 3125 2822 3475 
Q 2822 3834 2567 4026 
Q 2313 4219 1838 4219 
Q 1578 4219 1281 4162 
Q 984 4106 628 3988 
L 628 4550 
Q 988 4650 1302 4700 
Q 1616 4750 1894 4750 
Q 2613 4750 3031 4423 
Q 3450 4097 3450 3541 
Q 3450 3153 3228 2886 
Q 3006 2619 2597 2516 
z
" transform="scale(0.015625)"/>
       </defs>
       <use xlink:href="#DejaVuSans-33"/>
      </g>
     </g>
    </g>
    <g id="ytick_4">
     <g id="line2d_9">
      <g>
       <use xlink:href="#md893c27936" x="57.6" y="108.75644" style="stroke: #000000; stroke-width: 0.8"/>
      </g>
     </g>
     <g id="text_11">
      <!-- 4 -->
      <g transform="translate(44.2375 112.555659)scale(0.1 -0.1)">
       <use xlink:href="#DejaVuSans-34"/>
      </g>
     </g>
    </g>
    <g id="ytick_5">
     <g id="line2d_10">
      <g>
       <use xlink:href="#md893c27936" x="57.6" y="56.337898" style="stroke: #000000; stroke-width: 0.8"/>
      </g>
     </g>
     <g id="text_12">
      <!-- 5 -->
      <g transform="translate(44.2375 60.137117)scale(0.1 -0.1)">
       <use xlink:href="#DejaVuSans-35"/>
      </g>
     </g>
    </g>
    <g id="text_13">
     <!-- log $\nu F_{\nu}$ -->
     <g transform="translate(38.1375 191.528)rotate(-90)scale(0.1 -0.1)">
      <defs>
       <path id="DejaVuSans-Oblique-46" d="M 1081 4666 
L 3756 4666 
L 3653 4134 
L 1606 4134 
L 1338 2759 
L 3188 2759 
L 3084 2228 
L 1234 2228 
L 800 0 
L 172 0 
L 1081 4666 
z
" transform="scale(0.015625)"/>
      </defs>
      <use xlink:href="#DejaVuSans-6c" transform="translate(0 0.015625)"/>
      <use xlink:href="#DejaVuSans-6f" transform="translate(27.783203 0.015625)"/>
      <use xlink:href="#DejaVuSans-67" transform="translate(88.964844 0.015625)"/>
      <use xlink:href="#DejaVuSans-20" transform="translate(152.441406 0.015625)"/>
      <use xlink:href="#DejaVuSans-Oblique-3bd" transform="translate(184.228516 0.015625)"/>
      <use xlink:href="#DejaVuSans-Oblique-46" transform="translate(240.087891 0.015625)"/>
      <use xlink:href="#DejaVuSans-Oblique-3bd" transform="translate(297.607422 -16.390625)scale(0.7)"/>
     </g>
    </g>
    <g id="text_14">
     <!-- 1e−11 -->
     <g transform="translate(57.6 38.472)scale(0.1 -0.1)">
      <defs>
       <path id="DejaVuSans-2212" d="M 678 2272 
L 4684 2272 
L 4684 1741 
L 678 1741 
L 678 2272 
z
" transform="scale(0.015625)"/>
      </defs>
      <use xlink:href="#DejaVuSans-31"/>
      <use xlink:href="#DejaVuSans-65" x="63.623047"/>
      <use xlink:href="#DejaVuSans-2212" x="125.146484"/>
      <use xlink:href="#DejaVuSans-31" x="208.935547"/>
      <use xlink:href="#DejaVuSans-31" x="272.558594"/>
     </g>
    </g>
   </g>
   <g id="line2d_11">
    <path clip-path="url(#pb4c6d107e9)" style="fill: none; stroke: #008000; stroke-width: 2; stroke-linecap: square"/>
   </g>
   <g id="LineCollection_1">
    <path d="M 73.832727 99.268684 
L 73.832727 63.728913 
" clip-path="url(#pb4c6d107e9)" style="fill: none; stroke: #000000; stroke-width: 1.5"/>
    <path d="M 73.832727 52.825856 
L 73.832727 40.979266 
" clip-path="url(#pb4c6d107e9)" style="fill: none; stroke: #000000; stroke-width: 1.5"/>
    <path d="M 73.832727 55.027435 
L 73.832727 41.922799 
" clip-path="url(#pb4c6d107e9)" style="fill: none; stroke: #000000; stroke-width: 1.5"/>
    <path d="M 73.832727 68.499 
L 73.832727 57.805618 
" clip-path="url(#pb4c6d107e9)" style="fill: none; stroke: #000000; stroke-width: 1.5"/>
    <path d="M 73.832727 78.856904 
L 73.832727 68.41513 
" clip-path="url(#pb4c6d107e9)" style="fill: none; stroke: #000000; stroke-width: 1.5"/>
    <path d="M 73.832728 287.765759 
L 73.832728 276.757865 
" clip-path="url(#pb4c6d107e9)" style="fill: none; stroke: #000000; stroke-width: 1.5"/>
    <path d="M 73.832728 291.539894 
L 73.832728 280.636837 
" clip-path="url(#pb4c6d107e9)" style="fill: none; stroke: #000000; stroke-width: 1.5"/>
    <path d="M 73.832728 283.152927 
L 73.832728 271.830522 
" clip-path="url(#pb4c6d107e9)" style="fill: none; stroke: #000000; stroke-width: 1.5"/>
    <path d="M 73.832728 285.13959 
L 73.832728 275.085714 
" clip-path="url(#pb4c6d107e9)" style="fill: none; stroke: #000000; stroke-width: 1.5"/>
    <path d="M 73.832728 277.386888 
L 73.832728 265.225786 
" clip-path="url(#pb4c6d107e9)" style="fill: none; stroke: #000000; stroke-width: 1.5"/>
    <path d="M 73.832728 287.047625 
L 73.832728 277.266325 
" clip-path="url(#pb4c6d107e9)" style="fill: none; stroke: #000000; stroke-width: 1.5"/>
    <path d="M 73.832729 295.376931 
L 73.832729 288.646391 
" clip-path="url(#pb4c6d107e9)" style="fill: none; stroke: #000000; stroke-width: 1.5"/>
    <path d="M 73.832729 291.403606 
L 73.832729 283.49889 
" clip-path="url(#pb4c6d107e9)" style="fill: none; stroke: #000000; stroke-width: 1.5"/>
    <path d="M 73.832729 292.305205 
L 73.832729 284.484358 
" clip-path="url(#pb4c6d107e9)" style="fill: none; stroke: #000000; stroke-width: 1.5"/>
    <path d="M 73.83273 301.871589 
L 73.83273 296.933762 
" clip-path="url(#pb4c6d107e9)" style="fill: none; stroke: #000000; stroke-width: 1.5"/>
    <path d="M 73.832731 307.485614 
L 73.832731 301.174422 
" clip-path="url(#pb4c6d107e9)" style="fill: none; stroke: #000000; stroke-width: 1.5"/>
    <path d="M 73.991979 224.391742 
L 73.991979 180.779516 
" clip-path="url(#pb4c6d107e9)" style="fill: none; stroke: #000000; stroke-width: 1.5"/>
    <path d="M 74.336326 119.554659 
L 74.336326 82.232658 
" clip-path="url(#pb4c6d107e9)" style="fill: none; stroke: #000000; stroke-width: 1.5"/>
    <path d="M 75.425245 138.058405 
L 75.425245 92.034925 
" clip-path="url(#pb4c6d107e9)" style="fill: none; stroke: #000000; stroke-width: 1.5"/>
    <path d="M 78.868712 149.118717 
L 78.868712 82.022984 
" clip-path="url(#pb4c6d107e9)" style="fill: none; stroke: #000000; stroke-width: 1.5"/>
    <path d="M 89.757909 188.956808 
L 89.757909 68.394163 
" clip-path="url(#pb4c6d107e9)" style="fill: none; stroke: #000000; stroke-width: 1.5"/>
    <path d="M 124.192574 224.601417 
L 124.192574 35.894667 
" clip-path="url(#pb4c6d107e9)" style="fill: none; stroke: #000000; stroke-width: 1.5"/>
    <path d="M 211.564959 196.45266 
L 211.564959 139.526124 
" clip-path="url(#pb4c6d107e9)" style="fill: none; stroke: #000000; stroke-width: 1.5"/>
    <path d="M 228.390725 233.355313 
L 228.390725 191.734991 
" clip-path="url(#pb4c6d107e9)" style="fill: none; stroke: #000000; stroke-width: 1.5"/>
    <path d="M 247.239262 243.89144 
L 247.239262 210.553247 
" clip-path="url(#pb4c6d107e9)" style="fill: none; stroke: #000000; stroke-width: 1.5"/>
    <path d="M 268.294456 237.863308 
L 268.294456 164.162838 
" clip-path="url(#pb4c6d107e9)" style="fill: none; stroke: #000000; stroke-width: 1.5"/>
    <path d="M 292.016028 291.749568 
L 292.016028 258.411376 
" clip-path="url(#pb4c6d107e9)" style="fill: none; stroke: #000000; stroke-width: 1.5"/>
    <path d="M 318.587867 282.995672 
L 318.587867 254.584822 
" clip-path="url(#pb4c6d107e9)" style="fill: none; stroke: #000000; stroke-width: 1.5"/>
    <path d="M 348.469693 292.273754 
L 348.469693 268.790247 
" clip-path="url(#pb4c6d107e9)" style="fill: none; stroke: #000000; stroke-width: 1.5"/>
    <path d="M 398.487273 309.938802 
L 398.487273 298.406723 
" clip-path="url(#pb4c6d107e9)" style="fill: none; stroke: #000000; stroke-width: 1.5"/>
   </g>
   <g id="line2d_12">
    <defs>
     <path id="m586d0abac8" d="M 0 1.5 
C 0.397805 1.5 0.77937 1.341951 1.06066 1.06066 
C 1.341951 0.77937 1.5 0.397805 1.5 0 
C 1.5 -0.397805 1.341951 -0.77937 1.06066 -1.06066 
C 0.77937 -1.341951 0.397805 -1.5 0 -1.5 
C -0.397805 -1.5 -0.77937 -1.341951 -1.06066 -1.06066 
C -1.341951 -0.77937 -1.5 -0.397805 -1.5 0 
C -1.5 0.397805 -1.341951 0.77937 -1.06066 1.06066 
C -0.77937 1.341951 -0.397805 1.5 0 1.5 
z
" style="stroke: #0000ff"/>
    </defs>
    <g clip-path="url(#pb4c6d107e9)">
     <use xlink:href="#m586d0abac8" x="73.832727" y="81.498798" style="fill: #0000ff; stroke: #0000ff"/>
     <use xlink:href="#m586d0abac8" x="73.832727" y="46.902561" style="fill: #0000ff; stroke: #0000ff"/>
     <use xlink:href="#m586d0abac8" x="73.832727" y="48.475117" style="fill: #0000ff; stroke: #0000ff"/>
     <use xlink:href="#m586d0abac8" x="73.832727" y="63.152309" style="fill: #0000ff; stroke: #0000ff"/>
     <use xlink:href="#m586d0abac8" x="73.832727" y="73.636017" style="fill: #0000ff; stroke: #0000ff"/>
     <use xlink:href="#m586d0abac8" x="73.832728" y="282.261812" style="fill: #0000ff; stroke: #0000ff"/>
     <use xlink:href="#m586d0abac8" x="73.832728" y="286.088366" style="fill: #0000ff; stroke: #0000ff"/>
     <use xlink:href="#m586d0abac8" x="73.832728" y="277.491725" style="fill: #0000ff; stroke: #0000ff"/>
     <use xlink:href="#m586d0abac8" x="73.832728" y="280.112652" style="fill: #0000ff; stroke: #0000ff"/>
     <use xlink:href="#m586d0abac8" x="73.832728" y="271.306337" style="fill: #0000ff; stroke: #0000ff"/>
     <use xlink:href="#m586d0abac8" x="73.832728" y="282.156975" style="fill: #0000ff; stroke: #0000ff"/>
     <use xlink:href="#m586d0abac8" x="73.832729" y="292.011661" style="fill: #0000ff; stroke: #0000ff"/>
     <use xlink:href="#m586d0abac8" x="73.832729" y="287.451248" style="fill: #0000ff; stroke: #0000ff"/>
     <use xlink:href="#m586d0abac8" x="73.832729" y="288.394782" style="fill: #0000ff; stroke: #0000ff"/>
     <use xlink:href="#m586d0abac8" x="73.83273" y="299.402675" style="fill: #0000ff; stroke: #0000ff"/>
     <use xlink:href="#m586d0abac8" x="73.832731" y="304.330018" style="fill: #0000ff; stroke: #0000ff"/>
     <use xlink:href="#m586d0abac8" x="73.991979" y="202.585629" style="fill: #0000ff; stroke: #0000ff"/>
     <use xlink:href="#m586d0abac8" x="74.336326" y="100.893659" style="fill: #0000ff; stroke: #0000ff"/>
     <use xlink:href="#m586d0abac8" x="75.425245" y="115.046665" style="fill: #0000ff; stroke: #0000ff"/>
     <use xlink:href="#m586d0abac8" x="78.868712" y="115.57085" style="fill: #0000ff; stroke: #0000ff"/>
     <use xlink:href="#m586d0abac8" x="89.757909" y="128.675486" style="fill: #0000ff; stroke: #0000ff"/>
     <use xlink:href="#m586d0abac8" x="124.192574" y="130.248042" style="fill: #0000ff; stroke: #0000ff"/>
     <use xlink:href="#m586d0abac8" x="211.564959" y="167.989392" style="fill: #0000ff; stroke: #0000ff"/>
     <use xlink:href="#m586d0abac8" x="228.390725" y="212.545152" style="fill: #0000ff; stroke: #0000ff"/>
     <use xlink:href="#m586d0abac8" x="247.239262" y="227.222344" style="fill: #0000ff; stroke: #0000ff"/>
     <use xlink:href="#m586d0abac8" x="268.294456" y="201.013073" style="fill: #0000ff; stroke: #0000ff"/>
     <use xlink:href="#m586d0abac8" x="292.016028" y="275.080472" style="fill: #0000ff; stroke: #0000ff"/>
     <use xlink:href="#m586d0abac8" x="318.587867" y="268.790247" style="fill: #0000ff; stroke: #0000ff"/>
     <use xlink:href="#m586d0abac8" x="348.469693" y="280.532" style="fill: #0000ff; stroke: #0000ff"/>
     <use xlink:href="#m586d0abac8" x="398.487273" y="304.172763" style="fill: #0000ff; stroke: #0000ff"/>
    </g>
   </g>
   <g id="patch_3">
    <path d="M 57.6 307.584 
L 57.6 41.472 
" style="fill: none; stroke: #000000; stroke-width: 0.8; stroke-linejoin: miter; stroke-linecap: square"/>
   </g>
   <g id="patch_4">
    <path d="M 414.72 307.584 
L 414.72 41.472 
" style="fill: none; stroke: #000000; stroke-width: 0.8; stroke-linejoin: miter; stroke-linecap: square"/>
   </g>
   <g id="patch_5">
    <path d="M 57.6 307.584 
L 414.72 307.584 
" style="fill: none; stroke: #000000; stroke-width: 0.8; stroke-linejoin: miter; stroke-linecap: square"/>
   </g>
   <g id="patch_6">
    <path d="M 57.6 41.472 
L 414.72 41.472 
" style="fill: none; stroke: #000000; stroke-width: 0.8; stroke-linejoin: miter; stroke-linecap: square"/>
   </g>
   <g id="text_15">
    <!-- MCMC results with the range from extreme models within 1 sigma -->
    <g transform="translate(37.283437 35.472)scale(0.12 -0.12)">
     <defs>
      <path id="DejaVuSans-4d" d="M 628 4666 
L 1569 4666 
L 2759 1491 
L 3956 4666 
L 4897 4666 
L 4897 0 
L 4281 0 
L 4281 4097 
L 3078 897 
L 2444 897 
L 1241 4097 
L 1241 0 
L 628 0 
L 628 4666 
z
" transform="scale(0.015625)"/>
      <path id="DejaVuSans-43" d="M 4122 4306 
L 4122 3641 
Q 3803 3938 3442 4084 
Q 3081 4231 2675 4231 
Q 1875 4231 1450 3742 
Q 1025 3253 1025 2328 
Q 1025 1406 1450 917 
Q 1875 428 2675 428 
Q 3081 428 3442 575 
Q 3803 722 4122 1019 
L 4122 359 
Q 3791 134 3420 21 
Q 3050 -91 2638 -91 
Q 1578 -91 968 557 
Q 359 1206 359 2328 
Q 359 3453 968 4101 
Q 1578 4750 2638 4750 
Q 3056 4750 3426 4639 
Q 3797 4528 4122 4306 
z
" transform="scale(0.015625)"/>
      <path id="DejaVuSans-72" d="M 2631 2963 
Q 2534 3019 2420 3045 
Q 2306 3072 2169 3072 
Q 1681 3072 1420 2755 
Q 1159 2438 1159 1844 
L 1159 0 
L 581 0 
L 581 3500 
L 1159 3500 
L 1159 2956 
Q 1341 3275 1631 3429 
Q 1922 3584 2338 3584 
Q 2397 3584 2469 3576 
Q 2541 3569 2628 3553 
L 2631 2963 
z
" transform="scale(0.015625)"/>
      <path id="DejaVuSans-73" d="M 2834 3397 
L 2834 2853 
Q 2591 2978 2328 3040 
Q 2066 3103 1784 3103 
Q 1356 3103 1142 2972 
Q 928 2841 928 2578 
Q 928 2378 1081 2264 
Q 1234 2150 1697 2047 
L 1894 2003 
Q 2506 1872 2764 1633 
Q 3022 1394 3022 966 
Q 3022 478 2636 193 
Q 2250 -91 1575 -91 
Q 1294 -91 989 -36 
Q 684 19 347 128 
L 347 722 
Q 666 556 975 473 
Q 1284 391 1588 391 
Q 1994 391 2212 530 
Q 2431 669 2431 922 
Q 2431 1156 2273 1281 
Q 2116 1406 1581 1522 
L 1381 1569 
Q 847 1681 609 1914 
Q 372 2147 372 2553 
Q 372 3047 722 3315 
Q 1072 3584 1716 3584 
Q 2034 3584 2315 3537 
Q 2597 3491 2834 3397 
z
" transform="scale(0.015625)"/>
      <path id="DejaVuSans-75" d="M 544 1381 
L 544 3500 
L 1119 3500 
L 1119 1403 
Q 1119 906 1312 657 
Q 1506 409 1894 409 
Q 2359 409 2629 706 
Q 2900 1003 2900 1516 
L 2900 3500 
L 3475 3500 
L 3475 0 
L 2900 0 
L 2900 538 
Q 2691 219 2414 64 
Q 2138 -91 1772 -91 
Q 1169 -91 856 284 
Q 544 659 544 1381 
z
M 1991 3584 
L 1991 3584 
z
" transform="scale(0.015625)"/>
      <path id="DejaVuSans-74" d="M 1172 4494 
L 1172 3500 
L 2356 3500 
L 2356 3053 
L 1172 3053 
L 1172 1153 
Q 1172 725 1289 603 
Q 1406 481 1766 481 
L 2356 481 
L 2356 0 
L 1766 0 
Q 1100 0 847 248 
Q 594 497 594 1153 
L 594 3053 
L 172 3053 
L 172 3500 
L 594 3500 
L 594 4494 
L 1172 4494 
z
" transform="scale(0.015625)"/>
      <path id="DejaVuSans-77" d="M 269 3500 
L 844 3500 
L 1563 769 
L 2278 3500 
L 2956 3500 
L 3675 769 
L 4391 3500 
L 4966 3500 
L 4050 0 
L 3372 0 
L 2619 2869 
L 1863 0 
L 1184 0 
L 269 3500 
z
" transform="scale(0.015625)"/>
      <path id="DejaVuSans-69" d="M 603 3500 
L 1178 3500 
L 1178 0 
L 603 0 
L 603 3500 
z
M 603 4863 
L 1178 4863 
L 1178 4134 
L 603 4134 
L 603 4863 
z
" transform="scale(0.015625)"/>
      <path id="DejaVuSans-68" d="M 3513 2113 
L 3513 0 
L 2938 0 
L 2938 2094 
Q 2938 2591 2744 2837 
Q 2550 3084 2163 3084 
Q 1697 3084 1428 2787 
Q 1159 2491 1159 1978 
L 1159 0 
L 581 0 
L 581 4863 
L 1159 4863 
L 1159 2956 
Q 1366 3272 1645 3428 
Q 1925 3584 2291 3584 
Q 2894 3584 3203 3211 
Q 3513 2838 3513 2113 
z
" transform="scale(0.015625)"/>
      <path id="DejaVuSans-61" d="M 2194 1759 
Q 1497 1759 1228 1600 
Q 959 1441 959 1056 
Q 959 750 1161 570 
Q 1363 391 1709 391 
Q 2188 391 2477 730 
Q 2766 1069 2766 1631 
L 2766 1759 
L 2194 1759 
z
M 3341 1997 
L 3341 0 
L 2766 0 
L 2766 531 
Q 2569 213 2275 61 
Q 1981 -91 1556 -91 
Q 1019 -91 701 211 
Q 384 513 384 1019 
Q 384 1609 779 1909 
Q 1175 2209 1959 2209 
L 2766 2209 
L 2766 2266 
Q 2766 2663 2505 2880 
Q 2244 3097 1772 3097 
Q 1472 3097 1187 3025 
Q 903 2953 641 2809 
L 641 3341 
Q 956 3463 1253 3523 
Q 1550 3584 1831 3584 
Q 2591 3584 2966 3190 
Q 3341 2797 3341 1997 
z
" transform="scale(0.015625)"/>
      <path id="DejaVuSans-6e" d="M 3513 2113 
L 3513 0 
L 2938 0 
L 2938 2094 
Q 2938 2591 2744 2837 
Q 2550 3084 2163 3084 
Q 1697 3084 1428 2787 
Q 1159 2491 1159 1978 
L 1159 0 
L 581 0 
L 581 3500 
L 1159 3500 
L 1159 2956 
Q 1366 3272 1645 3428 
Q 1925 3584 2291 3584 
Q 2894 3584 3203 3211 
Q 3513 2838 3513 2113 
z
" transform="scale(0.015625)"/>
      <path id="DejaVuSans-66" d="M 2375 4863 
L 2375 4384 
L 1825 4384 
Q 1516 4384 1395 4259 
Q 1275 4134 1275 3809 
L 1275 3500 
L 2222 3500 
L 2222 3053 
L 1275 3053 
L 1275 0 
L 697 0 
L 697 3053 
L 147 3053 
L 147 3500 
L 697 3500 
L 697 3744 
Q 697 4328 969 4595 
Q 1241 4863 1831 4863 
L 2375 4863 
z
" transform="scale(0.015625)"/>
      <path id="DejaVuSans-6d" d="M 3328 2828 
Q 3544 3216 3844 3400 
Q 4144 3584 4550 3584 
Q 5097 3584 5394 3201 
Q 5691 2819 5691 2113 
L 5691 0 
L 5113 0 
L 5113 2094 
Q 5113 2597 4934 2840 
Q 4756 3084 4391 3084 
Q 3944 3084 3684 2787 
Q 3425 2491 3425 1978 
L 3425 0 
L 2847 0 
L 2847 2094 
Q 2847 2600 2669 2842 
Q 2491 3084 2119 3084 
Q 1678 3084 1418 2786 
Q 1159 2488 1159 1978 
L 1159 0 
L 581 0 
L 581 3500 
L 1159 3500 
L 1159 2956 
Q 1356 3278 1631 3431 
Q 1906 3584 2284 3584 
Q 2666 3584 2933 3390 
Q 3200 3197 3328 2828 
z
" transform="scale(0.015625)"/>
      <path id="DejaVuSans-78" d="M 3513 3500 
L 2247 1797 
L 3578 0 
L 2900 0 
L 1881 1375 
L 863 0 
L 184 0 
L 1544 1831 
L 300 3500 
L 978 3500 
L 1906 2253 
L 2834 3500 
L 3513 3500 
z
" transform="scale(0.015625)"/>
      <path id="DejaVuSans-64" d="M 2906 2969 
L 2906 4863 
L 3481 4863 
L 3481 0 
L 2906 0 
L 2906 525 
Q 2725 213 2448 61 
Q 2172 -91 1784 -91 
Q 1150 -91 751 415 
Q 353 922 353 1747 
Q 353 2572 751 3078 
Q 1150 3584 1784 3584 
Q 2172 3584 2448 3432 
Q 2725 3281 2906 2969 
z
M 947 1747 
Q 947 1113 1208 752 
Q 1469 391 1925 391 
Q 2381 391 2643 752 
Q 2906 1113 2906 1747 
Q 2906 2381 2643 2742 
Q 2381 3103 1925 3103 
Q 1469 3103 1208 2742 
Q 947 2381 947 1747 
z
" transform="scale(0.015625)"/>
     </defs>
     <use xlink:href="#DejaVuSans-4d"/>
     <use xlink:href="#DejaVuSans-43" x="86.279297"/>
     <use xlink:href="#DejaVuSans-4d" x="156.103516"/>
     <use xlink:href="#DejaVuSans-43" x="242.382812"/>
     <use xlink:href="#DejaVuSans-20" x="312.207031"/>
     <use xlink:href="#DejaVuSans-72" x="343.994141"/>
     <use xlink:href="#DejaVuSans-65" x="382.857422"/>
     <use xlink:href="#DejaVuSans-73" x="444.380859"/>
     <use xlink:href="#DejaVuSans-75" x="496.480469"/>
     <use xlink:href="#DejaVuSans-6c" x="559.859375"/>
     <use xlink:href="#DejaVuSans-74" x="587.642578"/>
     <use xlink:href="#DejaVuSans-73" x="626.851562"/>
     <use xlink:href="#DejaVuSans-20" x="678.951172"/>
     <use xlink:href="#DejaVuSans-77" x="710.738281"/>
     <use xlink:href="#DejaVuSans-69" x="792.525391"/>
     <use xlink:href="#DejaVuSans-74" x="820.308594"/>
     <use xlink:href="#DejaVuSans-68" x="859.517578"/>
     <use xlink:href="#DejaVuSans-20" x="922.896484"/>
     <use xlink:href="#DejaVuSans-74" x="954.683594"/>
     <use xlink:href="#DejaVuSans-68" x="993.892578"/>
     <use xlink:href="#DejaVuSans-65" x="1057.271484"/>
     <use xlink:href="#DejaVuSans-20" x="1118.794922"/>
     <use xlink:href="#DejaVuSans-72" x="1150.582031"/>
     <use xlink:href="#DejaVuSans-61" x="1191.695312"/>
     <use xlink:href="#DejaVuSans-6e" x="1252.974609"/>
     <use xlink:href="#DejaVuSans-67" x="1316.353516"/>
     <use xlink:href="#DejaVuSans-65" x="1379.830078"/>
     <use xlink:href="#DejaVuSans-20" x="1441.353516"/>
     <use xlink:href="#DejaVuSans-66" x="1473.140625"/>
     <use xlink:href="#DejaVuSans-72" x="1508.345703"/>
     <use xlink:href="#DejaVuSans-6f" x="1547.208984"/>
     <use xlink:href="#DejaVuSans-6d" x="1608.390625"/>
     <use xlink:href="#DejaVuSans-20" x="1705.802734"/>
     <use xlink:href="#DejaVuSans-65" x="1737.589844"/>
     <use xlink:href="#DejaVuSans-78" x="1797.363281"/>
     <use xlink:href="#DejaVuSans-74" x="1856.542969"/>
     <use xlink:href="#DejaVuSans-72" x="1895.751953"/>
     <use xlink:href="#DejaVuSans-65" x="1934.615234"/>
     <use xlink:href="#DejaVuSans-6d" x="1996.138672"/>
     <use xlink:href="#DejaVuSans-65" x="2093.550781"/>
     <use xlink:href="#DejaVuSans-20" x="2155.074219"/>
     <use xlink:href="#DejaVuSans-6d" x="2186.861328"/>
     <use xlink:href="#DejaVuSans-6f" x="2284.273438"/>
     <use xlink:href="#DejaVuSans-64" x="2345.455078"/>
     <use xlink:href="#DejaVuSans-65" x="2408.931641"/>
     <use xlink:href="#DejaVuSans-6c" x="2470.455078"/>
     <use xlink:href="#DejaVuSans-73" x="2498.238281"/>
     <use xlink:href="#DejaVuSans-20" x="2550.337891"/>
     <use xlink:href="#DejaVuSans-77" x="2582.125"/>
     <use xlink:href="#DejaVuSans-69" x="2663.912109"/>
     <use xlink:href="#DejaVuSans-74" x="2691.695312"/>
     <use xlink:href="#DejaVuSans-68" x="2730.904297"/>
     <use xlink:href="#DejaVuSans-69" x="2794.283203"/>
     <use xlink:href="#DejaVuSans-6e" x="2822.066406"/>
     <use xlink:href="#DejaVuSans-20" x="2885.445312"/>
     <use xlink:href="#DejaVuSans-31" x="2917.232422"/>
     <use xlink:href="#DejaVuSans-20" x="2980.855469"/>
     <use xlink:href="#DejaVuSans-73" x="3012.642578"/>
     <use xlink:href="#DejaVuSans-69" x="3064.742188"/>
     <use xlink:href="#DejaVuSans-67" x="3092.525391"/>
     <use xlink:href="#DejaVuSans-6d" x="3156.001953"/>
     <use xlink:href="#DejaVuSans-61" x="3253.414062"/>
    </g>
   </g>
   <g id="legend_1">
    <g id="patch_7">
     <path d="M 300.9825 93.506375 
L 407.72 93.506375 
Q 409.72 93.506375 409.72 91.506375 
L 409.72 48.472 
Q 409.72 46.472 407.72 46.472 
L 300.9825 46.472 
Q 298.9825 46.472 298.9825 48.472 
L 298.9825 91.506375 
Q 298.9825 93.506375 300.9825 93.506375 
z
" style="fill: #ffffff; opacity: 0.8; stroke: #cccccc; stroke-linejoin: miter"/>
    </g>
    <g id="patch_8">
     <path d="M 302.9825 58.070438 
L 322.9825 58.070438 
L 322.9825 51.070438 
L 302.9825 51.070438 
z
" style="fill: #1f77b4; fill-opacity: 0.5"/>
    </g>
    <g id="text_16">
     <!-- Within 1 sigma -->
     <g transform="translate(330.9825 58.070438)scale(0.1 -0.1)">
      <defs>
       <path id="DejaVuSans-57" d="M 213 4666 
L 850 4666 
L 1831 722 
L 2809 4666 
L 3519 4666 
L 4500 722 
L 5478 4666 
L 6119 4666 
L 4947 0 
L 4153 0 
L 3169 4050 
L 2175 0 
L 1381 0 
L 213 4666 
z
" transform="scale(0.015625)"/>
      </defs>
      <use xlink:href="#DejaVuSans-57"/>
      <use xlink:href="#DejaVuSans-69" x="96.626953"/>
      <use xlink:href="#DejaVuSans-74" x="124.410156"/>
      <use xlink:href="#DejaVuSans-68" x="163.619141"/>
      <use xlink:href="#DejaVuSans-69" x="226.998047"/>
      <use xlink:href="#DejaVuSans-6e" x="254.78125"/>
      <use xlink:href="#DejaVuSans-20" x="318.160156"/>
      <use xlink:href="#DejaVuSans-31" x="349.947266"/>
      <use xlink:href="#DejaVuSans-20" x="413.570312"/>
      <use xlink:href="#DejaVuSans-73" x="445.357422"/>
      <use xlink:href="#DejaVuSans-69" x="497.457031"/>
      <use xlink:href="#DejaVuSans-67" x="525.240234"/>
      <use xlink:href="#DejaVuSans-6d" x="588.716797"/>
      <use xlink:href="#DejaVuSans-61" x="686.128906"/>
     </g>
    </g>
    <g id="line2d_13">
     <path d="M 302.9825 69.248563 
L 312.9825 69.248563 
L 322.9825 69.248563 
" style="fill: none; stroke: #008000; stroke-width: 2; stroke-linecap: square"/>
    </g>
    <g id="text_17">
     <!-- Best model -->
     <g transform="translate(330.9825 72.748563)scale(0.1 -0.1)">
      <defs>
       <path id="DejaVuSans-42" d="M 1259 2228 
L 1259 519 
L 2272 519 
Q 2781 519 3026 730 
Q 3272 941 3272 1375 
Q 3272 1813 3026 2020 
Q 2781 2228 2272 2228 
L 1259 2228 
z
M 1259 4147 
L 1259 2741 
L 2194 2741 
Q 2656 2741 2882 2914 
Q 3109 3088 3109 3444 
Q 3109 3797 2882 3972 
Q 2656 4147 2194 4147 
L 1259 4147 
z
M 628 4666 
L 2241 4666 
Q 2963 4666 3353 4366 
Q 3744 4066 3744 3513 
Q 3744 3084 3544 2831 
Q 3344 2578 2956 2516 
Q 3422 2416 3680 2098 
Q 3938 1781 3938 1306 
Q 3938 681 3513 340 
Q 3088 0 2303 0 
L 628 0 
L 628 4666 
z
" transform="scale(0.015625)"/>
      </defs>
      <use xlink:href="#DejaVuSans-42"/>
      <use xlink:href="#DejaVuSans-65" x="68.603516"/>
      <use xlink:href="#DejaVuSans-73" x="130.126953"/>
      <use xlink:href="#DejaVuSans-74" x="182.226562"/>
      <use xlink:href="#DejaVuSans-20" x="221.435547"/>
      <use xlink:href="#DejaVuSans-6d" x="253.222656"/>
      <use xlink:href="#DejaVuSans-6f" x="350.634766"/>
      <use xlink:href="#DejaVuSans-64" x="411.816406"/>
      <use xlink:href="#DejaVuSans-65" x="475.292969"/>
      <use xlink:href="#DejaVuSans-6c" x="536.816406"/>
     </g>
    </g>
    <g id="LineCollection_2">
     <path d="M 312.9825 88.926688 
L 312.9825 78.926688 
" style="fill: none; stroke: #000000; stroke-width: 1.5"/>
    </g>
    <g id="line2d_14"/>
    <g id="line2d_15">
     <g>
      <use xlink:href="#m586d0abac8" x="312.9825" y="83.926688" style="fill: #0000ff; stroke: #0000ff"/>
     </g>
    </g>
    <g id="text_18">
     <!-- Data -->
     <g transform="translate(330.9825 87.426688)scale(0.1 -0.1)">
      <defs>
       <path id="DejaVuSans-44" d="M 1259 4147 
L 1259 519 
L 2022 519 
Q 2988 519 3436 956 
Q 3884 1394 3884 2338 
Q 3884 3275 3436 3711 
Q 2988 4147 2022 4147 
L 1259 4147 
z
M 628 4666 
L 1925 4666 
Q 3281 4666 3915 4102 
Q 4550 3538 4550 2338 
Q 4550 1131 3912 565 
Q 3275 0 1925 0 
L 628 0 
L 628 4666 
z
" transform="scale(0.015625)"/>
      </defs>
      <use xlink:href="#DejaVuSans-44"/>
      <use xlink:href="#DejaVuSans-61" x="77.001953"/>
      <use xlink:href="#DejaVuSans-74" x="138.28125"/>
      <use xlink:href="#DejaVuSans-61" x="177.490234"/>
     </g>
    </g>
   </g>
  </g>
 </g>
 <defs>
  <clipPath id="pb4c6d107e9">
   <rect x="57.6" y="41.472" width="357.12" height="266.112"/>
  </clipPath>
 </defs>
</svg>
