<?xml version="1.0" encoding="utf-8" standalone="no"?>
<!DOCTYPE svg PUBLIC "-//W3C//DTD SVG 1.1//EN"
  "http://www.w3.org/Graphics/SVG/1.1/DTD/svg11.dtd">
<svg xmlns:xlink="http://www.w3.org/1999/xlink" width="460.8pt" height="345.6pt" viewBox="0 0 460.8 345.6" xmlns="http://www.w3.org/2000/svg" version="1.1">
 <metadata>
  <rdf:RDF xmlns:dc="http://purl.org/dc/elements/1.1/" xmlns:cc="http://creativecommons.org/ns#" xmlns:rdf="http://www.w3.org/1999/02/22-rdf-syntax-ns#">
   <cc:Work>
    <dc:type rdf:resource="http://purl.org/dc/dcmitype/StillImage"/>
    <dc:date>2022-07-23T14:20:31.780356</dc:date>
    <dc:format>image/svg+xml</dc:format>
    <dc:creator>
     <cc:Agent>
      <dc:title>Matplotlib v3.5.0, https://matplotlib.org/</dc:title>
     </cc:Agent>
    </dc:creator>
   </cc:Work>
  </rdf:RDF>
 </metadata>
 <defs>
  <style type="text/css">*{stroke-linejoin: round; stroke-linecap: butt}</style>
 </defs>
 <g id="figure_1">
  <g id="patch_1">
   <path d="M 0 345.6 
L 460.8 345.6 
L 460.8 0 
L 0 0 
z
" style="fill: #ffffff"/>
  </g>
  <g id="axes_1">
   <g id="patch_2">
    <path d="M 57.6 307.584 
L 414.72 307.584 
L 414.72 41.472 
L 57.6 41.472 
z
" style="fill: #ffffff"/>
   </g>
   <g id="matplotlib.axis_1">
    <g id="xtick_1">
     <g id="line2d_1">
      <defs>
       <path id="m9962509059" d="M 0 0 
L 0 3.5 
" style="stroke: #000000; stroke-width: 0.8"/>
      </defs>
      <g>
       <use xlink:href="#m9962509059" x="81.408" y="307.584" style="stroke: #000000; stroke-width: 0.8"/>
      </g>
     </g>
     <g id="text_1">
      <!-- 1000 -->
      <g transform="translate(68.683 322.182437)scale(0.1 -0.1)">
       <defs>
        <path id="DejaVuSans-31" d="M 794 531 
L 1825 531 
L 1825 4091 
L 703 3866 
L 703 4441 
L 1819 4666 
L 2450 4666 
L 2450 531 
L 3481 531 
L 3481 0 
L 794 0 
L 794 531 
z
" transform="scale(0.015625)"/>
        <path id="DejaVuSans-30" d="M 2034 4250 
Q 1547 4250 1301 3770 
Q 1056 3291 1056 2328 
Q 1056 1369 1301 889 
Q 1547 409 2034 409 
Q 2525 409 2770 889 
Q 3016 1369 3016 2328 
Q 3016 3291 2770 3770 
Q 2525 4250 2034 4250 
z
M 2034 4750 
Q 2819 4750 3233 4129 
Q 3647 3509 3647 2328 
Q 3647 1150 3233 529 
Q 2819 -91 2034 -91 
Q 1250 -91 836 529 
Q 422 1150 422 2328 
Q 422 3509 836 4129 
Q 1250 4750 2034 4750 
z
" transform="scale(0.015625)"/>
       </defs>
       <use xlink:href="#DejaVuSans-31"/>
       <use xlink:href="#DejaVuSans-30" x="63.623047"/>
       <use xlink:href="#DejaVuSans-30" x="127.246094"/>
       <use xlink:href="#DejaVuSans-30" x="190.869141"/>
      </g>
     </g>
    </g>
    <g id="xtick_2">
     <g id="line2d_2">
      <g>
       <use xlink:href="#m9962509059" x="129.024" y="307.584" style="stroke: #000000; stroke-width: 0.8"/>
      </g>
     </g>
     <g id="text_2">
      <!-- 2000 -->
      <g transform="translate(116.299 322.182437)scale(0.1 -0.1)">
       <defs>
        <path id="DejaVuSans-32" d="M 1228 531 
L 3431 531 
L 3431 0 
L 469 0 
L 469 531 
Q 828 903 1448 1529 
Q 2069 2156 2228 2338 
Q 2531 2678 2651 2914 
Q 2772 3150 2772 3378 
Q 2772 3750 2511 3984 
Q 2250 4219 1831 4219 
Q 1534 4219 1204 4116 
Q 875 4013 500 3803 
L 500 4441 
Q 881 4594 1212 4672 
Q 1544 4750 1819 4750 
Q 2544 4750 2975 4387 
Q 3406 4025 3406 3419 
Q 3406 3131 3298 2873 
Q 3191 2616 2906 2266 
Q 2828 2175 2409 1742 
Q 1991 1309 1228 531 
z
" transform="scale(0.015625)"/>
       </defs>
       <use xlink:href="#DejaVuSans-32"/>
       <use xlink:href="#DejaVuSans-30" x="63.623047"/>
       <use xlink:href="#DejaVuSans-30" x="127.246094"/>
       <use xlink:href="#DejaVuSans-30" x="190.869141"/>
      </g>
     </g>
    </g>
    <g id="xtick_3">
     <g id="line2d_3">
      <g>
       <use xlink:href="#m9962509059" x="176.64" y="307.584" style="stroke: #000000; stroke-width: 0.8"/>
      </g>
     </g>
     <g id="text_3">
      <!-- 3000 -->
      <g transform="translate(163.915 322.182437)scale(0.1 -0.1)">
       <defs>
        <path id="DejaVuSans-33" d="M 2597 2516 
Q 3050 2419 3304 2112 
Q 3559 1806 3559 1356 
Q 3559 666 3084 287 
Q 2609 -91 1734 -91 
Q 1441 -91 1130 -33 
Q 819 25 488 141 
L 488 750 
Q 750 597 1062 519 
Q 1375 441 1716 441 
Q 2309 441 2620 675 
Q 2931 909 2931 1356 
Q 2931 1769 2642 2001 
Q 2353 2234 1838 2234 
L 1294 2234 
L 1294 2753 
L 1863 2753 
Q 2328 2753 2575 2939 
Q 2822 3125 2822 3475 
Q 2822 3834 2567 4026 
Q 2313 4219 1838 4219 
Q 1578 4219 1281 4162 
Q 984 4106 628 3988 
L 628 4550 
Q 988 4650 1302 4700 
Q 1616 4750 1894 4750 
Q 2613 4750 3031 4423 
Q 3450 4097 3450 3541 
Q 3450 3153 3228 2886 
Q 3006 2619 2597 2516 
z
" transform="scale(0.015625)"/>
       </defs>
       <use xlink:href="#DejaVuSans-33"/>
       <use xlink:href="#DejaVuSans-30" x="63.623047"/>
       <use xlink:href="#DejaVuSans-30" x="127.246094"/>
       <use xlink:href="#DejaVuSans-30" x="190.869141"/>
      </g>
     </g>
    </g>
    <g id="xtick_4">
     <g id="line2d_4">
      <g>
       <use xlink:href="#m9962509059" x="224.256" y="307.584" style="stroke: #000000; stroke-width: 0.8"/>
      </g>
     </g>
     <g id="text_4">
      <!-- 4000 -->
      <g transform="translate(211.531 322.182437)scale(0.1 -0.1)">
       <defs>
        <path id="DejaVuSans-34" d="M 2419 4116 
L 825 1625 
L 2419 1625 
L 2419 4116 
z
M 2253 4666 
L 3047 4666 
L 3047 1625 
L 3713 1625 
L 3713 1100 
L 3047 1100 
L 3047 0 
L 2419 0 
L 2419 1100 
L 313 1100 
L 313 1709 
L 2253 4666 
z
" transform="scale(0.015625)"/>
       </defs>
       <use xlink:href="#DejaVuSans-34"/>
       <use xlink:href="#DejaVuSans-30" x="63.623047"/>
       <use xlink:href="#DejaVuSans-30" x="127.246094"/>
       <use xlink:href="#DejaVuSans-30" x="190.869141"/>
      </g>
     </g>
    </g>
    <g id="xtick_5">
     <g id="line2d_5">
      <g>
       <use xlink:href="#m9962509059" x="271.872" y="307.584" style="stroke: #000000; stroke-width: 0.8"/>
      </g>
     </g>
     <g id="text_5">
      <!-- 5000 -->
      <g transform="translate(259.147 322.182437)scale(0.1 -0.1)">
       <defs>
        <path id="DejaVuSans-35" d="M 691 4666 
L 3169 4666 
L 3169 4134 
L 1269 4134 
L 1269 2991 
Q 1406 3038 1543 3061 
Q 1681 3084 1819 3084 
Q 2600 3084 3056 2656 
Q 3513 2228 3513 1497 
Q 3513 744 3044 326 
Q 2575 -91 1722 -91 
Q 1428 -91 1123 -41 
Q 819 9 494 109 
L 494 744 
Q 775 591 1075 516 
Q 1375 441 1709 441 
Q 2250 441 2565 725 
Q 2881 1009 2881 1497 
Q 2881 1984 2565 2268 
Q 2250 2553 1709 2553 
Q 1456 2553 1204 2497 
Q 953 2441 691 2322 
L 691 4666 
z
" transform="scale(0.015625)"/>
       </defs>
       <use xlink:href="#DejaVuSans-35"/>
       <use xlink:href="#DejaVuSans-30" x="63.623047"/>
       <use xlink:href="#DejaVuSans-30" x="127.246094"/>
       <use xlink:href="#DejaVuSans-30" x="190.869141"/>
      </g>
     </g>
    </g>
    <g id="xtick_6">
     <g id="line2d_6">
      <g>
       <use xlink:href="#m9962509059" x="319.488" y="307.584" style="stroke: #000000; stroke-width: 0.8"/>
      </g>
     </g>
     <g id="text_6">
      <!-- 6000 -->
      <g transform="translate(306.763 322.182437)scale(0.1 -0.1)">
       <defs>
        <path id="DejaVuSans-36" d="M 2113 2584 
Q 1688 2584 1439 2293 
Q 1191 2003 1191 1497 
Q 1191 994 1439 701 
Q 1688 409 2113 409 
Q 2538 409 2786 701 
Q 3034 994 3034 1497 
Q 3034 2003 2786 2293 
Q 2538 2584 2113 2584 
z
M 3366 4563 
L 3366 3988 
Q 3128 4100 2886 4159 
Q 2644 4219 2406 4219 
Q 1781 4219 1451 3797 
Q 1122 3375 1075 2522 
Q 1259 2794 1537 2939 
Q 1816 3084 2150 3084 
Q 2853 3084 3261 2657 
Q 3669 2231 3669 1497 
Q 3669 778 3244 343 
Q 2819 -91 2113 -91 
Q 1303 -91 875 529 
Q 447 1150 447 2328 
Q 447 3434 972 4092 
Q 1497 4750 2381 4750 
Q 2619 4750 2861 4703 
Q 3103 4656 3366 4563 
z
" transform="scale(0.015625)"/>
       </defs>
       <use xlink:href="#DejaVuSans-36"/>
       <use xlink:href="#DejaVuSans-30" x="63.623047"/>
       <use xlink:href="#DejaVuSans-30" x="127.246094"/>
       <use xlink:href="#DejaVuSans-30" x="190.869141"/>
      </g>
     </g>
    </g>
    <g id="xtick_7">
     <g id="line2d_7">
      <g>
       <use xlink:href="#m9962509059" x="367.104" y="307.584" style="stroke: #000000; stroke-width: 0.8"/>
      </g>
     </g>
     <g id="text_7">
      <!-- 7000 -->
      <g transform="translate(354.379 322.182437)scale(0.1 -0.1)">
       <defs>
        <path id="DejaVuSans-37" d="M 525 4666 
L 3525 4666 
L 3525 4397 
L 1831 0 
L 1172 0 
L 2766 4134 
L 525 4134 
L 525 4666 
z
" transform="scale(0.015625)"/>
       </defs>
       <use xlink:href="#DejaVuSans-37"/>
       <use xlink:href="#DejaVuSans-30" x="63.623047"/>
       <use xlink:href="#DejaVuSans-30" x="127.246094"/>
       <use xlink:href="#DejaVuSans-30" x="190.869141"/>
      </g>
     </g>
    </g>
    <g id="xtick_8">
     <g id="line2d_8">
      <g>
       <use xlink:href="#m9962509059" x="414.72" y="307.584" style="stroke: #000000; stroke-width: 0.8"/>
      </g>
     </g>
     <g id="text_8">
      <!-- 8000 -->
      <g transform="translate(401.995 322.182437)scale(0.1 -0.1)">
       <defs>
        <path id="DejaVuSans-38" d="M 2034 2216 
Q 1584 2216 1326 1975 
Q 1069 1734 1069 1313 
Q 1069 891 1326 650 
Q 1584 409 2034 409 
Q 2484 409 2743 651 
Q 3003 894 3003 1313 
Q 3003 1734 2745 1975 
Q 2488 2216 2034 2216 
z
M 1403 2484 
Q 997 2584 770 2862 
Q 544 3141 544 3541 
Q 544 4100 942 4425 
Q 1341 4750 2034 4750 
Q 2731 4750 3128 4425 
Q 3525 4100 3525 3541 
Q 3525 3141 3298 2862 
Q 3072 2584 2669 2484 
Q 3125 2378 3379 2068 
Q 3634 1759 3634 1313 
Q 3634 634 3220 271 
Q 2806 -91 2034 -91 
Q 1263 -91 848 271 
Q 434 634 434 1313 
Q 434 1759 690 2068 
Q 947 2378 1403 2484 
z
M 1172 3481 
Q 1172 3119 1398 2916 
Q 1625 2713 2034 2713 
Q 2441 2713 2670 2916 
Q 2900 3119 2900 3481 
Q 2900 3844 2670 4047 
Q 2441 4250 2034 4250 
Q 1625 4250 1398 4047 
Q 1172 3844 1172 3481 
z
" transform="scale(0.015625)"/>
       </defs>
       <use xlink:href="#DejaVuSans-38"/>
       <use xlink:href="#DejaVuSans-30" x="63.623047"/>
       <use xlink:href="#DejaVuSans-30" x="127.246094"/>
       <use xlink:href="#DejaVuSans-30" x="190.869141"/>
      </g>
     </g>
    </g>
    <g id="text_9">
     <!-- step -->
     <g transform="translate(225.344375 335.860562)scale(0.1 -0.1)">
      <defs>
       <path id="DejaVuSans-73" d="M 2834 3397 
L 2834 2853 
Q 2591 2978 2328 3040 
Q 2066 3103 1784 3103 
Q 1356 3103 1142 2972 
Q 928 2841 928 2578 
Q 928 2378 1081 2264 
Q 1234 2150 1697 2047 
L 1894 2003 
Q 2506 1872 2764 1633 
Q 3022 1394 3022 966 
Q 3022 478 2636 193 
Q 2250 -91 1575 -91 
Q 1294 -91 989 -36 
Q 684 19 347 128 
L 347 722 
Q 666 556 975 473 
Q 1284 391 1588 391 
Q 1994 391 2212 530 
Q 2431 669 2431 922 
Q 2431 1156 2273 1281 
Q 2116 1406 1581 1522 
L 1381 1569 
Q 847 1681 609 1914 
Q 372 2147 372 2553 
Q 372 3047 722 3315 
Q 1072 3584 1716 3584 
Q 2034 3584 2315 3537 
Q 2597 3491 2834 3397 
z
" transform="scale(0.015625)"/>
       <path id="DejaVuSans-74" d="M 1172 4494 
L 1172 3500 
L 2356 3500 
L 2356 3053 
L 1172 3053 
L 1172 1153 
Q 1172 725 1289 603 
Q 1406 481 1766 481 
L 2356 481 
L 2356 0 
L 1766 0 
Q 1100 0 847 248 
Q 594 497 594 1153 
L 594 3053 
L 172 3053 
L 172 3500 
L 594 3500 
L 594 4494 
L 1172 4494 
z
" transform="scale(0.015625)"/>
       <path id="DejaVuSans-65" d="M 3597 1894 
L 3597 1613 
L 953 1613 
Q 991 1019 1311 708 
Q 1631 397 2203 397 
Q 2534 397 2845 478 
Q 3156 559 3463 722 
L 3463 178 
Q 3153 47 2828 -22 
Q 2503 -91 2169 -91 
Q 1331 -91 842 396 
Q 353 884 353 1716 
Q 353 2575 817 3079 
Q 1281 3584 2069 3584 
Q 2775 3584 3186 3129 
Q 3597 2675 3597 1894 
z
M 3022 2063 
Q 3016 2534 2758 2815 
Q 2500 3097 2075 3097 
Q 1594 3097 1305 2825 
Q 1016 2553 972 2059 
L 3022 2063 
z
" transform="scale(0.015625)"/>
       <path id="DejaVuSans-70" d="M 1159 525 
L 1159 -1331 
L 581 -1331 
L 581 3500 
L 1159 3500 
L 1159 2969 
Q 1341 3281 1617 3432 
Q 1894 3584 2278 3584 
Q 2916 3584 3314 3078 
Q 3713 2572 3713 1747 
Q 3713 922 3314 415 
Q 2916 -91 2278 -91 
Q 1894 -91 1617 61 
Q 1341 213 1159 525 
z
M 3116 1747 
Q 3116 2381 2855 2742 
Q 2594 3103 2138 3103 
Q 1681 3103 1420 2742 
Q 1159 2381 1159 1747 
Q 1159 1113 1420 752 
Q 1681 391 2138 391 
Q 2594 391 2855 752 
Q 3116 1113 3116 1747 
z
" transform="scale(0.015625)"/>
      </defs>
      <use xlink:href="#DejaVuSans-73"/>
      <use xlink:href="#DejaVuSans-74" x="52.099609"/>
      <use xlink:href="#DejaVuSans-65" x="91.308594"/>
      <use xlink:href="#DejaVuSans-70" x="152.832031"/>
     </g>
    </g>
   </g>
   <g id="matplotlib.axis_2">
    <g id="ytick_1">
     <g id="line2d_9">
      <defs>
       <path id="m0a0073c5c6" d="M 0 0 
L -3.5 0 
" style="stroke: #000000; stroke-width: 0.8"/>
      </defs>
      <g>
       <use xlink:href="#m0a0073c5c6" x="57.6" y="305.131729" style="stroke: #000000; stroke-width: 0.8"/>
      </g>
     </g>
     <g id="text_10">
      <!-- 0 -->
      <g transform="translate(44.2375 308.930947)scale(0.1 -0.1)">
       <use xlink:href="#DejaVuSans-30"/>
      </g>
     </g>
    </g>
    <g id="ytick_2">
     <g id="line2d_10">
      <g>
       <use xlink:href="#m0a0073c5c6" x="57.6" y="270.860426" style="stroke: #000000; stroke-width: 0.8"/>
      </g>
     </g>
     <g id="text_11">
      <!-- 500 -->
      <g transform="translate(31.5125 274.659645)scale(0.1 -0.1)">
       <use xlink:href="#DejaVuSans-35"/>
       <use xlink:href="#DejaVuSans-30" x="63.623047"/>
       <use xlink:href="#DejaVuSans-30" x="127.246094"/>
      </g>
     </g>
    </g>
    <g id="ytick_3">
     <g id="line2d_11">
      <g>
       <use xlink:href="#m0a0073c5c6" x="57.6" y="236.589124" style="stroke: #000000; stroke-width: 0.8"/>
      </g>
     </g>
     <g id="text_12">
      <!-- 1000 -->
      <g transform="translate(25.15 240.388343)scale(0.1 -0.1)">
       <use xlink:href="#DejaVuSans-31"/>
       <use xlink:href="#DejaVuSans-30" x="63.623047"/>
       <use xlink:href="#DejaVuSans-30" x="127.246094"/>
       <use xlink:href="#DejaVuSans-30" x="190.869141"/>
      </g>
     </g>
    </g>
    <g id="ytick_4">
     <g id="line2d_12">
      <g>
       <use xlink:href="#m0a0073c5c6" x="57.6" y="202.317822" style="stroke: #000000; stroke-width: 0.8"/>
      </g>
     </g>
     <g id="text_13">
      <!-- 1500 -->
      <g transform="translate(25.15 206.117041)scale(0.1 -0.1)">
       <use xlink:href="#DejaVuSans-31"/>
       <use xlink:href="#DejaVuSans-35" x="63.623047"/>
       <use xlink:href="#DejaVuSans-30" x="127.246094"/>
       <use xlink:href="#DejaVuSans-30" x="190.869141"/>
      </g>
     </g>
    </g>
    <g id="ytick_5">
     <g id="line2d_13">
      <g>
       <use xlink:href="#m0a0073c5c6" x="57.6" y="168.04652" style="stroke: #000000; stroke-width: 0.8"/>
      </g>
     </g>
     <g id="text_14">
      <!-- 2000 -->
      <g transform="translate(25.15 171.845739)scale(0.1 -0.1)">
       <use xlink:href="#DejaVuSans-32"/>
       <use xlink:href="#DejaVuSans-30" x="63.623047"/>
       <use xlink:href="#DejaVuSans-30" x="127.246094"/>
       <use xlink:href="#DejaVuSans-30" x="190.869141"/>
      </g>
     </g>
    </g>
    <g id="ytick_6">
     <g id="line2d_14">
      <g>
       <use xlink:href="#m0a0073c5c6" x="57.6" y="133.775218" style="stroke: #000000; stroke-width: 0.8"/>
      </g>
     </g>
     <g id="text_15">
      <!-- 2500 -->
      <g transform="translate(25.15 137.574437)scale(0.1 -0.1)">
       <use xlink:href="#DejaVuSans-32"/>
       <use xlink:href="#DejaVuSans-35" x="63.623047"/>
       <use xlink:href="#DejaVuSans-30" x="127.246094"/>
       <use xlink:href="#DejaVuSans-30" x="190.869141"/>
      </g>
     </g>
    </g>
    <g id="ytick_7">
     <g id="line2d_15">
      <g>
       <use xlink:href="#m0a0073c5c6" x="57.6" y="99.503916" style="stroke: #000000; stroke-width: 0.8"/>
      </g>
     </g>
     <g id="text_16">
      <!-- 3000 -->
      <g transform="translate(25.15 103.303135)scale(0.1 -0.1)">
       <use xlink:href="#DejaVuSans-33"/>
       <use xlink:href="#DejaVuSans-30" x="63.623047"/>
       <use xlink:href="#DejaVuSans-30" x="127.246094"/>
       <use xlink:href="#DejaVuSans-30" x="190.869141"/>
      </g>
     </g>
    </g>
    <g id="ytick_8">
     <g id="line2d_16">
      <g>
       <use xlink:href="#m0a0073c5c6" x="57.6" y="65.232614" style="stroke: #000000; stroke-width: 0.8"/>
      </g>
     </g>
     <g id="text_17">
      <!-- 3500 -->
      <g transform="translate(25.15 69.031833)scale(0.1 -0.1)">
       <use xlink:href="#DejaVuSans-33"/>
       <use xlink:href="#DejaVuSans-35" x="63.623047"/>
       <use xlink:href="#DejaVuSans-30" x="127.246094"/>
       <use xlink:href="#DejaVuSans-30" x="190.869141"/>
      </g>
     </g>
    </g>
    <g id="text_18">
     <!-- $\chi^2$ -->
     <g transform="translate(19.05 180.078)rotate(-90)scale(0.1 -0.1)">
      <defs>
       <path id="DejaVuSans-Oblique-3c7" d="M 1922 -781 
L 1691 416 
L 394 -1334 
L -284 -1334 
L 1553 1141 
L 1269 2613 
Q 1194 3006 713 3006 
L 559 3006 
L 653 3500 
L 872 3494 
Q 1675 3472 1775 2950 
L 2006 1753 
L 3303 3503 
L 3981 3503 
L 2144 1028 
L 2428 -444 
Q 2503 -838 2984 -838 
L 3138 -838 
L 3044 -1331 
L 2825 -1325 
Q 2022 -1303 1922 -781 
z
" transform="scale(0.015625)"/>
      </defs>
      <use xlink:href="#DejaVuSans-Oblique-3c7" transform="translate(0 0.765625)"/>
      <use xlink:href="#DejaVuSans-32" transform="translate(63.652396 39.046875)scale(0.7)"/>
     </g>
    </g>
   </g>
   <g id="line2d_17">
    <path d="M 57.6 53.568 
L 57.647616 53.596867 
L 58.028544 54.714418 
L 58.219008 54.82693 
L 58.457088 55.039693 
L 58.647552 55.188415 
L 58.695168 55.204802 
L 59.409408 57.346751 
L 59.599872 59.673913 
L 59.74272 60.533055 
L 59.790336 60.550908 
L 59.9808 61.134112 
L 60.076032 61.147518 
L 60.266496 61.513029 
L 60.552192 65.737654 
L 60.885504 68.934674 
L 60.93312 68.931857 
L 61.123584 70.572283 
L 61.1712 70.575378 
L 61.361664 71.622092 
L 61.64736 71.892705 
L 62.075904 72.194739 
L 62.552064 72.347703 
L 62.694912 72.479991 
L 63.07584 72.606347 
L 63.266304 72.864306 
L 63.694848 72.936126 
L 64.02816 74.19212 
L 64.075776 74.196872 
L 64.218624 75.173582 
L 64.313856 75.193466 
L 64.456704 76.376987 
L 64.551936 76.376733 
L 64.837632 78.909623 
L 65.028096 79.012669 
L 65.21856 80.030495 
L 65.313792 80.101726 
L 65.45664 82.137874 
L 65.504256 82.134051 
L 65.647104 82.433767 
L 65.742336 82.478222 
L 65.837568 84.511094 
L 65.980416 86.136498 
L 66.17088 86.245528 
L 66.313728 87.991848 
L 66.456576 88.079486 
L 66.599424 88.498557 
L 66.789888 88.668956 
L 67.027968 88.692301 
L 67.170816 88.940523 
L 67.694592 89.041117 
L 67.885056 89.334941 
L 69.123072 89.559771 
L 69.884928 89.581409 
L 70.170624 90.142536 
L 70.408704 90.183263 
L 70.551552 90.416627 
L 71.599104 90.645903 
L 71.741952 91.059273 
L 71.8848 91.088765 
L 72.075264 91.388832 
L 72.12288 91.422593 
L 72.265728 92.763631 
L 72.36096 92.858443 
L 72.789504 97.216355 
L 72.932352 97.752034 
L 73.0752 99.07608 
L 73.122816 99.075379 
L 73.265664 99.608389 
L 73.31328 99.621423 
L 73.456128 99.88867 
L 73.55136 99.902524 
L 73.694208 100.163756 
L 73.837056 100.280179 
L 73.884672 100.289313 
L 74.075136 102.884641 
L 74.2656 102.960286 
L 74.360832 103.30652 
L 74.551296 105.185803 
L 74.836992 106.955746 
L 75.027456 106.990728 
L 75.170304 108.364576 
L 75.21792 108.523668 
L 75.503616 113.320333 
L 75.551232 113.451811 
L 75.741696 114.747501 
L 75.789312 114.753288 
L 75.884544 119.722167 
L 75.93216 119.718433 
L 76.075008 120.909677 
L 76.17024 120.971705 
L 76.360704 121.562318 
L 76.455936 121.617849 
L 76.694016 122.578303 
L 76.741632 122.57995 
L 76.932096 123.113654 
L 77.074944 123.225466 
L 77.455872 123.316438 
L 77.59872 123.448686 
L 77.979648 123.610571 
L 78.503424 128.451976 
L 78.836736 128.492675 
L 79.0272 128.557921 
L 82.169856 128.836861 
L 82.36032 129.078428 
L 82.455552 129.086946 
L 82.5984 130.52691 
L 82.788864 133.036026 
L 82.979328 133.76344 
L 83.217408 134.158093 
L 83.360256 135.347586 
L 83.407872 135.347627 
L 83.693568 137.444624 
L 83.884032 137.447154 
L 84.074496 138.295651 
L 84.122112 138.292753 
L 84.26496 138.472973 
L 84.360192 138.483418 
L 84.50304 138.686582 
L 84.693504 138.733785 
L 85.026816 138.826999 
L 85.360128 138.908264 
L 85.979136 139.054971 
L 86.312448 143.193765 
L 86.502912 143.308643 
L 86.64576 143.495944 
L 86.836224 143.546344 
L 87.12192 143.693007 
L 87.312384 143.871238 
L 87.740928 143.956837 
L 87.883776 144.088931 
L 88.78848 144.197574 
L 88.978944 144.265572 
L 89.217024 144.27715 
L 89.455104 145.647969 
L 89.550336 147.669585 
L 89.597952 147.665143 
L 89.645568 147.677868 
L 89.836032 148.459358 
L 90.121728 148.471659 
L 90.264576 149.462783 
L 90.597888 151.174038 
L 90.788352 152.5272 
L 90.978816 152.681256 
L 91.740672 152.791981 
L 91.88352 152.983462 
L 92.645376 153.011546 
L 92.931072 153.300295 
L 93.169152 153.307892 
L 93.359616 154.8944 
L 93.407232 154.892215 
L 93.55008 155.639477 
L 93.645312 155.63244 
L 93.835776 156.402585 
L 94.02624 157.671831 
L 94.169088 157.68221 
L 94.359552 158.125457 
L 94.5024 158.123394 
L 94.645248 158.41281 
L 95.549952 158.484826 
L 105.549312 158.848337 
L 105.739776 159.320313 
L 106.025472 159.600481 
L 106.215936 161.948846 
L 106.263552 161.943684 
L 106.358784 162.550375 
L 106.4064 162.546585 
L 106.88256 162.536436 
L 107.025408 163.633576 
L 107.12064 163.74138 
L 108.215808 163.918935 
L 108.358656 164.010808 
L 110.310912 164.122541 
L 110.45376 164.584471 
L 110.69184 168.166965 
L 110.834688 168.1648 
L 110.977536 168.763151 
L 111.263232 168.848341 
L 111.40608 169.11204 
L 115.548672 169.260493 
L 115.786752 169.711388 
L 116.453376 169.781796 
L 116.596224 169.911226 
L 116.786688 169.965604 
L 120.548352 170.075107 
L 120.834048 170.702666 
L 121.024512 170.774923 
L 121.214976 172.676433 
L 121.262592 172.67941 
L 121.40544 173.831816 
L 121.595904 174.563778 
L 121.691136 174.553647 
L 121.8816 174.922274 
L 124.690944 175.296048 
L 126.786048 175.305491 
L 127.405056 175.339353 
L 128.07168 175.327276 
L 129.73824 175.464437 
L 130.785792 175.467887 
L 130.92864 175.542858 
L 134.166528 175.569276 
L 135.071232 175.582857 
L 136.928256 175.619162 
L 138.118656 175.652817 
L 142.975488 175.756594 
L 143.261184 176.015778 
L 143.499264 176.017203 
L 143.880192 179.959534 
L 143.927808 179.957127 
L 144.070656 180.336998 
L 144.880128 180.54713 
L 145.022976 180.652709 
L 145.641984 180.766343 
L 146.118144 180.787956 
L 146.88 180.802015 
L 149.927424 180.868035 
L 151.498752 180.876416 
L 152.59392 180.90613 
L 153.260544 180.951356 
L 154.689024 180.991822 
L 155.736576 181.000598 
L 156.64128 181.021198 
L 157.260288 181.078081 
L 159.212544 181.139322 
L 159.355392 181.342829 
L 159.49824 181.413362 
L 159.641088 182.261153 
L 159.73632 182.263919 
L 159.879168 183.329214 
L 159.926784 183.329252 
L 160.117248 185.28639 
L 160.260096 185.366636 
L 161.450496 185.388676 
L 161.593344 185.747933 
L 161.688576 185.778129 
L 161.831424 186.110906 
L 162.069504 186.223092 
L 163.30752 186.281892 
L 163.5456 186.316459 
L 163.78368 186.324878 
L 163.974144 186.700402 
L 164.212224 190.082557 
L 164.402688 190.874773 
L 165.116928 191.027061 
L 165.307392 191.071955 
L 165.497856 191.068306 
L 165.640704 191.292706 
L 165.831168 191.381317 
L 166.021632 191.50618 
L 167.640576 191.616068 
L 168.640512 191.642239 
L 168.973824 191.640504 
L 169.164288 192.757586 
L 169.640448 192.857814 
L 169.73568 194.912043 
L 169.783296 194.907763 
L 170.021376 194.924967 
L 170.830848 194.970551 
L 173.878272 195.120716 
L 174.211584 195.540722 
L 174.687744 195.607454 
L 174.830592 196.335943 
L 175.021056 197.338843 
L 175.163904 198.091624 
L 175.259136 198.095233 
L 175.497216 200.452341 
L 175.544832 200.451787 
L 175.68768 200.68151 
L 176.259072 200.730894 
L 176.306688 200.749571 
L 176.449536 200.961106 
L 177.878016 201.116069 
L 179.0208 201.127544 
L 181.830144 201.222576 
L 182.925312 201.282738 
L 182.972928 201.290318 
L 183.115776 201.519999 
L 183.639552 201.559232 
L 183.830016 201.622013 
L 186.544128 201.824864 
L 186.686976 202.437417 
L 187.448832 202.706222 
L 187.59168 202.900548 
L 187.82976 202.940003 
L 188.06784 204.392552 
L 188.353536 205.279488 
L 188.496384 205.280306 
L 189.163008 208.661494 
L 189.210624 208.660057 
L 189.686784 211.737305 
L 189.7344 211.736894 
L 189.877248 212.095755 
L 189.97248 212.208453 
L 190.401024 212.563489 
L 191.305728 212.605337 
L 195.257856 212.680212 
L 196.019712 212.691183 
L 197.257728 212.702144 
L 198.114816 212.691512 
L 198.30528 212.731999 
L 199.162368 212.756482 
L 199.305216 212.904556 
L 204.447744 213.085782 
L 205.590528 213.086839 
L 207.209472 213.159034 
L 208.352256 213.149281 
L 209.114112 213.263497 
L 209.49504 213.497617 
L 210.637824 213.576926 
L 212.11392 213.584943 
L 213.447168 213.604467 
L 219.684864 213.773857 
L 219.922944 215.081419 
L 219.97056 215.083308 
L 220.20864 217.024709 
L 220.256256 217.026114 
L 220.494336 218.730131 
L 220.541952 218.724608 
L 221.351424 218.762734 
L 223.494144 218.912147 
L 225.589248 218.968948 
L 243.54048 219.115633 
L 243.683328 219.27141 
L 244.159488 219.341253 
L 244.302336 219.400871 
L 244.73088 219.539416 
L 244.921344 219.704641 
L 245.540352 219.793231 
L 245.873664 219.848692 
L 252.777984 219.899856 
L 255.158784 219.971504 
L 256.349184 219.998632 
L 257.444352 220.009535 
L 260.68224 220.117229 
L 260.825088 221.397371 
L 260.92032 221.397039 
L 261.1584 224.141417 
L 261.348864 224.926384 
L 261.682176 225.006107 
L 263.06304 225.062388 
L 264.49152 225.086961 
L 264.634368 225.142622 
L 265.539072 225.197593 
L 265.824768 225.234387 
L 277.776384 225.307796 
L 277.966848 225.354634 
L 279.442944 225.360996 
L 280.44288 225.3643 
L 282.776064 225.383206 
L 291.823104 225.478268 
L 292.58496 225.493883 
L 293.251584 225.490654 
L 296.203776 225.513425 
L 296.63232 225.518964 
L 301.203456 225.67984 
L 303.155712 225.687499 
L 304.869888 225.68937 
L 307.584 225.705828 
L 309.821952 225.709908 
L 310.774272 225.688592 
L 312.10752 225.696649 
L 312.250368 225.779234 
L 312.297984 225.777131 
L 312.393216 226.462564 
L 312.726528 230.363447 
L 313.440768 230.406142 
L 313.583616 230.830139 
L 316.107264 230.903112 
L 318.05952 230.895378 
L 318.202368 231.152589 
L 319.821312 231.184449 
L 320.583168 231.294111 
L 321.773568 231.34764 
L 323.0592 231.466375 
L 323.582976 231.476617 
L 326.487552 231.478236 
L 329.058816 231.637572 
L 333.487104 231.941724 
L 333.629952 232.021662 
L 334.439424 232.008069 
L 335.391744 231.996976 
L 337.201152 232.021871 
L 338.201088 232.125909 
L 338.343936 232.188364 
L 339.153408 232.208948 
L 343.438848 232.276115 
L 343.581696 232.418073 
L 347.010048 232.420172 
L 348.248064 232.466371 
L 356.199936 232.709149 
L 358.53312 232.696183 
L 358.866432 232.723285 
L 367.151616 232.982839 
L 367.437312 233.006688 
L 372.532224 233.055188 
L 374.055936 233.062745 
L 384.150528 233.140616 
L 384.293376 233.226613 
L 385.769472 233.335553 
L 386.578944 233.331219 
L 389.24544 233.321463 
L 390.578688 233.329189 
L 391.007232 233.325749 
L 391.15008 233.456436 
L 391.721472 233.56335 
L 391.86432 233.634749 
L 392.007168 233.631083 
L 392.150016 233.809902 
L 392.769024 233.889968 
L 394.149888 233.929298 
L 410.339328 234.015824 
L 410.482176 234.23701 
L 410.577408 234.241074 
L 410.720256 235.029972 
L 410.863104 235.019583 
L 411.005952 235.16157 
L 411.196416 235.20062 
L 411.339264 235.79851 
L 411.482112 236.123822 
L 412.672512 236.148405 
L 412.81536 236.389959 
L 413.481984 236.40361 
L 413.624832 237.583285 
L 414.24384 237.680933 
L 414.48192 237.778799 
L 414.672384 237.781812 
L 414.672384 237.781812 
" clip-path="url(#p874cc3df35)" style="fill: none; stroke: #1f77b4; stroke-opacity: 0.3; stroke-width: 1.5; stroke-linecap: square"/>
   </g>
   <g id="line2d_18">
    <path d="M 57.6 295.100851 
L 60.123648 295.192786 
L 60.266496 295.23344 
L 60.504576 295.16881 
L 62.218752 295.208167 
L 62.3616 295.330588 
L 212.161536 295.394625 
L 212.352 295.44782 
L 231.16032 295.375857 
L 231.350784 295.328535 
L 254.349312 295.392971 
L 254.539776 295.445353 
L 414.672384 295.4136 
L 414.672384 295.4136 
" clip-path="url(#p874cc3df35)" style="fill: none; stroke: #ff7f0e; stroke-opacity: 0.3; stroke-width: 1.5; stroke-linecap: square"/>
   </g>
   <g id="patch_3">
    <path d="M 57.6 307.584 
L 57.6 41.472 
" style="fill: none; stroke: #000000; stroke-width: 0.8; stroke-linejoin: miter; stroke-linecap: square"/>
   </g>
   <g id="patch_4">
    <path d="M 414.72 307.584 
L 414.72 41.472 
" style="fill: none; stroke: #000000; stroke-width: 0.8; stroke-linejoin: miter; stroke-linecap: square"/>
   </g>
   <g id="patch_5">
    <path d="M 57.6 307.584 
L 414.72 307.584 
" style="fill: none; stroke: #000000; stroke-width: 0.8; stroke-linejoin: miter; stroke-linecap: square"/>
   </g>
   <g id="patch_6">
    <path d="M 57.6 41.472 
L 414.72 41.472 
" style="fill: none; stroke: #000000; stroke-width: 0.8; stroke-linejoin: miter; stroke-linecap: square"/>
   </g>
   <g id="text_19">
    <!-- Best $\chi^2$ by Step -->
    <g transform="translate(189.42 35.472)scale(0.12 -0.12)">
     <defs>
      <path id="DejaVuSans-42" d="M 1259 2228 
L 1259 519 
L 2272 519 
Q 2781 519 3026 730 
Q 3272 941 3272 1375 
Q 3272 1813 3026 2020 
Q 2781 2228 2272 2228 
L 1259 2228 
z
M 1259 4147 
L 1259 2741 
L 2194 2741 
Q 2656 2741 2882 2914 
Q 3109 3088 3109 3444 
Q 3109 3797 2882 3972 
Q 2656 4147 2194 4147 
L 1259 4147 
z
M 628 4666 
L 2241 4666 
Q 2963 4666 3353 4366 
Q 3744 4066 3744 3513 
Q 3744 3084 3544 2831 
Q 3344 2578 2956 2516 
Q 3422 2416 3680 2098 
Q 3938 1781 3938 1306 
Q 3938 681 3513 340 
Q 3088 0 2303 0 
L 628 0 
L 628 4666 
z
" transform="scale(0.015625)"/>
      <path id="DejaVuSans-20" transform="scale(0.015625)"/>
      <path id="DejaVuSans-62" d="M 3116 1747 
Q 3116 2381 2855 2742 
Q 2594 3103 2138 3103 
Q 1681 3103 1420 2742 
Q 1159 2381 1159 1747 
Q 1159 1113 1420 752 
Q 1681 391 2138 391 
Q 2594 391 2855 752 
Q 3116 1113 3116 1747 
z
M 1159 2969 
Q 1341 3281 1617 3432 
Q 1894 3584 2278 3584 
Q 2916 3584 3314 3078 
Q 3713 2572 3713 1747 
Q 3713 922 3314 415 
Q 2916 -91 2278 -91 
Q 1894 -91 1617 61 
Q 1341 213 1159 525 
L 1159 0 
L 581 0 
L 581 4863 
L 1159 4863 
L 1159 2969 
z
" transform="scale(0.015625)"/>
      <path id="DejaVuSans-79" d="M 2059 -325 
Q 1816 -950 1584 -1140 
Q 1353 -1331 966 -1331 
L 506 -1331 
L 506 -850 
L 844 -850 
Q 1081 -850 1212 -737 
Q 1344 -625 1503 -206 
L 1606 56 
L 191 3500 
L 800 3500 
L 1894 763 
L 2988 3500 
L 3597 3500 
L 2059 -325 
z
" transform="scale(0.015625)"/>
      <path id="DejaVuSans-53" d="M 3425 4513 
L 3425 3897 
Q 3066 4069 2747 4153 
Q 2428 4238 2131 4238 
Q 1616 4238 1336 4038 
Q 1056 3838 1056 3469 
Q 1056 3159 1242 3001 
Q 1428 2844 1947 2747 
L 2328 2669 
Q 3034 2534 3370 2195 
Q 3706 1856 3706 1288 
Q 3706 609 3251 259 
Q 2797 -91 1919 -91 
Q 1588 -91 1214 -16 
Q 841 59 441 206 
L 441 856 
Q 825 641 1194 531 
Q 1563 422 1919 422 
Q 2459 422 2753 634 
Q 3047 847 3047 1241 
Q 3047 1584 2836 1778 
Q 2625 1972 2144 2069 
L 1759 2144 
Q 1053 2284 737 2584 
Q 422 2884 422 3419 
Q 422 4038 858 4394 
Q 1294 4750 2059 4750 
Q 2388 4750 2728 4690 
Q 3069 4631 3425 4513 
z
" transform="scale(0.015625)"/>
     </defs>
     <use xlink:href="#DejaVuSans-42" transform="translate(0 0.765625)"/>
     <use xlink:href="#DejaVuSans-65" transform="translate(68.603516 0.765625)"/>
     <use xlink:href="#DejaVuSans-73" transform="translate(130.126953 0.765625)"/>
     <use xlink:href="#DejaVuSans-74" transform="translate(182.226562 0.765625)"/>
     <use xlink:href="#DejaVuSans-20" transform="translate(221.435547 0.765625)"/>
     <use xlink:href="#DejaVuSans-Oblique-3c7" transform="translate(253.222656 0.765625)"/>
     <use xlink:href="#DejaVuSans-32" transform="translate(316.875052 39.046875)scale(0.7)"/>
     <use xlink:href="#DejaVuSans-20" transform="translate(364.14556 0.765625)"/>
     <use xlink:href="#DejaVuSans-62" transform="translate(395.932669 0.765625)"/>
     <use xlink:href="#DejaVuSans-79" transform="translate(459.409232 0.765625)"/>
     <use xlink:href="#DejaVuSans-20" transform="translate(518.588919 0.765625)"/>
     <use xlink:href="#DejaVuSans-53" transform="translate(550.376029 0.765625)"/>
     <use xlink:href="#DejaVuSans-74" transform="translate(613.852591 0.765625)"/>
     <use xlink:href="#DejaVuSans-65" transform="translate(653.061576 0.765625)"/>
     <use xlink:href="#DejaVuSans-70" transform="translate(714.585013 0.765625)"/>
    </g>
   </g>
  </g>
 </g>
 <defs>
  <clipPath id="p874cc3df35">
   <rect x="57.6" y="41.472" width="357.12" height="266.112"/>
  </clipPath>
 </defs>
</svg>
