<?xml version="1.0" encoding="utf-8" standalone="no"?>
<!DOCTYPE svg PUBLIC "-//W3C//DTD SVG 1.1//EN"
  "http://www.w3.org/Graphics/SVG/1.1/DTD/svg11.dtd">
<svg xmlns:xlink="http://www.w3.org/1999/xlink" width="460.8pt" height="345.6pt" viewBox="0 0 460.8 345.6" xmlns="http://www.w3.org/2000/svg" version="1.1">
 <metadata>
  <rdf:RDF xmlns:dc="http://purl.org/dc/elements/1.1/" xmlns:cc="http://creativecommons.org/ns#" xmlns:rdf="http://www.w3.org/1999/02/22-rdf-syntax-ns#">
   <cc:Work>
    <dc:type rdf:resource="http://purl.org/dc/dcmitype/StillImage"/>
    <dc:date>2022-07-23T14:20:31.748523</dc:date>
    <dc:format>image/svg+xml</dc:format>
    <dc:creator>
     <cc:Agent>
      <dc:title>Matplotlib v3.5.0, https://matplotlib.org/</dc:title>
     </cc:Agent>
    </dc:creator>
   </cc:Work>
  </rdf:RDF>
 </metadata>
 <defs>
  <style type="text/css">*{stroke-linejoin: round; stroke-linecap: butt}</style>
 </defs>
 <g id="figure_1">
  <g id="patch_1">
   <path d="M 0 345.6 
L 460.8 345.6 
L 460.8 0 
L 0 0 
z
" style="fill: #ffffff"/>
  </g>
  <g id="axes_1">
   <g id="patch_2">
    <path d="M 57.6 307.584 
L 414.72 307.584 
L 414.72 41.472 
L 57.6 41.472 
z
" style="fill: #ffffff"/>
   </g>
   <g id="matplotlib.axis_1">
    <g id="xtick_1">
     <g id="line2d_1">
      <defs>
       <path id="mc78567dc40" d="M 0 0 
L 0 3.5 
" style="stroke: #000000; stroke-width: 0.8"/>
      </defs>
      <g>
       <use xlink:href="#mc78567dc40" x="81.408" y="307.584" style="stroke: #000000; stroke-width: 0.8"/>
      </g>
     </g>
     <g id="text_1">
      <!-- 1000 -->
      <g transform="translate(68.683 322.182437)scale(0.1 -0.1)">
       <defs>
        <path id="DejaVuSans-31" d="M 794 531 
L 1825 531 
L 1825 4091 
L 703 3866 
L 703 4441 
L 1819 4666 
L 2450 4666 
L 2450 531 
L 3481 531 
L 3481 0 
L 794 0 
L 794 531 
z
" transform="scale(0.015625)"/>
        <path id="DejaVuSans-30" d="M 2034 4250 
Q 1547 4250 1301 3770 
Q 1056 3291 1056 2328 
Q 1056 1369 1301 889 
Q 1547 409 2034 409 
Q 2525 409 2770 889 
Q 3016 1369 3016 2328 
Q 3016 3291 2770 3770 
Q 2525 4250 2034 4250 
z
M 2034 4750 
Q 2819 4750 3233 4129 
Q 3647 3509 3647 2328 
Q 3647 1150 3233 529 
Q 2819 -91 2034 -91 
Q 1250 -91 836 529 
Q 422 1150 422 2328 
Q 422 3509 836 4129 
Q 1250 4750 2034 4750 
z
" transform="scale(0.015625)"/>
       </defs>
       <use xlink:href="#DejaVuSans-31"/>
       <use xlink:href="#DejaVuSans-30" x="63.623047"/>
       <use xlink:href="#DejaVuSans-30" x="127.246094"/>
       <use xlink:href="#DejaVuSans-30" x="190.869141"/>
      </g>
     </g>
    </g>
    <g id="xtick_2">
     <g id="line2d_2">
      <g>
       <use xlink:href="#mc78567dc40" x="129.024" y="307.584" style="stroke: #000000; stroke-width: 0.8"/>
      </g>
     </g>
     <g id="text_2">
      <!-- 2000 -->
      <g transform="translate(116.299 322.182437)scale(0.1 -0.1)">
       <defs>
        <path id="DejaVuSans-32" d="M 1228 531 
L 3431 531 
L 3431 0 
L 469 0 
L 469 531 
Q 828 903 1448 1529 
Q 2069 2156 2228 2338 
Q 2531 2678 2651 2914 
Q 2772 3150 2772 3378 
Q 2772 3750 2511 3984 
Q 2250 4219 1831 4219 
Q 1534 4219 1204 4116 
Q 875 4013 500 3803 
L 500 4441 
Q 881 4594 1212 4672 
Q 1544 4750 1819 4750 
Q 2544 4750 2975 4387 
Q 3406 4025 3406 3419 
Q 3406 3131 3298 2873 
Q 3191 2616 2906 2266 
Q 2828 2175 2409 1742 
Q 1991 1309 1228 531 
z
" transform="scale(0.015625)"/>
       </defs>
       <use xlink:href="#DejaVuSans-32"/>
       <use xlink:href="#DejaVuSans-30" x="63.623047"/>
       <use xlink:href="#DejaVuSans-30" x="127.246094"/>
       <use xlink:href="#DejaVuSans-30" x="190.869141"/>
      </g>
     </g>
    </g>
    <g id="xtick_3">
     <g id="line2d_3">
      <g>
       <use xlink:href="#mc78567dc40" x="176.64" y="307.584" style="stroke: #000000; stroke-width: 0.8"/>
      </g>
     </g>
     <g id="text_3">
      <!-- 3000 -->
      <g transform="translate(163.915 322.182437)scale(0.1 -0.1)">
       <defs>
        <path id="DejaVuSans-33" d="M 2597 2516 
Q 3050 2419 3304 2112 
Q 3559 1806 3559 1356 
Q 3559 666 3084 287 
Q 2609 -91 1734 -91 
Q 1441 -91 1130 -33 
Q 819 25 488 141 
L 488 750 
Q 750 597 1062 519 
Q 1375 441 1716 441 
Q 2309 441 2620 675 
Q 2931 909 2931 1356 
Q 2931 1769 2642 2001 
Q 2353 2234 1838 2234 
L 1294 2234 
L 1294 2753 
L 1863 2753 
Q 2328 2753 2575 2939 
Q 2822 3125 2822 3475 
Q 2822 3834 2567 4026 
Q 2313 4219 1838 4219 
Q 1578 4219 1281 4162 
Q 984 4106 628 3988 
L 628 4550 
Q 988 4650 1302 4700 
Q 1616 4750 1894 4750 
Q 2613 4750 3031 4423 
Q 3450 4097 3450 3541 
Q 3450 3153 3228 2886 
Q 3006 2619 2597 2516 
z
" transform="scale(0.015625)"/>
       </defs>
       <use xlink:href="#DejaVuSans-33"/>
       <use xlink:href="#DejaVuSans-30" x="63.623047"/>
       <use xlink:href="#DejaVuSans-30" x="127.246094"/>
       <use xlink:href="#DejaVuSans-30" x="190.869141"/>
      </g>
     </g>
    </g>
    <g id="xtick_4">
     <g id="line2d_4">
      <g>
       <use xlink:href="#mc78567dc40" x="224.256" y="307.584" style="stroke: #000000; stroke-width: 0.8"/>
      </g>
     </g>
     <g id="text_4">
      <!-- 4000 -->
      <g transform="translate(211.531 322.182437)scale(0.1 -0.1)">
       <defs>
        <path id="DejaVuSans-34" d="M 2419 4116 
L 825 1625 
L 2419 1625 
L 2419 4116 
z
M 2253 4666 
L 3047 4666 
L 3047 1625 
L 3713 1625 
L 3713 1100 
L 3047 1100 
L 3047 0 
L 2419 0 
L 2419 1100 
L 313 1100 
L 313 1709 
L 2253 4666 
z
" transform="scale(0.015625)"/>
       </defs>
       <use xlink:href="#DejaVuSans-34"/>
       <use xlink:href="#DejaVuSans-30" x="63.623047"/>
       <use xlink:href="#DejaVuSans-30" x="127.246094"/>
       <use xlink:href="#DejaVuSans-30" x="190.869141"/>
      </g>
     </g>
    </g>
    <g id="xtick_5">
     <g id="line2d_5">
      <g>
       <use xlink:href="#mc78567dc40" x="271.872" y="307.584" style="stroke: #000000; stroke-width: 0.8"/>
      </g>
     </g>
     <g id="text_5">
      <!-- 5000 -->
      <g transform="translate(259.147 322.182437)scale(0.1 -0.1)">
       <defs>
        <path id="DejaVuSans-35" d="M 691 4666 
L 3169 4666 
L 3169 4134 
L 1269 4134 
L 1269 2991 
Q 1406 3038 1543 3061 
Q 1681 3084 1819 3084 
Q 2600 3084 3056 2656 
Q 3513 2228 3513 1497 
Q 3513 744 3044 326 
Q 2575 -91 1722 -91 
Q 1428 -91 1123 -41 
Q 819 9 494 109 
L 494 744 
Q 775 591 1075 516 
Q 1375 441 1709 441 
Q 2250 441 2565 725 
Q 2881 1009 2881 1497 
Q 2881 1984 2565 2268 
Q 2250 2553 1709 2553 
Q 1456 2553 1204 2497 
Q 953 2441 691 2322 
L 691 4666 
z
" transform="scale(0.015625)"/>
       </defs>
       <use xlink:href="#DejaVuSans-35"/>
       <use xlink:href="#DejaVuSans-30" x="63.623047"/>
       <use xlink:href="#DejaVuSans-30" x="127.246094"/>
       <use xlink:href="#DejaVuSans-30" x="190.869141"/>
      </g>
     </g>
    </g>
    <g id="xtick_6">
     <g id="line2d_6">
      <g>
       <use xlink:href="#mc78567dc40" x="319.488" y="307.584" style="stroke: #000000; stroke-width: 0.8"/>
      </g>
     </g>
     <g id="text_6">
      <!-- 6000 -->
      <g transform="translate(306.763 322.182437)scale(0.1 -0.1)">
       <defs>
        <path id="DejaVuSans-36" d="M 2113 2584 
Q 1688 2584 1439 2293 
Q 1191 2003 1191 1497 
Q 1191 994 1439 701 
Q 1688 409 2113 409 
Q 2538 409 2786 701 
Q 3034 994 3034 1497 
Q 3034 2003 2786 2293 
Q 2538 2584 2113 2584 
z
M 3366 4563 
L 3366 3988 
Q 3128 4100 2886 4159 
Q 2644 4219 2406 4219 
Q 1781 4219 1451 3797 
Q 1122 3375 1075 2522 
Q 1259 2794 1537 2939 
Q 1816 3084 2150 3084 
Q 2853 3084 3261 2657 
Q 3669 2231 3669 1497 
Q 3669 778 3244 343 
Q 2819 -91 2113 -91 
Q 1303 -91 875 529 
Q 447 1150 447 2328 
Q 447 3434 972 4092 
Q 1497 4750 2381 4750 
Q 2619 4750 2861 4703 
Q 3103 4656 3366 4563 
z
" transform="scale(0.015625)"/>
       </defs>
       <use xlink:href="#DejaVuSans-36"/>
       <use xlink:href="#DejaVuSans-30" x="63.623047"/>
       <use xlink:href="#DejaVuSans-30" x="127.246094"/>
       <use xlink:href="#DejaVuSans-30" x="190.869141"/>
      </g>
     </g>
    </g>
    <g id="xtick_7">
     <g id="line2d_7">
      <g>
       <use xlink:href="#mc78567dc40" x="367.104" y="307.584" style="stroke: #000000; stroke-width: 0.8"/>
      </g>
     </g>
     <g id="text_7">
      <!-- 7000 -->
      <g transform="translate(354.379 322.182437)scale(0.1 -0.1)">
       <defs>
        <path id="DejaVuSans-37" d="M 525 4666 
L 3525 4666 
L 3525 4397 
L 1831 0 
L 1172 0 
L 2766 4134 
L 525 4134 
L 525 4666 
z
" transform="scale(0.015625)"/>
       </defs>
       <use xlink:href="#DejaVuSans-37"/>
       <use xlink:href="#DejaVuSans-30" x="63.623047"/>
       <use xlink:href="#DejaVuSans-30" x="127.246094"/>
       <use xlink:href="#DejaVuSans-30" x="190.869141"/>
      </g>
     </g>
    </g>
    <g id="xtick_8">
     <g id="line2d_8">
      <g>
       <use xlink:href="#mc78567dc40" x="414.72" y="307.584" style="stroke: #000000; stroke-width: 0.8"/>
      </g>
     </g>
     <g id="text_8">
      <!-- 8000 -->
      <g transform="translate(401.995 322.182437)scale(0.1 -0.1)">
       <defs>
        <path id="DejaVuSans-38" d="M 2034 2216 
Q 1584 2216 1326 1975 
Q 1069 1734 1069 1313 
Q 1069 891 1326 650 
Q 1584 409 2034 409 
Q 2484 409 2743 651 
Q 3003 894 3003 1313 
Q 3003 1734 2745 1975 
Q 2488 2216 2034 2216 
z
M 1403 2484 
Q 997 2584 770 2862 
Q 544 3141 544 3541 
Q 544 4100 942 4425 
Q 1341 4750 2034 4750 
Q 2731 4750 3128 4425 
Q 3525 4100 3525 3541 
Q 3525 3141 3298 2862 
Q 3072 2584 2669 2484 
Q 3125 2378 3379 2068 
Q 3634 1759 3634 1313 
Q 3634 634 3220 271 
Q 2806 -91 2034 -91 
Q 1263 -91 848 271 
Q 434 634 434 1313 
Q 434 1759 690 2068 
Q 947 2378 1403 2484 
z
M 1172 3481 
Q 1172 3119 1398 2916 
Q 1625 2713 2034 2713 
Q 2441 2713 2670 2916 
Q 2900 3119 2900 3481 
Q 2900 3844 2670 4047 
Q 2441 4250 2034 4250 
Q 1625 4250 1398 4047 
Q 1172 3844 1172 3481 
z
" transform="scale(0.015625)"/>
       </defs>
       <use xlink:href="#DejaVuSans-38"/>
       <use xlink:href="#DejaVuSans-30" x="63.623047"/>
       <use xlink:href="#DejaVuSans-30" x="127.246094"/>
       <use xlink:href="#DejaVuSans-30" x="190.869141"/>
      </g>
     </g>
    </g>
    <g id="text_9">
     <!-- step -->
     <g transform="translate(225.344375 335.860562)scale(0.1 -0.1)">
      <defs>
       <path id="DejaVuSans-73" d="M 2834 3397 
L 2834 2853 
Q 2591 2978 2328 3040 
Q 2066 3103 1784 3103 
Q 1356 3103 1142 2972 
Q 928 2841 928 2578 
Q 928 2378 1081 2264 
Q 1234 2150 1697 2047 
L 1894 2003 
Q 2506 1872 2764 1633 
Q 3022 1394 3022 966 
Q 3022 478 2636 193 
Q 2250 -91 1575 -91 
Q 1294 -91 989 -36 
Q 684 19 347 128 
L 347 722 
Q 666 556 975 473 
Q 1284 391 1588 391 
Q 1994 391 2212 530 
Q 2431 669 2431 922 
Q 2431 1156 2273 1281 
Q 2116 1406 1581 1522 
L 1381 1569 
Q 847 1681 609 1914 
Q 372 2147 372 2553 
Q 372 3047 722 3315 
Q 1072 3584 1716 3584 
Q 2034 3584 2315 3537 
Q 2597 3491 2834 3397 
z
" transform="scale(0.015625)"/>
       <path id="DejaVuSans-74" d="M 1172 4494 
L 1172 3500 
L 2356 3500 
L 2356 3053 
L 1172 3053 
L 1172 1153 
Q 1172 725 1289 603 
Q 1406 481 1766 481 
L 2356 481 
L 2356 0 
L 1766 0 
Q 1100 0 847 248 
Q 594 497 594 1153 
L 594 3053 
L 172 3053 
L 172 3500 
L 594 3500 
L 594 4494 
L 1172 4494 
z
" transform="scale(0.015625)"/>
       <path id="DejaVuSans-65" d="M 3597 1894 
L 3597 1613 
L 953 1613 
Q 991 1019 1311 708 
Q 1631 397 2203 397 
Q 2534 397 2845 478 
Q 3156 559 3463 722 
L 3463 178 
Q 3153 47 2828 -22 
Q 2503 -91 2169 -91 
Q 1331 -91 842 396 
Q 353 884 353 1716 
Q 353 2575 817 3079 
Q 1281 3584 2069 3584 
Q 2775 3584 3186 3129 
Q 3597 2675 3597 1894 
z
M 3022 2063 
Q 3016 2534 2758 2815 
Q 2500 3097 2075 3097 
Q 1594 3097 1305 2825 
Q 1016 2553 972 2059 
L 3022 2063 
z
" transform="scale(0.015625)"/>
       <path id="DejaVuSans-70" d="M 1159 525 
L 1159 -1331 
L 581 -1331 
L 581 3500 
L 1159 3500 
L 1159 2969 
Q 1341 3281 1617 3432 
Q 1894 3584 2278 3584 
Q 2916 3584 3314 3078 
Q 3713 2572 3713 1747 
Q 3713 922 3314 415 
Q 2916 -91 2278 -91 
Q 1894 -91 1617 61 
Q 1341 213 1159 525 
z
M 3116 1747 
Q 3116 2381 2855 2742 
Q 2594 3103 2138 3103 
Q 1681 3103 1420 2742 
Q 1159 2381 1159 1747 
Q 1159 1113 1420 752 
Q 1681 391 2138 391 
Q 2594 391 2855 752 
Q 3116 1113 3116 1747 
z
" transform="scale(0.015625)"/>
      </defs>
      <use xlink:href="#DejaVuSans-73"/>
      <use xlink:href="#DejaVuSans-74" x="52.099609"/>
      <use xlink:href="#DejaVuSans-65" x="91.308594"/>
      <use xlink:href="#DejaVuSans-70" x="152.832031"/>
     </g>
    </g>
   </g>
   <g id="matplotlib.axis_2">
    <g id="ytick_1">
     <g id="line2d_9">
      <defs>
       <path id="m93da84d0d4" d="M 0 0 
L -3.5 0 
" style="stroke: #000000; stroke-width: 0.8"/>
      </defs>
      <g>
       <use xlink:href="#m93da84d0d4" x="57.6" y="293.921055" style="stroke: #000000; stroke-width: 0.8"/>
      </g>
     </g>
     <g id="text_10">
      <!-- 1000 -->
      <g transform="translate(25.15 297.720274)scale(0.1 -0.1)">
       <use xlink:href="#DejaVuSans-31"/>
       <use xlink:href="#DejaVuSans-30" x="63.623047"/>
       <use xlink:href="#DejaVuSans-30" x="127.246094"/>
       <use xlink:href="#DejaVuSans-30" x="190.869141"/>
      </g>
     </g>
    </g>
    <g id="ytick_2">
     <g id="line2d_10">
      <g>
       <use xlink:href="#m93da84d0d4" x="57.6" y="248.914162" style="stroke: #000000; stroke-width: 0.8"/>
      </g>
     </g>
     <g id="text_11">
      <!-- 1500 -->
      <g transform="translate(25.15 252.713381)scale(0.1 -0.1)">
       <use xlink:href="#DejaVuSans-31"/>
       <use xlink:href="#DejaVuSans-35" x="63.623047"/>
       <use xlink:href="#DejaVuSans-30" x="127.246094"/>
       <use xlink:href="#DejaVuSans-30" x="190.869141"/>
      </g>
     </g>
    </g>
    <g id="ytick_3">
     <g id="line2d_11">
      <g>
       <use xlink:href="#m93da84d0d4" x="57.6" y="203.907269" style="stroke: #000000; stroke-width: 0.8"/>
      </g>
     </g>
     <g id="text_12">
      <!-- 2000 -->
      <g transform="translate(25.15 207.706488)scale(0.1 -0.1)">
       <use xlink:href="#DejaVuSans-32"/>
       <use xlink:href="#DejaVuSans-30" x="63.623047"/>
       <use xlink:href="#DejaVuSans-30" x="127.246094"/>
       <use xlink:href="#DejaVuSans-30" x="190.869141"/>
      </g>
     </g>
    </g>
    <g id="ytick_4">
     <g id="line2d_12">
      <g>
       <use xlink:href="#m93da84d0d4" x="57.6" y="158.900376" style="stroke: #000000; stroke-width: 0.8"/>
      </g>
     </g>
     <g id="text_13">
      <!-- 2500 -->
      <g transform="translate(25.15 162.699595)scale(0.1 -0.1)">
       <use xlink:href="#DejaVuSans-32"/>
       <use xlink:href="#DejaVuSans-35" x="63.623047"/>
       <use xlink:href="#DejaVuSans-30" x="127.246094"/>
       <use xlink:href="#DejaVuSans-30" x="190.869141"/>
      </g>
     </g>
    </g>
    <g id="ytick_5">
     <g id="line2d_13">
      <g>
       <use xlink:href="#m93da84d0d4" x="57.6" y="113.893483" style="stroke: #000000; stroke-width: 0.8"/>
      </g>
     </g>
     <g id="text_14">
      <!-- 3000 -->
      <g transform="translate(25.15 117.692702)scale(0.1 -0.1)">
       <use xlink:href="#DejaVuSans-33"/>
       <use xlink:href="#DejaVuSans-30" x="63.623047"/>
       <use xlink:href="#DejaVuSans-30" x="127.246094"/>
       <use xlink:href="#DejaVuSans-30" x="190.869141"/>
      </g>
     </g>
    </g>
    <g id="ytick_6">
     <g id="line2d_14">
      <g>
       <use xlink:href="#m93da84d0d4" x="57.6" y="68.88659" style="stroke: #000000; stroke-width: 0.8"/>
      </g>
     </g>
     <g id="text_15">
      <!-- 3500 -->
      <g transform="translate(25.15 72.685809)scale(0.1 -0.1)">
       <use xlink:href="#DejaVuSans-33"/>
       <use xlink:href="#DejaVuSans-35" x="63.623047"/>
       <use xlink:href="#DejaVuSans-30" x="127.246094"/>
       <use xlink:href="#DejaVuSans-30" x="190.869141"/>
      </g>
     </g>
    </g>
    <g id="text_16">
     <!-- $\chi^2$ -->
     <g transform="translate(19.05 180.078)rotate(-90)scale(0.1 -0.1)">
      <defs>
       <path id="DejaVuSans-Oblique-3c7" d="M 1922 -781 
L 1691 416 
L 394 -1334 
L -284 -1334 
L 1553 1141 
L 1269 2613 
Q 1194 3006 713 3006 
L 559 3006 
L 653 3500 
L 872 3494 
Q 1675 3472 1775 2950 
L 2006 1753 
L 3303 3503 
L 3981 3503 
L 2144 1028 
L 2428 -444 
Q 2503 -838 2984 -838 
L 3138 -838 
L 3044 -1331 
L 2825 -1325 
Q 2022 -1303 1922 -781 
z
" transform="scale(0.015625)"/>
      </defs>
      <use xlink:href="#DejaVuSans-Oblique-3c7" transform="translate(0 0.765625)"/>
      <use xlink:href="#DejaVuSans-32" transform="translate(63.652396 39.046875)scale(0.7)"/>
     </g>
    </g>
   </g>
   <g id="line2d_15">
    <path d="M 57.6 53.568 
L 57.647616 53.60591 
L 58.028544 55.073537 
L 58.123776 55.158119 
L 58.695168 55.717536 
L 59.409408 58.530456 
L 59.599872 61.586609 
L 59.74272 62.71488 
L 59.790336 62.738326 
L 59.9808 63.50422 
L 60.076032 63.521826 
L 60.266496 64.001834 
L 60.552192 69.549836 
L 60.885504 73.748332 
L 60.93312 73.744632 
L 61.123584 75.898928 
L 61.1712 75.902992 
L 61.361664 77.277593 
L 61.599744 77.434394 
L 61.790208 77.82252 
L 61.980672 77.924754 
L 62.12352 78.03515 
L 62.313984 78.127111 
L 62.742528 78.413436 
L 62.885376 78.527762 
L 63.07584 78.570168 
L 63.266304 78.908933 
L 63.694848 79.003251 
L 64.02816 80.652689 
L 64.075776 80.65893 
L 64.218624 81.941597 
L 64.313856 81.967709 
L 64.456704 83.521972 
L 64.551936 83.521639 
L 64.837632 86.847965 
L 64.885248 86.85604 
L 65.075712 87.658883 
L 65.266176 88.335211 
L 65.313792 88.413497 
L 65.45664 91.087475 
L 65.504256 91.082454 
L 65.647104 91.476057 
L 65.742336 91.534438 
L 65.837568 94.204114 
L 65.980416 96.33868 
L 66.17088 96.481865 
L 66.313728 98.775224 
L 66.456576 98.890315 
L 66.599424 99.440661 
L 66.742272 99.595262 
L 66.932736 99.681813 
L 67.027968 99.695097 
L 67.170816 100.021075 
L 67.694592 100.15318 
L 67.885056 100.539045 
L 68.980224 100.810954 
L 69.884928 100.862721 
L 70.170624 101.599622 
L 70.408704 101.653106 
L 70.551552 101.959573 
L 71.599104 102.26067 
L 71.741952 102.80353 
L 71.8848 102.84226 
L 72.075264 103.236324 
L 72.12288 103.280661 
L 72.265728 105.041783 
L 72.36096 105.166295 
L 72.789504 110.889337 
L 72.932352 111.592819 
L 73.0752 113.331627 
L 73.122816 113.330706 
L 73.265664 114.030683 
L 73.31328 114.047799 
L 73.456128 114.398763 
L 73.55136 114.416956 
L 73.694208 114.76002 
L 73.837056 114.912912 
L 73.884672 114.924908 
L 74.075136 118.33323 
L 74.2656 118.432571 
L 74.360832 118.887265 
L 74.551296 121.355239 
L 74.836992 123.679622 
L 75.027456 123.725562 
L 75.170304 125.529772 
L 75.21792 125.7387 
L 75.503616 132.037935 
L 75.551232 132.210599 
L 75.741696 133.912168 
L 75.789312 133.919768 
L 75.884544 140.445163 
L 75.93216 140.44026 
L 76.075008 142.004665 
L 76.17024 142.086123 
L 76.360704 142.861747 
L 76.455936 142.934673 
L 76.694016 144.195993 
L 76.741632 144.198156 
L 76.88448 144.719557 
L 77.074944 145.045882 
L 77.455872 145.16535 
L 77.59872 145.339027 
L 77.932032 145.391024 
L 77.979648 145.551622 
L 78.503424 151.909613 
L 78.836736 151.963061 
L 79.0272 152.048744 
L 82.169856 152.415064 
L 82.36032 152.732303 
L 82.455552 152.743488 
L 82.5984 154.634526 
L 82.788864 157.92963 
L 82.979328 158.884909 
L 83.217408 159.403188 
L 83.360256 160.965294 
L 83.407872 160.965346 
L 83.693568 163.719234 
L 83.884032 163.722557 
L 84.074496 164.836849 
L 84.122112 164.833043 
L 84.26496 165.069717 
L 84.360192 165.083435 
L 84.50304 165.35024 
L 84.693504 165.412229 
L 84.931584 165.441885 
L 85.122048 165.59229 
L 85.741056 165.779858 
L 85.883904 165.833868 
L 85.979136 165.834029 
L 86.312448 171.269312 
L 86.40768 171.276467 
L 86.64576 171.66615 
L 86.788608 171.73164 
L 86.88384 171.746122 
L 87.026688 171.916077 
L 87.264768 172.055222 
L 87.455232 172.276977 
L 88.78848 172.587567 
L 88.978944 172.676866 
L 89.217024 172.69207 
L 89.455104 174.492303 
L 89.550336 177.147196 
L 89.597952 177.141363 
L 89.645568 177.158074 
L 89.788416 178.193481 
L 89.836032 178.184369 
L 90.121728 178.200522 
L 90.264576 179.502119 
L 90.597888 181.74943 
L 90.788352 183.526474 
L 90.978816 183.728788 
L 91.740672 183.874199 
L 91.88352 184.125662 
L 92.645376 184.162543 
L 92.931072 184.541744 
L 93.169152 184.551721 
L 93.312 186.638747 
L 93.359616 186.635207 
L 93.407232 186.632338 
L 93.55008 187.613682 
L 93.645312 187.604441 
L 93.835776 188.615835 
L 94.02624 190.282677 
L 94.169088 190.296307 
L 94.359552 190.878403 
L 94.5024 190.875694 
L 94.597632 191.264466 
L 94.645248 191.255769 
L 95.407104 191.349709 
L 97.83552 191.378983 
L 103.31136 191.681437 
L 105.549312 191.827727 
L 105.739776 192.44755 
L 106.025472 192.815482 
L 106.215936 195.89948 
L 106.263552 195.892701 
L 106.358784 196.68944 
L 106.4064 196.684463 
L 106.88256 196.671134 
L 107.025408 198.111957 
L 107.073024 198.110387 
L 107.215872 198.266532 
L 108.168192 198.386857 
L 108.358656 198.607358 
L 109.26336 198.72574 
L 109.9776 198.745942 
L 110.310912 198.754091 
L 110.45376 199.360722 
L 110.69184 204.065443 
L 110.834688 204.062601 
L 110.977536 204.848387 
L 111.263232 204.960263 
L 111.40608 205.306566 
L 115.548672 205.501523 
L 115.786752 206.093662 
L 116.453376 206.186125 
L 116.596224 206.3561 
L 116.739072 206.430435 
L 117.548544 206.489715 
L 120.548352 206.571317 
L 120.834048 207.395461 
L 121.024512 207.490353 
L 121.214976 209.987517 
L 121.262592 209.991426 
L 121.40544 211.504827 
L 121.595904 212.466078 
L 121.691136 212.452773 
L 121.833984 212.939737 
L 122.262528 213.011235 
L 122.929152 213.293634 
L 123.929088 213.423159 
L 124.881408 213.425083 
L 130.785792 213.653402 
L 130.92864 213.751858 
L 133.404672 213.777645 
L 134.02368 213.797088 
L 143.023104 214.125255 
L 143.165952 214.379515 
L 143.499264 214.374793 
L 143.880192 219.552071 
L 143.927808 219.54891 
L 144.070656 220.047777 
L 144.642048 220.137413 
L 144.784896 220.328296 
L 144.880128 220.323733 
L 145.022976 220.462385 
L 145.594368 220.54736 
L 145.784832 220.639846 
L 146.689536 220.654139 
L 148.737024 220.689485 
L 150.784512 220.733089 
L 151.355904 220.750327 
L 152.546304 220.802499 
L 153.165312 220.807091 
L 153.355776 220.858447 
L 155.069952 220.902138 
L 159.069696 221.07394 
L 159.212544 221.101432 
L 159.355392 221.368688 
L 159.49824 221.461316 
L 159.545856 222.579866 
L 159.641088 222.574679 
L 159.73632 222.578312 
L 159.879168 223.977314 
L 159.926784 223.977363 
L 160.117248 226.547582 
L 160.260096 226.652965 
L 161.450496 226.681909 
L 161.593344 227.153704 
L 161.688576 227.193359 
L 161.831424 227.630379 
L 162.069504 227.777708 
L 162.878976 227.853867 
L 163.831296 228.048192 
L 164.02176 229.835987 
L 164.212224 232.846163 
L 164.402688 233.886543 
L 164.97408 234.041433 
L 165.259776 234.144413 
L 165.497856 234.1407 
L 165.640704 234.435394 
L 165.68832 234.437518 
L 165.878784 234.633194 
L 166.116864 234.732041 
L 166.831104 234.796133 
L 167.35488 234.855493 
L 168.78336 234.883371 
L 168.973824 234.892142 
L 169.164288 236.359153 
L 169.640448 236.490777 
L 169.73568 239.188499 
L 169.783296 239.182879 
L 169.97376 239.209909 
L 170.545152 239.266965 
L 173.878272 239.46254 
L 174.211584 240.014114 
L 174.687744 240.101751 
L 174.830592 241.058441 
L 175.021056 242.375502 
L 175.163904 243.364094 
L 175.259136 243.368834 
L 175.4496 246.468859 
L 175.497216 246.464313 
L 175.544832 246.463585 
L 175.68768 246.76527 
L 176.116224 246.82082 
L 176.306688 246.854651 
L 176.449536 247.132451 
L 177.401856 247.246925 
L 182.972928 247.56479 
L 183.115776 247.866418 
L 183.496704 247.875349 
L 183.734784 247.993645 
L 184.49664 248.084907 
L 184.73472 248.108385 
L 186.210816 248.189199 
L 186.353664 248.260145 
L 186.544128 248.266783 
L 186.63936 249.07625 
L 186.686976 249.07122 
L 187.020288 249.116753 
L 187.210752 249.201851 
L 187.448832 249.42423 
L 187.59168 249.679428 
L 187.82976 249.731244 
L 188.06784 251.638807 
L 188.353536 252.803579 
L 188.496384 252.804653 
L 189.163008 257.245009 
L 189.210624 257.243122 
L 189.686784 261.284327 
L 189.7344 261.283787 
L 189.877248 261.755063 
L 189.924864 261.760294 
L 190.162944 262.231799 
L 190.972416 262.425986 
L 192.019968 262.463467 
L 199.162368 262.622765 
L 199.305216 262.817224 
L 203.923968 263.056056 
L 204.828672 263.054517 
L 209.161728 263.344382 
L 209.304576 263.588791 
L 209.923584 263.626446 
L 210.114048 263.68617 
L 210.828288 263.71536 
L 212.59008 263.722269 
L 213.256704 263.733649 
L 213.923328 263.736776 
L 216.446976 263.744712 
L 217.304064 263.783071 
L 219.01824 263.839516 
L 219.684864 263.958836 
L 219.922944 265.675995 
L 219.97056 265.678476 
L 220.20864 268.228027 
L 220.256256 268.229872 
L 220.494336 270.467677 
L 220.541952 270.460424 
L 220.92288 270.526024 
L 230.827008 270.838253 
L 232.398336 270.843904 
L 240.016896 270.816217 
L 241.016832 270.836722 
L 243.3024 270.886374 
L 243.921408 271.157457 
L 244.159488 271.270235 
L 244.302336 271.348529 
L 244.588032 271.430374 
L 244.826112 271.749784 
L 245.064192 271.813575 
L 245.778432 271.899237 
L 246.064128 271.936952 
L 247.968768 271.914032 
L 248.54016 271.924269 
L 250.492416 271.926002 
L 250.635264 271.998728 
L 251.6352 272.00353 
L 254.158848 272.083237 
L 256.063488 272.076873 
L 258.110976 272.137346 
L 259.444224 272.136605 
L 260.68224 272.289288 
L 260.825088 273.970438 
L 260.92032 273.970003 
L 261.1584 277.574065 
L 261.348864 278.604926 
L 261.586944 278.687638 
L 261.967872 278.727716 
L 262.682112 278.762832 
L 263.30112 278.791378 
L 264.443904 278.827299 
L 264.634368 278.8889 
L 265.20576 278.951432 
L 266.777088 278.994225 
L 267.919872 279.006308 
L 299.298816 279.556912 
L 299.774976 279.563566 
L 300.67968 279.577307 
L 300.965376 279.584594 
L 301.822464 279.609114 
L 303.631872 279.610189 
L 304.298496 279.612133 
L 312.10752 279.616478 
L 312.250368 279.724934 
L 312.297984 279.722171 
L 312.393216 280.622319 
L 312.726528 285.745165 
L 313.440768 285.801234 
L 313.583616 286.358051 
L 315.488256 286.431331 
L 317.535744 286.452399 
L 318.05952 286.443726 
L 318.154752 286.788352 
L 318.202368 286.781508 
L 319.630848 286.801307 
L 320.107008 286.960855 
L 323.011584 287.075881 
L 323.154432 287.21076 
L 324.678144 287.204733 
L 326.106624 287.198729 
L 326.963712 287.213916 
L 327.10656 287.419324 
L 329.868288 287.494476 
L 330.2016 287.513512 
L 331.963392 287.516657 
L 332.153856 287.778959 
L 333.487104 287.817843 
L 333.629952 287.922821 
L 334.296576 287.902838 
L 338.105856 287.928124 
L 338.29632 288.144412 
L 339.677184 288.176543 
L 343.438848 288.256982 
L 343.581696 288.44341 
L 346.15296 288.442405 
L 348.867072 288.518941 
L 349.00992 288.695121 
L 351.15264 288.695163 
L 351.295488 288.785915 
L 352.057344 288.820952 
L 353.676288 288.827003 
L 359.866368 288.861084 
L 363.913728 288.969209 
L 366.056448 289.03121 
L 366.437376 289.143148 
L 366.818304 289.184323 
L 368.53248 289.24475 
L 373.865472 289.27918 
L 375.532032 289.298714 
L 379.103232 289.329474 
L 379.912704 289.37885 
L 381.436416 289.382119 
L 382.150656 289.387181 
L 383.102976 289.389759 
L 384.150528 289.392291 
L 384.293376 289.505227 
L 385.67424 289.652061 
L 387.197952 289.632141 
L 387.721728 289.639224 
L 389.102592 289.631041 
L 391.007232 289.635418 
L 391.15008 289.807043 
L 391.531008 289.82263 
L 391.673856 289.952603 
L 391.86432 290.041212 
L 392.007168 290.036399 
L 392.150016 290.271233 
L 392.57856 290.325565 
L 392.81664 290.383057 
L 394.530816 290.433579 
L 403.673088 290.457967 
L 405.339648 290.450075 
L 406.530048 290.454426 
L 410.101248 290.469803 
L 410.291712 290.531992 
L 410.339328 290.541661 
L 410.482176 290.832134 
L 410.577408 290.837471 
L 410.720256 291.873494 
L 410.863104 291.859851 
L 411.005952 292.046315 
L 411.196416 292.097598 
L 411.339264 292.882779 
L 411.482112 293.309996 
L 412.434432 293.342139 
L 412.672512 293.342279 
L 412.81536 293.659501 
L 413.481984 293.677428 
L 413.624832 295.226639 
L 413.958144 295.22746 
L 414.100992 295.353453 
L 414.672384 295.487357 
L 414.672384 295.487357 
" clip-path="url(#pcbd59f4359)" style="fill: none; stroke: #1f77b4; stroke-opacity: 0.3; stroke-width: 1.5; stroke-linecap: square"/>
   </g>
   <g id="patch_3">
    <path d="M 57.6 307.584 
L 57.6 41.472 
" style="fill: none; stroke: #000000; stroke-width: 0.8; stroke-linejoin: miter; stroke-linecap: square"/>
   </g>
   <g id="patch_4">
    <path d="M 414.72 307.584 
L 414.72 41.472 
" style="fill: none; stroke: #000000; stroke-width: 0.8; stroke-linejoin: miter; stroke-linecap: square"/>
   </g>
   <g id="patch_5">
    <path d="M 57.6 307.584 
L 414.72 307.584 
" style="fill: none; stroke: #000000; stroke-width: 0.8; stroke-linejoin: miter; stroke-linecap: square"/>
   </g>
   <g id="patch_6">
    <path d="M 57.6 41.472 
L 414.72 41.472 
" style="fill: none; stroke: #000000; stroke-width: 0.8; stroke-linejoin: miter; stroke-linecap: square"/>
   </g>
   <g id="text_17">
    <!-- Average $\chi^2$ by Step -->
    <g transform="translate(177.72 35.472)scale(0.12 -0.12)">
     <defs>
      <path id="DejaVuSans-41" d="M 2188 4044 
L 1331 1722 
L 3047 1722 
L 2188 4044 
z
M 1831 4666 
L 2547 4666 
L 4325 0 
L 3669 0 
L 3244 1197 
L 1141 1197 
L 716 0 
L 50 0 
L 1831 4666 
z
" transform="scale(0.015625)"/>
      <path id="DejaVuSans-76" d="M 191 3500 
L 800 3500 
L 1894 563 
L 2988 3500 
L 3597 3500 
L 2284 0 
L 1503 0 
L 191 3500 
z
" transform="scale(0.015625)"/>
      <path id="DejaVuSans-72" d="M 2631 2963 
Q 2534 3019 2420 3045 
Q 2306 3072 2169 3072 
Q 1681 3072 1420 2755 
Q 1159 2438 1159 1844 
L 1159 0 
L 581 0 
L 581 3500 
L 1159 3500 
L 1159 2956 
Q 1341 3275 1631 3429 
Q 1922 3584 2338 3584 
Q 2397 3584 2469 3576 
Q 2541 3569 2628 3553 
L 2631 2963 
z
" transform="scale(0.015625)"/>
      <path id="DejaVuSans-61" d="M 2194 1759 
Q 1497 1759 1228 1600 
Q 959 1441 959 1056 
Q 959 750 1161 570 
Q 1363 391 1709 391 
Q 2188 391 2477 730 
Q 2766 1069 2766 1631 
L 2766 1759 
L 2194 1759 
z
M 3341 1997 
L 3341 0 
L 2766 0 
L 2766 531 
Q 2569 213 2275 61 
Q 1981 -91 1556 -91 
Q 1019 -91 701 211 
Q 384 513 384 1019 
Q 384 1609 779 1909 
Q 1175 2209 1959 2209 
L 2766 2209 
L 2766 2266 
Q 2766 2663 2505 2880 
Q 2244 3097 1772 3097 
Q 1472 3097 1187 3025 
Q 903 2953 641 2809 
L 641 3341 
Q 956 3463 1253 3523 
Q 1550 3584 1831 3584 
Q 2591 3584 2966 3190 
Q 3341 2797 3341 1997 
z
" transform="scale(0.015625)"/>
      <path id="DejaVuSans-67" d="M 2906 1791 
Q 2906 2416 2648 2759 
Q 2391 3103 1925 3103 
Q 1463 3103 1205 2759 
Q 947 2416 947 1791 
Q 947 1169 1205 825 
Q 1463 481 1925 481 
Q 2391 481 2648 825 
Q 2906 1169 2906 1791 
z
M 3481 434 
Q 3481 -459 3084 -895 
Q 2688 -1331 1869 -1331 
Q 1566 -1331 1297 -1286 
Q 1028 -1241 775 -1147 
L 775 -588 
Q 1028 -725 1275 -790 
Q 1522 -856 1778 -856 
Q 2344 -856 2625 -561 
Q 2906 -266 2906 331 
L 2906 616 
Q 2728 306 2450 153 
Q 2172 0 1784 0 
Q 1141 0 747 490 
Q 353 981 353 1791 
Q 353 2603 747 3093 
Q 1141 3584 1784 3584 
Q 2172 3584 2450 3431 
Q 2728 3278 2906 2969 
L 2906 3500 
L 3481 3500 
L 3481 434 
z
" transform="scale(0.015625)"/>
      <path id="DejaVuSans-20" transform="scale(0.015625)"/>
      <path id="DejaVuSans-62" d="M 3116 1747 
Q 3116 2381 2855 2742 
Q 2594 3103 2138 3103 
Q 1681 3103 1420 2742 
Q 1159 2381 1159 1747 
Q 1159 1113 1420 752 
Q 1681 391 2138 391 
Q 2594 391 2855 752 
Q 3116 1113 3116 1747 
z
M 1159 2969 
Q 1341 3281 1617 3432 
Q 1894 3584 2278 3584 
Q 2916 3584 3314 3078 
Q 3713 2572 3713 1747 
Q 3713 922 3314 415 
Q 2916 -91 2278 -91 
Q 1894 -91 1617 61 
Q 1341 213 1159 525 
L 1159 0 
L 581 0 
L 581 4863 
L 1159 4863 
L 1159 2969 
z
" transform="scale(0.015625)"/>
      <path id="DejaVuSans-79" d="M 2059 -325 
Q 1816 -950 1584 -1140 
Q 1353 -1331 966 -1331 
L 506 -1331 
L 506 -850 
L 844 -850 
Q 1081 -850 1212 -737 
Q 1344 -625 1503 -206 
L 1606 56 
L 191 3500 
L 800 3500 
L 1894 763 
L 2988 3500 
L 3597 3500 
L 2059 -325 
z
" transform="scale(0.015625)"/>
      <path id="DejaVuSans-53" d="M 3425 4513 
L 3425 3897 
Q 3066 4069 2747 4153 
Q 2428 4238 2131 4238 
Q 1616 4238 1336 4038 
Q 1056 3838 1056 3469 
Q 1056 3159 1242 3001 
Q 1428 2844 1947 2747 
L 2328 2669 
Q 3034 2534 3370 2195 
Q 3706 1856 3706 1288 
Q 3706 609 3251 259 
Q 2797 -91 1919 -91 
Q 1588 -91 1214 -16 
Q 841 59 441 206 
L 441 856 
Q 825 641 1194 531 
Q 1563 422 1919 422 
Q 2459 422 2753 634 
Q 3047 847 3047 1241 
Q 3047 1584 2836 1778 
Q 2625 1972 2144 2069 
L 1759 2144 
Q 1053 2284 737 2584 
Q 422 2884 422 3419 
Q 422 4038 858 4394 
Q 1294 4750 2059 4750 
Q 2388 4750 2728 4690 
Q 3069 4631 3425 4513 
z
" transform="scale(0.015625)"/>
     </defs>
     <use xlink:href="#DejaVuSans-41" transform="translate(0 0.765625)"/>
     <use xlink:href="#DejaVuSans-76" transform="translate(68.408203 0.765625)"/>
     <use xlink:href="#DejaVuSans-65" transform="translate(127.587891 0.765625)"/>
     <use xlink:href="#DejaVuSans-72" transform="translate(189.111328 0.765625)"/>
     <use xlink:href="#DejaVuSans-61" transform="translate(230.224609 0.765625)"/>
     <use xlink:href="#DejaVuSans-67" transform="translate(291.503906 0.765625)"/>
     <use xlink:href="#DejaVuSans-65" transform="translate(354.980469 0.765625)"/>
     <use xlink:href="#DejaVuSans-20" transform="translate(416.503906 0.765625)"/>
     <use xlink:href="#DejaVuSans-Oblique-3c7" transform="translate(448.291016 0.765625)"/>
     <use xlink:href="#DejaVuSans-32" transform="translate(511.943411 39.046875)scale(0.7)"/>
     <use xlink:href="#DejaVuSans-20" transform="translate(559.213919 0.765625)"/>
     <use xlink:href="#DejaVuSans-62" transform="translate(591.001029 0.765625)"/>
     <use xlink:href="#DejaVuSans-79" transform="translate(654.477591 0.765625)"/>
     <use xlink:href="#DejaVuSans-20" transform="translate(713.657279 0.765625)"/>
     <use xlink:href="#DejaVuSans-53" transform="translate(745.444388 0.765625)"/>
     <use xlink:href="#DejaVuSans-74" transform="translate(808.920951 0.765625)"/>
     <use xlink:href="#DejaVuSans-65" transform="translate(848.129935 0.765625)"/>
     <use xlink:href="#DejaVuSans-70" transform="translate(909.653372 0.765625)"/>
    </g>
   </g>
  </g>
 </g>
 <defs>
  <clipPath id="pcbd59f4359">
   <rect x="57.6" y="41.472" width="357.12" height="266.112"/>
  </clipPath>
 </defs>
</svg>
