<?xml version="1.0" encoding="utf-8" standalone="no"?>
<!DOCTYPE svg PUBLIC "-//W3C//DTD SVG 1.1//EN"
  "http://www.w3.org/Graphics/SVG/1.1/DTD/svg11.dtd">
<svg xmlns:xlink="http://www.w3.org/1999/xlink" width="460.8pt" height="345.6pt" viewBox="0 0 460.8 345.6" xmlns="http://www.w3.org/2000/svg" version="1.1">
 <metadata>
  <rdf:RDF xmlns:dc="http://purl.org/dc/elements/1.1/" xmlns:cc="http://creativecommons.org/ns#" xmlns:rdf="http://www.w3.org/1999/02/22-rdf-syntax-ns#">
   <cc:Work>
    <dc:type rdf:resource="http://purl.org/dc/dcmitype/StillImage"/>
    <dc:date>2022-06-09T23:06:16.365093</dc:date>
    <dc:format>image/svg+xml</dc:format>
    <dc:creator>
     <cc:Agent>
      <dc:title>Matplotlib v3.5.0, https://matplotlib.org/</dc:title>
     </cc:Agent>
    </dc:creator>
   </cc:Work>
  </rdf:RDF>
 </metadata>
 <defs>
  <style type="text/css">*{stroke-linejoin: round; stroke-linecap: butt}</style>
 </defs>
 <g id="figure_1">
  <g id="patch_1">
   <path d="M 0 345.6 
L 460.8 345.6 
L 460.8 0 
L 0 0 
z
" style="fill: #ffffff"/>
  </g>
  <g id="axes_1">
   <g id="patch_2">
    <path d="M 57.6 307.584 
L 414.72 307.584 
L 414.72 41.472 
L 57.6 41.472 
z
" style="fill: #ffffff"/>
   </g>
   <g id="matplotlib.axis_1">
    <g id="xtick_1">
     <g id="line2d_1">
      <defs>
       <path id="m6a7a317f74" d="M 0 0 
L 0 3.5 
" style="stroke: #000000; stroke-width: 0.8"/>
      </defs>
      <g>
       <use xlink:href="#m6a7a317f74" x="61.324816" y="307.584" style="stroke: #000000; stroke-width: 0.8"/>
      </g>
     </g>
     <g id="text_1">
      <!-- 5 -->
      <g transform="translate(58.143566 322.182437)scale(0.1 -0.1)">
       <defs>
        <path id="DejaVuSans-35" d="M 691 4666 
L 3169 4666 
L 3169 4134 
L 1269 4134 
L 1269 2991 
Q 1406 3038 1543 3061 
Q 1681 3084 1819 3084 
Q 2600 3084 3056 2656 
Q 3513 2228 3513 1497 
Q 3513 744 3044 326 
Q 2575 -91 1722 -91 
Q 1428 -91 1123 -41 
Q 819 9 494 109 
L 494 744 
Q 775 591 1075 516 
Q 1375 441 1709 441 
Q 2250 441 2565 725 
Q 2881 1009 2881 1497 
Q 2881 1984 2565 2268 
Q 2250 2553 1709 2553 
Q 1456 2553 1204 2497 
Q 953 2441 691 2322 
L 691 4666 
z
" transform="scale(0.015625)"/>
       </defs>
       <use xlink:href="#DejaVuSans-35"/>
      </g>
     </g>
    </g>
    <g id="xtick_2">
     <g id="line2d_2">
      <g>
       <use xlink:href="#m6a7a317f74" x="134.863392" y="307.584" style="stroke: #000000; stroke-width: 0.8"/>
      </g>
     </g>
     <g id="text_2">
      <!-- 10 -->
      <g transform="translate(128.500892 322.182437)scale(0.1 -0.1)">
       <defs>
        <path id="DejaVuSans-31" d="M 794 531 
L 1825 531 
L 1825 4091 
L 703 3866 
L 703 4441 
L 1819 4666 
L 2450 4666 
L 2450 531 
L 3481 531 
L 3481 0 
L 794 0 
L 794 531 
z
" transform="scale(0.015625)"/>
        <path id="DejaVuSans-30" d="M 2034 4250 
Q 1547 4250 1301 3770 
Q 1056 3291 1056 2328 
Q 1056 1369 1301 889 
Q 1547 409 2034 409 
Q 2525 409 2770 889 
Q 3016 1369 3016 2328 
Q 3016 3291 2770 3770 
Q 2525 4250 2034 4250 
z
M 2034 4750 
Q 2819 4750 3233 4129 
Q 3647 3509 3647 2328 
Q 3647 1150 3233 529 
Q 2819 -91 2034 -91 
Q 1250 -91 836 529 
Q 422 1150 422 2328 
Q 422 3509 836 4129 
Q 1250 4750 2034 4750 
z
" transform="scale(0.015625)"/>
       </defs>
       <use xlink:href="#DejaVuSans-31"/>
       <use xlink:href="#DejaVuSans-30" x="63.623047"/>
      </g>
     </g>
    </g>
    <g id="xtick_3">
     <g id="line2d_3">
      <g>
       <use xlink:href="#m6a7a317f74" x="208.401967" y="307.584" style="stroke: #000000; stroke-width: 0.8"/>
      </g>
     </g>
     <g id="text_3">
      <!-- 15 -->
      <g transform="translate(202.039467 322.182437)scale(0.1 -0.1)">
       <use xlink:href="#DejaVuSans-31"/>
       <use xlink:href="#DejaVuSans-35" x="63.623047"/>
      </g>
     </g>
    </g>
    <g id="xtick_4">
     <g id="line2d_4">
      <g>
       <use xlink:href="#m6a7a317f74" x="281.940543" y="307.584" style="stroke: #000000; stroke-width: 0.8"/>
      </g>
     </g>
     <g id="text_4">
      <!-- 20 -->
      <g transform="translate(275.578043 322.182437)scale(0.1 -0.1)">
       <defs>
        <path id="DejaVuSans-32" d="M 1228 531 
L 3431 531 
L 3431 0 
L 469 0 
L 469 531 
Q 828 903 1448 1529 
Q 2069 2156 2228 2338 
Q 2531 2678 2651 2914 
Q 2772 3150 2772 3378 
Q 2772 3750 2511 3984 
Q 2250 4219 1831 4219 
Q 1534 4219 1204 4116 
Q 875 4013 500 3803 
L 500 4441 
Q 881 4594 1212 4672 
Q 1544 4750 1819 4750 
Q 2544 4750 2975 4387 
Q 3406 4025 3406 3419 
Q 3406 3131 3298 2873 
Q 3191 2616 2906 2266 
Q 2828 2175 2409 1742 
Q 1991 1309 1228 531 
z
" transform="scale(0.015625)"/>
       </defs>
       <use xlink:href="#DejaVuSans-32"/>
       <use xlink:href="#DejaVuSans-30" x="63.623047"/>
      </g>
     </g>
    </g>
    <g id="xtick_5">
     <g id="line2d_5">
      <g>
       <use xlink:href="#m6a7a317f74" x="355.479119" y="307.584" style="stroke: #000000; stroke-width: 0.8"/>
      </g>
     </g>
     <g id="text_5">
      <!-- 25 -->
      <g transform="translate(349.116619 322.182437)scale(0.1 -0.1)">
       <use xlink:href="#DejaVuSans-32"/>
       <use xlink:href="#DejaVuSans-35" x="63.623047"/>
      </g>
     </g>
    </g>
    <g id="text_6">
     <!-- log(v) -->
     <g transform="translate(221.676406 335.860562)scale(0.1 -0.1)">
      <defs>
       <path id="DejaVuSans-6c" d="M 603 4863 
L 1178 4863 
L 1178 0 
L 603 0 
L 603 4863 
z
" transform="scale(0.015625)"/>
       <path id="DejaVuSans-6f" d="M 1959 3097 
Q 1497 3097 1228 2736 
Q 959 2375 959 1747 
Q 959 1119 1226 758 
Q 1494 397 1959 397 
Q 2419 397 2687 759 
Q 2956 1122 2956 1747 
Q 2956 2369 2687 2733 
Q 2419 3097 1959 3097 
z
M 1959 3584 
Q 2709 3584 3137 3096 
Q 3566 2609 3566 1747 
Q 3566 888 3137 398 
Q 2709 -91 1959 -91 
Q 1206 -91 779 398 
Q 353 888 353 1747 
Q 353 2609 779 3096 
Q 1206 3584 1959 3584 
z
" transform="scale(0.015625)"/>
       <path id="DejaVuSans-67" d="M 2906 1791 
Q 2906 2416 2648 2759 
Q 2391 3103 1925 3103 
Q 1463 3103 1205 2759 
Q 947 2416 947 1791 
Q 947 1169 1205 825 
Q 1463 481 1925 481 
Q 2391 481 2648 825 
Q 2906 1169 2906 1791 
z
M 3481 434 
Q 3481 -459 3084 -895 
Q 2688 -1331 1869 -1331 
Q 1566 -1331 1297 -1286 
Q 1028 -1241 775 -1147 
L 775 -588 
Q 1028 -725 1275 -790 
Q 1522 -856 1778 -856 
Q 2344 -856 2625 -561 
Q 2906 -266 2906 331 
L 2906 616 
Q 2728 306 2450 153 
Q 2172 0 1784 0 
Q 1141 0 747 490 
Q 353 981 353 1791 
Q 353 2603 747 3093 
Q 1141 3584 1784 3584 
Q 2172 3584 2450 3431 
Q 2728 3278 2906 2969 
L 2906 3500 
L 3481 3500 
L 3481 434 
z
" transform="scale(0.015625)"/>
       <path id="DejaVuSans-28" d="M 1984 4856 
Q 1566 4138 1362 3434 
Q 1159 2731 1159 2009 
Q 1159 1288 1364 580 
Q 1569 -128 1984 -844 
L 1484 -844 
Q 1016 -109 783 600 
Q 550 1309 550 2009 
Q 550 2706 781 3412 
Q 1013 4119 1484 4856 
L 1984 4856 
z
" transform="scale(0.015625)"/>
       <path id="DejaVuSans-76" d="M 191 3500 
L 800 3500 
L 1894 563 
L 2988 3500 
L 3597 3500 
L 2284 0 
L 1503 0 
L 191 3500 
z
" transform="scale(0.015625)"/>
       <path id="DejaVuSans-29" d="M 513 4856 
L 1013 4856 
Q 1481 4119 1714 3412 
Q 1947 2706 1947 2009 
Q 1947 1309 1714 600 
Q 1481 -109 1013 -844 
L 513 -844 
Q 928 -128 1133 580 
Q 1338 1288 1338 2009 
Q 1338 2731 1133 3434 
Q 928 4138 513 4856 
z
" transform="scale(0.015625)"/>
      </defs>
      <use xlink:href="#DejaVuSans-6c"/>
      <use xlink:href="#DejaVuSans-6f" x="27.783203"/>
      <use xlink:href="#DejaVuSans-67" x="88.964844"/>
      <use xlink:href="#DejaVuSans-28" x="152.441406"/>
      <use xlink:href="#DejaVuSans-76" x="191.455078"/>
      <use xlink:href="#DejaVuSans-29" x="250.634766"/>
     </g>
    </g>
   </g>
   <g id="matplotlib.axis_2">
    <g id="ytick_1">
     <g id="line2d_6">
      <defs>
       <path id="m714e37bbe5" d="M 0 0 
L -3.5 0 
" style="stroke: #000000; stroke-width: 0.8"/>
      </defs>
      <g>
       <use xlink:href="#m714e37bbe5" x="57.6" y="305.651678" style="stroke: #000000; stroke-width: 0.8"/>
      </g>
     </g>
     <g id="text_7">
      <!-- −15 -->
      <g transform="translate(29.495313 309.450897)scale(0.1 -0.1)">
       <defs>
        <path id="DejaVuSans-2212" d="M 678 2272 
L 4684 2272 
L 4684 1741 
L 678 1741 
L 678 2272 
z
" transform="scale(0.015625)"/>
       </defs>
       <use xlink:href="#DejaVuSans-2212"/>
       <use xlink:href="#DejaVuSans-31" x="83.789062"/>
       <use xlink:href="#DejaVuSans-35" x="147.412109"/>
      </g>
     </g>
    </g>
    <g id="ytick_2">
     <g id="line2d_7">
      <g>
       <use xlink:href="#m714e37bbe5" x="57.6" y="258.88917" style="stroke: #000000; stroke-width: 0.8"/>
      </g>
     </g>
     <g id="text_8">
      <!-- −14 -->
      <g transform="translate(29.495313 262.688389)scale(0.1 -0.1)">
       <defs>
        <path id="DejaVuSans-34" d="M 2419 4116 
L 825 1625 
L 2419 1625 
L 2419 4116 
z
M 2253 4666 
L 3047 4666 
L 3047 1625 
L 3713 1625 
L 3713 1100 
L 3047 1100 
L 3047 0 
L 2419 0 
L 2419 1100 
L 313 1100 
L 313 1709 
L 2253 4666 
z
" transform="scale(0.015625)"/>
       </defs>
       <use xlink:href="#DejaVuSans-2212"/>
       <use xlink:href="#DejaVuSans-31" x="83.789062"/>
       <use xlink:href="#DejaVuSans-34" x="147.412109"/>
      </g>
     </g>
    </g>
    <g id="ytick_3">
     <g id="line2d_8">
      <g>
       <use xlink:href="#m714e37bbe5" x="57.6" y="212.126662" style="stroke: #000000; stroke-width: 0.8"/>
      </g>
     </g>
     <g id="text_9">
      <!-- −13 -->
      <g transform="translate(29.495313 215.92588)scale(0.1 -0.1)">
       <defs>
        <path id="DejaVuSans-33" d="M 2597 2516 
Q 3050 2419 3304 2112 
Q 3559 1806 3559 1356 
Q 3559 666 3084 287 
Q 2609 -91 1734 -91 
Q 1441 -91 1130 -33 
Q 819 25 488 141 
L 488 750 
Q 750 597 1062 519 
Q 1375 441 1716 441 
Q 2309 441 2620 675 
Q 2931 909 2931 1356 
Q 2931 1769 2642 2001 
Q 2353 2234 1838 2234 
L 1294 2234 
L 1294 2753 
L 1863 2753 
Q 2328 2753 2575 2939 
Q 2822 3125 2822 3475 
Q 2822 3834 2567 4026 
Q 2313 4219 1838 4219 
Q 1578 4219 1281 4162 
Q 984 4106 628 3988 
L 628 4550 
Q 988 4650 1302 4700 
Q 1616 4750 1894 4750 
Q 2613 4750 3031 4423 
Q 3450 4097 3450 3541 
Q 3450 3153 3228 2886 
Q 3006 2619 2597 2516 
z
" transform="scale(0.015625)"/>
       </defs>
       <use xlink:href="#DejaVuSans-2212"/>
       <use xlink:href="#DejaVuSans-31" x="83.789062"/>
       <use xlink:href="#DejaVuSans-33" x="147.412109"/>
      </g>
     </g>
    </g>
    <g id="ytick_4">
     <g id="line2d_9">
      <g>
       <use xlink:href="#m714e37bbe5" x="57.6" y="165.364154" style="stroke: #000000; stroke-width: 0.8"/>
      </g>
     </g>
     <g id="text_10">
      <!-- −12 -->
      <g transform="translate(29.495313 169.163372)scale(0.1 -0.1)">
       <use xlink:href="#DejaVuSans-2212"/>
       <use xlink:href="#DejaVuSans-31" x="83.789062"/>
       <use xlink:href="#DejaVuSans-32" x="147.412109"/>
      </g>
     </g>
    </g>
    <g id="ytick_5">
     <g id="line2d_10">
      <g>
       <use xlink:href="#m714e37bbe5" x="57.6" y="118.601646" style="stroke: #000000; stroke-width: 0.8"/>
      </g>
     </g>
     <g id="text_11">
      <!-- −11 -->
      <g transform="translate(29.495313 122.400864)scale(0.1 -0.1)">
       <use xlink:href="#DejaVuSans-2212"/>
       <use xlink:href="#DejaVuSans-31" x="83.789062"/>
       <use xlink:href="#DejaVuSans-31" x="147.412109"/>
      </g>
     </g>
    </g>
    <g id="ytick_6">
     <g id="line2d_11">
      <g>
       <use xlink:href="#m714e37bbe5" x="57.6" y="71.839137" style="stroke: #000000; stroke-width: 0.8"/>
      </g>
     </g>
     <g id="text_12">
      <!-- −10 -->
      <g transform="translate(29.495313 75.638356)scale(0.1 -0.1)">
       <use xlink:href="#DejaVuSans-2212"/>
       <use xlink:href="#DejaVuSans-31" x="83.789062"/>
       <use xlink:href="#DejaVuSans-30" x="147.412109"/>
      </g>
     </g>
    </g>
    <g id="text_13">
     <!-- log(vFv) -->
     <g transform="translate(23.415625 194.84675)rotate(-90)scale(0.1 -0.1)">
      <defs>
       <path id="DejaVuSans-46" d="M 628 4666 
L 3309 4666 
L 3309 4134 
L 1259 4134 
L 1259 2759 
L 3109 2759 
L 3109 2228 
L 1259 2228 
L 1259 0 
L 628 0 
L 628 4666 
z
" transform="scale(0.015625)"/>
      </defs>
      <use xlink:href="#DejaVuSans-6c"/>
      <use xlink:href="#DejaVuSans-6f" x="27.783203"/>
      <use xlink:href="#DejaVuSans-67" x="88.964844"/>
      <use xlink:href="#DejaVuSans-28" x="152.441406"/>
      <use xlink:href="#DejaVuSans-76" x="191.455078"/>
      <use xlink:href="#DejaVuSans-46" x="250.634766"/>
      <use xlink:href="#DejaVuSans-76" x="308.154297"/>
      <use xlink:href="#DejaVuSans-29" x="367.333984"/>
     </g>
    </g>
   </g>
   <g id="line2d_12">
    <defs>
     <path id="m0f3802d368" d="M 0 1.5 
C 0.397805 1.5 0.77937 1.341951 1.06066 1.06066 
C 1.341951 0.77937 1.5 0.397805 1.5 0 
C 1.5 -0.397805 1.341951 -0.77937 1.06066 -1.06066 
C 0.77937 -1.341951 0.397805 -1.5 0 -1.5 
C -0.397805 -1.5 -0.77937 -1.341951 -1.06066 -1.06066 
C -1.341951 -0.77937 -1.5 -0.397805 -1.5 0 
C -1.5 0.397805 -1.341951 0.77937 -1.06066 1.06066 
C -0.77937 1.341951 -0.397805 1.5 0 1.5 
z
" style="stroke: #1f77b4"/>
    </defs>
    <g clip-path="url(#p97e251d5f2)">
     <use xlink:href="#m0f3802d368" x="204.563091" y="87.965729" style="fill: #1f77b4; stroke: #1f77b4"/>
     <use xlink:href="#m0f3802d368" x="205.962764" y="85.197794" style="fill: #1f77b4; stroke: #1f77b4"/>
     <use xlink:href="#m0f3802d368" x="207.477058" y="85.315754" style="fill: #1f77b4; stroke: #1f77b4"/>
     <use xlink:href="#m0f3802d368" x="209.311557" y="86.451067" style="fill: #1f77b4; stroke: #1f77b4"/>
     <use xlink:href="#m0f3802d368" x="211.221596" y="87.302709" style="fill: #1f77b4; stroke: #1f77b4"/>
     <use xlink:href="#m0f3802d368" x="241.870043" y="126.137466" style="fill: #1f77b4; stroke: #1f77b4"/>
     <use xlink:href="#m0f3802d368" x="242.676742" y="128.408437" style="fill: #1f77b4; stroke: #1f77b4"/>
     <use xlink:href="#m0f3802d368" x="243.328041" y="123.621552" style="fill: #1f77b4; stroke: #1f77b4"/>
     <use xlink:href="#m0f3802d368" x="244.007544" y="124.96521" style="fill: #1f77b4; stroke: #1f77b4"/>
     <use xlink:href="#m0f3802d368" x="244.621661" y="120.763958" style="fill: #1f77b4; stroke: #1f77b4"/>
     <use xlink:href="#m0f3802d368" x="245.206212" y="126.078686" style="fill: #1f77b4; stroke: #1f77b4"/>
     <use xlink:href="#m0f3802d368" x="246.00426" y="132.51674" style="fill: #1f77b4; stroke: #1f77b4"/>
     <use xlink:href="#m0f3802d368" x="246.921171" y="129.282788" style="fill: #1f77b4; stroke: #1f77b4"/>
     <use xlink:href="#m0f3802d368" x="248.026674" y="129.910942" style="fill: #1f77b4; stroke: #1f77b4"/>
     <use xlink:href="#m0f3802d368" x="250.453122" y="139.181516" style="fill: #1f77b4; stroke: #1f77b4"/>
     <use xlink:href="#m0f3802d368" x="252.898992" y="145.267859" style="fill: #1f77b4; stroke: #1f77b4"/>
     <use xlink:href="#m0f3802d368" x="320.504343" y="102.496999" style="fill: #1f77b4; stroke: #1f77b4"/>
     <use xlink:href="#m0f3802d368" x="327.858201" y="89.700166" style="fill: #1f77b4; stroke: #1f77b4"/>
     <use xlink:href="#m0f3802d368" x="335.212058" y="91.066397" style="fill: #1f77b4; stroke: #1f77b4"/>
     <use xlink:href="#m0f3802d368" x="342.565916" y="91.118807" style="fill: #1f77b4; stroke: #1f77b4"/>
     <use xlink:href="#m0f3802d368" x="349.919773" y="92.475031" style="fill: #1f77b4; stroke: #1f77b4"/>
     <use xlink:href="#m0f3802d368" x="357.273631" y="92.644037" style="fill: #1f77b4; stroke: #1f77b4"/>
     <use xlink:href="#m0f3802d368" x="363.700185" y="97.18994" style="fill: #1f77b4; stroke: #1f77b4"/>
     <use xlink:href="#m0f3802d368" x="364.436392" y="104.32265" style="fill: #1f77b4; stroke: #1f77b4"/>
     <use xlink:href="#m0f3802d368" x="365.171395" y="107.352959" style="fill: #1f77b4; stroke: #1f77b4"/>
     <use xlink:href="#m0f3802d368" x="365.903379" y="102.22317" style="fill: #1f77b4; stroke: #1f77b4"/>
     <use xlink:href="#m0f3802d368" x="366.638579" y="122.459295" style="fill: #1f77b4; stroke: #1f77b4"/>
     <use xlink:href="#m0f3802d368" x="367.372646" y="119.70758" style="fill: #1f77b4; stroke: #1f77b4"/>
     <use xlink:href="#m0f3802d368" x="368.108431" y="125.188692" style="fill: #1f77b4; stroke: #1f77b4"/>
     <use xlink:href="#m0f3802d368" x="369.17713" y="145.042622" style="fill: #1f77b4; stroke: #1f77b4"/>
    </g>
   </g>
   <g id="LineCollection_1">
    <path d="M 204.563091 89.549027 
L 204.563091 86.496991 
" clip-path="url(#p97e251d5f2)" style="fill: none; stroke: #000000; stroke-width: 1.5"/>
    <path d="M 205.962764 85.645726 
L 205.962764 84.75953 
" clip-path="url(#p97e251d5f2)" style="fill: none; stroke: #000000; stroke-width: 1.5"/>
    <path d="M 207.477058 85.814765 
L 207.477058 84.828712 
" clip-path="url(#p97e251d5f2)" style="fill: none; stroke: #000000; stroke-width: 1.5"/>
    <path d="M 209.311557 86.880941 
L 209.311557 86.030103 
" clip-path="url(#p97e251d5f2)" style="fill: none; stroke: #000000; stroke-width: 1.5"/>
    <path d="M 211.221596 87.740531 
L 211.221596 86.874127 
" clip-path="url(#p97e251d5f2)" style="fill: none; stroke: #000000; stroke-width: 1.5"/>
    <path d="M 241.870043 129.490021 
L 241.870043 123.260728 
" clip-path="url(#p97e251d5f2)" style="fill: none; stroke: #000000; stroke-width: 1.5"/>
    <path d="M 242.676742 132.157285 
L 242.676742 125.244949 
" clip-path="url(#p97e251d5f2)" style="fill: none; stroke: #000000; stroke-width: 1.5"/>
    <path d="M 243.328041 126.644092 
L 243.328041 120.991127 
" clip-path="url(#p97e251d5f2)" style="fill: none; stroke: #000000; stroke-width: 1.5"/>
    <path d="M 244.007544 127.821243 
L 244.007544 122.461751 
" clip-path="url(#p97e251d5f2)" style="fill: none; stroke: #000000; stroke-width: 1.5"/>
    <path d="M 244.621661 123.569612 
L 244.621661 118.299277 
" clip-path="url(#p97e251d5f2)" style="fill: none; stroke: #000000; stroke-width: 1.5"/>
    <path d="M 245.206212 129.019899 
L 245.206212 123.510044 
" clip-path="url(#p97e251d5f2)" style="fill: none; stroke: #000000; stroke-width: 1.5"/>
    <path d="M 246.00426 135.283926 
L 246.00426 130.081784 
" clip-path="url(#p97e251d5f2)" style="fill: none; stroke: #000000; stroke-width: 1.5"/>
    <path d="M 246.921171 132.054615 
L 246.921171 126.84424 
" clip-path="url(#p97e251d5f2)" style="fill: none; stroke: #000000; stroke-width: 1.5"/>
    <path d="M 248.026674 132.743655 
L 248.026674 127.425411 
" clip-path="url(#p97e251d5f2)" style="fill: none; stroke: #000000; stroke-width: 1.5"/>
    <path d="M 250.453122 142.00396 
L 250.453122 136.703891 
" clip-path="url(#p97e251d5f2)" style="fill: none; stroke: #000000; stroke-width: 1.5"/>
    <path d="M 252.898992 150.412754 
L 252.898992 141.166434 
" clip-path="url(#p97e251d5f2)" style="fill: none; stroke: #000000; stroke-width: 1.5"/>
    <path d="M 320.504343 106.732272 
L 320.504343 98.994373 
" clip-path="url(#p97e251d5f2)" style="fill: none; stroke: #000000; stroke-width: 1.5"/>
    <path d="M 327.858201 91.521602 
L 327.858201 88.02873 
" clip-path="url(#p97e251d5f2)" style="fill: none; stroke: #000000; stroke-width: 1.5"/>
    <path d="M 335.212058 93.504924 
L 335.212058 88.889533 
" clip-path="url(#p97e251d5f2)" style="fill: none; stroke: #000000; stroke-width: 1.5"/>
    <path d="M 342.565916 94.790058 
L 342.565916 88.01071 
" clip-path="url(#p97e251d5f2)" style="fill: none; stroke: #000000; stroke-width: 1.5"/>
    <path d="M 349.919773 100.238151 
L 349.919773 86.872424 
" clip-path="url(#p97e251d5f2)" style="fill: none; stroke: #000000; stroke-width: 1.5"/>
    <path d="M 357.273631 106.777604 
L 357.273631 84.39072 
" clip-path="url(#p97e251d5f2)" style="fill: none; stroke: #000000; stroke-width: 1.5"/>
    <path d="M 363.700185 101.449327 
L 363.700185 93.670856 
" clip-path="url(#p97e251d5f2)" style="fill: none; stroke: #000000; stroke-width: 1.5"/>
    <path d="M 364.436392 108.766624 
L 364.436392 100.678668 
" clip-path="url(#p97e251d5f2)" style="fill: none; stroke: #000000; stroke-width: 1.5"/>
    <path d="M 365.171395 111.451677 
L 365.171395 103.944154 
" clip-path="url(#p97e251d5f2)" style="fill: none; stroke: #000000; stroke-width: 1.5"/>
    <path d="M 365.903379 109.872307 
L 365.903379 96.679837 
" clip-path="url(#p97e251d5f2)" style="fill: none; stroke: #000000; stroke-width: 1.5"/>
    <path d="M 366.638579 132.316258 
L 366.638579 115.851753 
" clip-path="url(#p97e251d5f2)" style="fill: none; stroke: #000000; stroke-width: 1.5"/>
    <path d="M 367.372646 126.553765 
L 367.372646 114.596564 
" clip-path="url(#p97e251d5f2)" style="fill: none; stroke: #000000; stroke-width: 1.5"/>
    <path d="M 368.108431 132.719221 
L 368.108431 119.70758 
" clip-path="url(#p97e251d5f2)" style="fill: none; stroke: #000000; stroke-width: 1.5"/>
    <path d="M 369.17713 155.566706 
L 369.17713 138.145411 
" clip-path="url(#p97e251d5f2)" style="fill: none; stroke: #000000; stroke-width: 1.5"/>
   </g>
   <g id="line2d_13">
    <defs>
     <path id="m215e6dc3bd" d="M 0 1.5 
C 0.397805 1.5 0.77937 1.341951 1.06066 1.06066 
C 1.341951 0.77937 1.5 0.397805 1.5 0 
C 1.5 -0.397805 1.341951 -0.77937 1.06066 -1.06066 
C 0.77937 -1.341951 0.397805 -1.5 0 -1.5 
C -0.397805 -1.5 -0.77937 -1.341951 -1.06066 -1.06066 
C -1.341951 -0.77937 -1.5 -0.397805 -1.5 0 
C -1.5 0.397805 -1.341951 0.77937 -1.06066 1.06066 
C -0.77937 1.341951 -0.397805 1.5 0 1.5 
z
" style="stroke: #ff7f0e"/>
    </defs>
    <g clip-path="url(#p97e251d5f2)">
     <use xlink:href="#m215e6dc3bd" x="73.832727" y="1442.293793" style="fill: #ff7f0e; stroke: #ff7f0e"/>
     <use xlink:href="#m215e6dc3bd" x="76.997269" y="1412.109249" style="fill: #ff7f0e; stroke: #ff7f0e"/>
     <use xlink:href="#m215e6dc3bd" x="80.16181" y="1381.924752" style="fill: #ff7f0e; stroke: #ff7f0e"/>
     <use xlink:href="#m215e6dc3bd" x="83.326352" y="1351.740207" style="fill: #ff7f0e; stroke: #ff7f0e"/>
     <use xlink:href="#m215e6dc3bd" x="86.490893" y="1321.555663" style="fill: #ff7f0e; stroke: #ff7f0e"/>
     <use xlink:href="#m215e6dc3bd" x="89.655434" y="1291.371165" style="fill: #ff7f0e; stroke: #ff7f0e"/>
     <use xlink:href="#m215e6dc3bd" x="92.819976" y="1261.186621" style="fill: #ff7f0e; stroke: #ff7f0e"/>
     <use xlink:href="#m215e6dc3bd" x="95.984517" y="1231.002077" style="fill: #ff7f0e; stroke: #ff7f0e"/>
     <use xlink:href="#m215e6dc3bd" x="99.149059" y="1200.817579" style="fill: #ff7f0e; stroke: #ff7f0e"/>
     <use xlink:href="#m215e6dc3bd" x="101.020498" y="447.360689" style="fill: #ff7f0e; stroke: #ff7f0e"/>
     <use xlink:href="#m215e6dc3bd" x="104.185039" y="418.788469" style="fill: #ff7f0e; stroke: #ff7f0e"/>
     <use xlink:href="#m215e6dc3bd" x="107.34958" y="394.305116" style="fill: #ff7f0e; stroke: #ff7f0e"/>
     <use xlink:href="#m215e6dc3bd" x="110.514122" y="375.001366" style="fill: #ff7f0e; stroke: #ff7f0e"/>
     <use xlink:href="#m215e6dc3bd" x="113.678663" y="359.213221" style="fill: #ff7f0e; stroke: #ff7f0e"/>
     <use xlink:href="#m215e6dc3bd" x="116.843205" y="345.213835" style="fill: #ff7f0e; stroke: #ff7f0e"/>
     <use xlink:href="#m215e6dc3bd" x="120.007746" y="332.026387" style="fill: #ff7f0e; stroke: #ff7f0e"/>
     <use xlink:href="#m215e6dc3bd" x="123.172273" y="319.191341" style="fill: #ff7f0e; stroke: #ff7f0e"/>
     <use xlink:href="#m215e6dc3bd" x="126.336814" y="306.506871" style="fill: #ff7f0e; stroke: #ff7f0e"/>
     <use xlink:href="#m215e6dc3bd" x="129.501356" y="293.886886" style="fill: #ff7f0e; stroke: #ff7f0e"/>
     <use xlink:href="#m215e6dc3bd" x="132.665897" y="281.295426" style="fill: #ff7f0e; stroke: #ff7f0e"/>
     <use xlink:href="#m215e6dc3bd" x="135.830438" y="268.718275" style="fill: #ff7f0e; stroke: #ff7f0e"/>
     <use xlink:href="#m215e6dc3bd" x="138.99498" y="256.150851" style="fill: #ff7f0e; stroke: #ff7f0e"/>
     <use xlink:href="#m215e6dc3bd" x="142.159521" y="243.594884" style="fill: #ff7f0e; stroke: #ff7f0e"/>
     <use xlink:href="#m215e6dc3bd" x="145.324063" y="231.05042" style="fill: #ff7f0e; stroke: #ff7f0e"/>
     <use xlink:href="#m215e6dc3bd" x="148.488604" y="218.530413" style="fill: #ff7f0e; stroke: #ff7f0e"/>
     <use xlink:href="#m215e6dc3bd" x="151.653146" y="206.046741" style="fill: #ff7f0e; stroke: #ff7f0e"/>
     <use xlink:href="#m215e6dc3bd" x="154.817687" y="193.622457" style="fill: #ff7f0e; stroke: #ff7f0e"/>
     <use xlink:href="#m215e6dc3bd" x="157.982228" y="181.295111" style="fill: #ff7f0e; stroke: #ff7f0e"/>
     <use xlink:href="#m215e6dc3bd" x="161.146755" y="169.125028" style="fill: #ff7f0e; stroke: #ff7f0e"/>
     <use xlink:href="#m215e6dc3bd" x="164.311296" y="157.208772" style="fill: #ff7f0e; stroke: #ff7f0e"/>
     <use xlink:href="#m215e6dc3bd" x="167.475838" y="145.697012" style="fill: #ff7f0e; stroke: #ff7f0e"/>
     <use xlink:href="#m215e6dc3bd" x="170.640379" y="134.817293" style="fill: #ff7f0e; stroke: #ff7f0e"/>
     <use xlink:href="#m215e6dc3bd" x="173.804921" y="124.890922" style="fill: #ff7f0e; stroke: #ff7f0e"/>
     <use xlink:href="#m215e6dc3bd" x="176.969462" y="116.313929" style="fill: #ff7f0e; stroke: #ff7f0e"/>
     <use xlink:href="#m215e6dc3bd" x="180.134004" y="109.434508" style="fill: #ff7f0e; stroke: #ff7f0e"/>
     <use xlink:href="#m215e6dc3bd" x="183.298545" y="104.269073" style="fill: #ff7f0e; stroke: #ff7f0e"/>
     <use xlink:href="#m215e6dc3bd" x="186.463086" y="100.282145" style="fill: #ff7f0e; stroke: #ff7f0e"/>
     <use xlink:href="#m215e6dc3bd" x="189.627628" y="96.784965" style="fill: #ff7f0e; stroke: #ff7f0e"/>
     <use xlink:href="#m215e6dc3bd" x="192.792169" y="93.527633" style="fill: #ff7f0e; stroke: #ff7f0e"/>
     <use xlink:href="#m215e6dc3bd" x="195.956711" y="90.574816" style="fill: #ff7f0e; stroke: #ff7f0e"/>
     <use xlink:href="#m215e6dc3bd" x="199.121237" y="88.07999" style="fill: #ff7f0e; stroke: #ff7f0e"/>
     <use xlink:href="#m215e6dc3bd" x="202.285779" y="86.261163" style="fill: #ff7f0e; stroke: #ff7f0e"/>
     <use xlink:href="#m215e6dc3bd" x="205.45032" y="85.399704" style="fill: #ff7f0e; stroke: #ff7f0e"/>
     <use xlink:href="#m215e6dc3bd" x="208.614862" y="85.791246" style="fill: #ff7f0e; stroke: #ff7f0e"/>
     <use xlink:href="#m215e6dc3bd" x="211.779403" y="87.594502" style="fill: #ff7f0e; stroke: #ff7f0e"/>
     <use xlink:href="#m215e6dc3bd" x="214.943944" y="90.602266" style="fill: #ff7f0e; stroke: #ff7f0e"/>
     <use xlink:href="#m215e6dc3bd" x="218.108486" y="94.242258" style="fill: #ff7f0e; stroke: #ff7f0e"/>
     <use xlink:href="#m215e6dc3bd" x="221.273027" y="98.035817" style="fill: #ff7f0e; stroke: #ff7f0e"/>
     <use xlink:href="#m215e6dc3bd" x="224.437569" y="101.843448" style="fill: #ff7f0e; stroke: #ff7f0e"/>
     <use xlink:href="#m215e6dc3bd" x="227.60211" y="105.656915" style="fill: #ff7f0e; stroke: #ff7f0e"/>
     <use xlink:href="#m215e6dc3bd" x="230.766651" y="109.482987" style="fill: #ff7f0e; stroke: #ff7f0e"/>
     <use xlink:href="#m215e6dc3bd" x="233.931193" y="113.336839" style="fill: #ff7f0e; stroke: #ff7f0e"/>
     <use xlink:href="#m215e6dc3bd" x="237.095734" y="117.251285" style="fill: #ff7f0e; stroke: #ff7f0e"/>
     <use xlink:href="#m215e6dc3bd" x="240.260261" y="121.295963" style="fill: #ff7f0e; stroke: #ff7f0e"/>
     <use xlink:href="#m215e6dc3bd" x="243.424802" y="125.615287" style="fill: #ff7f0e; stroke: #ff7f0e"/>
     <use xlink:href="#m215e6dc3bd" x="246.589344" y="130.498239" style="fill: #ff7f0e; stroke: #ff7f0e"/>
     <use xlink:href="#m215e6dc3bd" x="249.753885" y="136.49908" style="fill: #ff7f0e; stroke: #ff7f0e"/>
     <use xlink:href="#m215e6dc3bd" x="252.918427" y="144.63002" style="fill: #ff7f0e; stroke: #ff7f0e"/>
     <use xlink:href="#m215e6dc3bd" x="256.082968" y="156.64401" style="fill: #ff7f0e; stroke: #ff7f0e"/>
     <use xlink:href="#m215e6dc3bd" x="259.247509" y="175.341171" style="fill: #ff7f0e; stroke: #ff7f0e"/>
     <use xlink:href="#m215e6dc3bd" x="262.412051" y="203.461124" style="fill: #ff7f0e; stroke: #ff7f0e"/>
     <use xlink:href="#m215e6dc3bd" x="265.576592" y="225.634094" style="fill: #ff7f0e; stroke: #ff7f0e"/>
     <use xlink:href="#m215e6dc3bd" x="268.741134" y="218.580965" style="fill: #ff7f0e; stroke: #ff7f0e"/>
     <use xlink:href="#m215e6dc3bd" x="271.905675" y="207.221855" style="fill: #ff7f0e; stroke: #ff7f0e"/>
     <use xlink:href="#m215e6dc3bd" x="275.070216" y="196.151513" style="fill: #ff7f0e; stroke: #ff7f0e"/>
     <use xlink:href="#m215e6dc3bd" x="278.234743" y="185.499061" style="fill: #ff7f0e; stroke: #ff7f0e"/>
     <use xlink:href="#m215e6dc3bd" x="281.399285" y="175.354028" style="fill: #ff7f0e; stroke: #ff7f0e"/>
     <use xlink:href="#m215e6dc3bd" x="284.563826" y="165.80662" style="fill: #ff7f0e; stroke: #ff7f0e"/>
     <use xlink:href="#m215e6dc3bd" x="287.728367" y="156.934931" style="fill: #ff7f0e; stroke: #ff7f0e"/>
     <use xlink:href="#m215e6dc3bd" x="290.892909" y="148.781139" style="fill: #ff7f0e; stroke: #ff7f0e"/>
     <use xlink:href="#m215e6dc3bd" x="294.05745" y="141.331124" style="fill: #ff7f0e; stroke: #ff7f0e"/>
     <use xlink:href="#m215e6dc3bd" x="297.221992" y="134.504967" style="fill: #ff7f0e; stroke: #ff7f0e"/>
     <use xlink:href="#m215e6dc3bd" x="300.386533" y="128.218122" style="fill: #ff7f0e; stroke: #ff7f0e"/>
     <use xlink:href="#m215e6dc3bd" x="303.551074" y="122.407272" style="fill: #ff7f0e; stroke: #ff7f0e"/>
     <use xlink:href="#m215e6dc3bd" x="306.715616" y="117.038562" style="fill: #ff7f0e; stroke: #ff7f0e"/>
     <use xlink:href="#m215e6dc3bd" x="309.880157" y="112.107175" style="fill: #ff7f0e; stroke: #ff7f0e"/>
     <use xlink:href="#m215e6dc3bd" x="313.044699" y="107.625783" style="fill: #ff7f0e; stroke: #ff7f0e"/>
     <use xlink:href="#m215e6dc3bd" x="316.20924" y="103.614028" style="fill: #ff7f0e; stroke: #ff7f0e"/>
     <use xlink:href="#m215e6dc3bd" x="319.373767" y="100.083973" style="fill: #ff7f0e; stroke: #ff7f0e"/>
     <use xlink:href="#m215e6dc3bd" x="322.538308" y="97.030054" style="fill: #ff7f0e; stroke: #ff7f0e"/>
     <use xlink:href="#m215e6dc3bd" x="325.70285" y="94.431087" style="fill: #ff7f0e; stroke: #ff7f0e"/>
     <use xlink:href="#m215e6dc3bd" x="328.867391" y="92.250224" style="fill: #ff7f0e; stroke: #ff7f0e"/>
     <use xlink:href="#m215e6dc3bd" x="332.031932" y="90.464083" style="fill: #ff7f0e; stroke: #ff7f0e"/>
     <use xlink:href="#m215e6dc3bd" x="335.196474" y="89.069905" style="fill: #ff7f0e; stroke: #ff7f0e"/>
     <use xlink:href="#m215e6dc3bd" x="338.361015" y="88.082233" style="fill: #ff7f0e; stroke: #ff7f0e"/>
     <use xlink:href="#m215e6dc3bd" x="341.525557" y="87.529405" style="fill: #ff7f0e; stroke: #ff7f0e"/>
     <use xlink:href="#m215e6dc3bd" x="344.690098" y="87.449438" style="fill: #ff7f0e; stroke: #ff7f0e"/>
     <use xlink:href="#m215e6dc3bd" x="347.85464" y="87.878525" style="fill: #ff7f0e; stroke: #ff7f0e"/>
     <use xlink:href="#m215e6dc3bd" x="351.019181" y="88.844488" style="fill: #ff7f0e; stroke: #ff7f0e"/>
     <use xlink:href="#m215e6dc3bd" x="354.183722" y="90.397684" style="fill: #ff7f0e; stroke: #ff7f0e"/>
     <use xlink:href="#m215e6dc3bd" x="357.348249" y="92.822044" style="fill: #ff7f0e; stroke: #ff7f0e"/>
     <use xlink:href="#m215e6dc3bd" x="360.51279" y="96.756417" style="fill: #ff7f0e; stroke: #ff7f0e"/>
     <use xlink:href="#m215e6dc3bd" x="363.677332" y="103.771044" style="fill: #ff7f0e; stroke: #ff7f0e"/>
     <use xlink:href="#m215e6dc3bd" x="366.841873" y="117.677232" style="fill: #ff7f0e; stroke: #ff7f0e"/>
     <use xlink:href="#m215e6dc3bd" x="370.006415" y="141.386848" style="fill: #ff7f0e; stroke: #ff7f0e"/>
     <use xlink:href="#m215e6dc3bd" x="373.170956" y="172.982659" style="fill: #ff7f0e; stroke: #ff7f0e"/>
     <use xlink:href="#m215e6dc3bd" x="376.335498" y="203.815472" style="fill: #ff7f0e; stroke: #ff7f0e"/>
     <use xlink:href="#m215e6dc3bd" x="379.500039" y="229.392356" style="fill: #ff7f0e; stroke: #ff7f0e"/>
     <use xlink:href="#m215e6dc3bd" x="382.66458" y="257.98952" style="fill: #ff7f0e; stroke: #ff7f0e"/>
     <use xlink:href="#m215e6dc3bd" x="385.829122" y="311.623046" style="fill: #ff7f0e; stroke: #ff7f0e"/>
     <use xlink:href="#m215e6dc3bd" x="388.993663" y="425.203664" style="fill: #ff7f0e; stroke: #ff7f0e"/>
     <use xlink:href="#m215e6dc3bd" x="392.158205" y="739.312341" style="fill: #ff7f0e; stroke: #ff7f0e"/>
     <use xlink:href="#m215e6dc3bd" x="395.322731" y="1714.483483" style="fill: #ff7f0e; stroke: #ff7f0e"/>
     <use xlink:href="#m215e6dc3bd" x="398.487273" y="3968.464254" style="fill: #ff7f0e; stroke: #ff7f0e"/>
    </g>
   </g>
   <g id="line2d_14">
    <path d="M 116.529864 346.6 
L 116.843205 345.213835 
L 120.007746 332.026387 
L 123.172273 319.191341 
L 126.336814 306.506871 
L 129.501356 293.886886 
L 132.665897 281.295426 
L 135.830438 268.718275 
L 138.99498 256.150851 
L 142.159521 243.594884 
L 145.324063 231.05042 
L 148.488604 218.530413 
L 151.653146 206.046741 
L 154.817687 193.622457 
L 157.982228 181.295111 
L 161.146755 169.125028 
L 164.311296 157.208772 
L 167.475838 145.697012 
L 170.640379 134.817293 
L 173.804921 124.890922 
L 176.969462 116.313929 
L 180.134004 109.434508 
L 183.298545 104.269073 
L 186.463086 100.282145 
L 189.627628 96.784965 
L 192.792169 93.527633 
L 195.956711 90.574816 
L 199.121237 88.07999 
L 202.285779 86.261163 
L 205.45032 85.399704 
L 208.614862 85.791246 
L 211.779403 87.594502 
L 214.943944 90.602266 
L 218.108486 94.242258 
L 221.273027 98.035817 
L 224.437569 101.843448 
L 227.60211 105.656915 
L 230.766651 109.482987 
L 233.931193 113.336839 
L 237.095734 117.251285 
L 240.260261 121.295963 
L 243.424802 125.615287 
L 246.589344 130.498239 
L 249.753885 136.49908 
L 252.918427 144.63002 
L 256.082968 156.64401 
L 259.247509 175.341171 
L 262.412051 203.461124 
L 265.576592 225.634094 
L 268.741134 218.580965 
L 271.905675 207.221855 
L 275.070216 196.151513 
L 278.234743 185.499061 
L 281.399285 175.354028 
L 284.563826 165.80662 
L 287.728367 156.934931 
L 290.892909 148.781139 
L 294.05745 141.331124 
L 297.221992 134.504967 
L 300.386533 128.218122 
L 303.551074 122.407272 
L 306.715616 117.038562 
L 309.880157 112.107175 
L 313.044699 107.625783 
L 316.20924 103.614028 
L 319.373767 100.083973 
L 322.538308 97.030054 
L 325.70285 94.431087 
L 328.867391 92.250224 
L 332.031932 90.464083 
L 335.196474 89.069905 
L 338.361015 88.082233 
L 341.525557 87.529405 
L 344.690098 87.449438 
L 347.85464 87.878525 
L 351.019181 88.844488 
L 354.183722 90.397684 
L 357.348249 92.822044 
L 360.51279 96.756417 
L 363.677332 103.771044 
L 366.841873 117.677232 
L 370.006415 141.386848 
L 373.170956 172.982659 
L 376.335498 203.815472 
L 379.500039 229.392356 
L 382.66458 257.98952 
L 385.829122 311.623046 
L 386.803637 346.6 
" clip-path="url(#p97e251d5f2)" style="fill: none; stroke: #2ca02c; stroke-width: 1.5; stroke-linecap: square"/>
   </g>
   <g id="line2d_15">
    <defs>
     <path id="m9cc13cfa0c" d="M 0 1.5 
C 0.397805 1.5 0.77937 1.341951 1.06066 1.06066 
C 1.341951 0.77937 1.5 0.397805 1.5 0 
C 1.5 -0.397805 1.341951 -0.77937 1.06066 -1.06066 
C 0.77937 -1.341951 0.397805 -1.5 0 -1.5 
C -0.397805 -1.5 -0.77937 -1.341951 -1.06066 -1.06066 
C -1.341951 -0.77937 -1.5 -0.397805 -1.5 0 
C -1.5 0.397805 -1.341951 0.77937 -1.06066 1.06066 
C -0.77937 1.341951 -0.397805 1.5 0 1.5 
z
" style="stroke: #0000ff"/>
    </defs>
    <g clip-path="url(#p97e251d5f2)">
     <use xlink:href="#m9cc13cfa0c" x="204.563091" y="87.965729" style="fill: #0000ff; stroke: #0000ff"/>
     <use xlink:href="#m9cc13cfa0c" x="205.962764" y="85.197794" style="fill: #0000ff; stroke: #0000ff"/>
     <use xlink:href="#m9cc13cfa0c" x="207.477058" y="85.315754" style="fill: #0000ff; stroke: #0000ff"/>
     <use xlink:href="#m9cc13cfa0c" x="209.311557" y="86.451067" style="fill: #0000ff; stroke: #0000ff"/>
     <use xlink:href="#m9cc13cfa0c" x="211.221596" y="87.302709" style="fill: #0000ff; stroke: #0000ff"/>
     <use xlink:href="#m9cc13cfa0c" x="241.870043" y="126.137466" style="fill: #0000ff; stroke: #0000ff"/>
     <use xlink:href="#m9cc13cfa0c" x="242.676742" y="128.408437" style="fill: #0000ff; stroke: #0000ff"/>
     <use xlink:href="#m9cc13cfa0c" x="243.328041" y="123.621552" style="fill: #0000ff; stroke: #0000ff"/>
     <use xlink:href="#m9cc13cfa0c" x="244.007544" y="124.96521" style="fill: #0000ff; stroke: #0000ff"/>
     <use xlink:href="#m9cc13cfa0c" x="244.621661" y="120.763958" style="fill: #0000ff; stroke: #0000ff"/>
     <use xlink:href="#m9cc13cfa0c" x="245.206212" y="126.078686" style="fill: #0000ff; stroke: #0000ff"/>
     <use xlink:href="#m9cc13cfa0c" x="246.00426" y="132.51674" style="fill: #0000ff; stroke: #0000ff"/>
     <use xlink:href="#m9cc13cfa0c" x="246.921171" y="129.282788" style="fill: #0000ff; stroke: #0000ff"/>
     <use xlink:href="#m9cc13cfa0c" x="248.026674" y="129.910942" style="fill: #0000ff; stroke: #0000ff"/>
     <use xlink:href="#m9cc13cfa0c" x="250.453122" y="139.181516" style="fill: #0000ff; stroke: #0000ff"/>
     <use xlink:href="#m9cc13cfa0c" x="252.898992" y="145.267859" style="fill: #0000ff; stroke: #0000ff"/>
     <use xlink:href="#m9cc13cfa0c" x="320.504343" y="102.496999" style="fill: #0000ff; stroke: #0000ff"/>
     <use xlink:href="#m9cc13cfa0c" x="327.858201" y="89.700166" style="fill: #0000ff; stroke: #0000ff"/>
     <use xlink:href="#m9cc13cfa0c" x="335.212058" y="91.066397" style="fill: #0000ff; stroke: #0000ff"/>
     <use xlink:href="#m9cc13cfa0c" x="342.565916" y="91.118807" style="fill: #0000ff; stroke: #0000ff"/>
     <use xlink:href="#m9cc13cfa0c" x="349.919773" y="92.475031" style="fill: #0000ff; stroke: #0000ff"/>
     <use xlink:href="#m9cc13cfa0c" x="357.273631" y="92.644037" style="fill: #0000ff; stroke: #0000ff"/>
     <use xlink:href="#m9cc13cfa0c" x="363.700185" y="97.18994" style="fill: #0000ff; stroke: #0000ff"/>
     <use xlink:href="#m9cc13cfa0c" x="364.436392" y="104.32265" style="fill: #0000ff; stroke: #0000ff"/>
     <use xlink:href="#m9cc13cfa0c" x="365.171395" y="107.352959" style="fill: #0000ff; stroke: #0000ff"/>
     <use xlink:href="#m9cc13cfa0c" x="365.903379" y="102.22317" style="fill: #0000ff; stroke: #0000ff"/>
     <use xlink:href="#m9cc13cfa0c" x="366.638579" y="122.459295" style="fill: #0000ff; stroke: #0000ff"/>
     <use xlink:href="#m9cc13cfa0c" x="367.372646" y="119.70758" style="fill: #0000ff; stroke: #0000ff"/>
     <use xlink:href="#m9cc13cfa0c" x="368.108431" y="125.188692" style="fill: #0000ff; stroke: #0000ff"/>
     <use xlink:href="#m9cc13cfa0c" x="369.17713" y="145.042622" style="fill: #0000ff; stroke: #0000ff"/>
    </g>
   </g>
   <g id="patch_3">
    <path d="M 57.6 307.584 
L 57.6 41.472 
" style="fill: none; stroke: #000000; stroke-width: 0.8; stroke-linejoin: miter; stroke-linecap: square"/>
   </g>
   <g id="patch_4">
    <path d="M 414.72 307.584 
L 414.72 41.472 
" style="fill: none; stroke: #000000; stroke-width: 0.8; stroke-linejoin: miter; stroke-linecap: square"/>
   </g>
   <g id="patch_5">
    <path d="M 57.6 307.584 
L 414.72 307.584 
" style="fill: none; stroke: #000000; stroke-width: 0.8; stroke-linejoin: miter; stroke-linecap: square"/>
   </g>
   <g id="patch_6">
    <path d="M 57.6 41.472 
L 414.72 41.472 
" style="fill: none; stroke: #000000; stroke-width: 0.8; stroke-linejoin: miter; stroke-linecap: square"/>
   </g>
   <g id="text_14">
    <!-- MCMC $\chi^2$ = 30.62 -->
    <g transform="translate(182.82 35.472)scale(0.12 -0.12)">
     <defs>
      <path id="DejaVuSans-4d" d="M 628 4666 
L 1569 4666 
L 2759 1491 
L 3956 4666 
L 4897 4666 
L 4897 0 
L 4281 0 
L 4281 4097 
L 3078 897 
L 2444 897 
L 1241 4097 
L 1241 0 
L 628 0 
L 628 4666 
z
" transform="scale(0.015625)"/>
      <path id="DejaVuSans-43" d="M 4122 4306 
L 4122 3641 
Q 3803 3938 3442 4084 
Q 3081 4231 2675 4231 
Q 1875 4231 1450 3742 
Q 1025 3253 1025 2328 
Q 1025 1406 1450 917 
Q 1875 428 2675 428 
Q 3081 428 3442 575 
Q 3803 722 4122 1019 
L 4122 359 
Q 3791 134 3420 21 
Q 3050 -91 2638 -91 
Q 1578 -91 968 557 
Q 359 1206 359 2328 
Q 359 3453 968 4101 
Q 1578 4750 2638 4750 
Q 3056 4750 3426 4639 
Q 3797 4528 4122 4306 
z
" transform="scale(0.015625)"/>
      <path id="DejaVuSans-20" transform="scale(0.015625)"/>
      <path id="DejaVuSans-Oblique-3c7" d="M 1922 -781 
L 1691 416 
L 394 -1334 
L -284 -1334 
L 1553 1141 
L 1269 2613 
Q 1194 3006 713 3006 
L 559 3006 
L 653 3500 
L 872 3494 
Q 1675 3472 1775 2950 
L 2006 1753 
L 3303 3503 
L 3981 3503 
L 2144 1028 
L 2428 -444 
Q 2503 -838 2984 -838 
L 3138 -838 
L 3044 -1331 
L 2825 -1325 
Q 2022 -1303 1922 -781 
z
" transform="scale(0.015625)"/>
      <path id="DejaVuSans-3d" d="M 678 2906 
L 4684 2906 
L 4684 2381 
L 678 2381 
L 678 2906 
z
M 678 1631 
L 4684 1631 
L 4684 1100 
L 678 1100 
L 678 1631 
z
" transform="scale(0.015625)"/>
      <path id="DejaVuSans-2e" d="M 684 794 
L 1344 794 
L 1344 0 
L 684 0 
L 684 794 
z
" transform="scale(0.015625)"/>
      <path id="DejaVuSans-36" d="M 2113 2584 
Q 1688 2584 1439 2293 
Q 1191 2003 1191 1497 
Q 1191 994 1439 701 
Q 1688 409 2113 409 
Q 2538 409 2786 701 
Q 3034 994 3034 1497 
Q 3034 2003 2786 2293 
Q 2538 2584 2113 2584 
z
M 3366 4563 
L 3366 3988 
Q 3128 4100 2886 4159 
Q 2644 4219 2406 4219 
Q 1781 4219 1451 3797 
Q 1122 3375 1075 2522 
Q 1259 2794 1537 2939 
Q 1816 3084 2150 3084 
Q 2853 3084 3261 2657 
Q 3669 2231 3669 1497 
Q 3669 778 3244 343 
Q 2819 -91 2113 -91 
Q 1303 -91 875 529 
Q 447 1150 447 2328 
Q 447 3434 972 4092 
Q 1497 4750 2381 4750 
Q 2619 4750 2861 4703 
Q 3103 4656 3366 4563 
z
" transform="scale(0.015625)"/>
     </defs>
     <use xlink:href="#DejaVuSans-4d" transform="translate(0 0.765625)"/>
     <use xlink:href="#DejaVuSans-43" transform="translate(86.279297 0.765625)"/>
     <use xlink:href="#DejaVuSans-4d" transform="translate(156.103516 0.765625)"/>
     <use xlink:href="#DejaVuSans-43" transform="translate(242.382812 0.765625)"/>
     <use xlink:href="#DejaVuSans-20" transform="translate(312.207031 0.765625)"/>
     <use xlink:href="#DejaVuSans-Oblique-3c7" transform="translate(343.994141 0.765625)"/>
     <use xlink:href="#DejaVuSans-32" transform="translate(407.646536 39.046875)scale(0.7)"/>
     <use xlink:href="#DejaVuSans-20" transform="translate(454.917044 0.765625)"/>
     <use xlink:href="#DejaVuSans-3d" transform="translate(486.704154 0.765625)"/>
     <use xlink:href="#DejaVuSans-20" transform="translate(570.493216 0.765625)"/>
     <use xlink:href="#DejaVuSans-33" transform="translate(602.280326 0.765625)"/>
     <use xlink:href="#DejaVuSans-30" transform="translate(665.903372 0.765625)"/>
     <use xlink:href="#DejaVuSans-2e" transform="translate(729.526419 0.765625)"/>
     <use xlink:href="#DejaVuSans-36" transform="translate(761.313529 0.765625)"/>
     <use xlink:href="#DejaVuSans-32" transform="translate(824.936576 0.765625)"/>
    </g>
   </g>
  </g>
 </g>
 <defs>
  <clipPath id="p97e251d5f2">
   <rect x="57.6" y="41.472" width="357.12" height="266.112"/>
  </clipPath>
 </defs>
</svg>
