<?xml version="1.0" encoding="utf-8" standalone="no"?>
<!DOCTYPE svg PUBLIC "-//W3C//DTD SVG 1.1//EN"
  "http://www.w3.org/Graphics/SVG/1.1/DTD/svg11.dtd">
<svg xmlns:xlink="http://www.w3.org/1999/xlink" width="460.8pt" height="345.6pt" viewBox="0 0 460.8 345.6" xmlns="http://www.w3.org/2000/svg" version="1.1">
 <metadata>
  <rdf:RDF xmlns:dc="http://purl.org/dc/elements/1.1/" xmlns:cc="http://creativecommons.org/ns#" xmlns:rdf="http://www.w3.org/1999/02/22-rdf-syntax-ns#">
   <cc:Work>
    <dc:type rdf:resource="http://purl.org/dc/dcmitype/StillImage"/>
    <dc:date>2022-06-09T23:07:28.692159</dc:date>
    <dc:format>image/svg+xml</dc:format>
    <dc:creator>
     <cc:Agent>
      <dc:title>Matplotlib v3.5.0, https://matplotlib.org/</dc:title>
     </cc:Agent>
    </dc:creator>
   </cc:Work>
  </rdf:RDF>
 </metadata>
 <defs>
  <style type="text/css">*{stroke-linejoin: round; stroke-linecap: butt}</style>
 </defs>
 <g id="figure_1">
  <g id="patch_1">
   <path d="M 0 345.6 
L 460.8 345.6 
L 460.8 0 
L 0 0 
z
" style="fill: #ffffff"/>
  </g>
  <g id="axes_1">
   <g id="patch_2">
    <path d="M 57.6 307.584 
L 414.72 307.584 
L 414.72 41.472 
L 57.6 41.472 
z
" style="fill: #ffffff"/>
   </g>
   <g id="PolyCollection_1">
    <path d="M 73.832727 821.676864 
L 73.832727 3163.42436 
L 76.997269 3128.7743 
L 80.16181 3094.124317 
L 83.326352 3059.474326 
L 86.490893 3024.824243 
L 89.655434 2990.174206 
L 92.819976 2955.5242 
L 95.984517 2920.874194 
L 99.149059 2886.224188 
L 101.020498 640.124179 
L 104.185039 599.656387 
L 107.34958 559.206096 
L 110.514122 518.76622 
L 113.678663 478.332731 
L 116.843205 437.903214 
L 120.007746 397.476329 
L 123.172273 374.11399 
L 126.336814 359.559329 
L 129.501356 345.072736 
L 132.665897 330.614915 
L 135.830438 316.169441 
L 138.99498 301.729389 
L 142.159521 287.294758 
L 145.324063 272.857229 
L 148.488604 258.425229 
L 151.653146 243.996717 
L 154.817687 229.57395 
L 157.982228 215.160631 
L 161.146755 200.762825 
L 164.311296 186.390356 
L 167.475838 172.05949 
L 170.640379 157.796691 
L 173.804921 143.644903 
L 176.969462 129.673803 
L 180.134004 115.995047 
L 183.298545 102.784547 
L 186.463086 90.311992 
L 189.627628 78.969948 
L 192.792169 69.500923 
L 195.956711 63.647495 
L 199.121237 58.712485 
L 202.285779 55.035477 
L 205.45032 53.06139 
L 208.614862 53.725324 
L 211.779403 56.243926 
L 214.943944 60.222011 
L 218.108486 64.592319 
L 221.273027 69.014328 
L 224.437569 73.437948 
L 227.60211 77.861816 
L 230.766651 82.286076 
L 233.931193 86.711347 
L 237.095734 91.138835 
L 240.260261 95.571623 
L 243.424802 100.522282 
L 246.589344 105.997975 
L 249.753885 113.733917 
L 252.918427 123.269499 
L 256.082968 136.086547 
L 259.247509 153.930443 
L 262.412051 183.604013 
L 265.576592 226.22448 
L 268.741134 264.288567 
L 271.905675 253.481604 
L 275.070216 239.277343 
L 278.234743 225.141659 
L 281.399285 211.105606 
L 284.563826 197.205043 
L 287.728367 183.482216 
L 290.892909 169.990483 
L 294.05745 156.795979 
L 297.221992 143.979225 
L 300.386533 131.638563 
L 303.551074 119.884897 
L 306.715616 108.852214 
L 309.880157 99.627436 
L 313.044699 91.755675 
L 316.20924 84.558463 
L 319.373767 78.054159 
L 322.538308 72.267831 
L 325.70285 67.214135 
L 328.867391 63.639896 
L 332.031932 62.625025 
L 335.196474 62.157628 
L 338.361015 61.871802 
L 341.525557 61.778443 
L 344.690098 61.915354 
L 347.85464 62.315858 
L 351.019181 63.035111 
L 354.183722 64.147664 
L 357.348249 66.044699 
L 360.51279 70.542101 
L 363.677332 79.545272 
L 366.841873 96.427941 
L 370.006415 124.659426 
L 373.170956 161.538257 
L 376.335498 198.931145 
L 379.500039 230.632567 
L 382.66458 263.720167 
L 385.829122 327.943396 
L 388.993663 464.884425 
L 392.158205 838.171265 
L 395.322731 2025.630957 
L 398.487273 29839.334579 
L 398.487273 2379.007409 
L 398.487273 2379.007409 
L 395.322731 1095.59445 
L 392.158205 663.417902 
L 388.993663 428.027887 
L 385.829122 302.688793 
L 382.66458 243.954631 
L 379.500039 211.674525 
L 376.335498 182.399845 
L 373.170956 147.212456 
L 370.006415 111.596755 
L 366.841873 85.11525 
L 363.677332 69.111162 
L 360.51279 62.059854 
L 357.348249 57.790774 
L 354.183722 54.868503 
L 351.019181 53.00582 
L 347.85464 52.019925 
L 344.690098 51.898553 
L 341.525557 52.238432 
L 338.361015 53.362334 
L 335.196474 54.862296 
L 332.031932 56.704832 
L 328.867391 58.73801 
L 325.70285 61.075421 
L 322.538308 62.517546 
L 319.373767 63.695872 
L 316.20924 64.983179 
L 313.044699 66.3728 
L 309.880157 67.858384 
L 306.715616 69.437211 
L 303.551074 71.110953 
L 300.386533 72.882875 
L 297.221992 74.769631 
L 294.05745 76.783529 
L 290.892909 78.945278 
L 287.728367 81.281742 
L 284.563826 83.824218 
L 281.399285 86.584139 
L 278.234743 89.542694 
L 275.070216 92.680398 
L 271.905675 95.972651 
L 268.741134 99.403402 
L 265.576592 102.959573 
L 262.412051 106.626698 
L 259.247509 110.394806 
L 256.082968 114.047287 
L 252.918427 111.713386 
L 249.753885 107.356092 
L 246.589344 102.706792 
L 243.424802 95.958626 
L 240.260261 90.453033 
L 237.095734 85.813976 
L 233.931193 81.611397 
L 230.766651 77.609604 
L 227.60211 73.690795 
L 224.437569 69.800775 
L 221.273027 65.916918 
L 218.108486 61.486855 
L 214.943944 57.481011 
L 211.779403 54.485348 
L 208.614862 52.425206 
L 205.45032 52.029795 
L 202.285779 52.454783 
L 199.121237 53.619067 
L 195.956711 54.426583 
L 192.792169 55.394871 
L 189.627628 56.607514 
L 186.463086 58.807931 
L 183.298545 62.716299 
L 180.134004 64.637632 
L 176.969462 66.577269 
L 173.804921 1.457313 
L 170.640379 -65.70995 
L 167.475838 -98.331257 
L 164.311296 -109.290095 
L 161.146755 -102.197419 
L 157.982228 -83.141516 
L 154.817687 -57.269852 
L 151.653146 -27.647623 
L 148.488604 4.066456 
L 145.324063 36.975229 
L 142.159521 70.579323 
L 138.99498 104.591019 
L 135.830438 122.966049 
L 132.665897 149.824118 
L 129.501356 169.395971 
L 126.336814 184.021919 
L 123.172273 199.375453 
L 120.007746 216.199831 
L 116.843205 236.023608 
L 113.678663 261.056109 
L 110.514122 291.940375 
L 107.34958 325.778894 
L 104.185039 360.278541 
L 101.020498 394.896875 
L 99.149059 538.755807 
L 95.984517 579.12788 
L 92.819976 613.777501 
L 89.655434 648.427231 
L 86.490893 683.077067 
L 83.326352 717.726961 
L 80.16181 752.37691 
L 76.997269 787.026862 
L 73.832727 821.676864 
z
" clip-path="url(#p98dd7695fb)" style="fill: #1f77b4; fill-opacity: 0.5"/>
   </g>
   <g id="matplotlib.axis_1">
    <g id="xtick_1">
     <g id="line2d_1">
      <defs>
       <path id="m5b4352222b" d="M 0 0 
L 0 3.5 
" style="stroke: #000000; stroke-width: 0.8"/>
      </defs>
      <g>
       <use xlink:href="#m5b4352222b" x="61.324816" y="307.584" style="stroke: #000000; stroke-width: 0.8"/>
      </g>
     </g>
     <g id="text_1">
      <!-- 5 -->
      <g transform="translate(58.143566 322.182437)scale(0.1 -0.1)">
       <defs>
        <path id="DejaVuSans-35" d="M 691 4666 
L 3169 4666 
L 3169 4134 
L 1269 4134 
L 1269 2991 
Q 1406 3038 1543 3061 
Q 1681 3084 1819 3084 
Q 2600 3084 3056 2656 
Q 3513 2228 3513 1497 
Q 3513 744 3044 326 
Q 2575 -91 1722 -91 
Q 1428 -91 1123 -41 
Q 819 9 494 109 
L 494 744 
Q 775 591 1075 516 
Q 1375 441 1709 441 
Q 2250 441 2565 725 
Q 2881 1009 2881 1497 
Q 2881 1984 2565 2268 
Q 2250 2553 1709 2553 
Q 1456 2553 1204 2497 
Q 953 2441 691 2322 
L 691 4666 
z
" transform="scale(0.015625)"/>
       </defs>
       <use xlink:href="#DejaVuSans-35"/>
      </g>
     </g>
    </g>
    <g id="xtick_2">
     <g id="line2d_2">
      <g>
       <use xlink:href="#m5b4352222b" x="134.863392" y="307.584" style="stroke: #000000; stroke-width: 0.8"/>
      </g>
     </g>
     <g id="text_2">
      <!-- 10 -->
      <g transform="translate(128.500892 322.182437)scale(0.1 -0.1)">
       <defs>
        <path id="DejaVuSans-31" d="M 794 531 
L 1825 531 
L 1825 4091 
L 703 3866 
L 703 4441 
L 1819 4666 
L 2450 4666 
L 2450 531 
L 3481 531 
L 3481 0 
L 794 0 
L 794 531 
z
" transform="scale(0.015625)"/>
        <path id="DejaVuSans-30" d="M 2034 4250 
Q 1547 4250 1301 3770 
Q 1056 3291 1056 2328 
Q 1056 1369 1301 889 
Q 1547 409 2034 409 
Q 2525 409 2770 889 
Q 3016 1369 3016 2328 
Q 3016 3291 2770 3770 
Q 2525 4250 2034 4250 
z
M 2034 4750 
Q 2819 4750 3233 4129 
Q 3647 3509 3647 2328 
Q 3647 1150 3233 529 
Q 2819 -91 2034 -91 
Q 1250 -91 836 529 
Q 422 1150 422 2328 
Q 422 3509 836 4129 
Q 1250 4750 2034 4750 
z
" transform="scale(0.015625)"/>
       </defs>
       <use xlink:href="#DejaVuSans-31"/>
       <use xlink:href="#DejaVuSans-30" x="63.623047"/>
      </g>
     </g>
    </g>
    <g id="xtick_3">
     <g id="line2d_3">
      <g>
       <use xlink:href="#m5b4352222b" x="208.401967" y="307.584" style="stroke: #000000; stroke-width: 0.8"/>
      </g>
     </g>
     <g id="text_3">
      <!-- 15 -->
      <g transform="translate(202.039467 322.182437)scale(0.1 -0.1)">
       <use xlink:href="#DejaVuSans-31"/>
       <use xlink:href="#DejaVuSans-35" x="63.623047"/>
      </g>
     </g>
    </g>
    <g id="xtick_4">
     <g id="line2d_4">
      <g>
       <use xlink:href="#m5b4352222b" x="281.940543" y="307.584" style="stroke: #000000; stroke-width: 0.8"/>
      </g>
     </g>
     <g id="text_4">
      <!-- 20 -->
      <g transform="translate(275.578043 322.182437)scale(0.1 -0.1)">
       <defs>
        <path id="DejaVuSans-32" d="M 1228 531 
L 3431 531 
L 3431 0 
L 469 0 
L 469 531 
Q 828 903 1448 1529 
Q 2069 2156 2228 2338 
Q 2531 2678 2651 2914 
Q 2772 3150 2772 3378 
Q 2772 3750 2511 3984 
Q 2250 4219 1831 4219 
Q 1534 4219 1204 4116 
Q 875 4013 500 3803 
L 500 4441 
Q 881 4594 1212 4672 
Q 1544 4750 1819 4750 
Q 2544 4750 2975 4387 
Q 3406 4025 3406 3419 
Q 3406 3131 3298 2873 
Q 3191 2616 2906 2266 
Q 2828 2175 2409 1742 
Q 1991 1309 1228 531 
z
" transform="scale(0.015625)"/>
       </defs>
       <use xlink:href="#DejaVuSans-32"/>
       <use xlink:href="#DejaVuSans-30" x="63.623047"/>
      </g>
     </g>
    </g>
    <g id="xtick_5">
     <g id="line2d_5">
      <g>
       <use xlink:href="#m5b4352222b" x="355.479119" y="307.584" style="stroke: #000000; stroke-width: 0.8"/>
      </g>
     </g>
     <g id="text_5">
      <!-- 25 -->
      <g transform="translate(349.116619 322.182437)scale(0.1 -0.1)">
       <use xlink:href="#DejaVuSans-32"/>
       <use xlink:href="#DejaVuSans-35" x="63.623047"/>
      </g>
     </g>
    </g>
    <g id="text_6">
     <!-- log $\nu$ -->
     <g transform="translate(224.11 335.862125)scale(0.1 -0.1)">
      <defs>
       <path id="DejaVuSans-6c" d="M 603 4863 
L 1178 4863 
L 1178 0 
L 603 0 
L 603 4863 
z
" transform="scale(0.015625)"/>
       <path id="DejaVuSans-6f" d="M 1959 3097 
Q 1497 3097 1228 2736 
Q 959 2375 959 1747 
Q 959 1119 1226 758 
Q 1494 397 1959 397 
Q 2419 397 2687 759 
Q 2956 1122 2956 1747 
Q 2956 2369 2687 2733 
Q 2419 3097 1959 3097 
z
M 1959 3584 
Q 2709 3584 3137 3096 
Q 3566 2609 3566 1747 
Q 3566 888 3137 398 
Q 2709 -91 1959 -91 
Q 1206 -91 779 398 
Q 353 888 353 1747 
Q 353 2609 779 3096 
Q 1206 3584 1959 3584 
z
" transform="scale(0.015625)"/>
       <path id="DejaVuSans-67" d="M 2906 1791 
Q 2906 2416 2648 2759 
Q 2391 3103 1925 3103 
Q 1463 3103 1205 2759 
Q 947 2416 947 1791 
Q 947 1169 1205 825 
Q 1463 481 1925 481 
Q 2391 481 2648 825 
Q 2906 1169 2906 1791 
z
M 3481 434 
Q 3481 -459 3084 -895 
Q 2688 -1331 1869 -1331 
Q 1566 -1331 1297 -1286 
Q 1028 -1241 775 -1147 
L 775 -588 
Q 1028 -725 1275 -790 
Q 1522 -856 1778 -856 
Q 2344 -856 2625 -561 
Q 2906 -266 2906 331 
L 2906 616 
Q 2728 306 2450 153 
Q 2172 0 1784 0 
Q 1141 0 747 490 
Q 353 981 353 1791 
Q 353 2603 747 3093 
Q 1141 3584 1784 3584 
Q 2172 3584 2450 3431 
Q 2728 3278 2906 2969 
L 2906 3500 
L 3481 3500 
L 3481 434 
z
" transform="scale(0.015625)"/>
       <path id="DejaVuSans-20" transform="scale(0.015625)"/>
       <path id="DejaVuSans-Oblique-3bd" d="M 959 0 
L 572 3500 
L 1191 3500 
L 1522 563 
Q 1972 950 2391 1488 
Q 2706 1891 2788 2241 
Q 2825 2406 2809 2719 
Q 2794 3091 2544 3500 
L 3125 3500 
L 3125 3500 
Q 3288 3222 3353 2834 
Q 3416 2478 3369 2234 
Q 3250 1622 2719 1075 
Q 2025 363 1572 0 
L 959 0 
z
" transform="scale(0.015625)"/>
      </defs>
      <use xlink:href="#DejaVuSans-6c" transform="translate(0 0.015625)"/>
      <use xlink:href="#DejaVuSans-6f" transform="translate(27.783203 0.015625)"/>
      <use xlink:href="#DejaVuSans-67" transform="translate(88.964844 0.015625)"/>
      <use xlink:href="#DejaVuSans-20" transform="translate(152.441406 0.015625)"/>
      <use xlink:href="#DejaVuSans-Oblique-3bd" transform="translate(184.228516 0.015625)"/>
     </g>
    </g>
   </g>
   <g id="matplotlib.axis_2">
    <g id="ytick_1">
     <g id="line2d_6">
      <defs>
       <path id="mc3f50dd12b" d="M 0 0 
L -3.5 0 
" style="stroke: #000000; stroke-width: 0.8"/>
      </defs>
      <g>
       <use xlink:href="#mc3f50dd12b" x="57.6" y="305.365813" style="stroke: #000000; stroke-width: 0.8"/>
      </g>
     </g>
     <g id="text_7">
      <!-- −15 -->
      <g transform="translate(29.495313 309.165032)scale(0.1 -0.1)">
       <defs>
        <path id="DejaVuSans-2212" d="M 678 2272 
L 4684 2272 
L 4684 1741 
L 678 1741 
L 678 2272 
z
" transform="scale(0.015625)"/>
       </defs>
       <use xlink:href="#DejaVuSans-2212"/>
       <use xlink:href="#DejaVuSans-31" x="83.789062"/>
       <use xlink:href="#DejaVuSans-35" x="147.412109"/>
      </g>
     </g>
    </g>
    <g id="ytick_2">
     <g id="line2d_7">
      <g>
       <use xlink:href="#mc3f50dd12b" x="57.6" y="251.685321" style="stroke: #000000; stroke-width: 0.8"/>
      </g>
     </g>
     <g id="text_8">
      <!-- −14 -->
      <g transform="translate(29.495313 255.484539)scale(0.1 -0.1)">
       <defs>
        <path id="DejaVuSans-34" d="M 2419 4116 
L 825 1625 
L 2419 1625 
L 2419 4116 
z
M 2253 4666 
L 3047 4666 
L 3047 1625 
L 3713 1625 
L 3713 1100 
L 3047 1100 
L 3047 0 
L 2419 0 
L 2419 1100 
L 313 1100 
L 313 1709 
L 2253 4666 
z
" transform="scale(0.015625)"/>
       </defs>
       <use xlink:href="#DejaVuSans-2212"/>
       <use xlink:href="#DejaVuSans-31" x="83.789062"/>
       <use xlink:href="#DejaVuSans-34" x="147.412109"/>
      </g>
     </g>
    </g>
    <g id="ytick_3">
     <g id="line2d_8">
      <g>
       <use xlink:href="#mc3f50dd12b" x="57.6" y="198.004829" style="stroke: #000000; stroke-width: 0.8"/>
      </g>
     </g>
     <g id="text_9">
      <!-- −13 -->
      <g transform="translate(29.495313 201.804047)scale(0.1 -0.1)">
       <defs>
        <path id="DejaVuSans-33" d="M 2597 2516 
Q 3050 2419 3304 2112 
Q 3559 1806 3559 1356 
Q 3559 666 3084 287 
Q 2609 -91 1734 -91 
Q 1441 -91 1130 -33 
Q 819 25 488 141 
L 488 750 
Q 750 597 1062 519 
Q 1375 441 1716 441 
Q 2309 441 2620 675 
Q 2931 909 2931 1356 
Q 2931 1769 2642 2001 
Q 2353 2234 1838 2234 
L 1294 2234 
L 1294 2753 
L 1863 2753 
Q 2328 2753 2575 2939 
Q 2822 3125 2822 3475 
Q 2822 3834 2567 4026 
Q 2313 4219 1838 4219 
Q 1578 4219 1281 4162 
Q 984 4106 628 3988 
L 628 4550 
Q 988 4650 1302 4700 
Q 1616 4750 1894 4750 
Q 2613 4750 3031 4423 
Q 3450 4097 3450 3541 
Q 3450 3153 3228 2886 
Q 3006 2619 2597 2516 
z
" transform="scale(0.015625)"/>
       </defs>
       <use xlink:href="#DejaVuSans-2212"/>
       <use xlink:href="#DejaVuSans-31" x="83.789062"/>
       <use xlink:href="#DejaVuSans-33" x="147.412109"/>
      </g>
     </g>
    </g>
    <g id="ytick_4">
     <g id="line2d_9">
      <g>
       <use xlink:href="#mc3f50dd12b" x="57.6" y="144.324336" style="stroke: #000000; stroke-width: 0.8"/>
      </g>
     </g>
     <g id="text_10">
      <!-- −12 -->
      <g transform="translate(29.495313 148.123555)scale(0.1 -0.1)">
       <use xlink:href="#DejaVuSans-2212"/>
       <use xlink:href="#DejaVuSans-31" x="83.789062"/>
       <use xlink:href="#DejaVuSans-32" x="147.412109"/>
      </g>
     </g>
    </g>
    <g id="ytick_5">
     <g id="line2d_10">
      <g>
       <use xlink:href="#mc3f50dd12b" x="57.6" y="90.643844" style="stroke: #000000; stroke-width: 0.8"/>
      </g>
     </g>
     <g id="text_11">
      <!-- −11 -->
      <g transform="translate(29.495313 94.443063)scale(0.1 -0.1)">
       <use xlink:href="#DejaVuSans-2212"/>
       <use xlink:href="#DejaVuSans-31" x="83.789062"/>
       <use xlink:href="#DejaVuSans-31" x="147.412109"/>
      </g>
     </g>
    </g>
    <g id="text_12">
     <!-- log $\nu F_{\nu}$ -->
     <g transform="translate(23.395312 191.528)rotate(-90)scale(0.1 -0.1)">
      <defs>
       <path id="DejaVuSans-Oblique-46" d="M 1081 4666 
L 3756 4666 
L 3653 4134 
L 1606 4134 
L 1338 2759 
L 3188 2759 
L 3084 2228 
L 1234 2228 
L 800 0 
L 172 0 
L 1081 4666 
z
" transform="scale(0.015625)"/>
      </defs>
      <use xlink:href="#DejaVuSans-6c" transform="translate(0 0.015625)"/>
      <use xlink:href="#DejaVuSans-6f" transform="translate(27.783203 0.015625)"/>
      <use xlink:href="#DejaVuSans-67" transform="translate(88.964844 0.015625)"/>
      <use xlink:href="#DejaVuSans-20" transform="translate(152.441406 0.015625)"/>
      <use xlink:href="#DejaVuSans-Oblique-3bd" transform="translate(184.228516 0.015625)"/>
      <use xlink:href="#DejaVuSans-Oblique-46" transform="translate(240.087891 0.015625)"/>
      <use xlink:href="#DejaVuSans-Oblique-3bd" transform="translate(297.607422 -16.390625)scale(0.7)"/>
     </g>
    </g>
   </g>
   <g id="line2d_11">
    <path d="M 117.717151 346.6 
L 120.007746 335.642362 
L 123.172273 320.908516 
L 126.336814 306.347522 
L 129.501356 291.860552 
L 132.665897 277.406328 
L 135.830438 262.968531 
L 138.99498 248.541898 
L 142.159521 234.128418 
L 145.324063 219.728143 
L 148.488604 205.355943 
L 151.653146 191.025452 
L 154.817687 176.763136 
L 157.982228 162.612099 
L 161.146755 148.64159 
L 164.311296 134.962459 
L 167.475838 121.747663 
L 170.640379 109.258414 
L 173.804921 97.863548 
L 176.969462 88.017686 
L 180.134004 80.120533 
L 183.298545 74.190929 
L 186.463086 69.614181 
L 189.627628 65.599632 
L 192.792169 61.860415 
L 195.956711 58.470763 
L 199.121237 55.606856 
L 202.285779 53.518953 
L 205.45032 52.530051 
L 208.614862 52.979517 
L 211.779403 55.049544 
L 214.943944 58.502273 
L 218.108486 62.680761 
L 221.273027 67.035534 
L 224.437569 71.406461 
L 227.60211 75.784087 
L 230.766651 80.176184 
L 233.931193 84.600169 
L 237.095734 89.093713 
L 240.260261 93.736756 
L 243.424802 98.695075 
L 246.589344 104.300404 
L 249.753885 111.189002 
L 252.918427 120.522822 
L 256.082968 134.314146 
L 259.247509 155.777341 
L 262.412051 188.057323 
L 265.576592 213.510533 
L 268.741134 205.413973 
L 271.905675 192.374411 
L 275.070216 179.666338 
L 278.234743 167.437975 
L 281.399285 155.7921 
L 284.563826 144.832261 
L 287.728367 134.648106 
L 290.892909 125.288053 
L 294.05745 116.735892 
L 297.221992 108.899882 
L 300.386533 101.682969 
L 303.551074 95.01247 
L 306.715616 88.84952 
L 309.880157 83.18859 
L 313.044699 78.044228 
L 316.20924 73.438978 
L 319.373767 69.386692 
L 322.538308 65.88098 
L 325.70285 62.897525 
L 328.867391 60.394028 
L 332.031932 58.343647 
L 335.196474 56.743217 
L 338.361015 55.60943 
L 341.525557 54.974817 
L 344.690098 54.88302 
L 347.85464 55.375586 
L 351.019181 56.484452 
L 354.183722 58.267426 
L 357.348249 61.050442 
L 360.51279 65.566861 
L 363.677332 73.619224 
L 366.841873 89.582675 
L 370.006415 116.79986 
L 373.170956 153.069913 
L 376.335498 188.464092 
L 379.500039 217.824787 
L 382.66458 250.652578 
L 385.829122 312.220577 
L 386.663545 346.6 
" clip-path="url(#p98dd7695fb)" style="fill: none; stroke: #008000; stroke-width: 2; stroke-linecap: square"/>
   </g>
   <g id="LineCollection_1">
    <path d="M 204.563091 57.293219 
L 204.563091 53.789669 
" clip-path="url(#p98dd7695fb)" style="fill: none; stroke: #000000; stroke-width: 1.5"/>
    <path d="M 205.962764 52.812469 
L 205.962764 51.795171 
" clip-path="url(#p98dd7695fb)" style="fill: none; stroke: #000000; stroke-width: 1.5"/>
    <path d="M 207.477058 53.006515 
L 207.477058 51.874587 
" clip-path="url(#p98dd7695fb)" style="fill: none; stroke: #000000; stroke-width: 1.5"/>
    <path d="M 209.311557 54.230421 
L 209.311557 53.253711 
" clip-path="url(#p98dd7695fb)" style="fill: none; stroke: #000000; stroke-width: 1.5"/>
    <path d="M 211.221596 55.217178 
L 211.221596 54.222599 
" clip-path="url(#p98dd7695fb)" style="fill: none; stroke: #000000; stroke-width: 1.5"/>
    <path d="M 241.870043 103.143032 
L 241.870043 95.992186 
" clip-path="url(#p98dd7695fb)" style="fill: none; stroke: #000000; stroke-width: 1.5"/>
    <path d="M 242.676742 106.204887 
L 242.676742 98.269949 
" clip-path="url(#p98dd7695fb)" style="fill: none; stroke: #000000; stroke-width: 1.5"/>
    <path d="M 243.328041 99.87608 
L 243.328041 93.386823 
" clip-path="url(#p98dd7695fb)" style="fill: none; stroke: #000000; stroke-width: 1.5"/>
    <path d="M 244.007544 101.227377 
L 244.007544 95.075008 
" clip-path="url(#p98dd7695fb)" style="fill: none; stroke: #000000; stroke-width: 1.5"/>
    <path d="M 244.621661 96.346765 
L 244.621661 90.296744 
" clip-path="url(#p98dd7695fb)" style="fill: none; stroke: #000000; stroke-width: 1.5"/>
    <path d="M 245.206212 102.603361 
L 245.206212 96.278385 
" clip-path="url(#p98dd7695fb)" style="fill: none; stroke: #000000; stroke-width: 1.5"/>
    <path d="M 246.00426 109.794079 
L 246.00426 103.822339 
" clip-path="url(#p98dd7695fb)" style="fill: none; stroke: #000000; stroke-width: 1.5"/>
    <path d="M 246.921171 106.087029 
L 246.921171 100.105837 
" clip-path="url(#p98dd7695fb)" style="fill: none; stroke: #000000; stroke-width: 1.5"/>
    <path d="M 248.026674 106.878004 
L 248.026674 100.772986 
" clip-path="url(#p98dd7695fb)" style="fill: none; stroke: #000000; stroke-width: 1.5"/>
    <path d="M 250.453122 117.508267 
L 250.453122 111.424112 
" clip-path="url(#p98dd7695fb)" style="fill: none; stroke: #000000; stroke-width: 1.5"/>
    <path d="M 252.898992 127.161046 
L 252.898992 116.546838 
" clip-path="url(#p98dd7695fb)" style="fill: none; stroke: #000000; stroke-width: 1.5"/>
    <path d="M 320.504343 77.018531 
L 320.504343 68.135897 
" clip-path="url(#p98dd7695fb)" style="fill: none; stroke: #000000; stroke-width: 1.5"/>
    <path d="M 327.858201 59.557615 
L 327.858201 55.548012 
" clip-path="url(#p98dd7695fb)" style="fill: none; stroke: #000000; stroke-width: 1.5"/>
    <path d="M 335.212058 61.834347 
L 335.212058 56.536161 
" clip-path="url(#p98dd7695fb)" style="fill: none; stroke: #000000; stroke-width: 1.5"/>
    <path d="M 342.565916 63.309602 
L 342.565916 55.527326 
" clip-path="url(#p98dd7695fb)" style="fill: none; stroke: #000000; stroke-width: 1.5"/>
    <path d="M 349.919773 69.563679 
L 349.919773 54.220644 
" clip-path="url(#p98dd7695fb)" style="fill: none; stroke: #000000; stroke-width: 1.5"/>
    <path d="M 357.273631 77.070569 
L 357.273631 51.371799 
" clip-path="url(#p98dd7695fb)" style="fill: none; stroke: #000000; stroke-width: 1.5"/>
    <path d="M 363.700185 70.954034 
L 363.700185 62.024826 
" clip-path="url(#p98dd7695fb)" style="fill: none; stroke: #000000; stroke-width: 1.5"/>
    <path d="M 364.436392 79.353843 
L 364.436392 70.069365 
" clip-path="url(#p98dd7695fb)" style="fill: none; stroke: #000000; stroke-width: 1.5"/>
    <path d="M 365.171395 82.436119 
L 365.171395 73.817943 
" clip-path="url(#p98dd7695fb)" style="fill: none; stroke: #000000; stroke-width: 1.5"/>
    <path d="M 365.903379 80.623099 
L 365.903379 65.478952 
" clip-path="url(#p98dd7695fb)" style="fill: none; stroke: #000000; stroke-width: 1.5"/>
    <path d="M 366.638579 106.387378 
L 366.638579 87.487137 
" clip-path="url(#p98dd7695fb)" style="fill: none; stroke: #000000; stroke-width: 1.5"/>
    <path d="M 367.372646 99.772389 
L 367.372646 86.046256 
" clip-path="url(#p98dd7695fb)" style="fill: none; stroke: #000000; stroke-width: 1.5"/>
    <path d="M 368.108431 106.849956 
L 368.108431 91.913389 
" clip-path="url(#p98dd7695fb)" style="fill: none; stroke: #000000; stroke-width: 1.5"/>
    <path d="M 369.17713 133.077467 
L 369.17713 113.078889 
" clip-path="url(#p98dd7695fb)" style="fill: none; stroke: #000000; stroke-width: 1.5"/>
   </g>
   <g id="line2d_12">
    <defs>
     <path id="m676cca9b2a" d="M 0 1.5 
C 0.397805 1.5 0.77937 1.341951 1.06066 1.06066 
C 1.341951 0.77937 1.5 0.397805 1.5 0 
C 1.5 -0.397805 1.341951 -0.77937 1.06066 -1.06066 
C 0.77937 -1.341951 0.397805 -1.5 0 -1.5 
C -0.397805 -1.5 -0.77937 -1.341951 -1.06066 -1.06066 
C -1.341951 -0.77937 -1.5 -0.397805 -1.5 0 
C -1.5 0.397805 -1.341951 0.77937 -1.06066 1.06066 
C -0.77937 1.341951 -0.397805 1.5 0 1.5 
z
" style="stroke: #0000ff"/>
    </defs>
    <g clip-path="url(#p98dd7695fb)">
     <use xlink:href="#m676cca9b2a" x="204.563091" y="55.475691" style="fill: #0000ff; stroke: #0000ff"/>
     <use xlink:href="#m676cca9b2a" x="205.962764" y="52.298271" style="fill: #0000ff; stroke: #0000ff"/>
     <use xlink:href="#m676cca9b2a" x="207.477058" y="52.433682" style="fill: #0000ff; stroke: #0000ff"/>
     <use xlink:href="#m676cca9b2a" x="209.311557" y="53.736951" style="fill: #0000ff; stroke: #0000ff"/>
     <use xlink:href="#m676cca9b2a" x="211.221596" y="54.714585" style="fill: #0000ff; stroke: #0000ff"/>
     <use xlink:href="#m676cca9b2a" x="241.870043" y="99.294505" style="fill: #0000ff; stroke: #0000ff"/>
     <use xlink:href="#m676cca9b2a" x="242.676742" y="101.90144" style="fill: #0000ff; stroke: #0000ff"/>
     <use xlink:href="#m676cca9b2a" x="243.328041" y="96.40639" style="fill: #0000ff; stroke: #0000ff"/>
     <use xlink:href="#m676cca9b2a" x="244.007544" y="97.948827" style="fill: #0000ff; stroke: #0000ff"/>
     <use xlink:href="#m676cca9b2a" x="244.621661" y="93.126047" style="fill: #0000ff; stroke: #0000ff"/>
     <use xlink:href="#m676cca9b2a" x="245.206212" y="99.227028" style="fill: #0000ff; stroke: #0000ff"/>
     <use xlink:href="#m676cca9b2a" x="246.00426" y="106.61752" style="fill: #0000ff; stroke: #0000ff"/>
     <use xlink:href="#m676cca9b2a" x="246.921171" y="102.905141" style="fill: #0000ff; stroke: #0000ff"/>
     <use xlink:href="#m676cca9b2a" x="248.026674" y="103.626223" style="fill: #0000ff; stroke: #0000ff"/>
     <use xlink:href="#m676cca9b2a" x="250.453122" y="114.268273" style="fill: #0000ff; stroke: #0000ff"/>
     <use xlink:href="#m676cca9b2a" x="252.898992" y="121.255023" style="fill: #0000ff; stroke: #0000ff"/>
     <use xlink:href="#m676cca9b2a" x="320.504343" y="72.156698" style="fill: #0000ff; stroke: #0000ff"/>
     <use xlink:href="#m676cca9b2a" x="327.858201" y="57.466718" style="fill: #0000ff; stroke: #0000ff"/>
     <use xlink:href="#m676cca9b2a" x="335.212058" y="59.035068" style="fill: #0000ff; stroke: #0000ff"/>
     <use xlink:href="#m676cca9b2a" x="342.565916" y="59.095231" style="fill: #0000ff; stroke: #0000ff"/>
     <use xlink:href="#m676cca9b2a" x="349.919773" y="60.652093" style="fill: #0000ff; stroke: #0000ff"/>
     <use xlink:href="#m676cca9b2a" x="357.273631" y="60.846101" style="fill: #0000ff; stroke: #0000ff"/>
     <use xlink:href="#m676cca9b2a" x="363.700185" y="66.064519" style="fill: #0000ff; stroke: #0000ff"/>
     <use xlink:href="#m676cca9b2a" x="364.436392" y="74.252433" style="fill: #0000ff; stroke: #0000ff"/>
     <use xlink:href="#m676cca9b2a" x="365.171395" y="77.731042" style="fill: #0000ff; stroke: #0000ff"/>
     <use xlink:href="#m676cca9b2a" x="365.903379" y="71.842358" style="fill: #0000ff; stroke: #0000ff"/>
     <use xlink:href="#m676cca9b2a" x="366.638579" y="95.072189" style="fill: #0000ff; stroke: #0000ff"/>
     <use xlink:href="#m676cca9b2a" x="367.372646" y="91.913389" style="fill: #0000ff; stroke: #0000ff"/>
     <use xlink:href="#m676cca9b2a" x="368.108431" y="98.20537" style="fill: #0000ff; stroke: #0000ff"/>
     <use xlink:href="#m676cca9b2a" x="369.17713" y="120.996464" style="fill: #0000ff; stroke: #0000ff"/>
    </g>
   </g>
   <g id="patch_3">
    <path d="M 57.6 307.584 
L 57.6 41.472 
" style="fill: none; stroke: #000000; stroke-width: 0.8; stroke-linejoin: miter; stroke-linecap: square"/>
   </g>
   <g id="patch_4">
    <path d="M 414.72 307.584 
L 414.72 41.472 
" style="fill: none; stroke: #000000; stroke-width: 0.8; stroke-linejoin: miter; stroke-linecap: square"/>
   </g>
   <g id="patch_5">
    <path d="M 57.6 307.584 
L 414.72 307.584 
" style="fill: none; stroke: #000000; stroke-width: 0.8; stroke-linejoin: miter; stroke-linecap: square"/>
   </g>
   <g id="patch_6">
    <path d="M 57.6 41.472 
L 414.72 41.472 
" style="fill: none; stroke: #000000; stroke-width: 0.8; stroke-linejoin: miter; stroke-linecap: square"/>
   </g>
   <g id="text_13">
    <!-- MCMC results with the range from extreme models within 1 sigma -->
    <g transform="translate(37.283437 35.472)scale(0.12 -0.12)">
     <defs>
      <path id="DejaVuSans-4d" d="M 628 4666 
L 1569 4666 
L 2759 1491 
L 3956 4666 
L 4897 4666 
L 4897 0 
L 4281 0 
L 4281 4097 
L 3078 897 
L 2444 897 
L 1241 4097 
L 1241 0 
L 628 0 
L 628 4666 
z
" transform="scale(0.015625)"/>
      <path id="DejaVuSans-43" d="M 4122 4306 
L 4122 3641 
Q 3803 3938 3442 4084 
Q 3081 4231 2675 4231 
Q 1875 4231 1450 3742 
Q 1025 3253 1025 2328 
Q 1025 1406 1450 917 
Q 1875 428 2675 428 
Q 3081 428 3442 575 
Q 3803 722 4122 1019 
L 4122 359 
Q 3791 134 3420 21 
Q 3050 -91 2638 -91 
Q 1578 -91 968 557 
Q 359 1206 359 2328 
Q 359 3453 968 4101 
Q 1578 4750 2638 4750 
Q 3056 4750 3426 4639 
Q 3797 4528 4122 4306 
z
" transform="scale(0.015625)"/>
      <path id="DejaVuSans-72" d="M 2631 2963 
Q 2534 3019 2420 3045 
Q 2306 3072 2169 3072 
Q 1681 3072 1420 2755 
Q 1159 2438 1159 1844 
L 1159 0 
L 581 0 
L 581 3500 
L 1159 3500 
L 1159 2956 
Q 1341 3275 1631 3429 
Q 1922 3584 2338 3584 
Q 2397 3584 2469 3576 
Q 2541 3569 2628 3553 
L 2631 2963 
z
" transform="scale(0.015625)"/>
      <path id="DejaVuSans-65" d="M 3597 1894 
L 3597 1613 
L 953 1613 
Q 991 1019 1311 708 
Q 1631 397 2203 397 
Q 2534 397 2845 478 
Q 3156 559 3463 722 
L 3463 178 
Q 3153 47 2828 -22 
Q 2503 -91 2169 -91 
Q 1331 -91 842 396 
Q 353 884 353 1716 
Q 353 2575 817 3079 
Q 1281 3584 2069 3584 
Q 2775 3584 3186 3129 
Q 3597 2675 3597 1894 
z
M 3022 2063 
Q 3016 2534 2758 2815 
Q 2500 3097 2075 3097 
Q 1594 3097 1305 2825 
Q 1016 2553 972 2059 
L 3022 2063 
z
" transform="scale(0.015625)"/>
      <path id="DejaVuSans-73" d="M 2834 3397 
L 2834 2853 
Q 2591 2978 2328 3040 
Q 2066 3103 1784 3103 
Q 1356 3103 1142 2972 
Q 928 2841 928 2578 
Q 928 2378 1081 2264 
Q 1234 2150 1697 2047 
L 1894 2003 
Q 2506 1872 2764 1633 
Q 3022 1394 3022 966 
Q 3022 478 2636 193 
Q 2250 -91 1575 -91 
Q 1294 -91 989 -36 
Q 684 19 347 128 
L 347 722 
Q 666 556 975 473 
Q 1284 391 1588 391 
Q 1994 391 2212 530 
Q 2431 669 2431 922 
Q 2431 1156 2273 1281 
Q 2116 1406 1581 1522 
L 1381 1569 
Q 847 1681 609 1914 
Q 372 2147 372 2553 
Q 372 3047 722 3315 
Q 1072 3584 1716 3584 
Q 2034 3584 2315 3537 
Q 2597 3491 2834 3397 
z
" transform="scale(0.015625)"/>
      <path id="DejaVuSans-75" d="M 544 1381 
L 544 3500 
L 1119 3500 
L 1119 1403 
Q 1119 906 1312 657 
Q 1506 409 1894 409 
Q 2359 409 2629 706 
Q 2900 1003 2900 1516 
L 2900 3500 
L 3475 3500 
L 3475 0 
L 2900 0 
L 2900 538 
Q 2691 219 2414 64 
Q 2138 -91 1772 -91 
Q 1169 -91 856 284 
Q 544 659 544 1381 
z
M 1991 3584 
L 1991 3584 
z
" transform="scale(0.015625)"/>
      <path id="DejaVuSans-74" d="M 1172 4494 
L 1172 3500 
L 2356 3500 
L 2356 3053 
L 1172 3053 
L 1172 1153 
Q 1172 725 1289 603 
Q 1406 481 1766 481 
L 2356 481 
L 2356 0 
L 1766 0 
Q 1100 0 847 248 
Q 594 497 594 1153 
L 594 3053 
L 172 3053 
L 172 3500 
L 594 3500 
L 594 4494 
L 1172 4494 
z
" transform="scale(0.015625)"/>
      <path id="DejaVuSans-77" d="M 269 3500 
L 844 3500 
L 1563 769 
L 2278 3500 
L 2956 3500 
L 3675 769 
L 4391 3500 
L 4966 3500 
L 4050 0 
L 3372 0 
L 2619 2869 
L 1863 0 
L 1184 0 
L 269 3500 
z
" transform="scale(0.015625)"/>
      <path id="DejaVuSans-69" d="M 603 3500 
L 1178 3500 
L 1178 0 
L 603 0 
L 603 3500 
z
M 603 4863 
L 1178 4863 
L 1178 4134 
L 603 4134 
L 603 4863 
z
" transform="scale(0.015625)"/>
      <path id="DejaVuSans-68" d="M 3513 2113 
L 3513 0 
L 2938 0 
L 2938 2094 
Q 2938 2591 2744 2837 
Q 2550 3084 2163 3084 
Q 1697 3084 1428 2787 
Q 1159 2491 1159 1978 
L 1159 0 
L 581 0 
L 581 4863 
L 1159 4863 
L 1159 2956 
Q 1366 3272 1645 3428 
Q 1925 3584 2291 3584 
Q 2894 3584 3203 3211 
Q 3513 2838 3513 2113 
z
" transform="scale(0.015625)"/>
      <path id="DejaVuSans-61" d="M 2194 1759 
Q 1497 1759 1228 1600 
Q 959 1441 959 1056 
Q 959 750 1161 570 
Q 1363 391 1709 391 
Q 2188 391 2477 730 
Q 2766 1069 2766 1631 
L 2766 1759 
L 2194 1759 
z
M 3341 1997 
L 3341 0 
L 2766 0 
L 2766 531 
Q 2569 213 2275 61 
Q 1981 -91 1556 -91 
Q 1019 -91 701 211 
Q 384 513 384 1019 
Q 384 1609 779 1909 
Q 1175 2209 1959 2209 
L 2766 2209 
L 2766 2266 
Q 2766 2663 2505 2880 
Q 2244 3097 1772 3097 
Q 1472 3097 1187 3025 
Q 903 2953 641 2809 
L 641 3341 
Q 956 3463 1253 3523 
Q 1550 3584 1831 3584 
Q 2591 3584 2966 3190 
Q 3341 2797 3341 1997 
z
" transform="scale(0.015625)"/>
      <path id="DejaVuSans-6e" d="M 3513 2113 
L 3513 0 
L 2938 0 
L 2938 2094 
Q 2938 2591 2744 2837 
Q 2550 3084 2163 3084 
Q 1697 3084 1428 2787 
Q 1159 2491 1159 1978 
L 1159 0 
L 581 0 
L 581 3500 
L 1159 3500 
L 1159 2956 
Q 1366 3272 1645 3428 
Q 1925 3584 2291 3584 
Q 2894 3584 3203 3211 
Q 3513 2838 3513 2113 
z
" transform="scale(0.015625)"/>
      <path id="DejaVuSans-66" d="M 2375 4863 
L 2375 4384 
L 1825 4384 
Q 1516 4384 1395 4259 
Q 1275 4134 1275 3809 
L 1275 3500 
L 2222 3500 
L 2222 3053 
L 1275 3053 
L 1275 0 
L 697 0 
L 697 3053 
L 147 3053 
L 147 3500 
L 697 3500 
L 697 3744 
Q 697 4328 969 4595 
Q 1241 4863 1831 4863 
L 2375 4863 
z
" transform="scale(0.015625)"/>
      <path id="DejaVuSans-6d" d="M 3328 2828 
Q 3544 3216 3844 3400 
Q 4144 3584 4550 3584 
Q 5097 3584 5394 3201 
Q 5691 2819 5691 2113 
L 5691 0 
L 5113 0 
L 5113 2094 
Q 5113 2597 4934 2840 
Q 4756 3084 4391 3084 
Q 3944 3084 3684 2787 
Q 3425 2491 3425 1978 
L 3425 0 
L 2847 0 
L 2847 2094 
Q 2847 2600 2669 2842 
Q 2491 3084 2119 3084 
Q 1678 3084 1418 2786 
Q 1159 2488 1159 1978 
L 1159 0 
L 581 0 
L 581 3500 
L 1159 3500 
L 1159 2956 
Q 1356 3278 1631 3431 
Q 1906 3584 2284 3584 
Q 2666 3584 2933 3390 
Q 3200 3197 3328 2828 
z
" transform="scale(0.015625)"/>
      <path id="DejaVuSans-78" d="M 3513 3500 
L 2247 1797 
L 3578 0 
L 2900 0 
L 1881 1375 
L 863 0 
L 184 0 
L 1544 1831 
L 300 3500 
L 978 3500 
L 1906 2253 
L 2834 3500 
L 3513 3500 
z
" transform="scale(0.015625)"/>
      <path id="DejaVuSans-64" d="M 2906 2969 
L 2906 4863 
L 3481 4863 
L 3481 0 
L 2906 0 
L 2906 525 
Q 2725 213 2448 61 
Q 2172 -91 1784 -91 
Q 1150 -91 751 415 
Q 353 922 353 1747 
Q 353 2572 751 3078 
Q 1150 3584 1784 3584 
Q 2172 3584 2448 3432 
Q 2725 3281 2906 2969 
z
M 947 1747 
Q 947 1113 1208 752 
Q 1469 391 1925 391 
Q 2381 391 2643 752 
Q 2906 1113 2906 1747 
Q 2906 2381 2643 2742 
Q 2381 3103 1925 3103 
Q 1469 3103 1208 2742 
Q 947 2381 947 1747 
z
" transform="scale(0.015625)"/>
     </defs>
     <use xlink:href="#DejaVuSans-4d"/>
     <use xlink:href="#DejaVuSans-43" x="86.279297"/>
     <use xlink:href="#DejaVuSans-4d" x="156.103516"/>
     <use xlink:href="#DejaVuSans-43" x="242.382812"/>
     <use xlink:href="#DejaVuSans-20" x="312.207031"/>
     <use xlink:href="#DejaVuSans-72" x="343.994141"/>
     <use xlink:href="#DejaVuSans-65" x="382.857422"/>
     <use xlink:href="#DejaVuSans-73" x="444.380859"/>
     <use xlink:href="#DejaVuSans-75" x="496.480469"/>
     <use xlink:href="#DejaVuSans-6c" x="559.859375"/>
     <use xlink:href="#DejaVuSans-74" x="587.642578"/>
     <use xlink:href="#DejaVuSans-73" x="626.851562"/>
     <use xlink:href="#DejaVuSans-20" x="678.951172"/>
     <use xlink:href="#DejaVuSans-77" x="710.738281"/>
     <use xlink:href="#DejaVuSans-69" x="792.525391"/>
     <use xlink:href="#DejaVuSans-74" x="820.308594"/>
     <use xlink:href="#DejaVuSans-68" x="859.517578"/>
     <use xlink:href="#DejaVuSans-20" x="922.896484"/>
     <use xlink:href="#DejaVuSans-74" x="954.683594"/>
     <use xlink:href="#DejaVuSans-68" x="993.892578"/>
     <use xlink:href="#DejaVuSans-65" x="1057.271484"/>
     <use xlink:href="#DejaVuSans-20" x="1118.794922"/>
     <use xlink:href="#DejaVuSans-72" x="1150.582031"/>
     <use xlink:href="#DejaVuSans-61" x="1191.695312"/>
     <use xlink:href="#DejaVuSans-6e" x="1252.974609"/>
     <use xlink:href="#DejaVuSans-67" x="1316.353516"/>
     <use xlink:href="#DejaVuSans-65" x="1379.830078"/>
     <use xlink:href="#DejaVuSans-20" x="1441.353516"/>
     <use xlink:href="#DejaVuSans-66" x="1473.140625"/>
     <use xlink:href="#DejaVuSans-72" x="1508.345703"/>
     <use xlink:href="#DejaVuSans-6f" x="1547.208984"/>
     <use xlink:href="#DejaVuSans-6d" x="1608.390625"/>
     <use xlink:href="#DejaVuSans-20" x="1705.802734"/>
     <use xlink:href="#DejaVuSans-65" x="1737.589844"/>
     <use xlink:href="#DejaVuSans-78" x="1797.363281"/>
     <use xlink:href="#DejaVuSans-74" x="1856.542969"/>
     <use xlink:href="#DejaVuSans-72" x="1895.751953"/>
     <use xlink:href="#DejaVuSans-65" x="1934.615234"/>
     <use xlink:href="#DejaVuSans-6d" x="1996.138672"/>
     <use xlink:href="#DejaVuSans-65" x="2093.550781"/>
     <use xlink:href="#DejaVuSans-20" x="2155.074219"/>
     <use xlink:href="#DejaVuSans-6d" x="2186.861328"/>
     <use xlink:href="#DejaVuSans-6f" x="2284.273438"/>
     <use xlink:href="#DejaVuSans-64" x="2345.455078"/>
     <use xlink:href="#DejaVuSans-65" x="2408.931641"/>
     <use xlink:href="#DejaVuSans-6c" x="2470.455078"/>
     <use xlink:href="#DejaVuSans-73" x="2498.238281"/>
     <use xlink:href="#DejaVuSans-20" x="2550.337891"/>
     <use xlink:href="#DejaVuSans-77" x="2582.125"/>
     <use xlink:href="#DejaVuSans-69" x="2663.912109"/>
     <use xlink:href="#DejaVuSans-74" x="2691.695312"/>
     <use xlink:href="#DejaVuSans-68" x="2730.904297"/>
     <use xlink:href="#DejaVuSans-69" x="2794.283203"/>
     <use xlink:href="#DejaVuSans-6e" x="2822.066406"/>
     <use xlink:href="#DejaVuSans-20" x="2885.445312"/>
     <use xlink:href="#DejaVuSans-31" x="2917.232422"/>
     <use xlink:href="#DejaVuSans-20" x="2980.855469"/>
     <use xlink:href="#DejaVuSans-73" x="3012.642578"/>
     <use xlink:href="#DejaVuSans-69" x="3064.742188"/>
     <use xlink:href="#DejaVuSans-67" x="3092.525391"/>
     <use xlink:href="#DejaVuSans-6d" x="3156.001953"/>
     <use xlink:href="#DejaVuSans-61" x="3253.414062"/>
    </g>
   </g>
   <g id="legend_1">
    <g id="patch_7">
     <path d="M 64.6 93.506375 
L 171.3375 93.506375 
Q 173.3375 93.506375 173.3375 91.506375 
L 173.3375 48.472 
Q 173.3375 46.472 171.3375 46.472 
L 64.6 46.472 
Q 62.6 46.472 62.6 48.472 
L 62.6 91.506375 
Q 62.6 93.506375 64.6 93.506375 
z
" style="fill: #ffffff; opacity: 0.8; stroke: #cccccc; stroke-linejoin: miter"/>
    </g>
    <g id="patch_8">
     <path d="M 66.6 58.070438 
L 86.6 58.070438 
L 86.6 51.070438 
L 66.6 51.070438 
z
" style="fill: #1f77b4; fill-opacity: 0.5"/>
    </g>
    <g id="text_14">
     <!-- Within 1 sigma -->
     <g transform="translate(94.6 58.070438)scale(0.1 -0.1)">
      <defs>
       <path id="DejaVuSans-57" d="M 213 4666 
L 850 4666 
L 1831 722 
L 2809 4666 
L 3519 4666 
L 4500 722 
L 5478 4666 
L 6119 4666 
L 4947 0 
L 4153 0 
L 3169 4050 
L 2175 0 
L 1381 0 
L 213 4666 
z
" transform="scale(0.015625)"/>
      </defs>
      <use xlink:href="#DejaVuSans-57"/>
      <use xlink:href="#DejaVuSans-69" x="96.626953"/>
      <use xlink:href="#DejaVuSans-74" x="124.410156"/>
      <use xlink:href="#DejaVuSans-68" x="163.619141"/>
      <use xlink:href="#DejaVuSans-69" x="226.998047"/>
      <use xlink:href="#DejaVuSans-6e" x="254.78125"/>
      <use xlink:href="#DejaVuSans-20" x="318.160156"/>
      <use xlink:href="#DejaVuSans-31" x="349.947266"/>
      <use xlink:href="#DejaVuSans-20" x="413.570312"/>
      <use xlink:href="#DejaVuSans-73" x="445.357422"/>
      <use xlink:href="#DejaVuSans-69" x="497.457031"/>
      <use xlink:href="#DejaVuSans-67" x="525.240234"/>
      <use xlink:href="#DejaVuSans-6d" x="588.716797"/>
      <use xlink:href="#DejaVuSans-61" x="686.128906"/>
     </g>
    </g>
    <g id="line2d_13">
     <path d="M 66.6 69.248563 
L 76.6 69.248563 
L 86.6 69.248563 
" style="fill: none; stroke: #008000; stroke-width: 2; stroke-linecap: square"/>
    </g>
    <g id="text_15">
     <!-- Best model -->
     <g transform="translate(94.6 72.748563)scale(0.1 -0.1)">
      <defs>
       <path id="DejaVuSans-42" d="M 1259 2228 
L 1259 519 
L 2272 519 
Q 2781 519 3026 730 
Q 3272 941 3272 1375 
Q 3272 1813 3026 2020 
Q 2781 2228 2272 2228 
L 1259 2228 
z
M 1259 4147 
L 1259 2741 
L 2194 2741 
Q 2656 2741 2882 2914 
Q 3109 3088 3109 3444 
Q 3109 3797 2882 3972 
Q 2656 4147 2194 4147 
L 1259 4147 
z
M 628 4666 
L 2241 4666 
Q 2963 4666 3353 4366 
Q 3744 4066 3744 3513 
Q 3744 3084 3544 2831 
Q 3344 2578 2956 2516 
Q 3422 2416 3680 2098 
Q 3938 1781 3938 1306 
Q 3938 681 3513 340 
Q 3088 0 2303 0 
L 628 0 
L 628 4666 
z
" transform="scale(0.015625)"/>
      </defs>
      <use xlink:href="#DejaVuSans-42"/>
      <use xlink:href="#DejaVuSans-65" x="68.603516"/>
      <use xlink:href="#DejaVuSans-73" x="130.126953"/>
      <use xlink:href="#DejaVuSans-74" x="182.226562"/>
      <use xlink:href="#DejaVuSans-20" x="221.435547"/>
      <use xlink:href="#DejaVuSans-6d" x="253.222656"/>
      <use xlink:href="#DejaVuSans-6f" x="350.634766"/>
      <use xlink:href="#DejaVuSans-64" x="411.816406"/>
      <use xlink:href="#DejaVuSans-65" x="475.292969"/>
      <use xlink:href="#DejaVuSans-6c" x="536.816406"/>
     </g>
    </g>
    <g id="LineCollection_2">
     <path d="M 76.6 88.926688 
L 76.6 78.926688 
" style="fill: none; stroke: #000000; stroke-width: 1.5"/>
    </g>
    <g id="line2d_14"/>
    <g id="line2d_15">
     <g>
      <use xlink:href="#m676cca9b2a" x="76.6" y="83.926688" style="fill: #0000ff; stroke: #0000ff"/>
     </g>
    </g>
    <g id="text_16">
     <!-- Real data -->
     <g transform="translate(94.6 87.426688)scale(0.1 -0.1)">
      <defs>
       <path id="DejaVuSans-52" d="M 2841 2188 
Q 3044 2119 3236 1894 
Q 3428 1669 3622 1275 
L 4263 0 
L 3584 0 
L 2988 1197 
Q 2756 1666 2539 1819 
Q 2322 1972 1947 1972 
L 1259 1972 
L 1259 0 
L 628 0 
L 628 4666 
L 2053 4666 
Q 2853 4666 3247 4331 
Q 3641 3997 3641 3322 
Q 3641 2881 3436 2590 
Q 3231 2300 2841 2188 
z
M 1259 4147 
L 1259 2491 
L 2053 2491 
Q 2509 2491 2742 2702 
Q 2975 2913 2975 3322 
Q 2975 3731 2742 3939 
Q 2509 4147 2053 4147 
L 1259 4147 
z
" transform="scale(0.015625)"/>
      </defs>
      <use xlink:href="#DejaVuSans-52"/>
      <use xlink:href="#DejaVuSans-65" x="64.982422"/>
      <use xlink:href="#DejaVuSans-61" x="126.505859"/>
      <use xlink:href="#DejaVuSans-6c" x="187.785156"/>
      <use xlink:href="#DejaVuSans-20" x="215.568359"/>
      <use xlink:href="#DejaVuSans-64" x="247.355469"/>
      <use xlink:href="#DejaVuSans-61" x="310.832031"/>
      <use xlink:href="#DejaVuSans-74" x="372.111328"/>
      <use xlink:href="#DejaVuSans-61" x="411.320312"/>
     </g>
    </g>
   </g>
  </g>
 </g>
 <defs>
  <clipPath id="p98dd7695fb">
   <rect x="57.6" y="41.472" width="357.12" height="266.112"/>
  </clipPath>
 </defs>
</svg>
