<?xml version="1.0" encoding="utf-8" standalone="no"?>
<!DOCTYPE svg PUBLIC "-//W3C//DTD SVG 1.1//EN"
  "http://www.w3.org/Graphics/SVG/1.1/DTD/svg11.dtd">
<svg xmlns:xlink="http://www.w3.org/1999/xlink" width="460.8pt" height="345.6pt" viewBox="0 0 460.8 345.6" xmlns="http://www.w3.org/2000/svg" version="1.1">
 <metadata>
  <rdf:RDF xmlns:dc="http://purl.org/dc/elements/1.1/" xmlns:cc="http://creativecommons.org/ns#" xmlns:rdf="http://www.w3.org/1999/02/22-rdf-syntax-ns#">
   <cc:Work>
    <dc:type rdf:resource="http://purl.org/dc/dcmitype/StillImage"/>
    <dc:date>2022-06-09T23:18:06.933844</dc:date>
    <dc:format>image/svg+xml</dc:format>
    <dc:creator>
     <cc:Agent>
      <dc:title>Matplotlib v3.5.0, https://matplotlib.org/</dc:title>
     </cc:Agent>
    </dc:creator>
   </cc:Work>
  </rdf:RDF>
 </metadata>
 <defs>
  <style type="text/css">*{stroke-linejoin: round; stroke-linecap: butt}</style>
 </defs>
 <g id="figure_1">
  <g id="patch_1">
   <path d="M 0 345.6 
L 460.8 345.6 
L 460.8 0 
L 0 0 
z
" style="fill: #ffffff"/>
  </g>
  <g id="axes_1">
   <g id="patch_2">
    <path d="M 57.6 307.584 
L 414.72 307.584 
L 414.72 41.472 
L 57.6 41.472 
z
" style="fill: #ffffff"/>
   </g>
   <g id="matplotlib.axis_1">
    <g id="xtick_1">
     <g id="line2d_1">
      <defs>
       <path id="m8000389702" d="M 0 0 
L 0 3.5 
" style="stroke: #000000; stroke-width: 0.8"/>
      </defs>
      <g>
       <use xlink:href="#m8000389702" x="58.974646" y="307.584" style="stroke: #000000; stroke-width: 0.8"/>
      </g>
     </g>
     <g id="text_1">
      <!-- 5 -->
      <g transform="translate(55.793396 322.182437)scale(0.1 -0.1)">
       <defs>
        <path id="DejaVuSans-35" d="M 691 4666 
L 3169 4666 
L 3169 4134 
L 1269 4134 
L 1269 2991 
Q 1406 3038 1543 3061 
Q 1681 3084 1819 3084 
Q 2600 3084 3056 2656 
Q 3513 2228 3513 1497 
Q 3513 744 3044 326 
Q 2575 -91 1722 -91 
Q 1428 -91 1123 -41 
Q 819 9 494 109 
L 494 744 
Q 775 591 1075 516 
Q 1375 441 1709 441 
Q 2250 441 2565 725 
Q 2881 1009 2881 1497 
Q 2881 1984 2565 2268 
Q 2250 2553 1709 2553 
Q 1456 2553 1204 2497 
Q 953 2441 691 2322 
L 691 4666 
z
" transform="scale(0.015625)"/>
       </defs>
       <use xlink:href="#DejaVuSans-35"/>
      </g>
     </g>
    </g>
    <g id="xtick_2">
     <g id="line2d_2">
      <g>
       <use xlink:href="#m8000389702" x="133.278873" y="307.584" style="stroke: #000000; stroke-width: 0.8"/>
      </g>
     </g>
     <g id="text_2">
      <!-- 10 -->
      <g transform="translate(126.916373 322.182437)scale(0.1 -0.1)">
       <defs>
        <path id="DejaVuSans-31" d="M 794 531 
L 1825 531 
L 1825 4091 
L 703 3866 
L 703 4441 
L 1819 4666 
L 2450 4666 
L 2450 531 
L 3481 531 
L 3481 0 
L 794 0 
L 794 531 
z
" transform="scale(0.015625)"/>
        <path id="DejaVuSans-30" d="M 2034 4250 
Q 1547 4250 1301 3770 
Q 1056 3291 1056 2328 
Q 1056 1369 1301 889 
Q 1547 409 2034 409 
Q 2525 409 2770 889 
Q 3016 1369 3016 2328 
Q 3016 3291 2770 3770 
Q 2525 4250 2034 4250 
z
M 2034 4750 
Q 2819 4750 3233 4129 
Q 3647 3509 3647 2328 
Q 3647 1150 3233 529 
Q 2819 -91 2034 -91 
Q 1250 -91 836 529 
Q 422 1150 422 2328 
Q 422 3509 836 4129 
Q 1250 4750 2034 4750 
z
" transform="scale(0.015625)"/>
       </defs>
       <use xlink:href="#DejaVuSans-31"/>
       <use xlink:href="#DejaVuSans-30" x="63.623047"/>
      </g>
     </g>
    </g>
    <g id="xtick_3">
     <g id="line2d_3">
      <g>
       <use xlink:href="#m8000389702" x="207.5831" y="307.584" style="stroke: #000000; stroke-width: 0.8"/>
      </g>
     </g>
     <g id="text_3">
      <!-- 15 -->
      <g transform="translate(201.2206 322.182437)scale(0.1 -0.1)">
       <use xlink:href="#DejaVuSans-31"/>
       <use xlink:href="#DejaVuSans-35" x="63.623047"/>
      </g>
     </g>
    </g>
    <g id="xtick_4">
     <g id="line2d_4">
      <g>
       <use xlink:href="#m8000389702" x="281.887326" y="307.584" style="stroke: #000000; stroke-width: 0.8"/>
      </g>
     </g>
     <g id="text_4">
      <!-- 20 -->
      <g transform="translate(275.524826 322.182437)scale(0.1 -0.1)">
       <defs>
        <path id="DejaVuSans-32" d="M 1228 531 
L 3431 531 
L 3431 0 
L 469 0 
L 469 531 
Q 828 903 1448 1529 
Q 2069 2156 2228 2338 
Q 2531 2678 2651 2914 
Q 2772 3150 2772 3378 
Q 2772 3750 2511 3984 
Q 2250 4219 1831 4219 
Q 1534 4219 1204 4116 
Q 875 4013 500 3803 
L 500 4441 
Q 881 4594 1212 4672 
Q 1544 4750 1819 4750 
Q 2544 4750 2975 4387 
Q 3406 4025 3406 3419 
Q 3406 3131 3298 2873 
Q 3191 2616 2906 2266 
Q 2828 2175 2409 1742 
Q 1991 1309 1228 531 
z
" transform="scale(0.015625)"/>
       </defs>
       <use xlink:href="#DejaVuSans-32"/>
       <use xlink:href="#DejaVuSans-30" x="63.623047"/>
      </g>
     </g>
    </g>
    <g id="xtick_5">
     <g id="line2d_5">
      <g>
       <use xlink:href="#m8000389702" x="356.191553" y="307.584" style="stroke: #000000; stroke-width: 0.8"/>
      </g>
     </g>
     <g id="text_5">
      <!-- 25 -->
      <g transform="translate(349.829053 322.182437)scale(0.1 -0.1)">
       <use xlink:href="#DejaVuSans-32"/>
       <use xlink:href="#DejaVuSans-35" x="63.623047"/>
      </g>
     </g>
    </g>
    <g id="text_6">
     <!-- log(v) -->
     <g transform="translate(221.676406 335.860562)scale(0.1 -0.1)">
      <defs>
       <path id="DejaVuSans-6c" d="M 603 4863 
L 1178 4863 
L 1178 0 
L 603 0 
L 603 4863 
z
" transform="scale(0.015625)"/>
       <path id="DejaVuSans-6f" d="M 1959 3097 
Q 1497 3097 1228 2736 
Q 959 2375 959 1747 
Q 959 1119 1226 758 
Q 1494 397 1959 397 
Q 2419 397 2687 759 
Q 2956 1122 2956 1747 
Q 2956 2369 2687 2733 
Q 2419 3097 1959 3097 
z
M 1959 3584 
Q 2709 3584 3137 3096 
Q 3566 2609 3566 1747 
Q 3566 888 3137 398 
Q 2709 -91 1959 -91 
Q 1206 -91 779 398 
Q 353 888 353 1747 
Q 353 2609 779 3096 
Q 1206 3584 1959 3584 
z
" transform="scale(0.015625)"/>
       <path id="DejaVuSans-67" d="M 2906 1791 
Q 2906 2416 2648 2759 
Q 2391 3103 1925 3103 
Q 1463 3103 1205 2759 
Q 947 2416 947 1791 
Q 947 1169 1205 825 
Q 1463 481 1925 481 
Q 2391 481 2648 825 
Q 2906 1169 2906 1791 
z
M 3481 434 
Q 3481 -459 3084 -895 
Q 2688 -1331 1869 -1331 
Q 1566 -1331 1297 -1286 
Q 1028 -1241 775 -1147 
L 775 -588 
Q 1028 -725 1275 -790 
Q 1522 -856 1778 -856 
Q 2344 -856 2625 -561 
Q 2906 -266 2906 331 
L 2906 616 
Q 2728 306 2450 153 
Q 2172 0 1784 0 
Q 1141 0 747 490 
Q 353 981 353 1791 
Q 353 2603 747 3093 
Q 1141 3584 1784 3584 
Q 2172 3584 2450 3431 
Q 2728 3278 2906 2969 
L 2906 3500 
L 3481 3500 
L 3481 434 
z
" transform="scale(0.015625)"/>
       <path id="DejaVuSans-28" d="M 1984 4856 
Q 1566 4138 1362 3434 
Q 1159 2731 1159 2009 
Q 1159 1288 1364 580 
Q 1569 -128 1984 -844 
L 1484 -844 
Q 1016 -109 783 600 
Q 550 1309 550 2009 
Q 550 2706 781 3412 
Q 1013 4119 1484 4856 
L 1984 4856 
z
" transform="scale(0.015625)"/>
       <path id="DejaVuSans-76" d="M 191 3500 
L 800 3500 
L 1894 563 
L 2988 3500 
L 3597 3500 
L 2284 0 
L 1503 0 
L 191 3500 
z
" transform="scale(0.015625)"/>
       <path id="DejaVuSans-29" d="M 513 4856 
L 1013 4856 
Q 1481 4119 1714 3412 
Q 1947 2706 1947 2009 
Q 1947 1309 1714 600 
Q 1481 -109 1013 -844 
L 513 -844 
Q 928 -128 1133 580 
Q 1338 1288 1338 2009 
Q 1338 2731 1133 3434 
Q 928 4138 513 4856 
z
" transform="scale(0.015625)"/>
      </defs>
      <use xlink:href="#DejaVuSans-6c"/>
      <use xlink:href="#DejaVuSans-6f" x="27.783203"/>
      <use xlink:href="#DejaVuSans-67" x="88.964844"/>
      <use xlink:href="#DejaVuSans-28" x="152.441406"/>
      <use xlink:href="#DejaVuSans-76" x="191.455078"/>
      <use xlink:href="#DejaVuSans-29" x="250.634766"/>
     </g>
    </g>
   </g>
   <g id="matplotlib.axis_2">
    <g id="ytick_1">
     <g id="line2d_6">
      <defs>
       <path id="m97c0d6958f" d="M 0 0 
L -3.5 0 
" style="stroke: #000000; stroke-width: 0.8"/>
      </defs>
      <g>
       <use xlink:href="#m97c0d6958f" x="57.6" y="305.651678" style="stroke: #000000; stroke-width: 0.8"/>
      </g>
     </g>
     <g id="text_7">
      <!-- −15 -->
      <g transform="translate(29.495313 309.450897)scale(0.1 -0.1)">
       <defs>
        <path id="DejaVuSans-2212" d="M 678 2272 
L 4684 2272 
L 4684 1741 
L 678 1741 
L 678 2272 
z
" transform="scale(0.015625)"/>
       </defs>
       <use xlink:href="#DejaVuSans-2212"/>
       <use xlink:href="#DejaVuSans-31" x="83.789062"/>
       <use xlink:href="#DejaVuSans-35" x="147.412109"/>
      </g>
     </g>
    </g>
    <g id="ytick_2">
     <g id="line2d_7">
      <g>
       <use xlink:href="#m97c0d6958f" x="57.6" y="258.88917" style="stroke: #000000; stroke-width: 0.8"/>
      </g>
     </g>
     <g id="text_8">
      <!-- −14 -->
      <g transform="translate(29.495313 262.688389)scale(0.1 -0.1)">
       <defs>
        <path id="DejaVuSans-34" d="M 2419 4116 
L 825 1625 
L 2419 1625 
L 2419 4116 
z
M 2253 4666 
L 3047 4666 
L 3047 1625 
L 3713 1625 
L 3713 1100 
L 3047 1100 
L 3047 0 
L 2419 0 
L 2419 1100 
L 313 1100 
L 313 1709 
L 2253 4666 
z
" transform="scale(0.015625)"/>
       </defs>
       <use xlink:href="#DejaVuSans-2212"/>
       <use xlink:href="#DejaVuSans-31" x="83.789062"/>
       <use xlink:href="#DejaVuSans-34" x="147.412109"/>
      </g>
     </g>
    </g>
    <g id="ytick_3">
     <g id="line2d_8">
      <g>
       <use xlink:href="#m97c0d6958f" x="57.6" y="212.126662" style="stroke: #000000; stroke-width: 0.8"/>
      </g>
     </g>
     <g id="text_9">
      <!-- −13 -->
      <g transform="translate(29.495313 215.92588)scale(0.1 -0.1)">
       <defs>
        <path id="DejaVuSans-33" d="M 2597 2516 
Q 3050 2419 3304 2112 
Q 3559 1806 3559 1356 
Q 3559 666 3084 287 
Q 2609 -91 1734 -91 
Q 1441 -91 1130 -33 
Q 819 25 488 141 
L 488 750 
Q 750 597 1062 519 
Q 1375 441 1716 441 
Q 2309 441 2620 675 
Q 2931 909 2931 1356 
Q 2931 1769 2642 2001 
Q 2353 2234 1838 2234 
L 1294 2234 
L 1294 2753 
L 1863 2753 
Q 2328 2753 2575 2939 
Q 2822 3125 2822 3475 
Q 2822 3834 2567 4026 
Q 2313 4219 1838 4219 
Q 1578 4219 1281 4162 
Q 984 4106 628 3988 
L 628 4550 
Q 988 4650 1302 4700 
Q 1616 4750 1894 4750 
Q 2613 4750 3031 4423 
Q 3450 4097 3450 3541 
Q 3450 3153 3228 2886 
Q 3006 2619 2597 2516 
z
" transform="scale(0.015625)"/>
       </defs>
       <use xlink:href="#DejaVuSans-2212"/>
       <use xlink:href="#DejaVuSans-31" x="83.789062"/>
       <use xlink:href="#DejaVuSans-33" x="147.412109"/>
      </g>
     </g>
    </g>
    <g id="ytick_4">
     <g id="line2d_9">
      <g>
       <use xlink:href="#m97c0d6958f" x="57.6" y="165.364154" style="stroke: #000000; stroke-width: 0.8"/>
      </g>
     </g>
     <g id="text_10">
      <!-- −12 -->
      <g transform="translate(29.495313 169.163372)scale(0.1 -0.1)">
       <use xlink:href="#DejaVuSans-2212"/>
       <use xlink:href="#DejaVuSans-31" x="83.789062"/>
       <use xlink:href="#DejaVuSans-32" x="147.412109"/>
      </g>
     </g>
    </g>
    <g id="ytick_5">
     <g id="line2d_10">
      <g>
       <use xlink:href="#m97c0d6958f" x="57.6" y="118.601646" style="stroke: #000000; stroke-width: 0.8"/>
      </g>
     </g>
     <g id="text_11">
      <!-- −11 -->
      <g transform="translate(29.495313 122.400864)scale(0.1 -0.1)">
       <use xlink:href="#DejaVuSans-2212"/>
       <use xlink:href="#DejaVuSans-31" x="83.789062"/>
       <use xlink:href="#DejaVuSans-31" x="147.412109"/>
      </g>
     </g>
    </g>
    <g id="ytick_6">
     <g id="line2d_11">
      <g>
       <use xlink:href="#m97c0d6958f" x="57.6" y="71.839137" style="stroke: #000000; stroke-width: 0.8"/>
      </g>
     </g>
     <g id="text_12">
      <!-- −10 -->
      <g transform="translate(29.495313 75.638356)scale(0.1 -0.1)">
       <use xlink:href="#DejaVuSans-2212"/>
       <use xlink:href="#DejaVuSans-31" x="83.789062"/>
       <use xlink:href="#DejaVuSans-30" x="147.412109"/>
      </g>
     </g>
    </g>
    <g id="text_13">
     <!-- log(vFv) -->
     <g transform="translate(23.415625 194.84675)rotate(-90)scale(0.1 -0.1)">
      <defs>
       <path id="DejaVuSans-46" d="M 628 4666 
L 3309 4666 
L 3309 4134 
L 1259 4134 
L 1259 2759 
L 3109 2759 
L 3109 2228 
L 1259 2228 
L 1259 0 
L 628 0 
L 628 4666 
z
" transform="scale(0.015625)"/>
      </defs>
      <use xlink:href="#DejaVuSans-6c"/>
      <use xlink:href="#DejaVuSans-6f" x="27.783203"/>
      <use xlink:href="#DejaVuSans-67" x="88.964844"/>
      <use xlink:href="#DejaVuSans-28" x="152.441406"/>
      <use xlink:href="#DejaVuSans-76" x="191.455078"/>
      <use xlink:href="#DejaVuSans-46" x="250.634766"/>
      <use xlink:href="#DejaVuSans-76" x="308.154297"/>
      <use xlink:href="#DejaVuSans-29" x="367.333984"/>
     </g>
    </g>
   </g>
   <g id="line2d_12">
    <defs>
     <path id="mf7447014cf" d="M 0 1.5 
C 0.397805 1.5 0.77937 1.341951 1.06066 1.06066 
C 1.341951 0.77937 1.5 0.397805 1.5 0 
C 1.5 -0.397805 1.341951 -0.77937 1.06066 -1.06066 
C 0.77937 -1.341951 0.397805 -1.5 0 -1.5 
C -0.397805 -1.5 -0.77937 -1.341951 -1.06066 -1.06066 
C -1.341951 -0.77937 -1.5 -0.397805 -1.5 0 
C -1.5 0.397805 -1.341951 0.77937 -1.06066 1.06066 
C -0.77937 1.341951 -0.397805 1.5 0 1.5 
z
" style="stroke: #1f77b4"/>
    </defs>
    <g clip-path="url(#p00bed747d4)">
     <use xlink:href="#mf7447014cf" x="203.704255" y="87.965729" style="fill: #1f77b4; stroke: #1f77b4"/>
     <use xlink:href="#mf7447014cf" x="205.1185" y="85.197794" style="fill: #1f77b4; stroke: #1f77b4"/>
     <use xlink:href="#mf7447014cf" x="206.648561" y="85.315754" style="fill: #1f77b4; stroke: #1f77b4"/>
     <use xlink:href="#mf7447014cf" x="208.502159" y="86.451067" style="fill: #1f77b4; stroke: #1f77b4"/>
     <use xlink:href="#mf7447014cf" x="210.432085" y="87.302709" style="fill: #1f77b4; stroke: #1f77b4"/>
     <use xlink:href="#mf7447014cf" x="241.39963" y="126.137466" style="fill: #1f77b4; stroke: #1f77b4"/>
     <use xlink:href="#mf7447014cf" x="242.214728" y="128.408437" style="fill: #1f77b4; stroke: #1f77b4"/>
     <use xlink:href="#mf7447014cf" x="242.872808" y="123.621552" style="fill: #1f77b4; stroke: #1f77b4"/>
     <use xlink:href="#mf7447014cf" x="243.559386" y="124.96521" style="fill: #1f77b4; stroke: #1f77b4"/>
     <use xlink:href="#mf7447014cf" x="244.179896" y="120.763958" style="fill: #1f77b4; stroke: #1f77b4"/>
     <use xlink:href="#mf7447014cf" x="244.770533" y="126.078686" style="fill: #1f77b4; stroke: #1f77b4"/>
     <use xlink:href="#mf7447014cf" x="245.57689" y="132.51674" style="fill: #1f77b4; stroke: #1f77b4"/>
     <use xlink:href="#mf7447014cf" x="246.503348" y="129.282788" style="fill: #1f77b4; stroke: #1f77b4"/>
     <use xlink:href="#mf7447014cf" x="247.620361" y="129.910942" style="fill: #1f77b4; stroke: #1f77b4"/>
     <use xlink:href="#mf7447014cf" x="250.072072" y="139.181516" style="fill: #1f77b4; stroke: #1f77b4"/>
     <use xlink:href="#mf7447014cf" x="252.543407" y="145.267859" style="fill: #1f77b4; stroke: #1f77b4"/>
     <use xlink:href="#mf7447014cf" x="320.852635" y="102.496999" style="fill: #1f77b4; stroke: #1f77b4"/>
     <use xlink:href="#mf7447014cf" x="328.283058" y="89.700166" style="fill: #1f77b4; stroke: #1f77b4"/>
     <use xlink:href="#mf7447014cf" x="335.713481" y="91.066397" style="fill: #1f77b4; stroke: #1f77b4"/>
     <use xlink:href="#mf7447014cf" x="343.143903" y="91.118807" style="fill: #1f77b4; stroke: #1f77b4"/>
     <use xlink:href="#mf7447014cf" x="350.574326" y="92.475031" style="fill: #1f77b4; stroke: #1f77b4"/>
     <use xlink:href="#mf7447014cf" x="358.004749" y="92.644037" style="fill: #1f77b4; stroke: #1f77b4"/>
     <use xlink:href="#mf7447014cf" x="364.498213" y="97.18994" style="fill: #1f77b4; stroke: #1f77b4"/>
     <use xlink:href="#mf7447014cf" x="365.242086" y="104.32265" style="fill: #1f77b4; stroke: #1f77b4"/>
     <use xlink:href="#mf7447014cf" x="365.984741" y="107.352959" style="fill: #1f77b4; stroke: #1f77b4"/>
     <use xlink:href="#mf7447014cf" x="366.724346" y="102.22317" style="fill: #1f77b4; stroke: #1f77b4"/>
     <use xlink:href="#mf7447014cf" x="367.467201" y="122.459295" style="fill: #1f77b4; stroke: #1f77b4"/>
     <use xlink:href="#mf7447014cf" x="368.20891" y="119.70758" style="fill: #1f77b4; stroke: #1f77b4"/>
     <use xlink:href="#mf7447014cf" x="368.952356" y="125.188692" style="fill: #1f77b4; stroke: #1f77b4"/>
     <use xlink:href="#mf7447014cf" x="370.032182" y="145.042622" style="fill: #1f77b4; stroke: #1f77b4"/>
    </g>
   </g>
   <g id="LineCollection_1">
    <path d="M 203.704255 89.549027 
L 203.704255 86.496991 
" clip-path="url(#p00bed747d4)" style="fill: none; stroke: #000000; stroke-width: 1.5"/>
    <path d="M 205.1185 85.645726 
L 205.1185 84.75953 
" clip-path="url(#p00bed747d4)" style="fill: none; stroke: #000000; stroke-width: 1.5"/>
    <path d="M 206.648561 85.814765 
L 206.648561 84.828712 
" clip-path="url(#p00bed747d4)" style="fill: none; stroke: #000000; stroke-width: 1.5"/>
    <path d="M 208.502159 86.880941 
L 208.502159 86.030103 
" clip-path="url(#p00bed747d4)" style="fill: none; stroke: #000000; stroke-width: 1.5"/>
    <path d="M 210.432085 87.740531 
L 210.432085 86.874127 
" clip-path="url(#p00bed747d4)" style="fill: none; stroke: #000000; stroke-width: 1.5"/>
    <path d="M 241.39963 129.490021 
L 241.39963 123.260728 
" clip-path="url(#p00bed747d4)" style="fill: none; stroke: #000000; stroke-width: 1.5"/>
    <path d="M 242.214728 132.157285 
L 242.214728 125.244949 
" clip-path="url(#p00bed747d4)" style="fill: none; stroke: #000000; stroke-width: 1.5"/>
    <path d="M 242.872808 126.644092 
L 242.872808 120.991127 
" clip-path="url(#p00bed747d4)" style="fill: none; stroke: #000000; stroke-width: 1.5"/>
    <path d="M 243.559386 127.821243 
L 243.559386 122.461751 
" clip-path="url(#p00bed747d4)" style="fill: none; stroke: #000000; stroke-width: 1.5"/>
    <path d="M 244.179896 123.569612 
L 244.179896 118.299277 
" clip-path="url(#p00bed747d4)" style="fill: none; stroke: #000000; stroke-width: 1.5"/>
    <path d="M 244.770533 129.019899 
L 244.770533 123.510044 
" clip-path="url(#p00bed747d4)" style="fill: none; stroke: #000000; stroke-width: 1.5"/>
    <path d="M 245.57689 135.283926 
L 245.57689 130.081784 
" clip-path="url(#p00bed747d4)" style="fill: none; stroke: #000000; stroke-width: 1.5"/>
    <path d="M 246.503348 132.054615 
L 246.503348 126.84424 
" clip-path="url(#p00bed747d4)" style="fill: none; stroke: #000000; stroke-width: 1.5"/>
    <path d="M 247.620361 132.743655 
L 247.620361 127.425411 
" clip-path="url(#p00bed747d4)" style="fill: none; stroke: #000000; stroke-width: 1.5"/>
    <path d="M 250.072072 142.00396 
L 250.072072 136.703891 
" clip-path="url(#p00bed747d4)" style="fill: none; stroke: #000000; stroke-width: 1.5"/>
    <path d="M 252.543407 150.412754 
L 252.543407 141.166434 
" clip-path="url(#p00bed747d4)" style="fill: none; stroke: #000000; stroke-width: 1.5"/>
    <path d="M 320.852635 106.732272 
L 320.852635 98.994373 
" clip-path="url(#p00bed747d4)" style="fill: none; stroke: #000000; stroke-width: 1.5"/>
    <path d="M 328.283058 91.521602 
L 328.283058 88.02873 
" clip-path="url(#p00bed747d4)" style="fill: none; stroke: #000000; stroke-width: 1.5"/>
    <path d="M 335.713481 93.504924 
L 335.713481 88.889533 
" clip-path="url(#p00bed747d4)" style="fill: none; stroke: #000000; stroke-width: 1.5"/>
    <path d="M 343.143903 94.790058 
L 343.143903 88.01071 
" clip-path="url(#p00bed747d4)" style="fill: none; stroke: #000000; stroke-width: 1.5"/>
    <path d="M 350.574326 100.238151 
L 350.574326 86.872424 
" clip-path="url(#p00bed747d4)" style="fill: none; stroke: #000000; stroke-width: 1.5"/>
    <path d="M 358.004749 106.777604 
L 358.004749 84.39072 
" clip-path="url(#p00bed747d4)" style="fill: none; stroke: #000000; stroke-width: 1.5"/>
    <path d="M 364.498213 101.449327 
L 364.498213 93.670856 
" clip-path="url(#p00bed747d4)" style="fill: none; stroke: #000000; stroke-width: 1.5"/>
    <path d="M 365.242086 108.766624 
L 365.242086 100.678668 
" clip-path="url(#p00bed747d4)" style="fill: none; stroke: #000000; stroke-width: 1.5"/>
    <path d="M 365.984741 111.451677 
L 365.984741 103.944154 
" clip-path="url(#p00bed747d4)" style="fill: none; stroke: #000000; stroke-width: 1.5"/>
    <path d="M 366.724346 109.872307 
L 366.724346 96.679837 
" clip-path="url(#p00bed747d4)" style="fill: none; stroke: #000000; stroke-width: 1.5"/>
    <path d="M 367.467201 132.316258 
L 367.467201 115.851753 
" clip-path="url(#p00bed747d4)" style="fill: none; stroke: #000000; stroke-width: 1.5"/>
    <path d="M 368.20891 126.553765 
L 368.20891 114.596564 
" clip-path="url(#p00bed747d4)" style="fill: none; stroke: #000000; stroke-width: 1.5"/>
    <path d="M 368.952356 132.719221 
L 368.952356 119.70758 
" clip-path="url(#p00bed747d4)" style="fill: none; stroke: #000000; stroke-width: 1.5"/>
    <path d="M 370.032182 155.566706 
L 370.032182 138.145411 
" clip-path="url(#p00bed747d4)" style="fill: none; stroke: #000000; stroke-width: 1.5"/>
   </g>
   <g id="line2d_13">
    <defs>
     <path id="m486fb141b3" d="M 0 1.5 
C 0.397805 1.5 0.77937 1.341951 1.06066 1.06066 
C 1.341951 0.77937 1.5 0.397805 1.5 0 
C 1.5 -0.397805 1.341951 -0.77937 1.06066 -1.06066 
C 0.77937 -1.341951 0.397805 -1.5 0 -1.5 
C -0.397805 -1.5 -0.77937 -1.341951 -1.06066 -1.06066 
C -1.341951 -0.77937 -1.5 -0.397805 -1.5 0 
C -1.5 0.397805 -1.341951 0.77937 -1.06066 1.06066 
C -0.77937 1.341951 -0.397805 1.5 0 1.5 
z
" style="stroke: #ff7f0e"/>
    </defs>
    <g clip-path="url(#p00bed747d4)">
     <use xlink:href="#m486fb141b3" x="73.832727" y="2341.675989" style="fill: #ff7f0e; stroke: #ff7f0e"/>
     <use xlink:href="#m486fb141b3" x="77.030202" y="2311.491492" style="fill: #ff7f0e; stroke: #ff7f0e"/>
     <use xlink:href="#m486fb141b3" x="80.227691" y="2281.306948" style="fill: #ff7f0e; stroke: #ff7f0e"/>
     <use xlink:href="#m486fb141b3" x="83.42518" y="2251.122403" style="fill: #ff7f0e; stroke: #ff7f0e"/>
     <use xlink:href="#m486fb141b3" x="86.622669" y="2220.937859" style="fill: #ff7f0e; stroke: #ff7f0e"/>
     <use xlink:href="#m486fb141b3" x="89.820158" y="2190.753361" style="fill: #ff7f0e; stroke: #ff7f0e"/>
     <use xlink:href="#m486fb141b3" x="93.017648" y="2160.568817" style="fill: #ff7f0e; stroke: #ff7f0e"/>
     <use xlink:href="#m486fb141b3" x="96.215137" y="2130.384273" style="fill: #ff7f0e; stroke: #ff7f0e"/>
     <use xlink:href="#m486fb141b3" x="99.083622" y="420.263125" style="fill: #ff7f0e; stroke: #ff7f0e"/>
     <use xlink:href="#m486fb141b3" x="102.281111" y="394.493523" style="fill: #ff7f0e; stroke: #ff7f0e"/>
     <use xlink:href="#m486fb141b3" x="105.4786" y="373.980727" style="fill: #ff7f0e; stroke: #ff7f0e"/>
     <use xlink:href="#m486fb141b3" x="108.676089" y="357.494699" style="fill: #ff7f0e; stroke: #ff7f0e"/>
     <use xlink:href="#m486fb141b3" x="111.873579" y="343.163159" style="fill: #ff7f0e; stroke: #ff7f0e"/>
     <use xlink:href="#m486fb141b3" x="115.071068" y="329.829017" style="fill: #ff7f0e; stroke: #ff7f0e"/>
     <use xlink:href="#m486fb141b3" x="118.268557" y="316.931263" style="fill: #ff7f0e; stroke: #ff7f0e"/>
     <use xlink:href="#m486fb141b3" x="121.466031" y="304.220511" style="fill: #ff7f0e; stroke: #ff7f0e"/>
     <use xlink:href="#m486fb141b3" x="124.663521" y="291.590005" style="fill: #ff7f0e; stroke: #ff7f0e"/>
     <use xlink:href="#m486fb141b3" x="127.86101" y="278.995038" style="fill: #ff7f0e; stroke: #ff7f0e"/>
     <use xlink:href="#m486fb141b3" x="131.058499" y="266.417887" style="fill: #ff7f0e; stroke: #ff7f0e"/>
     <use xlink:href="#m486fb141b3" x="134.255988" y="253.852894" style="fill: #ff7f0e; stroke: #ff7f0e"/>
     <use xlink:href="#m486fb141b3" x="137.453477" y="241.300621" style="fill: #ff7f0e; stroke: #ff7f0e"/>
     <use xlink:href="#m486fb141b3" x="140.650967" y="228.766071" style="fill: #ff7f0e; stroke: #ff7f0e"/>
     <use xlink:href="#m486fb141b3" x="143.848456" y="216.260514" style="fill: #ff7f0e; stroke: #ff7f0e"/>
     <use xlink:href="#m486fb141b3" x="147.045945" y="203.800504" style="fill: #ff7f0e; stroke: #ff7f0e"/>
     <use xlink:href="#m486fb141b3" x="150.243434" y="191.414845" style="fill: #ff7f0e; stroke: #ff7f0e"/>
     <use xlink:href="#m486fb141b3" x="153.440924" y="179.150302" style="fill: #ff7f0e; stroke: #ff7f0e"/>
     <use xlink:href="#m486fb141b3" x="156.638413" y="167.081974" style="fill: #ff7f0e; stroke: #ff7f0e"/>
     <use xlink:href="#m486fb141b3" x="159.835887" y="155.328826" style="fill: #ff7f0e; stroke: #ff7f0e"/>
     <use xlink:href="#m486fb141b3" x="163.033376" y="144.074587" style="fill: #ff7f0e; stroke: #ff7f0e"/>
     <use xlink:href="#m486fb141b3" x="166.230866" y="133.590479" style="fill: #ff7f0e; stroke: #ff7f0e"/>
     <use xlink:href="#m486fb141b3" x="169.428355" y="124.242607" style="fill: #ff7f0e; stroke: #ff7f0e"/>
     <use xlink:href="#m486fb141b3" x="172.625844" y="116.438318" style="fill: #ff7f0e; stroke: #ff7f0e"/>
     <use xlink:href="#m486fb141b3" x="175.823333" y="110.429243" style="fill: #ff7f0e; stroke: #ff7f0e"/>
     <use xlink:href="#m486fb141b3" x="179.020822" y="105.98325" style="fill: #ff7f0e; stroke: #ff7f0e"/>
     <use xlink:href="#m486fb141b3" x="182.218312" y="102.369303" style="fill: #ff7f0e; stroke: #ff7f0e"/>
     <use xlink:href="#m486fb141b3" x="185.415801" y="99.00577" style="fill: #ff7f0e; stroke: #ff7f0e"/>
     <use xlink:href="#m486fb141b3" x="188.61329" y="95.775883" style="fill: #ff7f0e; stroke: #ff7f0e"/>
     <use xlink:href="#m486fb141b3" x="191.810779" y="92.736741" style="fill: #ff7f0e; stroke: #ff7f0e"/>
     <use xlink:href="#m486fb141b3" x="195.008268" y="89.990753" style="fill: #ff7f0e; stroke: #ff7f0e"/>
     <use xlink:href="#m486fb141b3" x="198.205743" y="87.690084" style="fill: #ff7f0e; stroke: #ff7f0e"/>
     <use xlink:href="#m486fb141b3" x="201.403232" y="86.049936" style="fill: #ff7f0e; stroke: #ff7f0e"/>
     <use xlink:href="#m486fb141b3" x="204.600721" y="85.346909" style="fill: #ff7f0e; stroke: #ff7f0e"/>
     <use xlink:href="#m486fb141b3" x="207.79821" y="85.867282" style="fill: #ff7f0e; stroke: #ff7f0e"/>
     <use xlink:href="#m486fb141b3" x="210.9957" y="87.753026" style="fill: #ff7f0e; stroke: #ff7f0e"/>
     <use xlink:href="#m486fb141b3" x="214.193189" y="90.780944" style="fill: #ff7f0e; stroke: #ff7f0e"/>
     <use xlink:href="#m486fb141b3" x="217.390678" y="94.388155" style="fill: #ff7f0e; stroke: #ff7f0e"/>
     <use xlink:href="#m486fb141b3" x="220.588167" y="98.129009" style="fill: #ff7f0e; stroke: #ff7f0e"/>
     <use xlink:href="#m486fb141b3" x="223.785656" y="101.881966" style="fill: #ff7f0e; stroke: #ff7f0e"/>
     <use xlink:href="#m486fb141b3" x="226.983146" y="105.641311" style="fill: #ff7f0e; stroke: #ff7f0e"/>
     <use xlink:href="#m486fb141b3" x="230.180635" y="109.414595" style="fill: #ff7f0e; stroke: #ff7f0e"/>
     <use xlink:href="#m486fb141b3" x="233.378124" y="113.218367" style="fill: #ff7f0e; stroke: #ff7f0e"/>
     <use xlink:href="#m486fb141b3" x="236.575613" y="117.088422" style="fill: #ff7f0e; stroke: #ff7f0e"/>
     <use xlink:href="#m486fb141b3" x="239.773088" y="121.100476" style="fill: #ff7f0e; stroke: #ff7f0e"/>
     <use xlink:href="#m486fb141b3" x="242.970577" y="125.410437" style="fill: #ff7f0e; stroke: #ff7f0e"/>
     <use xlink:href="#m486fb141b3" x="246.168066" y="130.328172" style="fill: #ff7f0e; stroke: #ff7f0e"/>
     <use xlink:href="#m486fb141b3" x="249.365555" y="136.443425" style="fill: #ff7f0e; stroke: #ff7f0e"/>
     <use xlink:href="#m486fb141b3" x="252.563044" y="144.82275" style="fill: #ff7f0e; stroke: #ff7f0e"/>
     <use xlink:href="#m486fb141b3" x="255.760534" y="157.279935" style="fill: #ff7f0e; stroke: #ff7f0e"/>
     <use xlink:href="#m486fb141b3" x="258.958023" y="176.51109" style="fill: #ff7f0e; stroke: #ff7f0e"/>
     <use xlink:href="#m486fb141b3" x="262.155512" y="203.049408" style="fill: #ff7f0e; stroke: #ff7f0e"/>
     <use xlink:href="#m486fb141b3" x="265.353001" y="214.885439" style="fill: #ff7f0e; stroke: #ff7f0e"/>
     <use xlink:href="#m486fb141b3" x="268.55049" y="205.662284" style="fill: #ff7f0e; stroke: #ff7f0e"/>
     <use xlink:href="#m486fb141b3" x="271.74798" y="194.949103" style="fill: #ff7f0e; stroke: #ff7f0e"/>
     <use xlink:href="#m486fb141b3" x="274.945469" y="184.715695" style="fill: #ff7f0e; stroke: #ff7f0e"/>
     <use xlink:href="#m486fb141b3" x="278.142943" y="175.068637" style="fill: #ff7f0e; stroke: #ff7f0e"/>
     <use xlink:href="#m486fb141b3" x="281.340432" y="166.090095" style="fill: #ff7f0e; stroke: #ff7f0e"/>
     <use xlink:href="#m486fb141b3" x="284.537922" y="157.833098" style="fill: #ff7f0e; stroke: #ff7f0e"/>
     <use xlink:href="#m486fb141b3" x="287.735411" y="150.293579" style="fill: #ff7f0e; stroke: #ff7f0e"/>
     <use xlink:href="#m486fb141b3" x="290.9329" y="143.39985" style="fill: #ff7f0e; stroke: #ff7f0e"/>
     <use xlink:href="#m486fb141b3" x="294.130389" y="137.044825" style="fill: #ff7f0e; stroke: #ff7f0e"/>
     <use xlink:href="#m486fb141b3" x="297.327879" y="131.126609" style="fill: #ff7f0e; stroke: #ff7f0e"/>
     <use xlink:href="#m486fb141b3" x="300.525368" y="125.590302" style="fill: #ff7f0e; stroke: #ff7f0e"/>
     <use xlink:href="#m486fb141b3" x="303.722857" y="120.410466" style="fill: #ff7f0e; stroke: #ff7f0e"/>
     <use xlink:href="#m486fb141b3" x="306.920346" y="115.577654" style="fill: #ff7f0e; stroke: #ff7f0e"/>
     <use xlink:href="#m486fb141b3" x="310.117835" y="111.114641" style="fill: #ff7f0e; stroke: #ff7f0e"/>
     <use xlink:href="#m486fb141b3" x="313.315325" y="107.043777" style="fill: #ff7f0e; stroke: #ff7f0e"/>
     <use xlink:href="#m486fb141b3" x="316.512814" y="103.386622" style="fill: #ff7f0e; stroke: #ff7f0e"/>
     <use xlink:href="#m486fb141b3" x="319.710288" y="100.152433" style="fill: #ff7f0e; stroke: #ff7f0e"/>
     <use xlink:href="#m486fb141b3" x="322.907777" y="97.331298" style="fill: #ff7f0e; stroke: #ff7f0e"/>
     <use xlink:href="#m486fb141b3" x="326.105267" y="94.894924" style="fill: #ff7f0e; stroke: #ff7f0e"/>
     <use xlink:href="#m486fb141b3" x="329.302756" y="92.80997" style="fill: #ff7f0e; stroke: #ff7f0e"/>
     <use xlink:href="#m486fb141b3" x="332.500245" y="91.055628" style="fill: #ff7f0e; stroke: #ff7f0e"/>
     <use xlink:href="#m486fb141b3" x="335.697734" y="89.62778" style="fill: #ff7f0e; stroke: #ff7f0e"/>
     <use xlink:href="#m486fb141b3" x="338.895223" y="88.542514" style="fill: #ff7f0e; stroke: #ff7f0e"/>
     <use xlink:href="#m486fb141b3" x="342.092713" y="87.831954" style="fill: #ff7f0e; stroke: #ff7f0e"/>
     <use xlink:href="#m486fb141b3" x="345.290202" y="87.548661" style="fill: #ff7f0e; stroke: #ff7f0e"/>
     <use xlink:href="#m486fb141b3" x="348.487691" y="87.745987" style="fill: #ff7f0e; stroke: #ff7f0e"/>
     <use xlink:href="#m486fb141b3" x="351.68518" y="88.475368" style="fill: #ff7f0e; stroke: #ff7f0e"/>
     <use xlink:href="#m486fb141b3" x="354.882669" y="89.829945" style="fill: #ff7f0e; stroke: #ff7f0e"/>
     <use xlink:href="#m486fb141b3" x="358.080144" y="92.105508" style="fill: #ff7f0e; stroke: #ff7f0e"/>
     <use xlink:href="#m486fb141b3" x="361.277633" y="95.930649" style="fill: #ff7f0e; stroke: #ff7f0e"/>
     <use xlink:href="#m486fb141b3" x="364.475122" y="103.00419" style="fill: #ff7f0e; stroke: #ff7f0e"/>
     <use xlink:href="#m486fb141b3" x="367.672611" y="117.00929" style="fill: #ff7f0e; stroke: #ff7f0e"/>
     <use xlink:href="#m486fb141b3" x="370.870101" y="140.950396" style="fill: #ff7f0e; stroke: #ff7f0e"/>
     <use xlink:href="#m486fb141b3" x="374.06759" y="172.705737" style="fill: #ff7f0e; stroke: #ff7f0e"/>
     <use xlink:href="#m486fb141b3" x="377.265079" y="203.773679" style="fill: #ff7f0e; stroke: #ff7f0e"/>
     <use xlink:href="#m486fb141b3" x="380.462568" y="229.545515" style="fill: #ff7f0e; stroke: #ff7f0e"/>
     <use xlink:href="#m486fb141b3" x="383.660057" y="258.31308" style="fill: #ff7f0e; stroke: #ff7f0e"/>
     <use xlink:href="#m486fb141b3" x="386.857547" y="312.083189" style="fill: #ff7f0e; stroke: #ff7f0e"/>
     <use xlink:href="#m486fb141b3" x="390.055036" y="425.997132" style="fill: #ff7f0e; stroke: #ff7f0e"/>
     <use xlink:href="#m486fb141b3" x="393.252525" y="740.798362" style="fill: #ff7f0e; stroke: #ff7f0e"/>
     <use xlink:href="#m486fb141b3" x="396.449999" y="1719.000398" style="fill: #ff7f0e; stroke: #ff7f0e"/>
     <use xlink:href="#m486fb141b3" x="398.487273" y="4772.578258" style="fill: #ff7f0e; stroke: #ff7f0e"/>
    </g>
   </g>
   <g id="line2d_14">
    <path d="M 111.10679 346.6 
L 111.873579 343.163159 
L 115.071068 329.829017 
L 118.268557 316.931263 
L 121.466031 304.220511 
L 124.663521 291.590005 
L 127.86101 278.995038 
L 131.058499 266.417887 
L 134.255988 253.852894 
L 137.453477 241.300621 
L 140.650967 228.766071 
L 143.848456 216.260514 
L 147.045945 203.800504 
L 150.243434 191.414845 
L 153.440924 179.150302 
L 156.638413 167.081974 
L 159.835887 155.328826 
L 163.033376 144.074587 
L 166.230866 133.590479 
L 169.428355 124.242607 
L 172.625844 116.438318 
L 175.823333 110.429243 
L 179.020822 105.98325 
L 182.218312 102.369303 
L 185.415801 99.00577 
L 188.61329 95.775883 
L 191.810779 92.736741 
L 195.008268 89.990753 
L 198.205743 87.690084 
L 201.403232 86.049936 
L 204.600721 85.346909 
L 207.79821 85.867282 
L 210.9957 87.753026 
L 214.193189 90.780944 
L 217.390678 94.388155 
L 220.588167 98.129009 
L 223.785656 101.881966 
L 226.983146 105.641311 
L 230.180635 109.414595 
L 233.378124 113.218367 
L 236.575613 117.088422 
L 239.773088 121.100476 
L 242.970577 125.410437 
L 246.168066 130.328172 
L 249.365555 136.443425 
L 252.563044 144.82275 
L 255.760534 157.279935 
L 258.958023 176.51109 
L 262.155512 203.049408 
L 265.353001 214.885439 
L 268.55049 205.662284 
L 271.74798 194.949103 
L 274.945469 184.715695 
L 278.142943 175.068637 
L 281.340432 166.090095 
L 284.537922 157.833098 
L 287.735411 150.293579 
L 290.9329 143.39985 
L 294.130389 137.044825 
L 297.327879 131.126609 
L 300.525368 125.590302 
L 303.722857 120.410466 
L 306.920346 115.577654 
L 310.117835 111.114641 
L 313.315325 107.043777 
L 316.512814 103.386622 
L 319.710288 100.152433 
L 322.907777 97.331298 
L 326.105267 94.894924 
L 329.302756 92.80997 
L 332.500245 91.055628 
L 335.697734 89.62778 
L 338.895223 88.542514 
L 342.092713 87.831954 
L 345.290202 87.548661 
L 348.487691 87.745987 
L 351.68518 88.475368 
L 354.882669 89.829945 
L 358.080144 92.105508 
L 361.277633 95.930649 
L 364.475122 103.00419 
L 367.672611 117.00929 
L 370.870101 140.950396 
L 374.06759 172.705737 
L 377.265079 203.773679 
L 380.462568 229.545515 
L 383.660057 258.31308 
L 386.857547 312.083189 
L 387.826411 346.6 
" clip-path="url(#p00bed747d4)" style="fill: none; stroke: #2ca02c; stroke-width: 1.5; stroke-linecap: square"/>
   </g>
   <g id="line2d_15">
    <defs>
     <path id="m488b62625a" d="M 0 1.5 
C 0.397805 1.5 0.77937 1.341951 1.06066 1.06066 
C 1.341951 0.77937 1.5 0.397805 1.5 0 
C 1.5 -0.397805 1.341951 -0.77937 1.06066 -1.06066 
C 0.77937 -1.341951 0.397805 -1.5 0 -1.5 
C -0.397805 -1.5 -0.77937 -1.341951 -1.06066 -1.06066 
C -1.341951 -0.77937 -1.5 -0.397805 -1.5 0 
C -1.5 0.397805 -1.341951 0.77937 -1.06066 1.06066 
C -0.77937 1.341951 -0.397805 1.5 0 1.5 
z
" style="stroke: #0000ff"/>
    </defs>
    <g clip-path="url(#p00bed747d4)">
     <use xlink:href="#m488b62625a" x="203.704255" y="87.965729" style="fill: #0000ff; stroke: #0000ff"/>
     <use xlink:href="#m488b62625a" x="205.1185" y="85.197794" style="fill: #0000ff; stroke: #0000ff"/>
     <use xlink:href="#m488b62625a" x="206.648561" y="85.315754" style="fill: #0000ff; stroke: #0000ff"/>
     <use xlink:href="#m488b62625a" x="208.502159" y="86.451067" style="fill: #0000ff; stroke: #0000ff"/>
     <use xlink:href="#m488b62625a" x="210.432085" y="87.302709" style="fill: #0000ff; stroke: #0000ff"/>
     <use xlink:href="#m488b62625a" x="241.39963" y="126.137466" style="fill: #0000ff; stroke: #0000ff"/>
     <use xlink:href="#m488b62625a" x="242.214728" y="128.408437" style="fill: #0000ff; stroke: #0000ff"/>
     <use xlink:href="#m488b62625a" x="242.872808" y="123.621552" style="fill: #0000ff; stroke: #0000ff"/>
     <use xlink:href="#m488b62625a" x="243.559386" y="124.96521" style="fill: #0000ff; stroke: #0000ff"/>
     <use xlink:href="#m488b62625a" x="244.179896" y="120.763958" style="fill: #0000ff; stroke: #0000ff"/>
     <use xlink:href="#m488b62625a" x="244.770533" y="126.078686" style="fill: #0000ff; stroke: #0000ff"/>
     <use xlink:href="#m488b62625a" x="245.57689" y="132.51674" style="fill: #0000ff; stroke: #0000ff"/>
     <use xlink:href="#m488b62625a" x="246.503348" y="129.282788" style="fill: #0000ff; stroke: #0000ff"/>
     <use xlink:href="#m488b62625a" x="247.620361" y="129.910942" style="fill: #0000ff; stroke: #0000ff"/>
     <use xlink:href="#m488b62625a" x="250.072072" y="139.181516" style="fill: #0000ff; stroke: #0000ff"/>
     <use xlink:href="#m488b62625a" x="252.543407" y="145.267859" style="fill: #0000ff; stroke: #0000ff"/>
     <use xlink:href="#m488b62625a" x="320.852635" y="102.496999" style="fill: #0000ff; stroke: #0000ff"/>
     <use xlink:href="#m488b62625a" x="328.283058" y="89.700166" style="fill: #0000ff; stroke: #0000ff"/>
     <use xlink:href="#m488b62625a" x="335.713481" y="91.066397" style="fill: #0000ff; stroke: #0000ff"/>
     <use xlink:href="#m488b62625a" x="343.143903" y="91.118807" style="fill: #0000ff; stroke: #0000ff"/>
     <use xlink:href="#m488b62625a" x="350.574326" y="92.475031" style="fill: #0000ff; stroke: #0000ff"/>
     <use xlink:href="#m488b62625a" x="358.004749" y="92.644037" style="fill: #0000ff; stroke: #0000ff"/>
     <use xlink:href="#m488b62625a" x="364.498213" y="97.18994" style="fill: #0000ff; stroke: #0000ff"/>
     <use xlink:href="#m488b62625a" x="365.242086" y="104.32265" style="fill: #0000ff; stroke: #0000ff"/>
     <use xlink:href="#m488b62625a" x="365.984741" y="107.352959" style="fill: #0000ff; stroke: #0000ff"/>
     <use xlink:href="#m488b62625a" x="366.724346" y="102.22317" style="fill: #0000ff; stroke: #0000ff"/>
     <use xlink:href="#m488b62625a" x="367.467201" y="122.459295" style="fill: #0000ff; stroke: #0000ff"/>
     <use xlink:href="#m488b62625a" x="368.20891" y="119.70758" style="fill: #0000ff; stroke: #0000ff"/>
     <use xlink:href="#m488b62625a" x="368.952356" y="125.188692" style="fill: #0000ff; stroke: #0000ff"/>
     <use xlink:href="#m488b62625a" x="370.032182" y="145.042622" style="fill: #0000ff; stroke: #0000ff"/>
    </g>
   </g>
   <g id="patch_3">
    <path d="M 57.6 307.584 
L 57.6 41.472 
" style="fill: none; stroke: #000000; stroke-width: 0.8; stroke-linejoin: miter; stroke-linecap: square"/>
   </g>
   <g id="patch_4">
    <path d="M 414.72 307.584 
L 414.72 41.472 
" style="fill: none; stroke: #000000; stroke-width: 0.8; stroke-linejoin: miter; stroke-linecap: square"/>
   </g>
   <g id="patch_5">
    <path d="M 57.6 307.584 
L 414.72 307.584 
" style="fill: none; stroke: #000000; stroke-width: 0.8; stroke-linejoin: miter; stroke-linecap: square"/>
   </g>
   <g id="patch_6">
    <path d="M 57.6 41.472 
L 414.72 41.472 
" style="fill: none; stroke: #000000; stroke-width: 0.8; stroke-linejoin: miter; stroke-linecap: square"/>
   </g>
   <g id="text_14">
    <!-- MCMC $\chi^2$ = 30.35 -->
    <g transform="translate(182.82 35.472)scale(0.12 -0.12)">
     <defs>
      <path id="DejaVuSans-4d" d="M 628 4666 
L 1569 4666 
L 2759 1491 
L 3956 4666 
L 4897 4666 
L 4897 0 
L 4281 0 
L 4281 4097 
L 3078 897 
L 2444 897 
L 1241 4097 
L 1241 0 
L 628 0 
L 628 4666 
z
" transform="scale(0.015625)"/>
      <path id="DejaVuSans-43" d="M 4122 4306 
L 4122 3641 
Q 3803 3938 3442 4084 
Q 3081 4231 2675 4231 
Q 1875 4231 1450 3742 
Q 1025 3253 1025 2328 
Q 1025 1406 1450 917 
Q 1875 428 2675 428 
Q 3081 428 3442 575 
Q 3803 722 4122 1019 
L 4122 359 
Q 3791 134 3420 21 
Q 3050 -91 2638 -91 
Q 1578 -91 968 557 
Q 359 1206 359 2328 
Q 359 3453 968 4101 
Q 1578 4750 2638 4750 
Q 3056 4750 3426 4639 
Q 3797 4528 4122 4306 
z
" transform="scale(0.015625)"/>
      <path id="DejaVuSans-20" transform="scale(0.015625)"/>
      <path id="DejaVuSans-Oblique-3c7" d="M 1922 -781 
L 1691 416 
L 394 -1334 
L -284 -1334 
L 1553 1141 
L 1269 2613 
Q 1194 3006 713 3006 
L 559 3006 
L 653 3500 
L 872 3494 
Q 1675 3472 1775 2950 
L 2006 1753 
L 3303 3503 
L 3981 3503 
L 2144 1028 
L 2428 -444 
Q 2503 -838 2984 -838 
L 3138 -838 
L 3044 -1331 
L 2825 -1325 
Q 2022 -1303 1922 -781 
z
" transform="scale(0.015625)"/>
      <path id="DejaVuSans-3d" d="M 678 2906 
L 4684 2906 
L 4684 2381 
L 678 2381 
L 678 2906 
z
M 678 1631 
L 4684 1631 
L 4684 1100 
L 678 1100 
L 678 1631 
z
" transform="scale(0.015625)"/>
      <path id="DejaVuSans-2e" d="M 684 794 
L 1344 794 
L 1344 0 
L 684 0 
L 684 794 
z
" transform="scale(0.015625)"/>
     </defs>
     <use xlink:href="#DejaVuSans-4d" transform="translate(0 0.765625)"/>
     <use xlink:href="#DejaVuSans-43" transform="translate(86.279297 0.765625)"/>
     <use xlink:href="#DejaVuSans-4d" transform="translate(156.103516 0.765625)"/>
     <use xlink:href="#DejaVuSans-43" transform="translate(242.382812 0.765625)"/>
     <use xlink:href="#DejaVuSans-20" transform="translate(312.207031 0.765625)"/>
     <use xlink:href="#DejaVuSans-Oblique-3c7" transform="translate(343.994141 0.765625)"/>
     <use xlink:href="#DejaVuSans-32" transform="translate(407.646536 39.046875)scale(0.7)"/>
     <use xlink:href="#DejaVuSans-20" transform="translate(454.917044 0.765625)"/>
     <use xlink:href="#DejaVuSans-3d" transform="translate(486.704154 0.765625)"/>
     <use xlink:href="#DejaVuSans-20" transform="translate(570.493216 0.765625)"/>
     <use xlink:href="#DejaVuSans-33" transform="translate(602.280326 0.765625)"/>
     <use xlink:href="#DejaVuSans-30" transform="translate(665.903372 0.765625)"/>
     <use xlink:href="#DejaVuSans-2e" transform="translate(729.526419 0.765625)"/>
     <use xlink:href="#DejaVuSans-33" transform="translate(761.313529 0.765625)"/>
     <use xlink:href="#DejaVuSans-35" transform="translate(824.936576 0.765625)"/>
    </g>
   </g>
  </g>
 </g>
 <defs>
  <clipPath id="p00bed747d4">
   <rect x="57.6" y="41.472" width="357.12" height="266.112"/>
  </clipPath>
 </defs>
</svg>
