<?xml version="1.0" encoding="utf-8" standalone="no"?>
<!DOCTYPE svg PUBLIC "-//W3C//DTD SVG 1.1//EN"
  "http://www.w3.org/Graphics/SVG/1.1/DTD/svg11.dtd">
<svg xmlns:xlink="http://www.w3.org/1999/xlink" width="460.8pt" height="345.6pt" viewBox="0 0 460.8 345.6" xmlns="http://www.w3.org/2000/svg" version="1.1">
 <metadata>
  <rdf:RDF xmlns:dc="http://purl.org/dc/elements/1.1/" xmlns:cc="http://creativecommons.org/ns#" xmlns:rdf="http://www.w3.org/1999/02/22-rdf-syntax-ns#">
   <cc:Work>
    <dc:type rdf:resource="http://purl.org/dc/dcmitype/StillImage"/>
    <dc:date>2022-06-09T23:18:19.974293</dc:date>
    <dc:format>image/svg+xml</dc:format>
    <dc:creator>
     <cc:Agent>
      <dc:title>Matplotlib v3.5.0, https://matplotlib.org/</dc:title>
     </cc:Agent>
    </dc:creator>
   </cc:Work>
  </rdf:RDF>
 </metadata>
 <defs>
  <style type="text/css">*{stroke-linejoin: round; stroke-linecap: butt}</style>
 </defs>
 <g id="figure_1">
  <g id="patch_1">
   <path d="M 0 345.6 
L 460.8 345.6 
L 460.8 0 
L 0 0 
z
" style="fill: #ffffff"/>
  </g>
  <g id="axes_1">
   <g id="patch_2">
    <path d="M 57.6 307.584 
L 414.72 307.584 
L 414.72 41.472 
L 57.6 41.472 
z
" style="fill: #ffffff"/>
   </g>
   <g id="matplotlib.axis_1">
    <g id="xtick_1">
     <g id="line2d_1">
      <defs>
       <path id="md04f22fbc2" d="M 0 0 
L 0 3.5 
" style="stroke: #000000; stroke-width: 0.8"/>
      </defs>
      <g>
       <use xlink:href="#md04f22fbc2" x="57.6" y="307.584" style="stroke: #000000; stroke-width: 0.8"/>
      </g>
     </g>
     <g id="text_1">
      <!-- 500 -->
      <g transform="translate(48.05625 322.182437)scale(0.1 -0.1)">
       <defs>
        <path id="DejaVuSans-35" d="M 691 4666 
L 3169 4666 
L 3169 4134 
L 1269 4134 
L 1269 2991 
Q 1406 3038 1543 3061 
Q 1681 3084 1819 3084 
Q 2600 3084 3056 2656 
Q 3513 2228 3513 1497 
Q 3513 744 3044 326 
Q 2575 -91 1722 -91 
Q 1428 -91 1123 -41 
Q 819 9 494 109 
L 494 744 
Q 775 591 1075 516 
Q 1375 441 1709 441 
Q 2250 441 2565 725 
Q 2881 1009 2881 1497 
Q 2881 1984 2565 2268 
Q 2250 2553 1709 2553 
Q 1456 2553 1204 2497 
Q 953 2441 691 2322 
L 691 4666 
z
" transform="scale(0.015625)"/>
        <path id="DejaVuSans-30" d="M 2034 4250 
Q 1547 4250 1301 3770 
Q 1056 3291 1056 2328 
Q 1056 1369 1301 889 
Q 1547 409 2034 409 
Q 2525 409 2770 889 
Q 3016 1369 3016 2328 
Q 3016 3291 2770 3770 
Q 2525 4250 2034 4250 
z
M 2034 4750 
Q 2819 4750 3233 4129 
Q 3647 3509 3647 2328 
Q 3647 1150 3233 529 
Q 2819 -91 2034 -91 
Q 1250 -91 836 529 
Q 422 1150 422 2328 
Q 422 3509 836 4129 
Q 1250 4750 2034 4750 
z
" transform="scale(0.015625)"/>
       </defs>
       <use xlink:href="#DejaVuSans-35"/>
       <use xlink:href="#DejaVuSans-30" x="63.623047"/>
       <use xlink:href="#DejaVuSans-30" x="127.246094"/>
      </g>
     </g>
    </g>
    <g id="xtick_2">
     <g id="line2d_2">
      <g>
       <use xlink:href="#md04f22fbc2" x="105.36886" y="307.584" style="stroke: #000000; stroke-width: 0.8"/>
      </g>
     </g>
     <g id="text_2">
      <!-- 1000 -->
      <g transform="translate(92.64386 322.182437)scale(0.1 -0.1)">
       <defs>
        <path id="DejaVuSans-31" d="M 794 531 
L 1825 531 
L 1825 4091 
L 703 3866 
L 703 4441 
L 1819 4666 
L 2450 4666 
L 2450 531 
L 3481 531 
L 3481 0 
L 794 0 
L 794 531 
z
" transform="scale(0.015625)"/>
       </defs>
       <use xlink:href="#DejaVuSans-31"/>
       <use xlink:href="#DejaVuSans-30" x="63.623047"/>
       <use xlink:href="#DejaVuSans-30" x="127.246094"/>
       <use xlink:href="#DejaVuSans-30" x="190.869141"/>
      </g>
     </g>
    </g>
    <g id="xtick_3">
     <g id="line2d_3">
      <g>
       <use xlink:href="#md04f22fbc2" x="153.137721" y="307.584" style="stroke: #000000; stroke-width: 0.8"/>
      </g>
     </g>
     <g id="text_3">
      <!-- 1500 -->
      <g transform="translate(140.412721 322.182437)scale(0.1 -0.1)">
       <use xlink:href="#DejaVuSans-31"/>
       <use xlink:href="#DejaVuSans-35" x="63.623047"/>
       <use xlink:href="#DejaVuSans-30" x="127.246094"/>
       <use xlink:href="#DejaVuSans-30" x="190.869141"/>
      </g>
     </g>
    </g>
    <g id="xtick_4">
     <g id="line2d_4">
      <g>
       <use xlink:href="#md04f22fbc2" x="200.906581" y="307.584" style="stroke: #000000; stroke-width: 0.8"/>
      </g>
     </g>
     <g id="text_4">
      <!-- 2000 -->
      <g transform="translate(188.181581 322.182437)scale(0.1 -0.1)">
       <defs>
        <path id="DejaVuSans-32" d="M 1228 531 
L 3431 531 
L 3431 0 
L 469 0 
L 469 531 
Q 828 903 1448 1529 
Q 2069 2156 2228 2338 
Q 2531 2678 2651 2914 
Q 2772 3150 2772 3378 
Q 2772 3750 2511 3984 
Q 2250 4219 1831 4219 
Q 1534 4219 1204 4116 
Q 875 4013 500 3803 
L 500 4441 
Q 881 4594 1212 4672 
Q 1544 4750 1819 4750 
Q 2544 4750 2975 4387 
Q 3406 4025 3406 3419 
Q 3406 3131 3298 2873 
Q 3191 2616 2906 2266 
Q 2828 2175 2409 1742 
Q 1991 1309 1228 531 
z
" transform="scale(0.015625)"/>
       </defs>
       <use xlink:href="#DejaVuSans-32"/>
       <use xlink:href="#DejaVuSans-30" x="63.623047"/>
       <use xlink:href="#DejaVuSans-30" x="127.246094"/>
       <use xlink:href="#DejaVuSans-30" x="190.869141"/>
      </g>
     </g>
    </g>
    <g id="xtick_5">
     <g id="line2d_5">
      <g>
       <use xlink:href="#md04f22fbc2" x="248.675441" y="307.584" style="stroke: #000000; stroke-width: 0.8"/>
      </g>
     </g>
     <g id="text_5">
      <!-- 2500 -->
      <g transform="translate(235.950441 322.182437)scale(0.1 -0.1)">
       <use xlink:href="#DejaVuSans-32"/>
       <use xlink:href="#DejaVuSans-35" x="63.623047"/>
       <use xlink:href="#DejaVuSans-30" x="127.246094"/>
       <use xlink:href="#DejaVuSans-30" x="190.869141"/>
      </g>
     </g>
    </g>
    <g id="xtick_6">
     <g id="line2d_6">
      <g>
       <use xlink:href="#md04f22fbc2" x="296.444302" y="307.584" style="stroke: #000000; stroke-width: 0.8"/>
      </g>
     </g>
     <g id="text_6">
      <!-- 3000 -->
      <g transform="translate(283.719302 322.182437)scale(0.1 -0.1)">
       <defs>
        <path id="DejaVuSans-33" d="M 2597 2516 
Q 3050 2419 3304 2112 
Q 3559 1806 3559 1356 
Q 3559 666 3084 287 
Q 2609 -91 1734 -91 
Q 1441 -91 1130 -33 
Q 819 25 488 141 
L 488 750 
Q 750 597 1062 519 
Q 1375 441 1716 441 
Q 2309 441 2620 675 
Q 2931 909 2931 1356 
Q 2931 1769 2642 2001 
Q 2353 2234 1838 2234 
L 1294 2234 
L 1294 2753 
L 1863 2753 
Q 2328 2753 2575 2939 
Q 2822 3125 2822 3475 
Q 2822 3834 2567 4026 
Q 2313 4219 1838 4219 
Q 1578 4219 1281 4162 
Q 984 4106 628 3988 
L 628 4550 
Q 988 4650 1302 4700 
Q 1616 4750 1894 4750 
Q 2613 4750 3031 4423 
Q 3450 4097 3450 3541 
Q 3450 3153 3228 2886 
Q 3006 2619 2597 2516 
z
" transform="scale(0.015625)"/>
       </defs>
       <use xlink:href="#DejaVuSans-33"/>
       <use xlink:href="#DejaVuSans-30" x="63.623047"/>
       <use xlink:href="#DejaVuSans-30" x="127.246094"/>
       <use xlink:href="#DejaVuSans-30" x="190.869141"/>
      </g>
     </g>
    </g>
    <g id="xtick_7">
     <g id="line2d_7">
      <g>
       <use xlink:href="#md04f22fbc2" x="344.213162" y="307.584" style="stroke: #000000; stroke-width: 0.8"/>
      </g>
     </g>
     <g id="text_7">
      <!-- 3500 -->
      <g transform="translate(331.488162 322.182437)scale(0.1 -0.1)">
       <use xlink:href="#DejaVuSans-33"/>
       <use xlink:href="#DejaVuSans-35" x="63.623047"/>
       <use xlink:href="#DejaVuSans-30" x="127.246094"/>
       <use xlink:href="#DejaVuSans-30" x="190.869141"/>
      </g>
     </g>
    </g>
    <g id="xtick_8">
     <g id="line2d_8">
      <g>
       <use xlink:href="#md04f22fbc2" x="391.982022" y="307.584" style="stroke: #000000; stroke-width: 0.8"/>
      </g>
     </g>
     <g id="text_8">
      <!-- 4000 -->
      <g transform="translate(379.257022 322.182437)scale(0.1 -0.1)">
       <defs>
        <path id="DejaVuSans-34" d="M 2419 4116 
L 825 1625 
L 2419 1625 
L 2419 4116 
z
M 2253 4666 
L 3047 4666 
L 3047 1625 
L 3713 1625 
L 3713 1100 
L 3047 1100 
L 3047 0 
L 2419 0 
L 2419 1100 
L 313 1100 
L 313 1709 
L 2253 4666 
z
" transform="scale(0.015625)"/>
       </defs>
       <use xlink:href="#DejaVuSans-34"/>
       <use xlink:href="#DejaVuSans-30" x="63.623047"/>
       <use xlink:href="#DejaVuSans-30" x="127.246094"/>
       <use xlink:href="#DejaVuSans-30" x="190.869141"/>
      </g>
     </g>
    </g>
    <g id="text_9">
     <!-- step -->
     <g transform="translate(225.344375 335.860562)scale(0.1 -0.1)">
      <defs>
       <path id="DejaVuSans-73" d="M 2834 3397 
L 2834 2853 
Q 2591 2978 2328 3040 
Q 2066 3103 1784 3103 
Q 1356 3103 1142 2972 
Q 928 2841 928 2578 
Q 928 2378 1081 2264 
Q 1234 2150 1697 2047 
L 1894 2003 
Q 2506 1872 2764 1633 
Q 3022 1394 3022 966 
Q 3022 478 2636 193 
Q 2250 -91 1575 -91 
Q 1294 -91 989 -36 
Q 684 19 347 128 
L 347 722 
Q 666 556 975 473 
Q 1284 391 1588 391 
Q 1994 391 2212 530 
Q 2431 669 2431 922 
Q 2431 1156 2273 1281 
Q 2116 1406 1581 1522 
L 1381 1569 
Q 847 1681 609 1914 
Q 372 2147 372 2553 
Q 372 3047 722 3315 
Q 1072 3584 1716 3584 
Q 2034 3584 2315 3537 
Q 2597 3491 2834 3397 
z
" transform="scale(0.015625)"/>
       <path id="DejaVuSans-74" d="M 1172 4494 
L 1172 3500 
L 2356 3500 
L 2356 3053 
L 1172 3053 
L 1172 1153 
Q 1172 725 1289 603 
Q 1406 481 1766 481 
L 2356 481 
L 2356 0 
L 1766 0 
Q 1100 0 847 248 
Q 594 497 594 1153 
L 594 3053 
L 172 3053 
L 172 3500 
L 594 3500 
L 594 4494 
L 1172 4494 
z
" transform="scale(0.015625)"/>
       <path id="DejaVuSans-65" d="M 3597 1894 
L 3597 1613 
L 953 1613 
Q 991 1019 1311 708 
Q 1631 397 2203 397 
Q 2534 397 2845 478 
Q 3156 559 3463 722 
L 3463 178 
Q 3153 47 2828 -22 
Q 2503 -91 2169 -91 
Q 1331 -91 842 396 
Q 353 884 353 1716 
Q 353 2575 817 3079 
Q 1281 3584 2069 3584 
Q 2775 3584 3186 3129 
Q 3597 2675 3597 1894 
z
M 3022 2063 
Q 3016 2534 2758 2815 
Q 2500 3097 2075 3097 
Q 1594 3097 1305 2825 
Q 1016 2553 972 2059 
L 3022 2063 
z
" transform="scale(0.015625)"/>
       <path id="DejaVuSans-70" d="M 1159 525 
L 1159 -1331 
L 581 -1331 
L 581 3500 
L 1159 3500 
L 1159 2969 
Q 1341 3281 1617 3432 
Q 1894 3584 2278 3584 
Q 2916 3584 3314 3078 
Q 3713 2572 3713 1747 
Q 3713 922 3314 415 
Q 2916 -91 2278 -91 
Q 1894 -91 1617 61 
Q 1341 213 1159 525 
z
M 3116 1747 
Q 3116 2381 2855 2742 
Q 2594 3103 2138 3103 
Q 1681 3103 1420 2742 
Q 1159 2381 1159 1747 
Q 1159 1113 1420 752 
Q 1681 391 2138 391 
Q 2594 391 2855 752 
Q 3116 1113 3116 1747 
z
" transform="scale(0.015625)"/>
      </defs>
      <use xlink:href="#DejaVuSans-73"/>
      <use xlink:href="#DejaVuSans-74" x="52.099609"/>
      <use xlink:href="#DejaVuSans-65" x="91.308594"/>
      <use xlink:href="#DejaVuSans-70" x="152.832031"/>
     </g>
    </g>
   </g>
   <g id="matplotlib.axis_2">
    <g id="ytick_1">
     <g id="line2d_9">
      <defs>
       <path id="mc1b3b988a9" d="M 0 0 
L -3.5 0 
" style="stroke: #000000; stroke-width: 0.8"/>
      </defs>
      <g>
       <use xlink:href="#mc1b3b988a9" x="57.6" y="297.303584" style="stroke: #000000; stroke-width: 0.8"/>
      </g>
     </g>
     <g id="text_10">
      <!-- 0 -->
      <g transform="translate(44.2375 301.102802)scale(0.1 -0.1)">
       <use xlink:href="#DejaVuSans-30"/>
      </g>
     </g>
    </g>
    <g id="ytick_2">
     <g id="line2d_10">
      <g>
       <use xlink:href="#mc1b3b988a9" x="57.6" y="267.388543" style="stroke: #000000; stroke-width: 0.8"/>
      </g>
     </g>
     <g id="text_11">
      <!-- 500 -->
      <g transform="translate(31.5125 271.187762)scale(0.1 -0.1)">
       <use xlink:href="#DejaVuSans-35"/>
       <use xlink:href="#DejaVuSans-30" x="63.623047"/>
       <use xlink:href="#DejaVuSans-30" x="127.246094"/>
      </g>
     </g>
    </g>
    <g id="ytick_3">
     <g id="line2d_11">
      <g>
       <use xlink:href="#mc1b3b988a9" x="57.6" y="237.473502" style="stroke: #000000; stroke-width: 0.8"/>
      </g>
     </g>
     <g id="text_12">
      <!-- 1000 -->
      <g transform="translate(25.15 241.272721)scale(0.1 -0.1)">
       <use xlink:href="#DejaVuSans-31"/>
       <use xlink:href="#DejaVuSans-30" x="63.623047"/>
       <use xlink:href="#DejaVuSans-30" x="127.246094"/>
       <use xlink:href="#DejaVuSans-30" x="190.869141"/>
      </g>
     </g>
    </g>
    <g id="ytick_4">
     <g id="line2d_12">
      <g>
       <use xlink:href="#mc1b3b988a9" x="57.6" y="207.558461" style="stroke: #000000; stroke-width: 0.8"/>
      </g>
     </g>
     <g id="text_13">
      <!-- 1500 -->
      <g transform="translate(25.15 211.35768)scale(0.1 -0.1)">
       <use xlink:href="#DejaVuSans-31"/>
       <use xlink:href="#DejaVuSans-35" x="63.623047"/>
       <use xlink:href="#DejaVuSans-30" x="127.246094"/>
       <use xlink:href="#DejaVuSans-30" x="190.869141"/>
      </g>
     </g>
    </g>
    <g id="ytick_5">
     <g id="line2d_13">
      <g>
       <use xlink:href="#mc1b3b988a9" x="57.6" y="177.64342" style="stroke: #000000; stroke-width: 0.8"/>
      </g>
     </g>
     <g id="text_14">
      <!-- 2000 -->
      <g transform="translate(25.15 181.442639)scale(0.1 -0.1)">
       <use xlink:href="#DejaVuSans-32"/>
       <use xlink:href="#DejaVuSans-30" x="63.623047"/>
       <use xlink:href="#DejaVuSans-30" x="127.246094"/>
       <use xlink:href="#DejaVuSans-30" x="190.869141"/>
      </g>
     </g>
    </g>
    <g id="ytick_6">
     <g id="line2d_14">
      <g>
       <use xlink:href="#mc1b3b988a9" x="57.6" y="147.72838" style="stroke: #000000; stroke-width: 0.8"/>
      </g>
     </g>
     <g id="text_15">
      <!-- 2500 -->
      <g transform="translate(25.15 151.527598)scale(0.1 -0.1)">
       <use xlink:href="#DejaVuSans-32"/>
       <use xlink:href="#DejaVuSans-35" x="63.623047"/>
       <use xlink:href="#DejaVuSans-30" x="127.246094"/>
       <use xlink:href="#DejaVuSans-30" x="190.869141"/>
      </g>
     </g>
    </g>
    <g id="ytick_7">
     <g id="line2d_15">
      <g>
       <use xlink:href="#mc1b3b988a9" x="57.6" y="117.813339" style="stroke: #000000; stroke-width: 0.8"/>
      </g>
     </g>
     <g id="text_16">
      <!-- 3000 -->
      <g transform="translate(25.15 121.612557)scale(0.1 -0.1)">
       <use xlink:href="#DejaVuSans-33"/>
       <use xlink:href="#DejaVuSans-30" x="63.623047"/>
       <use xlink:href="#DejaVuSans-30" x="127.246094"/>
       <use xlink:href="#DejaVuSans-30" x="190.869141"/>
      </g>
     </g>
    </g>
    <g id="ytick_8">
     <g id="line2d_16">
      <g>
       <use xlink:href="#mc1b3b988a9" x="57.6" y="87.898298" style="stroke: #000000; stroke-width: 0.8"/>
      </g>
     </g>
     <g id="text_17">
      <!-- 3500 -->
      <g transform="translate(25.15 91.697517)scale(0.1 -0.1)">
       <use xlink:href="#DejaVuSans-33"/>
       <use xlink:href="#DejaVuSans-35" x="63.623047"/>
       <use xlink:href="#DejaVuSans-30" x="127.246094"/>
       <use xlink:href="#DejaVuSans-30" x="190.869141"/>
      </g>
     </g>
    </g>
    <g id="ytick_9">
     <g id="line2d_17">
      <g>
       <use xlink:href="#mc1b3b988a9" x="57.6" y="57.983257" style="stroke: #000000; stroke-width: 0.8"/>
      </g>
     </g>
     <g id="text_18">
      <!-- 4000 -->
      <g transform="translate(25.15 61.782476)scale(0.1 -0.1)">
       <use xlink:href="#DejaVuSans-34"/>
       <use xlink:href="#DejaVuSans-30" x="63.623047"/>
       <use xlink:href="#DejaVuSans-30" x="127.246094"/>
       <use xlink:href="#DejaVuSans-30" x="190.869141"/>
      </g>
     </g>
    </g>
    <g id="text_19">
     <!-- $\chi^2$ -->
     <g transform="translate(19.05 180.078)rotate(-90)scale(0.1 -0.1)">
      <defs>
       <path id="DejaVuSans-Oblique-3c7" d="M 1922 -781 
L 1691 416 
L 394 -1334 
L -284 -1334 
L 1553 1141 
L 1269 2613 
Q 1194 3006 713 3006 
L 559 3006 
L 653 3500 
L 872 3494 
Q 1675 3472 1775 2950 
L 2006 1753 
L 3303 3503 
L 3981 3503 
L 2144 1028 
L 2428 -444 
Q 2503 -838 2984 -838 
L 3138 -838 
L 3044 -1331 
L 2825 -1325 
Q 2022 -1303 1922 -781 
z
" transform="scale(0.015625)"/>
      </defs>
      <use xlink:href="#DejaVuSans-Oblique-3c7" transform="translate(0 0.765625)"/>
      <use xlink:href="#DejaVuSans-32" transform="translate(63.652396 39.046875)scale(0.7)"/>
     </g>
    </g>
   </g>
   <g id="line2d_18">
    <path d="M 57.6 53.568 
L 58.459839 58.616993 
L 59.319679 61.455936 
L 59.510754 61.955998 
L 59.606292 62.508371 
L 59.797368 65.075092 
L 59.988443 65.751647 
L 60.083981 66.008104 
L 60.179518 66.591726 
L 60.370594 68.32989 
L 60.657207 69.726659 
L 60.848283 70.788008 
L 61.230433 74.293246 
L 61.708122 77.412309 
L 61.994735 77.950288 
L 62.281348 80.24296 
L 63.141188 83.451267 
L 63.427801 86.112887 
L 63.714414 87.13007 
L 64.001027 87.610253 
L 64.28764 89.355753 
L 64.478716 89.777325 
L 64.669791 91.608101 
L 64.765329 91.665059 
L 65.14748 92.560538 
L 65.625169 94.76041 
L 65.720706 94.794904 
L 65.911782 95.115986 
L 66.198395 95.369044 
L 66.293933 95.443051 
L 66.962697 97.987495 
L 67.24931 98.532252 
L 67.344848 98.903121 
L 68.013612 103.745475 
L 68.682376 106.350721 
L 68.873451 106.469194 
L 69.160064 107.260682 
L 69.255602 107.340681 
L 69.446677 108.214191 
L 69.542215 108.255048 
L 69.828828 108.925899 
L 70.115441 110.694189 
L 70.306517 110.768468 
L 70.688668 111.371353 
L 71.166356 111.64609 
L 71.261894 111.832688 
L 71.45297 112.512842 
L 71.644045 112.66485 
L 72.026196 113.314057 
L 72.312809 113.452044 
L 73.077111 114.671241 
L 73.363724 114.759423 
L 73.459262 114.84487 
L 73.650337 115.545637 
L 73.841413 115.922396 
L 74.128026 116.542544 
L 74.79679 116.770002 
L 74.987865 117.094348 
L 75.561091 117.377746 
L 75.943242 118.520694 
L 76.134318 118.80155 
L 76.612006 118.953473 
L 76.803082 119.819487 
L 76.994157 120.113826 
L 77.376308 120.421802 
L 77.567384 120.918786 
L 77.758459 121.130268 
L 78.045072 122.038629 
L 78.14061 122.078081 
L 78.331685 122.258145 
L 78.713836 122.479462 
L 78.904912 123.625083 
L 79.095987 123.802202 
L 79.573676 125.481846 
L 79.860289 125.766813 
L 80.146902 127.519139 
L 80.433515 128.294507 
L 80.624591 128.569674 
L 80.815666 128.666717 
L 81.102279 129.85802 
L 81.197817 129.906143 
L 81.48443 130.74266 
L 81.579968 130.786331 
L 81.771043 131.024893 
L 81.962119 133.683781 
L 82.057657 133.706883 
L 82.248732 136.058005 
L 82.34427 136.07607 
L 82.535345 136.293608 
L 83.108571 136.665829 
L 83.777335 137.67602 
L 83.968411 138.202968 
L 84.159486 138.390737 
L 84.4461 140.539294 
L 84.732713 140.67898 
L 84.923788 141.495569 
L 85.210401 141.653054 
L 86.261316 141.788353 
L 86.739005 143.433219 
L 87.025618 143.505223 
L 87.503307 143.596643 
L 87.694382 144.419664 
L 87.980995 144.671103 
L 88.172071 145.195606 
L 88.745297 145.486337 
L 88.936372 145.914353 
L 89.222986 145.968412 
L 89.414061 146.616549 
L 90.082825 146.771844 
L 90.369438 147.030622 
L 90.942665 147.080101 
L 91.13374 147.277203 
L 91.229278 147.290259 
L 91.420353 147.60513 
L 91.706966 147.687431 
L 91.898042 148.255252 
L 92.471268 149.30235 
L 92.757881 149.320384 
L 92.948957 149.760553 
L 93.140032 149.773636 
L 93.331108 149.98874 
L 93.522183 150.054728 
L 93.713258 150.609346 
L 93.808796 150.615579 
L 94.286485 151.1555 
L 94.47756 152.055919 
L 94.668636 152.551982 
L 94.764173 152.555306 
L 94.955249 152.789522 
L 95.050787 152.804554 
L 95.241862 152.97809 
L 95.528475 152.999286 
L 96.006164 153.36401 
L 96.101701 153.365764 
L 96.866003 154.288449 
L 96.961541 154.288311 
L 97.057079 154.454482 
L 97.248154 155.294038 
L 97.43923 155.29997 
L 97.630305 155.644182 
L 97.725843 155.655418 
L 98.012456 156.350945 
L 98.203531 156.617702 
L 98.68122 158.586379 
L 98.967833 158.887864 
L 99.254446 160.083856 
L 99.541059 160.162125 
L 99.732135 160.851944 
L 100.018748 161.721674 
L 100.305361 163.15836 
L 100.400899 163.160345 
L 100.591974 163.85971 
L 100.78305 163.87771 
L 101.260738 164.831696 
L 101.356276 164.837107 
L 101.833965 166.43285 
L 102.120578 168.063626 
L 102.311653 168.578577 
L 102.502729 168.696692 
L 102.598266 168.701019 
L 102.789342 169.070242 
L 102.980417 169.537024 
L 103.26703 169.684083 
L 103.458106 170.44446 
L 103.649181 170.687679 
L 103.935795 170.743448 
L 104.12687 171.125586 
L 104.509021 171.174639 
L 104.795634 171.555705 
L 104.891172 171.614269 
L 105.082247 171.856536 
L 105.559936 171.965232 
L 106.037624 172.012341 
L 106.515313 172.059376 
L 106.706388 172.503399 
L 106.801926 172.503953 
L 106.993002 172.729303 
L 108.139454 172.845818 
L 108.234992 172.846904 
L 108.426067 173.275508 
L 108.712681 173.349962 
L 109.190369 173.452155 
L 110.050209 173.64339 
L 110.241284 173.914574 
L 110.43236 174.062954 
L 110.623435 174.135957 
L 110.81451 174.521892 
L 111.483274 174.626243 
L 111.769888 174.895719 
L 111.960963 175.009112 
L 112.343114 175.047892 
L 112.534189 175.57069 
L 114.349406 175.732962 
L 114.540482 175.986591 
L 114.731557 176.074483 
L 115.01817 176.179919 
L 115.87801 176.228933 
L 116.069085 176.341497 
L 117.12 176.461832 
L 117.311075 176.617616 
L 118.266453 176.666104 
L 118.839679 176.789415 
L 119.030754 177.157886 
L 119.22183 177.237303 
L 119.699518 177.326737 
L 119.890594 178.097381 
L 120.177207 178.245646 
L 120.368283 178.406951 
L 120.46382 178.418123 
L 120.559358 178.587052 
L 120.750433 179.106982 
L 120.941509 179.153108 
L 121.037047 179.264534 
L 121.228122 180.08901 
L 121.610273 180.151979 
L 121.801348 180.323152 
L 121.992424 180.340997 
L 122.183499 180.52415 
L 122.947801 180.582703 
L 123.138876 180.698708 
L 123.521027 180.746629 
L 123.712103 181.406789 
L 123.998716 181.421016 
L 124.189791 181.665331 
L 124.285329 181.663681 
L 124.476404 182.372664 
L 125.336244 182.442755 
L 125.622857 182.46506 
L 125.90947 182.663385 
L 126.100546 182.671095 
L 126.291621 184.145139 
L 126.673772 184.192559 
L 126.864848 184.323384 
L 127.246998 184.365084 
L 129.444366 184.537871 
L 129.635441 184.674073 
L 129.922055 184.697386 
L 130.11313 184.886745 
L 132.023884 185.020544 
L 132.21496 185.103508 
L 135.654318 185.218336 
L 135.845393 185.397314 
L 136.036469 185.501555 
L 136.896308 185.554953 
L 137.087384 185.755575 
L 137.66061 185.782471 
L 137.947223 185.876894 
L 138.520449 186.583176 
L 138.615987 186.586433 
L 138.807063 187.041757 
L 139.189213 187.071908 
L 139.380289 187.492051 
L 139.666902 187.553467 
L 139.857978 187.557882 
L 140.049053 187.802832 
L 140.240128 187.809443 
L 140.431204 187.935466 
L 141.00443 188.027469 
L 141.195506 188.470597 
L 141.291043 188.467199 
L 141.482119 188.644374 
L 141.577657 188.645301 
L 141.86427 189.088317 
L 142.341958 189.107108 
L 142.533034 189.346966 
L 142.628571 189.39336 
L 143.010722 189.986061 
L 143.679486 190.02925 
L 143.870562 190.339494 
L 143.9661 190.335868 
L 144.34825 191.18489 
L 144.443788 191.185473 
L 144.634864 191.881274 
L 144.825939 191.956428 
L 145.017014 192.982262 
L 145.590241 193.092488 
L 145.781316 193.602926 
L 145.972392 193.922768 
L 146.45008 193.929023 
L 146.641156 194.062769 
L 147.500995 194.298744 
L 147.787608 195.528954 
L 148.456372 195.564392 
L 148.55191 195.648764 
L 148.742986 196.231753 
L 149.125136 196.2653 
L 149.316212 196.474921 
L 149.507287 196.493771 
L 149.698363 197.178383 
L 149.889438 197.26049 
L 149.984976 197.354271 
L 150.558202 198.640224 
L 151.89573 198.980719 
L 151.991268 198.979406 
L 152.182343 199.238809 
L 152.373419 199.401618 
L 152.946645 199.49582 
L 153.233258 199.565343 
L 154.379711 199.664348 
L 157.34138 200.194764 
L 158.010144 200.298435 
L 158.296758 200.804531 
L 158.487833 200.811711 
L 158.678909 201.54739 
L 158.965522 201.581631 
L 159.825361 201.650162 
L 160.398587 201.828153 
L 160.685201 201.87468 
L 160.876276 202.056494 
L 161.162889 202.059724 
L 161.353965 202.851792 
L 161.54504 202.969753 
L 161.736116 203.995615 
L 162.595955 204.118747 
L 162.78703 204.498743 
L 163.073644 204.551902 
L 163.551332 205.291913 
L 163.64687 205.295505 
L 163.837945 206.354298 
L 164.124559 206.804058 
L 164.411172 206.809819 
L 164.602247 207.430887 
L 164.88886 207.478804 
L 165.079936 207.591951 
L 165.939775 207.67873 
L 166.035313 207.700584 
L 166.226388 208.07118 
L 166.417464 208.265535 
L 167.086228 208.293559 
L 167.277303 208.901941 
L 168.232681 209.215961 
L 168.519294 209.205553 
L 168.710369 209.37614 
L 169.188058 209.412073 
L 169.379133 209.629664 
L 169.474671 209.63604 
L 169.665746 210.089037 
L 170.430048 210.206296 
L 170.716661 210.237737 
L 170.907737 210.695528 
L 171.863114 210.74748 
L 172.054189 210.883562 
L 172.627416 210.896278 
L 172.818491 211.149668 
L 173.678331 211.198756 
L 173.869406 211.457873 
L 174.920321 211.568455 
L 175.206934 211.640224 
L 175.39801 211.875746 
L 175.971236 211.891281 
L 176.066774 211.995571 
L 176.257849 212.450407 
L 176.448925 212.662131 
L 176.544462 212.664201 
L 176.735538 212.789627 
L 177.786453 212.995278 
L 177.977528 213.259745 
L 178.073066 213.26371 
L 178.264141 213.463047 
L 178.455217 213.490066 
L 178.550754 213.69513 
L 178.74183 214.228176 
L 179.410594 214.385211 
L 179.601669 214.872971 
L 180.557047 214.933908 
L 180.748122 215.099882 
L 180.939197 215.182334 
L 181.225811 215.753796 
L 183.614254 216.094476 
L 184.283018 216.151035 
L 184.569631 216.209771 
L 185.142857 216.277723 
L 185.525008 216.348535 
L 186.098234 216.444963 
L 186.28931 217.808302 
L 187.149149 217.897215 
L 187.340225 218.106711 
L 187.5313 218.217191 
L 188.200064 218.299096 
L 188.582215 218.640137 
L 189.250979 218.804159 
L 189.442055 219.078483 
L 189.728668 219.085915 
L 189.919743 219.512736 
L 190.015281 219.529946 
L 190.206356 219.667399 
L 190.301894 219.673356 
L 190.49297 220.073957 
L 190.970658 220.243608 
L 191.161734 220.43333 
L 191.639422 220.442897 
L 191.926035 221.519302 
L 192.117111 221.523109 
L 192.403724 221.950978 
L 193.454639 222.028053 
L 194.410016 222.16609 
L 194.696629 222.210455 
L 196.034157 222.302871 
L 201.193194 222.5649 
L 201.38427 223.09907 
L 202.053034 223.197944 
L 202.244109 223.352875 
L 202.530722 224.310728 
L 202.721798 224.495404 
L 203.103949 224.49606 
L 203.295024 224.676274 
L 203.86825 224.684834 
L 204.059326 224.892202 
L 204.441477 224.983012 
L 205.014703 224.996212 
L 205.205778 225.551288 
L 206.925457 225.728704 
L 207.116533 225.922294 
L 207.212071 225.923021 
L 207.594222 226.89783 
L 207.880835 227.354156 
L 208.167448 227.35745 
L 208.358523 227.481533 
L 210.078202 227.611106 
L 210.364815 227.95691 
L 213.422022 228.012793 
L 213.613098 228.102013 
L 214.186324 228.186711 
L 214.3774 228.423619 
L 214.568475 228.493368 
L 214.664013 228.494539 
L 214.855088 228.625147 
L 215.61939 228.647121 
L 215.810465 229.319057 
L 216.001541 229.530684 
L 216.097079 229.530479 
L 216.288154 229.77383 
L 216.47923 229.872052 
L 216.956918 229.928579 
L 217.243531 230.016227 
L 219.82305 230.308997 
L 220.014125 230.444143 
L 220.109663 230.479516 
L 220.300738 230.887383 
L 220.682889 230.900393 
L 220.873965 231.405753 
L 221.160578 231.415794 
L 221.351653 231.827801 
L 221.542729 231.921869 
L 221.638266 231.9233 
L 221.829342 232.133548 
L 222.020417 232.213334 
L 222.30703 232.241933 
L 222.498106 232.377359 
L 228.421445 232.658485 
L 231.287576 232.73554 
L 231.669727 233.369339 
L 232.242953 233.39384 
L 232.625104 233.39487 
L 232.81618 233.968984 
L 233.676019 233.987051 
L 233.867095 234.123753 
L 236.16 234.143156 
L 237.115377 234.179059 
L 237.306453 234.319882 
L 239.026132 234.376753 
L 239.312745 234.435233 
L 240.841348 234.486167 
L 241.032424 234.767121 
L 242.943178 234.878893 
L 243.420867 234.944409 
L 244.471782 234.969395 
L 244.662857 235.045908 
L 247.624526 235.103025 
L 247.815602 235.342039 
L 249.630819 235.379064 
L 254.694318 235.602212 
L 254.885393 235.718313 
L 255.267544 235.774052 
L 255.45862 235.930441 
L 257.273836 236.024435 
L 257.751525 236.088008 
L 259.662279 236.191415 
L 259.948892 236.255441 
L 260.808732 236.275822 
L 260.999807 236.447915 
L 266.540995 236.557088 
L 266.732071 237.47704 
L 268.45175 237.512114 
L 268.642825 237.565951 
L 268.8339 237.91234 
L 269.598202 237.974428 
L 269.884815 238.589813 
L 271.222343 238.606415 
L 273.133098 238.710417 
L 273.324173 239.375838 
L 276.094767 239.578169 
L 276.285843 239.963769 
L 276.572456 239.996925 
L 276.763531 240.185409 
L 276.859069 240.238402 
L 277.145682 240.63191 
L 277.336758 240.720129 
L 277.527833 241.208687 
L 277.718909 241.206562 
L 277.909984 241.346508 
L 278.292135 241.340507 
L 278.48321 241.557468 
L 281.158266 241.630859 
L 281.349342 242.04137 
L 282.209181 242.127654 
L 283.069021 242.30195 
L 283.737785 242.35194 
L 284.119936 242.458791 
L 285.935152 242.532825 
L 286.221766 242.577389 
L 287.654831 242.645262 
L 287.845907 243.00898 
L 288.610209 243.07102 
L 288.801284 243.540112 
L 289.37451 243.552698 
L 289.565586 243.766191 
L 290.903114 243.841618 
L 291.094189 243.846115 
L 291.285265 244.290831 
L 292.622793 244.380714 
L 292.909406 244.444985 
L 296.348764 244.539056 
L 296.635377 244.826736 
L 297.304141 244.841966 
L 297.495217 244.925766 
L 299.02382 244.948291 
L 299.501509 245.656893 
L 299.597047 245.65821 
L 300.265811 248.29834 
L 300.839037 248.337241 
L 301.412263 249.39231 
L 301.889952 249.437539 
L 303.131942 249.525742 
L 303.323018 249.600769 
L 304.087319 249.649618 
L 304.851621 249.704026 
L 305.32931 249.722569 
L 305.520385 249.942973 
L 305.806998 249.941934 
L 305.998074 250.364792 
L 306.475762 250.372062 
L 306.666838 250.804861 
L 306.857913 250.843548 
L 307.048989 251.079743 
L 307.240064 251.075762 
L 307.43114 251.385923 
L 308.004366 251.416994 
L 308.290979 251.41425 
L 308.482055 251.712594 
L 308.768668 251.818102 
L 309.055281 251.951187 
L 310.201734 252.190984 
L 312.494639 252.269884 
L 313.163403 252.28676 
L 314.023242 252.294356 
L 314.214318 252.668855 
L 318.417978 252.780399 
L 319.086742 252.79533 
L 322.143949 252.905435 
L 322.812713 253.519653 
L 323.290401 253.544803 
L 323.481477 254.215251 
L 323.577014 254.216452 
L 323.76809 254.65582 
L 323.959165 254.949349 
L 324.054703 254.947982 
L 324.245778 255.237841 
L 324.532392 255.241175 
L 324.723467 255.497674 
L 325.201156 255.589914 
L 325.583307 255.666328 
L 325.965457 255.785768 
L 326.252071 256.201203 
L 326.443146 256.211359 
L 326.634222 256.810466 
L 326.825297 257.220057 
L 327.494061 257.273872 
L 327.780674 257.604134 
L 328.449438 257.683996 
L 333.608475 257.866475 
L 333.895088 257.909911 
L 343.544398 258.079222 
L 346.219454 258.137774 
L 347.365907 258.207982 
L 347.556982 259.364581 
L 349.372199 259.455403 
L 349.563274 259.544504 
L 352.142793 259.630222 
L 352.238331 259.701246 
L 352.429406 260.450825 
L 353.480321 260.470305 
L 353.671396 260.56005 
L 355.773226 260.65097 
L 355.964302 260.883991 
L 356.250915 260.926661 
L 356.44199 261.035135 
L 356.537528 261.033415 
L 356.728604 261.286635 
L 357.492905 261.444318 
L 358.066132 261.442992 
L 358.257207 262.367628 
L 358.830433 262.366857 
L 359.021509 262.667832 
L 359.976886 262.690101 
L 360.167961 262.805222 
L 364.944848 262.912708 
L 366.664526 262.949951 
L 366.855602 263.49709 
L 367.524366 263.490826 
L 367.715441 263.859171 
L 368.479743 263.859168 
L 368.670819 264.279904 
L 368.861894 264.294402 
L 369.05297 264.643397 
L 374.594157 264.705435 
L 374.785233 264.946969 
L 378.129053 264.977596 
L 378.511204 265.058599 
L 381.759486 265.168055 
L 383.097014 265.264918 
L 383.670241 265.299256 
L 386.727448 265.382952 
L 387.014061 265.454432 
L 393.797239 265.585183 
L 393.988315 265.664289 
L 395.42138 265.68975 
L 395.803531 265.732602 
L 399.338427 265.83714 
L 402.300096 265.925047 
L 402.682247 266.001475 
L 403.8287 266.097239 
L 404.306388 266.128937 
L 404.593002 266.81208 
L 404.784077 266.818309 
L 405.07069 267.806738 
L 405.357303 267.86473 
L 406.885907 267.887103 
L 410.134189 267.943714 
L 414.624462 268.167305 
L 414.624462 268.167305 
" clip-path="url(#p6ebc9229cf)" style="fill: none; stroke: #1f77b4; stroke-opacity: 0.3; stroke-width: 1.5; stroke-linecap: square"/>
   </g>
   <g id="line2d_19">
    <path d="M 57.6 293.041316 
L 62.281348 293.114564 
L 62.472424 293.757052 
L 67.344848 293.767052 
L 67.535923 293.90659 
L 71.930658 293.974301 
L 72.121734 294.461886 
L 72.886035 294.461886 
L 73.077111 294.714595 
L 74.510177 294.664758 
L 74.701252 294.869234 
L 80.624591 294.957208 
L 80.911204 295.001342 
L 82.34427 295.006994 
L 82.535345 295.125807 
L 90.464976 295.233001 
L 90.847127 295.250566 
L 91.038202 295.100959 
L 91.324815 295.180079 
L 91.515891 295.28572 
L 129.826517 295.324087 
L 130.017592 295.410164 
L 144.539326 295.3818 
L 144.730401 295.296033 
L 148.55191 295.312407 
L 148.742986 295.432285 
L 414.624462 295.420793 
L 414.624462 295.420793 
" clip-path="url(#p6ebc9229cf)" style="fill: none; stroke: #ff7f0e; stroke-opacity: 0.3; stroke-width: 1.5; stroke-linecap: square"/>
   </g>
   <g id="patch_3">
    <path d="M 57.6 307.584 
L 57.6 41.472 
" style="fill: none; stroke: #000000; stroke-width: 0.8; stroke-linejoin: miter; stroke-linecap: square"/>
   </g>
   <g id="patch_4">
    <path d="M 414.72 307.584 
L 414.72 41.472 
" style="fill: none; stroke: #000000; stroke-width: 0.8; stroke-linejoin: miter; stroke-linecap: square"/>
   </g>
   <g id="patch_5">
    <path d="M 57.6 307.584 
L 414.72 307.584 
" style="fill: none; stroke: #000000; stroke-width: 0.8; stroke-linejoin: miter; stroke-linecap: square"/>
   </g>
   <g id="patch_6">
    <path d="M 57.6 41.472 
L 414.72 41.472 
" style="fill: none; stroke: #000000; stroke-width: 0.8; stroke-linejoin: miter; stroke-linecap: square"/>
   </g>
   <g id="text_20">
    <!-- Best $\chi^2$ by Step -->
    <g transform="translate(189.42 35.472)scale(0.12 -0.12)">
     <defs>
      <path id="DejaVuSans-42" d="M 1259 2228 
L 1259 519 
L 2272 519 
Q 2781 519 3026 730 
Q 3272 941 3272 1375 
Q 3272 1813 3026 2020 
Q 2781 2228 2272 2228 
L 1259 2228 
z
M 1259 4147 
L 1259 2741 
L 2194 2741 
Q 2656 2741 2882 2914 
Q 3109 3088 3109 3444 
Q 3109 3797 2882 3972 
Q 2656 4147 2194 4147 
L 1259 4147 
z
M 628 4666 
L 2241 4666 
Q 2963 4666 3353 4366 
Q 3744 4066 3744 3513 
Q 3744 3084 3544 2831 
Q 3344 2578 2956 2516 
Q 3422 2416 3680 2098 
Q 3938 1781 3938 1306 
Q 3938 681 3513 340 
Q 3088 0 2303 0 
L 628 0 
L 628 4666 
z
" transform="scale(0.015625)"/>
      <path id="DejaVuSans-20" transform="scale(0.015625)"/>
      <path id="DejaVuSans-62" d="M 3116 1747 
Q 3116 2381 2855 2742 
Q 2594 3103 2138 3103 
Q 1681 3103 1420 2742 
Q 1159 2381 1159 1747 
Q 1159 1113 1420 752 
Q 1681 391 2138 391 
Q 2594 391 2855 752 
Q 3116 1113 3116 1747 
z
M 1159 2969 
Q 1341 3281 1617 3432 
Q 1894 3584 2278 3584 
Q 2916 3584 3314 3078 
Q 3713 2572 3713 1747 
Q 3713 922 3314 415 
Q 2916 -91 2278 -91 
Q 1894 -91 1617 61 
Q 1341 213 1159 525 
L 1159 0 
L 581 0 
L 581 4863 
L 1159 4863 
L 1159 2969 
z
" transform="scale(0.015625)"/>
      <path id="DejaVuSans-79" d="M 2059 -325 
Q 1816 -950 1584 -1140 
Q 1353 -1331 966 -1331 
L 506 -1331 
L 506 -850 
L 844 -850 
Q 1081 -850 1212 -737 
Q 1344 -625 1503 -206 
L 1606 56 
L 191 3500 
L 800 3500 
L 1894 763 
L 2988 3500 
L 3597 3500 
L 2059 -325 
z
" transform="scale(0.015625)"/>
      <path id="DejaVuSans-53" d="M 3425 4513 
L 3425 3897 
Q 3066 4069 2747 4153 
Q 2428 4238 2131 4238 
Q 1616 4238 1336 4038 
Q 1056 3838 1056 3469 
Q 1056 3159 1242 3001 
Q 1428 2844 1947 2747 
L 2328 2669 
Q 3034 2534 3370 2195 
Q 3706 1856 3706 1288 
Q 3706 609 3251 259 
Q 2797 -91 1919 -91 
Q 1588 -91 1214 -16 
Q 841 59 441 206 
L 441 856 
Q 825 641 1194 531 
Q 1563 422 1919 422 
Q 2459 422 2753 634 
Q 3047 847 3047 1241 
Q 3047 1584 2836 1778 
Q 2625 1972 2144 2069 
L 1759 2144 
Q 1053 2284 737 2584 
Q 422 2884 422 3419 
Q 422 4038 858 4394 
Q 1294 4750 2059 4750 
Q 2388 4750 2728 4690 
Q 3069 4631 3425 4513 
z
" transform="scale(0.015625)"/>
     </defs>
     <use xlink:href="#DejaVuSans-42" transform="translate(0 0.765625)"/>
     <use xlink:href="#DejaVuSans-65" transform="translate(68.603516 0.765625)"/>
     <use xlink:href="#DejaVuSans-73" transform="translate(130.126953 0.765625)"/>
     <use xlink:href="#DejaVuSans-74" transform="translate(182.226562 0.765625)"/>
     <use xlink:href="#DejaVuSans-20" transform="translate(221.435547 0.765625)"/>
     <use xlink:href="#DejaVuSans-Oblique-3c7" transform="translate(253.222656 0.765625)"/>
     <use xlink:href="#DejaVuSans-32" transform="translate(316.875052 39.046875)scale(0.7)"/>
     <use xlink:href="#DejaVuSans-20" transform="translate(364.14556 0.765625)"/>
     <use xlink:href="#DejaVuSans-62" transform="translate(395.932669 0.765625)"/>
     <use xlink:href="#DejaVuSans-79" transform="translate(459.409232 0.765625)"/>
     <use xlink:href="#DejaVuSans-20" transform="translate(518.588919 0.765625)"/>
     <use xlink:href="#DejaVuSans-53" transform="translate(550.376029 0.765625)"/>
     <use xlink:href="#DejaVuSans-74" transform="translate(613.852591 0.765625)"/>
     <use xlink:href="#DejaVuSans-65" transform="translate(653.061576 0.765625)"/>
     <use xlink:href="#DejaVuSans-70" transform="translate(714.585013 0.765625)"/>
    </g>
   </g>
  </g>
 </g>
 <defs>
  <clipPath id="p6ebc9229cf">
   <rect x="57.6" y="41.472" width="357.12" height="266.112"/>
  </clipPath>
 </defs>
</svg>
