<?xml version="1.0" encoding="utf-8" standalone="no"?>
<!DOCTYPE svg PUBLIC "-//W3C//DTD SVG 1.1//EN"
  "http://www.w3.org/Graphics/SVG/1.1/DTD/svg11.dtd">
<svg xmlns:xlink="http://www.w3.org/1999/xlink" width="460.8pt" height="345.6pt" viewBox="0 0 460.8 345.6" xmlns="http://www.w3.org/2000/svg" version="1.1">
 <metadata>
  <rdf:RDF xmlns:dc="http://purl.org/dc/elements/1.1/" xmlns:cc="http://creativecommons.org/ns#" xmlns:rdf="http://www.w3.org/1999/02/22-rdf-syntax-ns#">
   <cc:Work>
    <dc:type rdf:resource="http://purl.org/dc/dcmitype/StillImage"/>
    <dc:date>2022-06-09T23:18:19.934132</dc:date>
    <dc:format>image/svg+xml</dc:format>
    <dc:creator>
     <cc:Agent>
      <dc:title>Matplotlib v3.5.0, https://matplotlib.org/</dc:title>
     </cc:Agent>
    </dc:creator>
   </cc:Work>
  </rdf:RDF>
 </metadata>
 <defs>
  <style type="text/css">*{stroke-linejoin: round; stroke-linecap: butt}</style>
 </defs>
 <g id="figure_1">
  <g id="patch_1">
   <path d="M 0 345.6 
L 460.8 345.6 
L 460.8 0 
L 0 0 
z
" style="fill: #ffffff"/>
  </g>
  <g id="axes_1">
   <g id="patch_2">
    <path d="M 57.6 307.584 
L 414.72 307.584 
L 414.72 41.472 
L 57.6 41.472 
z
" style="fill: #ffffff"/>
   </g>
   <g id="matplotlib.axis_1">
    <g id="xtick_1">
     <g id="line2d_1">
      <defs>
       <path id="m4dbcba645c" d="M 0 0 
L 0 3.5 
" style="stroke: #000000; stroke-width: 0.8"/>
      </defs>
      <g>
       <use xlink:href="#m4dbcba645c" x="57.6" y="307.584" style="stroke: #000000; stroke-width: 0.8"/>
      </g>
     </g>
     <g id="text_1">
      <!-- 500 -->
      <g transform="translate(48.05625 322.182437)scale(0.1 -0.1)">
       <defs>
        <path id="DejaVuSans-35" d="M 691 4666 
L 3169 4666 
L 3169 4134 
L 1269 4134 
L 1269 2991 
Q 1406 3038 1543 3061 
Q 1681 3084 1819 3084 
Q 2600 3084 3056 2656 
Q 3513 2228 3513 1497 
Q 3513 744 3044 326 
Q 2575 -91 1722 -91 
Q 1428 -91 1123 -41 
Q 819 9 494 109 
L 494 744 
Q 775 591 1075 516 
Q 1375 441 1709 441 
Q 2250 441 2565 725 
Q 2881 1009 2881 1497 
Q 2881 1984 2565 2268 
Q 2250 2553 1709 2553 
Q 1456 2553 1204 2497 
Q 953 2441 691 2322 
L 691 4666 
z
" transform="scale(0.015625)"/>
        <path id="DejaVuSans-30" d="M 2034 4250 
Q 1547 4250 1301 3770 
Q 1056 3291 1056 2328 
Q 1056 1369 1301 889 
Q 1547 409 2034 409 
Q 2525 409 2770 889 
Q 3016 1369 3016 2328 
Q 3016 3291 2770 3770 
Q 2525 4250 2034 4250 
z
M 2034 4750 
Q 2819 4750 3233 4129 
Q 3647 3509 3647 2328 
Q 3647 1150 3233 529 
Q 2819 -91 2034 -91 
Q 1250 -91 836 529 
Q 422 1150 422 2328 
Q 422 3509 836 4129 
Q 1250 4750 2034 4750 
z
" transform="scale(0.015625)"/>
       </defs>
       <use xlink:href="#DejaVuSans-35"/>
       <use xlink:href="#DejaVuSans-30" x="63.623047"/>
       <use xlink:href="#DejaVuSans-30" x="127.246094"/>
      </g>
     </g>
    </g>
    <g id="xtick_2">
     <g id="line2d_2">
      <g>
       <use xlink:href="#m4dbcba645c" x="105.36886" y="307.584" style="stroke: #000000; stroke-width: 0.8"/>
      </g>
     </g>
     <g id="text_2">
      <!-- 1000 -->
      <g transform="translate(92.64386 322.182437)scale(0.1 -0.1)">
       <defs>
        <path id="DejaVuSans-31" d="M 794 531 
L 1825 531 
L 1825 4091 
L 703 3866 
L 703 4441 
L 1819 4666 
L 2450 4666 
L 2450 531 
L 3481 531 
L 3481 0 
L 794 0 
L 794 531 
z
" transform="scale(0.015625)"/>
       </defs>
       <use xlink:href="#DejaVuSans-31"/>
       <use xlink:href="#DejaVuSans-30" x="63.623047"/>
       <use xlink:href="#DejaVuSans-30" x="127.246094"/>
       <use xlink:href="#DejaVuSans-30" x="190.869141"/>
      </g>
     </g>
    </g>
    <g id="xtick_3">
     <g id="line2d_3">
      <g>
       <use xlink:href="#m4dbcba645c" x="153.137721" y="307.584" style="stroke: #000000; stroke-width: 0.8"/>
      </g>
     </g>
     <g id="text_3">
      <!-- 1500 -->
      <g transform="translate(140.412721 322.182437)scale(0.1 -0.1)">
       <use xlink:href="#DejaVuSans-31"/>
       <use xlink:href="#DejaVuSans-35" x="63.623047"/>
       <use xlink:href="#DejaVuSans-30" x="127.246094"/>
       <use xlink:href="#DejaVuSans-30" x="190.869141"/>
      </g>
     </g>
    </g>
    <g id="xtick_4">
     <g id="line2d_4">
      <g>
       <use xlink:href="#m4dbcba645c" x="200.906581" y="307.584" style="stroke: #000000; stroke-width: 0.8"/>
      </g>
     </g>
     <g id="text_4">
      <!-- 2000 -->
      <g transform="translate(188.181581 322.182437)scale(0.1 -0.1)">
       <defs>
        <path id="DejaVuSans-32" d="M 1228 531 
L 3431 531 
L 3431 0 
L 469 0 
L 469 531 
Q 828 903 1448 1529 
Q 2069 2156 2228 2338 
Q 2531 2678 2651 2914 
Q 2772 3150 2772 3378 
Q 2772 3750 2511 3984 
Q 2250 4219 1831 4219 
Q 1534 4219 1204 4116 
Q 875 4013 500 3803 
L 500 4441 
Q 881 4594 1212 4672 
Q 1544 4750 1819 4750 
Q 2544 4750 2975 4387 
Q 3406 4025 3406 3419 
Q 3406 3131 3298 2873 
Q 3191 2616 2906 2266 
Q 2828 2175 2409 1742 
Q 1991 1309 1228 531 
z
" transform="scale(0.015625)"/>
       </defs>
       <use xlink:href="#DejaVuSans-32"/>
       <use xlink:href="#DejaVuSans-30" x="63.623047"/>
       <use xlink:href="#DejaVuSans-30" x="127.246094"/>
       <use xlink:href="#DejaVuSans-30" x="190.869141"/>
      </g>
     </g>
    </g>
    <g id="xtick_5">
     <g id="line2d_5">
      <g>
       <use xlink:href="#m4dbcba645c" x="248.675441" y="307.584" style="stroke: #000000; stroke-width: 0.8"/>
      </g>
     </g>
     <g id="text_5">
      <!-- 2500 -->
      <g transform="translate(235.950441 322.182437)scale(0.1 -0.1)">
       <use xlink:href="#DejaVuSans-32"/>
       <use xlink:href="#DejaVuSans-35" x="63.623047"/>
       <use xlink:href="#DejaVuSans-30" x="127.246094"/>
       <use xlink:href="#DejaVuSans-30" x="190.869141"/>
      </g>
     </g>
    </g>
    <g id="xtick_6">
     <g id="line2d_6">
      <g>
       <use xlink:href="#m4dbcba645c" x="296.444302" y="307.584" style="stroke: #000000; stroke-width: 0.8"/>
      </g>
     </g>
     <g id="text_6">
      <!-- 3000 -->
      <g transform="translate(283.719302 322.182437)scale(0.1 -0.1)">
       <defs>
        <path id="DejaVuSans-33" d="M 2597 2516 
Q 3050 2419 3304 2112 
Q 3559 1806 3559 1356 
Q 3559 666 3084 287 
Q 2609 -91 1734 -91 
Q 1441 -91 1130 -33 
Q 819 25 488 141 
L 488 750 
Q 750 597 1062 519 
Q 1375 441 1716 441 
Q 2309 441 2620 675 
Q 2931 909 2931 1356 
Q 2931 1769 2642 2001 
Q 2353 2234 1838 2234 
L 1294 2234 
L 1294 2753 
L 1863 2753 
Q 2328 2753 2575 2939 
Q 2822 3125 2822 3475 
Q 2822 3834 2567 4026 
Q 2313 4219 1838 4219 
Q 1578 4219 1281 4162 
Q 984 4106 628 3988 
L 628 4550 
Q 988 4650 1302 4700 
Q 1616 4750 1894 4750 
Q 2613 4750 3031 4423 
Q 3450 4097 3450 3541 
Q 3450 3153 3228 2886 
Q 3006 2619 2597 2516 
z
" transform="scale(0.015625)"/>
       </defs>
       <use xlink:href="#DejaVuSans-33"/>
       <use xlink:href="#DejaVuSans-30" x="63.623047"/>
       <use xlink:href="#DejaVuSans-30" x="127.246094"/>
       <use xlink:href="#DejaVuSans-30" x="190.869141"/>
      </g>
     </g>
    </g>
    <g id="xtick_7">
     <g id="line2d_7">
      <g>
       <use xlink:href="#m4dbcba645c" x="344.213162" y="307.584" style="stroke: #000000; stroke-width: 0.8"/>
      </g>
     </g>
     <g id="text_7">
      <!-- 3500 -->
      <g transform="translate(331.488162 322.182437)scale(0.1 -0.1)">
       <use xlink:href="#DejaVuSans-33"/>
       <use xlink:href="#DejaVuSans-35" x="63.623047"/>
       <use xlink:href="#DejaVuSans-30" x="127.246094"/>
       <use xlink:href="#DejaVuSans-30" x="190.869141"/>
      </g>
     </g>
    </g>
    <g id="xtick_8">
     <g id="line2d_8">
      <g>
       <use xlink:href="#m4dbcba645c" x="391.982022" y="307.584" style="stroke: #000000; stroke-width: 0.8"/>
      </g>
     </g>
     <g id="text_8">
      <!-- 4000 -->
      <g transform="translate(379.257022 322.182437)scale(0.1 -0.1)">
       <defs>
        <path id="DejaVuSans-34" d="M 2419 4116 
L 825 1625 
L 2419 1625 
L 2419 4116 
z
M 2253 4666 
L 3047 4666 
L 3047 1625 
L 3713 1625 
L 3713 1100 
L 3047 1100 
L 3047 0 
L 2419 0 
L 2419 1100 
L 313 1100 
L 313 1709 
L 2253 4666 
z
" transform="scale(0.015625)"/>
       </defs>
       <use xlink:href="#DejaVuSans-34"/>
       <use xlink:href="#DejaVuSans-30" x="63.623047"/>
       <use xlink:href="#DejaVuSans-30" x="127.246094"/>
       <use xlink:href="#DejaVuSans-30" x="190.869141"/>
      </g>
     </g>
    </g>
    <g id="text_9">
     <!-- step -->
     <g transform="translate(225.344375 335.860562)scale(0.1 -0.1)">
      <defs>
       <path id="DejaVuSans-73" d="M 2834 3397 
L 2834 2853 
Q 2591 2978 2328 3040 
Q 2066 3103 1784 3103 
Q 1356 3103 1142 2972 
Q 928 2841 928 2578 
Q 928 2378 1081 2264 
Q 1234 2150 1697 2047 
L 1894 2003 
Q 2506 1872 2764 1633 
Q 3022 1394 3022 966 
Q 3022 478 2636 193 
Q 2250 -91 1575 -91 
Q 1294 -91 989 -36 
Q 684 19 347 128 
L 347 722 
Q 666 556 975 473 
Q 1284 391 1588 391 
Q 1994 391 2212 530 
Q 2431 669 2431 922 
Q 2431 1156 2273 1281 
Q 2116 1406 1581 1522 
L 1381 1569 
Q 847 1681 609 1914 
Q 372 2147 372 2553 
Q 372 3047 722 3315 
Q 1072 3584 1716 3584 
Q 2034 3584 2315 3537 
Q 2597 3491 2834 3397 
z
" transform="scale(0.015625)"/>
       <path id="DejaVuSans-74" d="M 1172 4494 
L 1172 3500 
L 2356 3500 
L 2356 3053 
L 1172 3053 
L 1172 1153 
Q 1172 725 1289 603 
Q 1406 481 1766 481 
L 2356 481 
L 2356 0 
L 1766 0 
Q 1100 0 847 248 
Q 594 497 594 1153 
L 594 3053 
L 172 3053 
L 172 3500 
L 594 3500 
L 594 4494 
L 1172 4494 
z
" transform="scale(0.015625)"/>
       <path id="DejaVuSans-65" d="M 3597 1894 
L 3597 1613 
L 953 1613 
Q 991 1019 1311 708 
Q 1631 397 2203 397 
Q 2534 397 2845 478 
Q 3156 559 3463 722 
L 3463 178 
Q 3153 47 2828 -22 
Q 2503 -91 2169 -91 
Q 1331 -91 842 396 
Q 353 884 353 1716 
Q 353 2575 817 3079 
Q 1281 3584 2069 3584 
Q 2775 3584 3186 3129 
Q 3597 2675 3597 1894 
z
M 3022 2063 
Q 3016 2534 2758 2815 
Q 2500 3097 2075 3097 
Q 1594 3097 1305 2825 
Q 1016 2553 972 2059 
L 3022 2063 
z
" transform="scale(0.015625)"/>
       <path id="DejaVuSans-70" d="M 1159 525 
L 1159 -1331 
L 581 -1331 
L 581 3500 
L 1159 3500 
L 1159 2969 
Q 1341 3281 1617 3432 
Q 1894 3584 2278 3584 
Q 2916 3584 3314 3078 
Q 3713 2572 3713 1747 
Q 3713 922 3314 415 
Q 2916 -91 2278 -91 
Q 1894 -91 1617 61 
Q 1341 213 1159 525 
z
M 3116 1747 
Q 3116 2381 2855 2742 
Q 2594 3103 2138 3103 
Q 1681 3103 1420 2742 
Q 1159 2381 1159 1747 
Q 1159 1113 1420 752 
Q 1681 391 2138 391 
Q 2594 391 2855 752 
Q 3116 1113 3116 1747 
z
" transform="scale(0.015625)"/>
      </defs>
      <use xlink:href="#DejaVuSans-73"/>
      <use xlink:href="#DejaVuSans-74" x="52.099609"/>
      <use xlink:href="#DejaVuSans-65" x="91.308594"/>
      <use xlink:href="#DejaVuSans-70" x="152.832031"/>
     </g>
    </g>
   </g>
   <g id="matplotlib.axis_2">
    <g id="ytick_1">
     <g id="line2d_9">
      <defs>
       <path id="mc998a06f7f" d="M 0 0 
L -3.5 0 
" style="stroke: #000000; stroke-width: 0.8"/>
      </defs>
      <g>
       <use xlink:href="#mc998a06f7f" x="57.6" y="294.610094" style="stroke: #000000; stroke-width: 0.8"/>
      </g>
     </g>
     <g id="text_10">
      <!-- 500 -->
      <g transform="translate(31.5125 298.409313)scale(0.1 -0.1)">
       <use xlink:href="#DejaVuSans-35"/>
       <use xlink:href="#DejaVuSans-30" x="63.623047"/>
       <use xlink:href="#DejaVuSans-30" x="127.246094"/>
      </g>
     </g>
    </g>
    <g id="ytick_2">
     <g id="line2d_10">
      <g>
       <use xlink:href="#mc998a06f7f" x="57.6" y="260.886561" style="stroke: #000000; stroke-width: 0.8"/>
      </g>
     </g>
     <g id="text_11">
      <!-- 1000 -->
      <g transform="translate(25.15 264.68578)scale(0.1 -0.1)">
       <use xlink:href="#DejaVuSans-31"/>
       <use xlink:href="#DejaVuSans-30" x="63.623047"/>
       <use xlink:href="#DejaVuSans-30" x="127.246094"/>
       <use xlink:href="#DejaVuSans-30" x="190.869141"/>
      </g>
     </g>
    </g>
    <g id="ytick_3">
     <g id="line2d_11">
      <g>
       <use xlink:href="#mc998a06f7f" x="57.6" y="227.163028" style="stroke: #000000; stroke-width: 0.8"/>
      </g>
     </g>
     <g id="text_12">
      <!-- 1500 -->
      <g transform="translate(25.15 230.962247)scale(0.1 -0.1)">
       <use xlink:href="#DejaVuSans-31"/>
       <use xlink:href="#DejaVuSans-35" x="63.623047"/>
       <use xlink:href="#DejaVuSans-30" x="127.246094"/>
       <use xlink:href="#DejaVuSans-30" x="190.869141"/>
      </g>
     </g>
    </g>
    <g id="ytick_4">
     <g id="line2d_12">
      <g>
       <use xlink:href="#mc998a06f7f" x="57.6" y="193.439496" style="stroke: #000000; stroke-width: 0.8"/>
      </g>
     </g>
     <g id="text_13">
      <!-- 2000 -->
      <g transform="translate(25.15 197.238714)scale(0.1 -0.1)">
       <use xlink:href="#DejaVuSans-32"/>
       <use xlink:href="#DejaVuSans-30" x="63.623047"/>
       <use xlink:href="#DejaVuSans-30" x="127.246094"/>
       <use xlink:href="#DejaVuSans-30" x="190.869141"/>
      </g>
     </g>
    </g>
    <g id="ytick_5">
     <g id="line2d_13">
      <g>
       <use xlink:href="#mc998a06f7f" x="57.6" y="159.715963" style="stroke: #000000; stroke-width: 0.8"/>
      </g>
     </g>
     <g id="text_14">
      <!-- 2500 -->
      <g transform="translate(25.15 163.515182)scale(0.1 -0.1)">
       <use xlink:href="#DejaVuSans-32"/>
       <use xlink:href="#DejaVuSans-35" x="63.623047"/>
       <use xlink:href="#DejaVuSans-30" x="127.246094"/>
       <use xlink:href="#DejaVuSans-30" x="190.869141"/>
      </g>
     </g>
    </g>
    <g id="ytick_6">
     <g id="line2d_14">
      <g>
       <use xlink:href="#mc998a06f7f" x="57.6" y="125.99243" style="stroke: #000000; stroke-width: 0.8"/>
      </g>
     </g>
     <g id="text_15">
      <!-- 3000 -->
      <g transform="translate(25.15 129.791649)scale(0.1 -0.1)">
       <use xlink:href="#DejaVuSans-33"/>
       <use xlink:href="#DejaVuSans-30" x="63.623047"/>
       <use xlink:href="#DejaVuSans-30" x="127.246094"/>
       <use xlink:href="#DejaVuSans-30" x="190.869141"/>
      </g>
     </g>
    </g>
    <g id="ytick_7">
     <g id="line2d_15">
      <g>
       <use xlink:href="#mc998a06f7f" x="57.6" y="92.268897" style="stroke: #000000; stroke-width: 0.8"/>
      </g>
     </g>
     <g id="text_16">
      <!-- 3500 -->
      <g transform="translate(25.15 96.068116)scale(0.1 -0.1)">
       <use xlink:href="#DejaVuSans-33"/>
       <use xlink:href="#DejaVuSans-35" x="63.623047"/>
       <use xlink:href="#DejaVuSans-30" x="127.246094"/>
       <use xlink:href="#DejaVuSans-30" x="190.869141"/>
      </g>
     </g>
    </g>
    <g id="ytick_8">
     <g id="line2d_16">
      <g>
       <use xlink:href="#mc998a06f7f" x="57.6" y="58.545365" style="stroke: #000000; stroke-width: 0.8"/>
      </g>
     </g>
     <g id="text_17">
      <!-- 4000 -->
      <g transform="translate(25.15 62.344583)scale(0.1 -0.1)">
       <use xlink:href="#DejaVuSans-34"/>
       <use xlink:href="#DejaVuSans-30" x="63.623047"/>
       <use xlink:href="#DejaVuSans-30" x="127.246094"/>
       <use xlink:href="#DejaVuSans-30" x="190.869141"/>
      </g>
     </g>
    </g>
    <g id="text_18">
     <!-- $\chi^2$ -->
     <g transform="translate(19.05 180.078)rotate(-90)scale(0.1 -0.1)">
      <defs>
       <path id="DejaVuSans-Oblique-3c7" d="M 1922 -781 
L 1691 416 
L 394 -1334 
L -284 -1334 
L 1553 1141 
L 1269 2613 
Q 1194 3006 713 3006 
L 559 3006 
L 653 3500 
L 872 3494 
Q 1675 3472 1775 2950 
L 2006 1753 
L 3303 3503 
L 3981 3503 
L 2144 1028 
L 2428 -444 
Q 2503 -838 2984 -838 
L 3138 -838 
L 3044 -1331 
L 2825 -1325 
Q 2022 -1303 1922 -781 
z
" transform="scale(0.015625)"/>
      </defs>
      <use xlink:href="#DejaVuSans-Oblique-3c7" transform="translate(0 0.765625)"/>
      <use xlink:href="#DejaVuSans-32" transform="translate(63.652396 39.046875)scale(0.7)"/>
     </g>
    </g>
   </g>
   <g id="line2d_17">
    <path d="M 57.6 53.568 
L 58.459839 59.259781 
L 59.319679 62.460151 
L 59.510754 63.023876 
L 59.606292 63.646572 
L 59.797368 66.540063 
L 59.988443 67.30275 
L 60.083981 67.591857 
L 60.179518 68.24978 
L 60.370594 70.20923 
L 60.657207 71.783823 
L 60.848283 72.980292 
L 61.230433 76.931782 
L 61.708122 80.447934 
L 61.994735 81.054404 
L 62.281348 83.638956 
L 63.141188 87.255714 
L 63.427801 90.256185 
L 63.714414 91.402866 
L 64.001027 91.944181 
L 64.28764 93.911902 
L 64.478716 94.387144 
L 64.669791 96.450997 
L 64.765329 96.515206 
L 65.14748 97.524688 
L 65.625169 100.004627 
L 65.720706 100.043513 
L 65.911782 100.405471 
L 66.102857 100.512069 
L 66.38947 101.219808 
L 66.771621 102.945346 
L 67.344848 104.674748 
L 68.013612 110.133583 
L 68.682376 113.070503 
L 68.873451 113.20406 
L 69.160064 114.096312 
L 69.255602 114.186495 
L 69.446677 115.171213 
L 69.542215 115.217271 
L 69.828828 115.973528 
L 70.115441 117.966939 
L 70.306517 118.050675 
L 70.688668 118.730314 
L 71.166356 119.040027 
L 71.261894 119.250381 
L 71.45297 120.017125 
L 71.644045 120.188486 
L 72.026196 120.920344 
L 72.312809 121.075898 
L 73.077111 122.450312 
L 73.363724 122.549719 
L 73.459262 122.646045 
L 73.650337 123.436026 
L 73.841413 123.860751 
L 74.128026 124.55985 
L 74.79679 124.816266 
L 74.987865 125.181904 
L 75.561091 125.501382 
L 75.943242 126.789839 
L 76.134318 127.106451 
L 76.612006 127.277715 
L 76.803082 128.253982 
L 76.994157 128.585793 
L 77.376308 128.932977 
L 77.567384 129.493233 
L 77.758459 129.731639 
L 78.045072 130.755643 
L 78.14061 130.800118 
L 78.331685 131.003106 
L 78.713836 131.252599 
L 78.904912 132.544069 
L 79.095987 132.743737 
L 79.573676 134.637218 
L 79.860289 134.958463 
L 80.146902 136.933879 
L 80.433515 137.807958 
L 80.624591 138.118158 
L 80.815666 138.227555 
L 81.102279 139.570523 
L 81.197817 139.624772 
L 81.48443 140.567787 
L 81.579968 140.617017 
L 81.771043 140.885951 
L 81.962119 143.883342 
L 82.057657 143.909386 
L 82.248732 146.559829 
L 82.34427 146.580195 
L 82.535345 146.825428 
L 83.108571 147.245036 
L 83.777335 148.383835 
L 83.968411 148.977868 
L 84.159486 149.189543 
L 84.4461 151.611633 
L 84.732713 151.769102 
L 84.923788 152.689651 
L 85.210401 152.867186 
L 86.261316 153.01971 
L 86.739005 154.873985 
L 87.025618 154.955155 
L 87.503307 155.058214 
L 87.694382 155.986013 
L 87.980995 156.269463 
L 88.172071 156.860741 
L 88.745297 157.188485 
L 88.936372 157.670992 
L 89.222986 157.731933 
L 89.414061 158.462585 
L 90.082825 158.637651 
L 90.369438 158.929374 
L 90.847127 158.950039 
L 90.942665 158.985151 
L 91.13374 159.207347 
L 91.229278 159.222065 
L 91.420353 159.577022 
L 91.706966 159.669801 
L 91.898042 160.309912 
L 92.471268 161.490316 
L 92.757881 161.510646 
L 92.948957 162.006853 
L 93.140032 162.021601 
L 93.331108 162.26409 
L 93.522183 162.33848 
L 93.713258 162.963706 
L 93.808796 162.970732 
L 94.286485 163.579391 
L 94.47756 164.594442 
L 94.668636 165.153659 
L 94.764173 165.157406 
L 94.955249 165.421441 
L 95.050787 165.438386 
L 95.241862 165.634016 
L 95.528475 165.65791 
L 96.006164 166.069067 
L 96.101701 166.071044 
L 96.866003 167.111196 
L 96.961541 167.111041 
L 97.057079 167.298368 
L 97.248154 168.244808 
L 97.43923 168.251495 
L 97.630305 168.639529 
L 97.725843 168.652195 
L 98.012456 169.436269 
L 98.203531 169.736987 
L 98.68122 171.956298 
L 98.967833 172.296164 
L 99.254446 173.644418 
L 99.541059 173.732652 
L 99.732135 174.510292 
L 100.018748 175.490748 
L 100.305361 177.110338 
L 100.400899 177.112576 
L 100.591974 177.900977 
L 100.78305 177.921269 
L 101.260738 178.996707 
L 101.356276 179.002807 
L 101.833965 180.801704 
L 102.120578 182.640095 
L 102.311653 183.220605 
L 102.502729 183.353757 
L 102.598266 183.358635 
L 102.789342 183.774864 
L 102.980417 184.301072 
L 103.26703 184.466853 
L 103.458106 185.324034 
L 103.649181 185.598217 
L 103.935795 185.661086 
L 104.12687 186.091874 
L 104.509021 186.147172 
L 104.795634 186.576752 
L 104.891172 186.642771 
L 105.082247 186.915881 
L 105.559936 187.038416 
L 106.037624 187.091522 
L 106.515313 187.144545 
L 106.706388 187.645097 
L 106.801926 187.645721 
L 106.993002 187.899761 
L 108.043917 188.027392 
L 108.234992 188.032334 
L 108.426067 188.515503 
L 108.617143 188.596191 
L 109.190369 188.71464 
L 110.050209 188.930221 
L 110.241284 189.235929 
L 110.43236 189.4032 
L 110.623435 189.485496 
L 110.81451 189.920565 
L 111.483274 190.038201 
L 111.769888 190.341984 
L 111.960963 190.469813 
L 112.343114 190.513529 
L 112.534189 191.102885 
L 114.349406 191.285817 
L 114.540482 191.571734 
L 114.731557 191.670816 
L 114.922632 191.781478 
L 116.260161 191.982188 
L 116.451236 192.079953 
L 117.12 192.107479 
L 117.311075 192.283095 
L 118.170915 192.332238 
L 118.839679 192.476766 
L 119.030754 192.892147 
L 119.22183 192.981675 
L 119.603981 193.031968 
L 119.699518 193.082495 
L 119.890594 193.95125 
L 119.986132 193.97108 
L 120.272745 194.289274 
L 120.46382 194.312826 
L 120.559358 194.503261 
L 120.750433 195.089384 
L 120.941509 195.141382 
L 121.037047 195.266994 
L 121.228122 196.196434 
L 121.610273 196.26742 
L 121.801348 196.460384 
L 121.992424 196.480502 
L 122.183499 196.686972 
L 122.947801 196.752979 
L 123.138876 196.883753 
L 123.521027 196.937775 
L 123.712103 197.68198 
L 123.998716 197.698018 
L 124.189791 197.973436 
L 124.285329 197.971576 
L 124.476404 198.770821 
L 125.240706 198.802742 
L 126.100546 199.107245 
L 126.291621 200.76895 
L 126.673772 200.822407 
L 126.864848 200.969887 
L 127.246998 201.016896 
L 129.348828 201.194159 
L 129.539904 201.339488 
L 129.922055 201.391504 
L 130.11313 201.60497 
L 132.023884 201.755803 
L 132.21496 201.84933 
L 135.55878 201.964588 
L 135.654318 201.978776 
L 135.845393 202.180539 
L 136.036469 202.298051 
L 136.896308 202.358248 
L 137.087384 202.584411 
L 137.66061 202.614731 
L 137.947223 202.721175 
L 138.520449 203.517374 
L 138.615987 203.521046 
L 138.807063 204.034337 
L 139.189213 204.068327 
L 139.380289 204.541958 
L 139.666902 204.611193 
L 139.857978 204.61617 
L 140.049053 204.892305 
L 140.240128 204.899758 
L 140.431204 205.041825 
L 141.00443 205.145541 
L 141.195506 205.645083 
L 141.291043 205.641253 
L 141.482119 205.840983 
L 141.577657 205.842028 
L 141.768732 206.343038 
L 142.341958 206.362628 
L 142.533034 206.633023 
L 142.628571 206.685323 
L 143.010722 207.353481 
L 143.679486 207.402169 
L 143.870562 207.75191 
L 143.9661 207.747822 
L 144.34825 208.704933 
L 144.443788 208.705591 
L 144.634864 209.489974 
L 144.825939 209.574696 
L 145.017014 210.731129 
L 145.590241 210.855388 
L 145.781316 211.43081 
L 145.972392 211.791371 
L 146.45008 211.798423 
L 146.641156 211.949196 
L 147.500995 212.215212 
L 147.787608 213.602042 
L 148.456372 213.641991 
L 148.55191 213.737105 
L 148.742986 214.394314 
L 149.125136 214.432132 
L 149.316212 214.66844 
L 149.507287 214.689689 
L 149.698363 215.461459 
L 149.889438 215.55402 
L 149.984976 215.65974 
L 150.558202 217.109407 
L 151.800193 217.495439 
L 151.991268 217.491772 
L 152.182343 217.784199 
L 152.373419 217.967736 
L 152.946645 218.07393 
L 153.233258 218.152304 
L 154.379711 218.263914 
L 154.952937 218.301326 
L 155.335088 218.386337 
L 155.526164 218.53548 
L 156.386003 218.674333 
L 156.768154 218.771881 
L 157.150305 218.856095 
L 158.010144 218.978726 
L 158.296758 219.549253 
L 158.487833 219.557348 
L 158.678909 220.386686 
L 158.965522 220.425286 
L 159.825361 220.502542 
L 160.398587 220.703193 
L 160.685201 220.755644 
L 160.876276 220.960605 
L 161.162889 220.964245 
L 161.353965 221.857152 
L 161.54504 221.99013 
L 161.736116 223.146595 
L 162.40488 223.259592 
L 162.595955 223.285403 
L 162.78703 223.713777 
L 163.073644 223.773703 
L 163.551332 224.607925 
L 163.64687 224.611975 
L 163.837945 225.805563 
L 164.124559 226.312582 
L 164.411172 226.319076 
L 164.602247 227.019212 
L 164.88886 227.07323 
L 165.079936 227.200782 
L 165.844238 227.287617 
L 166.035313 227.323245 
L 166.226388 227.741022 
L 166.417464 227.96012 
L 167.086228 227.991711 
L 167.277303 228.677547 
L 167.946067 228.927857 
L 168.137143 229.023829 
L 168.519294 229.019812 
L 168.710369 229.212117 
L 169.188058 229.252624 
L 169.379133 229.497917 
L 169.474671 229.505104 
L 169.665746 230.015772 
L 170.143435 230.110895 
L 170.621124 230.170326 
L 170.716661 230.183404 
L 170.907737 230.699476 
L 171.863114 230.758042 
L 172.054189 230.911449 
L 172.627416 230.925784 
L 172.818491 231.211432 
L 173.678331 231.26677 
L 173.869406 231.558875 
L 174.251557 231.561394 
L 174.442632 231.67611 
L 175.206934 231.764441 
L 175.39801 232.029948 
L 175.971236 232.047461 
L 176.066774 232.165028 
L 176.257849 232.677769 
L 176.448925 232.916448 
L 176.544462 232.918781 
L 176.735538 233.060175 
L 177.786453 233.292008 
L 177.977528 233.590144 
L 178.073066 233.594614 
L 178.264141 233.819329 
L 178.455217 233.849788 
L 178.550754 234.080958 
L 178.74183 234.681867 
L 179.410594 234.858893 
L 179.601669 235.408751 
L 180.557047 235.477445 
L 180.748122 235.66455 
L 180.939197 235.757498 
L 181.225811 236.401714 
L 183.518716 236.778377 
L 185.142857 236.992341 
L 185.525008 237.072168 
L 186.098234 237.180873 
L 186.28931 238.717779 
L 187.149149 238.818011 
L 187.340225 239.054179 
L 187.5313 239.178724 
L 188.104526 239.268834 
L 188.200064 239.271056 
L 188.582215 239.655515 
L 189.250979 239.840419 
L 189.442055 240.149667 
L 189.728668 240.158046 
L 189.919743 240.639205 
L 190.015281 240.658607 
L 190.206356 240.813559 
L 190.301894 240.820274 
L 190.49297 241.271875 
L 190.970658 241.463124 
L 191.161734 241.677 
L 191.639422 241.687785 
L 191.926035 242.901227 
L 192.117111 242.905519 
L 192.403724 243.387861 
L 193.263563 243.464318 
L 196.893997 243.87412 
L 200.142279 243.986267 
L 200.811043 244.085632 
L 201.193194 244.079941 
L 201.38427 244.682116 
L 202.053034 244.793579 
L 202.244109 244.968234 
L 202.530722 246.048031 
L 202.721798 246.256218 
L 203.103949 246.256958 
L 203.295024 246.460114 
L 203.86825 246.469764 
L 204.059326 246.703533 
L 204.441477 246.805904 
L 205.014703 246.820784 
L 205.205778 247.446527 
L 206.925457 247.646529 
L 207.116533 247.864766 
L 207.212071 247.865585 
L 207.594222 248.964497 
L 207.880835 249.478919 
L 208.167448 249.482632 
L 208.358523 249.622511 
L 209.696051 249.758492 
L 210.078202 249.768581 
L 210.364815 250.158409 
L 213.422022 250.221407 
L 213.613098 250.321985 
L 214.186324 250.417466 
L 214.3774 250.684535 
L 214.568475 250.763164 
L 214.664013 250.764484 
L 214.855088 250.91172 
L 215.61939 250.936491 
L 215.810465 251.693972 
L 216.001541 251.932541 
L 216.097079 251.93231 
L 216.288154 252.206642 
L 216.47923 252.317369 
L 216.956918 252.381092 
L 217.147994 252.460875 
L 217.912295 252.50789 
L 219.536437 252.610634 
L 219.727512 252.812336 
L 219.82305 252.809941 
L 220.014125 252.962293 
L 220.109663 253.002169 
L 220.300738 253.461961 
L 220.682889 253.476628 
L 220.873965 254.046325 
L 221.160578 254.057644 
L 221.351653 254.522105 
L 221.542729 254.628149 
L 221.638266 254.629761 
L 221.829342 254.866776 
L 222.020417 254.956719 
L 222.30703 254.98896 
L 222.498106 255.141627 
L 228.039294 255.453292 
L 230.523274 255.479993 
L 230.809888 255.549581 
L 231.287576 255.545408 
L 231.669727 256.259896 
L 232.242953 256.287517 
L 232.625104 256.288677 
L 232.81618 256.935882 
L 233.676019 256.95625 
L 233.867095 257.110355 
L 235.968925 257.135742 
L 237.115377 257.172702 
L 237.306453 257.331453 
L 239.026132 257.395564 
L 239.312745 257.46149 
L 240.841348 257.518907 
L 241.032424 257.83563 
L 242.84764 257.841478 
L 243.038716 258.002487 
L 243.898555 258.040195 
L 244.471782 258.063656 
L 244.662857 258.149909 
L 247.624526 258.214298 
L 247.815602 258.483742 
L 249.344205 258.520156 
L 255.172006 258.942398 
L 255.267544 258.970753 
L 255.45862 259.147053 
L 256.891685 259.251072 
L 258.897978 259.356204 
L 259.184591 259.395982 
L 260.808732 259.536404 
L 260.999807 259.730406 
L 266.540995 259.853478 
L 266.732071 260.89055 
L 268.45175 260.930089 
L 268.642825 260.99078 
L 268.8339 261.381268 
L 269.598202 261.45126 
L 269.884815 262.14499 
L 271.126806 262.162004 
L 273.133098 262.280948 
L 273.324173 263.031084 
L 276.094767 263.259173 
L 276.285843 263.693865 
L 276.572456 263.731242 
L 276.763531 263.943722 
L 276.859069 264.003461 
L 277.145682 264.447067 
L 277.24122 264.440829 
L 277.336758 264.546517 
L 277.527833 265.097274 
L 277.718909 265.094878 
L 277.909984 265.252641 
L 278.292135 265.245876 
L 278.48321 265.490458 
L 281.158266 265.573192 
L 281.349342 266.035966 
L 282.209181 266.133234 
L 282.782408 266.260779 
L 283.546709 266.356587 
L 284.311011 266.503726 
L 285.457464 266.585768 
L 287.654831 266.716739 
L 287.845907 267.126763 
L 288.610209 267.196701 
L 288.801284 267.725513 
L 289.37451 267.739701 
L 289.565586 267.980374 
L 290.616501 267.98544 
L 290.807576 268.066439 
L 291.094189 268.070473 
L 291.285265 268.571806 
L 292.622793 268.673132 
L 292.813868 268.743241 
L 296.348764 268.851633 
L 296.539839 269.04457 
L 296.730915 269.172376 
L 297.495217 269.287575 
L 299.02382 269.312967 
L 299.501509 270.111781 
L 299.597047 270.113266 
L 300.265811 273.089512 
L 300.839037 273.133365 
L 301.412263 274.322756 
L 301.889952 274.373743 
L 303.131942 274.473175 
L 303.323018 274.557754 
L 304.087319 274.612821 
L 304.756083 274.675832 
L 305.32931 274.69506 
L 305.520385 274.943524 
L 305.806998 274.942352 
L 305.998074 275.419045 
L 306.475762 275.42724 
L 306.666838 275.915139 
L 306.857913 275.958751 
L 307.048989 276.225016 
L 307.240064 276.220528 
L 307.43114 276.570176 
L 307.908828 276.603728 
L 308.290979 276.60211 
L 308.482055 276.938435 
L 308.768668 277.057376 
L 309.055281 277.207404 
L 310.201734 277.477729 
L 312.208026 277.56234 
L 314.023242 277.594262 
L 314.214318 278.016439 
L 317.940289 278.12748 
L 320.328732 278.156424 
L 322.048411 278.2069 
L 322.430562 278.524407 
L 322.621637 278.933287 
L 323.290401 279.003903 
L 323.481477 279.759707 
L 323.577014 279.76106 
L 323.76809 280.256365 
L 323.959165 280.587263 
L 324.054703 280.585722 
L 324.245778 280.912483 
L 324.532392 280.916241 
L 324.723467 281.205395 
L 325.105618 281.285868 
L 325.965457 281.530167 
L 326.252071 281.998491 
L 326.443146 282.00994 
L 326.634222 282.685319 
L 326.825297 283.147056 
L 327.494061 283.207721 
L 327.780674 283.58003 
L 328.258363 283.660882 
L 336.187994 283.943894 
L 337.716597 283.971456 
L 338.098748 284.044497 
L 347.365907 284.260754 
L 347.556982 285.564599 
L 348.990048 285.625429 
L 349.276661 285.664275 
L 352.047255 285.807524 
L 352.238331 285.944125 
L 352.429406 286.789133 
L 353.480321 286.811093 
L 353.671396 286.912263 
L 355.773226 287.014758 
L 355.964302 287.277446 
L 356.250915 287.325548 
L 356.44199 287.447832 
L 356.537528 287.445893 
L 356.728604 287.73135 
L 357.397368 287.909117 
L 358.066132 287.907613 
L 358.257207 288.949965 
L 358.830433 288.949096 
L 359.021509 289.288388 
L 359.976886 289.313493 
L 360.167961 289.443269 
L 364.562697 289.549828 
L 365.613612 289.591075 
L 366.664526 289.606424 
L 366.855602 290.223219 
L 367.524366 290.216158 
L 367.715441 290.631396 
L 368.479743 290.631393 
L 368.670819 291.105693 
L 368.861894 291.122037 
L 369.05297 291.515463 
L 374.594157 291.585399 
L 374.785233 291.857683 
L 377.84244 291.888838 
L 380.613034 292.045172 
L 391.790947 292.510115 
L 393.797239 292.577148 
L 393.988315 292.666324 
L 395.42138 292.695027 
L 395.707994 292.743615 
L 397.809823 292.847735 
L 402.586709 293.013444 
L 403.064398 293.086496 
L 404.306388 293.190127 
L 404.593002 293.960241 
L 404.784077 293.967263 
L 405.07069 295.08153 
L 405.357303 295.146904 
L 406.694831 295.168531 
L 410.038652 295.236555 
L 412.427095 295.327767 
L 414.624462 295.488 
L 414.624462 295.488 
" clip-path="url(#pbba1c831d2)" style="fill: none; stroke: #1f77b4; stroke-opacity: 0.3; stroke-width: 1.5; stroke-linecap: square"/>
   </g>
   <g id="patch_3">
    <path d="M 57.6 307.584 
L 57.6 41.472 
" style="fill: none; stroke: #000000; stroke-width: 0.8; stroke-linejoin: miter; stroke-linecap: square"/>
   </g>
   <g id="patch_4">
    <path d="M 414.72 307.584 
L 414.72 41.472 
" style="fill: none; stroke: #000000; stroke-width: 0.8; stroke-linejoin: miter; stroke-linecap: square"/>
   </g>
   <g id="patch_5">
    <path d="M 57.6 307.584 
L 414.72 307.584 
" style="fill: none; stroke: #000000; stroke-width: 0.8; stroke-linejoin: miter; stroke-linecap: square"/>
   </g>
   <g id="patch_6">
    <path d="M 57.6 41.472 
L 414.72 41.472 
" style="fill: none; stroke: #000000; stroke-width: 0.8; stroke-linejoin: miter; stroke-linecap: square"/>
   </g>
   <g id="text_19">
    <!-- Average $\chi^2$ by Step -->
    <g transform="translate(177.72 35.472)scale(0.12 -0.12)">
     <defs>
      <path id="DejaVuSans-41" d="M 2188 4044 
L 1331 1722 
L 3047 1722 
L 2188 4044 
z
M 1831 4666 
L 2547 4666 
L 4325 0 
L 3669 0 
L 3244 1197 
L 1141 1197 
L 716 0 
L 50 0 
L 1831 4666 
z
" transform="scale(0.015625)"/>
      <path id="DejaVuSans-76" d="M 191 3500 
L 800 3500 
L 1894 563 
L 2988 3500 
L 3597 3500 
L 2284 0 
L 1503 0 
L 191 3500 
z
" transform="scale(0.015625)"/>
      <path id="DejaVuSans-72" d="M 2631 2963 
Q 2534 3019 2420 3045 
Q 2306 3072 2169 3072 
Q 1681 3072 1420 2755 
Q 1159 2438 1159 1844 
L 1159 0 
L 581 0 
L 581 3500 
L 1159 3500 
L 1159 2956 
Q 1341 3275 1631 3429 
Q 1922 3584 2338 3584 
Q 2397 3584 2469 3576 
Q 2541 3569 2628 3553 
L 2631 2963 
z
" transform="scale(0.015625)"/>
      <path id="DejaVuSans-61" d="M 2194 1759 
Q 1497 1759 1228 1600 
Q 959 1441 959 1056 
Q 959 750 1161 570 
Q 1363 391 1709 391 
Q 2188 391 2477 730 
Q 2766 1069 2766 1631 
L 2766 1759 
L 2194 1759 
z
M 3341 1997 
L 3341 0 
L 2766 0 
L 2766 531 
Q 2569 213 2275 61 
Q 1981 -91 1556 -91 
Q 1019 -91 701 211 
Q 384 513 384 1019 
Q 384 1609 779 1909 
Q 1175 2209 1959 2209 
L 2766 2209 
L 2766 2266 
Q 2766 2663 2505 2880 
Q 2244 3097 1772 3097 
Q 1472 3097 1187 3025 
Q 903 2953 641 2809 
L 641 3341 
Q 956 3463 1253 3523 
Q 1550 3584 1831 3584 
Q 2591 3584 2966 3190 
Q 3341 2797 3341 1997 
z
" transform="scale(0.015625)"/>
      <path id="DejaVuSans-67" d="M 2906 1791 
Q 2906 2416 2648 2759 
Q 2391 3103 1925 3103 
Q 1463 3103 1205 2759 
Q 947 2416 947 1791 
Q 947 1169 1205 825 
Q 1463 481 1925 481 
Q 2391 481 2648 825 
Q 2906 1169 2906 1791 
z
M 3481 434 
Q 3481 -459 3084 -895 
Q 2688 -1331 1869 -1331 
Q 1566 -1331 1297 -1286 
Q 1028 -1241 775 -1147 
L 775 -588 
Q 1028 -725 1275 -790 
Q 1522 -856 1778 -856 
Q 2344 -856 2625 -561 
Q 2906 -266 2906 331 
L 2906 616 
Q 2728 306 2450 153 
Q 2172 0 1784 0 
Q 1141 0 747 490 
Q 353 981 353 1791 
Q 353 2603 747 3093 
Q 1141 3584 1784 3584 
Q 2172 3584 2450 3431 
Q 2728 3278 2906 2969 
L 2906 3500 
L 3481 3500 
L 3481 434 
z
" transform="scale(0.015625)"/>
      <path id="DejaVuSans-20" transform="scale(0.015625)"/>
      <path id="DejaVuSans-62" d="M 3116 1747 
Q 3116 2381 2855 2742 
Q 2594 3103 2138 3103 
Q 1681 3103 1420 2742 
Q 1159 2381 1159 1747 
Q 1159 1113 1420 752 
Q 1681 391 2138 391 
Q 2594 391 2855 752 
Q 3116 1113 3116 1747 
z
M 1159 2969 
Q 1341 3281 1617 3432 
Q 1894 3584 2278 3584 
Q 2916 3584 3314 3078 
Q 3713 2572 3713 1747 
Q 3713 922 3314 415 
Q 2916 -91 2278 -91 
Q 1894 -91 1617 61 
Q 1341 213 1159 525 
L 1159 0 
L 581 0 
L 581 4863 
L 1159 4863 
L 1159 2969 
z
" transform="scale(0.015625)"/>
      <path id="DejaVuSans-79" d="M 2059 -325 
Q 1816 -950 1584 -1140 
Q 1353 -1331 966 -1331 
L 506 -1331 
L 506 -850 
L 844 -850 
Q 1081 -850 1212 -737 
Q 1344 -625 1503 -206 
L 1606 56 
L 191 3500 
L 800 3500 
L 1894 763 
L 2988 3500 
L 3597 3500 
L 2059 -325 
z
" transform="scale(0.015625)"/>
      <path id="DejaVuSans-53" d="M 3425 4513 
L 3425 3897 
Q 3066 4069 2747 4153 
Q 2428 4238 2131 4238 
Q 1616 4238 1336 4038 
Q 1056 3838 1056 3469 
Q 1056 3159 1242 3001 
Q 1428 2844 1947 2747 
L 2328 2669 
Q 3034 2534 3370 2195 
Q 3706 1856 3706 1288 
Q 3706 609 3251 259 
Q 2797 -91 1919 -91 
Q 1588 -91 1214 -16 
Q 841 59 441 206 
L 441 856 
Q 825 641 1194 531 
Q 1563 422 1919 422 
Q 2459 422 2753 634 
Q 3047 847 3047 1241 
Q 3047 1584 2836 1778 
Q 2625 1972 2144 2069 
L 1759 2144 
Q 1053 2284 737 2584 
Q 422 2884 422 3419 
Q 422 4038 858 4394 
Q 1294 4750 2059 4750 
Q 2388 4750 2728 4690 
Q 3069 4631 3425 4513 
z
" transform="scale(0.015625)"/>
     </defs>
     <use xlink:href="#DejaVuSans-41" transform="translate(0 0.765625)"/>
     <use xlink:href="#DejaVuSans-76" transform="translate(68.408203 0.765625)"/>
     <use xlink:href="#DejaVuSans-65" transform="translate(127.587891 0.765625)"/>
     <use xlink:href="#DejaVuSans-72" transform="translate(189.111328 0.765625)"/>
     <use xlink:href="#DejaVuSans-61" transform="translate(230.224609 0.765625)"/>
     <use xlink:href="#DejaVuSans-67" transform="translate(291.503906 0.765625)"/>
     <use xlink:href="#DejaVuSans-65" transform="translate(354.980469 0.765625)"/>
     <use xlink:href="#DejaVuSans-20" transform="translate(416.503906 0.765625)"/>
     <use xlink:href="#DejaVuSans-Oblique-3c7" transform="translate(448.291016 0.765625)"/>
     <use xlink:href="#DejaVuSans-32" transform="translate(511.943411 39.046875)scale(0.7)"/>
     <use xlink:href="#DejaVuSans-20" transform="translate(559.213919 0.765625)"/>
     <use xlink:href="#DejaVuSans-62" transform="translate(591.001029 0.765625)"/>
     <use xlink:href="#DejaVuSans-79" transform="translate(654.477591 0.765625)"/>
     <use xlink:href="#DejaVuSans-20" transform="translate(713.657279 0.765625)"/>
     <use xlink:href="#DejaVuSans-53" transform="translate(745.444388 0.765625)"/>
     <use xlink:href="#DejaVuSans-74" transform="translate(808.920951 0.765625)"/>
     <use xlink:href="#DejaVuSans-65" transform="translate(848.129935 0.765625)"/>
     <use xlink:href="#DejaVuSans-70" transform="translate(909.653372 0.765625)"/>
    </g>
   </g>
  </g>
 </g>
 <defs>
  <clipPath id="pbba1c831d2">
   <rect x="57.6" y="41.472" width="357.12" height="266.112"/>
  </clipPath>
 </defs>
</svg>
