<?xml version="1.0" encoding="utf-8" standalone="no"?>
<!DOCTYPE svg PUBLIC "-//W3C//DTD SVG 1.1//EN"
  "http://www.w3.org/Graphics/SVG/1.1/DTD/svg11.dtd">
<svg xmlns:xlink="http://www.w3.org/1999/xlink" width="460.8pt" height="345.6pt" viewBox="0 0 460.8 345.6" xmlns="http://www.w3.org/2000/svg" version="1.1">
 <metadata>
  <rdf:RDF xmlns:dc="http://purl.org/dc/elements/1.1/" xmlns:cc="http://creativecommons.org/ns#" xmlns:rdf="http://www.w3.org/1999/02/22-rdf-syntax-ns#">
   <cc:Work>
    <dc:type rdf:resource="http://purl.org/dc/dcmitype/StillImage"/>
    <dc:date>2022-06-09T23:19:31.253771</dc:date>
    <dc:format>image/svg+xml</dc:format>
    <dc:creator>
     <cc:Agent>
      <dc:title>Matplotlib v3.5.0, https://matplotlib.org/</dc:title>
     </cc:Agent>
    </dc:creator>
   </cc:Work>
  </rdf:RDF>
 </metadata>
 <defs>
  <style type="text/css">*{stroke-linejoin: round; stroke-linecap: butt}</style>
 </defs>
 <g id="figure_1">
  <g id="patch_1">
   <path d="M 0 345.6 
L 460.8 345.6 
L 460.8 0 
L 0 0 
z
" style="fill: #ffffff"/>
  </g>
  <g id="axes_1">
   <g id="patch_2">
    <path d="M 57.6 307.584 
L 414.72 307.584 
L 414.72 41.472 
L 57.6 41.472 
z
" style="fill: #ffffff"/>
   </g>
   <g id="PolyCollection_1">
    <path d="M 73.832727 736.379743 
L 73.832727 2973.561697 
L 77.030202 2938.911859 
L 80.227691 2904.261853 
L 83.42518 2869.611847 
L 86.622669 2834.961841 
L 89.820158 2800.311881 
L 93.017648 2765.661882 
L 96.215137 2731.011876 
L 99.083622 653.048043 
L 102.281111 612.566035 
L 105.4786 572.107155 
L 108.676089 531.661861 
L 111.873579 491.224674 
L 115.071068 450.792318 
L 118.268557 410.362967 
L 121.466031 375.001274 
L 124.663521 354.684819 
L 127.86101 340.190173 
L 131.058499 325.729024 
L 134.255988 311.282316 
L 137.453477 296.841887 
L 140.650967 282.402533 
L 143.848456 267.970533 
L 147.045945 253.539713 
L 150.243434 239.113242 
L 153.440924 224.693749 
L 156.638413 210.285852 
L 159.835887 195.896903 
L 163.033376 181.539035 
L 166.230866 167.23195 
L 169.428355 153.007961 
L 172.625844 138.919462 
L 175.823333 125.050839 
L 179.020822 111.53656 
L 182.218312 98.586088 
L 185.415801 86.514258 
L 188.61329 76.16643 
L 191.810779 69.493354 
L 195.008268 63.524996 
L 198.205743 58.52761 
L 201.403232 55.347997 
L 204.600721 53.479551 
L 207.79821 53.460494 
L 210.9957 56.142094 
L 214.193189 59.935088 
L 217.390678 64.092697 
L 220.588167 68.500625 
L 223.785656 73.150406 
L 226.983146 78.246159 
L 230.180635 83.324589 
L 233.378124 88.268319 
L 236.575613 93.058874 
L 239.773088 97.70547 
L 242.970577 102.270217 
L 246.168066 106.874987 
L 249.365555 114.282028 
L 252.563044 129.114737 
L 255.760534 145.935426 
L 258.958023 177.565585 
L 262.155512 219.001117 
L 265.353001 253.118756 
L 268.55049 262.02663 
L 271.74798 249.690802 
L 274.945469 235.501296 
L 278.142943 221.391272 
L 281.340432 207.390916 
L 284.537922 193.53582 
L 287.735411 179.871129 
L 290.9329 166.45428 
L 294.130389 153.358924 
L 297.327879 140.673419 
L 300.525368 128.499864 
L 303.722857 116.975736 
L 306.920346 106.255903 
L 310.117835 97.068594 
L 313.315325 89.898867 
L 316.512814 83.31125 
L 319.710288 77.328613 
L 322.907777 71.962228 
L 326.105267 67.218698 
L 329.302756 64.644764 
L 332.500245 63.46863 
L 335.697734 62.468737 
L 338.895223 61.662204 
L 342.092713 61.06656 
L 345.290202 60.709082 
L 348.487691 60.633349 
L 351.68518 60.889214 
L 354.882669 62.110998 
L 358.080144 65.089459 
L 361.277633 69.734269 
L 364.475122 78.336426 
L 367.672611 95.195642 
L 370.870101 125.501568 
L 374.06759 165.321234 
L 377.265079 203.310005 
L 380.462568 234.075446 
L 383.660057 266.489995 
L 386.857547 334.445132 
L 390.055036 481.835496 
L 393.252525 904.917926 
L 396.449999 67459.13261 
L 398.487273 109864.202726 
L 398.487273 1470.763606 
L 398.487273 1470.763606 
L 396.449999 1226.665565 
L 393.252525 779.572217 
L 390.055036 426.386141 
L 386.857547 299.672024 
L 383.660057 240.222152 
L 380.462568 208.609912 
L 377.265079 180.397242 
L 374.06759 146.52371 
L 370.870101 112.120581 
L 367.672611 86.673631 
L 364.475122 69.831049 
L 361.277633 60.960724 
L 358.080144 56.093462 
L 354.882669 53.269657 
L 351.68518 51.74771 
L 348.487691 51.160016 
L 345.290202 51.430889 
L 342.092713 52.130282 
L 338.895223 53.424761 
L 335.697734 54.946088 
L 332.500245 56.536065 
L 329.302756 58.762801 
L 326.105267 60.684409 
L 322.907777 62.590867 
L 319.710288 64.265196 
L 316.512814 66.030461 
L 313.315325 67.567223 
L 310.117835 69.204411 
L 306.920346 70.941989 
L 303.722857 72.781577 
L 300.525368 74.722255 
L 297.327879 76.781272 
L 294.130389 78.973935 
L 290.9329 81.330179 
L 287.735411 83.891531 
L 284.537922 86.687754 
L 281.340432 89.714463 
L 278.142943 92.947347 
L 274.945469 96.362527 
L 271.74798 99.934197 
L 268.55049 103.636285 
L 265.353001 107.445929 
L 262.155512 111.346884 
L 258.958023 115.270668 
L 255.760534 117.150323 
L 252.563044 111.89391 
L 249.365555 107.085657 
L 246.168066 102.380654 
L 242.970577 94.731262 
L 239.773088 88.937162 
L 236.575613 84.265067 
L 233.378124 80.172597 
L 230.180635 76.366094 
L 226.983146 72.695339 
L 223.785656 69.086803 
L 220.588167 65.040208 
L 217.390678 60.974451 
L 214.193189 57.172004 
L 210.9957 54.287217 
L 207.79821 52.645571 
L 204.600721 51.788616 
L 201.403232 51.018891 
L 198.205743 50.85275 
L 195.008268 51.533097 
L 191.810779 54.109975 
L 188.61329 59.472549 
L 185.415801 61.832987 
L 182.218312 64.173994 
L 179.020822 66.559286 
L 175.823333 68.971205 
L 172.625844 71.39912 
L 169.428355 -43.613279 
L 166.230866 -104.74515 
L 163.033376 -133.343373 
L 159.835887 -141.046464 
L 156.638413 -131.813048 
L 153.440924 -111.552559 
L 150.243434 -85.029566 
L 147.045945 -55.04999 
L 143.848456 -23.13396 
L 140.650967 9.892741 
L 137.453477 43.569 
L 134.255988 77.629861 
L 131.058499 111.91882 
L 127.86101 146.339459 
L 124.663521 180.82587 
L 121.466031 215.319686 
L 118.268557 238.171042 
L 115.071068 253.149134 
L 111.873579 268.89738 
L 108.676089 286.351592 
L 105.4786 307.282851 
L 102.281111 333.853352 
L 99.083622 365.811443 
L 96.215137 493.83196 
L 93.017648 528.481057 
L 89.820158 563.130528 
L 86.622669 597.7802 
L 83.42518 632.430005 
L 80.227691 667.079919 
L 77.030202 701.729978 
L 73.832727 736.379743 
z
" clip-path="url(#p5f3a57da9c)" style="fill: #1f77b4; fill-opacity: 0.5"/>
   </g>
   <g id="matplotlib.axis_1">
    <g id="xtick_1">
     <g id="line2d_1">
      <defs>
       <path id="mbb9eb10694" d="M 0 0 
L 0 3.5 
" style="stroke: #000000; stroke-width: 0.8"/>
      </defs>
      <g>
       <use xlink:href="#mbb9eb10694" x="58.974646" y="307.584" style="stroke: #000000; stroke-width: 0.8"/>
      </g>
     </g>
     <g id="text_1">
      <!-- 5 -->
      <g transform="translate(55.793396 322.182437)scale(0.1 -0.1)">
       <defs>
        <path id="DejaVuSans-35" d="M 691 4666 
L 3169 4666 
L 3169 4134 
L 1269 4134 
L 1269 2991 
Q 1406 3038 1543 3061 
Q 1681 3084 1819 3084 
Q 2600 3084 3056 2656 
Q 3513 2228 3513 1497 
Q 3513 744 3044 326 
Q 2575 -91 1722 -91 
Q 1428 -91 1123 -41 
Q 819 9 494 109 
L 494 744 
Q 775 591 1075 516 
Q 1375 441 1709 441 
Q 2250 441 2565 725 
Q 2881 1009 2881 1497 
Q 2881 1984 2565 2268 
Q 2250 2553 1709 2553 
Q 1456 2553 1204 2497 
Q 953 2441 691 2322 
L 691 4666 
z
" transform="scale(0.015625)"/>
       </defs>
       <use xlink:href="#DejaVuSans-35"/>
      </g>
     </g>
    </g>
    <g id="xtick_2">
     <g id="line2d_2">
      <g>
       <use xlink:href="#mbb9eb10694" x="133.278873" y="307.584" style="stroke: #000000; stroke-width: 0.8"/>
      </g>
     </g>
     <g id="text_2">
      <!-- 10 -->
      <g transform="translate(126.916373 322.182437)scale(0.1 -0.1)">
       <defs>
        <path id="DejaVuSans-31" d="M 794 531 
L 1825 531 
L 1825 4091 
L 703 3866 
L 703 4441 
L 1819 4666 
L 2450 4666 
L 2450 531 
L 3481 531 
L 3481 0 
L 794 0 
L 794 531 
z
" transform="scale(0.015625)"/>
        <path id="DejaVuSans-30" d="M 2034 4250 
Q 1547 4250 1301 3770 
Q 1056 3291 1056 2328 
Q 1056 1369 1301 889 
Q 1547 409 2034 409 
Q 2525 409 2770 889 
Q 3016 1369 3016 2328 
Q 3016 3291 2770 3770 
Q 2525 4250 2034 4250 
z
M 2034 4750 
Q 2819 4750 3233 4129 
Q 3647 3509 3647 2328 
Q 3647 1150 3233 529 
Q 2819 -91 2034 -91 
Q 1250 -91 836 529 
Q 422 1150 422 2328 
Q 422 3509 836 4129 
Q 1250 4750 2034 4750 
z
" transform="scale(0.015625)"/>
       </defs>
       <use xlink:href="#DejaVuSans-31"/>
       <use xlink:href="#DejaVuSans-30" x="63.623047"/>
      </g>
     </g>
    </g>
    <g id="xtick_3">
     <g id="line2d_3">
      <g>
       <use xlink:href="#mbb9eb10694" x="207.5831" y="307.584" style="stroke: #000000; stroke-width: 0.8"/>
      </g>
     </g>
     <g id="text_3">
      <!-- 15 -->
      <g transform="translate(201.2206 322.182437)scale(0.1 -0.1)">
       <use xlink:href="#DejaVuSans-31"/>
       <use xlink:href="#DejaVuSans-35" x="63.623047"/>
      </g>
     </g>
    </g>
    <g id="xtick_4">
     <g id="line2d_4">
      <g>
       <use xlink:href="#mbb9eb10694" x="281.887326" y="307.584" style="stroke: #000000; stroke-width: 0.8"/>
      </g>
     </g>
     <g id="text_4">
      <!-- 20 -->
      <g transform="translate(275.524826 322.182437)scale(0.1 -0.1)">
       <defs>
        <path id="DejaVuSans-32" d="M 1228 531 
L 3431 531 
L 3431 0 
L 469 0 
L 469 531 
Q 828 903 1448 1529 
Q 2069 2156 2228 2338 
Q 2531 2678 2651 2914 
Q 2772 3150 2772 3378 
Q 2772 3750 2511 3984 
Q 2250 4219 1831 4219 
Q 1534 4219 1204 4116 
Q 875 4013 500 3803 
L 500 4441 
Q 881 4594 1212 4672 
Q 1544 4750 1819 4750 
Q 2544 4750 2975 4387 
Q 3406 4025 3406 3419 
Q 3406 3131 3298 2873 
Q 3191 2616 2906 2266 
Q 2828 2175 2409 1742 
Q 1991 1309 1228 531 
z
" transform="scale(0.015625)"/>
       </defs>
       <use xlink:href="#DejaVuSans-32"/>
       <use xlink:href="#DejaVuSans-30" x="63.623047"/>
      </g>
     </g>
    </g>
    <g id="xtick_5">
     <g id="line2d_5">
      <g>
       <use xlink:href="#mbb9eb10694" x="356.191553" y="307.584" style="stroke: #000000; stroke-width: 0.8"/>
      </g>
     </g>
     <g id="text_5">
      <!-- 25 -->
      <g transform="translate(349.829053 322.182437)scale(0.1 -0.1)">
       <use xlink:href="#DejaVuSans-32"/>
       <use xlink:href="#DejaVuSans-35" x="63.623047"/>
      </g>
     </g>
    </g>
    <g id="text_6">
     <!-- log $\nu$ -->
     <g transform="translate(224.11 335.862125)scale(0.1 -0.1)">
      <defs>
       <path id="DejaVuSans-6c" d="M 603 4863 
L 1178 4863 
L 1178 0 
L 603 0 
L 603 4863 
z
" transform="scale(0.015625)"/>
       <path id="DejaVuSans-6f" d="M 1959 3097 
Q 1497 3097 1228 2736 
Q 959 2375 959 1747 
Q 959 1119 1226 758 
Q 1494 397 1959 397 
Q 2419 397 2687 759 
Q 2956 1122 2956 1747 
Q 2956 2369 2687 2733 
Q 2419 3097 1959 3097 
z
M 1959 3584 
Q 2709 3584 3137 3096 
Q 3566 2609 3566 1747 
Q 3566 888 3137 398 
Q 2709 -91 1959 -91 
Q 1206 -91 779 398 
Q 353 888 353 1747 
Q 353 2609 779 3096 
Q 1206 3584 1959 3584 
z
" transform="scale(0.015625)"/>
       <path id="DejaVuSans-67" d="M 2906 1791 
Q 2906 2416 2648 2759 
Q 2391 3103 1925 3103 
Q 1463 3103 1205 2759 
Q 947 2416 947 1791 
Q 947 1169 1205 825 
Q 1463 481 1925 481 
Q 2391 481 2648 825 
Q 2906 1169 2906 1791 
z
M 3481 434 
Q 3481 -459 3084 -895 
Q 2688 -1331 1869 -1331 
Q 1566 -1331 1297 -1286 
Q 1028 -1241 775 -1147 
L 775 -588 
Q 1028 -725 1275 -790 
Q 1522 -856 1778 -856 
Q 2344 -856 2625 -561 
Q 2906 -266 2906 331 
L 2906 616 
Q 2728 306 2450 153 
Q 2172 0 1784 0 
Q 1141 0 747 490 
Q 353 981 353 1791 
Q 353 2603 747 3093 
Q 1141 3584 1784 3584 
Q 2172 3584 2450 3431 
Q 2728 3278 2906 2969 
L 2906 3500 
L 3481 3500 
L 3481 434 
z
" transform="scale(0.015625)"/>
       <path id="DejaVuSans-20" transform="scale(0.015625)"/>
       <path id="DejaVuSans-Oblique-3bd" d="M 959 0 
L 572 3500 
L 1191 3500 
L 1522 563 
Q 1972 950 2391 1488 
Q 2706 1891 2788 2241 
Q 2825 2406 2809 2719 
Q 2794 3091 2544 3500 
L 3125 3500 
L 3125 3500 
Q 3288 3222 3353 2834 
Q 3416 2478 3369 2234 
Q 3250 1622 2719 1075 
Q 2025 363 1572 0 
L 959 0 
z
" transform="scale(0.015625)"/>
      </defs>
      <use xlink:href="#DejaVuSans-6c" transform="translate(0 0.015625)"/>
      <use xlink:href="#DejaVuSans-6f" transform="translate(27.783203 0.015625)"/>
      <use xlink:href="#DejaVuSans-67" transform="translate(88.964844 0.015625)"/>
      <use xlink:href="#DejaVuSans-20" transform="translate(152.441406 0.015625)"/>
      <use xlink:href="#DejaVuSans-Oblique-3bd" transform="translate(184.228516 0.015625)"/>
     </g>
    </g>
   </g>
   <g id="matplotlib.axis_2">
    <g id="ytick_1">
     <g id="line2d_6">
      <defs>
       <path id="m7744976f4c" d="M 0 0 
L -3.5 0 
" style="stroke: #000000; stroke-width: 0.8"/>
      </defs>
      <g>
       <use xlink:href="#m7744976f4c" x="57.6" y="305.365813" style="stroke: #000000; stroke-width: 0.8"/>
      </g>
     </g>
     <g id="text_7">
      <!-- −15 -->
      <g transform="translate(29.495313 309.165032)scale(0.1 -0.1)">
       <defs>
        <path id="DejaVuSans-2212" d="M 678 2272 
L 4684 2272 
L 4684 1741 
L 678 1741 
L 678 2272 
z
" transform="scale(0.015625)"/>
       </defs>
       <use xlink:href="#DejaVuSans-2212"/>
       <use xlink:href="#DejaVuSans-31" x="83.789062"/>
       <use xlink:href="#DejaVuSans-35" x="147.412109"/>
      </g>
     </g>
    </g>
    <g id="ytick_2">
     <g id="line2d_7">
      <g>
       <use xlink:href="#m7744976f4c" x="57.6" y="251.685321" style="stroke: #000000; stroke-width: 0.8"/>
      </g>
     </g>
     <g id="text_8">
      <!-- −14 -->
      <g transform="translate(29.495313 255.484539)scale(0.1 -0.1)">
       <defs>
        <path id="DejaVuSans-34" d="M 2419 4116 
L 825 1625 
L 2419 1625 
L 2419 4116 
z
M 2253 4666 
L 3047 4666 
L 3047 1625 
L 3713 1625 
L 3713 1100 
L 3047 1100 
L 3047 0 
L 2419 0 
L 2419 1100 
L 313 1100 
L 313 1709 
L 2253 4666 
z
" transform="scale(0.015625)"/>
       </defs>
       <use xlink:href="#DejaVuSans-2212"/>
       <use xlink:href="#DejaVuSans-31" x="83.789062"/>
       <use xlink:href="#DejaVuSans-34" x="147.412109"/>
      </g>
     </g>
    </g>
    <g id="ytick_3">
     <g id="line2d_8">
      <g>
       <use xlink:href="#m7744976f4c" x="57.6" y="198.004829" style="stroke: #000000; stroke-width: 0.8"/>
      </g>
     </g>
     <g id="text_9">
      <!-- −13 -->
      <g transform="translate(29.495313 201.804047)scale(0.1 -0.1)">
       <defs>
        <path id="DejaVuSans-33" d="M 2597 2516 
Q 3050 2419 3304 2112 
Q 3559 1806 3559 1356 
Q 3559 666 3084 287 
Q 2609 -91 1734 -91 
Q 1441 -91 1130 -33 
Q 819 25 488 141 
L 488 750 
Q 750 597 1062 519 
Q 1375 441 1716 441 
Q 2309 441 2620 675 
Q 2931 909 2931 1356 
Q 2931 1769 2642 2001 
Q 2353 2234 1838 2234 
L 1294 2234 
L 1294 2753 
L 1863 2753 
Q 2328 2753 2575 2939 
Q 2822 3125 2822 3475 
Q 2822 3834 2567 4026 
Q 2313 4219 1838 4219 
Q 1578 4219 1281 4162 
Q 984 4106 628 3988 
L 628 4550 
Q 988 4650 1302 4700 
Q 1616 4750 1894 4750 
Q 2613 4750 3031 4423 
Q 3450 4097 3450 3541 
Q 3450 3153 3228 2886 
Q 3006 2619 2597 2516 
z
" transform="scale(0.015625)"/>
       </defs>
       <use xlink:href="#DejaVuSans-2212"/>
       <use xlink:href="#DejaVuSans-31" x="83.789062"/>
       <use xlink:href="#DejaVuSans-33" x="147.412109"/>
      </g>
     </g>
    </g>
    <g id="ytick_4">
     <g id="line2d_9">
      <g>
       <use xlink:href="#m7744976f4c" x="57.6" y="144.324336" style="stroke: #000000; stroke-width: 0.8"/>
      </g>
     </g>
     <g id="text_10">
      <!-- −12 -->
      <g transform="translate(29.495313 148.123555)scale(0.1 -0.1)">
       <use xlink:href="#DejaVuSans-2212"/>
       <use xlink:href="#DejaVuSans-31" x="83.789062"/>
       <use xlink:href="#DejaVuSans-32" x="147.412109"/>
      </g>
     </g>
    </g>
    <g id="ytick_5">
     <g id="line2d_10">
      <g>
       <use xlink:href="#m7744976f4c" x="57.6" y="90.643844" style="stroke: #000000; stroke-width: 0.8"/>
      </g>
     </g>
     <g id="text_11">
      <!-- −11 -->
      <g transform="translate(29.495313 94.443063)scale(0.1 -0.1)">
       <use xlink:href="#DejaVuSans-2212"/>
       <use xlink:href="#DejaVuSans-31" x="83.789062"/>
       <use xlink:href="#DejaVuSans-31" x="147.412109"/>
      </g>
     </g>
    </g>
    <g id="text_12">
     <!-- log $\nu F_{\nu}$ -->
     <g transform="translate(23.395312 191.528)rotate(-90)scale(0.1 -0.1)">
      <defs>
       <path id="DejaVuSans-Oblique-46" d="M 1081 4666 
L 3756 4666 
L 3653 4134 
L 1606 4134 
L 1338 2759 
L 3188 2759 
L 3084 2228 
L 1234 2228 
L 800 0 
L 172 0 
L 1081 4666 
z
" transform="scale(0.015625)"/>
      </defs>
      <use xlink:href="#DejaVuSans-6c" transform="translate(0 0.015625)"/>
      <use xlink:href="#DejaVuSans-6f" transform="translate(27.783203 0.015625)"/>
      <use xlink:href="#DejaVuSans-67" transform="translate(88.964844 0.015625)"/>
      <use xlink:href="#DejaVuSans-20" transform="translate(152.441406 0.015625)"/>
      <use xlink:href="#DejaVuSans-Oblique-3bd" transform="translate(184.228516 0.015625)"/>
      <use xlink:href="#DejaVuSans-Oblique-46" transform="translate(240.087891 0.015625)"/>
      <use xlink:href="#DejaVuSans-Oblique-3bd" transform="translate(297.607422 -16.390625)scale(0.7)"/>
     </g>
    </g>
   </g>
   <g id="line2d_11">
    <path d="M 112.255163 346.6 
L 115.071068 333.119916 
L 118.268557 318.314084 
L 121.466031 303.722921 
L 124.663521 289.223874 
L 127.86101 274.765624 
L 131.058499 260.327826 
L 134.255988 245.903985 
L 137.453477 231.494746 
L 140.650967 217.105851 
L 143.848456 202.750238 
L 147.045945 188.44691 
L 150.243434 174.228933 
L 153.440924 160.14999 
L 156.638413 146.296289 
L 159.835887 132.804396 
L 163.033376 119.885219 
L 166.230866 107.850106 
L 169.428355 97.119322 
L 172.625844 88.160477 
L 175.823333 81.262427 
L 179.020822 76.1587 
L 182.218312 72.010111 
L 185.415801 68.148981 
L 188.61329 64.441269 
L 191.810779 60.95252 
L 195.008268 57.800294 
L 198.205743 55.159268 
L 201.403232 53.276478 
L 204.600721 52.469445 
L 207.79821 53.066802 
L 210.9957 55.231521 
L 214.193189 58.707385 
L 217.390678 62.848241 
L 220.588167 67.142512 
L 223.785656 71.450677 
L 226.983146 75.766174 
L 230.180635 80.097674 
L 233.378124 84.464171 
L 236.575613 88.906757 
L 239.773088 93.512348 
L 242.970577 98.459919 
L 246.168066 104.105178 
L 249.365555 111.125113 
L 252.563044 120.744065 
L 255.760534 135.044149 
L 258.958023 157.120336 
L 262.155512 187.584698 
L 265.353001 201.171736 
L 268.55049 190.58412 
L 271.74798 178.286044 
L 274.945469 166.53872 
L 278.142943 155.464488 
L 281.340432 145.157672 
L 284.537922 135.679147 
L 287.735411 127.024241 
L 290.9329 119.110663 
L 294.130389 111.815484 
L 297.327879 105.021735 
L 300.525368 98.666394 
L 303.722857 92.72026 
L 306.920346 87.172488 
L 310.117835 82.049222 
L 313.315325 77.37612 
L 316.512814 73.17793 
L 319.710288 69.46528 
L 322.907777 66.226789 
L 326.105267 63.429982 
L 329.302756 61.036583 
L 332.500245 59.022705 
L 335.697734 57.383623 
L 338.895223 56.137804 
L 342.092713 55.322125 
L 345.290202 54.996922 
L 348.487691 55.223441 
L 351.68518 56.060725 
L 354.882669 57.615697 
L 358.080144 60.227903 
L 361.277633 64.61893 
L 364.475122 72.738922 
L 367.672611 88.815918 
L 370.870101 116.29884 
L 374.06759 152.752024 
L 377.265079 188.416116 
L 380.462568 218.000605 
L 383.660057 251.024005 
L 386.857547 312.748793 
L 387.685275 346.6 
" clip-path="url(#p5f3a57da9c)" style="fill: none; stroke: #008000; stroke-width: 2; stroke-linecap: square"/>
   </g>
   <g id="LineCollection_1">
    <path d="M 203.704255 57.293219 
L 203.704255 53.789669 
" clip-path="url(#p5f3a57da9c)" style="fill: none; stroke: #000000; stroke-width: 1.5"/>
    <path d="M 205.1185 52.812469 
L 205.1185 51.795171 
" clip-path="url(#p5f3a57da9c)" style="fill: none; stroke: #000000; stroke-width: 1.5"/>
    <path d="M 206.648561 53.006515 
L 206.648561 51.874587 
" clip-path="url(#p5f3a57da9c)" style="fill: none; stroke: #000000; stroke-width: 1.5"/>
    <path d="M 208.502159 54.230421 
L 208.502159 53.253711 
" clip-path="url(#p5f3a57da9c)" style="fill: none; stroke: #000000; stroke-width: 1.5"/>
    <path d="M 210.432085 55.217178 
L 210.432085 54.222599 
" clip-path="url(#p5f3a57da9c)" style="fill: none; stroke: #000000; stroke-width: 1.5"/>
    <path d="M 241.39963 103.143032 
L 241.39963 95.992186 
" clip-path="url(#p5f3a57da9c)" style="fill: none; stroke: #000000; stroke-width: 1.5"/>
    <path d="M 242.214728 106.204887 
L 242.214728 98.269949 
" clip-path="url(#p5f3a57da9c)" style="fill: none; stroke: #000000; stroke-width: 1.5"/>
    <path d="M 242.872808 99.87608 
L 242.872808 93.386823 
" clip-path="url(#p5f3a57da9c)" style="fill: none; stroke: #000000; stroke-width: 1.5"/>
    <path d="M 243.559386 101.227377 
L 243.559386 95.075008 
" clip-path="url(#p5f3a57da9c)" style="fill: none; stroke: #000000; stroke-width: 1.5"/>
    <path d="M 244.179896 96.346765 
L 244.179896 90.296744 
" clip-path="url(#p5f3a57da9c)" style="fill: none; stroke: #000000; stroke-width: 1.5"/>
    <path d="M 244.770533 102.603361 
L 244.770533 96.278385 
" clip-path="url(#p5f3a57da9c)" style="fill: none; stroke: #000000; stroke-width: 1.5"/>
    <path d="M 245.57689 109.794079 
L 245.57689 103.822339 
" clip-path="url(#p5f3a57da9c)" style="fill: none; stroke: #000000; stroke-width: 1.5"/>
    <path d="M 246.503348 106.087029 
L 246.503348 100.105837 
" clip-path="url(#p5f3a57da9c)" style="fill: none; stroke: #000000; stroke-width: 1.5"/>
    <path d="M 247.620361 106.878004 
L 247.620361 100.772986 
" clip-path="url(#p5f3a57da9c)" style="fill: none; stroke: #000000; stroke-width: 1.5"/>
    <path d="M 250.072072 117.508267 
L 250.072072 111.424112 
" clip-path="url(#p5f3a57da9c)" style="fill: none; stroke: #000000; stroke-width: 1.5"/>
    <path d="M 252.543407 127.161046 
L 252.543407 116.546838 
" clip-path="url(#p5f3a57da9c)" style="fill: none; stroke: #000000; stroke-width: 1.5"/>
    <path d="M 320.852635 77.018531 
L 320.852635 68.135897 
" clip-path="url(#p5f3a57da9c)" style="fill: none; stroke: #000000; stroke-width: 1.5"/>
    <path d="M 328.283058 59.557615 
L 328.283058 55.548012 
" clip-path="url(#p5f3a57da9c)" style="fill: none; stroke: #000000; stroke-width: 1.5"/>
    <path d="M 335.713481 61.834347 
L 335.713481 56.536161 
" clip-path="url(#p5f3a57da9c)" style="fill: none; stroke: #000000; stroke-width: 1.5"/>
    <path d="M 343.143903 63.309602 
L 343.143903 55.527326 
" clip-path="url(#p5f3a57da9c)" style="fill: none; stroke: #000000; stroke-width: 1.5"/>
    <path d="M 350.574326 69.563679 
L 350.574326 54.220644 
" clip-path="url(#p5f3a57da9c)" style="fill: none; stroke: #000000; stroke-width: 1.5"/>
    <path d="M 358.004749 77.070569 
L 358.004749 51.371799 
" clip-path="url(#p5f3a57da9c)" style="fill: none; stroke: #000000; stroke-width: 1.5"/>
    <path d="M 364.498213 70.954034 
L 364.498213 62.024826 
" clip-path="url(#p5f3a57da9c)" style="fill: none; stroke: #000000; stroke-width: 1.5"/>
    <path d="M 365.242086 79.353843 
L 365.242086 70.069365 
" clip-path="url(#p5f3a57da9c)" style="fill: none; stroke: #000000; stroke-width: 1.5"/>
    <path d="M 365.984741 82.436119 
L 365.984741 73.817943 
" clip-path="url(#p5f3a57da9c)" style="fill: none; stroke: #000000; stroke-width: 1.5"/>
    <path d="M 366.724346 80.623099 
L 366.724346 65.478952 
" clip-path="url(#p5f3a57da9c)" style="fill: none; stroke: #000000; stroke-width: 1.5"/>
    <path d="M 367.467201 106.387378 
L 367.467201 87.487137 
" clip-path="url(#p5f3a57da9c)" style="fill: none; stroke: #000000; stroke-width: 1.5"/>
    <path d="M 368.20891 99.772389 
L 368.20891 86.046256 
" clip-path="url(#p5f3a57da9c)" style="fill: none; stroke: #000000; stroke-width: 1.5"/>
    <path d="M 368.952356 106.849956 
L 368.952356 91.913389 
" clip-path="url(#p5f3a57da9c)" style="fill: none; stroke: #000000; stroke-width: 1.5"/>
    <path d="M 370.032182 133.077467 
L 370.032182 113.078889 
" clip-path="url(#p5f3a57da9c)" style="fill: none; stroke: #000000; stroke-width: 1.5"/>
   </g>
   <g id="line2d_12">
    <defs>
     <path id="mb6cb06505a" d="M 0 1.5 
C 0.397805 1.5 0.77937 1.341951 1.06066 1.06066 
C 1.341951 0.77937 1.5 0.397805 1.5 0 
C 1.5 -0.397805 1.341951 -0.77937 1.06066 -1.06066 
C 0.77937 -1.341951 0.397805 -1.5 0 -1.5 
C -0.397805 -1.5 -0.77937 -1.341951 -1.06066 -1.06066 
C -1.341951 -0.77937 -1.5 -0.397805 -1.5 0 
C -1.5 0.397805 -1.341951 0.77937 -1.06066 1.06066 
C -0.77937 1.341951 -0.397805 1.5 0 1.5 
z
" style="stroke: #0000ff"/>
    </defs>
    <g clip-path="url(#p5f3a57da9c)">
     <use xlink:href="#mb6cb06505a" x="203.704255" y="55.475691" style="fill: #0000ff; stroke: #0000ff"/>
     <use xlink:href="#mb6cb06505a" x="205.1185" y="52.298271" style="fill: #0000ff; stroke: #0000ff"/>
     <use xlink:href="#mb6cb06505a" x="206.648561" y="52.433682" style="fill: #0000ff; stroke: #0000ff"/>
     <use xlink:href="#mb6cb06505a" x="208.502159" y="53.736951" style="fill: #0000ff; stroke: #0000ff"/>
     <use xlink:href="#mb6cb06505a" x="210.432085" y="54.714585" style="fill: #0000ff; stroke: #0000ff"/>
     <use xlink:href="#mb6cb06505a" x="241.39963" y="99.294505" style="fill: #0000ff; stroke: #0000ff"/>
     <use xlink:href="#mb6cb06505a" x="242.214728" y="101.90144" style="fill: #0000ff; stroke: #0000ff"/>
     <use xlink:href="#mb6cb06505a" x="242.872808" y="96.40639" style="fill: #0000ff; stroke: #0000ff"/>
     <use xlink:href="#mb6cb06505a" x="243.559386" y="97.948827" style="fill: #0000ff; stroke: #0000ff"/>
     <use xlink:href="#mb6cb06505a" x="244.179896" y="93.126047" style="fill: #0000ff; stroke: #0000ff"/>
     <use xlink:href="#mb6cb06505a" x="244.770533" y="99.227028" style="fill: #0000ff; stroke: #0000ff"/>
     <use xlink:href="#mb6cb06505a" x="245.57689" y="106.61752" style="fill: #0000ff; stroke: #0000ff"/>
     <use xlink:href="#mb6cb06505a" x="246.503348" y="102.905141" style="fill: #0000ff; stroke: #0000ff"/>
     <use xlink:href="#mb6cb06505a" x="247.620361" y="103.626223" style="fill: #0000ff; stroke: #0000ff"/>
     <use xlink:href="#mb6cb06505a" x="250.072072" y="114.268273" style="fill: #0000ff; stroke: #0000ff"/>
     <use xlink:href="#mb6cb06505a" x="252.543407" y="121.255023" style="fill: #0000ff; stroke: #0000ff"/>
     <use xlink:href="#mb6cb06505a" x="320.852635" y="72.156698" style="fill: #0000ff; stroke: #0000ff"/>
     <use xlink:href="#mb6cb06505a" x="328.283058" y="57.466718" style="fill: #0000ff; stroke: #0000ff"/>
     <use xlink:href="#mb6cb06505a" x="335.713481" y="59.035068" style="fill: #0000ff; stroke: #0000ff"/>
     <use xlink:href="#mb6cb06505a" x="343.143903" y="59.095231" style="fill: #0000ff; stroke: #0000ff"/>
     <use xlink:href="#mb6cb06505a" x="350.574326" y="60.652093" style="fill: #0000ff; stroke: #0000ff"/>
     <use xlink:href="#mb6cb06505a" x="358.004749" y="60.846101" style="fill: #0000ff; stroke: #0000ff"/>
     <use xlink:href="#mb6cb06505a" x="364.498213" y="66.064519" style="fill: #0000ff; stroke: #0000ff"/>
     <use xlink:href="#mb6cb06505a" x="365.242086" y="74.252433" style="fill: #0000ff; stroke: #0000ff"/>
     <use xlink:href="#mb6cb06505a" x="365.984741" y="77.731042" style="fill: #0000ff; stroke: #0000ff"/>
     <use xlink:href="#mb6cb06505a" x="366.724346" y="71.842358" style="fill: #0000ff; stroke: #0000ff"/>
     <use xlink:href="#mb6cb06505a" x="367.467201" y="95.072189" style="fill: #0000ff; stroke: #0000ff"/>
     <use xlink:href="#mb6cb06505a" x="368.20891" y="91.913389" style="fill: #0000ff; stroke: #0000ff"/>
     <use xlink:href="#mb6cb06505a" x="368.952356" y="98.20537" style="fill: #0000ff; stroke: #0000ff"/>
     <use xlink:href="#mb6cb06505a" x="370.032182" y="120.996464" style="fill: #0000ff; stroke: #0000ff"/>
    </g>
   </g>
   <g id="patch_3">
    <path d="M 57.6 307.584 
L 57.6 41.472 
" style="fill: none; stroke: #000000; stroke-width: 0.8; stroke-linejoin: miter; stroke-linecap: square"/>
   </g>
   <g id="patch_4">
    <path d="M 414.72 307.584 
L 414.72 41.472 
" style="fill: none; stroke: #000000; stroke-width: 0.8; stroke-linejoin: miter; stroke-linecap: square"/>
   </g>
   <g id="patch_5">
    <path d="M 57.6 307.584 
L 414.72 307.584 
" style="fill: none; stroke: #000000; stroke-width: 0.8; stroke-linejoin: miter; stroke-linecap: square"/>
   </g>
   <g id="patch_6">
    <path d="M 57.6 41.472 
L 414.72 41.472 
" style="fill: none; stroke: #000000; stroke-width: 0.8; stroke-linejoin: miter; stroke-linecap: square"/>
   </g>
   <g id="text_13">
    <!-- MCMC results with the range from extreme models within 1 sigma -->
    <g transform="translate(37.283437 35.472)scale(0.12 -0.12)">
     <defs>
      <path id="DejaVuSans-4d" d="M 628 4666 
L 1569 4666 
L 2759 1491 
L 3956 4666 
L 4897 4666 
L 4897 0 
L 4281 0 
L 4281 4097 
L 3078 897 
L 2444 897 
L 1241 4097 
L 1241 0 
L 628 0 
L 628 4666 
z
" transform="scale(0.015625)"/>
      <path id="DejaVuSans-43" d="M 4122 4306 
L 4122 3641 
Q 3803 3938 3442 4084 
Q 3081 4231 2675 4231 
Q 1875 4231 1450 3742 
Q 1025 3253 1025 2328 
Q 1025 1406 1450 917 
Q 1875 428 2675 428 
Q 3081 428 3442 575 
Q 3803 722 4122 1019 
L 4122 359 
Q 3791 134 3420 21 
Q 3050 -91 2638 -91 
Q 1578 -91 968 557 
Q 359 1206 359 2328 
Q 359 3453 968 4101 
Q 1578 4750 2638 4750 
Q 3056 4750 3426 4639 
Q 3797 4528 4122 4306 
z
" transform="scale(0.015625)"/>
      <path id="DejaVuSans-72" d="M 2631 2963 
Q 2534 3019 2420 3045 
Q 2306 3072 2169 3072 
Q 1681 3072 1420 2755 
Q 1159 2438 1159 1844 
L 1159 0 
L 581 0 
L 581 3500 
L 1159 3500 
L 1159 2956 
Q 1341 3275 1631 3429 
Q 1922 3584 2338 3584 
Q 2397 3584 2469 3576 
Q 2541 3569 2628 3553 
L 2631 2963 
z
" transform="scale(0.015625)"/>
      <path id="DejaVuSans-65" d="M 3597 1894 
L 3597 1613 
L 953 1613 
Q 991 1019 1311 708 
Q 1631 397 2203 397 
Q 2534 397 2845 478 
Q 3156 559 3463 722 
L 3463 178 
Q 3153 47 2828 -22 
Q 2503 -91 2169 -91 
Q 1331 -91 842 396 
Q 353 884 353 1716 
Q 353 2575 817 3079 
Q 1281 3584 2069 3584 
Q 2775 3584 3186 3129 
Q 3597 2675 3597 1894 
z
M 3022 2063 
Q 3016 2534 2758 2815 
Q 2500 3097 2075 3097 
Q 1594 3097 1305 2825 
Q 1016 2553 972 2059 
L 3022 2063 
z
" transform="scale(0.015625)"/>
      <path id="DejaVuSans-73" d="M 2834 3397 
L 2834 2853 
Q 2591 2978 2328 3040 
Q 2066 3103 1784 3103 
Q 1356 3103 1142 2972 
Q 928 2841 928 2578 
Q 928 2378 1081 2264 
Q 1234 2150 1697 2047 
L 1894 2003 
Q 2506 1872 2764 1633 
Q 3022 1394 3022 966 
Q 3022 478 2636 193 
Q 2250 -91 1575 -91 
Q 1294 -91 989 -36 
Q 684 19 347 128 
L 347 722 
Q 666 556 975 473 
Q 1284 391 1588 391 
Q 1994 391 2212 530 
Q 2431 669 2431 922 
Q 2431 1156 2273 1281 
Q 2116 1406 1581 1522 
L 1381 1569 
Q 847 1681 609 1914 
Q 372 2147 372 2553 
Q 372 3047 722 3315 
Q 1072 3584 1716 3584 
Q 2034 3584 2315 3537 
Q 2597 3491 2834 3397 
z
" transform="scale(0.015625)"/>
      <path id="DejaVuSans-75" d="M 544 1381 
L 544 3500 
L 1119 3500 
L 1119 1403 
Q 1119 906 1312 657 
Q 1506 409 1894 409 
Q 2359 409 2629 706 
Q 2900 1003 2900 1516 
L 2900 3500 
L 3475 3500 
L 3475 0 
L 2900 0 
L 2900 538 
Q 2691 219 2414 64 
Q 2138 -91 1772 -91 
Q 1169 -91 856 284 
Q 544 659 544 1381 
z
M 1991 3584 
L 1991 3584 
z
" transform="scale(0.015625)"/>
      <path id="DejaVuSans-74" d="M 1172 4494 
L 1172 3500 
L 2356 3500 
L 2356 3053 
L 1172 3053 
L 1172 1153 
Q 1172 725 1289 603 
Q 1406 481 1766 481 
L 2356 481 
L 2356 0 
L 1766 0 
Q 1100 0 847 248 
Q 594 497 594 1153 
L 594 3053 
L 172 3053 
L 172 3500 
L 594 3500 
L 594 4494 
L 1172 4494 
z
" transform="scale(0.015625)"/>
      <path id="DejaVuSans-77" d="M 269 3500 
L 844 3500 
L 1563 769 
L 2278 3500 
L 2956 3500 
L 3675 769 
L 4391 3500 
L 4966 3500 
L 4050 0 
L 3372 0 
L 2619 2869 
L 1863 0 
L 1184 0 
L 269 3500 
z
" transform="scale(0.015625)"/>
      <path id="DejaVuSans-69" d="M 603 3500 
L 1178 3500 
L 1178 0 
L 603 0 
L 603 3500 
z
M 603 4863 
L 1178 4863 
L 1178 4134 
L 603 4134 
L 603 4863 
z
" transform="scale(0.015625)"/>
      <path id="DejaVuSans-68" d="M 3513 2113 
L 3513 0 
L 2938 0 
L 2938 2094 
Q 2938 2591 2744 2837 
Q 2550 3084 2163 3084 
Q 1697 3084 1428 2787 
Q 1159 2491 1159 1978 
L 1159 0 
L 581 0 
L 581 4863 
L 1159 4863 
L 1159 2956 
Q 1366 3272 1645 3428 
Q 1925 3584 2291 3584 
Q 2894 3584 3203 3211 
Q 3513 2838 3513 2113 
z
" transform="scale(0.015625)"/>
      <path id="DejaVuSans-61" d="M 2194 1759 
Q 1497 1759 1228 1600 
Q 959 1441 959 1056 
Q 959 750 1161 570 
Q 1363 391 1709 391 
Q 2188 391 2477 730 
Q 2766 1069 2766 1631 
L 2766 1759 
L 2194 1759 
z
M 3341 1997 
L 3341 0 
L 2766 0 
L 2766 531 
Q 2569 213 2275 61 
Q 1981 -91 1556 -91 
Q 1019 -91 701 211 
Q 384 513 384 1019 
Q 384 1609 779 1909 
Q 1175 2209 1959 2209 
L 2766 2209 
L 2766 2266 
Q 2766 2663 2505 2880 
Q 2244 3097 1772 3097 
Q 1472 3097 1187 3025 
Q 903 2953 641 2809 
L 641 3341 
Q 956 3463 1253 3523 
Q 1550 3584 1831 3584 
Q 2591 3584 2966 3190 
Q 3341 2797 3341 1997 
z
" transform="scale(0.015625)"/>
      <path id="DejaVuSans-6e" d="M 3513 2113 
L 3513 0 
L 2938 0 
L 2938 2094 
Q 2938 2591 2744 2837 
Q 2550 3084 2163 3084 
Q 1697 3084 1428 2787 
Q 1159 2491 1159 1978 
L 1159 0 
L 581 0 
L 581 3500 
L 1159 3500 
L 1159 2956 
Q 1366 3272 1645 3428 
Q 1925 3584 2291 3584 
Q 2894 3584 3203 3211 
Q 3513 2838 3513 2113 
z
" transform="scale(0.015625)"/>
      <path id="DejaVuSans-66" d="M 2375 4863 
L 2375 4384 
L 1825 4384 
Q 1516 4384 1395 4259 
Q 1275 4134 1275 3809 
L 1275 3500 
L 2222 3500 
L 2222 3053 
L 1275 3053 
L 1275 0 
L 697 0 
L 697 3053 
L 147 3053 
L 147 3500 
L 697 3500 
L 697 3744 
Q 697 4328 969 4595 
Q 1241 4863 1831 4863 
L 2375 4863 
z
" transform="scale(0.015625)"/>
      <path id="DejaVuSans-6d" d="M 3328 2828 
Q 3544 3216 3844 3400 
Q 4144 3584 4550 3584 
Q 5097 3584 5394 3201 
Q 5691 2819 5691 2113 
L 5691 0 
L 5113 0 
L 5113 2094 
Q 5113 2597 4934 2840 
Q 4756 3084 4391 3084 
Q 3944 3084 3684 2787 
Q 3425 2491 3425 1978 
L 3425 0 
L 2847 0 
L 2847 2094 
Q 2847 2600 2669 2842 
Q 2491 3084 2119 3084 
Q 1678 3084 1418 2786 
Q 1159 2488 1159 1978 
L 1159 0 
L 581 0 
L 581 3500 
L 1159 3500 
L 1159 2956 
Q 1356 3278 1631 3431 
Q 1906 3584 2284 3584 
Q 2666 3584 2933 3390 
Q 3200 3197 3328 2828 
z
" transform="scale(0.015625)"/>
      <path id="DejaVuSans-78" d="M 3513 3500 
L 2247 1797 
L 3578 0 
L 2900 0 
L 1881 1375 
L 863 0 
L 184 0 
L 1544 1831 
L 300 3500 
L 978 3500 
L 1906 2253 
L 2834 3500 
L 3513 3500 
z
" transform="scale(0.015625)"/>
      <path id="DejaVuSans-64" d="M 2906 2969 
L 2906 4863 
L 3481 4863 
L 3481 0 
L 2906 0 
L 2906 525 
Q 2725 213 2448 61 
Q 2172 -91 1784 -91 
Q 1150 -91 751 415 
Q 353 922 353 1747 
Q 353 2572 751 3078 
Q 1150 3584 1784 3584 
Q 2172 3584 2448 3432 
Q 2725 3281 2906 2969 
z
M 947 1747 
Q 947 1113 1208 752 
Q 1469 391 1925 391 
Q 2381 391 2643 752 
Q 2906 1113 2906 1747 
Q 2906 2381 2643 2742 
Q 2381 3103 1925 3103 
Q 1469 3103 1208 2742 
Q 947 2381 947 1747 
z
" transform="scale(0.015625)"/>
     </defs>
     <use xlink:href="#DejaVuSans-4d"/>
     <use xlink:href="#DejaVuSans-43" x="86.279297"/>
     <use xlink:href="#DejaVuSans-4d" x="156.103516"/>
     <use xlink:href="#DejaVuSans-43" x="242.382812"/>
     <use xlink:href="#DejaVuSans-20" x="312.207031"/>
     <use xlink:href="#DejaVuSans-72" x="343.994141"/>
     <use xlink:href="#DejaVuSans-65" x="382.857422"/>
     <use xlink:href="#DejaVuSans-73" x="444.380859"/>
     <use xlink:href="#DejaVuSans-75" x="496.480469"/>
     <use xlink:href="#DejaVuSans-6c" x="559.859375"/>
     <use xlink:href="#DejaVuSans-74" x="587.642578"/>
     <use xlink:href="#DejaVuSans-73" x="626.851562"/>
     <use xlink:href="#DejaVuSans-20" x="678.951172"/>
     <use xlink:href="#DejaVuSans-77" x="710.738281"/>
     <use xlink:href="#DejaVuSans-69" x="792.525391"/>
     <use xlink:href="#DejaVuSans-74" x="820.308594"/>
     <use xlink:href="#DejaVuSans-68" x="859.517578"/>
     <use xlink:href="#DejaVuSans-20" x="922.896484"/>
     <use xlink:href="#DejaVuSans-74" x="954.683594"/>
     <use xlink:href="#DejaVuSans-68" x="993.892578"/>
     <use xlink:href="#DejaVuSans-65" x="1057.271484"/>
     <use xlink:href="#DejaVuSans-20" x="1118.794922"/>
     <use xlink:href="#DejaVuSans-72" x="1150.582031"/>
     <use xlink:href="#DejaVuSans-61" x="1191.695312"/>
     <use xlink:href="#DejaVuSans-6e" x="1252.974609"/>
     <use xlink:href="#DejaVuSans-67" x="1316.353516"/>
     <use xlink:href="#DejaVuSans-65" x="1379.830078"/>
     <use xlink:href="#DejaVuSans-20" x="1441.353516"/>
     <use xlink:href="#DejaVuSans-66" x="1473.140625"/>
     <use xlink:href="#DejaVuSans-72" x="1508.345703"/>
     <use xlink:href="#DejaVuSans-6f" x="1547.208984"/>
     <use xlink:href="#DejaVuSans-6d" x="1608.390625"/>
     <use xlink:href="#DejaVuSans-20" x="1705.802734"/>
     <use xlink:href="#DejaVuSans-65" x="1737.589844"/>
     <use xlink:href="#DejaVuSans-78" x="1797.363281"/>
     <use xlink:href="#DejaVuSans-74" x="1856.542969"/>
     <use xlink:href="#DejaVuSans-72" x="1895.751953"/>
     <use xlink:href="#DejaVuSans-65" x="1934.615234"/>
     <use xlink:href="#DejaVuSans-6d" x="1996.138672"/>
     <use xlink:href="#DejaVuSans-65" x="2093.550781"/>
     <use xlink:href="#DejaVuSans-20" x="2155.074219"/>
     <use xlink:href="#DejaVuSans-6d" x="2186.861328"/>
     <use xlink:href="#DejaVuSans-6f" x="2284.273438"/>
     <use xlink:href="#DejaVuSans-64" x="2345.455078"/>
     <use xlink:href="#DejaVuSans-65" x="2408.931641"/>
     <use xlink:href="#DejaVuSans-6c" x="2470.455078"/>
     <use xlink:href="#DejaVuSans-73" x="2498.238281"/>
     <use xlink:href="#DejaVuSans-20" x="2550.337891"/>
     <use xlink:href="#DejaVuSans-77" x="2582.125"/>
     <use xlink:href="#DejaVuSans-69" x="2663.912109"/>
     <use xlink:href="#DejaVuSans-74" x="2691.695312"/>
     <use xlink:href="#DejaVuSans-68" x="2730.904297"/>
     <use xlink:href="#DejaVuSans-69" x="2794.283203"/>
     <use xlink:href="#DejaVuSans-6e" x="2822.066406"/>
     <use xlink:href="#DejaVuSans-20" x="2885.445312"/>
     <use xlink:href="#DejaVuSans-31" x="2917.232422"/>
     <use xlink:href="#DejaVuSans-20" x="2980.855469"/>
     <use xlink:href="#DejaVuSans-73" x="3012.642578"/>
     <use xlink:href="#DejaVuSans-69" x="3064.742188"/>
     <use xlink:href="#DejaVuSans-67" x="3092.525391"/>
     <use xlink:href="#DejaVuSans-6d" x="3156.001953"/>
     <use xlink:href="#DejaVuSans-61" x="3253.414062"/>
    </g>
   </g>
   <g id="legend_1">
    <g id="patch_7">
     <path d="M 182.79125 302.584 
L 289.52875 302.584 
Q 291.52875 302.584 291.52875 300.584 
L 291.52875 257.549625 
Q 291.52875 255.549625 289.52875 255.549625 
L 182.79125 255.549625 
Q 180.79125 255.549625 180.79125 257.549625 
L 180.79125 300.584 
Q 180.79125 302.584 182.79125 302.584 
z
" style="fill: #ffffff; opacity: 0.8; stroke: #cccccc; stroke-linejoin: miter"/>
    </g>
    <g id="patch_8">
     <path d="M 184.79125 267.148062 
L 204.79125 267.148062 
L 204.79125 260.148062 
L 184.79125 260.148062 
z
" style="fill: #1f77b4; fill-opacity: 0.5"/>
    </g>
    <g id="text_14">
     <!-- Within 1 sigma -->
     <g transform="translate(212.79125 267.148062)scale(0.1 -0.1)">
      <defs>
       <path id="DejaVuSans-57" d="M 213 4666 
L 850 4666 
L 1831 722 
L 2809 4666 
L 3519 4666 
L 4500 722 
L 5478 4666 
L 6119 4666 
L 4947 0 
L 4153 0 
L 3169 4050 
L 2175 0 
L 1381 0 
L 213 4666 
z
" transform="scale(0.015625)"/>
      </defs>
      <use xlink:href="#DejaVuSans-57"/>
      <use xlink:href="#DejaVuSans-69" x="96.626953"/>
      <use xlink:href="#DejaVuSans-74" x="124.410156"/>
      <use xlink:href="#DejaVuSans-68" x="163.619141"/>
      <use xlink:href="#DejaVuSans-69" x="226.998047"/>
      <use xlink:href="#DejaVuSans-6e" x="254.78125"/>
      <use xlink:href="#DejaVuSans-20" x="318.160156"/>
      <use xlink:href="#DejaVuSans-31" x="349.947266"/>
      <use xlink:href="#DejaVuSans-20" x="413.570312"/>
      <use xlink:href="#DejaVuSans-73" x="445.357422"/>
      <use xlink:href="#DejaVuSans-69" x="497.457031"/>
      <use xlink:href="#DejaVuSans-67" x="525.240234"/>
      <use xlink:href="#DejaVuSans-6d" x="588.716797"/>
      <use xlink:href="#DejaVuSans-61" x="686.128906"/>
     </g>
    </g>
    <g id="line2d_13">
     <path d="M 184.79125 278.326188 
L 194.79125 278.326188 
L 204.79125 278.326188 
" style="fill: none; stroke: #008000; stroke-width: 2; stroke-linecap: square"/>
    </g>
    <g id="text_15">
     <!-- Best model -->
     <g transform="translate(212.79125 281.826188)scale(0.1 -0.1)">
      <defs>
       <path id="DejaVuSans-42" d="M 1259 2228 
L 1259 519 
L 2272 519 
Q 2781 519 3026 730 
Q 3272 941 3272 1375 
Q 3272 1813 3026 2020 
Q 2781 2228 2272 2228 
L 1259 2228 
z
M 1259 4147 
L 1259 2741 
L 2194 2741 
Q 2656 2741 2882 2914 
Q 3109 3088 3109 3444 
Q 3109 3797 2882 3972 
Q 2656 4147 2194 4147 
L 1259 4147 
z
M 628 4666 
L 2241 4666 
Q 2963 4666 3353 4366 
Q 3744 4066 3744 3513 
Q 3744 3084 3544 2831 
Q 3344 2578 2956 2516 
Q 3422 2416 3680 2098 
Q 3938 1781 3938 1306 
Q 3938 681 3513 340 
Q 3088 0 2303 0 
L 628 0 
L 628 4666 
z
" transform="scale(0.015625)"/>
      </defs>
      <use xlink:href="#DejaVuSans-42"/>
      <use xlink:href="#DejaVuSans-65" x="68.603516"/>
      <use xlink:href="#DejaVuSans-73" x="130.126953"/>
      <use xlink:href="#DejaVuSans-74" x="182.226562"/>
      <use xlink:href="#DejaVuSans-20" x="221.435547"/>
      <use xlink:href="#DejaVuSans-6d" x="253.222656"/>
      <use xlink:href="#DejaVuSans-6f" x="350.634766"/>
      <use xlink:href="#DejaVuSans-64" x="411.816406"/>
      <use xlink:href="#DejaVuSans-65" x="475.292969"/>
      <use xlink:href="#DejaVuSans-6c" x="536.816406"/>
     </g>
    </g>
    <g id="LineCollection_2">
     <path d="M 194.79125 298.004312 
L 194.79125 288.004312 
" style="fill: none; stroke: #000000; stroke-width: 1.5"/>
    </g>
    <g id="line2d_14"/>
    <g id="line2d_15">
     <g>
      <use xlink:href="#mb6cb06505a" x="194.79125" y="293.004312" style="fill: #0000ff; stroke: #0000ff"/>
     </g>
    </g>
    <g id="text_16">
     <!-- Real data -->
     <g transform="translate(212.79125 296.504312)scale(0.1 -0.1)">
      <defs>
       <path id="DejaVuSans-52" d="M 2841 2188 
Q 3044 2119 3236 1894 
Q 3428 1669 3622 1275 
L 4263 0 
L 3584 0 
L 2988 1197 
Q 2756 1666 2539 1819 
Q 2322 1972 1947 1972 
L 1259 1972 
L 1259 0 
L 628 0 
L 628 4666 
L 2053 4666 
Q 2853 4666 3247 4331 
Q 3641 3997 3641 3322 
Q 3641 2881 3436 2590 
Q 3231 2300 2841 2188 
z
M 1259 4147 
L 1259 2491 
L 2053 2491 
Q 2509 2491 2742 2702 
Q 2975 2913 2975 3322 
Q 2975 3731 2742 3939 
Q 2509 4147 2053 4147 
L 1259 4147 
z
" transform="scale(0.015625)"/>
      </defs>
      <use xlink:href="#DejaVuSans-52"/>
      <use xlink:href="#DejaVuSans-65" x="64.982422"/>
      <use xlink:href="#DejaVuSans-61" x="126.505859"/>
      <use xlink:href="#DejaVuSans-6c" x="187.785156"/>
      <use xlink:href="#DejaVuSans-20" x="215.568359"/>
      <use xlink:href="#DejaVuSans-64" x="247.355469"/>
      <use xlink:href="#DejaVuSans-61" x="310.832031"/>
      <use xlink:href="#DejaVuSans-74" x="372.111328"/>
      <use xlink:href="#DejaVuSans-61" x="411.320312"/>
     </g>
    </g>
   </g>
  </g>
 </g>
 <defs>
  <clipPath id="p5f3a57da9c">
   <rect x="57.6" y="41.472" width="357.12" height="266.112"/>
  </clipPath>
 </defs>
</svg>
