<?xml version="1.0" encoding="utf-8" standalone="no"?>
<!DOCTYPE svg PUBLIC "-//W3C//DTD SVG 1.1//EN"
  "http://www.w3.org/Graphics/SVG/1.1/DTD/svg11.dtd">
<svg xmlns:xlink="http://www.w3.org/1999/xlink" width="460.8pt" height="345.6pt" viewBox="0 0 460.8 345.6" xmlns="http://www.w3.org/2000/svg" version="1.1">
 <metadata>
  <rdf:RDF xmlns:dc="http://purl.org/dc/elements/1.1/" xmlns:cc="http://creativecommons.org/ns#" xmlns:rdf="http://www.w3.org/1999/02/22-rdf-syntax-ns#">
   <cc:Work>
    <dc:type rdf:resource="http://purl.org/dc/dcmitype/StillImage"/>
    <dc:date>2022-06-09T18:29:41.609278</dc:date>
    <dc:format>image/svg+xml</dc:format>
    <dc:creator>
     <cc:Agent>
      <dc:title>Matplotlib v3.5.0, https://matplotlib.org/</dc:title>
     </cc:Agent>
    </dc:creator>
   </cc:Work>
  </rdf:RDF>
 </metadata>
 <defs>
  <style type="text/css">*{stroke-linejoin: round; stroke-linecap: butt}</style>
 </defs>
 <g id="figure_1">
  <g id="patch_1">
   <path d="M 0 345.6 
L 460.8 345.6 
L 460.8 0 
L 0 0 
z
" style="fill: #ffffff"/>
  </g>
  <g id="axes_1">
   <g id="patch_2">
    <path d="M 57.6 307.584 
L 414.72 307.584 
L 414.72 41.472 
L 57.6 41.472 
z
" style="fill: #ffffff"/>
   </g>
   <g id="PolyCollection_1">
    <path d="M 73.832727 457.343821 
L 73.832727 638.580596 
L 77.323638 598.11815 
L 80.814548 557.670748 
L 84.305459 517.232264 
L 87.796369 476.799151 
L 91.28728 439.339384 
L 94.77819 406.102248 
L 98.269084 380.761138 
L 101.759995 366.25538 
L 105.250905 351.789347 
L 108.741816 337.340061 
L 112.232726 322.898076 
L 115.723637 308.459366 
L 119.214547 294.021729 
L 122.705458 279.586615 
L 126.196368 265.153058 
L 129.687279 250.722024 
L 133.178189 236.295177 
L 136.6691 221.875094 
L 140.159994 207.466123 
L 143.650905 193.07551 
L 147.141815 178.714851 
L 150.632726 164.403364 
L 154.123636 150.172128 
L 157.614547 136.072088 
L 161.105457 122.185213 
L 164.596367 108.642913 
L 168.087278 95.651966 
L 171.578188 83.527529 
L 175.069099 72.724276 
L 178.560009 63.827969 
L 182.050904 58.301233 
L 185.541814 54.729437 
L 189.032725 53.114475 
L 192.523635 53.539512 
L 196.014546 55.961931 
L 199.505456 59.796791 
L 202.996367 63.932304 
L 206.487277 68.301572 
L 209.978188 72.675263 
L 213.469098 77.346602 
L 216.960009 82.115426 
L 220.450919 86.852313 
L 223.94183 91.540837 
L 227.432724 96.156464 
L 230.923634 100.662674 
L 234.414545 105.787402 
L 237.905455 112.911714 
L 241.396366 127.107125 
L 244.887276 147.154309 
L 248.378187 181.10338 
L 251.869097 235.620557 
L 255.360008 281.566567 
L 258.850918 279.89125 
L 262.341829 265.670368 
L 265.832739 251.3831 
L 269.323633 237.141719 
L 272.814544 222.962983 
L 276.305454 208.871263 
L 279.796365 194.892541 
L 283.287275 181.066916 
L 286.778186 167.443451 
L 290.269096 154.082323 
L 293.760007 141.058523 
L 297.250917 128.463845 
L 300.741828 116.404522 
L 304.232738 105.012287 
L 307.723649 94.446356 
L 311.214559 84.871903 
L 314.705453 76.448629 
L 318.196364 70.297113 
L 321.687274 66.505391 
L 325.178185 63.944349 
L 328.669095 61.652084 
L 332.160006 59.675837 
L 335.650916 58.519881 
L 339.141827 57.942118 
L 342.632737 57.65278 
L 346.123648 57.714405 
L 349.614558 58.456055 
L 353.105469 60.875381 
L 356.596363 64.212107 
L 360.087274 69.193066 
L 363.578184 77.851568 
L 367.069095 94.357568 
L 370.560005 122.082308 
L 374.050916 158.986787 
L 377.541826 195.987247 
L 381.032737 227.328066 
L 384.523647 261.662055 
L 388.014557 325.020603 
L 391.505468 463.048608 
L 394.996378 839.737451 
L 398.487273 2102.866163 
L 398.487273 1217.629019 
L 398.487273 1217.629019 
L 394.996378 783.804042 
L 391.505468 433.992753 
L 388.014557 306.103758 
L 384.523647 245.382426 
L 381.032737 212.836158 
L 377.541826 183.882833 
L 374.050916 148.610777 
L 370.560005 113.31521 
L 367.069095 86.681526 
L 363.578184 71.132542 
L 360.087274 62.94149 
L 356.596363 58.322927 
L 353.105469 55.590161 
L 349.614558 54.049746 
L 346.123648 52.719328 
L 342.632737 51.763869 
L 339.141827 51.466372 
L 335.650916 51.909826 
L 332.160006 53.207069 
L 328.669095 55.483927 
L 325.178185 58.138911 
L 321.687274 61.00604 
L 318.196364 64.045 
L 314.705453 65.983402 
L 311.214559 67.691784 
L 307.723649 69.498186 
L 304.232738 71.39198 
L 300.741828 73.368603 
L 297.250917 75.426767 
L 293.760007 77.564324 
L 290.269096 79.775853 
L 286.778186 82.067044 
L 283.287275 84.450458 
L 279.796365 86.959001 
L 276.305454 89.605825 
L 272.814544 92.385669 
L 269.323633 95.274968 
L 265.832739 98.238936 
L 262.341829 101.245581 
L 258.850918 104.274824 
L 255.360008 107.316146 
L 251.869097 110.360623 
L 248.378187 113.399148 
L 244.887276 116.155652 
L 241.396366 112.87125 
L 237.905455 108.529634 
L 234.414545 102.662703 
L 230.923634 95.989088 
L 227.432724 88.732089 
L 223.94183 81.192791 
L 220.450919 74.60325 
L 216.960009 69.386207 
L 213.469098 65.470323 
L 209.978188 62.518272 
L 206.487277 60.184191 
L 202.996367 57.910769 
L 199.505456 56.158691 
L 196.014546 54.717048 
L 192.523635 52.964093 
L 189.032725 51.447678 
L 185.541814 50.580268 
L 182.050904 51.36089 
L 178.560009 52.359562 
L 175.069099 55.164958 
L 171.578188 59.816778 
L 168.087278 62.570791 
L 164.596367 65.438832 
L 161.105457 68.377594 
L 157.614547 71.360009 
L 154.123636 74.36925 
L 150.632726 77.395018 
L 147.141815 80.430898 
L 143.650905 83.473037 
L 140.159994 86.519034 
L 136.6691 89.567319 
L 133.178189 92.617034 
L 129.687279 95.667584 
L 126.196368 98.722258 
L 122.705458 101.786991 
L 119.214547 104.9056 
L 115.723637 108.29125 
L 112.232726 112.978959 
L 108.741816 123.455974 
L 105.250905 150.401467 
L 101.759995 189.541432 
L 98.269084 229.915012 
L 94.77819 270.338086 
L 91.28728 307.872531 
L 87.796369 342.134051 
L 84.305459 376.550869 
L 80.814548 411.058193 
L 77.323638 437.799452 
L 73.832727 457.343821 
z
" clip-path="url(#p6911d1951a)" style="fill: #1f77b4; fill-opacity: 0.5"/>
   </g>
   <g id="matplotlib.axis_1">
    <g id="xtick_1">
     <g id="line2d_1">
      <defs>
       <path id="mdc25213f7f" d="M 0 0 
L 0 3.5 
" style="stroke: #000000; stroke-width: 0.8"/>
      </defs>
      <g>
       <use xlink:href="#mdc25213f7f" x="70.604525" y="307.584" style="stroke: #000000; stroke-width: 0.8"/>
      </g>
     </g>
     <g id="text_1">
      <!-- 7.5 -->
      <g transform="translate(62.652962 322.182437)scale(0.1 -0.1)">
       <defs>
        <path id="DejaVuSans-37" d="M 525 4666 
L 3525 4666 
L 3525 4397 
L 1831 0 
L 1172 0 
L 2766 4134 
L 525 4134 
L 525 4666 
z
" transform="scale(0.015625)"/>
        <path id="DejaVuSans-2e" d="M 684 794 
L 1344 794 
L 1344 0 
L 684 0 
L 684 794 
z
" transform="scale(0.015625)"/>
        <path id="DejaVuSans-35" d="M 691 4666 
L 3169 4666 
L 3169 4134 
L 1269 4134 
L 1269 2991 
Q 1406 3038 1543 3061 
Q 1681 3084 1819 3084 
Q 2600 3084 3056 2656 
Q 3513 2228 3513 1497 
Q 3513 744 3044 326 
Q 2575 -91 1722 -91 
Q 1428 -91 1123 -41 
Q 819 9 494 109 
L 494 744 
Q 775 591 1075 516 
Q 1375 441 1709 441 
Q 2250 441 2565 725 
Q 2881 1009 2881 1497 
Q 2881 1984 2565 2268 
Q 2250 2553 1709 2553 
Q 1456 2553 1204 2497 
Q 953 2441 691 2322 
L 691 4666 
z
" transform="scale(0.015625)"/>
       </defs>
       <use xlink:href="#DejaVuSans-37"/>
       <use xlink:href="#DejaVuSans-2e" x="63.623047"/>
       <use xlink:href="#DejaVuSans-35" x="95.410156"/>
      </g>
     </g>
    </g>
    <g id="xtick_2">
     <g id="line2d_2">
      <g>
       <use xlink:href="#mdc25213f7f" x="111.165945" y="307.584" style="stroke: #000000; stroke-width: 0.8"/>
      </g>
     </g>
     <g id="text_2">
      <!-- 10.0 -->
      <g transform="translate(100.033132 322.182437)scale(0.1 -0.1)">
       <defs>
        <path id="DejaVuSans-31" d="M 794 531 
L 1825 531 
L 1825 4091 
L 703 3866 
L 703 4441 
L 1819 4666 
L 2450 4666 
L 2450 531 
L 3481 531 
L 3481 0 
L 794 0 
L 794 531 
z
" transform="scale(0.015625)"/>
        <path id="DejaVuSans-30" d="M 2034 4250 
Q 1547 4250 1301 3770 
Q 1056 3291 1056 2328 
Q 1056 1369 1301 889 
Q 1547 409 2034 409 
Q 2525 409 2770 889 
Q 3016 1369 3016 2328 
Q 3016 3291 2770 3770 
Q 2525 4250 2034 4250 
z
M 2034 4750 
Q 2819 4750 3233 4129 
Q 3647 3509 3647 2328 
Q 3647 1150 3233 529 
Q 2819 -91 2034 -91 
Q 1250 -91 836 529 
Q 422 1150 422 2328 
Q 422 3509 836 4129 
Q 1250 4750 2034 4750 
z
" transform="scale(0.015625)"/>
       </defs>
       <use xlink:href="#DejaVuSans-31"/>
       <use xlink:href="#DejaVuSans-30" x="63.623047"/>
       <use xlink:href="#DejaVuSans-2e" x="127.246094"/>
       <use xlink:href="#DejaVuSans-30" x="159.033203"/>
      </g>
     </g>
    </g>
    <g id="xtick_3">
     <g id="line2d_3">
      <g>
       <use xlink:href="#mdc25213f7f" x="151.727365" y="307.584" style="stroke: #000000; stroke-width: 0.8"/>
      </g>
     </g>
     <g id="text_3">
      <!-- 12.5 -->
      <g transform="translate(140.594552 322.182437)scale(0.1 -0.1)">
       <defs>
        <path id="DejaVuSans-32" d="M 1228 531 
L 3431 531 
L 3431 0 
L 469 0 
L 469 531 
Q 828 903 1448 1529 
Q 2069 2156 2228 2338 
Q 2531 2678 2651 2914 
Q 2772 3150 2772 3378 
Q 2772 3750 2511 3984 
Q 2250 4219 1831 4219 
Q 1534 4219 1204 4116 
Q 875 4013 500 3803 
L 500 4441 
Q 881 4594 1212 4672 
Q 1544 4750 1819 4750 
Q 2544 4750 2975 4387 
Q 3406 4025 3406 3419 
Q 3406 3131 3298 2873 
Q 3191 2616 2906 2266 
Q 2828 2175 2409 1742 
Q 1991 1309 1228 531 
z
" transform="scale(0.015625)"/>
       </defs>
       <use xlink:href="#DejaVuSans-31"/>
       <use xlink:href="#DejaVuSans-32" x="63.623047"/>
       <use xlink:href="#DejaVuSans-2e" x="127.246094"/>
       <use xlink:href="#DejaVuSans-35" x="159.033203"/>
      </g>
     </g>
    </g>
    <g id="xtick_4">
     <g id="line2d_4">
      <g>
       <use xlink:href="#mdc25213f7f" x="192.288785" y="307.584" style="stroke: #000000; stroke-width: 0.8"/>
      </g>
     </g>
     <g id="text_4">
      <!-- 15.0 -->
      <g transform="translate(181.155972 322.182437)scale(0.1 -0.1)">
       <use xlink:href="#DejaVuSans-31"/>
       <use xlink:href="#DejaVuSans-35" x="63.623047"/>
       <use xlink:href="#DejaVuSans-2e" x="127.246094"/>
       <use xlink:href="#DejaVuSans-30" x="159.033203"/>
      </g>
     </g>
    </g>
    <g id="xtick_5">
     <g id="line2d_5">
      <g>
       <use xlink:href="#mdc25213f7f" x="232.850204" y="307.584" style="stroke: #000000; stroke-width: 0.8"/>
      </g>
     </g>
     <g id="text_5">
      <!-- 17.5 -->
      <g transform="translate(221.717392 322.182437)scale(0.1 -0.1)">
       <use xlink:href="#DejaVuSans-31"/>
       <use xlink:href="#DejaVuSans-37" x="63.623047"/>
       <use xlink:href="#DejaVuSans-2e" x="127.246094"/>
       <use xlink:href="#DejaVuSans-35" x="159.033203"/>
      </g>
     </g>
    </g>
    <g id="xtick_6">
     <g id="line2d_6">
      <g>
       <use xlink:href="#mdc25213f7f" x="273.411624" y="307.584" style="stroke: #000000; stroke-width: 0.8"/>
      </g>
     </g>
     <g id="text_6">
      <!-- 20.0 -->
      <g transform="translate(262.278812 322.182437)scale(0.1 -0.1)">
       <use xlink:href="#DejaVuSans-32"/>
       <use xlink:href="#DejaVuSans-30" x="63.623047"/>
       <use xlink:href="#DejaVuSans-2e" x="127.246094"/>
       <use xlink:href="#DejaVuSans-30" x="159.033203"/>
      </g>
     </g>
    </g>
    <g id="xtick_7">
     <g id="line2d_7">
      <g>
       <use xlink:href="#mdc25213f7f" x="313.973044" y="307.584" style="stroke: #000000; stroke-width: 0.8"/>
      </g>
     </g>
     <g id="text_7">
      <!-- 22.5 -->
      <g transform="translate(302.840232 322.182437)scale(0.1 -0.1)">
       <use xlink:href="#DejaVuSans-32"/>
       <use xlink:href="#DejaVuSans-32" x="63.623047"/>
       <use xlink:href="#DejaVuSans-2e" x="127.246094"/>
       <use xlink:href="#DejaVuSans-35" x="159.033203"/>
      </g>
     </g>
    </g>
    <g id="xtick_8">
     <g id="line2d_8">
      <g>
       <use xlink:href="#mdc25213f7f" x="354.534464" y="307.584" style="stroke: #000000; stroke-width: 0.8"/>
      </g>
     </g>
     <g id="text_8">
      <!-- 25.0 -->
      <g transform="translate(343.401651 322.182437)scale(0.1 -0.1)">
       <use xlink:href="#DejaVuSans-32"/>
       <use xlink:href="#DejaVuSans-35" x="63.623047"/>
       <use xlink:href="#DejaVuSans-2e" x="127.246094"/>
       <use xlink:href="#DejaVuSans-30" x="159.033203"/>
      </g>
     </g>
    </g>
    <g id="xtick_9">
     <g id="line2d_9">
      <g>
       <use xlink:href="#mdc25213f7f" x="395.095884" y="307.584" style="stroke: #000000; stroke-width: 0.8"/>
      </g>
     </g>
     <g id="text_9">
      <!-- 27.5 -->
      <g transform="translate(383.963071 322.182437)scale(0.1 -0.1)">
       <use xlink:href="#DejaVuSans-32"/>
       <use xlink:href="#DejaVuSans-37" x="63.623047"/>
       <use xlink:href="#DejaVuSans-2e" x="127.246094"/>
       <use xlink:href="#DejaVuSans-35" x="159.033203"/>
      </g>
     </g>
    </g>
    <g id="text_10">
     <!-- log $\nu$ -->
     <g transform="translate(224.11 335.862125)scale(0.1 -0.1)">
      <defs>
       <path id="DejaVuSans-6c" d="M 603 4863 
L 1178 4863 
L 1178 0 
L 603 0 
L 603 4863 
z
" transform="scale(0.015625)"/>
       <path id="DejaVuSans-6f" d="M 1959 3097 
Q 1497 3097 1228 2736 
Q 959 2375 959 1747 
Q 959 1119 1226 758 
Q 1494 397 1959 397 
Q 2419 397 2687 759 
Q 2956 1122 2956 1747 
Q 2956 2369 2687 2733 
Q 2419 3097 1959 3097 
z
M 1959 3584 
Q 2709 3584 3137 3096 
Q 3566 2609 3566 1747 
Q 3566 888 3137 398 
Q 2709 -91 1959 -91 
Q 1206 -91 779 398 
Q 353 888 353 1747 
Q 353 2609 779 3096 
Q 1206 3584 1959 3584 
z
" transform="scale(0.015625)"/>
       <path id="DejaVuSans-67" d="M 2906 1791 
Q 2906 2416 2648 2759 
Q 2391 3103 1925 3103 
Q 1463 3103 1205 2759 
Q 947 2416 947 1791 
Q 947 1169 1205 825 
Q 1463 481 1925 481 
Q 2391 481 2648 825 
Q 2906 1169 2906 1791 
z
M 3481 434 
Q 3481 -459 3084 -895 
Q 2688 -1331 1869 -1331 
Q 1566 -1331 1297 -1286 
Q 1028 -1241 775 -1147 
L 775 -588 
Q 1028 -725 1275 -790 
Q 1522 -856 1778 -856 
Q 2344 -856 2625 -561 
Q 2906 -266 2906 331 
L 2906 616 
Q 2728 306 2450 153 
Q 2172 0 1784 0 
Q 1141 0 747 490 
Q 353 981 353 1791 
Q 353 2603 747 3093 
Q 1141 3584 1784 3584 
Q 2172 3584 2450 3431 
Q 2728 3278 2906 2969 
L 2906 3500 
L 3481 3500 
L 3481 434 
z
" transform="scale(0.015625)"/>
       <path id="DejaVuSans-20" transform="scale(0.015625)"/>
       <path id="DejaVuSans-Oblique-3bd" d="M 959 0 
L 572 3500 
L 1191 3500 
L 1522 563 
Q 1972 950 2391 1488 
Q 2706 1891 2788 2241 
Q 2825 2406 2809 2719 
Q 2794 3091 2544 3500 
L 3125 3500 
L 3125 3500 
Q 3288 3222 3353 2834 
Q 3416 2478 3369 2234 
Q 3250 1622 2719 1075 
Q 2025 363 1572 0 
L 959 0 
z
" transform="scale(0.015625)"/>
      </defs>
      <use xlink:href="#DejaVuSans-6c" transform="translate(0 0.015625)"/>
      <use xlink:href="#DejaVuSans-6f" transform="translate(27.783203 0.015625)"/>
      <use xlink:href="#DejaVuSans-67" transform="translate(88.964844 0.015625)"/>
      <use xlink:href="#DejaVuSans-20" transform="translate(152.441406 0.015625)"/>
      <use xlink:href="#DejaVuSans-Oblique-3bd" transform="translate(184.228516 0.015625)"/>
     </g>
    </g>
   </g>
   <g id="matplotlib.axis_2">
    <g id="ytick_1">
     <g id="line2d_10">
      <defs>
       <path id="mef88a60762" d="M 0 0 
L -3.5 0 
" style="stroke: #000000; stroke-width: 0.8"/>
      </defs>
      <g>
       <use xlink:href="#mef88a60762" x="57.6" y="305.365813" style="stroke: #000000; stroke-width: 0.8"/>
      </g>
     </g>
     <g id="text_11">
      <!-- −15 -->
      <g transform="translate(29.495313 309.165032)scale(0.1 -0.1)">
       <defs>
        <path id="DejaVuSans-2212" d="M 678 2272 
L 4684 2272 
L 4684 1741 
L 678 1741 
L 678 2272 
z
" transform="scale(0.015625)"/>
       </defs>
       <use xlink:href="#DejaVuSans-2212"/>
       <use xlink:href="#DejaVuSans-31" x="83.789062"/>
       <use xlink:href="#DejaVuSans-35" x="147.412109"/>
      </g>
     </g>
    </g>
    <g id="ytick_2">
     <g id="line2d_11">
      <g>
       <use xlink:href="#mef88a60762" x="57.6" y="251.685321" style="stroke: #000000; stroke-width: 0.8"/>
      </g>
     </g>
     <g id="text_12">
      <!-- −14 -->
      <g transform="translate(29.495313 255.484539)scale(0.1 -0.1)">
       <defs>
        <path id="DejaVuSans-34" d="M 2419 4116 
L 825 1625 
L 2419 1625 
L 2419 4116 
z
M 2253 4666 
L 3047 4666 
L 3047 1625 
L 3713 1625 
L 3713 1100 
L 3047 1100 
L 3047 0 
L 2419 0 
L 2419 1100 
L 313 1100 
L 313 1709 
L 2253 4666 
z
" transform="scale(0.015625)"/>
       </defs>
       <use xlink:href="#DejaVuSans-2212"/>
       <use xlink:href="#DejaVuSans-31" x="83.789062"/>
       <use xlink:href="#DejaVuSans-34" x="147.412109"/>
      </g>
     </g>
    </g>
    <g id="ytick_3">
     <g id="line2d_12">
      <g>
       <use xlink:href="#mef88a60762" x="57.6" y="198.004829" style="stroke: #000000; stroke-width: 0.8"/>
      </g>
     </g>
     <g id="text_13">
      <!-- −13 -->
      <g transform="translate(29.495313 201.804047)scale(0.1 -0.1)">
       <defs>
        <path id="DejaVuSans-33" d="M 2597 2516 
Q 3050 2419 3304 2112 
Q 3559 1806 3559 1356 
Q 3559 666 3084 287 
Q 2609 -91 1734 -91 
Q 1441 -91 1130 -33 
Q 819 25 488 141 
L 488 750 
Q 750 597 1062 519 
Q 1375 441 1716 441 
Q 2309 441 2620 675 
Q 2931 909 2931 1356 
Q 2931 1769 2642 2001 
Q 2353 2234 1838 2234 
L 1294 2234 
L 1294 2753 
L 1863 2753 
Q 2328 2753 2575 2939 
Q 2822 3125 2822 3475 
Q 2822 3834 2567 4026 
Q 2313 4219 1838 4219 
Q 1578 4219 1281 4162 
Q 984 4106 628 3988 
L 628 4550 
Q 988 4650 1302 4700 
Q 1616 4750 1894 4750 
Q 2613 4750 3031 4423 
Q 3450 4097 3450 3541 
Q 3450 3153 3228 2886 
Q 3006 2619 2597 2516 
z
" transform="scale(0.015625)"/>
       </defs>
       <use xlink:href="#DejaVuSans-2212"/>
       <use xlink:href="#DejaVuSans-31" x="83.789062"/>
       <use xlink:href="#DejaVuSans-33" x="147.412109"/>
      </g>
     </g>
    </g>
    <g id="ytick_4">
     <g id="line2d_13">
      <g>
       <use xlink:href="#mef88a60762" x="57.6" y="144.324336" style="stroke: #000000; stroke-width: 0.8"/>
      </g>
     </g>
     <g id="text_14">
      <!-- −12 -->
      <g transform="translate(29.495313 148.123555)scale(0.1 -0.1)">
       <use xlink:href="#DejaVuSans-2212"/>
       <use xlink:href="#DejaVuSans-31" x="83.789062"/>
       <use xlink:href="#DejaVuSans-32" x="147.412109"/>
      </g>
     </g>
    </g>
    <g id="ytick_5">
     <g id="line2d_14">
      <g>
       <use xlink:href="#mef88a60762" x="57.6" y="90.643844" style="stroke: #000000; stroke-width: 0.8"/>
      </g>
     </g>
     <g id="text_15">
      <!-- −11 -->
      <g transform="translate(29.495313 94.443063)scale(0.1 -0.1)">
       <use xlink:href="#DejaVuSans-2212"/>
       <use xlink:href="#DejaVuSans-31" x="83.789062"/>
       <use xlink:href="#DejaVuSans-31" x="147.412109"/>
      </g>
     </g>
    </g>
    <g id="text_16">
     <!-- log $\nu F_{\nu}$ -->
     <g transform="translate(23.395312 191.528)rotate(-90)scale(0.1 -0.1)">
      <defs>
       <path id="DejaVuSans-Oblique-46" d="M 1081 4666 
L 3756 4666 
L 3653 4134 
L 1606 4134 
L 1338 2759 
L 3188 2759 
L 3084 2228 
L 1234 2228 
L 800 0 
L 172 0 
L 1081 4666 
z
" transform="scale(0.015625)"/>
      </defs>
      <use xlink:href="#DejaVuSans-6c" transform="translate(0 0.015625)"/>
      <use xlink:href="#DejaVuSans-6f" transform="translate(27.783203 0.015625)"/>
      <use xlink:href="#DejaVuSans-67" transform="translate(88.964844 0.015625)"/>
      <use xlink:href="#DejaVuSans-20" transform="translate(152.441406 0.015625)"/>
      <use xlink:href="#DejaVuSans-Oblique-3bd" transform="translate(184.228516 0.015625)"/>
      <use xlink:href="#DejaVuSans-Oblique-46" transform="translate(240.087891 0.015625)"/>
      <use xlink:href="#DejaVuSans-Oblique-3bd" transform="translate(297.607422 -16.390625)scale(0.7)"/>
     </g>
    </g>
   </g>
   <g id="line2d_15">
    <path d="M 92.095557 346.6 
L 94.77819 335.129337 
L 98.269084 320.485782 
L 101.759995 305.962901 
L 105.250905 291.491821 
L 108.741816 277.044093 
L 112.232726 262.608603 
L 115.723637 248.182454 
L 119.214547 233.765699 
L 122.705458 219.365746 
L 126.196368 204.989788 
L 129.687279 190.653124 
L 133.178189 176.380823 
L 136.6691 162.213414 
L 140.159994 148.216655 
L 143.650905 134.495385 
L 147.141815 121.214616 
L 150.632726 108.625038 
L 154.123636 97.08647 
L 157.614547 87.056753 
L 161.105457 78.975155 
L 164.596367 72.955156 
L 168.087278 68.464139 
L 171.578188 64.655615 
L 175.069099 61.141905 
L 178.560009 57.969119 
L 182.050904 55.310217 
L 185.541814 53.412451 
L 189.032725 52.593018 
L 192.523635 53.178082 
L 196.014546 55.325086 
L 199.505456 58.770568 
L 202.996367 62.867999 
L 206.487277 67.113371 
L 209.978188 71.37216 
L 213.469098 75.638723 
L 216.960009 79.922228 
L 220.450919 84.24278 
L 223.94183 88.64364 
L 227.432724 93.215876 
L 230.923634 98.146722 
L 234.414545 103.807076 
L 237.905455 110.901079 
L 241.396366 120.703055 
L 244.887276 135.403315 
L 248.378187 158.476433 
L 251.869097 192.995577 
L 255.360008 216.78768 
L 258.850918 207.107762 
L 262.341829 193.900892 
L 265.832739 181.021985 
L 269.323633 168.588563 
L 272.814544 156.698388 
L 276.305454 145.458874 
L 279.796365 134.971262 
L 283.287275 125.31339 
L 286.778186 116.506569 
L 290.269096 108.49964 
L 293.760007 101.190451 
L 297.250917 94.480174 
L 300.741828 88.305576 
L 304.232738 82.638043 
L 307.723649 77.488742 
L 311.214559 72.869965 
L 314.705453 68.805547 
L 318.196364 65.301928 
L 321.687274 62.339517 
L 325.178185 59.882722 
L 328.669095 57.896221 
L 332.160006 56.362623 
L 335.650916 55.287779 
L 339.141827 54.699924 
L 342.632737 54.636956 
L 346.123648 55.139728 
L 349.614558 56.268038 
L 353.105469 58.046688 
L 356.596363 60.847414 
L 360.087274 65.393883 
L 363.578184 73.511715 
L 367.069095 89.563524 
L 370.560005 116.927316 
L 374.050916 153.204647 
L 377.541826 188.725511 
L 381.032737 218.185365 
L 384.523647 251.153079 
L 388.014557 313.131555 
L 388.906144 346.6 
" clip-path="url(#p6911d1951a)" style="fill: none; stroke: #008000; stroke-width: 2; stroke-linecap: square"/>
   </g>
   <g id="LineCollection_1">
    <path d="M 188.053993 57.293219 
L 188.053993 53.789669 
" clip-path="url(#p6911d1951a)" style="fill: none; stroke: #000000; stroke-width: 1.5"/>
    <path d="M 189.598018 52.812469 
L 189.598018 51.795171 
" clip-path="url(#p6911d1951a)" style="fill: none; stroke: #000000; stroke-width: 1.5"/>
    <path d="M 191.268486 53.006515 
L 191.268486 51.874587 
" clip-path="url(#p6911d1951a)" style="fill: none; stroke: #000000; stroke-width: 1.5"/>
    <path d="M 193.292183 54.230421 
L 193.292183 53.253711 
" clip-path="url(#p6911d1951a)" style="fill: none; stroke: #000000; stroke-width: 1.5"/>
    <path d="M 195.39921 55.217178 
L 195.39921 54.222599 
" clip-path="url(#p6911d1951a)" style="fill: none; stroke: #000000; stroke-width: 1.5"/>
    <path d="M 229.208528 103.143032 
L 229.208528 95.992186 
" clip-path="url(#p6911d1951a)" style="fill: none; stroke: #000000; stroke-width: 1.5"/>
    <path d="M 230.098424 106.204887 
L 230.098424 98.269949 
" clip-path="url(#p6911d1951a)" style="fill: none; stroke: #000000; stroke-width: 1.5"/>
    <path d="M 230.816894 99.87608 
L 230.816894 93.386823 
" clip-path="url(#p6911d1951a)" style="fill: none; stroke: #000000; stroke-width: 1.5"/>
    <path d="M 231.566476 101.227377 
L 231.566476 95.075008 
" clip-path="url(#p6911d1951a)" style="fill: none; stroke: #000000; stroke-width: 1.5"/>
    <path d="M 232.243929 96.346765 
L 232.243929 90.296744 
" clip-path="url(#p6911d1951a)" style="fill: none; stroke: #000000; stroke-width: 1.5"/>
    <path d="M 232.888766 102.603361 
L 232.888766 96.278385 
" clip-path="url(#p6911d1951a)" style="fill: none; stroke: #000000; stroke-width: 1.5"/>
    <path d="M 233.769119 109.794079 
L 233.769119 103.822339 
" clip-path="url(#p6911d1951a)" style="fill: none; stroke: #000000; stroke-width: 1.5"/>
    <path d="M 234.780594 106.087029 
L 234.780594 100.105837 
" clip-path="url(#p6911d1951a)" style="fill: none; stroke: #000000; stroke-width: 1.5"/>
    <path d="M 236.000112 106.878004 
L 236.000112 100.772986 
" clip-path="url(#p6911d1951a)" style="fill: none; stroke: #000000; stroke-width: 1.5"/>
    <path d="M 238.676806 117.508267 
L 238.676806 111.424112 
" clip-path="url(#p6911d1951a)" style="fill: none; stroke: #000000; stroke-width: 1.5"/>
    <path d="M 241.374926 127.161046 
L 241.374926 116.546838 
" clip-path="url(#p6911d1951a)" style="fill: none; stroke: #000000; stroke-width: 1.5"/>
    <path d="M 315.95263 77.018531 
L 315.95263 68.135897 
" clip-path="url(#p6911d1951a)" style="fill: none; stroke: #000000; stroke-width: 1.5"/>
    <path d="M 324.064914 59.557615 
L 324.064914 55.548012 
" clip-path="url(#p6911d1951a)" style="fill: none; stroke: #000000; stroke-width: 1.5"/>
    <path d="M 332.177197 61.834347 
L 332.177197 56.536161 
" clip-path="url(#p6911d1951a)" style="fill: none; stroke: #000000; stroke-width: 1.5"/>
    <path d="M 340.289481 63.309602 
L 340.289481 55.527326 
" clip-path="url(#p6911d1951a)" style="fill: none; stroke: #000000; stroke-width: 1.5"/>
    <path d="M 348.401765 69.563679 
L 348.401765 54.220644 
" clip-path="url(#p6911d1951a)" style="fill: none; stroke: #000000; stroke-width: 1.5"/>
    <path d="M 356.514049 77.070569 
L 356.514049 51.371799 
" clip-path="url(#p6911d1951a)" style="fill: none; stroke: #000000; stroke-width: 1.5"/>
    <path d="M 363.603394 70.954034 
L 363.603394 62.024826 
" clip-path="url(#p6911d1951a)" style="fill: none; stroke: #000000; stroke-width: 1.5"/>
    <path d="M 364.415529 79.353843 
L 364.415529 70.069365 
" clip-path="url(#p6911d1951a)" style="fill: none; stroke: #000000; stroke-width: 1.5"/>
    <path d="M 365.226335 82.436119 
L 365.226335 73.817943 
" clip-path="url(#p6911d1951a)" style="fill: none; stroke: #000000; stroke-width: 1.5"/>
    <path d="M 366.03381 80.623099 
L 366.03381 65.478952 
" clip-path="url(#p6911d1951a)" style="fill: none; stroke: #000000; stroke-width: 1.5"/>
    <path d="M 366.844834 106.387378 
L 366.844834 87.487137 
" clip-path="url(#p6911d1951a)" style="fill: none; stroke: #000000; stroke-width: 1.5"/>
    <path d="M 367.654607 99.772389 
L 367.654607 86.046256 
" clip-path="url(#p6911d1951a)" style="fill: none; stroke: #000000; stroke-width: 1.5"/>
    <path d="M 368.466276 106.849956 
L 368.466276 91.913389 
" clip-path="url(#p6911d1951a)" style="fill: none; stroke: #000000; stroke-width: 1.5"/>
    <path d="M 369.645194 133.077467 
L 369.645194 113.078889 
" clip-path="url(#p6911d1951a)" style="fill: none; stroke: #000000; stroke-width: 1.5"/>
   </g>
   <g id="line2d_16">
    <defs>
     <path id="m1f62e083dc" d="M 0 1.5 
C 0.397805 1.5 0.77937 1.341951 1.06066 1.06066 
C 1.341951 0.77937 1.5 0.397805 1.5 0 
C 1.5 -0.397805 1.341951 -0.77937 1.06066 -1.06066 
C 0.77937 -1.341951 0.397805 -1.5 0 -1.5 
C -0.397805 -1.5 -0.77937 -1.341951 -1.06066 -1.06066 
C -1.341951 -0.77937 -1.5 -0.397805 -1.5 0 
C -1.5 0.397805 -1.341951 0.77937 -1.06066 1.06066 
C -0.77937 1.341951 -0.397805 1.5 0 1.5 
z
" style="stroke: #0000ff"/>
    </defs>
    <g clip-path="url(#p6911d1951a)">
     <use xlink:href="#m1f62e083dc" x="188.053993" y="55.475691" style="fill: #0000ff; stroke: #0000ff"/>
     <use xlink:href="#m1f62e083dc" x="189.598018" y="52.298271" style="fill: #0000ff; stroke: #0000ff"/>
     <use xlink:href="#m1f62e083dc" x="191.268486" y="52.433682" style="fill: #0000ff; stroke: #0000ff"/>
     <use xlink:href="#m1f62e083dc" x="193.292183" y="53.736951" style="fill: #0000ff; stroke: #0000ff"/>
     <use xlink:href="#m1f62e083dc" x="195.39921" y="54.714585" style="fill: #0000ff; stroke: #0000ff"/>
     <use xlink:href="#m1f62e083dc" x="229.208528" y="99.294505" style="fill: #0000ff; stroke: #0000ff"/>
     <use xlink:href="#m1f62e083dc" x="230.098424" y="101.90144" style="fill: #0000ff; stroke: #0000ff"/>
     <use xlink:href="#m1f62e083dc" x="230.816894" y="96.40639" style="fill: #0000ff; stroke: #0000ff"/>
     <use xlink:href="#m1f62e083dc" x="231.566476" y="97.948827" style="fill: #0000ff; stroke: #0000ff"/>
     <use xlink:href="#m1f62e083dc" x="232.243929" y="93.126047" style="fill: #0000ff; stroke: #0000ff"/>
     <use xlink:href="#m1f62e083dc" x="232.888766" y="99.227028" style="fill: #0000ff; stroke: #0000ff"/>
     <use xlink:href="#m1f62e083dc" x="233.769119" y="106.61752" style="fill: #0000ff; stroke: #0000ff"/>
     <use xlink:href="#m1f62e083dc" x="234.780594" y="102.905141" style="fill: #0000ff; stroke: #0000ff"/>
     <use xlink:href="#m1f62e083dc" x="236.000112" y="103.626223" style="fill: #0000ff; stroke: #0000ff"/>
     <use xlink:href="#m1f62e083dc" x="238.676806" y="114.268273" style="fill: #0000ff; stroke: #0000ff"/>
     <use xlink:href="#m1f62e083dc" x="241.374926" y="121.255023" style="fill: #0000ff; stroke: #0000ff"/>
     <use xlink:href="#m1f62e083dc" x="315.95263" y="72.156698" style="fill: #0000ff; stroke: #0000ff"/>
     <use xlink:href="#m1f62e083dc" x="324.064914" y="57.466718" style="fill: #0000ff; stroke: #0000ff"/>
     <use xlink:href="#m1f62e083dc" x="332.177197" y="59.035068" style="fill: #0000ff; stroke: #0000ff"/>
     <use xlink:href="#m1f62e083dc" x="340.289481" y="59.095231" style="fill: #0000ff; stroke: #0000ff"/>
     <use xlink:href="#m1f62e083dc" x="348.401765" y="60.652093" style="fill: #0000ff; stroke: #0000ff"/>
     <use xlink:href="#m1f62e083dc" x="356.514049" y="60.846101" style="fill: #0000ff; stroke: #0000ff"/>
     <use xlink:href="#m1f62e083dc" x="363.603394" y="66.064519" style="fill: #0000ff; stroke: #0000ff"/>
     <use xlink:href="#m1f62e083dc" x="364.415529" y="74.252433" style="fill: #0000ff; stroke: #0000ff"/>
     <use xlink:href="#m1f62e083dc" x="365.226335" y="77.731042" style="fill: #0000ff; stroke: #0000ff"/>
     <use xlink:href="#m1f62e083dc" x="366.03381" y="71.842358" style="fill: #0000ff; stroke: #0000ff"/>
     <use xlink:href="#m1f62e083dc" x="366.844834" y="95.072189" style="fill: #0000ff; stroke: #0000ff"/>
     <use xlink:href="#m1f62e083dc" x="367.654607" y="91.913389" style="fill: #0000ff; stroke: #0000ff"/>
     <use xlink:href="#m1f62e083dc" x="368.466276" y="98.20537" style="fill: #0000ff; stroke: #0000ff"/>
     <use xlink:href="#m1f62e083dc" x="369.645194" y="120.996464" style="fill: #0000ff; stroke: #0000ff"/>
    </g>
   </g>
   <g id="patch_3">
    <path d="M 57.6 307.584 
L 57.6 41.472 
" style="fill: none; stroke: #000000; stroke-width: 0.8; stroke-linejoin: miter; stroke-linecap: square"/>
   </g>
   <g id="patch_4">
    <path d="M 414.72 307.584 
L 414.72 41.472 
" style="fill: none; stroke: #000000; stroke-width: 0.8; stroke-linejoin: miter; stroke-linecap: square"/>
   </g>
   <g id="patch_5">
    <path d="M 57.6 307.584 
L 414.72 307.584 
" style="fill: none; stroke: #000000; stroke-width: 0.8; stroke-linejoin: miter; stroke-linecap: square"/>
   </g>
   <g id="patch_6">
    <path d="M 57.6 41.472 
L 414.72 41.472 
" style="fill: none; stroke: #000000; stroke-width: 0.8; stroke-linejoin: miter; stroke-linecap: square"/>
   </g>
   <g id="text_17">
    <!-- MCMC results with the range from extreme models within 1 sigma -->
    <g transform="translate(37.283437 35.472)scale(0.12 -0.12)">
     <defs>
      <path id="DejaVuSans-4d" d="M 628 4666 
L 1569 4666 
L 2759 1491 
L 3956 4666 
L 4897 4666 
L 4897 0 
L 4281 0 
L 4281 4097 
L 3078 897 
L 2444 897 
L 1241 4097 
L 1241 0 
L 628 0 
L 628 4666 
z
" transform="scale(0.015625)"/>
      <path id="DejaVuSans-43" d="M 4122 4306 
L 4122 3641 
Q 3803 3938 3442 4084 
Q 3081 4231 2675 4231 
Q 1875 4231 1450 3742 
Q 1025 3253 1025 2328 
Q 1025 1406 1450 917 
Q 1875 428 2675 428 
Q 3081 428 3442 575 
Q 3803 722 4122 1019 
L 4122 359 
Q 3791 134 3420 21 
Q 3050 -91 2638 -91 
Q 1578 -91 968 557 
Q 359 1206 359 2328 
Q 359 3453 968 4101 
Q 1578 4750 2638 4750 
Q 3056 4750 3426 4639 
Q 3797 4528 4122 4306 
z
" transform="scale(0.015625)"/>
      <path id="DejaVuSans-72" d="M 2631 2963 
Q 2534 3019 2420 3045 
Q 2306 3072 2169 3072 
Q 1681 3072 1420 2755 
Q 1159 2438 1159 1844 
L 1159 0 
L 581 0 
L 581 3500 
L 1159 3500 
L 1159 2956 
Q 1341 3275 1631 3429 
Q 1922 3584 2338 3584 
Q 2397 3584 2469 3576 
Q 2541 3569 2628 3553 
L 2631 2963 
z
" transform="scale(0.015625)"/>
      <path id="DejaVuSans-65" d="M 3597 1894 
L 3597 1613 
L 953 1613 
Q 991 1019 1311 708 
Q 1631 397 2203 397 
Q 2534 397 2845 478 
Q 3156 559 3463 722 
L 3463 178 
Q 3153 47 2828 -22 
Q 2503 -91 2169 -91 
Q 1331 -91 842 396 
Q 353 884 353 1716 
Q 353 2575 817 3079 
Q 1281 3584 2069 3584 
Q 2775 3584 3186 3129 
Q 3597 2675 3597 1894 
z
M 3022 2063 
Q 3016 2534 2758 2815 
Q 2500 3097 2075 3097 
Q 1594 3097 1305 2825 
Q 1016 2553 972 2059 
L 3022 2063 
z
" transform="scale(0.015625)"/>
      <path id="DejaVuSans-73" d="M 2834 3397 
L 2834 2853 
Q 2591 2978 2328 3040 
Q 2066 3103 1784 3103 
Q 1356 3103 1142 2972 
Q 928 2841 928 2578 
Q 928 2378 1081 2264 
Q 1234 2150 1697 2047 
L 1894 2003 
Q 2506 1872 2764 1633 
Q 3022 1394 3022 966 
Q 3022 478 2636 193 
Q 2250 -91 1575 -91 
Q 1294 -91 989 -36 
Q 684 19 347 128 
L 347 722 
Q 666 556 975 473 
Q 1284 391 1588 391 
Q 1994 391 2212 530 
Q 2431 669 2431 922 
Q 2431 1156 2273 1281 
Q 2116 1406 1581 1522 
L 1381 1569 
Q 847 1681 609 1914 
Q 372 2147 372 2553 
Q 372 3047 722 3315 
Q 1072 3584 1716 3584 
Q 2034 3584 2315 3537 
Q 2597 3491 2834 3397 
z
" transform="scale(0.015625)"/>
      <path id="DejaVuSans-75" d="M 544 1381 
L 544 3500 
L 1119 3500 
L 1119 1403 
Q 1119 906 1312 657 
Q 1506 409 1894 409 
Q 2359 409 2629 706 
Q 2900 1003 2900 1516 
L 2900 3500 
L 3475 3500 
L 3475 0 
L 2900 0 
L 2900 538 
Q 2691 219 2414 64 
Q 2138 -91 1772 -91 
Q 1169 -91 856 284 
Q 544 659 544 1381 
z
M 1991 3584 
L 1991 3584 
z
" transform="scale(0.015625)"/>
      <path id="DejaVuSans-74" d="M 1172 4494 
L 1172 3500 
L 2356 3500 
L 2356 3053 
L 1172 3053 
L 1172 1153 
Q 1172 725 1289 603 
Q 1406 481 1766 481 
L 2356 481 
L 2356 0 
L 1766 0 
Q 1100 0 847 248 
Q 594 497 594 1153 
L 594 3053 
L 172 3053 
L 172 3500 
L 594 3500 
L 594 4494 
L 1172 4494 
z
" transform="scale(0.015625)"/>
      <path id="DejaVuSans-77" d="M 269 3500 
L 844 3500 
L 1563 769 
L 2278 3500 
L 2956 3500 
L 3675 769 
L 4391 3500 
L 4966 3500 
L 4050 0 
L 3372 0 
L 2619 2869 
L 1863 0 
L 1184 0 
L 269 3500 
z
" transform="scale(0.015625)"/>
      <path id="DejaVuSans-69" d="M 603 3500 
L 1178 3500 
L 1178 0 
L 603 0 
L 603 3500 
z
M 603 4863 
L 1178 4863 
L 1178 4134 
L 603 4134 
L 603 4863 
z
" transform="scale(0.015625)"/>
      <path id="DejaVuSans-68" d="M 3513 2113 
L 3513 0 
L 2938 0 
L 2938 2094 
Q 2938 2591 2744 2837 
Q 2550 3084 2163 3084 
Q 1697 3084 1428 2787 
Q 1159 2491 1159 1978 
L 1159 0 
L 581 0 
L 581 4863 
L 1159 4863 
L 1159 2956 
Q 1366 3272 1645 3428 
Q 1925 3584 2291 3584 
Q 2894 3584 3203 3211 
Q 3513 2838 3513 2113 
z
" transform="scale(0.015625)"/>
      <path id="DejaVuSans-61" d="M 2194 1759 
Q 1497 1759 1228 1600 
Q 959 1441 959 1056 
Q 959 750 1161 570 
Q 1363 391 1709 391 
Q 2188 391 2477 730 
Q 2766 1069 2766 1631 
L 2766 1759 
L 2194 1759 
z
M 3341 1997 
L 3341 0 
L 2766 0 
L 2766 531 
Q 2569 213 2275 61 
Q 1981 -91 1556 -91 
Q 1019 -91 701 211 
Q 384 513 384 1019 
Q 384 1609 779 1909 
Q 1175 2209 1959 2209 
L 2766 2209 
L 2766 2266 
Q 2766 2663 2505 2880 
Q 2244 3097 1772 3097 
Q 1472 3097 1187 3025 
Q 903 2953 641 2809 
L 641 3341 
Q 956 3463 1253 3523 
Q 1550 3584 1831 3584 
Q 2591 3584 2966 3190 
Q 3341 2797 3341 1997 
z
" transform="scale(0.015625)"/>
      <path id="DejaVuSans-6e" d="M 3513 2113 
L 3513 0 
L 2938 0 
L 2938 2094 
Q 2938 2591 2744 2837 
Q 2550 3084 2163 3084 
Q 1697 3084 1428 2787 
Q 1159 2491 1159 1978 
L 1159 0 
L 581 0 
L 581 3500 
L 1159 3500 
L 1159 2956 
Q 1366 3272 1645 3428 
Q 1925 3584 2291 3584 
Q 2894 3584 3203 3211 
Q 3513 2838 3513 2113 
z
" transform="scale(0.015625)"/>
      <path id="DejaVuSans-66" d="M 2375 4863 
L 2375 4384 
L 1825 4384 
Q 1516 4384 1395 4259 
Q 1275 4134 1275 3809 
L 1275 3500 
L 2222 3500 
L 2222 3053 
L 1275 3053 
L 1275 0 
L 697 0 
L 697 3053 
L 147 3053 
L 147 3500 
L 697 3500 
L 697 3744 
Q 697 4328 969 4595 
Q 1241 4863 1831 4863 
L 2375 4863 
z
" transform="scale(0.015625)"/>
      <path id="DejaVuSans-6d" d="M 3328 2828 
Q 3544 3216 3844 3400 
Q 4144 3584 4550 3584 
Q 5097 3584 5394 3201 
Q 5691 2819 5691 2113 
L 5691 0 
L 5113 0 
L 5113 2094 
Q 5113 2597 4934 2840 
Q 4756 3084 4391 3084 
Q 3944 3084 3684 2787 
Q 3425 2491 3425 1978 
L 3425 0 
L 2847 0 
L 2847 2094 
Q 2847 2600 2669 2842 
Q 2491 3084 2119 3084 
Q 1678 3084 1418 2786 
Q 1159 2488 1159 1978 
L 1159 0 
L 581 0 
L 581 3500 
L 1159 3500 
L 1159 2956 
Q 1356 3278 1631 3431 
Q 1906 3584 2284 3584 
Q 2666 3584 2933 3390 
Q 3200 3197 3328 2828 
z
" transform="scale(0.015625)"/>
      <path id="DejaVuSans-78" d="M 3513 3500 
L 2247 1797 
L 3578 0 
L 2900 0 
L 1881 1375 
L 863 0 
L 184 0 
L 1544 1831 
L 300 3500 
L 978 3500 
L 1906 2253 
L 2834 3500 
L 3513 3500 
z
" transform="scale(0.015625)"/>
      <path id="DejaVuSans-64" d="M 2906 2969 
L 2906 4863 
L 3481 4863 
L 3481 0 
L 2906 0 
L 2906 525 
Q 2725 213 2448 61 
Q 2172 -91 1784 -91 
Q 1150 -91 751 415 
Q 353 922 353 1747 
Q 353 2572 751 3078 
Q 1150 3584 1784 3584 
Q 2172 3584 2448 3432 
Q 2725 3281 2906 2969 
z
M 947 1747 
Q 947 1113 1208 752 
Q 1469 391 1925 391 
Q 2381 391 2643 752 
Q 2906 1113 2906 1747 
Q 2906 2381 2643 2742 
Q 2381 3103 1925 3103 
Q 1469 3103 1208 2742 
Q 947 2381 947 1747 
z
" transform="scale(0.015625)"/>
     </defs>
     <use xlink:href="#DejaVuSans-4d"/>
     <use xlink:href="#DejaVuSans-43" x="86.279297"/>
     <use xlink:href="#DejaVuSans-4d" x="156.103516"/>
     <use xlink:href="#DejaVuSans-43" x="242.382812"/>
     <use xlink:href="#DejaVuSans-20" x="312.207031"/>
     <use xlink:href="#DejaVuSans-72" x="343.994141"/>
     <use xlink:href="#DejaVuSans-65" x="382.857422"/>
     <use xlink:href="#DejaVuSans-73" x="444.380859"/>
     <use xlink:href="#DejaVuSans-75" x="496.480469"/>
     <use xlink:href="#DejaVuSans-6c" x="559.859375"/>
     <use xlink:href="#DejaVuSans-74" x="587.642578"/>
     <use xlink:href="#DejaVuSans-73" x="626.851562"/>
     <use xlink:href="#DejaVuSans-20" x="678.951172"/>
     <use xlink:href="#DejaVuSans-77" x="710.738281"/>
     <use xlink:href="#DejaVuSans-69" x="792.525391"/>
     <use xlink:href="#DejaVuSans-74" x="820.308594"/>
     <use xlink:href="#DejaVuSans-68" x="859.517578"/>
     <use xlink:href="#DejaVuSans-20" x="922.896484"/>
     <use xlink:href="#DejaVuSans-74" x="954.683594"/>
     <use xlink:href="#DejaVuSans-68" x="993.892578"/>
     <use xlink:href="#DejaVuSans-65" x="1057.271484"/>
     <use xlink:href="#DejaVuSans-20" x="1118.794922"/>
     <use xlink:href="#DejaVuSans-72" x="1150.582031"/>
     <use xlink:href="#DejaVuSans-61" x="1191.695312"/>
     <use xlink:href="#DejaVuSans-6e" x="1252.974609"/>
     <use xlink:href="#DejaVuSans-67" x="1316.353516"/>
     <use xlink:href="#DejaVuSans-65" x="1379.830078"/>
     <use xlink:href="#DejaVuSans-20" x="1441.353516"/>
     <use xlink:href="#DejaVuSans-66" x="1473.140625"/>
     <use xlink:href="#DejaVuSans-72" x="1508.345703"/>
     <use xlink:href="#DejaVuSans-6f" x="1547.208984"/>
     <use xlink:href="#DejaVuSans-6d" x="1608.390625"/>
     <use xlink:href="#DejaVuSans-20" x="1705.802734"/>
     <use xlink:href="#DejaVuSans-65" x="1737.589844"/>
     <use xlink:href="#DejaVuSans-78" x="1797.363281"/>
     <use xlink:href="#DejaVuSans-74" x="1856.542969"/>
     <use xlink:href="#DejaVuSans-72" x="1895.751953"/>
     <use xlink:href="#DejaVuSans-65" x="1934.615234"/>
     <use xlink:href="#DejaVuSans-6d" x="1996.138672"/>
     <use xlink:href="#DejaVuSans-65" x="2093.550781"/>
     <use xlink:href="#DejaVuSans-20" x="2155.074219"/>
     <use xlink:href="#DejaVuSans-6d" x="2186.861328"/>
     <use xlink:href="#DejaVuSans-6f" x="2284.273438"/>
     <use xlink:href="#DejaVuSans-64" x="2345.455078"/>
     <use xlink:href="#DejaVuSans-65" x="2408.931641"/>
     <use xlink:href="#DejaVuSans-6c" x="2470.455078"/>
     <use xlink:href="#DejaVuSans-73" x="2498.238281"/>
     <use xlink:href="#DejaVuSans-20" x="2550.337891"/>
     <use xlink:href="#DejaVuSans-77" x="2582.125"/>
     <use xlink:href="#DejaVuSans-69" x="2663.912109"/>
     <use xlink:href="#DejaVuSans-74" x="2691.695312"/>
     <use xlink:href="#DejaVuSans-68" x="2730.904297"/>
     <use xlink:href="#DejaVuSans-69" x="2794.283203"/>
     <use xlink:href="#DejaVuSans-6e" x="2822.066406"/>
     <use xlink:href="#DejaVuSans-20" x="2885.445312"/>
     <use xlink:href="#DejaVuSans-31" x="2917.232422"/>
     <use xlink:href="#DejaVuSans-20" x="2980.855469"/>
     <use xlink:href="#DejaVuSans-73" x="3012.642578"/>
     <use xlink:href="#DejaVuSans-69" x="3064.742188"/>
     <use xlink:href="#DejaVuSans-67" x="3092.525391"/>
     <use xlink:href="#DejaVuSans-6d" x="3156.001953"/>
     <use xlink:href="#DejaVuSans-61" x="3253.414062"/>
    </g>
   </g>
   <g id="legend_1">
    <g id="patch_7">
     <path d="M 182.79125 302.584 
L 289.52875 302.584 
Q 291.52875 302.584 291.52875 300.584 
L 291.52875 257.549625 
Q 291.52875 255.549625 289.52875 255.549625 
L 182.79125 255.549625 
Q 180.79125 255.549625 180.79125 257.549625 
L 180.79125 300.584 
Q 180.79125 302.584 182.79125 302.584 
z
" style="fill: #ffffff; opacity: 0.8; stroke: #cccccc; stroke-linejoin: miter"/>
    </g>
    <g id="patch_8">
     <path d="M 184.79125 267.148062 
L 204.79125 267.148062 
L 204.79125 260.148062 
L 184.79125 260.148062 
z
" style="fill: #1f77b4; fill-opacity: 0.5"/>
    </g>
    <g id="text_18">
     <!-- Within 1 sigma -->
     <g transform="translate(212.79125 267.148062)scale(0.1 -0.1)">
      <defs>
       <path id="DejaVuSans-57" d="M 213 4666 
L 850 4666 
L 1831 722 
L 2809 4666 
L 3519 4666 
L 4500 722 
L 5478 4666 
L 6119 4666 
L 4947 0 
L 4153 0 
L 3169 4050 
L 2175 0 
L 1381 0 
L 213 4666 
z
" transform="scale(0.015625)"/>
      </defs>
      <use xlink:href="#DejaVuSans-57"/>
      <use xlink:href="#DejaVuSans-69" x="96.626953"/>
      <use xlink:href="#DejaVuSans-74" x="124.410156"/>
      <use xlink:href="#DejaVuSans-68" x="163.619141"/>
      <use xlink:href="#DejaVuSans-69" x="226.998047"/>
      <use xlink:href="#DejaVuSans-6e" x="254.78125"/>
      <use xlink:href="#DejaVuSans-20" x="318.160156"/>
      <use xlink:href="#DejaVuSans-31" x="349.947266"/>
      <use xlink:href="#DejaVuSans-20" x="413.570312"/>
      <use xlink:href="#DejaVuSans-73" x="445.357422"/>
      <use xlink:href="#DejaVuSans-69" x="497.457031"/>
      <use xlink:href="#DejaVuSans-67" x="525.240234"/>
      <use xlink:href="#DejaVuSans-6d" x="588.716797"/>
      <use xlink:href="#DejaVuSans-61" x="686.128906"/>
     </g>
    </g>
    <g id="line2d_17">
     <path d="M 184.79125 278.326188 
L 194.79125 278.326188 
L 204.79125 278.326188 
" style="fill: none; stroke: #008000; stroke-width: 2; stroke-linecap: square"/>
    </g>
    <g id="text_19">
     <!-- Best model -->
     <g transform="translate(212.79125 281.826188)scale(0.1 -0.1)">
      <defs>
       <path id="DejaVuSans-42" d="M 1259 2228 
L 1259 519 
L 2272 519 
Q 2781 519 3026 730 
Q 3272 941 3272 1375 
Q 3272 1813 3026 2020 
Q 2781 2228 2272 2228 
L 1259 2228 
z
M 1259 4147 
L 1259 2741 
L 2194 2741 
Q 2656 2741 2882 2914 
Q 3109 3088 3109 3444 
Q 3109 3797 2882 3972 
Q 2656 4147 2194 4147 
L 1259 4147 
z
M 628 4666 
L 2241 4666 
Q 2963 4666 3353 4366 
Q 3744 4066 3744 3513 
Q 3744 3084 3544 2831 
Q 3344 2578 2956 2516 
Q 3422 2416 3680 2098 
Q 3938 1781 3938 1306 
Q 3938 681 3513 340 
Q 3088 0 2303 0 
L 628 0 
L 628 4666 
z
" transform="scale(0.015625)"/>
      </defs>
      <use xlink:href="#DejaVuSans-42"/>
      <use xlink:href="#DejaVuSans-65" x="68.603516"/>
      <use xlink:href="#DejaVuSans-73" x="130.126953"/>
      <use xlink:href="#DejaVuSans-74" x="182.226562"/>
      <use xlink:href="#DejaVuSans-20" x="221.435547"/>
      <use xlink:href="#DejaVuSans-6d" x="253.222656"/>
      <use xlink:href="#DejaVuSans-6f" x="350.634766"/>
      <use xlink:href="#DejaVuSans-64" x="411.816406"/>
      <use xlink:href="#DejaVuSans-65" x="475.292969"/>
      <use xlink:href="#DejaVuSans-6c" x="536.816406"/>
     </g>
    </g>
    <g id="LineCollection_2">
     <path d="M 194.79125 298.004312 
L 194.79125 288.004312 
" style="fill: none; stroke: #000000; stroke-width: 1.5"/>
    </g>
    <g id="line2d_18"/>
    <g id="line2d_19">
     <g>
      <use xlink:href="#m1f62e083dc" x="194.79125" y="293.004312" style="fill: #0000ff; stroke: #0000ff"/>
     </g>
    </g>
    <g id="text_20">
     <!-- Real data -->
     <g transform="translate(212.79125 296.504312)scale(0.1 -0.1)">
      <defs>
       <path id="DejaVuSans-52" d="M 2841 2188 
Q 3044 2119 3236 1894 
Q 3428 1669 3622 1275 
L 4263 0 
L 3584 0 
L 2988 1197 
Q 2756 1666 2539 1819 
Q 2322 1972 1947 1972 
L 1259 1972 
L 1259 0 
L 628 0 
L 628 4666 
L 2053 4666 
Q 2853 4666 3247 4331 
Q 3641 3997 3641 3322 
Q 3641 2881 3436 2590 
Q 3231 2300 2841 2188 
z
M 1259 4147 
L 1259 2491 
L 2053 2491 
Q 2509 2491 2742 2702 
Q 2975 2913 2975 3322 
Q 2975 3731 2742 3939 
Q 2509 4147 2053 4147 
L 1259 4147 
z
" transform="scale(0.015625)"/>
      </defs>
      <use xlink:href="#DejaVuSans-52"/>
      <use xlink:href="#DejaVuSans-65" x="64.982422"/>
      <use xlink:href="#DejaVuSans-61" x="126.505859"/>
      <use xlink:href="#DejaVuSans-6c" x="187.785156"/>
      <use xlink:href="#DejaVuSans-20" x="215.568359"/>
      <use xlink:href="#DejaVuSans-64" x="247.355469"/>
      <use xlink:href="#DejaVuSans-61" x="310.832031"/>
      <use xlink:href="#DejaVuSans-74" x="372.111328"/>
      <use xlink:href="#DejaVuSans-61" x="411.320312"/>
     </g>
    </g>
   </g>
  </g>
 </g>
 <defs>
  <clipPath id="p6911d1951a">
   <rect x="57.6" y="41.472" width="357.12" height="266.112"/>
  </clipPath>
 </defs>
</svg>
