<?xml version="1.0" encoding="utf-8" standalone="no"?>
<!DOCTYPE svg PUBLIC "-//W3C//DTD SVG 1.1//EN"
  "http://www.w3.org/Graphics/SVG/1.1/DTD/svg11.dtd">
<svg xmlns:xlink="http://www.w3.org/1999/xlink" width="460.8pt" height="345.6pt" viewBox="0 0 460.8 345.6" xmlns="http://www.w3.org/2000/svg" version="1.1">
 <metadata>
  <rdf:RDF xmlns:dc="http://purl.org/dc/elements/1.1/" xmlns:cc="http://creativecommons.org/ns#" xmlns:rdf="http://www.w3.org/1999/02/22-rdf-syntax-ns#">
   <cc:Work>
    <dc:type rdf:resource="http://purl.org/dc/dcmitype/StillImage"/>
    <dc:date>2022-07-23T13:41:05.895202</dc:date>
    <dc:format>image/svg+xml</dc:format>
    <dc:creator>
     <cc:Agent>
      <dc:title>Matplotlib v3.5.0, https://matplotlib.org/</dc:title>
     </cc:Agent>
    </dc:creator>
   </cc:Work>
  </rdf:RDF>
 </metadata>
 <defs>
  <style type="text/css">*{stroke-linejoin: round; stroke-linecap: butt}</style>
 </defs>
 <g id="figure_1">
  <g id="patch_1">
   <path d="M 0 345.6 
L 460.8 345.6 
L 460.8 0 
L 0 0 
z
" style="fill: #ffffff"/>
  </g>
  <g id="axes_1">
   <g id="patch_2">
    <path d="M 57.6 307.584 
L 414.72 307.584 
L 414.72 41.472 
L 57.6 41.472 
z
" style="fill: #ffffff"/>
   </g>
   <g id="matplotlib.axis_1">
    <g id="xtick_1">
     <g id="line2d_1">
      <defs>
       <path id="m703faf2328" d="M 0 0 
L 0 3.5 
" style="stroke: #000000; stroke-width: 0.8"/>
      </defs>
      <g>
       <use xlink:href="#m703faf2328" x="83.579921" y="307.584" style="stroke: #000000; stroke-width: 0.8"/>
      </g>
     </g>
     <g id="text_1">
      <!-- 1000 -->
      <g transform="translate(70.854921 322.182437)scale(0.1 -0.1)">
       <defs>
        <path id="DejaVuSans-31" d="M 794 531 
L 1825 531 
L 1825 4091 
L 703 3866 
L 703 4441 
L 1819 4666 
L 2450 4666 
L 2450 531 
L 3481 531 
L 3481 0 
L 794 0 
L 794 531 
z
" transform="scale(0.015625)"/>
        <path id="DejaVuSans-30" d="M 2034 4250 
Q 1547 4250 1301 3770 
Q 1056 3291 1056 2328 
Q 1056 1369 1301 889 
Q 1547 409 2034 409 
Q 2525 409 2770 889 
Q 3016 1369 3016 2328 
Q 3016 3291 2770 3770 
Q 2525 4250 2034 4250 
z
M 2034 4750 
Q 2819 4750 3233 4129 
Q 3647 3509 3647 2328 
Q 3647 1150 3233 529 
Q 2819 -91 2034 -91 
Q 1250 -91 836 529 
Q 422 1150 422 2328 
Q 422 3509 836 4129 
Q 1250 4750 2034 4750 
z
" transform="scale(0.015625)"/>
       </defs>
       <use xlink:href="#DejaVuSans-31"/>
       <use xlink:href="#DejaVuSans-30" x="63.623047"/>
       <use xlink:href="#DejaVuSans-30" x="127.246094"/>
       <use xlink:href="#DejaVuSans-30" x="190.869141"/>
      </g>
     </g>
    </g>
    <g id="xtick_2">
     <g id="line2d_2">
      <g>
       <use xlink:href="#m703faf2328" x="135.539764" y="307.584" style="stroke: #000000; stroke-width: 0.8"/>
      </g>
     </g>
     <g id="text_2">
      <!-- 2000 -->
      <g transform="translate(122.814764 322.182437)scale(0.1 -0.1)">
       <defs>
        <path id="DejaVuSans-32" d="M 1228 531 
L 3431 531 
L 3431 0 
L 469 0 
L 469 531 
Q 828 903 1448 1529 
Q 2069 2156 2228 2338 
Q 2531 2678 2651 2914 
Q 2772 3150 2772 3378 
Q 2772 3750 2511 3984 
Q 2250 4219 1831 4219 
Q 1534 4219 1204 4116 
Q 875 4013 500 3803 
L 500 4441 
Q 881 4594 1212 4672 
Q 1544 4750 1819 4750 
Q 2544 4750 2975 4387 
Q 3406 4025 3406 3419 
Q 3406 3131 3298 2873 
Q 3191 2616 2906 2266 
Q 2828 2175 2409 1742 
Q 1991 1309 1228 531 
z
" transform="scale(0.015625)"/>
       </defs>
       <use xlink:href="#DejaVuSans-32"/>
       <use xlink:href="#DejaVuSans-30" x="63.623047"/>
       <use xlink:href="#DejaVuSans-30" x="127.246094"/>
       <use xlink:href="#DejaVuSans-30" x="190.869141"/>
      </g>
     </g>
    </g>
    <g id="xtick_3">
     <g id="line2d_3">
      <g>
       <use xlink:href="#m703faf2328" x="187.499607" y="307.584" style="stroke: #000000; stroke-width: 0.8"/>
      </g>
     </g>
     <g id="text_3">
      <!-- 3000 -->
      <g transform="translate(174.774607 322.182437)scale(0.1 -0.1)">
       <defs>
        <path id="DejaVuSans-33" d="M 2597 2516 
Q 3050 2419 3304 2112 
Q 3559 1806 3559 1356 
Q 3559 666 3084 287 
Q 2609 -91 1734 -91 
Q 1441 -91 1130 -33 
Q 819 25 488 141 
L 488 750 
Q 750 597 1062 519 
Q 1375 441 1716 441 
Q 2309 441 2620 675 
Q 2931 909 2931 1356 
Q 2931 1769 2642 2001 
Q 2353 2234 1838 2234 
L 1294 2234 
L 1294 2753 
L 1863 2753 
Q 2328 2753 2575 2939 
Q 2822 3125 2822 3475 
Q 2822 3834 2567 4026 
Q 2313 4219 1838 4219 
Q 1578 4219 1281 4162 
Q 984 4106 628 3988 
L 628 4550 
Q 988 4650 1302 4700 
Q 1616 4750 1894 4750 
Q 2613 4750 3031 4423 
Q 3450 4097 3450 3541 
Q 3450 3153 3228 2886 
Q 3006 2619 2597 2516 
z
" transform="scale(0.015625)"/>
       </defs>
       <use xlink:href="#DejaVuSans-33"/>
       <use xlink:href="#DejaVuSans-30" x="63.623047"/>
       <use xlink:href="#DejaVuSans-30" x="127.246094"/>
       <use xlink:href="#DejaVuSans-30" x="190.869141"/>
      </g>
     </g>
    </g>
    <g id="xtick_4">
     <g id="line2d_4">
      <g>
       <use xlink:href="#m703faf2328" x="239.45945" y="307.584" style="stroke: #000000; stroke-width: 0.8"/>
      </g>
     </g>
     <g id="text_4">
      <!-- 4000 -->
      <g transform="translate(226.73445 322.182437)scale(0.1 -0.1)">
       <defs>
        <path id="DejaVuSans-34" d="M 2419 4116 
L 825 1625 
L 2419 1625 
L 2419 4116 
z
M 2253 4666 
L 3047 4666 
L 3047 1625 
L 3713 1625 
L 3713 1100 
L 3047 1100 
L 3047 0 
L 2419 0 
L 2419 1100 
L 313 1100 
L 313 1709 
L 2253 4666 
z
" transform="scale(0.015625)"/>
       </defs>
       <use xlink:href="#DejaVuSans-34"/>
       <use xlink:href="#DejaVuSans-30" x="63.623047"/>
       <use xlink:href="#DejaVuSans-30" x="127.246094"/>
       <use xlink:href="#DejaVuSans-30" x="190.869141"/>
      </g>
     </g>
    </g>
    <g id="xtick_5">
     <g id="line2d_5">
      <g>
       <use xlink:href="#m703faf2328" x="291.419293" y="307.584" style="stroke: #000000; stroke-width: 0.8"/>
      </g>
     </g>
     <g id="text_5">
      <!-- 5000 -->
      <g transform="translate(278.694293 322.182437)scale(0.1 -0.1)">
       <defs>
        <path id="DejaVuSans-35" d="M 691 4666 
L 3169 4666 
L 3169 4134 
L 1269 4134 
L 1269 2991 
Q 1406 3038 1543 3061 
Q 1681 3084 1819 3084 
Q 2600 3084 3056 2656 
Q 3513 2228 3513 1497 
Q 3513 744 3044 326 
Q 2575 -91 1722 -91 
Q 1428 -91 1123 -41 
Q 819 9 494 109 
L 494 744 
Q 775 591 1075 516 
Q 1375 441 1709 441 
Q 2250 441 2565 725 
Q 2881 1009 2881 1497 
Q 2881 1984 2565 2268 
Q 2250 2553 1709 2553 
Q 1456 2553 1204 2497 
Q 953 2441 691 2322 
L 691 4666 
z
" transform="scale(0.015625)"/>
       </defs>
       <use xlink:href="#DejaVuSans-35"/>
       <use xlink:href="#DejaVuSans-30" x="63.623047"/>
       <use xlink:href="#DejaVuSans-30" x="127.246094"/>
       <use xlink:href="#DejaVuSans-30" x="190.869141"/>
      </g>
     </g>
    </g>
    <g id="xtick_6">
     <g id="line2d_6">
      <g>
       <use xlink:href="#m703faf2328" x="343.379136" y="307.584" style="stroke: #000000; stroke-width: 0.8"/>
      </g>
     </g>
     <g id="text_6">
      <!-- 6000 -->
      <g transform="translate(330.654136 322.182437)scale(0.1 -0.1)">
       <defs>
        <path id="DejaVuSans-36" d="M 2113 2584 
Q 1688 2584 1439 2293 
Q 1191 2003 1191 1497 
Q 1191 994 1439 701 
Q 1688 409 2113 409 
Q 2538 409 2786 701 
Q 3034 994 3034 1497 
Q 3034 2003 2786 2293 
Q 2538 2584 2113 2584 
z
M 3366 4563 
L 3366 3988 
Q 3128 4100 2886 4159 
Q 2644 4219 2406 4219 
Q 1781 4219 1451 3797 
Q 1122 3375 1075 2522 
Q 1259 2794 1537 2939 
Q 1816 3084 2150 3084 
Q 2853 3084 3261 2657 
Q 3669 2231 3669 1497 
Q 3669 778 3244 343 
Q 2819 -91 2113 -91 
Q 1303 -91 875 529 
Q 447 1150 447 2328 
Q 447 3434 972 4092 
Q 1497 4750 2381 4750 
Q 2619 4750 2861 4703 
Q 3103 4656 3366 4563 
z
" transform="scale(0.015625)"/>
       </defs>
       <use xlink:href="#DejaVuSans-36"/>
       <use xlink:href="#DejaVuSans-30" x="63.623047"/>
       <use xlink:href="#DejaVuSans-30" x="127.246094"/>
       <use xlink:href="#DejaVuSans-30" x="190.869141"/>
      </g>
     </g>
    </g>
    <g id="xtick_7">
     <g id="line2d_7">
      <g>
       <use xlink:href="#m703faf2328" x="395.338979" y="307.584" style="stroke: #000000; stroke-width: 0.8"/>
      </g>
     </g>
     <g id="text_7">
      <!-- 7000 -->
      <g transform="translate(382.613979 322.182437)scale(0.1 -0.1)">
       <defs>
        <path id="DejaVuSans-37" d="M 525 4666 
L 3525 4666 
L 3525 4397 
L 1831 0 
L 1172 0 
L 2766 4134 
L 525 4134 
L 525 4666 
z
" transform="scale(0.015625)"/>
       </defs>
       <use xlink:href="#DejaVuSans-37"/>
       <use xlink:href="#DejaVuSans-30" x="63.623047"/>
       <use xlink:href="#DejaVuSans-30" x="127.246094"/>
       <use xlink:href="#DejaVuSans-30" x="190.869141"/>
      </g>
     </g>
    </g>
    <g id="text_8">
     <!-- step -->
     <g transform="translate(225.344375 335.860562)scale(0.1 -0.1)">
      <defs>
       <path id="DejaVuSans-73" d="M 2834 3397 
L 2834 2853 
Q 2591 2978 2328 3040 
Q 2066 3103 1784 3103 
Q 1356 3103 1142 2972 
Q 928 2841 928 2578 
Q 928 2378 1081 2264 
Q 1234 2150 1697 2047 
L 1894 2003 
Q 2506 1872 2764 1633 
Q 3022 1394 3022 966 
Q 3022 478 2636 193 
Q 2250 -91 1575 -91 
Q 1294 -91 989 -36 
Q 684 19 347 128 
L 347 722 
Q 666 556 975 473 
Q 1284 391 1588 391 
Q 1994 391 2212 530 
Q 2431 669 2431 922 
Q 2431 1156 2273 1281 
Q 2116 1406 1581 1522 
L 1381 1569 
Q 847 1681 609 1914 
Q 372 2147 372 2553 
Q 372 3047 722 3315 
Q 1072 3584 1716 3584 
Q 2034 3584 2315 3537 
Q 2597 3491 2834 3397 
z
" transform="scale(0.015625)"/>
       <path id="DejaVuSans-74" d="M 1172 4494 
L 1172 3500 
L 2356 3500 
L 2356 3053 
L 1172 3053 
L 1172 1153 
Q 1172 725 1289 603 
Q 1406 481 1766 481 
L 2356 481 
L 2356 0 
L 1766 0 
Q 1100 0 847 248 
Q 594 497 594 1153 
L 594 3053 
L 172 3053 
L 172 3500 
L 594 3500 
L 594 4494 
L 1172 4494 
z
" transform="scale(0.015625)"/>
       <path id="DejaVuSans-65" d="M 3597 1894 
L 3597 1613 
L 953 1613 
Q 991 1019 1311 708 
Q 1631 397 2203 397 
Q 2534 397 2845 478 
Q 3156 559 3463 722 
L 3463 178 
Q 3153 47 2828 -22 
Q 2503 -91 2169 -91 
Q 1331 -91 842 396 
Q 353 884 353 1716 
Q 353 2575 817 3079 
Q 1281 3584 2069 3584 
Q 2775 3584 3186 3129 
Q 3597 2675 3597 1894 
z
M 3022 2063 
Q 3016 2534 2758 2815 
Q 2500 3097 2075 3097 
Q 1594 3097 1305 2825 
Q 1016 2553 972 2059 
L 3022 2063 
z
" transform="scale(0.015625)"/>
       <path id="DejaVuSans-70" d="M 1159 525 
L 1159 -1331 
L 581 -1331 
L 581 3500 
L 1159 3500 
L 1159 2969 
Q 1341 3281 1617 3432 
Q 1894 3584 2278 3584 
Q 2916 3584 3314 3078 
Q 3713 2572 3713 1747 
Q 3713 922 3314 415 
Q 2916 -91 2278 -91 
Q 1894 -91 1617 61 
Q 1341 213 1159 525 
z
M 3116 1747 
Q 3116 2381 2855 2742 
Q 2594 3103 2138 3103 
Q 1681 3103 1420 2742 
Q 1159 2381 1159 1747 
Q 1159 1113 1420 752 
Q 1681 391 2138 391 
Q 2594 391 2855 752 
Q 3116 1113 3116 1747 
z
" transform="scale(0.015625)"/>
      </defs>
      <use xlink:href="#DejaVuSans-73"/>
      <use xlink:href="#DejaVuSans-74" x="52.099609"/>
      <use xlink:href="#DejaVuSans-65" x="91.308594"/>
      <use xlink:href="#DejaVuSans-70" x="152.832031"/>
     </g>
    </g>
   </g>
   <g id="matplotlib.axis_2">
    <g id="ytick_1">
     <g id="line2d_8">
      <defs>
       <path id="md9736519bd" d="M 0 0 
L -3.5 0 
" style="stroke: #000000; stroke-width: 0.8"/>
      </defs>
      <g>
       <use xlink:href="#md9736519bd" x="57.6" y="264.23364" style="stroke: #000000; stroke-width: 0.8"/>
      </g>
     </g>
     <g id="text_9">
      <!-- 2000 -->
      <g transform="translate(25.15 268.032859)scale(0.1 -0.1)">
       <use xlink:href="#DejaVuSans-32"/>
       <use xlink:href="#DejaVuSans-30" x="63.623047"/>
       <use xlink:href="#DejaVuSans-30" x="127.246094"/>
       <use xlink:href="#DejaVuSans-30" x="190.869141"/>
      </g>
     </g>
    </g>
    <g id="ytick_2">
     <g id="line2d_9">
      <g>
       <use xlink:href="#md9736519bd" x="57.6" y="207.659987" style="stroke: #000000; stroke-width: 0.8"/>
      </g>
     </g>
     <g id="text_10">
      <!-- 3000 -->
      <g transform="translate(25.15 211.459206)scale(0.1 -0.1)">
       <use xlink:href="#DejaVuSans-33"/>
       <use xlink:href="#DejaVuSans-30" x="63.623047"/>
       <use xlink:href="#DejaVuSans-30" x="127.246094"/>
       <use xlink:href="#DejaVuSans-30" x="190.869141"/>
      </g>
     </g>
    </g>
    <g id="ytick_3">
     <g id="line2d_10">
      <g>
       <use xlink:href="#md9736519bd" x="57.6" y="151.086334" style="stroke: #000000; stroke-width: 0.8"/>
      </g>
     </g>
     <g id="text_11">
      <!-- 4000 -->
      <g transform="translate(25.15 154.885552)scale(0.1 -0.1)">
       <use xlink:href="#DejaVuSans-34"/>
       <use xlink:href="#DejaVuSans-30" x="63.623047"/>
       <use xlink:href="#DejaVuSans-30" x="127.246094"/>
       <use xlink:href="#DejaVuSans-30" x="190.869141"/>
      </g>
     </g>
    </g>
    <g id="ytick_4">
     <g id="line2d_11">
      <g>
       <use xlink:href="#md9736519bd" x="57.6" y="94.51268" style="stroke: #000000; stroke-width: 0.8"/>
      </g>
     </g>
     <g id="text_12">
      <!-- 5000 -->
      <g transform="translate(25.15 98.311899)scale(0.1 -0.1)">
       <use xlink:href="#DejaVuSans-35"/>
       <use xlink:href="#DejaVuSans-30" x="63.623047"/>
       <use xlink:href="#DejaVuSans-30" x="127.246094"/>
       <use xlink:href="#DejaVuSans-30" x="190.869141"/>
      </g>
     </g>
    </g>
    <g id="text_13">
     <!-- $\chi^2$ -->
     <g transform="translate(19.05 180.078)rotate(-90)scale(0.1 -0.1)">
      <defs>
       <path id="DejaVuSans-Oblique-3c7" d="M 1922 -781 
L 1691 416 
L 394 -1334 
L -284 -1334 
L 1553 1141 
L 1269 2613 
Q 1194 3006 713 3006 
L 559 3006 
L 653 3500 
L 872 3494 
Q 1675 3472 1775 2950 
L 2006 1753 
L 3303 3503 
L 3981 3503 
L 2144 1028 
L 2428 -444 
Q 2503 -838 2984 -838 
L 3138 -838 
L 3044 -1331 
L 2825 -1325 
Q 2022 -1303 1922 -781 
z
" transform="scale(0.015625)"/>
      </defs>
      <use xlink:href="#DejaVuSans-Oblique-3c7" transform="translate(0 0.765625)"/>
      <use xlink:href="#DejaVuSans-32" transform="translate(63.652396 39.046875)scale(0.7)"/>
     </g>
    </g>
   </g>
   <g id="line2d_12">
    <path d="M 57.6 53.568 
L 58.379398 63.692497 
L 58.535277 64.32717 
L 58.743117 66.106059 
L 58.795076 66.115747 
L 59.574474 70.228133 
L 59.886233 70.606638 
L 60.197992 73.675161 
L 60.301912 73.729151 
L 60.509751 76.043744 
L 60.665631 76.291168 
L 60.87347 77.497084 
L 61.133269 78.592945 
L 61.237189 78.982265 
L 61.445028 80.209434 
L 61.704828 81.364872 
L 61.860707 83.576624 
L 61.964627 83.714899 
L 62.224426 85.395496 
L 62.484225 85.711982 
L 62.640105 85.956066 
L 62.692065 86.020507 
L 62.847944 86.609066 
L 63.055784 86.739957 
L 63.419502 88.713108 
L 63.471462 88.72143 
L 63.627342 89.226746 
L 63.679302 89.223554 
L 63.887141 89.737866 
L 64.043021 89.930252 
L 64.25086 90.366706 
L 64.35478 90.459433 
L 64.510659 91.161929 
L 64.718498 91.647821 
L 64.926338 91.91609 
L 65.082217 92.033572 
L 65.134177 92.038745 
L 65.290057 92.440402 
L 65.445936 92.461631 
L 65.601816 92.780107 
L 65.705735 92.90755 
L 66.069454 93.363504 
L 66.121414 93.362178 
L 66.277294 93.597379 
L 66.900812 94.55547 
L 67.056691 94.615559 
L 67.264531 96.154638 
L 67.57629 96.305871 
L 67.940009 96.7236 
L 68.095888 97.459723 
L 68.615487 97.855812 
L 69.083125 101.557451 
L 69.135085 101.590769 
L 69.290965 101.789603 
L 69.602724 101.851525 
L 69.706643 101.956479 
L 69.862523 103.494914 
L 69.966443 103.495997 
L 70.122322 104.165913 
L 70.226242 104.253593 
L 70.382121 104.474791 
L 70.641921 104.752963 
L 70.7978 106.099779 
L 71.005639 106.145934 
L 71.213479 106.595816 
L 71.473278 106.716631 
L 71.733077 107.413577 
L 71.888957 109.012714 
L 71.940917 109.154201 
L 72.148756 110.173767 
L 72.252676 110.448197 
L 72.408555 111.623722 
L 72.668354 111.77093 
L 72.824234 111.821136 
L 72.980113 111.996715 
L 73.032073 112.017774 
L 73.084033 112.169678 
L 73.239913 112.829629 
L 73.291873 113.295926 
L 73.499712 116.438884 
L 73.759511 118.42455 
L 73.811471 118.433675 
L 74.12323 119.220322 
L 74.27911 119.359068 
L 74.434989 120.085119 
L 74.590869 120.678954 
L 74.746748 120.688922 
L 74.798708 120.858617 
L 75.006547 122.567296 
L 75.733985 131.12854 
L 75.941825 131.253614 
L 76.253584 132.54377 
L 76.513383 135.996867 
L 76.565343 135.999605 
L 76.669262 136.925359 
L 76.825142 139.08096 
L 76.981021 139.742258 
L 77.240821 140.031834 
L 77.3967 140.237008 
L 77.50062 140.275262 
L 77.708459 140.697416 
L 78.020218 140.803288 
L 78.228058 141.048807 
L 78.487857 141.142459 
L 78.747656 141.735678 
L 78.799616 141.76839 
L 79.007455 142.115398 
L 79.215295 142.206513 
L 79.371174 142.754737 
L 80.046652 143.151188 
L 80.254491 143.667822 
L 80.462331 143.872984 
L 80.61821 144.393494 
L 80.981929 145.155997 
L 81.085849 145.225225 
L 81.137809 145.340305 
L 81.293688 146.577575 
L 81.397608 146.758183 
L 81.553488 148.891917 
L 81.605447 148.899209 
L 81.761327 149.795034 
L 81.865247 149.863782 
L 82.073086 150.766571 
L 82.177006 150.801297 
L 82.332885 151.119009 
L 82.436805 151.122754 
L 82.592684 151.2838 
L 82.644644 151.28847 
L 82.904443 151.688423 
L 82.956403 151.69 
L 83.112283 152.271687 
L 83.372082 152.823567 
L 83.683841 152.830883 
L 83.839721 153.263427 
L 84.04756 153.320814 
L 84.20344 153.513091 
L 84.307359 153.510806 
L 84.515199 153.819625 
L 84.982837 153.965201 
L 85.242636 154.031258 
L 85.398516 154.092961 
L 85.554395 154.146085 
L 85.710275 154.25596 
L 86.073994 154.39962 
L 86.281833 154.538292 
L 86.437713 154.60051 
L 86.645552 154.832747 
L 86.957311 154.914304 
L 87.113191 155.469282 
L 87.47691 155.509263 
L 87.684749 155.877915 
L 88.048468 156.004595 
L 88.204347 157.211635 
L 88.516107 157.295196 
L 88.723946 157.692936 
L 88.983745 157.75884 
L 89.243544 158.152247 
L 89.347464 158.196159 
L 89.503344 158.324324 
L 89.607263 158.332846 
L 89.815103 158.563611 
L 89.867062 158.624166 
L 90.022942 160.964406 
L 90.334701 162.026893 
L 90.438621 162.033271 
L 90.5945 164.429008 
L 90.75038 164.452358 
L 90.906259 164.823589 
L 90.958219 164.831613 
L 91.218018 168.497593 
L 91.321938 168.650171 
L 91.893496 172.546392 
L 91.945456 172.558077 
L 92.101336 172.929718 
L 92.153296 172.93375 
L 92.309175 173.344233 
L 92.413095 173.389619 
L 92.880733 174.403283 
L 92.932693 174.403751 
L 93.140533 175.335087 
L 93.244452 175.353601 
L 93.400332 175.98904 
L 93.660131 176.088893 
L 93.712091 176.123883 
L 93.86797 176.685333 
L 94.179729 177.18954 
L 94.439529 177.300647 
L 94.491488 177.342334 
L 94.647368 178.046303 
L 95.530685 181.610734 
L 95.686565 182.99549 
L 95.738525 183.003846 
L 95.946364 184.801382 
L 96.102244 185.511965 
L 96.154203 185.512319 
L 96.569882 186.32317 
L 96.673802 186.340364 
L 96.777722 186.832272 
L 96.933601 187.290553 
L 96.985561 187.313714 
L 97.29732 187.898495 
L 97.40124 187.909237 
L 97.609079 188.521932 
L 97.816918 188.5159 
L 98.024758 189.112632 
L 98.076718 189.131947 
L 98.232597 189.950021 
L 98.336517 189.999125 
L 98.856115 190.86955 
L 98.960035 190.91446 
L 99.479633 191.974416 
L 99.531593 191.987582 
L 99.687473 192.121421 
L 99.947272 192.383466 
L 100.155111 192.422273 
L 101.194308 194.103327 
L 101.558027 194.223475 
L 101.765866 194.484061 
L 101.921746 195.027601 
L 102.077625 195.076748 
L 102.285465 195.529297 
L 102.493304 195.775171 
L 102.753103 195.825268 
L 102.908983 196.00688 
L 103.012903 196.063571 
L 103.168782 196.267237 
L 103.272702 196.367912 
L 103.532501 196.58841 
L 103.89622 198.743093 
L 103.94818 198.752272 
L 104.00014 198.893673 
L 104.156019 199.823923 
L 104.259939 199.972608 
L 104.415818 200.527106 
L 104.571698 200.802611 
L 104.623658 200.822571 
L 104.779537 201.25484 
L 105.195216 201.484651 
L 105.351096 201.649682 
L 105.714814 201.961101 
L 105.922654 202.17965 
L 106.338333 202.411734 
L 106.494212 202.50641 
L 107.897128 202.926163 
L 108.832405 203.108993 
L 109.196124 203.124794 
L 109.352003 203.417569 
L 109.559843 203.472179 
L 110.287281 203.607403 
L 110.49512 203.758462 
L 110.54708 203.761503 
L 110.702959 203.949277 
L 111.014718 204.087279 
L 111.066678 204.442839 
L 111.222558 205.596022 
L 111.378437 205.719363 
L 111.794116 205.775436 
L 111.949996 206.858355 
L 112.261755 207.219602 
L 112.469594 207.280749 
L 112.677433 207.320985 
L 112.781353 207.435361 
L 112.885273 207.504229 
L 113.145072 209.047973 
L 113.352911 209.139117 
L 113.612711 209.223758 
L 113.76859 209.342328 
L 113.82055 209.344537 
L 114.028389 209.6119 
L 114.288189 209.609139 
L 114.444068 210.232785 
L 114.651907 210.339286 
L 115.535225 210.730261 
L 115.639144 210.795759 
L 115.795024 211.188271 
L 116.470502 211.29812 
L 116.938141 211.459321 
L 117.09402 211.589623 
L 117.509699 211.747446 
L 117.665578 211.890038 
L 117.925378 211.93651 
L 118.081257 212.063966 
L 118.237137 212.149645 
L 118.393016 212.29375 
L 118.548896 212.327268 
L 118.756735 212.750783 
L 119.640052 212.879605 
L 119.795932 213.01607 
L 120.055731 213.107404 
L 120.211611 213.329781 
L 120.47141 213.34976 
L 120.52337 214.973327 
L 120.627289 214.968825 
L 120.939048 215.006424 
L 121.094928 215.140084 
L 121.198848 215.150341 
L 121.354727 215.474385 
L 121.614526 215.576836 
L 122.082165 215.685971 
L 122.238045 215.846177 
L 123.173322 215.996647 
L 123.79684 216.057866 
L 124.420358 216.189866 
L 124.680157 216.227872 
L 126.498752 216.605652 
L 126.654631 216.634992 
L 126.810511 216.846564 
L 127.382069 216.907427 
L 127.589908 216.968857 
L 128.161467 216.991701 
L 128.317346 217.142408 
L 129.356543 217.229309 
L 129.512423 217.60208 
L 129.668302 217.610575 
L 129.876141 217.86719 
L 130.23986 217.96926 
L 130.29182 217.972765 
L 130.4477 219.004347 
L 131.538856 219.106809 
L 131.746696 219.327876 
L 132.266294 219.388653 
L 132.578053 219.633175 
L 132.889812 219.630465 
L 133.045692 219.813989 
L 133.72117 219.88679 
L 133.929009 220.187688 
L 134.084889 220.19708 
L 134.240768 220.410536 
L 134.396648 220.512224 
L 134.812326 220.535627 
L 134.968206 220.854041 
L 135.643684 221.071157 
L 135.799564 221.389558 
L 136.630921 221.507632 
L 136.99464 221.597153 
L 137.150519 221.849973 
L 137.358359 221.933204 
L 137.774038 221.988476 
L 137.929917 222.05452 
L 138.189716 222.177035 
L 138.345596 222.553591 
L 138.449515 222.555611 
L 138.605395 223.178821 
L 139.073034 223.324616 
L 139.228913 224.116194 
L 139.488712 224.140902 
L 139.644592 224.883236 
L 139.852431 224.983068 
L 140.16419 225.148183 
L 141.099467 225.3308 
L 141.463186 225.708015 
L 141.722986 225.712618 
L 141.930825 226.725952 
L 143.021982 226.880184 
L 143.177861 227.361778 
L 143.6455 227.380772 
L 143.801379 227.449516 
L 144.892536 227.536176 
L 144.996456 227.583285 
L 145.152335 227.733789 
L 145.516054 227.820348 
L 145.775853 227.995195 
L 145.983693 228.011667 
L 146.139572 229.054034 
L 146.243492 229.092909 
L 146.503291 229.398261 
L 146.555251 229.396494 
L 146.711131 229.835218 
L 146.76309 230.0052 
L 146.91897 230.616781 
L 147.02289 230.616709 
L 147.230729 231.178794 
L 147.386608 231.422688 
L 147.594448 231.450057 
L 147.750327 232.053087 
L 147.802287 232.107245 
L 147.958167 232.711488 
L 148.114046 233.186088 
L 148.269926 233.59632 
L 148.529725 234.966063 
L 148.633645 236.928911 
L 148.685605 236.926223 
L 148.737564 236.951119 
L 148.893444 237.268378 
L 148.997364 237.28296 
L 149.153243 237.636054 
L 149.724801 238.102862 
L 150.452239 238.220733 
L 150.660079 238.530985 
L 152.322794 238.637088 
L 152.478673 238.648532 
L 152.634553 239.06773 
L 152.842392 239.074186 
L 152.998271 239.320036 
L 153.258071 239.36539 
L 153.46591 239.371004 
L 153.673749 239.649673 
L 153.777669 239.654744 
L 153.933549 239.79724 
L 154.089428 239.808236 
L 154.245308 240.172599 
L 154.401187 240.216824 
L 154.557067 240.486118 
L 154.764906 240.494545 
L 154.920786 240.715535 
L 156.167822 240.74174 
L 156.219782 240.745013 
L 156.375661 241.536383 
L 156.583501 241.561789 
L 156.73938 241.877985 
L 157.414858 241.891534 
L 158.090336 242.064193 
L 159.233453 242.203476 
L 159.389332 242.382372 
L 160.428529 242.426255 
L 160.636368 242.493348 
L 160.896168 242.522367 
L 161.052047 242.803428 
L 161.259887 242.802055 
L 161.415766 243.459476 
L 162.766722 243.537864 
L 162.974561 243.992589 
L 164.221598 244.127918 
L 164.377477 244.219644 
L 165.312754 244.30932 
L 165.468634 244.539704 
L 165.936272 244.874196 
L 166.196072 244.882167 
L 166.351951 245.131633 
L 166.403911 245.134467 
L 166.55979 245.375744 
L 166.76763 245.603431 
L 166.923509 245.841658 
L 167.754867 246.166415 
L 167.910746 246.511791 
L 168.170546 246.538323 
L 168.378385 246.72187 
L 169.417582 246.785335 
L 170.612658 246.814208 
L 172.950851 246.926833 
L 173.36653 246.940057 
L 173.678289 246.952441 
L 173.834168 247.446649 
L 175.392964 247.530697 
L 177.731157 247.636391 
L 179.237992 247.666045 
L 179.497791 247.675793 
L 179.653671 247.821114 
L 179.757591 247.826309 
L 180.01739 249.169626 
L 181.316386 249.194784 
L 181.472265 249.775934 
L 183.34282 249.825759 
L 183.498699 250.137137 
L 183.654579 250.138758 
L 183.810458 250.737045 
L 185.577093 250.923505 
L 185.732973 251.014109 
L 186.356491 251.075152 
L 186.51237 251.143699 
L 187.239808 251.151332 
L 187.395687 251.235076 
L 187.551567 251.262583 
L 187.811366 251.759417 
L 189.578001 251.960788 
L 189.73388 252.130262 
L 191.240716 252.241014 
L 191.552475 252.262567 
L 192.851471 252.322454 
L 193.007351 252.428547 
L 193.423029 252.494563 
L 193.630869 252.604558 
L 193.994588 252.639098 
L 194.150467 252.781265 
L 194.773985 252.799749 
L 195.761222 252.874492 
L 196.124941 252.923769 
L 197.060218 252.986203 
L 197.216098 253.408265 
L 197.423937 253.445354 
L 197.579817 253.659223 
L 198.203335 253.699646 
L 198.826853 253.75514 
L 199.034692 253.843915 
L 200.229769 253.881689 
L 200.385648 254.17059 
L 201.320925 254.191017 
L 201.372885 254.269086 
L 201.476805 255.544945 
L 201.528765 255.541942 
L 205.217914 255.717213 
L 205.373793 255.87166 
L 207.244347 256.015981 
L 207.400227 256.116516 
L 209.79038 256.201355 
L 210.102139 256.703735 
L 210.673697 256.823367 
L 210.829577 256.891844 
L 211.089376 256.899306 
L 211.245255 257.068454 
L 211.764854 257.120208 
L 211.920733 257.780085 
L 212.284452 257.872655 
L 212.648171 258.994229 
L 215.194203 259.164227 
L 215.350083 259.344383 
L 215.557922 259.357942 
L 215.713802 259.512743 
L 216.025561 259.75902 
L 216.33732 259.863052 
L 216.701039 259.936149 
L 216.752999 260.914574 
L 216.856918 260.907215 
L 217.064758 260.907903 
L 217.220637 261.103206 
L 217.636316 261.106233 
L 217.792196 261.733315 
L 218.051995 261.815402 
L 218.207874 261.986717 
L 218.259834 262.04017 
L 218.415714 262.262988 
L 220.130388 262.30714 
L 220.182348 262.393326 
L 220.338228 262.944552 
L 220.701947 262.960216 
L 220.857826 263.074244 
L 221.637224 263.091428 
L 221.793103 263.331343 
L 222.104863 263.345321 
L 222.260742 263.84545 
L 222.416622 264.045986 
L 222.8323 264.061693 
L 222.98818 264.462048 
L 223.0921 264.461526 
L 223.247979 264.794451 
L 223.767577 264.861028 
L 223.923457 265.104416 
L 224.079337 265.247595 
L 224.702855 265.255898 
L 224.858734 265.413385 
L 226.885168 265.589323 
L 227.041048 265.728502 
L 228.340044 265.870386 
L 228.495923 266.021974 
L 228.859642 266.122161 
L 229.015522 266.187775 
L 229.223361 266.25771 
L 229.327281 267.029697 
L 229.379241 267.025294 
L 230.678237 267.109471 
L 230.886076 267.152293 
L 231.145875 267.150937 
L 231.301755 268.354678 
L 232.80859 268.397456 
L 232.96447 268.504599 
L 233.536028 268.506844 
L 233.691907 269.182668 
L 235.770301 269.22281 
L 235.926181 269.689577 
L 239.56337 269.887605 
L 239.719249 270.133583 
L 239.979048 270.131538 
L 240.134928 271.229076 
L 240.446687 271.317087 
L 240.602567 271.641336 
L 241.174125 271.728982 
L 241.330004 271.792584 
L 241.485884 271.795301 
L 241.641763 272.305542 
L 243.979956 272.371683 
L 244.135836 272.649201 
L 245.538752 272.730096 
L 245.746591 272.801847 
L 247.928904 272.877471 
L 248.188704 272.905854 
L 248.916141 272.989187 
L 249.123981 273.053966 
L 251.410214 273.179874 
L 256.450319 273.433637 
L 256.606198 273.598109 
L 256.710118 273.596303 
L 256.865997 273.749918 
L 258.216953 273.777642 
L 258.372833 273.915856 
L 260.087508 274.010508 
L 261.750223 274.10903 
L 262.893339 274.175644 
L 263.257058 274.202378 
L 263.984496 274.205653 
L 264.192335 274.28283 
L 266.374649 274.456543 
L 267.206006 274.5043 
L 267.361886 274.56192 
L 268.920681 274.610188 
L 269.18048 274.640451 
L 269.596159 274.643897 
L 269.752038 274.773629 
L 270.739275 274.862824 
L 271.414753 274.945705 
L 272.194151 274.961843 
L 272.350031 275.223456 
L 275.77938 275.3934 
L 275.93526 275.56057 
L 276.558778 275.579391 
L 276.714657 275.718949 
L 277.546015 275.846269 
L 277.701894 276.431277 
L 277.961694 276.594686 
L 278.221493 276.609302 
L 278.377372 277.762372 
L 278.896971 277.834637 
L 279.05285 277.917402 
L 279.780288 277.917551 
L 279.936168 278.225754 
L 281.391043 278.374761 
L 281.443003 278.4589 
L 281.598883 280.365327 
L 282.170441 280.450787 
L 282.32632 280.505158 
L 283.313557 280.579398 
L 283.469437 280.656397 
L 283.521397 280.65715 
L 283.677276 280.967885 
L 284.300794 280.971425 
L 284.456674 281.086216 
L 285.028232 281.133413 
L 285.184112 281.218202 
L 285.443911 281.301334 
L 285.59979 281.87866 
L 287.834064 281.92523 
L 287.989943 281.983862 
L 289.13306 281.990104 
L 289.288939 282.188228 
L 289.964417 282.224514 
L 290.120297 282.464264 
L 292.042811 282.493225 
L 292.25065 282.575489 
L 293.082008 282.601011 
L 293.237887 282.676358 
L 293.757486 282.724427 
L 295.83588 282.847808 
L 295.991759 282.972051 
L 297.238795 282.994876 
L 297.394675 283.120611 
L 297.550554 283.12337 
L 297.706434 283.267313 
L 298.797591 283.357412 
L 298.95347 283.445959 
L 305.812169 283.693894 
L 305.968049 283.8841 
L 307.994483 283.938781 
L 311.008154 283.954668 
L 313.969865 284.078059 
L 314.125744 284.192442 
L 314.385543 284.223313 
L 316.256098 284.255928 
L 316.411977 284.584037 
L 316.515897 284.586517 
L 316.671777 284.954242 
L 317.659014 285.007335 
L 317.814893 285.442557 
L 317.970773 285.660686 
L 318.126652 285.802096 
L 318.282532 285.830688 
L 318.438411 286.114202 
L 318.80213 286.12075 
L 318.95801 286.655281 
L 319.113889 286.745258 
L 319.321729 288.378686 
L 319.685447 288.4136 
L 319.841327 288.69553 
L 320.464845 288.693613 
L 320.620725 288.971192 
L 321.815801 289.129494 
L 322.595199 289.187283 
L 323.426556 289.262994 
L 323.582436 289.411112 
L 331.688171 289.641434 
L 333.039127 289.701883 
L 333.870485 289.729608 
L 333.974404 289.731938 
L 334.130284 289.970291 
L 337.247874 289.989236 
L 337.403754 290.060466 
L 337.663553 290.064616 
L 337.819433 290.178892 
L 340.521344 290.249555 
L 340.729184 290.283927 
L 343.483055 290.36814 
L 343.638935 290.392026 
L 343.794814 291.010539 
L 344.262453 291.045713 
L 344.418333 291.227594 
L 344.470292 291.22856 
L 344.626172 292.719992 
L 344.782052 293.043789 
L 353.563265 293.383276 
L 353.771104 293.42578 
L 363.487595 293.866699 
L 363.643474 293.986102 
L 364.370912 293.985717 
L 364.526792 294.054649 
L 365.410109 294.066254 
L 365.565989 294.154083 
L 366.553226 294.166391 
L 366.709105 294.236516 
L 367.332623 294.242232 
L 368.215941 294.25856 
L 368.42378 294.313573 
L 368.943378 294.315005 
L 369.099258 294.556361 
L 378.607909 294.758904 
L 378.919668 294.780066 
L 380.894142 294.837262 
L 381.050022 294.924281 
L 382.504897 294.930469 
L 387.804801 295.155517 
L 402.509437 295.365801 
L 404.068232 295.373625 
L 405.107429 295.394256 
L 413.576883 295.480697 
L 414.408241 295.482523 
L 414.66804 295.480953 
L 414.66804 295.480953 
" clip-path="url(#p692406fb5d)" style="fill: none; stroke: #1f77b4; stroke-opacity: 0.3; stroke-width: 1.5; stroke-linecap: square"/>
   </g>
   <g id="patch_3">
    <path d="M 57.6 307.584 
L 57.6 41.472 
" style="fill: none; stroke: #000000; stroke-width: 0.8; stroke-linejoin: miter; stroke-linecap: square"/>
   </g>
   <g id="patch_4">
    <path d="M 414.72 307.584 
L 414.72 41.472 
" style="fill: none; stroke: #000000; stroke-width: 0.8; stroke-linejoin: miter; stroke-linecap: square"/>
   </g>
   <g id="patch_5">
    <path d="M 57.6 307.584 
L 414.72 307.584 
" style="fill: none; stroke: #000000; stroke-width: 0.8; stroke-linejoin: miter; stroke-linecap: square"/>
   </g>
   <g id="patch_6">
    <path d="M 57.6 41.472 
L 414.72 41.472 
" style="fill: none; stroke: #000000; stroke-width: 0.8; stroke-linejoin: miter; stroke-linecap: square"/>
   </g>
   <g id="text_14">
    <!-- Average $\chi^2$ by Step -->
    <g transform="translate(177.72 35.472)scale(0.12 -0.12)">
     <defs>
      <path id="DejaVuSans-41" d="M 2188 4044 
L 1331 1722 
L 3047 1722 
L 2188 4044 
z
M 1831 4666 
L 2547 4666 
L 4325 0 
L 3669 0 
L 3244 1197 
L 1141 1197 
L 716 0 
L 50 0 
L 1831 4666 
z
" transform="scale(0.015625)"/>
      <path id="DejaVuSans-76" d="M 191 3500 
L 800 3500 
L 1894 563 
L 2988 3500 
L 3597 3500 
L 2284 0 
L 1503 0 
L 191 3500 
z
" transform="scale(0.015625)"/>
      <path id="DejaVuSans-72" d="M 2631 2963 
Q 2534 3019 2420 3045 
Q 2306 3072 2169 3072 
Q 1681 3072 1420 2755 
Q 1159 2438 1159 1844 
L 1159 0 
L 581 0 
L 581 3500 
L 1159 3500 
L 1159 2956 
Q 1341 3275 1631 3429 
Q 1922 3584 2338 3584 
Q 2397 3584 2469 3576 
Q 2541 3569 2628 3553 
L 2631 2963 
z
" transform="scale(0.015625)"/>
      <path id="DejaVuSans-61" d="M 2194 1759 
Q 1497 1759 1228 1600 
Q 959 1441 959 1056 
Q 959 750 1161 570 
Q 1363 391 1709 391 
Q 2188 391 2477 730 
Q 2766 1069 2766 1631 
L 2766 1759 
L 2194 1759 
z
M 3341 1997 
L 3341 0 
L 2766 0 
L 2766 531 
Q 2569 213 2275 61 
Q 1981 -91 1556 -91 
Q 1019 -91 701 211 
Q 384 513 384 1019 
Q 384 1609 779 1909 
Q 1175 2209 1959 2209 
L 2766 2209 
L 2766 2266 
Q 2766 2663 2505 2880 
Q 2244 3097 1772 3097 
Q 1472 3097 1187 3025 
Q 903 2953 641 2809 
L 641 3341 
Q 956 3463 1253 3523 
Q 1550 3584 1831 3584 
Q 2591 3584 2966 3190 
Q 3341 2797 3341 1997 
z
" transform="scale(0.015625)"/>
      <path id="DejaVuSans-67" d="M 2906 1791 
Q 2906 2416 2648 2759 
Q 2391 3103 1925 3103 
Q 1463 3103 1205 2759 
Q 947 2416 947 1791 
Q 947 1169 1205 825 
Q 1463 481 1925 481 
Q 2391 481 2648 825 
Q 2906 1169 2906 1791 
z
M 3481 434 
Q 3481 -459 3084 -895 
Q 2688 -1331 1869 -1331 
Q 1566 -1331 1297 -1286 
Q 1028 -1241 775 -1147 
L 775 -588 
Q 1028 -725 1275 -790 
Q 1522 -856 1778 -856 
Q 2344 -856 2625 -561 
Q 2906 -266 2906 331 
L 2906 616 
Q 2728 306 2450 153 
Q 2172 0 1784 0 
Q 1141 0 747 490 
Q 353 981 353 1791 
Q 353 2603 747 3093 
Q 1141 3584 1784 3584 
Q 2172 3584 2450 3431 
Q 2728 3278 2906 2969 
L 2906 3500 
L 3481 3500 
L 3481 434 
z
" transform="scale(0.015625)"/>
      <path id="DejaVuSans-20" transform="scale(0.015625)"/>
      <path id="DejaVuSans-62" d="M 3116 1747 
Q 3116 2381 2855 2742 
Q 2594 3103 2138 3103 
Q 1681 3103 1420 2742 
Q 1159 2381 1159 1747 
Q 1159 1113 1420 752 
Q 1681 391 2138 391 
Q 2594 391 2855 752 
Q 3116 1113 3116 1747 
z
M 1159 2969 
Q 1341 3281 1617 3432 
Q 1894 3584 2278 3584 
Q 2916 3584 3314 3078 
Q 3713 2572 3713 1747 
Q 3713 922 3314 415 
Q 2916 -91 2278 -91 
Q 1894 -91 1617 61 
Q 1341 213 1159 525 
L 1159 0 
L 581 0 
L 581 4863 
L 1159 4863 
L 1159 2969 
z
" transform="scale(0.015625)"/>
      <path id="DejaVuSans-79" d="M 2059 -325 
Q 1816 -950 1584 -1140 
Q 1353 -1331 966 -1331 
L 506 -1331 
L 506 -850 
L 844 -850 
Q 1081 -850 1212 -737 
Q 1344 -625 1503 -206 
L 1606 56 
L 191 3500 
L 800 3500 
L 1894 763 
L 2988 3500 
L 3597 3500 
L 2059 -325 
z
" transform="scale(0.015625)"/>
      <path id="DejaVuSans-53" d="M 3425 4513 
L 3425 3897 
Q 3066 4069 2747 4153 
Q 2428 4238 2131 4238 
Q 1616 4238 1336 4038 
Q 1056 3838 1056 3469 
Q 1056 3159 1242 3001 
Q 1428 2844 1947 2747 
L 2328 2669 
Q 3034 2534 3370 2195 
Q 3706 1856 3706 1288 
Q 3706 609 3251 259 
Q 2797 -91 1919 -91 
Q 1588 -91 1214 -16 
Q 841 59 441 206 
L 441 856 
Q 825 641 1194 531 
Q 1563 422 1919 422 
Q 2459 422 2753 634 
Q 3047 847 3047 1241 
Q 3047 1584 2836 1778 
Q 2625 1972 2144 2069 
L 1759 2144 
Q 1053 2284 737 2584 
Q 422 2884 422 3419 
Q 422 4038 858 4394 
Q 1294 4750 2059 4750 
Q 2388 4750 2728 4690 
Q 3069 4631 3425 4513 
z
" transform="scale(0.015625)"/>
     </defs>
     <use xlink:href="#DejaVuSans-41" transform="translate(0 0.765625)"/>
     <use xlink:href="#DejaVuSans-76" transform="translate(68.408203 0.765625)"/>
     <use xlink:href="#DejaVuSans-65" transform="translate(127.587891 0.765625)"/>
     <use xlink:href="#DejaVuSans-72" transform="translate(189.111328 0.765625)"/>
     <use xlink:href="#DejaVuSans-61" transform="translate(230.224609 0.765625)"/>
     <use xlink:href="#DejaVuSans-67" transform="translate(291.503906 0.765625)"/>
     <use xlink:href="#DejaVuSans-65" transform="translate(354.980469 0.765625)"/>
     <use xlink:href="#DejaVuSans-20" transform="translate(416.503906 0.765625)"/>
     <use xlink:href="#DejaVuSans-Oblique-3c7" transform="translate(448.291016 0.765625)"/>
     <use xlink:href="#DejaVuSans-32" transform="translate(511.943411 39.046875)scale(0.7)"/>
     <use xlink:href="#DejaVuSans-20" transform="translate(559.213919 0.765625)"/>
     <use xlink:href="#DejaVuSans-62" transform="translate(591.001029 0.765625)"/>
     <use xlink:href="#DejaVuSans-79" transform="translate(654.477591 0.765625)"/>
     <use xlink:href="#DejaVuSans-20" transform="translate(713.657279 0.765625)"/>
     <use xlink:href="#DejaVuSans-53" transform="translate(745.444388 0.765625)"/>
     <use xlink:href="#DejaVuSans-74" transform="translate(808.920951 0.765625)"/>
     <use xlink:href="#DejaVuSans-65" transform="translate(848.129935 0.765625)"/>
     <use xlink:href="#DejaVuSans-70" transform="translate(909.653372 0.765625)"/>
    </g>
   </g>
  </g>
 </g>
 <defs>
  <clipPath id="p692406fb5d">
   <rect x="57.6" y="41.472" width="357.12" height="266.112"/>
  </clipPath>
 </defs>
</svg>
