<?xml version="1.0" encoding="utf-8" standalone="no"?>
<!DOCTYPE svg PUBLIC "-//W3C//DTD SVG 1.1//EN"
  "http://www.w3.org/Graphics/SVG/1.1/DTD/svg11.dtd">
<svg xmlns:xlink="http://www.w3.org/1999/xlink" width="460.8pt" height="345.6pt" viewBox="0 0 460.8 345.6" xmlns="http://www.w3.org/2000/svg" version="1.1">
 <metadata>
  <rdf:RDF xmlns:dc="http://purl.org/dc/elements/1.1/" xmlns:cc="http://creativecommons.org/ns#" xmlns:rdf="http://www.w3.org/1999/02/22-rdf-syntax-ns#">
   <cc:Work>
    <dc:type rdf:resource="http://purl.org/dc/dcmitype/StillImage"/>
    <dc:date>2022-07-23T13:41:05.930946</dc:date>
    <dc:format>image/svg+xml</dc:format>
    <dc:creator>
     <cc:Agent>
      <dc:title>Matplotlib v3.5.0, https://matplotlib.org/</dc:title>
     </cc:Agent>
    </dc:creator>
   </cc:Work>
  </rdf:RDF>
 </metadata>
 <defs>
  <style type="text/css">*{stroke-linejoin: round; stroke-linecap: butt}</style>
 </defs>
 <g id="figure_1">
  <g id="patch_1">
   <path d="M 0 345.6 
L 460.8 345.6 
L 460.8 0 
L 0 0 
z
" style="fill: #ffffff"/>
  </g>
  <g id="axes_1">
   <g id="patch_2">
    <path d="M 57.6 307.584 
L 414.72 307.584 
L 414.72 41.472 
L 57.6 41.472 
z
" style="fill: #ffffff"/>
   </g>
   <g id="matplotlib.axis_1">
    <g id="xtick_1">
     <g id="line2d_1">
      <defs>
       <path id="m04f64c3863" d="M 0 0 
L 0 3.5 
" style="stroke: #000000; stroke-width: 0.8"/>
      </defs>
      <g>
       <use xlink:href="#m04f64c3863" x="83.579921" y="307.584" style="stroke: #000000; stroke-width: 0.8"/>
      </g>
     </g>
     <g id="text_1">
      <!-- 1000 -->
      <g transform="translate(70.854921 322.182437)scale(0.1 -0.1)">
       <defs>
        <path id="DejaVuSans-31" d="M 794 531 
L 1825 531 
L 1825 4091 
L 703 3866 
L 703 4441 
L 1819 4666 
L 2450 4666 
L 2450 531 
L 3481 531 
L 3481 0 
L 794 0 
L 794 531 
z
" transform="scale(0.015625)"/>
        <path id="DejaVuSans-30" d="M 2034 4250 
Q 1547 4250 1301 3770 
Q 1056 3291 1056 2328 
Q 1056 1369 1301 889 
Q 1547 409 2034 409 
Q 2525 409 2770 889 
Q 3016 1369 3016 2328 
Q 3016 3291 2770 3770 
Q 2525 4250 2034 4250 
z
M 2034 4750 
Q 2819 4750 3233 4129 
Q 3647 3509 3647 2328 
Q 3647 1150 3233 529 
Q 2819 -91 2034 -91 
Q 1250 -91 836 529 
Q 422 1150 422 2328 
Q 422 3509 836 4129 
Q 1250 4750 2034 4750 
z
" transform="scale(0.015625)"/>
       </defs>
       <use xlink:href="#DejaVuSans-31"/>
       <use xlink:href="#DejaVuSans-30" x="63.623047"/>
       <use xlink:href="#DejaVuSans-30" x="127.246094"/>
       <use xlink:href="#DejaVuSans-30" x="190.869141"/>
      </g>
     </g>
    </g>
    <g id="xtick_2">
     <g id="line2d_2">
      <g>
       <use xlink:href="#m04f64c3863" x="135.539764" y="307.584" style="stroke: #000000; stroke-width: 0.8"/>
      </g>
     </g>
     <g id="text_2">
      <!-- 2000 -->
      <g transform="translate(122.814764 322.182437)scale(0.1 -0.1)">
       <defs>
        <path id="DejaVuSans-32" d="M 1228 531 
L 3431 531 
L 3431 0 
L 469 0 
L 469 531 
Q 828 903 1448 1529 
Q 2069 2156 2228 2338 
Q 2531 2678 2651 2914 
Q 2772 3150 2772 3378 
Q 2772 3750 2511 3984 
Q 2250 4219 1831 4219 
Q 1534 4219 1204 4116 
Q 875 4013 500 3803 
L 500 4441 
Q 881 4594 1212 4672 
Q 1544 4750 1819 4750 
Q 2544 4750 2975 4387 
Q 3406 4025 3406 3419 
Q 3406 3131 3298 2873 
Q 3191 2616 2906 2266 
Q 2828 2175 2409 1742 
Q 1991 1309 1228 531 
z
" transform="scale(0.015625)"/>
       </defs>
       <use xlink:href="#DejaVuSans-32"/>
       <use xlink:href="#DejaVuSans-30" x="63.623047"/>
       <use xlink:href="#DejaVuSans-30" x="127.246094"/>
       <use xlink:href="#DejaVuSans-30" x="190.869141"/>
      </g>
     </g>
    </g>
    <g id="xtick_3">
     <g id="line2d_3">
      <g>
       <use xlink:href="#m04f64c3863" x="187.499607" y="307.584" style="stroke: #000000; stroke-width: 0.8"/>
      </g>
     </g>
     <g id="text_3">
      <!-- 3000 -->
      <g transform="translate(174.774607 322.182437)scale(0.1 -0.1)">
       <defs>
        <path id="DejaVuSans-33" d="M 2597 2516 
Q 3050 2419 3304 2112 
Q 3559 1806 3559 1356 
Q 3559 666 3084 287 
Q 2609 -91 1734 -91 
Q 1441 -91 1130 -33 
Q 819 25 488 141 
L 488 750 
Q 750 597 1062 519 
Q 1375 441 1716 441 
Q 2309 441 2620 675 
Q 2931 909 2931 1356 
Q 2931 1769 2642 2001 
Q 2353 2234 1838 2234 
L 1294 2234 
L 1294 2753 
L 1863 2753 
Q 2328 2753 2575 2939 
Q 2822 3125 2822 3475 
Q 2822 3834 2567 4026 
Q 2313 4219 1838 4219 
Q 1578 4219 1281 4162 
Q 984 4106 628 3988 
L 628 4550 
Q 988 4650 1302 4700 
Q 1616 4750 1894 4750 
Q 2613 4750 3031 4423 
Q 3450 4097 3450 3541 
Q 3450 3153 3228 2886 
Q 3006 2619 2597 2516 
z
" transform="scale(0.015625)"/>
       </defs>
       <use xlink:href="#DejaVuSans-33"/>
       <use xlink:href="#DejaVuSans-30" x="63.623047"/>
       <use xlink:href="#DejaVuSans-30" x="127.246094"/>
       <use xlink:href="#DejaVuSans-30" x="190.869141"/>
      </g>
     </g>
    </g>
    <g id="xtick_4">
     <g id="line2d_4">
      <g>
       <use xlink:href="#m04f64c3863" x="239.45945" y="307.584" style="stroke: #000000; stroke-width: 0.8"/>
      </g>
     </g>
     <g id="text_4">
      <!-- 4000 -->
      <g transform="translate(226.73445 322.182437)scale(0.1 -0.1)">
       <defs>
        <path id="DejaVuSans-34" d="M 2419 4116 
L 825 1625 
L 2419 1625 
L 2419 4116 
z
M 2253 4666 
L 3047 4666 
L 3047 1625 
L 3713 1625 
L 3713 1100 
L 3047 1100 
L 3047 0 
L 2419 0 
L 2419 1100 
L 313 1100 
L 313 1709 
L 2253 4666 
z
" transform="scale(0.015625)"/>
       </defs>
       <use xlink:href="#DejaVuSans-34"/>
       <use xlink:href="#DejaVuSans-30" x="63.623047"/>
       <use xlink:href="#DejaVuSans-30" x="127.246094"/>
       <use xlink:href="#DejaVuSans-30" x="190.869141"/>
      </g>
     </g>
    </g>
    <g id="xtick_5">
     <g id="line2d_5">
      <g>
       <use xlink:href="#m04f64c3863" x="291.419293" y="307.584" style="stroke: #000000; stroke-width: 0.8"/>
      </g>
     </g>
     <g id="text_5">
      <!-- 5000 -->
      <g transform="translate(278.694293 322.182437)scale(0.1 -0.1)">
       <defs>
        <path id="DejaVuSans-35" d="M 691 4666 
L 3169 4666 
L 3169 4134 
L 1269 4134 
L 1269 2991 
Q 1406 3038 1543 3061 
Q 1681 3084 1819 3084 
Q 2600 3084 3056 2656 
Q 3513 2228 3513 1497 
Q 3513 744 3044 326 
Q 2575 -91 1722 -91 
Q 1428 -91 1123 -41 
Q 819 9 494 109 
L 494 744 
Q 775 591 1075 516 
Q 1375 441 1709 441 
Q 2250 441 2565 725 
Q 2881 1009 2881 1497 
Q 2881 1984 2565 2268 
Q 2250 2553 1709 2553 
Q 1456 2553 1204 2497 
Q 953 2441 691 2322 
L 691 4666 
z
" transform="scale(0.015625)"/>
       </defs>
       <use xlink:href="#DejaVuSans-35"/>
       <use xlink:href="#DejaVuSans-30" x="63.623047"/>
       <use xlink:href="#DejaVuSans-30" x="127.246094"/>
       <use xlink:href="#DejaVuSans-30" x="190.869141"/>
      </g>
     </g>
    </g>
    <g id="xtick_6">
     <g id="line2d_6">
      <g>
       <use xlink:href="#m04f64c3863" x="343.379136" y="307.584" style="stroke: #000000; stroke-width: 0.8"/>
      </g>
     </g>
     <g id="text_6">
      <!-- 6000 -->
      <g transform="translate(330.654136 322.182437)scale(0.1 -0.1)">
       <defs>
        <path id="DejaVuSans-36" d="M 2113 2584 
Q 1688 2584 1439 2293 
Q 1191 2003 1191 1497 
Q 1191 994 1439 701 
Q 1688 409 2113 409 
Q 2538 409 2786 701 
Q 3034 994 3034 1497 
Q 3034 2003 2786 2293 
Q 2538 2584 2113 2584 
z
M 3366 4563 
L 3366 3988 
Q 3128 4100 2886 4159 
Q 2644 4219 2406 4219 
Q 1781 4219 1451 3797 
Q 1122 3375 1075 2522 
Q 1259 2794 1537 2939 
Q 1816 3084 2150 3084 
Q 2853 3084 3261 2657 
Q 3669 2231 3669 1497 
Q 3669 778 3244 343 
Q 2819 -91 2113 -91 
Q 1303 -91 875 529 
Q 447 1150 447 2328 
Q 447 3434 972 4092 
Q 1497 4750 2381 4750 
Q 2619 4750 2861 4703 
Q 3103 4656 3366 4563 
z
" transform="scale(0.015625)"/>
       </defs>
       <use xlink:href="#DejaVuSans-36"/>
       <use xlink:href="#DejaVuSans-30" x="63.623047"/>
       <use xlink:href="#DejaVuSans-30" x="127.246094"/>
       <use xlink:href="#DejaVuSans-30" x="190.869141"/>
      </g>
     </g>
    </g>
    <g id="xtick_7">
     <g id="line2d_7">
      <g>
       <use xlink:href="#m04f64c3863" x="395.338979" y="307.584" style="stroke: #000000; stroke-width: 0.8"/>
      </g>
     </g>
     <g id="text_7">
      <!-- 7000 -->
      <g transform="translate(382.613979 322.182437)scale(0.1 -0.1)">
       <defs>
        <path id="DejaVuSans-37" d="M 525 4666 
L 3525 4666 
L 3525 4397 
L 1831 0 
L 1172 0 
L 2766 4134 
L 525 4134 
L 525 4666 
z
" transform="scale(0.015625)"/>
       </defs>
       <use xlink:href="#DejaVuSans-37"/>
       <use xlink:href="#DejaVuSans-30" x="63.623047"/>
       <use xlink:href="#DejaVuSans-30" x="127.246094"/>
       <use xlink:href="#DejaVuSans-30" x="190.869141"/>
      </g>
     </g>
    </g>
    <g id="text_8">
     <!-- step -->
     <g transform="translate(225.344375 335.860562)scale(0.1 -0.1)">
      <defs>
       <path id="DejaVuSans-73" d="M 2834 3397 
L 2834 2853 
Q 2591 2978 2328 3040 
Q 2066 3103 1784 3103 
Q 1356 3103 1142 2972 
Q 928 2841 928 2578 
Q 928 2378 1081 2264 
Q 1234 2150 1697 2047 
L 1894 2003 
Q 2506 1872 2764 1633 
Q 3022 1394 3022 966 
Q 3022 478 2636 193 
Q 2250 -91 1575 -91 
Q 1294 -91 989 -36 
Q 684 19 347 128 
L 347 722 
Q 666 556 975 473 
Q 1284 391 1588 391 
Q 1994 391 2212 530 
Q 2431 669 2431 922 
Q 2431 1156 2273 1281 
Q 2116 1406 1581 1522 
L 1381 1569 
Q 847 1681 609 1914 
Q 372 2147 372 2553 
Q 372 3047 722 3315 
Q 1072 3584 1716 3584 
Q 2034 3584 2315 3537 
Q 2597 3491 2834 3397 
z
" transform="scale(0.015625)"/>
       <path id="DejaVuSans-74" d="M 1172 4494 
L 1172 3500 
L 2356 3500 
L 2356 3053 
L 1172 3053 
L 1172 1153 
Q 1172 725 1289 603 
Q 1406 481 1766 481 
L 2356 481 
L 2356 0 
L 1766 0 
Q 1100 0 847 248 
Q 594 497 594 1153 
L 594 3053 
L 172 3053 
L 172 3500 
L 594 3500 
L 594 4494 
L 1172 4494 
z
" transform="scale(0.015625)"/>
       <path id="DejaVuSans-65" d="M 3597 1894 
L 3597 1613 
L 953 1613 
Q 991 1019 1311 708 
Q 1631 397 2203 397 
Q 2534 397 2845 478 
Q 3156 559 3463 722 
L 3463 178 
Q 3153 47 2828 -22 
Q 2503 -91 2169 -91 
Q 1331 -91 842 396 
Q 353 884 353 1716 
Q 353 2575 817 3079 
Q 1281 3584 2069 3584 
Q 2775 3584 3186 3129 
Q 3597 2675 3597 1894 
z
M 3022 2063 
Q 3016 2534 2758 2815 
Q 2500 3097 2075 3097 
Q 1594 3097 1305 2825 
Q 1016 2553 972 2059 
L 3022 2063 
z
" transform="scale(0.015625)"/>
       <path id="DejaVuSans-70" d="M 1159 525 
L 1159 -1331 
L 581 -1331 
L 581 3500 
L 1159 3500 
L 1159 2969 
Q 1341 3281 1617 3432 
Q 1894 3584 2278 3584 
Q 2916 3584 3314 3078 
Q 3713 2572 3713 1747 
Q 3713 922 3314 415 
Q 2916 -91 2278 -91 
Q 1894 -91 1617 61 
Q 1341 213 1159 525 
z
M 3116 1747 
Q 3116 2381 2855 2742 
Q 2594 3103 2138 3103 
Q 1681 3103 1420 2742 
Q 1159 2381 1159 1747 
Q 1159 1113 1420 752 
Q 1681 391 2138 391 
Q 2594 391 2855 752 
Q 3116 1113 3116 1747 
z
" transform="scale(0.015625)"/>
      </defs>
      <use xlink:href="#DejaVuSans-73"/>
      <use xlink:href="#DejaVuSans-74" x="52.099609"/>
      <use xlink:href="#DejaVuSans-65" x="91.308594"/>
      <use xlink:href="#DejaVuSans-70" x="152.832031"/>
     </g>
    </g>
   </g>
   <g id="matplotlib.axis_2">
    <g id="ytick_1">
     <g id="line2d_8">
      <defs>
       <path id="mb5a972f774" d="M 0 0 
L -3.5 0 
" style="stroke: #000000; stroke-width: 0.8"/>
      </defs>
      <g>
       <use xlink:href="#mb5a972f774" x="57.6" y="300.436626" style="stroke: #000000; stroke-width: 0.8"/>
      </g>
     </g>
     <g id="text_9">
      <!-- 0 -->
      <g transform="translate(44.2375 304.235845)scale(0.1 -0.1)">
       <use xlink:href="#DejaVuSans-30"/>
      </g>
     </g>
    </g>
    <g id="ytick_2">
     <g id="line2d_9">
      <g>
       <use xlink:href="#mb5a972f774" x="57.6" y="257.305985" style="stroke: #000000; stroke-width: 0.8"/>
      </g>
     </g>
     <g id="text_10">
      <!-- 1000 -->
      <g transform="translate(25.15 261.105204)scale(0.1 -0.1)">
       <use xlink:href="#DejaVuSans-31"/>
       <use xlink:href="#DejaVuSans-30" x="63.623047"/>
       <use xlink:href="#DejaVuSans-30" x="127.246094"/>
       <use xlink:href="#DejaVuSans-30" x="190.869141"/>
      </g>
     </g>
    </g>
    <g id="ytick_3">
     <g id="line2d_10">
      <g>
       <use xlink:href="#mb5a972f774" x="57.6" y="214.175344" style="stroke: #000000; stroke-width: 0.8"/>
      </g>
     </g>
     <g id="text_11">
      <!-- 2000 -->
      <g transform="translate(25.15 217.974562)scale(0.1 -0.1)">
       <use xlink:href="#DejaVuSans-32"/>
       <use xlink:href="#DejaVuSans-30" x="63.623047"/>
       <use xlink:href="#DejaVuSans-30" x="127.246094"/>
       <use xlink:href="#DejaVuSans-30" x="190.869141"/>
      </g>
     </g>
    </g>
    <g id="ytick_4">
     <g id="line2d_11">
      <g>
       <use xlink:href="#mb5a972f774" x="57.6" y="171.044702" style="stroke: #000000; stroke-width: 0.8"/>
      </g>
     </g>
     <g id="text_12">
      <!-- 3000 -->
      <g transform="translate(25.15 174.843921)scale(0.1 -0.1)">
       <use xlink:href="#DejaVuSans-33"/>
       <use xlink:href="#DejaVuSans-30" x="63.623047"/>
       <use xlink:href="#DejaVuSans-30" x="127.246094"/>
       <use xlink:href="#DejaVuSans-30" x="190.869141"/>
      </g>
     </g>
    </g>
    <g id="ytick_5">
     <g id="line2d_12">
      <g>
       <use xlink:href="#mb5a972f774" x="57.6" y="127.914061" style="stroke: #000000; stroke-width: 0.8"/>
      </g>
     </g>
     <g id="text_13">
      <!-- 4000 -->
      <g transform="translate(25.15 131.71328)scale(0.1 -0.1)">
       <use xlink:href="#DejaVuSans-34"/>
       <use xlink:href="#DejaVuSans-30" x="63.623047"/>
       <use xlink:href="#DejaVuSans-30" x="127.246094"/>
       <use xlink:href="#DejaVuSans-30" x="190.869141"/>
      </g>
     </g>
    </g>
    <g id="ytick_6">
     <g id="line2d_13">
      <g>
       <use xlink:href="#mb5a972f774" x="57.6" y="84.783419" style="stroke: #000000; stroke-width: 0.8"/>
      </g>
     </g>
     <g id="text_14">
      <!-- 5000 -->
      <g transform="translate(25.15 88.582638)scale(0.1 -0.1)">
       <use xlink:href="#DejaVuSans-35"/>
       <use xlink:href="#DejaVuSans-30" x="63.623047"/>
       <use xlink:href="#DejaVuSans-30" x="127.246094"/>
       <use xlink:href="#DejaVuSans-30" x="190.869141"/>
      </g>
     </g>
    </g>
    <g id="ytick_7">
     <g id="line2d_14">
      <g>
       <use xlink:href="#mb5a972f774" x="57.6" y="41.652778" style="stroke: #000000; stroke-width: 0.8"/>
      </g>
     </g>
     <g id="text_15">
      <!-- 6000 -->
      <g transform="translate(25.15 45.451997)scale(0.1 -0.1)">
       <use xlink:href="#DejaVuSans-36"/>
       <use xlink:href="#DejaVuSans-30" x="63.623047"/>
       <use xlink:href="#DejaVuSans-30" x="127.246094"/>
       <use xlink:href="#DejaVuSans-30" x="190.869141"/>
      </g>
     </g>
    </g>
    <g id="text_16">
     <!-- $\chi^2$ -->
     <g transform="translate(19.05 180.078)rotate(-90)scale(0.1 -0.1)">
      <defs>
       <path id="DejaVuSans-Oblique-3c7" d="M 1922 -781 
L 1691 416 
L 394 -1334 
L -284 -1334 
L 1553 1141 
L 1269 2613 
Q 1194 3006 713 3006 
L 559 3006 
L 653 3500 
L 872 3494 
Q 1675 3472 1775 2950 
L 2006 1753 
L 3303 3503 
L 3981 3503 
L 2144 1028 
L 2428 -444 
Q 2503 -838 2984 -838 
L 3138 -838 
L 3044 -1331 
L 2825 -1325 
Q 2022 -1303 1922 -781 
z
" transform="scale(0.015625)"/>
      </defs>
      <use xlink:href="#DejaVuSans-Oblique-3c7" transform="translate(0 0.765625)"/>
      <use xlink:href="#DejaVuSans-32" transform="translate(63.652396 39.046875)scale(0.7)"/>
     </g>
    </g>
   </g>
   <g id="line2d_15">
    <path d="M 57.6 53.568 
L 58.379398 61.286717 
L 58.535277 61.77058 
L 58.743117 63.12677 
L 58.795076 63.134155 
L 59.574474 66.269358 
L 59.886233 66.557923 
L 60.197992 68.897305 
L 60.301912 68.938465 
L 60.509751 70.703066 
L 60.665631 70.891696 
L 60.87347 71.811063 
L 61.133269 72.646526 
L 61.237189 72.943336 
L 61.445028 73.878906 
L 61.704828 74.759789 
L 61.860707 76.445985 
L 62.068546 76.963215 
L 62.328346 77.916159 
L 62.432265 77.923546 
L 62.640105 78.260025 
L 62.692065 78.309154 
L 62.847944 78.757859 
L 63.055784 78.857648 
L 63.419502 80.361939 
L 63.471462 80.368284 
L 63.627342 80.753527 
L 63.679302 80.751094 
L 63.887141 81.143195 
L 64.043021 81.289866 
L 64.25086 81.62261 
L 64.35478 81.693304 
L 64.510659 82.228873 
L 64.718498 82.599307 
L 64.926338 82.80383 
L 65.082217 82.893396 
L 65.134177 82.89734 
L 65.290057 83.203555 
L 65.445936 83.21974 
L 65.601816 83.462539 
L 65.705735 83.5597 
L 66.225334 84.084186 
L 66.381213 84.198223 
L 66.537093 84.476695 
L 67.056691 84.861852 
L 67.264531 86.035216 
L 67.68021 86.198097 
L 67.836089 86.338707 
L 67.888049 86.341811 
L 67.940009 86.468981 
L 68.095888 87.030187 
L 68.615487 87.332157 
L 69.083125 90.154214 
L 69.706643 90.458425 
L 69.862523 91.631298 
L 69.966443 91.632124 
L 70.122322 92.142854 
L 70.226242 92.2097 
L 70.382121 92.378337 
L 70.641921 92.59041 
L 70.7978 93.617196 
L 71.005639 93.652383 
L 71.213479 93.995364 
L 71.473278 94.087471 
L 71.733077 94.618809 
L 71.888957 95.83796 
L 71.940917 95.945827 
L 72.148756 96.723124 
L 72.252676 96.932344 
L 72.408555 97.828541 
L 72.668354 97.94077 
L 73.032073 98.128959 
L 73.084033 98.244768 
L 73.239913 98.747901 
L 73.291873 99.103397 
L 73.499712 101.499526 
L 73.759511 103.013359 
L 73.811471 103.020316 
L 74.12323 103.62004 
L 74.27911 103.725817 
L 74.434989 104.279344 
L 74.590869 104.732072 
L 74.746748 104.739672 
L 74.798708 104.869044 
L 75.006547 106.171707 
L 75.733985 112.698631 
L 75.941825 112.793985 
L 76.253584 113.777575 
L 76.513383 116.410148 
L 76.565343 116.412236 
L 76.669262 117.118012 
L 76.825142 118.7614 
L 76.981021 119.26556 
L 77.240821 119.486328 
L 77.3967 119.642748 
L 77.50062 119.671912 
L 77.708459 119.993754 
L 78.020218 120.074469 
L 78.228058 120.261647 
L 78.487857 120.333046 
L 78.747656 120.785305 
L 78.851576 120.9469 
L 79.059415 121.105962 
L 79.319214 121.389681 
L 79.475094 121.626092 
L 79.890773 121.723333 
L 80.202532 122.261006 
L 80.358411 122.289614 
L 80.462331 122.414745 
L 80.61821 122.811572 
L 80.981929 123.392889 
L 81.085849 123.445667 
L 81.137809 123.533402 
L 81.293688 124.476672 
L 81.397608 124.614364 
L 81.553488 126.241081 
L 81.605447 126.24664 
L 81.761327 126.9296 
L 81.917206 127.242374 
L 82.125046 127.675385 
L 82.177006 127.696755 
L 82.332885 127.938972 
L 82.436805 127.941827 
L 82.592684 128.064605 
L 82.696604 128.17819 
L 82.852484 128.342238 
L 82.956403 128.374284 
L 83.112283 128.817751 
L 83.372082 129.238493 
L 83.683841 129.244071 
L 83.839721 129.573834 
L 84.04756 129.617584 
L 84.20344 129.764173 
L 84.359319 129.870758 
L 85.034797 130.108992 
L 85.554395 130.246755 
L 85.762235 130.338952 
L 86.073994 130.440046 
L 86.281833 130.545766 
L 86.437713 130.5932 
L 86.645552 130.770253 
L 86.957311 130.83243 
L 87.113191 131.255535 
L 87.47691 131.286015 
L 87.684749 131.567068 
L 88.048468 131.663646 
L 88.204347 132.583871 
L 88.516107 132.647576 
L 88.723946 132.950805 
L 88.983745 133.001048 
L 89.243544 133.300975 
L 89.347464 133.334452 
L 89.503344 133.432162 
L 89.711183 133.532642 
L 89.867062 133.660756 
L 90.022942 135.444909 
L 90.334701 136.254928 
L 90.438621 136.259791 
L 90.5945 138.086253 
L 90.75038 138.104055 
L 90.906259 138.387074 
L 90.958219 138.393191 
L 91.218018 141.188063 
L 91.321938 141.304386 
L 91.893496 144.274787 
L 91.945456 144.283696 
L 92.101336 144.567028 
L 92.153296 144.570101 
L 92.309175 144.883046 
L 92.413095 144.917647 
L 92.880733 145.690445 
L 92.932693 145.690802 
L 93.140533 146.400834 
L 93.244452 146.414949 
L 93.400332 146.899395 
L 93.712091 147.002196 
L 93.86797 147.430235 
L 94.179729 147.814632 
L 94.491488 147.931119 
L 94.647368 148.467812 
L 95.530685 151.185264 
L 95.686565 152.240974 
L 95.738525 152.247345 
L 95.946364 153.617751 
L 96.102244 154.159486 
L 96.258123 154.252986 
L 96.414003 154.60499 
L 96.517922 154.64339 
L 96.933601 155.515446 
L 97.037521 155.645574 
L 97.1934 155.953375 
L 97.40124 155.987118 
L 97.609079 156.454225 
L 97.816918 156.449626 
L 98.024758 156.904564 
L 98.076718 156.919289 
L 98.232597 157.542972 
L 98.336517 157.580408 
L 98.856115 158.244003 
L 98.960035 158.278241 
L 99.479633 159.086331 
L 99.687473 159.198405 
L 99.947272 159.398183 
L 100.207071 159.500304 
L 100.72667 160.198804 
L 100.830589 160.211484 
L 101.038429 160.550601 
L 101.090388 160.562626 
L 101.246268 160.714325 
L 101.713907 160.891164 
L 101.765866 160.999635 
L 101.921746 161.414019 
L 102.077625 161.451488 
L 102.285465 161.796503 
L 102.493304 161.983953 
L 102.753103 162.022145 
L 102.908983 162.160603 
L 103.012903 162.203822 
L 103.168782 162.359093 
L 103.324662 162.475386 
L 103.532501 162.603949 
L 103.89622 164.246638 
L 104.00014 164.361437 
L 104.156019 165.070641 
L 104.259939 165.183996 
L 104.415818 165.606734 
L 104.571698 165.816773 
L 104.623658 165.831991 
L 104.779537 166.161544 
L 105.195216 166.336748 
L 105.351096 166.462564 
L 105.714814 166.699983 
L 105.974614 166.881982 
L 106.286373 166.971761 
L 106.494212 167.115716 
L 108.001048 167.446067 
L 108.780445 167.535399 
L 108.988285 167.5875 
L 109.196124 167.58716 
L 109.352003 167.810366 
L 109.611803 167.856521 
L 110.287281 167.955092 
L 110.49512 168.070256 
L 110.54708 168.072575 
L 110.702959 168.21573 
L 111.014718 168.32094 
L 111.066678 168.592012 
L 111.222558 169.471176 
L 111.794116 169.607958 
L 111.949996 170.433554 
L 112.885273 170.925955 
L 113.145072 172.102875 
L 113.352911 172.172362 
L 113.612711 172.23689 
L 113.76859 172.327286 
L 113.87251 172.439289 
L 114.132309 172.532203 
L 114.288189 172.530697 
L 114.444068 173.006153 
L 114.703867 173.101673 
L 115.015626 173.158524 
L 115.379345 173.201658 
L 115.535225 173.385419 
L 115.639144 173.435354 
L 115.795024 173.734597 
L 118.237137 174.46753 
L 118.393016 174.577392 
L 118.548896 174.602945 
L 118.808695 174.926821 
L 119.640052 175.024036 
L 119.795932 175.128075 
L 120.055731 175.197706 
L 120.211611 175.367241 
L 120.47141 175.382473 
L 120.627289 176.616817 
L 121.198848 176.755201 
L 121.354727 177.002246 
L 121.614526 177.080353 
L 122.082165 177.163555 
L 122.238045 177.285693 
L 123.589 177.441236 
L 125.147796 177.643431 
L 126.654631 177.887069 
L 126.810511 178.048368 
L 127.382069 178.094769 
L 127.641868 178.14294 
L 128.161467 178.159018 
L 128.317346 178.273914 
L 129.356543 178.340166 
L 129.512423 178.624358 
L 129.720262 178.716575 
L 129.876141 178.826474 
L 130.29182 178.906961 
L 130.4477 179.69342 
L 131.538856 179.771535 
L 131.746696 179.940071 
L 132.266294 179.986407 
L 132.578053 180.172825 
L 132.889812 180.170759 
L 133.045692 180.310674 
L 133.72117 180.366176 
L 133.929009 180.595575 
L 134.084889 180.602736 
L 134.240768 180.76547 
L 134.396648 180.842995 
L 134.812326 180.860837 
L 134.968206 181.10359 
L 135.643684 181.269115 
L 135.799564 181.511857 
L 136.89072 181.606393 
L 137.254439 181.905651 
L 137.566198 181.93162 
L 138.085797 182.029322 
L 138.189716 182.112214 
L 138.345596 182.399293 
L 138.449515 182.400833 
L 138.605395 182.875956 
L 139.073034 182.987108 
L 139.228913 183.590591 
L 139.488712 183.609428 
L 139.644592 184.175369 
L 140.008311 184.306286 
L 141.255347 184.57621 
L 141.411227 184.804467 
L 141.722986 184.807673 
L 141.930825 185.580219 
L 143.021982 185.697803 
L 143.177861 186.064961 
L 143.853339 186.13888 
L 144.788616 186.194381 
L 144.996456 186.233833 
L 145.152335 186.348574 
L 145.671934 186.466528 
L 145.983693 186.560423 
L 146.139572 187.355103 
L 146.347412 187.454765 
L 146.555251 187.616188 
L 146.711131 187.950662 
L 146.76309 188.080254 
L 146.91897 188.546511 
L 147.02289 188.546456 
L 147.230729 188.974978 
L 147.386608 189.160918 
L 147.594448 189.181784 
L 147.750327 189.641522 
L 147.802287 189.682811 
L 147.958167 190.143474 
L 148.114046 190.5053 
L 148.269926 190.818052 
L 148.529725 191.862318 
L 148.685605 193.356705 
L 148.737564 193.375685 
L 148.893444 193.617558 
L 148.997364 193.628675 
L 149.153243 193.897867 
L 149.776761 194.257256 
L 150.608119 194.445902 
L 150.763998 194.579932 
L 152.478673 194.66976 
L 152.634553 194.989348 
L 152.842392 194.99427 
L 152.998271 195.181701 
L 153.258071 195.216279 
L 153.62179 195.31608 
L 153.829629 195.54277 
L 154.089428 195.553896 
L 154.245308 195.831678 
L 154.401187 195.865395 
L 154.557067 196.070699 
L 154.764906 196.077124 
L 154.920786 196.245602 
L 156.219782 196.268076 
L 156.375661 196.8714 
L 156.583501 196.89077 
L 156.73938 197.131832 
L 157.466818 197.158975 
L 157.622698 197.232823 
L 159.233453 197.379979 
L 159.389332 197.516366 
L 160.688328 197.600506 
L 161.259887 197.836325 
L 161.467726 198.340322 
L 162.766722 198.39729 
L 162.974561 198.743964 
L 164.221598 198.847136 
L 164.429437 198.916891 
L 165.312754 198.985433 
L 165.468634 199.161074 
L 165.936272 199.416084 
L 166.196072 199.422161 
L 166.351951 199.612349 
L 166.403911 199.614509 
L 166.55979 199.798454 
L 166.76763 199.972038 
L 166.923509 200.153658 
L 167.754867 200.401246 
L 167.910746 200.664554 
L 168.222505 200.757016 
L 168.378385 200.824714 
L 169.88522 200.875915 
L 170.248939 200.896628 
L 171.547935 200.928457 
L 171.859694 200.96222 
L 173.678289 201.000497 
L 173.834168 201.377272 
L 175.808643 201.457356 
L 179.497791 201.551966 
L 179.653671 201.662756 
L 179.757591 201.666717 
L 180.01739 202.690835 
L 181.316386 202.710015 
L 181.472265 203.153073 
L 183.34282 203.191058 
L 183.498699 203.428447 
L 183.654579 203.429682 
L 183.810458 203.885804 
L 186.096691 204.111453 
L 186.51237 204.195829 
L 187.447647 204.265197 
L 187.603527 204.413352 
L 187.759406 204.664831 
L 188.902523 204.779119 
L 190.825037 205.005771 
L 192.279913 205.044785 
L 193.734788 205.310855 
L 193.994588 205.335892 
L 194.150467 205.444278 
L 194.929865 205.456522 
L 196.38474 205.571825 
L 197.060218 205.600518 
L 197.216098 205.92229 
L 197.423937 205.950566 
L 197.579817 206.113616 
L 198.359214 206.143594 
L 200.229769 206.283219 
L 200.385648 206.503472 
L 201.372885 206.578563 
L 201.528765 207.548963 
L 205.737512 207.811203 
L 205.997311 207.839938 
L 207.244347 207.910361 
L 207.400227 207.987007 
L 209.79038 208.051688 
L 210.102139 208.434692 
L 211.089376 208.583791 
L 211.245255 208.712746 
L 211.764854 208.752202 
L 211.920733 209.25528 
L 212.284452 209.325853 
L 212.648171 210.180919 
L 215.194203 210.310522 
L 215.350083 210.44787 
L 215.713802 210.576224 
L 216.077521 210.764182 
L 216.44124 210.866586 
L 216.701039 210.89902 
L 216.856918 211.639342 
L 217.064758 211.639867 
L 217.220637 211.788762 
L 217.636316 211.791069 
L 217.792196 212.269145 
L 218.051995 212.331726 
L 218.207874 212.462333 
L 218.623553 212.670496 
L 220.130388 212.706618 
L 220.182348 212.772324 
L 220.338228 213.192568 
L 221.637224 213.304544 
L 221.793103 213.48745 
L 222.104863 213.498107 
L 222.260742 213.879395 
L 222.416622 214.032279 
L 222.8323 214.044254 
L 222.98818 214.349477 
L 223.0921 214.349079 
L 223.247979 214.602895 
L 223.767577 214.653652 
L 223.923457 214.839206 
L 224.079337 214.948362 
L 225.638132 215.102777 
L 225.845971 215.146422 
L 226.885168 215.208889 
L 227.041048 215.314997 
L 228.340044 215.423166 
L 228.495923 215.538734 
L 229.067481 215.664435 
L 229.223361 215.718455 
L 229.379241 216.303646 
L 231.145875 216.399433 
L 231.301755 217.317142 
L 232.80859 217.349755 
L 232.96447 217.431439 
L 233.536028 217.43315 
L 233.691907 217.948385 
L 235.770301 217.978989 
L 235.926181 218.334842 
L 239.56337 218.485815 
L 239.719249 218.673344 
L 239.979048 218.671785 
L 240.134928 219.508526 
L 240.446687 219.575624 
L 240.602567 219.822826 
L 241.174125 219.889645 
L 241.381964 219.939662 
L 241.485884 219.940205 
L 241.641763 220.329203 
L 243.979956 220.379628 
L 244.135836 220.591202 
L 246.681868 220.720803 
L 247.045587 220.752766 
L 249.2279 220.902587 
L 249.43574 220.942416 
L 252.969009 221.087561 
L 253.644487 221.110006 
L 256.450319 221.18924 
L 256.606198 221.314631 
L 256.710118 221.313254 
L 256.865997 221.430366 
L 258.216953 221.451503 
L 258.372833 221.556874 
L 260.607106 221.648194 
L 261.074745 221.688605 
L 262.425701 221.710507 
L 262.789419 221.753842 
L 265.85505 221.92619 
L 266.114849 221.963506 
L 269.2844 222.105128 
L 269.700079 222.189456 
L 270.167717 222.279223 
L 272.194151 222.354314 
L 272.350031 222.553763 
L 275.77938 222.683325 
L 275.93526 222.810773 
L 276.766617 222.934923 
L 277.546015 223.028584 
L 277.701894 223.474582 
L 278.013653 223.599566 
L 278.221493 223.610305 
L 278.377372 224.489383 
L 278.896971 224.544476 
L 279.05285 224.607575 
L 279.780288 224.607688 
L 279.936168 224.842656 
L 281.391043 224.956256 
L 281.443003 225.020402 
L 281.598883 226.473825 
L 282.170441 226.538978 
L 282.37828 226.579383 
L 283.001798 226.601268 
L 283.365517 226.68723 
L 283.521397 226.696305 
L 283.677276 226.933203 
L 284.612553 227.019292 
L 284.872353 227.05794 
L 285.288031 227.133754 
L 285.443911 227.187417 
L 285.59979 227.62756 
L 288.613461 227.707947 
L 289.13306 227.712523 
L 289.288939 227.863568 
L 289.964417 227.891232 
L 290.120297 228.074013 
L 292.35457 228.157622 
L 292.874168 228.179896 
L 293.861405 228.276398 
L 294.121205 228.340732 
L 295.83588 228.366419 
L 295.991759 228.46114 
L 297.550554 228.576502 
L 297.706434 228.686242 
L 298.797591 228.754931 
L 298.95347 228.822438 
L 305.812169 229.011458 
L 305.968049 229.156468 
L 309.189559 229.199942 
L 311.164033 229.206775 
L 313.969865 229.304338 
L 314.125744 229.391542 
L 314.437503 229.415427 
L 316.256098 229.439942 
L 316.411977 229.690086 
L 316.515897 229.691977 
L 316.671777 229.972323 
L 317.659014 230.0128 
L 317.814893 230.344604 
L 317.970773 230.510902 
L 318.126652 230.61871 
L 318.282532 230.640509 
L 318.438411 230.856654 
L 318.80213 230.861646 
L 318.95801 231.269162 
L 319.113889 231.337759 
L 319.321729 232.583052 
L 319.685447 232.60967 
L 319.841327 232.824608 
L 320.464845 232.823146 
L 320.620725 233.034767 
L 322.17952 233.183231 
L 323.426556 233.257231 
L 323.582436 233.370153 
L 337.663553 233.868372 
L 337.819433 233.955494 
L 340.833103 234.034852 
L 343.638935 234.117983 
L 343.794814 234.589525 
L 344.262453 234.616341 
L 344.418333 234.755004 
L 344.470292 234.75574 
L 344.626172 235.892778 
L 344.782052 236.139634 
L 358.863169 236.5087 
L 359.019048 236.580692 
L 362.967997 236.651278 
L 363.123876 236.763679 
L 364.370912 236.857742 
L 364.526792 236.910295 
L 366.033627 236.991174 
L 368.943378 237.108785 
L 369.099258 237.29279 
L 379.906905 237.481425 
L 380.166704 237.506632 
L 393.884103 237.871101 
L 403.548634 237.915343 
L 414.66804 237.997681 
L 414.66804 237.997681 
" clip-path="url(#pe62b739a78)" style="fill: none; stroke: #1f77b4; stroke-opacity: 0.3; stroke-width: 1.5; stroke-linecap: square"/>
   </g>
   <g id="line2d_16">
    <path d="M 57.6 294.063677 
L 62.432265 294.148909 
L 62.536185 294.206319 
L 62.692065 294.148909 
L 65.030258 294.138388 
L 65.134177 294.265276 
L 65.290057 294.209236 
L 73.291873 294.317963 
L 73.603632 294.339915 
L 161.415766 294.412772 
L 161.467726 294.468507 
L 161.519686 294.367532 
L 164.481397 294.355172 
L 192.175993 294.353781 
L 192.331873 294.486724 
L 201.268966 294.486724 
L 201.424845 294.371213 
L 207.504147 294.408378 
L 207.660026 294.504532 
L 210.258018 294.497682 
L 210.413898 294.345674 
L 211.297215 294.377858 
L 211.453095 294.477832 
L 211.660934 294.440691 
L 211.868773 294.447342 
L 212.024653 294.673591 
L 215.454003 294.773018 
L 215.609882 294.861207 
L 216.2334 294.773018 
L 216.38928 294.70881 
L 217.532396 294.70881 
L 217.688276 294.827369 
L 225.845971 294.87476 
L 226.001851 294.941827 
L 232.029192 294.921976 
L 232.185072 294.827687 
L 234.419345 294.877381 
L 234.575225 295.037871 
L 235.094823 295.025495 
L 239.30357 295.042879 
L 239.45945 294.877381 
L 239.875129 294.880541 
L 240.031008 295.007478 
L 255.98268 295.107624 
L 256.294439 295.218773 
L 256.450319 295.154729 
L 261.126704 295.119371 
L 261.178664 295.3145 
L 261.282584 295.28422 
L 262.165901 295.28422 
L 262.321781 295.131949 
L 266.582488 295.17201 
L 266.738368 295.275659 
L 271.674553 295.281046 
L 271.830432 295.412023 
L 273.025509 295.412023 
L 273.181388 295.283966 
L 285.963509 295.183452 
L 286.327228 295.166386 
L 305.70825 295.214217 
L 305.864129 295.348936 
L 306.020009 295.223134 
L 308.669961 295.264013 
L 308.82584 295.367122 
L 311.215993 295.361689 
L 311.371873 295.194304 
L 314.281624 295.246393 
L 314.437503 295.307374 
L 351.692711 295.351621 
L 351.84859 295.463245 
L 368.37182 295.461203 
L 368.5277 295.264935 
L 369.774736 295.246977 
L 369.930615 295.440442 
L 373.931523 295.440442 
L 374.087403 295.255614 
L 385.362689 295.323702 
L 385.570528 295.371308 
L 385.934247 295.354163 
L 414.66804 295.334046 
L 414.66804 295.334046 
" clip-path="url(#pe62b739a78)" style="fill: none; stroke: #ff7f0e; stroke-opacity: 0.3; stroke-width: 1.5; stroke-linecap: square"/>
   </g>
   <g id="patch_3">
    <path d="M 57.6 307.584 
L 57.6 41.472 
" style="fill: none; stroke: #000000; stroke-width: 0.8; stroke-linejoin: miter; stroke-linecap: square"/>
   </g>
   <g id="patch_4">
    <path d="M 414.72 307.584 
L 414.72 41.472 
" style="fill: none; stroke: #000000; stroke-width: 0.8; stroke-linejoin: miter; stroke-linecap: square"/>
   </g>
   <g id="patch_5">
    <path d="M 57.6 307.584 
L 414.72 307.584 
" style="fill: none; stroke: #000000; stroke-width: 0.8; stroke-linejoin: miter; stroke-linecap: square"/>
   </g>
   <g id="patch_6">
    <path d="M 57.6 41.472 
L 414.72 41.472 
" style="fill: none; stroke: #000000; stroke-width: 0.8; stroke-linejoin: miter; stroke-linecap: square"/>
   </g>
   <g id="text_17">
    <!-- Best $\chi^2$ by Step -->
    <g transform="translate(189.42 35.472)scale(0.12 -0.12)">
     <defs>
      <path id="DejaVuSans-42" d="M 1259 2228 
L 1259 519 
L 2272 519 
Q 2781 519 3026 730 
Q 3272 941 3272 1375 
Q 3272 1813 3026 2020 
Q 2781 2228 2272 2228 
L 1259 2228 
z
M 1259 4147 
L 1259 2741 
L 2194 2741 
Q 2656 2741 2882 2914 
Q 3109 3088 3109 3444 
Q 3109 3797 2882 3972 
Q 2656 4147 2194 4147 
L 1259 4147 
z
M 628 4666 
L 2241 4666 
Q 2963 4666 3353 4366 
Q 3744 4066 3744 3513 
Q 3744 3084 3544 2831 
Q 3344 2578 2956 2516 
Q 3422 2416 3680 2098 
Q 3938 1781 3938 1306 
Q 3938 681 3513 340 
Q 3088 0 2303 0 
L 628 0 
L 628 4666 
z
" transform="scale(0.015625)"/>
      <path id="DejaVuSans-20" transform="scale(0.015625)"/>
      <path id="DejaVuSans-62" d="M 3116 1747 
Q 3116 2381 2855 2742 
Q 2594 3103 2138 3103 
Q 1681 3103 1420 2742 
Q 1159 2381 1159 1747 
Q 1159 1113 1420 752 
Q 1681 391 2138 391 
Q 2594 391 2855 752 
Q 3116 1113 3116 1747 
z
M 1159 2969 
Q 1341 3281 1617 3432 
Q 1894 3584 2278 3584 
Q 2916 3584 3314 3078 
Q 3713 2572 3713 1747 
Q 3713 922 3314 415 
Q 2916 -91 2278 -91 
Q 1894 -91 1617 61 
Q 1341 213 1159 525 
L 1159 0 
L 581 0 
L 581 4863 
L 1159 4863 
L 1159 2969 
z
" transform="scale(0.015625)"/>
      <path id="DejaVuSans-79" d="M 2059 -325 
Q 1816 -950 1584 -1140 
Q 1353 -1331 966 -1331 
L 506 -1331 
L 506 -850 
L 844 -850 
Q 1081 -850 1212 -737 
Q 1344 -625 1503 -206 
L 1606 56 
L 191 3500 
L 800 3500 
L 1894 763 
L 2988 3500 
L 3597 3500 
L 2059 -325 
z
" transform="scale(0.015625)"/>
      <path id="DejaVuSans-53" d="M 3425 4513 
L 3425 3897 
Q 3066 4069 2747 4153 
Q 2428 4238 2131 4238 
Q 1616 4238 1336 4038 
Q 1056 3838 1056 3469 
Q 1056 3159 1242 3001 
Q 1428 2844 1947 2747 
L 2328 2669 
Q 3034 2534 3370 2195 
Q 3706 1856 3706 1288 
Q 3706 609 3251 259 
Q 2797 -91 1919 -91 
Q 1588 -91 1214 -16 
Q 841 59 441 206 
L 441 856 
Q 825 641 1194 531 
Q 1563 422 1919 422 
Q 2459 422 2753 634 
Q 3047 847 3047 1241 
Q 3047 1584 2836 1778 
Q 2625 1972 2144 2069 
L 1759 2144 
Q 1053 2284 737 2584 
Q 422 2884 422 3419 
Q 422 4038 858 4394 
Q 1294 4750 2059 4750 
Q 2388 4750 2728 4690 
Q 3069 4631 3425 4513 
z
" transform="scale(0.015625)"/>
     </defs>
     <use xlink:href="#DejaVuSans-42" transform="translate(0 0.765625)"/>
     <use xlink:href="#DejaVuSans-65" transform="translate(68.603516 0.765625)"/>
     <use xlink:href="#DejaVuSans-73" transform="translate(130.126953 0.765625)"/>
     <use xlink:href="#DejaVuSans-74" transform="translate(182.226562 0.765625)"/>
     <use xlink:href="#DejaVuSans-20" transform="translate(221.435547 0.765625)"/>
     <use xlink:href="#DejaVuSans-Oblique-3c7" transform="translate(253.222656 0.765625)"/>
     <use xlink:href="#DejaVuSans-32" transform="translate(316.875052 39.046875)scale(0.7)"/>
     <use xlink:href="#DejaVuSans-20" transform="translate(364.14556 0.765625)"/>
     <use xlink:href="#DejaVuSans-62" transform="translate(395.932669 0.765625)"/>
     <use xlink:href="#DejaVuSans-79" transform="translate(459.409232 0.765625)"/>
     <use xlink:href="#DejaVuSans-20" transform="translate(518.588919 0.765625)"/>
     <use xlink:href="#DejaVuSans-53" transform="translate(550.376029 0.765625)"/>
     <use xlink:href="#DejaVuSans-74" transform="translate(613.852591 0.765625)"/>
     <use xlink:href="#DejaVuSans-65" transform="translate(653.061576 0.765625)"/>
     <use xlink:href="#DejaVuSans-70" transform="translate(714.585013 0.765625)"/>
    </g>
   </g>
  </g>
 </g>
 <defs>
  <clipPath id="pe62b739a78">
   <rect x="57.6" y="41.472" width="357.12" height="266.112"/>
  </clipPath>
 </defs>
</svg>
