<?xml version="1.0" encoding="utf-8" standalone="no"?>
<!DOCTYPE svg PUBLIC "-//W3C//DTD SVG 1.1//EN"
  "http://www.w3.org/Graphics/SVG/1.1/DTD/svg11.dtd">
<svg xmlns:xlink="http://www.w3.org/1999/xlink" width="460.8pt" height="345.6pt" viewBox="0 0 460.8 345.6" xmlns="http://www.w3.org/2000/svg" version="1.1">
 <metadata>
  <rdf:RDF xmlns:dc="http://purl.org/dc/elements/1.1/" xmlns:cc="http://creativecommons.org/ns#" xmlns:rdf="http://www.w3.org/1999/02/22-rdf-syntax-ns#">
   <cc:Work>
    <dc:type rdf:resource="http://purl.org/dc/dcmitype/StillImage"/>
    <dc:date>2022-07-23T13:41:54.810956</dc:date>
    <dc:format>image/svg+xml</dc:format>
    <dc:creator>
     <cc:Agent>
      <dc:title>Matplotlib v3.5.0, https://matplotlib.org/</dc:title>
     </cc:Agent>
    </dc:creator>
   </cc:Work>
  </rdf:RDF>
 </metadata>
 <defs>
  <style type="text/css">*{stroke-linejoin: round; stroke-linecap: butt}</style>
 </defs>
 <g id="figure_1">
  <g id="patch_1">
   <path d="M 0 345.6 
L 460.8 345.6 
L 460.8 0 
L 0 0 
z
" style="fill: #ffffff"/>
  </g>
  <g id="axes_1">
   <g id="patch_2">
    <path d="M 57.6 307.584 
L 414.72 307.584 
L 414.72 41.472 
L 57.6 41.472 
z
" style="fill: #ffffff"/>
   </g>
   <g id="PolyCollection_1">
    <path d="M 73.832727 325513562830908.3125 
L 73.832727 331488562598487.3125 
L 73.832727 325684714864592.5625 
L 73.832727 319880875975205.75 
L 73.832727 314077001854594.625 
L 73.832727 308273153680031.1875 
L 73.832727 302469305946136.4375 
L 73.832727 296665467056791.4375 
L 73.832727 290861646444101.375 
L 73.832727 285057798710206.625 
L 73.832727 207989732750119.75 
L 73.832727 202186181733730.84375 
L 73.832727 196382819537474.65625 
L 73.832727 190579763050138.96875 
L 73.832727 184777219074801.96875 
L 73.832727 178975493320366.125 
L 73.832727 173175134264572.625 
L 73.832727 167376996094070.28125 
L 73.832727 161582481473250.0625 
L 73.832727 155793874227468.75 
L 73.832727 150014797906405.46875 
L 73.832727 144251034004955.21875 
L 73.832727 138511457072818.046875 
L 73.832727 132809428387437.125 
L 73.832727 127164666173152.28125 
L 73.832727 121609521625108.4375 
L 73.832727 116228685100803.46875 
L 73.832727 111366016173793.53125 
L 73.832727 107673519973823.828125 
L 73.832727 105312520733261.5 
L 73.832727 104094278783617.796875 
L 73.832727 103368333088979.21875 
L 73.832727 102791894860283.65625 
L 73.832727 102242882888029.921875 
L 73.832727 101699247914247.125 
L 73.832727 101157188626852.484375 
L 73.832727 100615841467348.828125 
L 73.832727 100070419119557.96875 
L 73.832727 99503215573646.75 
L 73.832727 98856531487753.203125 
L 73.832727 97990472338059.84375 
L 73.832727 96741878748610.640625 
L 73.832727 95324448318673.484375 
L 73.832727 94709314203079.484375 
L 73.832727 95608210131088.21875 
L 73.832727 96663478046401.71875 
L 73.832727 97787231477635.484375 
L 73.832727 98745864046798.296875 
L 73.832727 99703126146076.28125 
L 73.832727 100661528804211.125 
L 73.832727 101619649577199.046875 
L 73.832727 102577304336802.875 
L 73.832727 103534239626348.921875 
L 73.832727 104496275922392.8125 
L 73.832727 105497097996332.765625 
L 73.832727 106498741793141.421875 
L 73.832727 107472941427766.5625 
L 73.832727 108470583636015.890625 
L 73.832727 109431121357308.40625 
L 73.832727 110458739326209.203125 
L 73.832727 111513620005605.46875 
L 73.832727 112707318132878.875 
L 73.832727 114182710659489.0625 
L 73.832727 116134945959566.453125 
L 73.832727 118965832997249.578125 
L 73.832727 123286587599646.078125 
L 73.832727 129352814377959.3125 
L 73.832727 132632635476539.296875 
L 73.832727 131217617004769.109375 
L 73.832727 128811427696524.28125 
L 73.832727 125847956161815.953125 
L 73.832727 122569104656590.28125 
L 73.832727 119174261802980.765625 
L 73.832727 115784319029875.53125 
L 73.832727 112468553515559.46875 
L 73.832727 109273626299376.421875 
L 73.832727 106244130581868.40625 
L 73.832727 103442036823239.546875 
L 73.832727 100971426175828.015625 
L 73.832727 99159998643275.96875 
L 73.832727 97926265240909.046875 
L 73.832727 97318220562277.640625 
L 73.832727 96979160729449.359375 
L 73.832727 96727688609735.171875 
L 73.832727 96596266897227.40625 
L 73.832727 96578975755636.8125 
L 73.832727 96625393777663.921875 
L 73.832727 96784721677933.796875 
L 73.832727 97050161295513.078125 
L 73.832727 97446153154870.625 
L 73.832727 97979964388385.15625 
L 73.832727 98699275696777.296875 
L 73.832727 99756758373217.375 
L 73.832727 102200877867106.328125 
L 73.832727 107674491202299.78125 
L 73.832727 115804593747796.25 
L 73.832727 124948206588188.890625 
L 73.832727 133947545869979.921875 
L 73.832727 141191092488611.84375 
L 73.832727 149544162877736.28125 
L 73.832727 204214680025062.6875 
L 73.832727 153981315060585.46875 
L 73.832727 153981315060585.46875 
L 73.832727 142930615919637.1875 
L 73.832727 134700441765224.953125 
L 73.832727 126869267155436.9375 
L 73.832727 117767638277488.703125 
L 73.832727 109502114961430.765625 
L 73.832727 104400546751435.390625 
L 73.832727 100673403097867.328125 
L 73.832727 98313677201404.203125 
L 73.832727 97187848386105.4375 
L 73.832727 96620220643084.25 
L 73.832727 96323578525981.5 
L 73.832727 96171680969912.3125 
L 73.832727 96117565496784.59375 
L 73.832727 96146133592636.25 
L 73.832727 96230291890447.296875 
L 73.832727 96366178065648.171875 
L 73.832727 96481022234195.703125 
L 73.832727 96613476997325.359375 
L 73.832727 96846405901804.421875 
L 73.832727 97348517361174.484375 
L 73.832727 98194179741246.3125 
L 73.832727 99473561576742.359375 
L 73.832727 100469163417496.484375 
L 73.832727 101265797905812.953125 
L 73.832727 101854273394656.796875 
L 73.832727 102300765449905.703125 
L 73.832727 102673892841895.625 
L 73.832727 103022340055696.484375 
L 73.832727 103374704887259.15625 
L 73.832727 103746836614864.125 
L 73.832727 104150312326528.984375 
L 73.832727 104594779202105.125 
L 73.832727 105092388772550.875 
L 73.832727 105653251668669.90625 
L 73.832727 106279111044297.953125 
L 73.832727 106963686037936.625 
L 73.832727 107699527858411.546875 
L 73.832727 108473719985357.234375 
L 73.832727 109220668595309.234375 
L 73.832727 109700729802056.359375 
L 73.832727 109407853231849.90625 
L 73.832727 108892977473795.265625 
L 73.832727 108183325049582.4375 
L 73.832727 107241104283307.4375 
L 73.832727 106200172363798.09375 
L 73.832727 105050181512802.4375 
L 73.832727 103878889747066.3125 
L 73.832727 102694607708747.25 
L 73.832727 101502508436781.203125 
L 73.832727 100307555442124 
L 73.832727 99139943057488.875 
L 73.832727 98073971525564.59375 
L 73.832727 97191168105431.3125 
L 73.832727 96647965935853.875 
L 73.832727 96263784920423.5625 
L 73.832727 95329337650727.515625 
L 73.832727 94490621140183.484375 
L 73.832727 94095535827382.90625 
L 73.832727 94378589246687.4375 
L 73.832727 94821462680189.625 
L 73.832727 95170378531088.65625 
L 73.832727 95541257072103.5625 
L 73.832727 95937604380506.859375 
L 73.832727 96355453551256.328125 
L 73.832727 96788476954490.28125 
L 73.832727 97231342579667.515625 
L 73.832727 97680365859476.03125 
L 73.832727 98132502910103.59375 
L 73.832727 98589037177307.046875 
L 73.832727 99048689268606.015625 
L 73.832727 99527456593395.265625 
L 73.832727 100106550191280.65625 
L 73.832727 100869419859731.203125 
L 73.832727 101596899190385.90625 
L 73.832727 102669209168186.328125 
L 73.832727 104335403663687.125 
L 73.832727 106733096645777.828125 
L 73.832727 110097549105634.03125 
L 73.832727 112773994666956.1875 
L 73.832727 115210854355390.15625 
L 73.832727 117812284344448.09375 
L 73.832727 120729547605643.28125 
L 73.832727 124259541441433.640625 
L 73.832727 128753318588942.734375 
L 73.832727 134130990116241.0625 
L 73.832727 139849661952311.25 
L 73.832727 145636057303890.1875 
L 73.832727 151435265455469.15625 
L 73.832727 157237341875960.4375 
L 73.832727 163040299457434.0625 
L 73.832727 267881185233928.53125 
L 73.832727 284886646676522.4375 
L 73.832727 290690466808971.5 
L 73.832727 296494306178557.5 
L 73.832727 302298155793850.625 
L 73.832727 308102028620662.75 
L 73.832727 313905875727385.8125 
L 73.832727 319709715097013.625 
L 73.832727 325513562830908.3125 
z
" clip-path="url(#pb775fbce4b)" style="fill: #1f77b4; fill-opacity: 0.5"/>
   </g>
   <g id="matplotlib.axis_1">
    <g id="xtick_1">
     <g id="line2d_1">
      <defs>
       <path id="md8bb3b3eba" d="M 0 0 
L 0 3.5 
" style="stroke: #000000; stroke-width: 0.8"/>
      </defs>
      <g>
       <use xlink:href="#md8bb3b3eba" x="73.832727" y="307.584" style="stroke: #000000; stroke-width: 0.8"/>
      </g>
     </g>
     <g id="text_1">
      <!-- 0 -->
      <g transform="translate(70.651477 322.182437)scale(0.1 -0.1)">
       <defs>
        <path id="DejaVuSans-30" d="M 2034 4250 
Q 1547 4250 1301 3770 
Q 1056 3291 1056 2328 
Q 1056 1369 1301 889 
Q 1547 409 2034 409 
Q 2525 409 2770 889 
Q 3016 1369 3016 2328 
Q 3016 3291 2770 3770 
Q 2525 4250 2034 4250 
z
M 2034 4750 
Q 2819 4750 3233 4129 
Q 3647 3509 3647 2328 
Q 3647 1150 3233 529 
Q 2819 -91 2034 -91 
Q 1250 -91 836 529 
Q 422 1150 422 2328 
Q 422 3509 836 4129 
Q 1250 4750 2034 4750 
z
" transform="scale(0.015625)"/>
       </defs>
       <use xlink:href="#DejaVuSans-30"/>
      </g>
     </g>
    </g>
    <g id="xtick_2">
     <g id="line2d_2">
      <g>
       <use xlink:href="#md8bb3b3eba" x="124.214484" y="307.584" style="stroke: #000000; stroke-width: 0.8"/>
      </g>
     </g>
     <g id="text_2">
      <!-- 1 -->
      <g transform="translate(121.033234 322.182437)scale(0.1 -0.1)">
       <defs>
        <path id="DejaVuSans-31" d="M 794 531 
L 1825 531 
L 1825 4091 
L 703 3866 
L 703 4441 
L 1819 4666 
L 2450 4666 
L 2450 531 
L 3481 531 
L 3481 0 
L 794 0 
L 794 531 
z
" transform="scale(0.015625)"/>
       </defs>
       <use xlink:href="#DejaVuSans-31"/>
      </g>
     </g>
    </g>
    <g id="xtick_3">
     <g id="line2d_3">
      <g>
       <use xlink:href="#md8bb3b3eba" x="174.59624" y="307.584" style="stroke: #000000; stroke-width: 0.8"/>
      </g>
     </g>
     <g id="text_3">
      <!-- 2 -->
      <g transform="translate(171.41499 322.182437)scale(0.1 -0.1)">
       <defs>
        <path id="DejaVuSans-32" d="M 1228 531 
L 3431 531 
L 3431 0 
L 469 0 
L 469 531 
Q 828 903 1448 1529 
Q 2069 2156 2228 2338 
Q 2531 2678 2651 2914 
Q 2772 3150 2772 3378 
Q 2772 3750 2511 3984 
Q 2250 4219 1831 4219 
Q 1534 4219 1204 4116 
Q 875 4013 500 3803 
L 500 4441 
Q 881 4594 1212 4672 
Q 1544 4750 1819 4750 
Q 2544 4750 2975 4387 
Q 3406 4025 3406 3419 
Q 3406 3131 3298 2873 
Q 3191 2616 2906 2266 
Q 2828 2175 2409 1742 
Q 1991 1309 1228 531 
z
" transform="scale(0.015625)"/>
       </defs>
       <use xlink:href="#DejaVuSans-32"/>
      </g>
     </g>
    </g>
    <g id="xtick_4">
     <g id="line2d_4">
      <g>
       <use xlink:href="#md8bb3b3eba" x="224.977996" y="307.584" style="stroke: #000000; stroke-width: 0.8"/>
      </g>
     </g>
     <g id="text_4">
      <!-- 3 -->
      <g transform="translate(221.796746 322.182437)scale(0.1 -0.1)">
       <defs>
        <path id="DejaVuSans-33" d="M 2597 2516 
Q 3050 2419 3304 2112 
Q 3559 1806 3559 1356 
Q 3559 666 3084 287 
Q 2609 -91 1734 -91 
Q 1441 -91 1130 -33 
Q 819 25 488 141 
L 488 750 
Q 750 597 1062 519 
Q 1375 441 1716 441 
Q 2309 441 2620 675 
Q 2931 909 2931 1356 
Q 2931 1769 2642 2001 
Q 2353 2234 1838 2234 
L 1294 2234 
L 1294 2753 
L 1863 2753 
Q 2328 2753 2575 2939 
Q 2822 3125 2822 3475 
Q 2822 3834 2567 4026 
Q 2313 4219 1838 4219 
Q 1578 4219 1281 4162 
Q 984 4106 628 3988 
L 628 4550 
Q 988 4650 1302 4700 
Q 1616 4750 1894 4750 
Q 2613 4750 3031 4423 
Q 3450 4097 3450 3541 
Q 3450 3153 3228 2886 
Q 3006 2619 2597 2516 
z
" transform="scale(0.015625)"/>
       </defs>
       <use xlink:href="#DejaVuSans-33"/>
      </g>
     </g>
    </g>
    <g id="xtick_5">
     <g id="line2d_5">
      <g>
       <use xlink:href="#md8bb3b3eba" x="275.359752" y="307.584" style="stroke: #000000; stroke-width: 0.8"/>
      </g>
     </g>
     <g id="text_5">
      <!-- 4 -->
      <g transform="translate(272.178502 322.182437)scale(0.1 -0.1)">
       <defs>
        <path id="DejaVuSans-34" d="M 2419 4116 
L 825 1625 
L 2419 1625 
L 2419 4116 
z
M 2253 4666 
L 3047 4666 
L 3047 1625 
L 3713 1625 
L 3713 1100 
L 3047 1100 
L 3047 0 
L 2419 0 
L 2419 1100 
L 313 1100 
L 313 1709 
L 2253 4666 
z
" transform="scale(0.015625)"/>
       </defs>
       <use xlink:href="#DejaVuSans-34"/>
      </g>
     </g>
    </g>
    <g id="xtick_6">
     <g id="line2d_6">
      <g>
       <use xlink:href="#md8bb3b3eba" x="325.741508" y="307.584" style="stroke: #000000; stroke-width: 0.8"/>
      </g>
     </g>
     <g id="text_6">
      <!-- 5 -->
      <g transform="translate(322.560258 322.182437)scale(0.1 -0.1)">
       <defs>
        <path id="DejaVuSans-35" d="M 691 4666 
L 3169 4666 
L 3169 4134 
L 1269 4134 
L 1269 2991 
Q 1406 3038 1543 3061 
Q 1681 3084 1819 3084 
Q 2600 3084 3056 2656 
Q 3513 2228 3513 1497 
Q 3513 744 3044 326 
Q 2575 -91 1722 -91 
Q 1428 -91 1123 -41 
Q 819 9 494 109 
L 494 744 
Q 775 591 1075 516 
Q 1375 441 1709 441 
Q 2250 441 2565 725 
Q 2881 1009 2881 1497 
Q 2881 1984 2565 2268 
Q 2250 2553 1709 2553 
Q 1456 2553 1204 2497 
Q 953 2441 691 2322 
L 691 4666 
z
" transform="scale(0.015625)"/>
       </defs>
       <use xlink:href="#DejaVuSans-35"/>
      </g>
     </g>
    </g>
    <g id="xtick_7">
     <g id="line2d_7">
      <g>
       <use xlink:href="#md8bb3b3eba" x="376.123265" y="307.584" style="stroke: #000000; stroke-width: 0.8"/>
      </g>
     </g>
     <g id="text_7">
      <!-- 6 -->
      <g transform="translate(372.942015 322.182437)scale(0.1 -0.1)">
       <defs>
        <path id="DejaVuSans-36" d="M 2113 2584 
Q 1688 2584 1439 2293 
Q 1191 2003 1191 1497 
Q 1191 994 1439 701 
Q 1688 409 2113 409 
Q 2538 409 2786 701 
Q 3034 994 3034 1497 
Q 3034 2003 2786 2293 
Q 2538 2584 2113 2584 
z
M 3366 4563 
L 3366 3988 
Q 3128 4100 2886 4159 
Q 2644 4219 2406 4219 
Q 1781 4219 1451 3797 
Q 1122 3375 1075 2522 
Q 1259 2794 1537 2939 
Q 1816 3084 2150 3084 
Q 2853 3084 3261 2657 
Q 3669 2231 3669 1497 
Q 3669 778 3244 343 
Q 2819 -91 2113 -91 
Q 1303 -91 875 529 
Q 447 1150 447 2328 
Q 447 3434 972 4092 
Q 1497 4750 2381 4750 
Q 2619 4750 2861 4703 
Q 3103 4656 3366 4563 
z
" transform="scale(0.015625)"/>
       </defs>
       <use xlink:href="#DejaVuSans-36"/>
      </g>
     </g>
    </g>
    <g id="text_8">
     <!-- log $\nu$ -->
     <g transform="translate(224.11 335.862125)scale(0.1 -0.1)">
      <defs>
       <path id="DejaVuSans-6c" d="M 603 4863 
L 1178 4863 
L 1178 0 
L 603 0 
L 603 4863 
z
" transform="scale(0.015625)"/>
       <path id="DejaVuSans-6f" d="M 1959 3097 
Q 1497 3097 1228 2736 
Q 959 2375 959 1747 
Q 959 1119 1226 758 
Q 1494 397 1959 397 
Q 2419 397 2687 759 
Q 2956 1122 2956 1747 
Q 2956 2369 2687 2733 
Q 2419 3097 1959 3097 
z
M 1959 3584 
Q 2709 3584 3137 3096 
Q 3566 2609 3566 1747 
Q 3566 888 3137 398 
Q 2709 -91 1959 -91 
Q 1206 -91 779 398 
Q 353 888 353 1747 
Q 353 2609 779 3096 
Q 1206 3584 1959 3584 
z
" transform="scale(0.015625)"/>
       <path id="DejaVuSans-67" d="M 2906 1791 
Q 2906 2416 2648 2759 
Q 2391 3103 1925 3103 
Q 1463 3103 1205 2759 
Q 947 2416 947 1791 
Q 947 1169 1205 825 
Q 1463 481 1925 481 
Q 2391 481 2648 825 
Q 2906 1169 2906 1791 
z
M 3481 434 
Q 3481 -459 3084 -895 
Q 2688 -1331 1869 -1331 
Q 1566 -1331 1297 -1286 
Q 1028 -1241 775 -1147 
L 775 -588 
Q 1028 -725 1275 -790 
Q 1522 -856 1778 -856 
Q 2344 -856 2625 -561 
Q 2906 -266 2906 331 
L 2906 616 
Q 2728 306 2450 153 
Q 2172 0 1784 0 
Q 1141 0 747 490 
Q 353 981 353 1791 
Q 353 2603 747 3093 
Q 1141 3584 1784 3584 
Q 2172 3584 2450 3431 
Q 2728 3278 2906 2969 
L 2906 3500 
L 3481 3500 
L 3481 434 
z
" transform="scale(0.015625)"/>
       <path id="DejaVuSans-20" transform="scale(0.015625)"/>
       <path id="DejaVuSans-Oblique-3bd" d="M 959 0 
L 572 3500 
L 1191 3500 
L 1522 563 
Q 1972 950 2391 1488 
Q 2706 1891 2788 2241 
Q 2825 2406 2809 2719 
Q 2794 3091 2544 3500 
L 3125 3500 
L 3125 3500 
Q 3288 3222 3353 2834 
Q 3416 2478 3369 2234 
Q 3250 1622 2719 1075 
Q 2025 363 1572 0 
L 959 0 
z
" transform="scale(0.015625)"/>
      </defs>
      <use xlink:href="#DejaVuSans-6c" transform="translate(0 0.015625)"/>
      <use xlink:href="#DejaVuSans-6f" transform="translate(27.783203 0.015625)"/>
      <use xlink:href="#DejaVuSans-67" transform="translate(88.964844 0.015625)"/>
      <use xlink:href="#DejaVuSans-20" transform="translate(152.441406 0.015625)"/>
      <use xlink:href="#DejaVuSans-Oblique-3bd" transform="translate(184.228516 0.015625)"/>
     </g>
    </g>
    <g id="text_9">
     <!-- 1e25 -->
     <g transform="translate(389.479375 334.860562)scale(0.1 -0.1)">
      <defs>
       <path id="DejaVuSans-65" d="M 3597 1894 
L 3597 1613 
L 953 1613 
Q 991 1019 1311 708 
Q 1631 397 2203 397 
Q 2534 397 2845 478 
Q 3156 559 3463 722 
L 3463 178 
Q 3153 47 2828 -22 
Q 2503 -91 2169 -91 
Q 1331 -91 842 396 
Q 353 884 353 1716 
Q 353 2575 817 3079 
Q 1281 3584 2069 3584 
Q 2775 3584 3186 3129 
Q 3597 2675 3597 1894 
z
M 3022 2063 
Q 3016 2534 2758 2815 
Q 2500 3097 2075 3097 
Q 1594 3097 1305 2825 
Q 1016 2553 972 2059 
L 3022 2063 
z
" transform="scale(0.015625)"/>
      </defs>
      <use xlink:href="#DejaVuSans-31"/>
      <use xlink:href="#DejaVuSans-65" x="63.623047"/>
      <use xlink:href="#DejaVuSans-32" x="125.146484"/>
      <use xlink:href="#DejaVuSans-35" x="188.769531"/>
     </g>
    </g>
   </g>
   <g id="matplotlib.axis_2">
    <g id="ytick_1">
     <g id="line2d_8">
      <defs>
       <path id="m1f942e2bb5" d="M 0 0 
L -3.5 0 
" style="stroke: #000000; stroke-width: 0.8"/>
      </defs>
      <g>
       <use xlink:href="#m1f942e2bb5" x="57.6" y="267.067194" style="stroke: #000000; stroke-width: 0.8"/>
      </g>
     </g>
     <g id="text_10">
      <!-- 0.5 -->
      <g transform="translate(34.696875 270.866413)scale(0.1 -0.1)">
       <defs>
        <path id="DejaVuSans-2e" d="M 684 794 
L 1344 794 
L 1344 0 
L 684 0 
L 684 794 
z
" transform="scale(0.015625)"/>
       </defs>
       <use xlink:href="#DejaVuSans-30"/>
       <use xlink:href="#DejaVuSans-2e" x="63.623047"/>
       <use xlink:href="#DejaVuSans-35" x="95.410156"/>
      </g>
     </g>
    </g>
    <g id="ytick_2">
     <g id="line2d_9">
      <g>
       <use xlink:href="#m1f942e2bb5" x="57.6" y="222.110001" style="stroke: #000000; stroke-width: 0.8"/>
      </g>
     </g>
     <g id="text_11">
      <!-- 1.0 -->
      <g transform="translate(34.696875 225.90922)scale(0.1 -0.1)">
       <use xlink:href="#DejaVuSans-31"/>
       <use xlink:href="#DejaVuSans-2e" x="63.623047"/>
       <use xlink:href="#DejaVuSans-30" x="95.410156"/>
      </g>
     </g>
    </g>
    <g id="ytick_3">
     <g id="line2d_10">
      <g>
       <use xlink:href="#m1f942e2bb5" x="57.6" y="177.152808" style="stroke: #000000; stroke-width: 0.8"/>
      </g>
     </g>
     <g id="text_12">
      <!-- 1.5 -->
      <g transform="translate(34.696875 180.952027)scale(0.1 -0.1)">
       <use xlink:href="#DejaVuSans-31"/>
       <use xlink:href="#DejaVuSans-2e" x="63.623047"/>
       <use xlink:href="#DejaVuSans-35" x="95.410156"/>
      </g>
     </g>
    </g>
    <g id="ytick_4">
     <g id="line2d_11">
      <g>
       <use xlink:href="#m1f942e2bb5" x="57.6" y="132.195615" style="stroke: #000000; stroke-width: 0.8"/>
      </g>
     </g>
     <g id="text_13">
      <!-- 2.0 -->
      <g transform="translate(34.696875 135.994834)scale(0.1 -0.1)">
       <use xlink:href="#DejaVuSans-32"/>
       <use xlink:href="#DejaVuSans-2e" x="63.623047"/>
       <use xlink:href="#DejaVuSans-30" x="95.410156"/>
      </g>
     </g>
    </g>
    <g id="ytick_5">
     <g id="line2d_12">
      <g>
       <use xlink:href="#m1f942e2bb5" x="57.6" y="87.238422" style="stroke: #000000; stroke-width: 0.8"/>
      </g>
     </g>
     <g id="text_14">
      <!-- 2.5 -->
      <g transform="translate(34.696875 91.037641)scale(0.1 -0.1)">
       <use xlink:href="#DejaVuSans-32"/>
       <use xlink:href="#DejaVuSans-2e" x="63.623047"/>
       <use xlink:href="#DejaVuSans-35" x="95.410156"/>
      </g>
     </g>
    </g>
    <g id="ytick_6">
     <g id="line2d_13">
      <g>
       <use xlink:href="#m1f942e2bb5" x="57.6" y="42.281229" style="stroke: #000000; stroke-width: 0.8"/>
      </g>
     </g>
     <g id="text_15">
      <!-- 3.0 -->
      <g transform="translate(34.696875 46.080448)scale(0.1 -0.1)">
       <use xlink:href="#DejaVuSans-33"/>
       <use xlink:href="#DejaVuSans-2e" x="63.623047"/>
       <use xlink:href="#DejaVuSans-30" x="95.410156"/>
      </g>
     </g>
    </g>
    <g id="text_16">
     <!-- log $\nu F_{\nu}$ -->
     <g transform="translate(28.596875 191.528)rotate(-90)scale(0.1 -0.1)">
      <defs>
       <path id="DejaVuSans-Oblique-46" d="M 1081 4666 
L 3756 4666 
L 3653 4134 
L 1606 4134 
L 1338 2759 
L 3188 2759 
L 3084 2228 
L 1234 2228 
L 800 0 
L 172 0 
L 1081 4666 
z
" transform="scale(0.015625)"/>
      </defs>
      <use xlink:href="#DejaVuSans-6c" transform="translate(0 0.015625)"/>
      <use xlink:href="#DejaVuSans-6f" transform="translate(27.783203 0.015625)"/>
      <use xlink:href="#DejaVuSans-67" transform="translate(88.964844 0.015625)"/>
      <use xlink:href="#DejaVuSans-20" transform="translate(152.441406 0.015625)"/>
      <use xlink:href="#DejaVuSans-Oblique-3bd" transform="translate(184.228516 0.015625)"/>
      <use xlink:href="#DejaVuSans-Oblique-46" transform="translate(240.087891 0.015625)"/>
      <use xlink:href="#DejaVuSans-Oblique-3bd" transform="translate(297.607422 -16.390625)scale(0.7)"/>
     </g>
    </g>
    <g id="text_17">
     <!-- 1e−11 -->
     <g transform="translate(57.6 38.472)scale(0.1 -0.1)">
      <defs>
       <path id="DejaVuSans-2212" d="M 678 2272 
L 4684 2272 
L 4684 1741 
L 678 1741 
L 678 2272 
z
" transform="scale(0.015625)"/>
      </defs>
      <use xlink:href="#DejaVuSans-31"/>
      <use xlink:href="#DejaVuSans-65" x="63.623047"/>
      <use xlink:href="#DejaVuSans-2212" x="125.146484"/>
      <use xlink:href="#DejaVuSans-31" x="208.935547"/>
      <use xlink:href="#DejaVuSans-31" x="272.558594"/>
     </g>
    </g>
   </g>
   <g id="line2d_14">
    <path clip-path="url(#pb775fbce4b)" style="fill: none; stroke: #008000; stroke-width: 2; stroke-linecap: square"/>
   </g>
   <g id="LineCollection_1">
    <path d="M 73.832727 55.300833 
L 73.832727 43.647928 
" clip-path="url(#pb775fbce4b)" style="fill: none; stroke: #000000; stroke-width: 1.5"/>
    <path d="M 73.832727 51.812154 
L 73.832727 41.741743 
" clip-path="url(#pb775fbce4b)" style="fill: none; stroke: #000000; stroke-width: 1.5"/>
    <path d="M 73.832727 66.603071 
L 73.832727 55.72343 
" clip-path="url(#pb775fbce4b)" style="fill: none; stroke: #000000; stroke-width: 1.5"/>
    <path d="M 73.832727 130.442285 
L 73.832727 123.15922 
" clip-path="url(#pb775fbce4b)" style="fill: none; stroke: #000000; stroke-width: 1.5"/>
    <path d="M 73.832727 93.78419 
L 73.832727 84.289231 
" clip-path="url(#pb775fbce4b)" style="fill: none; stroke: #000000; stroke-width: 1.5"/>
    <path d="M 73.832727 144.558844 
L 73.832727 137.815265 
" clip-path="url(#pb775fbce4b)" style="fill: none; stroke: #000000; stroke-width: 1.5"/>
    <path d="M 73.832728 297.467248 
L 73.832728 295.471149 
" clip-path="url(#pb775fbce4b)" style="fill: none; stroke: #000000; stroke-width: 1.5"/>
    <path d="M 73.832728 298.174874 
L 73.832728 296.381982 
" clip-path="url(#pb775fbce4b)" style="fill: none; stroke: #000000; stroke-width: 1.5"/>
    <path d="M 73.832728 299.381526 
L 73.832728 297.872762 
" clip-path="url(#pb775fbce4b)" style="fill: none; stroke: #000000; stroke-width: 1.5"/>
    <path d="M 73.832728 299.194504 
L 73.832728 297.700127 
" clip-path="url(#pb775fbce4b)" style="fill: none; stroke: #000000; stroke-width: 1.5"/>
    <path d="M 73.832729 299.503809 
L 73.832729 298.110136 
" clip-path="url(#pb775fbce4b)" style="fill: none; stroke: #000000; stroke-width: 1.5"/>
    <path d="M 73.832729 300.7734 
L 73.832729 299.537977 
" clip-path="url(#pb775fbce4b)" style="fill: none; stroke: #000000; stroke-width: 1.5"/>
    <path d="M 73.832729 301.269728 
L 73.832729 300.120622 
" clip-path="url(#pb775fbce4b)" style="fill: none; stroke: #000000; stroke-width: 1.5"/>
    <path d="M 73.832729 301.522387 
L 73.832729 300.407449 
" clip-path="url(#pb775fbce4b)" style="fill: none; stroke: #000000; stroke-width: 1.5"/>
    <path d="M 73.832729 302.88459 
L 73.832729 301.922506 
" clip-path="url(#pb775fbce4b)" style="fill: none; stroke: #000000; stroke-width: 1.5"/>
    <path d="M 73.83273 303.395304 
L 73.83273 302.490765 
" clip-path="url(#pb775fbce4b)" style="fill: none; stroke: #000000; stroke-width: 1.5"/>
    <path d="M 73.832731 304.21802 
L 73.832731 303.412387 
" clip-path="url(#pb775fbce4b)" style="fill: none; stroke: #000000; stroke-width: 1.5"/>
    <path d="M 73.832734 306.548601 
L 73.832734 305.955166 
" clip-path="url(#pb775fbce4b)" style="fill: none; stroke: #000000; stroke-width: 1.5"/>
    <path d="M 73.992959 230.16633 
L 73.992959 212.255385 
" clip-path="url(#pb775fbce4b)" style="fill: none; stroke: #000000; stroke-width: 1.5"/>
    <path d="M 74.110256 196.835068 
L 74.110256 182.646577 
" clip-path="url(#pb775fbce4b)" style="fill: none; stroke: #000000; stroke-width: 1.5"/>
    <path d="M 74.326668 171.443245 
L 74.326668 159.484632 
" clip-path="url(#pb775fbce4b)" style="fill: none; stroke: #000000; stroke-width: 1.5"/>
    <path d="M 74.734536 150.834868 
L 74.734536 138.732391 
" clip-path="url(#pb775fbce4b)" style="fill: none; stroke: #000000; stroke-width: 1.5"/>
    <path d="M 75.43504 164.843529 
L 75.43504 151.698046 
" clip-path="url(#pb775fbce4b)" style="fill: none; stroke: #000000; stroke-width: 1.5"/>
    <path d="M 76.608015 159.835298 
L 76.608015 144.118263 
" clip-path="url(#pb775fbce4b)" style="fill: none; stroke: #000000; stroke-width: 1.5"/>
    <path d="M 78.772138 144.783629 
L 78.772138 125.002465 
" clip-path="url(#pb775fbce4b)" style="fill: none; stroke: #000000; stroke-width: 1.5"/>
    <path d="M 82.850817 159.169931 
L 82.850817 133.993903 
" clip-path="url(#pb775fbce4b)" style="fill: none; stroke: #000000; stroke-width: 1.5"/>
    <path d="M 89.855856 160.518647 
L 89.855856 125.452036 
" clip-path="url(#pb775fbce4b)" style="fill: none; stroke: #000000; stroke-width: 1.5"/>
    <path d="M 101.585601 159.979161 
L 101.585601 113.403509 
" clip-path="url(#pb775fbce4b)" style="fill: none; stroke: #000000; stroke-width: 1.5"/>
    <path d="M 123.226839 159.080017 
L 123.226839 99.916351 
" clip-path="url(#pb775fbce4b)" style="fill: none; stroke: #000000; stroke-width: 1.5"/>
    <path d="M 164.013625 213.568135 
L 164.013625 144.334058 
" clip-path="url(#pb775fbce4b)" style="fill: none; stroke: #000000; stroke-width: 1.5"/>
    <path d="M 234.064016 245.397827 
L 234.064016 157.461558 
" clip-path="url(#pb775fbce4b)" style="fill: none; stroke: #000000; stroke-width: 1.5"/>
    <path d="M 351.36146 275.519147 
L 351.36146 175.354521 
" clip-path="url(#pb775fbce4b)" style="fill: none; stroke: #000000; stroke-width: 1.5"/>
    <path d="M 218.800423 271.832657 
L 218.800423 235.866902 
" clip-path="url(#pb775fbce4b)" style="fill: none; stroke: #000000; stroke-width: 1.5"/>
    <path d="M 236.464554 269.584797 
L 236.464554 239.91305 
" clip-path="url(#pb775fbce4b)" style="fill: none; stroke: #000000; stroke-width: 1.5"/>
    <path d="M 256.321474 278.486321 
L 256.321474 256.367382 
" clip-path="url(#pb775fbce4b)" style="fill: none; stroke: #000000; stroke-width: 1.5"/>
    <path d="M 278.614825 276.148547 
L 278.614825 257.446355 
" clip-path="url(#pb775fbce4b)" style="fill: none; stroke: #000000; stroke-width: 1.5"/>
    <path d="M 303.588252 304.579476 
L 303.588252 288.179092 
" clip-path="url(#pb775fbce4b)" style="fill: none; stroke: #000000; stroke-width: 1.5"/>
    <path d="M 331.72904 302.691274 
L 331.72904 285.391746 
" clip-path="url(#pb775fbce4b)" style="fill: none; stroke: #000000; stroke-width: 1.5"/>
    <path d="M 363.159011 297.53918 
L 363.159011 283.710347 
" clip-path="url(#pb775fbce4b)" style="fill: none; stroke: #000000; stroke-width: 1.5"/>
    <path d="M 398.487273 305.874243 
L 398.487273 293.897647 
" clip-path="url(#pb775fbce4b)" style="fill: none; stroke: #000000; stroke-width: 1.5"/>
   </g>
   <g id="line2d_15">
    <defs>
     <path id="m43497031ef" d="M 0 1.5 
C 0.397805 1.5 0.77937 1.341951 1.06066 1.06066 
C 1.341951 0.77937 1.5 0.397805 1.5 0 
C 1.5 -0.397805 1.341951 -0.77937 1.06066 -1.06066 
C 0.77937 -1.341951 0.397805 -1.5 0 -1.5 
C -0.397805 -1.5 -0.77937 -1.341951 -1.06066 -1.06066 
C -1.341951 -0.77937 -1.5 -0.397805 -1.5 0 
C -1.5 0.397805 -1.341951 0.77937 -1.06066 1.06066 
C -0.77937 1.341951 -0.397805 1.5 0 1.5 
z
" style="stroke: #0000ff"/>
    </defs>
    <g clip-path="url(#pb775fbce4b)">
     <use xlink:href="#m43497031ef" x="73.832727" y="49.47438" style="fill: #0000ff; stroke: #0000ff"/>
     <use xlink:href="#m43497031ef" x="73.832727" y="46.776949" style="fill: #0000ff; stroke: #0000ff"/>
     <use xlink:href="#m43497031ef" x="73.832727" y="61.163251" style="fill: #0000ff; stroke: #0000ff"/>
     <use xlink:href="#m43497031ef" x="73.832727" y="126.800752" style="fill: #0000ff; stroke: #0000ff"/>
     <use xlink:href="#m43497031ef" x="73.832727" y="89.03671" style="fill: #0000ff; stroke: #0000ff"/>
     <use xlink:href="#m43497031ef" x="73.832727" y="141.187054" style="fill: #0000ff; stroke: #0000ff"/>
     <use xlink:href="#m43497031ef" x="73.832728" y="296.469199" style="fill: #0000ff; stroke: #0000ff"/>
     <use xlink:href="#m43497031ef" x="73.832728" y="297.278428" style="fill: #0000ff; stroke: #0000ff"/>
     <use xlink:href="#m43497031ef" x="73.832728" y="298.627144" style="fill: #0000ff; stroke: #0000ff"/>
     <use xlink:href="#m43497031ef" x="73.832728" y="298.447315" style="fill: #0000ff; stroke: #0000ff"/>
     <use xlink:href="#m43497031ef" x="73.832729" y="298.806973" style="fill: #0000ff; stroke: #0000ff"/>
     <use xlink:href="#m43497031ef" x="73.832729" y="300.155688" style="fill: #0000ff; stroke: #0000ff"/>
     <use xlink:href="#m43497031ef" x="73.832729" y="300.695175" style="fill: #0000ff; stroke: #0000ff"/>
     <use xlink:href="#m43497031ef" x="73.832729" y="300.964918" style="fill: #0000ff; stroke: #0000ff"/>
     <use xlink:href="#m43497031ef" x="73.832729" y="302.403548" style="fill: #0000ff; stroke: #0000ff"/>
     <use xlink:href="#m43497031ef" x="73.83273" y="302.943034" style="fill: #0000ff; stroke: #0000ff"/>
     <use xlink:href="#m43497031ef" x="73.832731" y="303.815204" style="fill: #0000ff; stroke: #0000ff"/>
     <use xlink:href="#m43497031ef" x="73.832734" y="306.251884" style="fill: #0000ff; stroke: #0000ff"/>
     <use xlink:href="#m43497031ef" x="73.992959" y="221.210858" style="fill: #0000ff; stroke: #0000ff"/>
     <use xlink:href="#m43497031ef" x="74.110256" y="189.740822" style="fill: #0000ff; stroke: #0000ff"/>
     <use xlink:href="#m43497031ef" x="74.326668" y="165.463938" style="fill: #0000ff; stroke: #0000ff"/>
     <use xlink:href="#m43497031ef" x="74.734536" y="144.783629" style="fill: #0000ff; stroke: #0000ff"/>
     <use xlink:href="#m43497031ef" x="75.43504" y="158.270787" style="fill: #0000ff; stroke: #0000ff"/>
     <use xlink:href="#m43497031ef" x="76.608015" y="151.97678" style="fill: #0000ff; stroke: #0000ff"/>
     <use xlink:href="#m43497031ef" x="78.772138" y="134.893047" style="fill: #0000ff; stroke: #0000ff"/>
     <use xlink:href="#m43497031ef" x="82.850817" y="146.581917" style="fill: #0000ff; stroke: #0000ff"/>
     <use xlink:href="#m43497031ef" x="89.855856" y="142.985342" style="fill: #0000ff; stroke: #0000ff"/>
     <use xlink:href="#m43497031ef" x="101.585601" y="136.691335" style="fill: #0000ff; stroke: #0000ff"/>
     <use xlink:href="#m43497031ef" x="123.226839" y="129.498184" style="fill: #0000ff; stroke: #0000ff"/>
     <use xlink:href="#m43497031ef" x="164.013625" y="178.951096" style="fill: #0000ff; stroke: #0000ff"/>
     <use xlink:href="#m43497031ef" x="234.064016" y="201.429693" style="fill: #0000ff; stroke: #0000ff"/>
     <use xlink:href="#m43497031ef" x="351.36146" y="225.436834" style="fill: #0000ff; stroke: #0000ff"/>
     <use xlink:href="#m43497031ef" x="218.800423" y="253.84978" style="fill: #0000ff; stroke: #0000ff"/>
     <use xlink:href="#m43497031ef" x="236.464554" y="254.748924" style="fill: #0000ff; stroke: #0000ff"/>
     <use xlink:href="#m43497031ef" x="256.321474" y="267.426852" style="fill: #0000ff; stroke: #0000ff"/>
     <use xlink:href="#m43497031ef" x="278.614825" y="266.797451" style="fill: #0000ff; stroke: #0000ff"/>
     <use xlink:href="#m43497031ef" x="303.588252" y="296.379284" style="fill: #0000ff; stroke: #0000ff"/>
     <use xlink:href="#m43497031ef" x="331.72904" y="294.04151" style="fill: #0000ff; stroke: #0000ff"/>
     <use xlink:href="#m43497031ef" x="363.159011" y="290.624764" style="fill: #0000ff; stroke: #0000ff"/>
     <use xlink:href="#m43497031ef" x="398.487273" y="299.885945" style="fill: #0000ff; stroke: #0000ff"/>
    </g>
   </g>
   <g id="patch_3">
    <path d="M 57.6 307.584 
L 57.6 41.472 
" style="fill: none; stroke: #000000; stroke-width: 0.8; stroke-linejoin: miter; stroke-linecap: square"/>
   </g>
   <g id="patch_4">
    <path d="M 414.72 307.584 
L 414.72 41.472 
" style="fill: none; stroke: #000000; stroke-width: 0.8; stroke-linejoin: miter; stroke-linecap: square"/>
   </g>
   <g id="patch_5">
    <path d="M 57.6 307.584 
L 414.72 307.584 
" style="fill: none; stroke: #000000; stroke-width: 0.8; stroke-linejoin: miter; stroke-linecap: square"/>
   </g>
   <g id="patch_6">
    <path d="M 57.6 41.472 
L 414.72 41.472 
" style="fill: none; stroke: #000000; stroke-width: 0.8; stroke-linejoin: miter; stroke-linecap: square"/>
   </g>
   <g id="text_18">
    <!-- MCMC results with the range from extreme models within 1 sigma -->
    <g transform="translate(37.283437 35.472)scale(0.12 -0.12)">
     <defs>
      <path id="DejaVuSans-4d" d="M 628 4666 
L 1569 4666 
L 2759 1491 
L 3956 4666 
L 4897 4666 
L 4897 0 
L 4281 0 
L 4281 4097 
L 3078 897 
L 2444 897 
L 1241 4097 
L 1241 0 
L 628 0 
L 628 4666 
z
" transform="scale(0.015625)"/>
      <path id="DejaVuSans-43" d="M 4122 4306 
L 4122 3641 
Q 3803 3938 3442 4084 
Q 3081 4231 2675 4231 
Q 1875 4231 1450 3742 
Q 1025 3253 1025 2328 
Q 1025 1406 1450 917 
Q 1875 428 2675 428 
Q 3081 428 3442 575 
Q 3803 722 4122 1019 
L 4122 359 
Q 3791 134 3420 21 
Q 3050 -91 2638 -91 
Q 1578 -91 968 557 
Q 359 1206 359 2328 
Q 359 3453 968 4101 
Q 1578 4750 2638 4750 
Q 3056 4750 3426 4639 
Q 3797 4528 4122 4306 
z
" transform="scale(0.015625)"/>
      <path id="DejaVuSans-72" d="M 2631 2963 
Q 2534 3019 2420 3045 
Q 2306 3072 2169 3072 
Q 1681 3072 1420 2755 
Q 1159 2438 1159 1844 
L 1159 0 
L 581 0 
L 581 3500 
L 1159 3500 
L 1159 2956 
Q 1341 3275 1631 3429 
Q 1922 3584 2338 3584 
Q 2397 3584 2469 3576 
Q 2541 3569 2628 3553 
L 2631 2963 
z
" transform="scale(0.015625)"/>
      <path id="DejaVuSans-73" d="M 2834 3397 
L 2834 2853 
Q 2591 2978 2328 3040 
Q 2066 3103 1784 3103 
Q 1356 3103 1142 2972 
Q 928 2841 928 2578 
Q 928 2378 1081 2264 
Q 1234 2150 1697 2047 
L 1894 2003 
Q 2506 1872 2764 1633 
Q 3022 1394 3022 966 
Q 3022 478 2636 193 
Q 2250 -91 1575 -91 
Q 1294 -91 989 -36 
Q 684 19 347 128 
L 347 722 
Q 666 556 975 473 
Q 1284 391 1588 391 
Q 1994 391 2212 530 
Q 2431 669 2431 922 
Q 2431 1156 2273 1281 
Q 2116 1406 1581 1522 
L 1381 1569 
Q 847 1681 609 1914 
Q 372 2147 372 2553 
Q 372 3047 722 3315 
Q 1072 3584 1716 3584 
Q 2034 3584 2315 3537 
Q 2597 3491 2834 3397 
z
" transform="scale(0.015625)"/>
      <path id="DejaVuSans-75" d="M 544 1381 
L 544 3500 
L 1119 3500 
L 1119 1403 
Q 1119 906 1312 657 
Q 1506 409 1894 409 
Q 2359 409 2629 706 
Q 2900 1003 2900 1516 
L 2900 3500 
L 3475 3500 
L 3475 0 
L 2900 0 
L 2900 538 
Q 2691 219 2414 64 
Q 2138 -91 1772 -91 
Q 1169 -91 856 284 
Q 544 659 544 1381 
z
M 1991 3584 
L 1991 3584 
z
" transform="scale(0.015625)"/>
      <path id="DejaVuSans-74" d="M 1172 4494 
L 1172 3500 
L 2356 3500 
L 2356 3053 
L 1172 3053 
L 1172 1153 
Q 1172 725 1289 603 
Q 1406 481 1766 481 
L 2356 481 
L 2356 0 
L 1766 0 
Q 1100 0 847 248 
Q 594 497 594 1153 
L 594 3053 
L 172 3053 
L 172 3500 
L 594 3500 
L 594 4494 
L 1172 4494 
z
" transform="scale(0.015625)"/>
      <path id="DejaVuSans-77" d="M 269 3500 
L 844 3500 
L 1563 769 
L 2278 3500 
L 2956 3500 
L 3675 769 
L 4391 3500 
L 4966 3500 
L 4050 0 
L 3372 0 
L 2619 2869 
L 1863 0 
L 1184 0 
L 269 3500 
z
" transform="scale(0.015625)"/>
      <path id="DejaVuSans-69" d="M 603 3500 
L 1178 3500 
L 1178 0 
L 603 0 
L 603 3500 
z
M 603 4863 
L 1178 4863 
L 1178 4134 
L 603 4134 
L 603 4863 
z
" transform="scale(0.015625)"/>
      <path id="DejaVuSans-68" d="M 3513 2113 
L 3513 0 
L 2938 0 
L 2938 2094 
Q 2938 2591 2744 2837 
Q 2550 3084 2163 3084 
Q 1697 3084 1428 2787 
Q 1159 2491 1159 1978 
L 1159 0 
L 581 0 
L 581 4863 
L 1159 4863 
L 1159 2956 
Q 1366 3272 1645 3428 
Q 1925 3584 2291 3584 
Q 2894 3584 3203 3211 
Q 3513 2838 3513 2113 
z
" transform="scale(0.015625)"/>
      <path id="DejaVuSans-61" d="M 2194 1759 
Q 1497 1759 1228 1600 
Q 959 1441 959 1056 
Q 959 750 1161 570 
Q 1363 391 1709 391 
Q 2188 391 2477 730 
Q 2766 1069 2766 1631 
L 2766 1759 
L 2194 1759 
z
M 3341 1997 
L 3341 0 
L 2766 0 
L 2766 531 
Q 2569 213 2275 61 
Q 1981 -91 1556 -91 
Q 1019 -91 701 211 
Q 384 513 384 1019 
Q 384 1609 779 1909 
Q 1175 2209 1959 2209 
L 2766 2209 
L 2766 2266 
Q 2766 2663 2505 2880 
Q 2244 3097 1772 3097 
Q 1472 3097 1187 3025 
Q 903 2953 641 2809 
L 641 3341 
Q 956 3463 1253 3523 
Q 1550 3584 1831 3584 
Q 2591 3584 2966 3190 
Q 3341 2797 3341 1997 
z
" transform="scale(0.015625)"/>
      <path id="DejaVuSans-6e" d="M 3513 2113 
L 3513 0 
L 2938 0 
L 2938 2094 
Q 2938 2591 2744 2837 
Q 2550 3084 2163 3084 
Q 1697 3084 1428 2787 
Q 1159 2491 1159 1978 
L 1159 0 
L 581 0 
L 581 3500 
L 1159 3500 
L 1159 2956 
Q 1366 3272 1645 3428 
Q 1925 3584 2291 3584 
Q 2894 3584 3203 3211 
Q 3513 2838 3513 2113 
z
" transform="scale(0.015625)"/>
      <path id="DejaVuSans-66" d="M 2375 4863 
L 2375 4384 
L 1825 4384 
Q 1516 4384 1395 4259 
Q 1275 4134 1275 3809 
L 1275 3500 
L 2222 3500 
L 2222 3053 
L 1275 3053 
L 1275 0 
L 697 0 
L 697 3053 
L 147 3053 
L 147 3500 
L 697 3500 
L 697 3744 
Q 697 4328 969 4595 
Q 1241 4863 1831 4863 
L 2375 4863 
z
" transform="scale(0.015625)"/>
      <path id="DejaVuSans-6d" d="M 3328 2828 
Q 3544 3216 3844 3400 
Q 4144 3584 4550 3584 
Q 5097 3584 5394 3201 
Q 5691 2819 5691 2113 
L 5691 0 
L 5113 0 
L 5113 2094 
Q 5113 2597 4934 2840 
Q 4756 3084 4391 3084 
Q 3944 3084 3684 2787 
Q 3425 2491 3425 1978 
L 3425 0 
L 2847 0 
L 2847 2094 
Q 2847 2600 2669 2842 
Q 2491 3084 2119 3084 
Q 1678 3084 1418 2786 
Q 1159 2488 1159 1978 
L 1159 0 
L 581 0 
L 581 3500 
L 1159 3500 
L 1159 2956 
Q 1356 3278 1631 3431 
Q 1906 3584 2284 3584 
Q 2666 3584 2933 3390 
Q 3200 3197 3328 2828 
z
" transform="scale(0.015625)"/>
      <path id="DejaVuSans-78" d="M 3513 3500 
L 2247 1797 
L 3578 0 
L 2900 0 
L 1881 1375 
L 863 0 
L 184 0 
L 1544 1831 
L 300 3500 
L 978 3500 
L 1906 2253 
L 2834 3500 
L 3513 3500 
z
" transform="scale(0.015625)"/>
      <path id="DejaVuSans-64" d="M 2906 2969 
L 2906 4863 
L 3481 4863 
L 3481 0 
L 2906 0 
L 2906 525 
Q 2725 213 2448 61 
Q 2172 -91 1784 -91 
Q 1150 -91 751 415 
Q 353 922 353 1747 
Q 353 2572 751 3078 
Q 1150 3584 1784 3584 
Q 2172 3584 2448 3432 
Q 2725 3281 2906 2969 
z
M 947 1747 
Q 947 1113 1208 752 
Q 1469 391 1925 391 
Q 2381 391 2643 752 
Q 2906 1113 2906 1747 
Q 2906 2381 2643 2742 
Q 2381 3103 1925 3103 
Q 1469 3103 1208 2742 
Q 947 2381 947 1747 
z
" transform="scale(0.015625)"/>
     </defs>
     <use xlink:href="#DejaVuSans-4d"/>
     <use xlink:href="#DejaVuSans-43" x="86.279297"/>
     <use xlink:href="#DejaVuSans-4d" x="156.103516"/>
     <use xlink:href="#DejaVuSans-43" x="242.382812"/>
     <use xlink:href="#DejaVuSans-20" x="312.207031"/>
     <use xlink:href="#DejaVuSans-72" x="343.994141"/>
     <use xlink:href="#DejaVuSans-65" x="382.857422"/>
     <use xlink:href="#DejaVuSans-73" x="444.380859"/>
     <use xlink:href="#DejaVuSans-75" x="496.480469"/>
     <use xlink:href="#DejaVuSans-6c" x="559.859375"/>
     <use xlink:href="#DejaVuSans-74" x="587.642578"/>
     <use xlink:href="#DejaVuSans-73" x="626.851562"/>
     <use xlink:href="#DejaVuSans-20" x="678.951172"/>
     <use xlink:href="#DejaVuSans-77" x="710.738281"/>
     <use xlink:href="#DejaVuSans-69" x="792.525391"/>
     <use xlink:href="#DejaVuSans-74" x="820.308594"/>
     <use xlink:href="#DejaVuSans-68" x="859.517578"/>
     <use xlink:href="#DejaVuSans-20" x="922.896484"/>
     <use xlink:href="#DejaVuSans-74" x="954.683594"/>
     <use xlink:href="#DejaVuSans-68" x="993.892578"/>
     <use xlink:href="#DejaVuSans-65" x="1057.271484"/>
     <use xlink:href="#DejaVuSans-20" x="1118.794922"/>
     <use xlink:href="#DejaVuSans-72" x="1150.582031"/>
     <use xlink:href="#DejaVuSans-61" x="1191.695312"/>
     <use xlink:href="#DejaVuSans-6e" x="1252.974609"/>
     <use xlink:href="#DejaVuSans-67" x="1316.353516"/>
     <use xlink:href="#DejaVuSans-65" x="1379.830078"/>
     <use xlink:href="#DejaVuSans-20" x="1441.353516"/>
     <use xlink:href="#DejaVuSans-66" x="1473.140625"/>
     <use xlink:href="#DejaVuSans-72" x="1508.345703"/>
     <use xlink:href="#DejaVuSans-6f" x="1547.208984"/>
     <use xlink:href="#DejaVuSans-6d" x="1608.390625"/>
     <use xlink:href="#DejaVuSans-20" x="1705.802734"/>
     <use xlink:href="#DejaVuSans-65" x="1737.589844"/>
     <use xlink:href="#DejaVuSans-78" x="1797.363281"/>
     <use xlink:href="#DejaVuSans-74" x="1856.542969"/>
     <use xlink:href="#DejaVuSans-72" x="1895.751953"/>
     <use xlink:href="#DejaVuSans-65" x="1934.615234"/>
     <use xlink:href="#DejaVuSans-6d" x="1996.138672"/>
     <use xlink:href="#DejaVuSans-65" x="2093.550781"/>
     <use xlink:href="#DejaVuSans-20" x="2155.074219"/>
     <use xlink:href="#DejaVuSans-6d" x="2186.861328"/>
     <use xlink:href="#DejaVuSans-6f" x="2284.273438"/>
     <use xlink:href="#DejaVuSans-64" x="2345.455078"/>
     <use xlink:href="#DejaVuSans-65" x="2408.931641"/>
     <use xlink:href="#DejaVuSans-6c" x="2470.455078"/>
     <use xlink:href="#DejaVuSans-73" x="2498.238281"/>
     <use xlink:href="#DejaVuSans-20" x="2550.337891"/>
     <use xlink:href="#DejaVuSans-77" x="2582.125"/>
     <use xlink:href="#DejaVuSans-69" x="2663.912109"/>
     <use xlink:href="#DejaVuSans-74" x="2691.695312"/>
     <use xlink:href="#DejaVuSans-68" x="2730.904297"/>
     <use xlink:href="#DejaVuSans-69" x="2794.283203"/>
     <use xlink:href="#DejaVuSans-6e" x="2822.066406"/>
     <use xlink:href="#DejaVuSans-20" x="2885.445312"/>
     <use xlink:href="#DejaVuSans-31" x="2917.232422"/>
     <use xlink:href="#DejaVuSans-20" x="2980.855469"/>
     <use xlink:href="#DejaVuSans-73" x="3012.642578"/>
     <use xlink:href="#DejaVuSans-69" x="3064.742188"/>
     <use xlink:href="#DejaVuSans-67" x="3092.525391"/>
     <use xlink:href="#DejaVuSans-6d" x="3156.001953"/>
     <use xlink:href="#DejaVuSans-61" x="3253.414062"/>
    </g>
   </g>
   <g id="legend_1">
    <g id="patch_7">
     <path d="M 300.9825 93.506375 
L 407.72 93.506375 
Q 409.72 93.506375 409.72 91.506375 
L 409.72 48.472 
Q 409.72 46.472 407.72 46.472 
L 300.9825 46.472 
Q 298.9825 46.472 298.9825 48.472 
L 298.9825 91.506375 
Q 298.9825 93.506375 300.9825 93.506375 
z
" style="fill: #ffffff; opacity: 0.8; stroke: #cccccc; stroke-linejoin: miter"/>
    </g>
    <g id="patch_8">
     <path d="M 302.9825 58.070438 
L 322.9825 58.070438 
L 322.9825 51.070438 
L 302.9825 51.070438 
z
" style="fill: #1f77b4; fill-opacity: 0.5"/>
    </g>
    <g id="text_19">
     <!-- Within 1 sigma -->
     <g transform="translate(330.9825 58.070438)scale(0.1 -0.1)">
      <defs>
       <path id="DejaVuSans-57" d="M 213 4666 
L 850 4666 
L 1831 722 
L 2809 4666 
L 3519 4666 
L 4500 722 
L 5478 4666 
L 6119 4666 
L 4947 0 
L 4153 0 
L 3169 4050 
L 2175 0 
L 1381 0 
L 213 4666 
z
" transform="scale(0.015625)"/>
      </defs>
      <use xlink:href="#DejaVuSans-57"/>
      <use xlink:href="#DejaVuSans-69" x="96.626953"/>
      <use xlink:href="#DejaVuSans-74" x="124.410156"/>
      <use xlink:href="#DejaVuSans-68" x="163.619141"/>
      <use xlink:href="#DejaVuSans-69" x="226.998047"/>
      <use xlink:href="#DejaVuSans-6e" x="254.78125"/>
      <use xlink:href="#DejaVuSans-20" x="318.160156"/>
      <use xlink:href="#DejaVuSans-31" x="349.947266"/>
      <use xlink:href="#DejaVuSans-20" x="413.570312"/>
      <use xlink:href="#DejaVuSans-73" x="445.357422"/>
      <use xlink:href="#DejaVuSans-69" x="497.457031"/>
      <use xlink:href="#DejaVuSans-67" x="525.240234"/>
      <use xlink:href="#DejaVuSans-6d" x="588.716797"/>
      <use xlink:href="#DejaVuSans-61" x="686.128906"/>
     </g>
    </g>
    <g id="line2d_16">
     <path d="M 302.9825 69.248563 
L 312.9825 69.248563 
L 322.9825 69.248563 
" style="fill: none; stroke: #008000; stroke-width: 2; stroke-linecap: square"/>
    </g>
    <g id="text_20">
     <!-- Best model -->
     <g transform="translate(330.9825 72.748563)scale(0.1 -0.1)">
      <defs>
       <path id="DejaVuSans-42" d="M 1259 2228 
L 1259 519 
L 2272 519 
Q 2781 519 3026 730 
Q 3272 941 3272 1375 
Q 3272 1813 3026 2020 
Q 2781 2228 2272 2228 
L 1259 2228 
z
M 1259 4147 
L 1259 2741 
L 2194 2741 
Q 2656 2741 2882 2914 
Q 3109 3088 3109 3444 
Q 3109 3797 2882 3972 
Q 2656 4147 2194 4147 
L 1259 4147 
z
M 628 4666 
L 2241 4666 
Q 2963 4666 3353 4366 
Q 3744 4066 3744 3513 
Q 3744 3084 3544 2831 
Q 3344 2578 2956 2516 
Q 3422 2416 3680 2098 
Q 3938 1781 3938 1306 
Q 3938 681 3513 340 
Q 3088 0 2303 0 
L 628 0 
L 628 4666 
z
" transform="scale(0.015625)"/>
      </defs>
      <use xlink:href="#DejaVuSans-42"/>
      <use xlink:href="#DejaVuSans-65" x="68.603516"/>
      <use xlink:href="#DejaVuSans-73" x="130.126953"/>
      <use xlink:href="#DejaVuSans-74" x="182.226562"/>
      <use xlink:href="#DejaVuSans-20" x="221.435547"/>
      <use xlink:href="#DejaVuSans-6d" x="253.222656"/>
      <use xlink:href="#DejaVuSans-6f" x="350.634766"/>
      <use xlink:href="#DejaVuSans-64" x="411.816406"/>
      <use xlink:href="#DejaVuSans-65" x="475.292969"/>
      <use xlink:href="#DejaVuSans-6c" x="536.816406"/>
     </g>
    </g>
    <g id="LineCollection_2">
     <path d="M 312.9825 88.926688 
L 312.9825 78.926688 
" style="fill: none; stroke: #000000; stroke-width: 1.5"/>
    </g>
    <g id="line2d_17"/>
    <g id="line2d_18">
     <g>
      <use xlink:href="#m43497031ef" x="312.9825" y="83.926688" style="fill: #0000ff; stroke: #0000ff"/>
     </g>
    </g>
    <g id="text_21">
     <!-- Data -->
     <g transform="translate(330.9825 87.426688)scale(0.1 -0.1)">
      <defs>
       <path id="DejaVuSans-44" d="M 1259 4147 
L 1259 519 
L 2022 519 
Q 2988 519 3436 956 
Q 3884 1394 3884 2338 
Q 3884 3275 3436 3711 
Q 2988 4147 2022 4147 
L 1259 4147 
z
M 628 4666 
L 1925 4666 
Q 3281 4666 3915 4102 
Q 4550 3538 4550 2338 
Q 4550 1131 3912 565 
Q 3275 0 1925 0 
L 628 0 
L 628 4666 
z
" transform="scale(0.015625)"/>
      </defs>
      <use xlink:href="#DejaVuSans-44"/>
      <use xlink:href="#DejaVuSans-61" x="77.001953"/>
      <use xlink:href="#DejaVuSans-74" x="138.28125"/>
      <use xlink:href="#DejaVuSans-61" x="177.490234"/>
     </g>
    </g>
   </g>
  </g>
 </g>
 <defs>
  <clipPath id="pb775fbce4b">
   <rect x="57.6" y="41.472" width="357.12" height="266.112"/>
  </clipPath>
 </defs>
</svg>
